<svg id="圖層_1" data-name="圖層 1" xmlns="http://www.w3.org/2000/svg" viewBox="0 0 141.01 149.19"><defs><style>.cls-1{fill:#ff7c21;}.cls-2{fill:none;stroke:#ff7c21;stroke-linecap:round;stroke-miterlimit:10;stroke-width:10px;}</style></defs><title>slider1__anim</title><path class="cls-1" d="M129.55,124.68a5,5,0,0,1-3.92-8.1,61.4,61.4,0,0,0,4.2-6,5,5,0,1,1,8.54,5.21,71.88,71.88,0,0,1-4.9,7A5,5,0,0,1,129.55,124.68Z" transform="translate(-7.62 0.09)"/><path class="cls-1" d="M140.36,104.62a4.79,4.79,0,0,1-1.57-.26,5,5,0,0,1-3.18-6.31,60,60,0,0,0,1.88-7.11,5,5,0,1,1,9.81,2,71.18,71.18,0,0,1-2.19,8.29A5,5,0,0,1,140.36,104.62Z" transform="translate(-7.62 0.09)"/><path class="cls-1" d="M143.63,82.06a5,5,0,0,1-5-4.85V77a61.82,61.82,0,0,0-.68-7.33,5,5,0,0,1,9.89-1.52,71.53,71.53,0,0,1,.78,8.53v.21a5,5,0,0,1-4.85,5.15Z" transform="translate(-7.62 0.09)"/><path class="cls-1" d="M139,59.55a5,5,0,0,1-4.64-3.14,60.36,60.36,0,0,0-3.16-6.65,5,5,0,0,1,8.76-4.83,72.21,72.21,0,0,1,3.68,7.75,5,5,0,0,1-2.78,6.51A5.08,5.08,0,0,1,139,59.55Z" transform="translate(-7.62 0.09)"/><path class="cls-1" d="M126.91,40.19a5,5,0,0,1-3.73-1.67A60.76,60.76,0,0,0,118,33.35a5,5,0,0,1,6.58-7.53,70.85,70.85,0,0,1,6.1,6,5,5,0,0,1-3.72,8.34Z" transform="translate(-7.62 0.09)"/><path class="cls-1" d="M109,26.1a4.9,4.9,0,0,1-2.36-.6,61,61,0,0,0-6.68-3.07,5,5,0,0,1,3.62-9.32,71.07,71.07,0,0,1,7.79,3.58A5,5,0,0,1,109,26.1Z" transform="translate(-7.62 0.09)"/><path class="cls-2" d="M69.9,13.3A65.67,65.67,0,0,0,22,112.19" transform="translate(-7.62 0.09)"/><path class="cls-2" d="M22,112.19a65.68,65.68,0,0,0,93.68,20.26" transform="translate(-7.62 0.09)"/><path class="cls-1" d="M68.55,27.73,79.93,13a1.19,1.19,0,0,0-.21-1.67L65-.09Z" transform="translate(-7.62 0.09)"/></svg>