<svg id="圖層_1" data-name="圖層 1" xmlns="http://www.w3.org/2000/svg" viewBox="0 0 1200 1200"><path d="M486.45,521.88a86.29,86.29,0,0,1,12.26-12.27c5.72-4.9,11.44-2.45,15.53-9.81s18-20.43,22.89-24.52,15.54-13.9,19.62-16.35,17.17-5.72,22.08-6.54,45.78,6.54,53.95,9,36.79,20.44,39.24,22.89,4.09,6.54,5.72,6.54,1.64,2.45,4.09,4.09,5.72,9,8.18,9.81,9,6.54,12.26,9,5.72,11.45,8.18,14.72,4.08,3.27,5.72,6.54a54.78,54.78,0,0,0,5.72,9c2.45,3.27,4.91,18.8,5.72,24.53A106.07,106.07,0,0,0,730.88,584c1.64,5.72-1.63,14.71-2.45,22.89s-4.9,16.35-5.72,22.07-4.09,9-4.09,13.08.82,9-1.63,13.08-4.91,4.91-7.36,12.26-8.18,15.54-9.81,18-6.54,11.44-8.18,14.71-5.72,5.73-10.63,9.81-7.35,5.73-10.62,9-6.54,4.9-9.81,7.36-4.09,3.27-6.54,4.08-4.09,0-6.54,1.64-2.46.82-4.91,3.27-2.45,2.45-6.54,4.9-3.27,4.09-7.36,4.91-5.72,3.27-9,2.45-7.36-4.09-7.36-4.09-4.9,1.64-8.17,0c0,0,2.45,3.27-1.64,3.27s-7.35-4.08-9.81-5.72-6.54.82-9.81-2.45a11.34,11.34,0,0,1-3.27-7.36,26.14,26.14,0,0,1-4.9,1.64c-3.27.81-4.91,0-6.54-1.64s-3.27-3.27-5.72-4.09-6.54-4.09-6.54-4.09.81-4.9-1.64-4.9-5.72,2.45-7.36.82-3.27-4.91-4.09-5.73-3.27,0-4.9-1.63l-3.27-3.27s-9-1.64-12.26-8.18a11.78,11.78,0,0,1-5.73-1.63c-2.45-1.64-2.45-3.27-3.27-3.27s-6.54,1.63-6.54,1.63a46.28,46.28,0,0,1-.81-5.72,8.47,8.47,0,0,0-.82-3.27,3,3,0,0,0,1.63-2.45c0-1.64-1.63-3.27-3.27-4.09s-.81-2.45-2.45-2.45-.82-2.45-.82-3.27-2.45-2.45-3.27-2.45,1.64-2.46,0-2.46-4.08.82-4.9,0-1.64-.81-1.64-3.27,0-5.72-.81-5.72-3.27.82-4.09-1.63a14.32,14.32,0,0,1-.82-4.09s-2.45,0-.82-1.64l1.64-1.63s-1.64-2.45,0-4.09,2.45-1.63,2.45-2.45,1.64-3.27.82-4.91-1.64-.81-1.64-.81a4.3,4.3,0,0,1,.82-4.09c1.64-1.64,3.27-1.64,3.27-2.45s.82-2.46-1.63-3.27-3.27-4.09-3.27-4.09-1.64,3.27-2.46,1.63-1.63-2.45-2.45-2.45a1.57,1.57,0,0,1-.82-2.45c.82-.82,1.64-2.45.82-3.27s-2.45,0-2.45-2.45-.82-4.09,0-4.91,2.45-.82,1.63-2.45-3.27-1.64-3.27-3.27-.81-4.09-.81-5.72v-2.46s-3.27-3.27-2.46-4.9,1.64-1.64,1.64-1.64,1.63-8.17,1.63-10.62-1.63-1.64-.81-3.27l.81-1.64s0-3.27-1.63-4.9-4.09-3.27-3.27-5.73.82-7.36.82-8.17-3.27-1.64-4.09-4.09a8.93,8.93,0,0,1,0-6.54c.82-1.64,2.45-4.09,2.45-5.72V539s4.09-.81,5.72-2.45,3.27-9,4.91-10.63Z"/></svg>