<?xml version="1.0" encoding="utf-8"?>
<!-- Generator: Adobe Illustrator 24.1.3, SVG Export Plug-In . SVG Version: 6.00 Build 0)  -->
<svg version="1.1" id="圖層_1" xmlns="http://www.w3.org/2000/svg" xmlns:xlink="http://www.w3.org/1999/xlink" x="0px" y="0px"
	 viewBox="0 0 1200 1200" style="enable-background:new 0 0 1200 1200;" xml:space="preserve">
<g>
	<path d="M561.34,521.95c3.44-1.72,11.59-3.25,16.14-5.47c4.56-2.21,12.63-4.04,17.31-4.17c4.69-0.13,23.17,2.08,32.67,8.2
		c9.5,6.12,15.36,5.21,19.27,9.5c3.91,4.3,9.24,7.94,12.5,13.02c3.25,5.08,12.37,13.67,16.66,17.44c4.3,3.77,9.24,4.56,9.89,11.98
		c0.65,7.42-0.39,17.44,1.17,22.52c1.56,5.08,3.12,8.07,0.65,14.45c-2.47,6.38-6.38,9.24-6.38,9.24s-1.04,5.34-2.08,6.51
		c-1.04,1.17-1.95,4.17-3.51,4.95c-1.56,0.78-2.34,3.12-2.34,3.12s1.43,6.77-1.04,8.07c-2.47,1.3-4.17,4.95-5.21,6.77
		c-1.04,1.82-5.47,7.55-8.33,11.45c-2.86,3.91-10.93,13.28-18.87,16.27c-7.94,2.99-22.39,8.2-24.21,9.89
		c-1.82,1.69-1.95,1.69-4.69,1.56c-2.73-0.13-6.12,0-9.24-0.39c-3.12-0.39-5.99-0.78-6.77-0.39c0,0-1.04,1.43-2.21,1.17
		c-1.17-0.26-1.17-0.26-1.17-0.26s-0.78,0.65-1.43-0.78c-0.65-1.43-1.17-1.95-2.47-2.47s-6.77-1.69-10.41-3.51
		c-3.64-1.82-11.85-8.46-14.84-9.89c-2.99-1.43-6.9-2.86-6.9-2.86s-1.3,2.21-4.3-1.43c-2.99-3.64-4.82-5.6-6.38-5.99
		c-1.56-0.39-1.17-0.65-1.56-1.69c-0.39-1.04-4.3-3.25-7.94-13.28c-3.64-10.02-3.51-12.11-4.56-13.02c-1.04-0.91,0.39-1.56,0-2.86
		s-1.69-2.86-2.47-5.73c-0.78-2.86-0.13-4.43-0.65-5.47c-0.52-1.04-2.47-4.3-5.6-4.82c-3.12-0.52-3.12-0.52-3.12-0.52
		s-1.82,0.78-2.47-1.82c-0.65-2.6-0.39-3.51-1.82-4.95c-1.43-1.43-3.12-2.47-3.12-4.69s-0.39-7.29-0.39-9.11
		c0-1.82,1.43-1.17,1.95-2.34s1.82-3.12,1.43-6.9c-0.39-3.77-2.08-4.82-0.65-8.72c1.43-3.91,4.95-9.5,7.42-12.11
		c2.47-2.6,4.17-4.3,4.3-5.99c0.13-1.69,0.78-0.65,2.21-2.34c1.43-1.69,0.91-3.51,5.34-9.37c4.43-5.86,8.98-11.19,13.28-14.84
		c4.3-3.64,6.51-3.51,9.11-4.04S556.92,524.16,561.34,521.95z"/>
</g>
</svg>
