<?xml version="1.0" encoding="utf-8"?>
<!-- Generator: Adobe Illustrator 24.1.3, SVG Export Plug-In . SVG Version: 6.00 Build 0)  -->
<svg version="1.1" id="圖層_1" xmlns="http://www.w3.org/2000/svg" xmlns:xlink="http://www.w3.org/1999/xlink" x="0px" y="0px"
	 viewBox="0 0 1200 1200" style="enable-background:new 0 0 1200 1200;" xml:space="preserve">
<style type="text/css">
	.st0{fill-rule:evenodd;clip-rule:evenodd;}
</style>
<g>
	<path class="st0" d="M624.45,551.16c-0.08,0-0.16,0-0.23,0c0.04,0.27,0.02,0.3,0.12,0.47c0.04,0,0.08,0,0.12,0
		c0,0.16,0,0.31,0,0.47c-0.04,0-0.08,0-0.12,0c0.04,0.08,0.08,0.16,0.12,0.23c-0.04,0-0.08,0-0.12,0c0,0.12,0,0.23,0,0.35
		c-0.04,0-0.08,0-0.12,0c0,0.08,0,0.16,0,0.23c-0.04,0-0.08,0-0.12,0c0,0.16,0,0.31,0,0.47c-0.04,0-0.08,0-0.12,0
		c0,0.23,0,0.47,0,0.7c-0.04,0-0.08,0-0.12,0c-0.04,0.16-0.08,0.31-0.12,0.47c-0.04,0-0.08,0-0.12,0c-0.04,0.39-0.08,0.78-0.12,1.17
		c-0.12,0.36-0.3,0.7-0.35,1.17c-0.08,0-0.16,0-0.23,0c-0.04,0.16-0.08,0.31-0.12,0.47c-0.08,0.04-0.16,0.08-0.23,0.12
		c0,0.12,0,0.23,0,0.35c-0.04,0-0.08,0-0.12,0c-0.16,0.22-0.26,0.27-0.35,0.58c-0.08,0-0.16,0-0.23,0c-0.19,0.35-0.39,0.7-0.58,1.05
		c-0.08,0-0.16,0-0.23,0c0,0.12,0,0.23,0,0.35c-0.29,0.17-0.33,0.37-0.7,0.47c-0.14,0.66-0.55,0.69-0.58,1.52
		c-0.16,0.04-0.31,0.08-0.47,0.12c-0.04,0.12-0.08,0.23-0.12,0.35c-0.08,0-0.16,0-0.23,0c-0.19,0.32-0.47,0.3-0.58,0.7
		c-0.08,0-0.16,0-0.23,0c-0.17,0.26-0.27,0.17-0.47,0.35c-0.35,0.39-0.7,0.78-1.05,1.17c-0.08,0-0.16,0-0.23,0c0,0.04,0,0.08,0,0.12
		c-0.19,0.16-0.39,0.31-0.58,0.47c0,0.08,0,0.16,0,0.23c-0.08,0-0.16,0-0.23,0c-0.31,0.39-0.62,0.78-0.93,1.17
		c-0.08,0-0.16,0-0.23,0c0,0.04,0,0.08,0,0.12c-0.12,0.08-0.23,0.16-0.35,0.23c0,0.08,0,0.16,0,0.23c-0.04,0-0.08,0-0.12,0
		c-0.17,0.2-0.27,0.28-0.35,0.58c-0.29,0.07-0.19,0.06-0.35,0.23c-0.04,0-0.08,0-0.12,0c0,0.08,0,0.16,0,0.23c-0.04,0-0.08,0-0.12,0
		c-0.04,0.12-0.08,0.23-0.12,0.35c-0.08,0-0.16,0-0.23,0c-0.19,0.39-0.39,0.78-0.58,1.17c-0.08,0-0.16,0-0.23,0
		c0,0.12,0,0.23,0,0.35c-0.37,0.22-0.35,0.36-0.58,0.7c-0.08,0.04-0.16,0.08-0.23,0.12c0,0.08,0,0.16,0,0.23
		c-0.19,0.16-0.39,0.31-0.58,0.47c-0.04,0.16-0.08,0.31-0.12,0.47c-0.08,0.04-0.16,0.08-0.23,0.12c0,0.16,0,0.31,0,0.47
		c-0.08,0.04-0.16,0.08-0.23,0.12c0,0.08,0,0.16,0,0.23c-0.04,0-0.08,0-0.12,0c0,0.12,0,0.23,0,0.35c-0.04,0-0.08,0-0.12,0
		c0,0.08,0,0.16,0,0.23c-0.08,0.04-0.16,0.08-0.23,0.12c0,0.08,0,0.16,0,0.23l-0.23,0.23c0,0.08,0,0.16,0,0.23
		c-0.04,0-0.08,0-0.12,0c0,0.08,0,0.16,0,0.23c-0.04,0-0.08,0-0.12,0c0,0.08,0,0.16,0,0.23c-0.08,0.04-0.16,0.08-0.23,0.12
		c0,0.12,0,0.23,0,0.35c-0.04,0-0.08,0-0.12,0c0,0.08,0,0.16,0,0.23c-0.08,0.04-0.16,0.08-0.23,0.12c-0.12,0.35-0.23,0.7-0.35,1.05
		c-0.08,0-0.16,0-0.23,0c0.13,0.13,0,0.05,0.23,0.12c-0.03,0.46-0.23,0.73-0.35,1.05c0,0.16,0,0.31,0,0.47c-0.04,0-0.08,0-0.12,0
		c0,0.08,0,0.16,0,0.23c-0.04,0-0.08,0-0.12,0c-0.08,0.23-0.16,0.47-0.23,0.7c-0.04,0-0.08,0-0.12,0c0,0.08,0,0.16,0,0.23
		c-0.04,0-0.08,0-0.12,0c-0.08,0.23-0.16,0.47-0.23,0.7c-0.04,0-0.08,0-0.12,0c-0.04,0.12-0.08,0.23-0.12,0.35
		c-0.08,0.04-0.16,0.08-0.23,0.12c-0.12,0.25,0.09,0.46,0.12,0.58c-0.08,0.04-0.16,0.08-0.23,0.12c0,0.08,0,0.16,0,0.23
		c-0.35,0.23-0.7,0.47-1.05,0.7c0,0.08,0,0.16,0,0.23c-0.08,0.04-0.16,0.08-0.23,0.12c-0.04,0.12-0.08,0.23-0.12,0.35
		c-0.04,0-0.08,0-0.12,0c-0.04,0.16-0.08,0.31-0.12,0.47c-0.12,0.08-0.23,0.16-0.35,0.23c-0.04,0.19-0.08,0.39-0.12,0.58
		c-0.12,0.08-0.23,0.16-0.35,0.23c-0.04,0.16-0.08,0.31-0.12,0.47c-0.08,0.04-0.16,0.08-0.23,0.12c-0.04,0.12-0.08,0.23-0.12,0.35
		c-0.04,0-0.08,0-0.12,0c-0.04,0.19-0.08,0.39-0.12,0.58c-0.12,0.08-0.23,0.16-0.35,0.23c0,0.12,0,0.23,0,0.35
		c-0.12,0.08-0.23,0.16-0.35,0.23c-0.04,0.16-0.08,0.31-0.12,0.47c-0.08,0.04-0.16,0.08-0.23,0.12c0,0.08,0,0.16,0,0.23
		c-0.04,0-0.08,0-0.12,0c-0.11,0.16-0.08,0.21-0.12,0.47c-0.08,0-0.16,0-0.23,0c-0.04,0.12-0.08,0.23-0.12,0.35
		c-0.04,0-0.08,0-0.12,0c-0.04,0.23-0.08,0.47-0.12,0.7c-0.12,0.08-0.23,0.16-0.35,0.23c0,0.08,0,0.16,0,0.23
		c-0.08,0.04-0.16,0.08-0.23,0.12c-0.08,0.23-0.16,0.47-0.23,0.7c-0.12,0.08-0.23,0.16-0.35,0.23c-0.12,0.35-0.23,0.7-0.35,1.05
		c-0.08,0-0.16,0-0.23,0c-0.09,0.42-0.22,0.58-0.23,1.17c0.04,0,0.08,0,0.12,0c0.18-0.32,0.89-0.84,1.29-0.93c0-0.08,0-0.16,0-0.23
		c0.08,0,0.16,0,0.23,0c0.24-0.41,0.68-0.54,0.82-1.05c0.08,0,0.16,0,0.23,0c0.04-0.19,0.08-0.39,0.12-0.58c0.08,0,0.16,0,0.23,0
		c0-0.08,0-0.16,0-0.23c0.08,0,0.16,0,0.23,0c0.08-0.34,0.13-0.38,0.47-0.47c0.04-0.19,0.08-0.39,0.12-0.58
		c0.12-0.08,0.23-0.16,0.35-0.23c0-0.08,0-0.16,0-0.23c0.08-0.04,0.16-0.08,0.23-0.12c0.04-0.16,0.08-0.31,0.12-0.47
		c0.04,0,0.08,0,0.12,0c0.08-0.23,0.16-0.47,0.23-0.7c0.08-0.04,0.16-0.08,0.23-0.12c0-0.12,0-0.23,0-0.35
		c0.08-0.04,0.16-0.08,0.23-0.12c0.04-0.16,0.08-0.31,0.12-0.47c0.08-0.04,0.16-0.08,0.23-0.12c0-0.08,0-0.16,0-0.23
		c0.04,0,0.08,0,0.12,0c0.04-0.16,0.08-0.31,0.12-0.47c0.04,0,0.08,0,0.12,0c0-0.16,0-0.31,0-0.47c0.08-0.04,0.16-0.08,0.23-0.12
		c0-0.08,0-0.16,0-0.23c0.04,0,0.08,0,0.12,0c0-0.23,0-0.47,0-0.7c0.04,0,0.08,0,0.12,0c0-0.08,0-0.16,0-0.23c0.04,0,0.08,0,0.12,0
		c0.04-0.12,0.08-0.23,0.12-0.35c0.08,0,0.16,0,0.23,0c0,0.43,0,0.86,0,1.29c-0.08,0-0.16,0-0.23,0c-0.06,0.59-0.39,0.76-0.58,1.17
		c0,0.12,0,0.23,0,0.35c-0.08,0.04-0.16,0.08-0.23,0.12c0,0.08,0,0.16,0,0.23c-0.08,0.04-0.16,0.08-0.23,0.12
		c-0.12,0.35-0.23,0.7-0.35,1.05c-0.04,0-0.08,0-0.12,0c0,0.08,0,0.16,0,0.23c-0.12,0.08-0.23,0.16-0.35,0.23
		c-0.08,0.23-0.16,0.47-0.23,0.7c-0.04,0-0.08,0-0.12,0c-0.04,0.12-0.08,0.23-0.12,0.35c-0.08,0.04-0.16,0.08-0.23,0.12
		c-0.04,0.16-0.08,0.31-0.12,0.47c-0.08,0.04-0.16,0.08-0.23,0.12c-0.25,0.27-0.4,0.45-0.47,0.93c-0.12,0-0.23,0-0.35,0
		c-0.2,0.89-0.97,0.84-1.17,1.52c-0.08,0-0.16,0-0.23,0c-0.24,0.39-0.57,0.44-0.93,0.7c-0.08,0.12-0.16,0.23-0.23,0.35
		c-0.08,0-0.16,0-0.23,0c-0.11,0.1-0.19,0.27,0,0.35c0,0.04,0,0.08,0,0.12c-0.08,0-0.16,0-0.23,0c0,0.04,0,0.08,0,0.12
		c-0.3,0.21-0.22-0.13-0.35,0.35c-0.19,0.04-0.39,0.08-0.58,0.12c-0.04,0.16-0.08,0.31-0.12,0.47c-0.08,0-0.16,0-0.23,0
		c0,0.08,0,0.16,0,0.23c-0.08,0-0.16,0-0.23,0c-0.04,0.12-0.08,0.23-0.12,0.35c-0.12,0.08-0.23,0.16-0.35,0.23c0,0.12,0,0.23,0,0.35
		c-0.08,0.04-0.16,0.08-0.23,0.12c0,0.08,0,0.16,0,0.23c-0.08,0.04-0.16,0.08-0.23,0.12c0,0.12,0,0.23,0,0.35
		c-0.08,0.04-0.16,0.08-0.23,0.12c0,0.08,0,0.16,0,0.23c-0.12,0.08-0.23,0.16-0.35,0.23c0,0.08,0,0.16,0,0.23c-0.04,0-0.08,0-0.12,0
		c-0.11,0.2-0.09,0.34,0,0.47c-0.08,0-0.16,0-0.23,0c0,0.04,0,0.08,0,0.12c-0.12,0.08-0.23,0.16-0.35,0.23c0,0.12,0,0.23,0,0.35
		c-0.04,0-0.08,0-0.12,0c-0.19,0.25-0.38,0.35-0.47,0.7c-0.08,0-0.16,0-0.23,0c0,0.08,0,0.16,0,0.23c-0.08,0-0.16,0-0.23,0
		c-0.08,0.35-0.16,0.7-0.23,1.05c-0.04,0-0.08,0-0.12,0c-0.1,0.41,0.15,0.33,0.23,0.47c0,0.17-0.03-0.02-0.12,0.12
		c0,0.04,0,0.08,0,0.12c0.04,0,0.08,0,0.12,0c0.03,0.19-0.11,0.21-0.12,0.23c0.04,0.23,0.08,0.47,0.12,0.7
		c0.52,0,0.52-0.04,0.82-0.23c0-0.04,0-0.08,0-0.12c0.19,0,0.39,0,0.58,0c0.08-0.16,0.16-0.31,0.23-0.47c0.12,0,0.23,0,0.35,0
		c0-0.04,0-0.08,0-0.12c0.37-0.2,0.57-0.11,0.7-0.58c0.32-0.08,0.26-0.03,0.35-0.35c0.12-0.04,0.23-0.08,0.35-0.12
		c0-0.04,0-0.08,0-0.12c0.08,0,0.16,0,0.23,0c0.04-0.08,0.08-0.16,0.12-0.23c0.08,0,0.16,0,0.23,0c0.04-0.08,0.08-0.16,0.12-0.23
		c0.08,0,0.16,0,0.23,0c0.04-0.08,0.08-0.16,0.12-0.23c0.08,0,0.16,0,0.23,0c0-0.04,0-0.08,0-0.12c0.26-0.21,0.42-0.37,0.82-0.47
		c0-0.08,0-0.16,0-0.23c0.6-0.16,0.6-0.66,1.29-0.82c0-0.08,0-0.16,0-0.23c0.08,0,0.16,0,0.23,0c0.23-0.27,0.47-0.55,0.7-0.82
		c0.16-0.04,0.31-0.08,0.47-0.12c0.31-0.35,0.62-0.7,0.93-1.05c0.28-0.26,0.33,0.01,0.47-0.47c0.08,0,0.16,0,0.23,0
		c0-0.08,0-0.16,0-0.23c0.12,0,0.23,0,0.35,0c0.32-0.55,0.88-0.82,1.4-1.17c0.04-0.08,0.08-0.16,0.12-0.23c0.08,0,0.16,0,0.23,0
		c0.19-0.23,0.39-0.47,0.58-0.7c0.08,0,0.16,0,0.23,0c0.04-0.08,0.08-0.16,0.12-0.23c0.12,0,0.23,0,0.35,0
		c0.04-0.08,0.08-0.16,0.12-0.23c0.26-0.23,0.37-0.41,0.82-0.47c0,0.04,0,0.08,0,0.12c-0.12,0.08-0.23,0.16-0.35,0.23
		c0,0.04,0,0.08,0,0.12c-0.08,0-0.16,0-0.23,0c0,0.04,0,0.08,0,0.12c-0.17,0.16-0.16,0.06-0.23,0.35c-0.53,0.07-0.29,0.1-0.58,0.35
		c0,0.04,0,0.08,0,0.12c-0.08,0-0.16,0-0.23,0c0,0.08,0,0.16,0,0.23c-0.08,0-0.16,0-0.23,0c-0.24,0.41-0.68,0.54-0.82,1.05
		c-0.16,0.03-0.9,0.4-0.93,0.47c0,0.08,0,0.16,0,0.23c-0.08,0-0.16,0-0.23,0c-0.22,0.4-1.13,1.29-1.64,1.4c0,0.08,0,0.16,0,0.23
		c-0.08,0-0.16,0-0.23,0c0,0.08,0,0.16,0,0.23c-0.08,0-0.16,0-0.23,0c-0.19,0.23-0.39,0.47-0.58,0.7c-0.08,0-0.16,0-0.23,0
		c-0.04,0.12-0.08,0.23-0.12,0.35c-0.04,0-0.08,0-0.12,0c-0.2,0.24-0.22,0.37-0.58,0.47c0,0.08,0,0.16,0,0.23c-0.08,0-0.16,0-0.23,0
		c-0.18,0.29-0.13,0.07-0.35,0.23c-0.27,0.31-0.55,0.62-0.82,0.93c-0.08,0-0.16,0-0.23,0c-0.04,0.08-0.08,0.16-0.12,0.23
		c-0.28,0.27-0.78,0.83-1.17,0.93c0,0.08,0,0.16,0,0.23c-0.08,0-0.16,0-0.23,0c0,0.08,0,0.16,0,0.23c-0.51,0.13-0.61,0.55-1.17,0.7
		c-0.08,0.29-0.06,0.19-0.23,0.35c0,0.04,0,0.08,0,0.12c-0.08,0-0.16,0-0.23,0c-0.12,0.16-0.23,0.31-0.35,0.47
		c-0.08,0.04-0.16,0.08-0.23,0.12c0,0.16,0,0.31,0,0.47c-0.16,0-0.31,0-0.47,0c0,0.08,0,0.16,0,0.23c-0.08,0-0.16,0-0.23,0
		c-0.24,0.35-0.14,0.07-0.35,0.23c-0.26,0.21-0.24,0.57-0.23,1.05c-0.04,0-0.08,0-0.12,0c0,0.04,0,0.08,0,0.12
		c0.69-0.01,1.34,0.2,1.75,0.47c0.04,0.08,0.08,0.16,0.12,0.23c0.16,0,0.31,0,0.47,0c0.04,0.08,0.08,0.16,0.12,0.23
		c0.08,0,0.16,0,0.23,0c0.04,0.08,0.08,0.16,0.12,0.23c0.08,0,0.16,0,0.23,0c0,0.04,0,0.08,0,0.12c0.08,0,0.16,0,0.23,0
		c0,0.04,0,0.08,0,0.12c0.08,0,0.16,0,0.23,0c0,0.04,0,0.08,0,0.12c0.32,0.2,0.22-0.11,0.35,0.35c0.12,0.04,0.23,0.08,0.35,0.12
		c0,0.04,0,0.08,0,0.12c0.08,0,0.16,0,0.23,0c0,0.04,0,0.08,0,0.12c0.12,0,0.23,0,0.35,0c0.08,0.12,0.16,0.23,0.23,0.35
		c0.27,0.16,0.55,0.31,0.82,0.47c0.62-0.04,1.25-0.08,1.87-0.12c1,0,2.03-0.23,2.8-0.47c0.23,0,0.47,0,0.7,0c0-0.04,0-0.08,0-0.12
		c0.62-0.04,1.25-0.08,1.87-0.12c0-0.04,0-0.08,0-0.12c0.04,0,0.08,0,0.12,0c0,0.04,0,0.08,0,0.12c0.12,0,0.23,0,0.35,0
		c0.04,0.08,0.08,0.16,0.12,0.23c0.58,0,1.17,0,1.75,0c0-0.04,0-0.08,0-0.12c0.19,0,0.39,0,0.58,0c0,0.04,0,0.08,0,0.12
		c0.2,0.03,0.2-0.11,0.23-0.12c0.47,0,0.93,0,1.4,0c0-0.04,0-0.08,0-0.12c0.43,0.04,0.86,0.08,1.29,0.12c0-0.04,0-0.08,0-0.12
		c0.27,0,0.55,0,0.82,0c0-0.04,0-0.08,0-0.12c0.08,0,0.16,0,0.23,0c0-0.04,0-0.08,0-0.12c0.19,0,0.39,0,0.58,0
		c0.04-0.08,0.08-0.16,0.12-0.23c0.19-0.06,0.21,0.11,0.23,0.12c0.47,0.09,0.62-0.23,1.05,0c0.08,0.12,0.16,0.23,0.23,0.35
		c0.08,0,0.16,0,0.23,0c0,0.04,0,0.08,0,0.12c0.16,0.04,0.31,0.08,0.47,0.12c0,0.04,0,0.08,0,0.12c0.26,0.09,0.78-0.05,0.93-0.12
		c0-0.04,0-0.08,0-0.12c0.35,0,0.7,0,1.05,0c-0.05,0.6-0.29,0.83-0.58,1.17c-0.08,0.04-0.16,0.08-0.23,0.12c0,0.23,0,0.47,0,0.7
		c0,0-0.07,0-0.12,0.23c-0.16,0.04-0.31,0.08-0.47,0.12c0,0.04,0,0.08,0,0.12c-0.35,0.19-0.7,0.39-1.05,0.58c0,0.08,0,0.16,0,0.23
		c-0.04,0-0.08,0-0.12,0c-0.13,0.24,0.11,0.47,0.12,0.58c-0.04,0-0.08,0-0.12,0c-0.04,0.12-0.08,0.23-0.12,0.35
		c-0.55,0.02-0.88,0.22-1.29,0.35c-0.51,0.04-1.01,0.08-1.52,0.12c0,0.04,0,0.08,0,0.12c-0.12,0-0.23,0-0.35,0c0,0.04,0,0.08,0,0.12
		c-0.12-0.04-0.23-0.08-0.35-0.12c-0.04,0.23-0.08,0.47-0.12,0.7c-0.12,0.04-0.23,0.08-0.35,0.12c0,0.12,0,0.23,0,0.35
		c-0.31,0.08-0.62,0.16-0.93,0.23c-0.04,0.08-0.08,0.16-0.12,0.23c-0.38,0.13-0.39-0.21-0.47-0.23c-0.27,0.04-0.55,0.08-0.82,0.12
		c-0.04,0.19-0.08,0.39-0.12,0.58c0.16,0.12,0.31,0.23,0.47,0.35c0,0.04,0,0.08,0,0.12c0.17,0.11,0.36-0.05,0.47,0.12
		c0,0.08,0,0.16,0,0.23c0.08,0,0.16,0,0.23,0c0,0.08,0,0.16,0,0.23c0.23,0,0.47,0,0.7,0c0,0.04,0,0.08,0,0.12c0.04,0,0.08,0,0.12,0
		c0,0.12,0,0.23,0,0.35c0.53,0.13,0.68,0.5,1.29,0.58c0,0.08,0,0.16,0,0.23c0.13,0.06,0.19,0.21,0.23,0.23c0.12,0,0.23,0,0.35,0
		c0.08,0.12,0.16,0.23,0.23,0.35c0.39,0.26,0.55,0.01,0.7,0.58c0.54,0.06,0.65,0.31,1.29,0.35c0,0.12,0,0.23,0,0.35
		c0.4,0.09,0.79,0.34,1.05,0.58c0.04,0.08,0.08,0.16,0.12,0.23c0.16,0.04,0.31,0.08,0.47,0.12c0,0.04,0,0.08,0,0.12
		c1.13,0.08,2.26,0.16,3.39,0.23c0,0.04,0,0.08,0,0.12c0.19,0,0.39,0,0.58,0c0,0.04,0,0.08,0,0.12c0.19,0,0.39,0,0.58,0
		c0,0.04,0,0.08,0,0.12c0.31,0,0.62,0,0.93,0c0,0.04,0,0.08,0,0.12c0.27,0,0.55,0,0.82,0c0,0.04,0,0.08,0,0.12
		c0.62,0.04,1.25,0.08,1.87,0.12c0,0.04,0,0.08,0,0.12c0.08,0,0.16,0,0.23,0c0,0.04,0,0.08,0,0.12c0.35,0,0.7,0,1.05,0
		c0,0.04,0,0.08,0,0.12c0.16,0,0.31,0,0.47,0c0,0.04,0,0.08,0,0.12c0.08,0,0.16,0,0.23,0c0,0.04,0,0.08,0,0.12c0.23,0,0.47,0,0.7,0
		c0,0.04,0,0.08,0,0.12c0.23,0,0.47,0,0.7,0c0,0.04,0,0.08,0,0.12c0.19,0,0.39,0,0.58,0c0,0.04,0,0.08,0,0.12c0.19,0,0.39,0,0.58,0
		c0,0.04,0,0.08,0,0.12c0.16,0,0.31,0,0.47,0c0,0.04,0,0.08,0,0.12c0.39,0.04,0.78,0.08,1.17,0.12c0,0.04,0,0.08,0,0.12
		c0.12,0,0.23,0,0.35,0c0,0.04,0,0.08,0,0.12c0.08,0,0.16,0,0.23,0c0,0.04,0,0.08,0,0.12c0.23,0,0.47,0,0.7,0c0,0.04,0,0.08,0,0.12
		c0.12,0,0.23,0,0.35,0c0,0.04,0,0.08,0,0.12c0.23,0,0.47,0,0.7,0c0.04,0.08,0.08,0.16,0.12,0.23c0.12,0,0.23,0,0.35,0
		c0.04,0.08,0.08,0.16,0.12,0.23c0.55,0.12,1.09,0.23,1.64,0.35c0,0.04,0,0.08,0,0.12c0.08,0,0.16,0,0.23,0c0,0.04,0,0.08,0,0.12
		c0.43,0.08,0.86,0.16,1.29,0.23c0,0.04,0,0.08,0,0.12c0.08,0,0.16,0,0.23,0c0,0.04,0,0.08,0,0.12c0.16,0,0.31,0,0.47,0
		c0,0.04,0,0.08,0,0.12c0.12,0,0.23,0,0.35,0c0,0.04,0,0.08,0,0.12c0.16,0,0.31,0,0.47,0c0,0.04,0,0.08,0,0.12c0.16,0,0.31,0,0.47,0
		c0,0.04,0,0.08,0,0.12c0.12,0,0.23,0,0.35,0c0,0.04,0,0.08,0,0.12c0.08,0,0.16,0,0.23,0c0,0.04,0,0.08,0,0.12c0.16,0,0.31,0,0.47,0
		c0,0.04,0,0.08,0,0.12c0.12,0,0.23,0,0.35,0c0,0.04,0,0.08,0,0.12c0.12,0,0.23,0,0.35,0c0,0.04,0,0.08,0,0.12c0.12,0,0.23,0,0.35,0
		c0,0.04,0,0.08,0,0.12c0.74,0.12,1.48,0.23,2.22,0.35c1.73,0.63,3.69,1.18,5.84,1.4c0,0.27,0,0.55,0,0.82c-0.04,0-0.08,0-0.12,0
		c0-0.04,0-0.08,0-0.12c-0.19,0-0.39,0-0.58,0c0-0.04,0-0.08,0-0.12c-0.16,0-0.31,0-0.47,0c0-0.04,0-0.08,0-0.12
		c-0.23-0.06-0.15,0.05-0.23,0.12c-0.39-0.04-0.78-0.08-1.17-0.12c0-0.04,0-0.08,0-0.12c-0.12,0-0.23,0-0.35,0c0-0.04,0-0.08,0-0.12
		c-0.35-0.04-0.7-0.08-1.05-0.12c0-0.04,0-0.08,0-0.12c-0.27-0.08-0.32,0.14-0.47,0.12c0-0.04,0-0.08,0-0.12
		c-0.36-0.1-0.6-0.09-0.93-0.23c0-0.04,0-0.08,0-0.12c-0.08,0-0.16,0-0.23,0c0-0.04,0-0.08,0-0.12c-0.16,0-0.31,0-0.47,0
		c0-0.04,0-0.08,0-0.12c-0.12,0-0.23,0-0.35,0c0-0.04,0-0.08,0-0.12c-0.27-0.04-0.55-0.08-0.82-0.12c0-0.04,0-0.08,0-0.12
		c-0.43-0.04-0.86-0.08-1.29-0.12c0-0.04,0-0.08,0-0.12c-0.12,0-0.23,0-0.35,0c0-0.04,0-0.08,0-0.12c-0.16-0.04-0.31-0.08-0.47-0.12
		c0-0.04,0-0.08,0-0.12c-0.23-0.04-0.47-0.08-0.7-0.12c0-0.04,0-0.08,0-0.12c-0.12,0-0.23,0-0.35,0c0-0.04,0-0.08,0-0.12
		c-0.12,0-0.23,0-0.35,0c0-0.04,0-0.08,0-0.12c-0.12,0-0.23,0-0.35,0c0-0.04,0-0.08,0-0.12c-0.16,0-0.31,0-0.47,0
		c0-0.04,0-0.08,0-0.12c-0.39-0.08-0.78-0.16-1.17-0.23c0-0.04,0-0.08,0-0.12c-0.08,0-0.16,0-0.23,0c0-0.04,0-0.08,0-0.12
		c-0.12,0-0.23,0-0.35,0c0-0.04,0-0.08,0-0.12c-0.23-0.04-0.47-0.08-0.7-0.12c0-0.04,0-0.08,0-0.12c-0.27-0.04-0.55-0.08-0.82-0.12
		c0-0.04,0-0.08,0-0.12c-0.08,0-0.16,0-0.23,0c0-0.04,0-0.08,0-0.12c-0.55-0.08-1.09-0.16-1.64-0.23c0-0.04,0-0.08,0-0.12
		c-0.23-0.04-0.47-0.08-0.7-0.12c0-0.04,0-0.08,0-0.12c-0.08,0-0.16,0-0.23,0c0-0.04,0-0.08,0-0.12c-0.19,0-0.39,0-0.58,0
		c0-0.04,0-0.08,0-0.12c-0.12,0-0.23,0-0.35,0c0-0.04,0-0.08,0-0.12c-0.19,0-0.39,0-0.58,0c0-0.04,0-0.08,0-0.12
		c-0.23,0-0.47,0-0.7,0c0-0.04,0-0.08,0-0.12c-0.12,0-0.23,0-0.35,0c0-0.04,0-0.08,0-0.12c-0.12,0-0.23,0-0.35,0
		c0-0.04,0-0.08,0-0.12c-0.12,0-0.23,0-0.35,0c0-0.04,0-0.08,0-0.12c-1.21-0.16-2.41-0.31-3.62-0.47c0-0.04,0-0.08,0-0.12
		c-0.31-0.04-0.62-0.08-0.93-0.12c0-0.04,0-0.08,0-0.12c-0.14-0.01-0.3,0.2-0.58,0.12c0-0.04,0-0.08,0-0.12c-0.19,0-0.39,0-0.58,0
		c0-0.04,0-0.08,0-0.12c-0.43,0-0.86,0-1.29,0c0-0.04,0-0.08,0-0.12c-0.12,0-0.23,0-0.35,0c0-0.04,0-0.08,0-0.12
		c-0.23,0-0.47,0-0.7,0c0-0.04,0-0.08,0-0.12c-0.47-0.04-0.93-0.08-1.4-0.12c0-0.04,0-0.08,0-0.12c-0.43,0-0.86,0-1.29,0
		c0-0.04,0-0.08,0-0.12c-0.16,0-0.31,0-0.47,0c0-0.04,0-0.08,0-0.12c-0.59-0.16-0.87,0.38-1.17,0.35c0-0.04,0-0.08,0-0.12
		c-0.23-0.04-0.47-0.08-0.7-0.12c0-0.04,0-0.08,0-0.12c-0.29-0.21-0.24-0.28-0.7-0.35c-0.08-0.32-0.03-0.26-0.35-0.35
		c0-0.08,0-0.16,0-0.23c-0.37-0.09-0.43-0.26-0.82-0.35c0-0.08,0-0.16,0-0.23c-0.12-0.04-0.23-0.08-0.35-0.12c0-0.04,0-0.08,0-0.12
		c-0.08,0-0.16,0-0.23,0c0-0.04,0-0.08,0-0.12c-0.08,0-0.16,0-0.23,0c-0.08-0.12-0.16-0.23-0.23-0.35c-0.08,0-0.16,0-0.23,0
		c-0.04-0.08-0.08-0.16-0.12-0.23c-0.12,0-0.23,0-0.35,0c-0.12-0.16-0.23-0.31-0.35-0.47c-0.16-0.04-0.31-0.08-0.47-0.12
		c-0.04-0.08-0.08-0.16-0.12-0.23c-0.27-0.18-0.58-0.27-0.93-0.35c0-0.08,0-0.16,0-0.23c-0.23-0.04-0.47-0.08-0.7-0.12
		c-0.08-0.12-0.16-0.23-0.23-0.35c-0.12,0.04-0.23,0.08-0.35,0.12c0-0.04,0-0.08,0-0.12c-0.08,0-0.16,0-0.23,0c0-0.04,0-0.08,0-0.12
		c-0.12,0-0.23,0-0.35,0c-0.35-0.12-0.7-0.23-1.05-0.35c-0.04,0.08-0.08,0.16-0.12,0.23c-0.08,0-0.16,0-0.23,0
		c-0.04,0.12-0.08,0.23-0.12,0.35c-0.86,0.35-1.71,0.7-2.57,1.05c-0.04,0.08-0.08,0.16-0.12,0.23c-0.16,0.04-0.31,0.08-0.47,0.12
		c-0.08,0.12-0.16,0.23-0.23,0.35c-0.12,0.04-0.23,0.08-0.35,0.12c0,0.04,0,0.08,0,0.12c-0.43,0.29-0.9,0.22-1.05,0.82
		c-0.23,0.08-0.47,0.16-0.7,0.23c-0.04,0.12-0.08,0.23-0.12,0.35c-0.04,0-0.08,0-0.12,0c-0.21,0.62,0.47,1.63,0.58,2.1
		c0.08,0,0.16,0,0.23,0c0,0.19,0,0.39,0,0.58c0.12,0.04,0.23,0.08,0.35,0.12c0,0.12,0,0.23,0,0.35c0.04,0,0.08,0,0.12,0
		c0,0.08,0,0.16,0,0.23c0.08,0.04,0.16,0.08,0.23,0.12c0.08,0.27,0.16,0.55,0.23,0.82c0.08,0,0.16,0,0.23,0
		c0.1,0.41,0.36,0.64,0.47,1.05c0.08,0,0.16,0,0.23,0c0.14,0.09,0.14,0.45,0.23,0.58c0.04,0,0.08,0,0.12,0
		c0.21,0.26,0.38,0.42,0.47,0.82c0.08,0,0.16,0,0.23,0c0.01,0.27,0.12,0.38,0.12,0.47c-0.04,0-0.08,0-0.12,0c0,0.12,0,0.23,0,0.35
		c0.08,0.04,0.16,0.08,0.23,0.12c0.17,0.27,0.27,0.48,0.35,0.82c0.08,0,0.16,0,0.23,0c0.14,0.09,0.14,0.45,0.23,0.58
		c0.19,0.16,0.39,0.31,0.58,0.47c0,0.12,0,0.23,0,0.35c0.08,0,0.16,0,0.23,0c0,0.08,0,0.16,0,0.23c0.16,0.12,0.31,0.23,0.47,0.35
		c0.27,0.39,0,0.54,0.58,0.7c0.08,0.39,0.25,0.45,0.35,0.82c0.08,0,0.16,0,0.23,0c0,0.08,0,0.16,0,0.23c0.08,0,0.16,0,0.23,0
		c0.16,0.31,0.31,0.62,0.47,0.93c0.08,0,0.16,0,0.23,0c0.04,0.12,0.08,0.23,0.12,0.35c0.67,0.03,1.41,0.12,2.22,0.12
		c0.51,0,1.01,0,1.52,0c0,0.04,0,0.08,0,0.12c0.04,0,0.08,0,0.12,0c0.25,0.02,0.23-0.12,0.23-0.12c0.43,0,0.86,0,1.29,0
		c0.02,0,0.04-0.17,0.23-0.12c0.04,0.08,0.08,0.16,0.12,0.23c0.23-0.04,0.47-0.08,0.7-0.12c0,0.04,0,0.08,0,0.12
		c0.49,0.11,1.06-0.06,1.4-0.12c0,0.19,0,0.39,0,0.58c-0.44,0.02-0.94,0.14-1.29,0.23c-0.51,0-1.01,0-1.52,0c0,0.04,0,0.08,0,0.12
		c-0.2,0.03-0.55-0.22-0.93-0.12c0,0.04,0,0.08,0,0.12c-1.09-0.04-2.18-0.08-3.27-0.12c0,0.08,0,0.16,0,0.23c0.08,0,0.16,0,0.23,0
		c0.04,0.16,0.08,0.31,0.12,0.47c0.68,0.15,0.5,0.37,0.82,0.82c0.12,0.08,0.23,0.16,0.35,0.23c0.04,0.08,0.08,0.16,0.12,0.23
		c0.23,0.04,0.47,0.08,0.7,0.12c0.04,0.08,0.08,0.16,0.12,0.23c0.12,0,0.23,0,0.35,0c0,0.04,0,0.08,0,0.12
		c0.16,0.04,0.31,0.08,0.47,0.12c0,0.04,0,0.08,0,0.12c0.12,0,0.23,0,0.35,0c0.04,0.08,0.08,0.16,0.12,0.23c0.19,0,0.39,0,0.58,0
		c0,0.04,0,0.08,0,0.12c0.08,0,0.16,0,0.23,0c0,0.04,0,0.08,0,0.12c0.43,0.12,0.86,0.23,1.29,0.35c0,0.08,0,0.16,0,0.23
		c0.92,0.01,1.25,0.45,1.87,0.7c0.27,0.04,0.55,0.08,0.82,0.12c0,0.04,0,0.08,0,0.12c0.16,0.04,0.31,0.08,0.47,0.12
		c0,0.04,0,0.08,0,0.12c0.12,0,0.23,0,0.35,0c0,0.04,0,0.08,0,0.12c0.12,0,0.23,0,0.35,0c0,0.04,0,0.08,0,0.12c0.12,0,0.23,0,0.35,0
		c0,0.04,0,0.08,0,0.12c0.12,0,0.23,0,0.35,0c0,0.04,0,0.08,0,0.12c0.19,0,0.39,0,0.58,0c0,0.04,0,0.08,0,0.12c0.08,0,0.16,0,0.23,0
		c0,0.04,0,0.08,0,0.12c0.51,0.08,1.01,0.16,1.52,0.23c-0.1,0.37-0.14,0.34-0.58,0.35c-0.27-0.22-0.79-0.11-1.17-0.23
		c0-0.04,0-0.08,0-0.12c-0.23,0-0.47,0-0.7,0c0-0.04,0-0.08,0-0.12c-0.08,0-0.16,0-0.23,0c0-0.04,0-0.08,0-0.12
		c-0.23-0.04-0.47-0.08-0.7-0.12c0-0.04,0-0.08,0-0.12c-0.08,0-0.16,0-0.23,0c0-0.04,0-0.08,0-0.12c-0.19,0-0.39,0-0.58,0
		c0-0.04,0-0.08,0-0.12c-0.16-0.04-0.31-0.08-0.47-0.12c0-0.04,0-0.08,0-0.12c-0.12,0-0.23,0-0.35,0c0-0.04,0-0.08,0-0.12
		c-0.16-0.04-0.31-0.08-0.47-0.12c0-0.04,0-0.08,0-0.12c-0.12,0-0.23,0-0.35,0c0-0.04,0-0.08,0-0.12c-0.16-0.04-0.31-0.08-0.47-0.12
		c0-0.04,0-0.08,0-0.12c-0.27-0.04-0.55-0.08-0.82-0.12c0-0.04,0-0.08,0-0.12c-0.23-0.04-0.47-0.08-0.7-0.12c0-0.04,0-0.08,0-0.12
		c-0.16-0.04-0.31-0.08-0.47-0.12c0-0.04,0-0.08,0-0.12c-0.12,0-0.23,0-0.35,0c0-0.04,0-0.08,0-0.12c-0.08,0-0.16,0-0.23,0
		c0-0.04,0-0.08,0-0.12c-0.12,0-0.23,0-0.35,0c-0.04-0.08-0.08-0.16-0.12-0.23c-0.08,0-0.16,0-0.23,0c0-0.04,0-0.08,0-0.12
		c-0.08,0-0.16,0-0.23,0c0-0.04,0-0.08,0-0.12c-0.16,0-0.31,0-0.47,0c0-0.04,0-0.08,0-0.12c-0.16-0.04-0.31-0.08-0.47-0.12
		c0-0.04,0-0.08,0-0.12c-0.12,0-0.23,0-0.35,0c-0.04-0.08-0.08-0.16-0.12-0.23c-0.08,0-0.16,0-0.23,0c0-0.04,0-0.08,0-0.12
		c-0.19-0.04-0.39-0.08-0.58-0.12c0-0.04,0-0.08,0-0.12c-0.22-0.17-0.27-0.14-0.35-0.47c-0.08,0-0.16,0-0.23,0c0-0.08,0-0.16,0-0.23
		c-0.16-0.12-0.31-0.23-0.47-0.35c-0.04-0.12-0.08-0.23-0.12-0.35c-0.08,0-0.16,0-0.23,0c0-0.08,0-0.16,0-0.23
		c-0.32-0.19-0.29-0.32-0.82-0.35c-0.32-0.29-0.88-0.12-1.4-0.23c0-0.04,0-0.08,0-0.12c-0.12,0.04-0.23,0.08-0.35,0.12
		c-0.25-0.06-0.59-0.2-0.93-0.23c0,0.04,0,0.08,0,0.12c0.04,0,0.08,0,0.12,0c0,0.04,0,0.08,0,0.12c0.27,0.1,0.58,0.19,0.82,0.35
		c0.08,0.12,0.16,0.23,0.23,0.35c0.08,0,0.16,0,0.23,0l0.23,0.23c0.08,0,0.16,0,0.23,0c0,0.04,0,0.08,0,0.12c0.08,0,0.16,0,0.23,0
		c0,0.04,0,0.08,0,0.12c0.08,0,0.16,0,0.23,0c0.04,0.08,0.08,0.16,0.12,0.23c0.16,0,0.31,0,0.47,0c0.08,0.12,0.16,0.23,0.23,0.35
		c0.19,0.04,0.39,0.08,0.58,0.12c0.08,0.12,0.16,0.23,0.23,0.35c0.12,0,0.23,0,0.35,0c0.04,0.08,0.08,0.16,0.12,0.23
		c0.08,0,0.16,0,0.23,0c0,0.04,0,0.08,0,0.12c0.19,0.04,0.39,0.08,0.58,0.12c0.04,0.08,0.08,0.16,0.12,0.23
		c0.19,0.04,0.39,0.08,0.58,0.12c0.08,0.12,0.16,0.23,0.23,0.35c0.12,0.04,0.23,0.08,0.35,0.12c0,0.08,0,0.16,0,0.23
		c0.12,0,0.23,0,0.35,0c0.08,0.32,0.03,0.26,0.35,0.35c0.23,0.27,0.28,0.08,0.58,0.23c0,0.04,0,0.08,0,0.12
		c0.16,0.1,0.2,0.09,0.47,0.12c0,0.08,0,0.16,0,0.23c0.19,0.04,0.39,0.08,0.58,0.12c0,0.08,0,0.16,0,0.23
		c0.56,0.11,0.86,0.48,1.29,0.7c0.19,0.04,0.39,0.08,0.58,0.12c0.04,0.08,0.08,0.16,0.12,0.23c0.12,0,0.23,0,0.35,0
		c0,0.04,0,0.08,0,0.12c0.08,0,0.16,0,0.23,0c0.08,0.12,0.16,0.23,0.23,0.35c0.12,0,0.23,0,0.35,0c0.08,0.12,0.16,0.23,0.23,0.35
		c0.08,0,0.16,0,0.23,0l0.23,0.23c0.27,0.08,0.55,0.16,0.82,0.23c0.08,0.12,0.16,0.23,0.23,0.35c0.08,0,0.16,0,0.23,0
		c0.04,0.08,0.08,0.16,0.12,0.23c0.08,0,0.16,0,0.23,0c0.04,0.08,0.08,0.16,0.12,0.23c0.16,0,0.31,0,0.47,0
		c0.08,0.12,0.16,0.23,0.23,0.35c0.12,0,0.23,0,0.35,0c0,0.04,0,0.08,0,0.12c0.08,0,0.16,0,0.23,0c0.04,0.08,0.08,0.16,0.12,0.23
		c0.43,0.23,0.53-0.13,0.7,0.47c0.81,0.06,1.2,0.53,1.75,0.82c0.12,0,0.23,0,0.35,0c0,0.04,0,0.08,0,0.12
		c0.16,0.04,0.31,0.08,0.47,0.12c0,0.04,0,0.08,0,0.12c0.08,0,0.16,0,0.23,0c0,0.04,0,0.08,0,0.12c0.12,0,0.23,0,0.35,0
		c0.04,0.08,0.08,0.16,0.12,0.23c0.08,0,0.16,0,0.23,0c0,0.04,0,0.08,0,0.12c0.12,0.04,0.23,0.08,0.35,0.12c0,0.08,0,0.16,0,0.23
		c0.55-0.01,0.81,0.06,1.17,0.23c0,0.04,0,0.08,0,0.12c0.12,0,0.23,0,0.35,0c0,0.04,0,0.08,0,0.12c0.12,0,0.23,0,0.35,0
		c0,0.04,0,0.08,0,0.12c0.08,0,0.16,0,0.23,0c0,0.04,0,0.08,0,0.12c0.08,0,0.16,0,0.23,0c0,0.04,0,0.08,0,0.12c0.08,0,0.16,0,0.23,0
		c0,0.04,0,0.08,0,0.12c0.08-0.04,0.16-0.08,0.23-0.12c0,0.04,0,0.08,0,0.12c0.16,0,0.31,0,0.47,0c0,0.04,0,0.08,0,0.12
		c0.16,0,0.31,0,0.47,0c0,0.04,0,0.08,0,0.12c0.16,0.04,0.31,0.08,0.47,0.12c0,0.04,0,0.08,0,0.12c0.19,0.04,0.39,0.08,0.58,0.12
		c0,0.04,0,0.08,0,0.12c0.23,0,0.47,0,0.7,0c0,0.04,0,0.08,0,0.12c0.08,0,0.16,0,0.23,0c0.04,0.08,0.08,0.16,0.12,0.23
		c0.31,0.04,0.62,0.08,0.93,0.12c0,0.04,0,0.08,0,0.12c0.12,0,0.23,0,0.35,0c0,0.04,0,0.08,0,0.12c0.16,0,0.31,0,0.47,0
		c0,0.04,0,0.08,0,0.12c0.19,0,0.39,0,0.58,0c0.04,0.08,0.08,0.16,0.12,0.23c0.35,0,0.7,0,1.05,0c0.43,0,0.86,0,1.29,0
		c0,0,0.09-0.17,0.35-0.12c0,0.04,0,0.08,0,0.12c0.04,0,0.08,0,0.12,0c0.22,0.02,0.23-0.12,0.23-0.12c0.27-0.05,0.31,0.06,0.47,0.12
		c0,0.04,0,0.08,0,0.12c-0.04,0-0.08,0-0.12,0c0,0.04,0,0.08,0,0.12c-0.23,0.08-0.47,0.16-0.7,0.23l-0.12-0.12
		c-0.75,0.32-1.27,0.22-1.99,0c-0.47-0.04-0.93-0.08-1.4-0.12c0-0.04,0-0.08,0-0.12c-0.08,0-0.16,0-0.23,0c0-0.04,0-0.08,0-0.12
		c-0.31-0.04-0.62-0.08-0.93-0.12c0-0.04,0-0.08,0-0.12c-0.08,0-0.16,0-0.23,0c0-0.04,0-0.08,0-0.12c-0.39-0.04-0.78-0.08-1.17-0.12
		c0-0.04,0-0.08,0-0.12c-0.16-0.04-0.31-0.08-0.47-0.12c0-0.04,0-0.08,0-0.12c-0.23-0.04-0.47-0.08-0.7-0.12c0-0.04,0-0.08,0-0.12
		c-0.08,0-0.16,0-0.23,0c0-0.04,0-0.08,0-0.12c-0.35-0.08-0.7-0.16-1.05-0.23c0-0.04,0-0.08,0-0.12c-0.08,0-0.16,0-0.23,0
		c0-0.04,0-0.08,0-0.12c-0.16,0-0.31,0-0.47,0c0-0.04,0-0.08,0-0.12c-0.16-0.04-0.31-0.08-0.47-0.12c0-0.04,0-0.08,0-0.12
		c-0.23,0-0.47,0-0.7,0c0-0.04,0-0.08,0-0.12c-0.08,0-0.16,0-0.23,0c0-0.04,0-0.08,0-0.12c-0.16,0-0.31,0-0.47,0
		c-0.04-0.08-0.08-0.16-0.12-0.23c-0.19,0-0.39,0-0.58,0c0-0.04,0-0.08,0-0.12c-0.16-0.04-0.31-0.08-0.47-0.12c0-0.04,0-0.08,0-0.12
		c-0.08,0-0.16,0-0.23,0c-0.04-0.08-0.08-0.16-0.12-0.23c-0.12,0-0.23,0-0.35,0c-0.04-0.08-0.08-0.16-0.12-0.23
		c-0.08,0-0.16,0-0.23,0c-0.04-0.08-0.08-0.16-0.12-0.23c-0.08,0-0.16,0-0.23,0l-0.23-0.23c-0.08,0-0.16,0-0.23,0
		c0-0.04,0-0.08,0-0.12c-0.08,0-0.16,0-0.23,0c0-0.04,0-0.08,0-0.12c-0.08,0-0.16,0-0.23,0c-0.04-0.08-0.08-0.16-0.12-0.23
		c-0.12,0-0.23,0-0.35,0c0-0.04,0-0.08,0-0.12c-0.08,0-0.16,0-0.23,0c-0.04-0.08-0.08-0.16-0.12-0.23c-0.08,0-0.16,0-0.23,0
		c0-0.04,0-0.08,0-0.12c-0.12,0-0.23,0-0.35,0c0-0.04,0-0.08,0-0.12c-0.08,0-0.16,0-0.23,0c-0.08-0.12-0.16-0.23-0.23-0.35
		c-0.27-0.17-0.79-0.31-1.17-0.35c0-0.08,0-0.16,0-0.23c-0.26-0.03-0.31-0.01-0.47-0.12c0-0.04,0-0.08,0-0.12c-0.08,0-0.16,0-0.23,0
		c-0.04-0.08-0.08-0.16-0.12-0.23c-0.16-0.04-0.31-0.08-0.47-0.12c-0.04-0.08-0.08-0.16-0.12-0.23c-0.12,0-0.23,0-0.35,0
		c-0.08-0.12-0.16-0.23-0.23-0.35c-0.12-0.04-0.23-0.08-0.35-0.12c0-0.04,0-0.08,0-0.12c-0.19-0.04-0.39-0.08-0.58-0.12
		c-0.04-0.08-0.08-0.16-0.12-0.23c-0.08,0-0.16,0-0.23,0c0-0.04,0-0.08,0-0.12c-0.08,0-0.16,0-0.23,0c0-0.04,0-0.08,0-0.12
		c-0.08,0-0.16,0-0.23,0l-0.23-0.23c-0.08,0-0.16,0-0.23,0c-0.04-0.08-0.08-0.16-0.12-0.23c-0.08,0-0.16,0-0.23,0
		c0-0.04,0-0.08,0-0.12c-0.08,0-0.16,0-0.23,0c0-0.04,0-0.08,0-0.12c-0.12,0-0.23,0-0.35,0c-0.04-0.08-0.08-0.16-0.12-0.23
		c-0.08,0-0.16,0-0.23,0l-0.23-0.23c-0.08,0-0.16,0-0.23,0c0-0.04,0-0.08,0-0.12c-0.08,0-0.16,0-0.23,0c0-0.04,0-0.08,0-0.12
		c-0.08,0-0.16,0-0.23,0c0-0.04,0-0.08,0-0.12c-0.08,0-0.16,0-0.23,0c0-0.04,0-0.08,0-0.12c-0.23-0.08-0.47-0.16-0.7-0.23
		c0-0.04,0-0.08,0-0.12c-0.24-0.07-0.46,0.27-0.82,0.12c-0.04-0.08-0.08-0.16-0.12-0.23c-0.12,0-0.23,0-0.35,0
		c-0.08-0.12-0.16-0.23-0.23-0.35c-0.16-0.04-0.31-0.08-0.47-0.12c-0.04-0.08-0.08-0.16-0.12-0.23c-0.26-0.17-0.49-0.27-0.82-0.35
		c0-0.08,0-0.16,0-0.23c-0.71-0.18-0.96-0.83-1.75-0.93c0-0.08,0-0.16,0-0.23c-0.51-0.03-0.53-0.14-0.82-0.35c0-0.04,0-0.08,0-0.12
		c-0.12,0-0.23,0-0.35,0c-0.04-0.08-0.08-0.16-0.12-0.23c-0.16-0.04-0.31-0.08-0.47-0.12c-0.04-0.08-0.08-0.16-0.12-0.23
		c-0.35-0.12-0.7-0.23-1.05-0.35c0-0.08,0-0.16,0-0.23c-0.43-0.16-0.86-0.31-1.29-0.47c-0.08-0.12-0.16-0.23-0.23-0.35
		c-0.16,0-0.31,0-0.47,0c0-0.04,0-0.08,0-0.12c-0.08,0-0.16,0-0.23,0c0-0.04,0-0.08,0-0.12c-0.12,0-0.23,0-0.35,0
		c0-0.04,0-0.08,0-0.12c-1.01-0.12-2.03-0.23-3.04-0.35c-0.7-0.19-1.4-0.39-2.1-0.58c-0.16,0.04-0.31,0.08-0.47,0.12
		c0-0.04,0-0.08,0-0.12c-0.12,0-0.23,0-0.35,0c0-0.04,0-0.08,0-0.12c-0.27,0-0.55,0-0.82,0c0-0.04,0-0.08,0-0.12
		c-0.51,0-1.01,0-1.52,0c0-0.04,0-0.08,0-0.12c-0.08,0-0.16,0-0.23,0c0-0.04,0-0.08,0-0.12c-0.08,0.04-0.16,0.08-0.23,0.12
		c0-0.04,0-0.08,0-0.12c-0.39,0-0.78,0-1.17,0c0-0.04,0-0.08,0-0.12c-0.04,0-0.08,0-0.12,0c0,0.04,0,0.08,0,0.12
		c-0.31,0.04-0.62,0.08-0.93,0.12c-0.04,0.08-0.08,0.16-0.12,0.23c-0.08,0-0.16,0-0.23,0c-0.04,0.08-0.08,0.16-0.12,0.23
		c-0.08,0-0.16,0-0.23,0c0,0.04,0,0.08,0,0.12c-0.39,0.08-0.78,0.16-1.17,0.23c0,0.04,0,0.08,0,0.12c-0.08,0-0.16,0-0.23,0
		c0,0.04,0,0.08,0,0.12c-0.16,0-0.31,0-0.47,0c0,0.04,0,0.08,0,0.12c-0.08,0-0.16,0-0.23,0c0,0.04,0,0.08,0,0.12
		c-0.16,0-0.31,0-0.47,0c0,0.04,0,0.08,0,0.12c-0.08,0-0.16,0-0.23,0c0,0.04,0,0.08,0,0.12c-0.16,0-0.31,0-0.47,0
		c0,0.04,0,0.08,0,0.12c-0.26,0.11-0.45,0.11-0.82,0.12c0,0.08,0,0.16,0,0.23c-0.35,0.08-0.7,0.16-1.05,0.23c0,0.08,0,0.16,0,0.23
		c-0.08,0-0.16,0-0.23,0c-0.08,0.32-0.03,0.26-0.35,0.35c-0.13,0.13,0,0.05-0.23,0.12c-0.09,0.88-0.07,1.22,0,1.99
		c0.08,0,0.16,0,0.23,0c0.04,0.12,0.08,0.23,0.12,0.35c-0.04,0.01-0.38-0.06-0.23,0.12c0.16,0.19,0.23-0.13,0.35,0.35
		c-0.12,0.04-0.23,0.08-0.35,0.12c0.04,0.12,0.08,0.23,0.12,0.35c-0.04,0-0.08,0-0.12,0c0,0.16,0,0.31,0,0.47c-0.04,0-0.08,0-0.12,0
		c0,0.08,0,0.16,0,0.23c-0.04,0-0.08,0-0.12,0c0,0.23,0,0.47,0,0.7c-0.04,0-0.08,0-0.12,0c-0.06,0.2-0.02,0.42,0.12,0.47
		c0,0.04,0,0.08,0,0.12c-0.08,0-0.16,0-0.23,0c0,0.04,0,0.08,0,0.12c-0.09,0.09-0.23,0.05-0.23,0.23c0.05,0.06,0.19-0.03,0.12,0.12
		c-0.08,0.04-0.16,0.08-0.23,0.12c0,0.19,0,0.39,0,0.58c-0.04,0-0.08,0-0.12,0c0,0.16,0,0.31,0,0.47c-0.04,0-0.08,0-0.12,0
		c-0.08,0.26,0.15,0.34,0.12,0.47c-0.08,0.04-0.16,0.08-0.23,0.12c0.01,0.14,0.22,0.22,0.12,0.47c-0.08,0.04-0.16,0.08-0.23,0.12
		c-0.04,0.27-0.08,0.55-0.12,0.82c-0.08,0.04-0.16,0.08-0.23,0.12c0,0.12,0,0.23,0,0.35c-0.04,0-0.08,0-0.12,0
		c-0.04,0.16-0.08,0.31-0.12,0.47c-0.04,0-0.08,0-0.12,0c-0.04,0.23-0.08,0.47-0.12,0.7c-0.04,0-0.08,0-0.12,0c0,0.08,0,0.16,0,0.23
		c-0.04,0-0.08,0-0.12,0c-0.04,0.19-0.08,0.39-0.12,0.58c-0.04,0-0.08,0-0.12,0c0.04,0.08,0.08,0.16,0.12,0.23
		c-0.08,0.04-0.16,0.08-0.23,0.12c0,0.12,0,0.23,0,0.35c-0.08,0.04-0.16,0.08-0.23,0.12c0,0.08,0,0.16,0,0.23
		c-0.08,0.04-0.16,0.08-0.23,0.12c0,0.12,0,0.23,0,0.35c-0.04,0-0.08,0-0.12,0c0,0.08,0,0.16,0,0.23c-0.08,0.04-0.16,0.08-0.23,0.12
		c-0.04,0.19-0.08,0.39-0.12,0.58c-0.08,0-0.16,0-0.23,0c-0.08,0.4-0.26,0.54-0.35,0.93c-0.08,0-0.16,0-0.23,0c0,0.19,0,0.39,0,0.58
		c-0.08,0-0.16,0-0.23,0c-0.16,0.43-0.31,0.86-0.47,1.29c-0.04,0-0.08,0-0.12,0c0,0.08,0,0.16,0,0.23
		c-0.08,0.04-0.16,0.08-0.23,0.12c-0.04,0.19-0.08,0.39-0.12,0.58c-0.08,0.04-0.16,0.08-0.23,0.12c0,0.08,0,0.16,0,0.23
		c-0.04,0-0.08,0-0.12,0c0,0.12,0,0.23,0,0.35c-0.04,0-0.08,0-0.12,0c0,0.12,0,0.23,0,0.35c-0.04,0-0.08,0-0.12,0
		c0,0.23,0,0.47,0,0.7c-0.08,0.04-0.16,0.08-0.23,0.12c0,0.16,0,0.31,0,0.47c-0.04,0-0.08,0-0.12,0c0,0.12,0,0.23,0,0.35
		c-0.04,0-0.08,0-0.12,0c0,0.12,0,0.23,0,0.35c-0.04,0-0.08,0-0.12,0c0,0.16,0,0.31,0,0.47c-0.04,0-0.08,0-0.12,0
		c0,0.08,0,0.16,0,0.23c-0.04,0-0.08,0-0.12,0c-0.04,0.31-0.08,0.62-0.12,0.93c-0.04,0-0.08,0-0.12,0
		c-0.08,0.39-0.16,0.78-0.23,1.17c-0.04,0-0.08,0-0.12,0c0,0.08,0,0.16,0,0.23c-0.04,0-0.08,0-0.12,0c0,0.08,0,0.16,0,0.23
		c-0.08,0.04-0.16,0.08-0.23,0.12c-0.04,0.12-0.08,0.23-0.12,0.35c-0.16,0-0.31,0-0.47,0c0.04-0.43,0.08-0.86,0.12-1.29
		c0.04,0,0.08,0,0.12,0c0-0.08,0-0.16,0-0.23c0.04,0,0.08,0,0.12,0c0.08-0.47,0.16-0.93,0.23-1.4c0.04,0,0.08,0,0.12,0
		c0-0.08,0-0.16,0-0.23c0.04,0,0.08,0,0.12,0c0-0.19,0-0.39,0-0.58c0.04,0,0.08,0,0.12,0c0-0.12,0-0.23,0-0.35c0.04,0,0.08,0,0.12,0
		c0-0.16,0-0.31,0-0.47c0.04,0,0.08,0,0.12,0c0-0.16,0-0.31,0-0.47c0.04,0,0.08,0,0.12,0c0-0.08,0-0.16,0-0.23c0.04,0,0.08,0,0.12,0
		c0-0.12,0-0.23,0-0.35c0.04,0,0.08,0,0.12,0c0-0.08,0-0.16,0-0.23c0.04,0,0.08,0,0.12,0c0-0.12,0-0.23,0-0.35c0.04,0,0.08,0,0.12,0
		c0-0.08,0-0.16,0-0.23c0.04,0,0.08,0,0.12,0c0-0.16,0-0.31,0-0.47c0.08-0.04,0.16-0.08,0.23-0.12c0.04-0.23,0.08-0.47,0.12-0.7
		c0.08-0.04,0.16-0.08,0.23-0.12c0-0.12,0-0.23,0-0.35c0.04,0,0.08,0,0.12,0c0.04-0.16,0.08-0.31,0.12-0.47c0.04,0,0.08,0,0.12,0
		c0.04-0.16,0.08-0.31,0.12-0.47c0.08-0.04,0.16-0.08,0.23-0.12c0-0.12,0-0.23,0-0.35c0.04,0,0.08,0,0.12,0c0-0.08,0-0.16,0-0.23
		c0.08-0.04,0.16-0.08,0.23-0.12c0.16-0.43,0.31-0.86,0.47-1.29c0.08,0,0.16,0,0.23,0c0.12-0.35,0.23-0.7,0.35-1.05
		c0.08-0.04,0.16-0.08,0.23-0.12c0-0.12,0-0.23,0-0.35c0.04,0,0.08,0,0.12,0c0-0.08,0-0.16,0-0.23c0.04,0,0.08,0,0.12,0
		c0-0.12,0-0.23,0-0.35c0.04,0,0.08,0,0.12,0c0.08-0.23,0.16-0.47,0.23-0.7c0.04,0,0.08,0,0.12,0c0.16-0.66,0.31-1.32,0.47-1.99
		c-0.04,0-0.08,0-0.12,0c-0.2,0.32-0.54,0.45-1.05,0.47c-0.07-0.18-0.09-0.19-0.12-0.47c0.24-0.22,0.56-1.26,0.7-1.64
		c0.04,0,0.08,0,0.12,0c0.06-0.28-0.21-0.37-0.23-0.58c0.08-0.04,0.16-0.08,0.23-0.12c0.13-0.2,0.11-0.47,0.12-0.82
		c-0.52-0.04-0.52-0.24-0.82-0.35c-0.26-0.09-0.34,0.15-0.47,0.12c0-0.04,0-0.08,0-0.12c-0.08,0-0.16,0-0.23,0c0-0.04,0-0.08,0-0.12
		c-0.31-0.11-0.69,0.06-0.93-0.12c-0.11-0.08-0.18-0.53-0.23-0.58c-0.15,0.04-0.3,0.2-0.58,0.12c-0.01,0-0.09-0.18-0.35-0.12
		c-0.56,0.14-2.45,0.46-3.27,0.23c0-0.04,0-0.08,0-0.12c-0.08,0.04-0.16,0.08-0.23,0.12c0-0.04,0-0.08,0-0.12c-0.39,0-0.78,0-1.17,0
		c-0.04-0.01-0.03-0.15-0.23-0.12c-0.01,0-0.05,0.16-0.23,0.12c0-0.04,0-0.08,0-0.12c-0.19,0-0.39,0-0.58,0c0-0.04,0-0.08,0-0.12
		c-0.19,0-0.39,0-0.58,0c0-0.04,0-0.08,0-0.12c-0.27,0-0.55,0-0.82,0c-0.04-0.08-0.08-0.16-0.12-0.23c0.16,0,0.31,0,0.47,0
		c0.27,0.24,1.41,0.14,1.87,0.23c0,0.04,0,0.08,0,0.12c0.1,0.01,0.3-0.19,0.58-0.12c0,0.04,0,0.08,0,0.12c0.47,0,0.93,0,1.4,0
		c0.27,0,0.55,0,0.82,0c0,0.04,0,0.08,0,0.12c0.04,0,0.08,0,0.12,0c0-0.04,0-0.08,0-0.12c0.23,0,0.47,0,0.7,0c0-0.04,0-0.08,0-0.12
		c0.28-0.07,0.27,0.06,0.35,0.12c0.04,0,0.08,0,0.12,0c0-0.04,0-0.08,0-0.12c0.08,0.04,0.16,0.08,0.23,0.12c0-0.04,0-0.08,0-0.12
		c0.47-0.14,0.87-0.19,1.29-0.35c-0.09-0.23-0.27-0.58-0.35-0.82c-0.04-0.35-0.08-0.7-0.12-1.05c-0.12-0.04-0.23-0.08-0.35-0.12
		c0.04-0.08,0.08-0.16,0.12-0.23c-0.08,0.04-0.16,0.08-0.23,0.12c0-0.08,0-0.16,0-0.23c-0.12-0.08-0.23-0.16-0.35-0.23
		c0-0.04,0-0.08,0-0.12c-0.08,0-0.16,0-0.23,0c-0.12-0.16-0.23-0.31-0.35-0.47c-0.08,0-0.16,0-0.23,0
		c-0.04-0.08-0.08-0.16-0.12-0.23c-0.27-0.2-0.21,0.13-0.35-0.35c-0.41-0.11-0.66-0.45-0.93-0.7c-0.04-0.08-0.08-0.16-0.12-0.23
		c-0.08,0-0.16,0-0.23,0c0-0.08,0-0.16,0-0.23c-0.08,0-0.16,0-0.23,0c-0.07-0.26-0.1-0.29-0.23-0.47c-0.04,0-0.08,0-0.12,0
		c-0.04-0.16-0.08-0.31-0.12-0.47c-0.12-0.08-0.23-0.16-0.35-0.23c-0.08-0.27-0.16-0.55-0.23-0.82c0.08,0,0.16,0,0.23,0
		c0,0.12,0,0.23,0,0.35c0.08,0,0.16,0,0.23,0c0.03,0.13,0.28,0.76,0.35,0.82c0.08,0,0.16,0,0.23,0l0.23,0.23
		c0.04,0.16,0.08,0.31,0.12,0.47c0.22,0.3,0.41-0.02,0.58,0.58c0.52,0.06,0.61,0.34,0.93,0.58c0,0.04,0,0.08,0,0.12
		c0.12,0,0.23,0,0.35,0c0.12,0.16,0.23,0.31,0.35,0.47c0.12-0.04,0.23-0.08,0.35-0.12c0,0.04,0,0.08,0,0.12
		c0.13,0.13,0.05,0,0.12,0.23c0.25,0.05,0.33,0.08,0.47,0.23c0.19-0.04,0.39-0.08,0.58-0.12c0-0.04,0-0.08,0-0.12
		c0.12-0.1,0.16-0.2,0.23-0.35c-0.16,0-0.31,0-0.47,0c0-0.04,0-0.08,0-0.12c0.04,0,0.08,0,0.12,0c0.08-0.18-0.12-0.23-0.12-0.23
		c0.04-0.12,0.08-0.23,0.12-0.35c-0.19,0-0.39,0-0.58,0c0-0.04,0-0.08,0-0.12c0.13-0.13,0.05,0,0.12-0.23c0.12,0,0.23,0,0.35,0
		c0.08-0.12,0.16-0.23,0.23-0.35c-0.15-0.09-0.14-0.08-0.23-0.23c-0.36,0.03-0.23,0.13-0.58,0c0-0.04,0-0.08,0-0.12
		c-0.16-0.05,0.05,0.08-0.12,0.12c-0.04,0-0.08,0-0.12,0c0-0.04,0-0.08,0-0.12c-0.16,0-0.31,0-0.47,0c0-0.04,0-0.08,0-0.12
		c-0.25-0.06-0.35,0.12-0.35,0.12c-0.2,0.03-0.2-0.11-0.23-0.12c-0.19,0-0.39,0-0.58,0c0-0.08,0-0.16,0-0.23
		c-0.28-0.01-0.29-0.07-0.47-0.12c0,0.08,0,0.16,0,0.23c-0.04,0-0.08,0-0.12,0c0-0.04,0-0.08,0-0.12c-0.12-0.04-0.23-0.08-0.35-0.12
		c0-0.12,0-0.23,0-0.35c-0.18-0.14-0.32-0.64-0.58-0.35c0-0.19,0-0.39,0-0.58c-0.7-0.2-0.21-0.22-0.47-0.7
		c-0.12-0.08-0.23-0.16-0.35-0.23c-0.24-0.34-0.18-0.47-0.58-0.7c0,0.23,0,0.47,0,0.7c0.27,0.18,0.32,0.53,0.35,0.93
		c-0.04,0-0.08,0-0.12,0c0-0.08,0-0.16,0-0.23c-0.04,0-0.08,0-0.12,0c-0.04-0.19-0.08-0.39-0.12-0.58
		c-0.08-0.04-0.16-0.08-0.23-0.12c0-0.12,0-0.23,0-0.35c-0.04,0-0.08,0-0.12,0c-0.04-0.19-0.08-0.39-0.12-0.58
		c-0.04,0-0.08,0-0.12,0c-0.12,0.16-0.97,0.21-1.29,0.12c-1.2-0.34-3.22,0.07-3.97-0.7c-0.04,0-0.08,0-0.12,0c0-0.31,0-0.62,0-0.93
		c0.26-0.13,0.66-0.34,0.82-0.58c0.46,0.17,0.79-0.01,1.4,0c0.16,0,0.31,0,0.47,0c0,0.04,0,0.08,0,0.12c0.51,0,1.01,0,1.52,0
		c0.35,0.08,0.7,0.16,1.05,0.23c0.04-0.12,0.08-0.23,0.12-0.35c0.08,0.04,0.16,0.08,0.23,0.12c0-0.04,0-0.08,0-0.12
		c0.13-0.13,0.05,0,0.12-0.23c-0.04,0-0.08,0-0.12,0c0-0.23,0-0.47,0-0.7c-0.53-1.75,0.28-3,0.47-4.67c0.08,0,0.16,0,0.23,0
		c0.04-0.19,0.08-0.39,0.12-0.58c0.08-0.04,0.16-0.08,0.23-0.12c0-0.08,0-0.16,0-0.23c0.04,0,0.08,0,0.12,0
		c0.11-0.16,0.08-0.21,0.12-0.47c0.12,0,0.23,0,0.35,0c0.07-0.28,0.04-0.22,0.23-0.35c0-0.04,0-0.08,0-0.12
		c0.08,0.04,0.16,0.08,0.23,0.12c-0.04-0.12-0.08-0.23-0.12-0.35c0.31-0.04,0.62-0.08,0.93-0.12c0-0.08,0-0.16,0-0.23
		c-0.55-0.33-0.14-0.34-0.82-0.47c-0.06-0.26-0.1-0.29-0.23-0.47c-0.04,0-0.08,0-0.12,0c-0.04-0.16-0.08-0.31-0.12-0.47
		c-0.08-0.04-0.16-0.08-0.23-0.12c-0.04-0.31-0.08-0.62-0.12-0.93c-0.08-0.04-0.16-0.08-0.23-0.12c0-0.08,0-0.16,0-0.23
		c-0.04,0-0.08,0-0.12,0c0-0.08,0-0.16,0-0.23c-0.04,0-0.08,0-0.12,0c0-0.27,0-0.55,0-0.82c-0.04,0-0.08,0-0.12,0
		c0-0.08,0-0.16,0-0.23c-0.04,0-0.08,0-0.12,0c0-0.16,0-0.31,0-0.47c-0.04,0-0.08,0-0.12,0c-0.04-0.35-0.08-0.7-0.12-1.05
		c-0.04,0-0.08,0-0.12,0c0-0.08,0-0.16,0-0.23c-0.04,0-0.08,0-0.12,0c0-0.12,0-0.23,0-0.35c-0.04,0-0.08,0-0.12,0
		c0-0.19,0-0.39,0-0.58c-0.04,0-0.08,0-0.12,0c0.04-0.08,0.08-0.16,0.12-0.23c-0.04,0-0.08,0-0.12,0c-0.04-0.43-0.08-0.86-0.12-1.29
		c-0.04,0-0.08,0-0.12,0c0-0.16,0-0.31,0-0.47c-0.04,0-0.08,0-0.12,0c0-0.12,0-0.23,0-0.35c-0.04,0-0.08,0-0.12,0
		c-0.04-0.47-0.08-0.93-0.12-1.4c-0.04,0-0.08,0-0.12,0c0-0.16,0-0.31,0-0.47c-0.04,0-0.08,0-0.12,0c0-0.12,0-0.23,0-0.35
		c-0.04,0-0.08,0-0.12,0c0-0.47,0-0.93,0-1.4c-0.01-0.03-0.15-0.04-0.12-0.23c0.04,0,0.08,0,0.12,0c0-0.12,0-0.23,0-0.35
		c0-0.55,0-1.09,0-1.64c0.04,0,0.08,0,0.12,0c0.04-0.43,0.08-0.86,0.12-1.29c0.04,0,0.08,0,0.12,0c0-0.16,0-0.31,0-0.47
		c0.04,0,0.08,0,0.12,0c0.04-0.16,0.08-0.31,0.12-0.47c0.04,0,0.08,0,0.12,0c0.14-0.18,0.16-0.2,0.23-0.47
		c0.26-0.07,0.29-0.1,0.47-0.23c0-0.04,0-0.08,0-0.12c0.16-0.04,0.31-0.08,0.47-0.12c0-0.04,0-0.08,0-0.12
		c0.18-0.14,0.21-0.16,0.47-0.23c0-0.08,0-0.16,0-0.23c0.97-0.04,1.95-0.08,2.92-0.12c0,0.04,0,0.08,0,0.12c0.19,0,0.39,0,0.58,0
		c0.04,0.08,0.08,0.16,0.12,0.23c0.08,0,0.16,0,0.23,0c0.04,0.08,0.08,0.16,0.12,0.23c0.16,0.04,0.31,0.08,0.47,0.12
		c0.04,0.08,0.08,0.16,0.12,0.23c0.12,0,0.23,0,0.35,0c0,0.04,0,0.08,0,0.12c0.08,0.04,0.16,0.08,0.23,0.12c0,0.08,0,0.16,0,0.23
		c0.08,0.04,0.16,0.08,0.23,0.12c0,0.08,0,0.16,0,0.23c0.16,0.12,0.31,0.23,0.47,0.35c0.24,0.39-0.2,0.39,0.47,0.58
		c0.08,0.34,0.13,0.38,0.47,0.47c0.04,0.16,0.08,0.31,0.12,0.47c0.08,0,0.16,0,0.23,0c0.12,0.5,0.46,0.65,0.58,1.17
		c0.4,0.1,0.3,0.24,0.7,0.35c0,0.16,0,0.31,0,0.47c0.54,0.1,0.89,0.11,1.29-0.23c0.08-0.12,0.16-0.23,0.23-0.35
		c0.08,0,0.16,0,0.23,0c0.08-0.12,0.16-0.23,0.23-0.35c0.08,0,0.16,0,0.23,0c0.08-0.12,0.16-0.23,0.23-0.35c0.08,0,0.16,0,0.23,0
		c0.08-0.12,0.16-0.23,0.23-0.35c0.16-0.04,0.31-0.08,0.47-0.12c0-0.04,0-0.08,0-0.12c0.16-0.12,0.31-0.23,0.47-0.35
		c0.36-0.36,0.61-0.89,1.17-1.05c0.26-1,1.27-0.72,1.52-1.64c0.12,0,0.23,0,0.35,0c0-0.04,0-0.08,0-0.12c0.13-0.13,0.05,0,0.12-0.23
		c0.12,0,0.23,0,0.35,0c0.14-0.25,0.26-0.25,0.35-0.58c0.08,0,0.16,0,0.23,0c0.23-0.4,0.37-0.34,0.7-0.58
		c0.04-0.08,0.08-0.16,0.12-0.23c0.12-0.08,0.23-0.16,0.35-0.23c0-0.04,0-0.08,0-0.12c0.08,0,0.16,0,0.23,0c0-0.04,0-0.08,0-0.12
		c0.17-0.14,0.21-0.17,0.47-0.23c0-0.08,0-0.16,0-0.23c0.08,0,0.16,0,0.23,0c0.17-0.29,0.37-0.33,0.47-0.7c0.08,0,0.16,0,0.23,0
		c0-0.08,0-0.16,0-0.23c0.08,0,0.16,0,0.23,0c0.11-0.22,0.26-0.45,0.47-0.58c0-0.12,0-0.23,0-0.35c0.34-0.08,0.38-0.13,0.47-0.47
		c0.08,0,0.16,0,0.23,0c0.24-0.4,0.51-0.31,0.82-0.58c0.19-0.23,0.39-0.47,0.58-0.7c0-0.08,0-0.16,0-0.23c0.04,0,0.08,0,0.12,0
		c0-0.08,0-0.16,0-0.23c0.08-0.04,0.16-0.08,0.23-0.12c0.04-0.16,0.08-0.31,0.12-0.47c0.08-0.04,0.16-0.08,0.23-0.12
		c0-0.08,0-0.16,0-0.23c0.08-0.04,0.16-0.08,0.23-0.12c0-0.08,0-0.16,0-0.23c0.04,0,0.08,0,0.12,0c0.11-0.16,0.08-0.21,0.12-0.47
		c0.08,0,0.16,0,0.23,0c0-0.12,0-0.23,0-0.35c0.08,0,0.16,0,0.23,0c0.04-0.12,0.08-0.23,0.12-0.35c0.04,0,0.08,0,0.12,0
		c0-0.08,0-0.16,0-0.23c0.04,0,0.08,0,0.12,0c0-0.08,0-0.16,0-0.23c0.12-0.08,0.23-0.16,0.35-0.23c0-0.12,0-0.23,0-0.35
		c0.08-0.04,0.16-0.08,0.23-0.12c0-0.12,0-0.23,0-0.35c0.04,0,0.08,0,0.12,0c0.04-0.16,0.08-0.31,0.12-0.47
		c0.08-0.04,0.16-0.08,0.23-0.12c0-0.12,0-0.23,0-0.35c0.04,0,0.08,0,0.12,0c0.11-0.18,0.09-0.29,0.12-0.58c0.08,0,0.16,0,0.23,0
		c0.04-0.12,0.08-0.23,0.12-0.35c0.04,0,0.08,0,0.12,0c0-0.08,0-0.16,0-0.23c0.08-0.04,0.16-0.08,0.23-0.12c0-0.12,0-0.23,0-0.35
		c0.08-0.04,0.16-0.08,0.23-0.12c0-0.08,0-0.16,0-0.23c0.04,0,0.08,0,0.12,0c0.11-0.16,0.08-0.21,0.12-0.47c0.08,0,0.16,0,0.23,0
		c0.04-0.42,0.15-0.57,0.35-0.82c0.04,0,0.08,0,0.12,0c0-0.08,0-0.16,0-0.23c0.08-0.04,0.16-0.08,0.23-0.12c0-0.12,0-0.23,0-0.35
		c0.16-0.12,0.31-0.23,0.47-0.35c0-0.12,0-0.23,0-0.35c0.08-0.04,0.16-0.08,0.23-0.12c0-0.23,0-0.47,0-0.7c0,0,0.07-0.01,0.12-0.23
		c0.12,0,0.23,0,0.35,0c0-0.04,0-0.08,0-0.12c0.04,0,0.08,0,0.12,0c0.04-0.23,0.08-0.47,0.12-0.7c0.08,0.04,0.16,0.08,0.23,0.12
		c0.2-0.33,0.39-0.86,0.47-1.29c0.08,0,0.16,0,0.23,0c0.04-0.12,0.08-0.23,0.12-0.35c0.04,0,0.08,0,0.12,0c0-0.12,0-0.23,0-0.35
		c0.08-0.04,0.16-0.08,0.23-0.12c0-0.08,0-0.16,0-0.23c0.04,0,0.08,0,0.12,0c0-0.08,0-0.16,0-0.23c0.12-0.08,0.23-0.16,0.35-0.23
		c0.08-0.35,0.16-0.7,0.23-1.05c0.04,0,0.08,0,0.12,0c0-0.08,0-0.16,0-0.23c0.08-0.04,0.16-0.08,0.23-0.12c0-0.19,0-0.39,0-0.58
		c0.04,0,0.08,0,0.12,0c0.17-0.43,0.22-0.59,0.23-1.17c0.16,0,0.31,0,0.47,0c0-0.04,0-0.08,0-0.12c0.12,0.04,0.23,0.08,0.35,0.12
		c0-0.04,0-0.08,0-0.12c0.5-0.34,0.5-1.11,0.82-1.64c0.08-0.04,0.16-0.08,0.23-0.12c0.04-0.19,0.08-0.39,0.12-0.58
		c0.08-0.04,0.16-0.08,0.23-0.12c0-0.08,0-0.16,0-0.23c0.04,0,0.08,0,0.12,0c0.04-0.16,0.08-0.31,0.12-0.47c0.04,0,0.08,0,0.12,0
		c0-0.12,0-0.23,0-0.35c0.16-0.12,0.31-0.23,0.47-0.35c0-0.12,0-0.23,0-0.35c0.17-0.37,0.47-0.58,0.58-1.05c0.08,0,0.16,0,0.23,0
		c0.04-0.16,0.08-0.31,0.12-0.47c0.08,0,0.16,0,0.23,0c0.04-0.16,0.08-0.31,0.12-0.47c0.04,0,0.08,0,0.12,0c0-0.16,0-0.31,0-0.47
		c0.08,0.04,0.16,0.08,0.23,0.12c0.04-0.16,0.08-0.31,0.12-0.47c0.08,0,0.16,0,0.23,0c0.04-0.16,0.08-0.31,0.12-0.47
		c0.08,0,0.16,0,0.23,0c0-0.12,0-0.23,0-0.35c0.56-0.34,0.7-1.1,1.4-1.29c0.15-0.71,0.75-0.84,0.93-1.52c0.08,0,0.16,0,0.23,0
		c0-0.08,0-0.16,0-0.23c0.08,0,0.16,0,0.23,0c0-0.08,0-0.16,0-0.23c0.12,0,0.23,0,0.35,0c0-0.08,0-0.16,0-0.23
		c0.32-0.08,0.26-0.03,0.35-0.35c0.08,0,0.16,0,0.23,0c0-0.08,0-0.16,0-0.23c0.08,0,0.16,0,0.23,0c0.14-0.25,0.26-0.25,0.35-0.58
		c0.32-0.08,0.26-0.03,0.35-0.35c0.08,0,0.16,0,0.23,0c0-0.08,0-0.16,0-0.23c0.08,0,0.16,0,0.23,0c0.13-0.51,0.5-0.51,0.82-0.82
		c0.51-0.55,1.01-1.09,1.52-1.64c0.08,0,0.16,0,0.23,0c0-0.04,0-0.08,0-0.12c0.04,0,0.08,0,0.12,0c0.23-0.27-0.13-0.21,0.35-0.35
		c0.1-0.4,0.24-0.3,0.35-0.7c0.08,0,0.16,0,0.23,0c0.04-0.12,0.08-0.23,0.12-0.35c0.08-0.04,0.16-0.08,0.23-0.12
		c0-0.08,0-0.16,0-0.23c0.19-0.16,0.39-0.31,0.58-0.47c0-0.12,0-0.23,0-0.35c0.08-0.04,0.16-0.08,0.23-0.12
		c0.04-0.16,0.08-0.31,0.12-0.47c0.08,0,0.16,0,0.23,0c0.06-0.27,0.1-0.29,0.23-0.47c0.04,0,0.08,0,0.12,0c0-0.12,0-0.23,0-0.35
		c0.16-0.12,0.31-0.23,0.47-0.35c0.04-0.19,0.08-0.39,0.12-0.58c0.08-0.04,0.16-0.08,0.23-0.12c0-0.12,0-0.23,0-0.35
		c0.08-0.04,0.16-0.08,0.23-0.12c0-0.12,0-0.23,0-0.35c0.04,0,0.08,0,0.12,0c0-0.12,0-0.23,0-0.35c0.04,0,0.08,0,0.12,0
		c0-0.12,0-0.23,0-0.35c0.04,0,0.08,0,0.12,0c0-0.19,0-0.39,0-0.58c0.04,0,0.08,0,0.12,0c0-0.43,0-0.86,0-1.29
		c0.08-0.04,0.16-0.08,0.23-0.12c0-0.19,0-0.39,0-0.58c0.04,0,0.08,0,0.12,0c0-0.08,0-0.16,0-0.23c0.04,0,0.08,0,0.12,0
		c0-0.23,0-0.47,0-0.7c0.04,0,0.08,0,0.12,0c0-0.16,0-0.31,0-0.47c0.04,0,0.08,0,0.12,0c-0.01-0.16-0.03,0.02-0.12-0.12
		c0.08-0.39,0.16-0.78,0.23-1.17c0.04,0,0.08,0,0.12,0c0-0.23,0-0.47,0-0.7c0.08-0.04,0.16-0.08,0.23-0.12
		c-0.04-0.08-0.08-0.16-0.12-0.23c0.04,0,0.08,0,0.12,0c0-0.12,0-0.23,0-0.35c0.04,0,0.08,0,0.12,0c0-0.04,0-0.08,0-0.12
		c-0.07-0.1-0.17,0.04-0.12-0.12c0.04,0,0.08,0,0.12,0c0-0.08,0-0.16,0-0.23c0.04,0,0.08,0,0.12,0c0-0.12,0-0.23,0-0.35
		c0.04,0,0.08,0,0.12,0c0-0.12,0-0.23,0-0.35c0.16-0.43,0.55-1.63,0.35-2.34c-0.04,0-0.08,0-0.12,0c-0.07-0.25,0.16-0.35,0.12-0.47
		c-0.08-0.04-0.16-0.08-0.23-0.12c0-0.12,0-0.23,0-0.35c-0.08-0.04-0.16-0.08-0.23-0.12c0-0.12,0-0.23,0-0.35c-0.04,0-0.08,0-0.12,0
		c-0.16-0.22-0.27-0.27-0.35-0.58c-0.26-0.07-0.29-0.1-0.47-0.23c0-0.04,0-0.08,0-0.12c-0.08,0-0.16,0-0.23,0
		c-0.04-0.08-0.08-0.16-0.12-0.23c-0.08,0-0.16,0-0.23,0c0-0.04,0-0.08,0-0.12c-0.86-0.32-1.86,0.65-2.69,0.7c0-0.12,0-0.23,0-0.35
		c0.83-0.46,1.48-0.91,2.8-0.93c0,0.04,0,0.08,0,0.12c0.12,0,0.23,0,0.35,0c0.04,0.08,0.08,0.16,0.12,0.23c0.08,0,0.16,0,0.23,0
		c0.23,0.27,0.47,0.55,0.7,0.82c0.04,0,0.08,0,0.12,0c0,0.12,0,0.23,0,0.35c0.08,0.04,0.16,0.08,0.23,0.12c0,0.12,0,0.23,0,0.35
		c0.04,0,0.08,0,0.12,0c0.04,0.16,0.08,0.31,0.12,0.47c-0.04,0-0.08,0-0.12,0c0,0.04,0,0.08,0,0.12c0.04,0,0.08,0,0.12,0
		c0,0.12,0,0.23,0,0.35c0.08,0.04,0.16,0.08,0.23,0.12c0,0.08,0,0.16,0,0.23c0.04,0,0.08,0,0.12,0c0,0.31,0,0.62,0,0.93
		c-0.04,0-0.08,0-0.12,0c0,0.08,0,0.16,0,0.23c-0.04,0-0.08,0-0.12,0c0,0.23,0,0.47,0,0.7c-0.04,0-0.08,0-0.12,0
		c-0.04,0.16-0.08,0.31-0.12,0.47c-0.04,0-0.08,0-0.12,0c-0.04,0.23-0.08,0.47-0.12,0.7l0.12,0.12c-0.08,0.04-0.16,0.08-0.23,0.12
		c0,0.12,0,0.23,0,0.35c-0.04,0-0.08,0-0.12,0c0,0.12,0,0.23,0,0.35c-0.04,0-0.08,0-0.12,0c0,0.08,0,0.16,0,0.23
		c-0.04,0-0.08,0-0.12,0C624.69,549.45,624.57,550.31,624.45,551.16z M592.44,599.77c0.04,0,0.08,0,0.12,0c0-0.04,0-0.08,0-0.12
		c0.04,0,0.08,0,0.12,0s0.08,0,0.12,0c0.12-0.16,0.23-0.31,0.35-0.47c0.08,0,0.16,0,0.23,0c0.13-0.13,0-0.05,0.23-0.12
		c0,0.04,0,0.08,0,0.12c-0.08,0-0.16,0-0.23,0c0,0.39,0,0.78,0,1.17c-0.04,0-0.08,0-0.12,0c-0.04,0.23-0.08,0.47-0.12,0.7
		c-0.08,0-0.16,0-0.23,0c-0.16,0.97-0.31,1.95-0.47,2.92c-0.04,0-0.08,0-0.12,0c-0.19,0.25-0.37,0.35-0.47,0.7
		c-0.35,0.09-0.29,0.19-0.7,0.23c-0.04,0.43-0.09,0.5-0.47,0.58c0,0.08,0,0.16,0,0.23c-0.4,0.09-0.54,0.27-0.93,0.35
		c0,0.08,0,0.16,0,0.23c-0.08,0.04-0.16,0.08-0.23,0.12c0.04,0.12,0.08,0.23,0.12,0.35c0,0-0.08,0-0.12,0.23
		c-0.56,0.13-0.93,0.6-1.05,1.17c-0.12,0-0.23,0-0.35,0c0,0.08,0,0.16,0,0.23c-0.16,0-0.31,0-0.47,0c0,0.08,0,0.16,0,0.23
		c-0.37,0.04-0.29,0.04-0.47,0.23c-0.04,0-0.08,0-0.12,0c0,0.08,0,0.16,0,0.23c-0.06,0.08-0.15,0.07-0.23,0.23
		c-0.08,0-0.16,0-0.23,0c-0.17,0.59-0.42,0.31-0.58,0.58c0,0.08,0,0.16,0,0.23c-0.08,0-0.16,0-0.23,0c0,0.08,0,0.16,0,0.23
		c-0.08,0-0.16,0-0.23,0c0,0.08,0,0.16,0,0.23c-0.08,0-0.16,0-0.23,0c0,0.08,0,0.16,0,0.23c-0.04,0-0.08,0-0.12,0
		c-0.16,0.19-0.31,0.39-0.47,0.58c-0.12,0.04-0.23,0.08-0.35,0.12c0,0.08,0,0.16,0,0.23c-0.08,0-0.16,0-0.23,0c0,0.08,0,0.16,0,0.23
		c-0.35,0.09-0.55,0.31-0.7,0.58c-0.16,0-0.31,0-0.47,0c0-0.08,0-0.16,0-0.23c-0.23-0.07-0.1,0.02-0.23-0.12c-0.04,0-0.08,0-0.12,0
		c-0.04-0.27-0.08-0.55-0.12-0.82c-0.04,0-0.08,0-0.12,0c0-0.19,0-0.39,0-0.58c-0.04,0-0.08,0-0.12,0c0.04-0.4,0-0.38,0.35-0.47
		c0.04-0.24,0.12-0.23,0.12-0.23c0-0.19,0-0.39,0-0.58c0.04,0,0.08,0,0.12,0c-0.04-0.12-0.08-0.23-0.12-0.35c0.04,0,0.08,0,0.12,0
		c0-0.23,0-0.47,0-0.7c0.12-0.3,0.37-0.34,0.47-0.82c0.08,0,0.16,0,0.23,0c0.13-0.46,0.48-0.57,0.7-0.93c0.08,0,0.16,0,0.23,0
		c0-0.08,0-0.16,0-0.23c0.04,0,0.08,0,0.12,0c0.08-0.12,0.16-0.23,0.23-0.35c0.08,0,0.16,0,0.23,0c0.19-0.23,0.39-0.47,0.58-0.7
		c0.12,0,0.23,0,0.35,0c0-0.04,0-0.08,0-0.12c0.08-0.04,0.16-0.08,0.23-0.12c0-0.08,0-0.16,0-0.23l0.23-0.23c0.08,0,0.16,0,0.23,0
		c0.04-0.08,0.08-0.16,0.12-0.23c0.08,0,0.16,0,0.23,0c0-0.04,0-0.08,0-0.12c0.16-0.12,0.31-0.23,0.47-0.35c0-0.12,0-0.23,0-0.35
		c0.26-0.07,0.29-0.1,0.47-0.23c0-0.04,0-0.08,0-0.12c0.08,0,0.16,0,0.23,0c0.08-0.12,0.16-0.23,0.23-0.35c0.08,0,0.16,0,0.23,0
		c0.23-0.27,0.47-0.55,0.7-0.82c0.08,0,0.16,0,0.23,0c0.16-0.19,0.31-0.39,0.47-0.58c0.08,0,0.16,0,0.23,0c0-0.04,0-0.08,0-0.12
		c0.36-0.22,0.58-0.24,0.7-0.7c0.23-0.08,0.47-0.16,0.7-0.23c0.14-0.47,0.24-0.23,0.47-0.58c0.08,0,0.16,0,0.23,0
		C592.44,599.92,592.44,599.84,592.44,599.77z M592.44,606.08c0.05,0.27,0.22,0.65,0.12,1.05c0,0-0.17,0.04-0.12,0.35
		c0.04,0,0.08,0,0.12,0c0,0.04,0,0.08,0,0.12c-0.04,0-0.08,0-0.12,0c0,0.08,0,0.16,0,0.23c0.04,0,0.08,0,0.12,0
		c-0.04,0.08-0.08,0.16-0.12,0.23c0,0.25,0.12,0.23,0.12,0.23c0.1,0.4-0.1,0.66-0.12,0.93c0,0.23,0,0.47,0,0.7c0.04,0,0.08,0,0.12,0
		c0,0.16,0,0.31,0,0.47c-0.04,0-0.08,0-0.12,0c-0.05,0.24,0.12,0.35,0.12,0.35c-0.04,0.16-0.08,0.31-0.12,0.47
		c-0.23,0.04-0.47,0.08-0.7,0.12c-0.04,0.08-0.08,0.16-0.12,0.23c-0.16,0-0.31,0-0.47,0c0,0.04,0,0.08,0,0.12
		c-0.23,0.08-0.47,0.16-0.7,0.23c0,0.04,0,0.08,0,0.12c-0.19,0.04-0.39,0.08-0.58,0.12c0,0.04,0,0.08,0,0.12c-0.16,0-0.31,0-0.47,0
		c0,0.04,0,0.08,0,0.12c-0.08,0-0.16,0-0.23,0c0,0.04,0,0.08,0,0.12c-0.08,0-0.16,0-0.23,0c-0.16,0.19-0.31,0.39-0.47,0.58
		c-0.12,0-0.23,0-0.35,0c0,0.04,0,0.08,0,0.12c-0.08,0-0.16,0-0.23,0c-0.04,0.08-0.08,0.16-0.12,0.23c-0.08,0-0.16,0-0.23,0
		c-0.12,0.19-0.23,0.39-0.35,0.58c-0.35,0.24-0.29-0.21-0.47,0.35c-0.08,0-0.16,0-0.23,0c0,0.08,0,0.16,0,0.23
		c-0.42,0.11-0.25,0.21-0.82,0.23c0,0.12,0,0.23,0,0.35c-0.13,0.1-0.02-0.02-0.12,0.12c-0.19,0.04-0.39,0.08-0.58,0.12
		c0,0.08,0,0.16,0,0.23c-0.19,0.04-0.39,0.08-0.58,0.12c-0.02-0.58-0.25-1.02-0.58-1.29c0-0.27,0-0.55,0-0.82
		c0.12-0.04,0.23-0.08,0.35-0.12c0.04-0.08,0.08-0.16,0.12-0.23c0.08,0,0.16,0,0.23,0c0.19-0.23,0.39-0.47,0.58-0.7
		c0.08,0,0.16,0,0.23,0c0.19-0.23,0.39-0.47,0.58-0.7c0.04,0,0.08,0,0.12,0c0-0.08,0-0.16,0-0.23c0.32-0.08,0.26-0.16,0.58-0.23
		c0-0.08,0-0.16,0-0.23c0.12-0.04,0.23-0.08,0.35-0.12c0.16-0.19,0.31-0.39,0.47-0.58c0.12-0.04,0.23-0.08,0.35-0.12
		c0.04-0.12,0.08-0.23,0.12-0.35c0.08,0,0.16,0,0.23,0c0.12-0.45,0.26-0.35,0.58-0.58c0.27-0.31,0.55-0.62,0.82-0.93
		c0.08,0,0.16,0,0.23,0c0-0.08,0-0.16,0-0.23c0.38-0.09,0.61-0.32,0.7-0.7c0.16-0.04,0.31-0.08,0.47-0.12c0-0.08,0-0.16,0-0.23
		c0.08,0,0.16,0,0.23,0c0-0.08,0-0.16,0-0.23c0.08,0,0.16,0,0.23,0c0.16-0.19,0.31-0.39,0.47-0.58c0.12-0.04,0.23-0.08,0.35-0.12
		c0-0.08,0-0.16,0-0.23C592.28,606.08,592.36,606.08,592.44,606.08z M595.48,608.88c-0.04,0-0.08,0-0.12,0
		c-0.04-0.31-0.08-0.62-0.12-0.93c-0.04,0-0.08,0-0.12,0c-0.04-0.31-0.08-0.62-0.12-0.93c-0.08-0.04-0.16-0.08-0.23-0.12
		c0-0.12,0-0.23,0-0.35c0.04,0,0.08,0,0.12,0c0,0.12,0,0.23,0,0.35c0.04,0,0.08,0,0.12,0c0-0.08,0-0.16,0-0.23
		c0.19,0.04,0.39,0.08,0.58,0.12c0,0.08,0,0.16,0,0.23c0.35,0.19,0.7,0.39,1.05,0.58c0.12,0.16,0.23,0.31,0.35,0.47
		c0.12,0,0.23,0,0.35,0c0.04,0.08,0.08,0.16,0.12,0.23c0.08,0,0.16,0,0.23,0c0.04,0.08,0.08,0.16,0.12,0.23
		c0.12,0.04,0.23,0.08,0.35,0.12c0,0.04,0,0.08,0,0.12c0.12,0.04,0.23,0.08,0.35,0.12c0,0.04,0,0.08,0,0.12
		c-0.09,0.05-0.23,0.23-0.23,0.23c-0.19,0-0.39,0-0.58,0c0,0.04,0,0.08,0,0.12c-0.16,0.04-0.31,0.08-0.47,0.12c0,0.04,0,0.08,0,0.12
		c-0.19,0.04-0.39,0.08-0.58,0.12c0-0.04,0-0.08,0-0.12c-0.04,0-0.08,0-0.12,0c-0.27,0.12-0.52,0.23-0.93,0.23
		C595.56,609.5,595.52,609.19,595.48,608.88z M589.05,606.78c0.04,0,0.08,0,0.12,0c0,0.04,0,0.08,0,0.12
		c-0.04,0.08-0.08,0.16-0.12,0.23c-0.04,0-0.08,0-0.12,0C588.97,607.01,589.01,606.89,589.05,606.78z M580.87,609.58
		c-0.13,0.13-0.05,0-0.12,0.23c-0.04,0-0.08,0-0.12,0c0.03-0.28,0.05-0.29,0.12-0.47c0.16,0,0.31,0,0.47,0
		c-0.04,0.11-0.22,0.25-0.12,0.47c0.04,0,0.08,0,0.12,0c0,0.04,0,0.08,0,0.12c-0.12,0-0.23,0-0.35,0
		C580.87,609.81,580.87,609.7,580.87,609.58z M593.96,609.58c0.04,0.19,0.08,0.39,0.12,0.58c-0.04,0-0.08,0-0.12,0
		c0,0.04,0,0.08,0,0.12c-0.04,0-0.08,0-0.12,0c0-0.23,0-0.47,0-0.7C593.88,609.58,593.92,609.58,593.96,609.58z M579.82,615.19
		c0,0.16,0,0.31,0,0.47c-0.04,0-0.08,0-0.12,0c-0.07-0.18-0.09-0.19-0.12-0.47C579.67,615.19,579.74,615.19,579.82,615.19z
		 M579.47,615.42c0,0.12,0,0.23,0,0.35c-0.04,0-0.08,0-0.12,0c0-0.12,0-0.23,0-0.35C579.39,615.42,579.43,615.42,579.47,615.42z
		 M578.77,617.29c-0.07,0.23,0.02,0.1-0.12,0.23c0,0.04,0,0.08,0,0.12c-0.04,0-0.08,0-0.12,0c0-0.12,0-0.23,0-0.35
		C578.62,617.29,578.69,617.29,578.77,617.29z M576.67,617.88c0.04,0,0.08,0,0.12,0c0-0.04,0-0.08,0-0.12c0.04,0,0.08,0,0.12,0
		c0,0.08,0,0.16,0,0.23C576.67,617.92,576.8,618.01,576.67,617.88z M594.89,622.2c0.04,0,0.08,0,0.12,0c0-0.04,0-0.08,0-0.12
		c0.08,0,0.16,0,0.23,0c0.04-0.08,0.08-0.16,0.12-0.23c0.16-0.04,0.31-0.08,0.47-0.12c0.04-0.08,0.08-0.16,0.12-0.23
		c0.08,0,0.16,0,0.23,0c0-0.04,0-0.08,0-0.12c0.08,0,0.16,0,0.23,0c0-0.04,0-0.08,0-0.12c0.16,0,0.31,0,0.47,0
		c0.04-0.08,0.08-0.16,0.12-0.23c0.34-0.2,0.86-0.24,1.4-0.23c0.31,0.23,0.62,0.47,0.93,0.7c0,0.04,0,0.08,0,0.12
		c0.22-0.08,0.3-0.17,0.58-0.23c0.05,0.47,0.29,0.72,0.7,0.82c0.04,0.12,0.08,0.23,0.12,0.35c0.04,0,0.08,0,0.12,0
		c0.04,0.12,0.08,0.23,0.12,0.35c0.08,0.04,0.16,0.08,0.23,0.12c0,0.08,0,0.16,0,0.23c0.08,0.04,0.16,0.08,0.23,0.12
		c0,0.08,0,0.16,0,0.23c0.08,0.04,0.16,0.08,0.23,0.12c0,0.12,0,0.23,0,0.35c0.08,0.04,0.16,0.08,0.23,0.12
		c0.21,0.31-0.13,0.21,0.35,0.35c0.09,0.41,0.31,0.52,0.47,0.82c0.04,0.16,0.08,0.31,0.12,0.47c0.08,0.04,0.16,0.08,0.23,0.12
		c0.04,0.16,0.08,0.31,0.12,0.47c0.04,0,0.08,0,0.12,0c0.04,0.12,0.08,0.23,0.12,0.35c0.08,0.04,0.16,0.08,0.23,0.12
		c0,0.08,0,0.16,0,0.23c0.08,0.04,0.16,0.08,0.23,0.12c0,0.08,0,0.16,0,0.23c0.04,0,0.08,0,0.12,0c0.2,0.4-0.19,0.3,0.35,0.47
		c0.07,0.23-0.02,0.1,0.12,0.23c0,0.04,0,0.08,0,0.12c0.08-0.04,0.16-0.08,0.23-0.12c0,0.04,0,0.08,0,0.12
		c0.28,0.07,0.26,0.12,0.47,0.23c0,0.08,0,0.16,0,0.23c0.34,0.08,0.39,0.13,0.47,0.47c0.08,0,0.16,0,0.23,0
		c0.06,0.47,0.25,0.53,0.47,0.82c0.04,0,0.08,0,0.12,0c0,0.12,0,0.23,0,0.35c0.12,0.04,0.23,0.08,0.35,0.12
		c0.29,0.22,0.36,0.62,0.7,0.82c0,0.12,0,0.23,0,0.35c0.08,0,0.16,0,0.23,0c0.14,0.09,0.14,0.44,0.23,0.58
		c0.08,0.04,0.16,0.08,0.23,0.12c0.19,0.29,0.18,0.51,0.47,0.7c0,0.04,0,0.08,0,0.12c-0.36-0.04-0.88-0.15-1.17-0.23
		c-0.51,0-1.01,0-1.52,0c0-0.04,0-0.08,0-0.12c-0.31,0-0.62,0-0.93,0c0,0.04,0,0.08,0,0.12c-0.04,0-0.08,0-0.12,0
		c0-0.04,0-0.08,0-0.12c-0.08,0-0.16,0-0.23,0c-0.04-0.08-0.08-0.16-0.12-0.23c-0.08,0-0.16,0-0.23,0c0-0.04,0-0.08,0-0.12
		c-0.12,0-0.23,0-0.35,0c0-0.04,0-0.08,0-0.12c-0.12,0-0.23,0-0.35,0c0-0.04,0-0.08,0-0.12c-0.23-0.08-0.47-0.16-0.7-0.23
		c0-0.04,0-0.08,0-0.12c-0.08,0-0.16,0-0.23,0c-0.04-0.08-0.08-0.16-0.12-0.23c-0.23-0.08-0.47-0.16-0.7-0.23c0-0.08,0-0.16,0-0.23
		c-0.4-0.05-0.88-0.17-1.17-0.35c-0.04-0.08-0.08-0.16-0.12-0.23c-0.35-0.12-0.7-0.23-1.05-0.35c-0.08-0.12-0.16-0.23-0.23-0.35
		c-0.12,0-0.23,0-0.35,0c0-0.04,0-0.08,0-0.12c-0.08,0-0.16,0-0.23,0c-0.04-0.08-0.08-0.16-0.12-0.23c-0.12,0-0.23,0-0.35,0
		c-0.12-0.16-0.23-0.31-0.35-0.47c-0.19-0.04-0.39-0.08-0.58-0.12c-0.04-0.08-0.08-0.16-0.12-0.23c-0.27-0.17-0.58-0.29-0.93-0.35
		c-0.16-0.64-0.2-0.25-0.58-0.47c-0.04-0.08-0.08-0.16-0.12-0.23c-0.08,0-0.16,0-0.23,0c0-0.04,0-0.08,0-0.12
		c-0.16-0.1-0.21-0.09-0.47-0.12c0.04-0.08,0.08-0.16,0.12-0.23c-0.12-0.08-0.23-0.16-0.35-0.23c0-0.43,0-0.86,0-1.29
		c0.04,0,0.08,0,0.12,0c-0.04-0.12-0.08-0.23-0.12-0.35c0.04-0.08,0.08-0.16,0.12-0.23c-0.04,0-0.08,0-0.12,0c0-0.04,0-0.08,0-0.12
		c0.04,0,0.08,0,0.12,0c0-0.04,0-0.08,0-0.12c-0.04,0-0.08,0-0.12,0c0-0.04,0-0.08,0-0.12c0.04,0,0.08,0,0.12,0
		c0-0.04,0-0.08,0-0.12c-0.04-0.08-0.08-0.16-0.12-0.23c0.04,0,0.08,0,0.12,0c0-0.19,0-0.39,0-0.58c0.04,0,0.08,0,0.12,0
		c0-0.04,0-0.08,0-0.12c-0.08-0.04-0.16-0.08-0.23-0.12c0.04-0.19,0.08-0.39,0.12-0.58c-0.04,0-0.08,0-0.12,0
		c-0.09-0.17-0.09-0.2-0.12-0.47C595.02,622.4,594.67,622.46,594.89,622.2z M594.31,628.97c-0.04-0.08-0.08-0.16-0.12-0.23
		c0.39,0.01,0.66-0.01,0.93,0.12c0,0.04,0,0.08,0,0.12c0.19,0.04,0.39,0.08,0.58,0.12c0,0.04,0,0.08,0,0.12c0.08,0,0.16,0,0.23,0
		c0.04,0.08,0.08,0.16,0.12,0.23c0.47,0.16,0.93,0.31,1.4,0.47c0.04,0.08,0.08,0.16,0.12,0.23c0.08,0,0.16,0,0.23,0l0.23,0.23
		c0.08,0,0.16,0,0.23,0c0,0.04,0,0.08,0,0.12c0.08,0,0.16,0,0.23,0c0,0.04,0,0.08,0,0.12c0.08,0,0.16,0,0.23,0
		c0.04,0.08,0.08,0.16,0.12,0.23c0.08,0,0.16,0,0.23,0c0,0.04,0,0.08,0,0.12c0.08,0,0.16,0,0.23,0c0,0.04,0,0.08,0,0.12
		c0.27,0.08,0.55,0.16,0.82,0.23c0.04,0.08,0.08,0.16,0.12,0.23c0.08,0,0.16,0,0.23,0c0,0.04,0,0.08,0,0.12
		c0.12,0.04,0.23,0.08,0.35,0.12c-0.23,0.19-1.63,0-1.99-0.12c0-0.04,0-0.08,0-0.12c-0.16,0-0.31,0-0.47,0c0-0.04,0-0.08,0-0.12
		c-0.39,0-0.78,0-1.17,0c0-0.04,0-0.08,0-0.12c-0.27,0-0.55,0-0.82,0c0-0.04,0-0.08,0-0.12c-0.08,0-0.16,0-0.23,0
		c0-0.04,0-0.08,0-0.12c-0.35,0-0.7,0-1.05,0c-0.58-0.18-1.11-0.45-1.87-0.47c-0.04-0.16-0.08-0.31-0.12-0.47c0.08,0,0.16,0,0.23,0
		c0.04-0.23,0.08-0.47,0.12-0.7c0.16-0.04,0.31-0.08,0.47-0.12C594.09,628.85,594.16,629.16,594.31,628.97z M640.93,633.41
		c-0.12,0-0.23,0-0.35,0c0-0.04,0-0.08,0-0.12c-0.13-0.13-0.05,0-0.12-0.23c0.18-0.07,0.19-0.09,0.47-0.12c0,0.04,0,0.08,0,0.12
		c0.04,0,0.08,0,0.12,0C641,633.18,640.97,633.3,640.93,633.41z M581.11,633.18c0,0.04,0,0.08,0,0.12c-0.16,0-0.31,0-0.47,0
		c0-0.04,0-0.08,0-0.12C580.8,633.18,580.95,633.18,581.11,633.18z M580.52,633.41c0,0.08,0,0.16,0,0.23
		c-0.19,0.04-0.39,0.08-0.58,0.12c0-0.08,0-0.16,0-0.23C580.13,633.49,580.33,633.45,580.52,633.41z M579.59,634.23
		c0,0.08,0,0.16,0,0.23c-0.04,0-0.08,0-0.12,0c0-0.08,0-0.16,0-0.23C579.51,634.23,579.55,634.23,579.59,634.23z M579.12,636.34
		c0-0.04,0-0.08,0-0.12c0.12,0.04,0.23,0.08,0.35,0.12c0,0.12,0,0.23,0,0.35c-0.16-0.04-0.31-0.08-0.47-0.12
		C579.08,636.34,578.99,636.47,579.12,636.34z M566.74,637.04c0.16,0,0.31,0,0.47,0c0,0.04,0,0.08,0,0.12c-0.16,0-0.31,0-0.47,0
		C566.74,637.11,566.74,637.08,566.74,637.04z M568.14,637.39c0.08,0,0.16,0,0.23,0c0,0.04,0,0.08,0,0.12
		C568.14,637.44,568.27,637.52,568.14,637.39z M569.19,637.62c0.12,0,0.23,0,0.35,0c0,0.04,0,0.08,0,0.12c-0.12,0-0.23,0-0.35,0
		C569.19,637.7,569.19,637.66,569.19,637.62z M569.54,637.74c0.23,0.04,0.47,0.08,0.7,0.12c0,0.04,0,0.08,0,0.12
		C569.77,637.98,569.74,638.03,569.54,637.74z M571.18,637.97c0,0.08,0,0.16,0,0.23c-0.22-0.03-0.23-0.12-0.23-0.12
		c-0.21-0.07-0.17,0.04-0.23,0.12c-0.18-0.06-0.14-0.1-0.23-0.23C570.71,637.97,570.94,637.97,571.18,637.97z M582.98,641.48
		c-0.04,0.23-0.08,0.47-0.12,0.7c-0.04,0-0.08,0-0.12,0c0.01-0.33,0.04-0.5,0.12-0.7C582.9,641.48,582.94,641.48,582.98,641.48z
		 M595.13,642.53c0.12,0,0.23,0,0.35,0c0,0.08,0,0.16,0,0.23c-0.12,0-0.23,0-0.35,0C595.13,642.68,595.13,642.61,595.13,642.53z
		 M550.5,653.28c0.12,0,0.23,0,0.35,0c0,0.04,0,0.08,0,0.12c0.3,0.25,0.19,0.44,0.12,0.82c-0.19,0.07-0.28,0.1-0.58,0.12
		c-0.07,0.05-0.02,0.19-0.23,0.12c0-0.04,0-0.08,0-0.12c-0.04,0-0.08,0-0.12,0c-0.14-0.22-0.03-0.5,0-0.7
		c0.16-0.04,0.31-0.08,0.47-0.12C550.5,653.43,550.5,653.35,550.5,653.28z"/>
</g>
</svg>
