<?xml version="1.0" encoding="utf-8"?>
<!-- Generator: Adobe Illustrator 24.1.3, SVG Export Plug-In . SVG Version: 6.00 Build 0)  -->
<svg version="1.1" id="圖層_1" xmlns="http://www.w3.org/2000/svg" xmlns:xlink="http://www.w3.org/1999/xlink" x="0px" y="0px"
	 viewBox="0 0 1200 1200" style="enable-background:new 0 0 1200 1200;" xml:space="preserve">
<style type="text/css">
	.st0{fill-rule:evenodd;clip-rule:evenodd;}
</style>
<g>
	<path d="M534.01,528.77c1.3-3.2,4.17-4.35,5.91-4.69c1.74-0.35,6.61-2.61,7.65-3.83c1.04-1.22,5.56-1.74,10.26-1.74
		c4.69,0,21.39,2.26,23.3,2.96s10.26,0.7,12.52,0s5.74-1.91,7.82-2.09s8.17,1.39,10.95,1.74c2.78,0.35,10.61-0.87,15.13-0.17
		c4.52,0.7,4.87,2.96,8.52,3.3c3.65,0.35,9.04-0.17,9.04-0.17s-2.96-2.61,0.52-2.09s5.39,0.87,6.96,0.7
		c1.56-0.17,1.39-1.74,4.87-2.26c3.48-0.52,7.65,1.56,9.39,3.83c1.74,2.26,7.3,7.3,8.87,8.35c1.56,1.04,3.3,0,2.96,1.39
		c-0.35,1.39-1.91,2.78-3.83,3.48c-1.91,0.7-2.26,1.39-2.43,3.13s-1.04,4.35-1.04,4.35s2.96,4.52,6.26,6.09
		c3.3,1.56,4.69,6.96,3.65,9.74c-1.04,2.78,0.7,9.74,1.22,13.04s3.83,7.82,5.74,13.56s2.96,19.47,0.7,22.26
		c-2.26,2.78-3.83,4.35-4,6.61c-0.17,2.26,0.87,7.13-1.22,11.82c-2.09,4.69-5.74,12.17-10.61,18.43
		c-4.87,6.26-8.52,8.69-10.43,13.22c-1.91,4.52-2.78,8.69-8.35,10.09c-5.56,1.39-6.96,0.17-9.74,2.09c-2.78,1.91-1.22,4.52-8,5.56
		c-6.78,1.04-12.52-1.57-15.13,0.17s-4.87,2.09-8.69,2.43s-7.82-1.74-11.65-0.17s-7.48,1.74-11.48,1.56s-16-2.78-21.74-6.43
		s-7.3-6.43-7.3-6.43s-6.43,2.09-11.65-0.52c-5.22-2.61-7.48-6.78-10.26-7.48c-2.78-0.7-9.39,0.35-12.17,0.52
		c-2.78,0.17-5.56,1.74-7.3,1.39c-1.74-0.35-1.91-2.09-2.09-4.87c-0.17-2.78,0.7-3.83-0.7-5.39s-2.61-1.74-3.13-5.04
		c-0.52-3.3,0.7-14.26-0.87-15.48c-1.56-1.22-3.3-4.17-2.43-7.3c0.87-3.13,4.52-6.43,4.17-8.52s-1.91-2.78-2.78-5.56
		c-0.87-2.78-0.17-6.26,0.7-9.04c0.87-2.78,6.43-10.95,6.09-13.74c-0.35-2.78-0.7-4.87-2.09-6.43s-2.09-3.83-1.56-5.74
		s1.91-4.87,1.91-7.13s-0.17-2.26,1.04-6.78c1.22-4.52,0.87-9.39,3.65-13.22C523.92,544.42,528.27,542.85,534.01,528.77z"/>
</g>
</svg>
