<?xml version="1.0" encoding="utf-8"?>
<!-- Generator: Adobe Illustrator 24.1.3, SVG Export Plug-In . SVG Version: 6.00 Build 0)  -->
<svg version="1.1" id="圖層_1" xmlns="http://www.w3.org/2000/svg" xmlns:xlink="http://www.w3.org/1999/xlink" x="0px" y="0px"
	 viewBox="0 0 1200 1200" style="enable-background:new 0 0 1200 1200;" xml:space="preserve">
<style type="text/css">
	.st0{fill-rule:evenodd;clip-rule:evenodd;}
</style>
<g>
	<path d="M537.34,550.92c2.23-2.09,1.67-4.05,3.21-5.02c1.54-0.98,6.28-1.81,7.82-3.49s9.91-8.51,12.28-11.03
		c2.37-2.51,3.07-4.47,5.58-7.54s7.54-2.51,8.65-3.77c1.12-1.26,1.12-2.51,1.95-4.33c0.84-1.81-0.42-1.67,0.98-2.65
		c1.4-0.98,2.79,1.4,2.93,2.93c0.14,1.54,1.26,2.09,2.65,0.56c1.4-1.54,3.77-3.91,6.42-4.33c2.65-0.42,7.54-0.14,10.33-0.56
		c2.79-0.42,5.16,1.26,5.86-0.42c0.7-1.67-3.49-5.16-1.67-7.12c1.81-1.95,3.63-0.84,3.91,1.26c0.28,2.09,0.84,6,0.84,6
		s6.42,0,7.26-0.42c0.84-0.42,3.07-3.91,6-5.58c2.93-1.67,5.44-0.56,7.4-1.95s5.16-5.86,6.98-6.56c1.81-0.7,1.54,3.35,0,5.58
		c-1.54,2.23-3.91,3.77-3.63,5.02c0.28,1.26,2.23,1.81,3.91,1.67c1.67-0.14,8.79-3.77,11.17-5.16s4.33-2.93,5.44-1.95
		s2.93,4.05,3.35,3.91c0.42-0.14,0.98-2.37,2.79-4.61c1.81-2.23,5.58-3.63,6.56-5.02c0.98-1.4,2.09-3.07,4.33-3.63
		s3.91-0.7,3.91,0.7c0,1.4-2.51,2.93-2.79,4.33s-1.95,3.49-3.77,4.33c-1.81,0.84-2.09,3.91-2.09,3.91s3.35,0.42,1.12,3.35
		s-4.05,3.77-4.47,5.3s-0.42,4.61-1.12,6.56c-0.7,1.95-1.67,4.75-0.98,6c0.7,1.26,4.47,2.79,5.58,1.4c1.12-1.4,2.79-0.98,2.09,1.4
		c-0.7,2.37,1.12,2.51,1.81,6.84c0.7,4.33,2.09,6.56,5.58,5.72c3.49-0.84,5.58-2.09,6.84-1.4s0.7,3.91,0.14,5.44
		s-1.81,4.61-1.26,7.96c0.56,3.35,0.28,7.12,0.7,9.07s6.28,5.02,7.82,6.56c1.54,1.54,0.56,3.91,2.23,6.14s1.12,7.12,4.47,11.44
		c3.35,4.33,4.47,5.02,2.93,9.35c-1.54,4.33-4.61,5.44-4.33,10.33c0.28,4.88-2.37,12.98-0.98,15.07c1.4,2.09,2.79,9.35,2.09,11.86
		c-0.7,2.51-2.79,4.61-3.63,7.26c-0.84,2.65-3.77,5.44-5.02,7.26c-1.26,1.81-2.37,5.16-3.49,8.09c-1.12,2.93-4.88,9.21-6.56,11.58
		c-1.67,2.37-2.23,5.86-8.09,9.35s-18.84,6.7-28.89,12.98c-10.05,6.28-11.72,9.91-22.61,12.84c-10.89,2.93-15.77,5.72-22.89,2.51
		c-7.12-3.21-15.49-2.93-19.68-2.93s-9.77,0.14-14.24-2.23s-25.68-13.82-27.35-14.51c-1.67-0.7-0.28,1.12-1.95,0.42
		c-1.67-0.7-1.26-2.23-1.26-2.23s-4.47-6.98-6.84-9.35s-5.44-3.35-7.68-7.4c-2.23-4.05-4.61-12.14-5.72-13.82s-3.07-2.37-2.93-4.88
		c0.14-2.51-0.42-4.61-1.67-6.84s-4.33-3.07-4.19-5.44c0.14-2.37-0.98-15.35-1.26-19.96c-0.28-4.61-0.7-4.47,0.84-7.4
		c1.54-2.93,2.09-7.82,4.33-11.44c2.23-3.63,2.51-3.49,2.79-7.54c0.28-4.05,0.14-5.86,0.98-7.54c0.84-1.67,10.47-10.47,13.96-17.03
		c3.49-6.56,6.84-9.07,9.07-11.3C534.41,552.59,537.34,550.92,537.34,550.92z"/>
</g>
</svg>
