<?xml version="1.0" encoding="utf-8"?>
<!-- Generator: Adobe Illustrator 24.1.3, SVG Export Plug-In . SVG Version: 6.00 Build 0)  -->
<svg version="1.1" id="圖層_1" xmlns="http://www.w3.org/2000/svg" xmlns:xlink="http://www.w3.org/1999/xlink" x="0px" y="0px"
	 viewBox="0 0 1200 1200" style="enable-background:new 0 0 1200 1200;" xml:space="preserve">
<style type="text/css">
	.st0{fill-rule:evenodd;clip-rule:evenodd;}
</style>
<g>
	<path d="M527.44,526.08c4.95-3.89,13.04-12.01,17.39-15.11c4.35-3.11,8.49-6,11.8-7.25c3.31-1.24,11.8-3.11,14.49-3.93
		c2.69-0.83,12.01-3.11,14.7-4.55c2.69-1.45,10.56-3.31,15.11-3.52c4.55-0.21,27.12,2.9,31.26,3.52c4.14,0.62,11.39-0.62,15.94,1.24
		c4.55,1.86,14.91,7.87,17.6,10.97c2.69,3.11,8.07,8.49,10.56,8.7s9.11,0.62,12.63,4.14s6.21,10.56,8.49,15.73
		c2.28,5.18,3.11,11.18,9.73,17.8c6.63,6.63,9.32,9.73,11.8,20.7s7.04,12.21,7.66,21.53c0.62,9.32,2.28,34.57-6.83,45.96
		c-9.11,11.39-11.59,23.39-30.43,36.44s-27.12,22.57-55.9,27.33c-28.78,4.76-81.78,3.93-104.55-12.84
		c-22.77-16.77-34.99-33.54-38.51-40.16c-3.52-6.63-14.08-36.23-15.94-40.37c-1.86-4.14-2.69-8.49,1.04-13.04
		c3.73-4.55,9.73-15.11,11.18-21.32c1.45-6.21,5.38-13.66,8.9-17.18c3.52-3.52,11.59-11.18,13.66-15.53
		C511.29,540.98,521.65,530.63,527.44,526.08z"/>
</g>
</svg>
