<?xml version="1.0" encoding="utf-8"?>
<!-- Generator: Adobe Illustrator 24.1.3, SVG Export Plug-In . SVG Version: 6.00 Build 0)  -->
<svg version="1.1" id="圖層_1" xmlns="http://www.w3.org/2000/svg" xmlns:xlink="http://www.w3.org/1999/xlink" x="0px" y="0px"
	 viewBox="0 0 1200 1200" style="enable-background:new 0 0 1200 1200;" xml:space="preserve">
<style type="text/css">
	.st0{fill-rule:evenodd;clip-rule:evenodd;}
</style>
<g>
	<path d="M520.91,489.44c17.84-11.5,29.8-15.52,48.32-15.87s41.97,3,44.97,2.82s13.4-7.94,16.05-10.05c2.65-2.12,5.64-3,4.76-4.23
		c-0.88-1.23-3-2.65-5.29-1.76c-2.29,0.88-6.52,2.12-7.93,3.88c-1.41,1.76-1.94,5.29-2.65,3.88s-2.65-5.82-1.41-7.94
		c1.23-2.12,5.47-1.59,7.23-2.82c1.76-1.23,4.94-3.53,6-5.29c1.06-1.76,3.53-3.17,4.76-3.17s0.18,4.41,1.23,4.41
		c1.06,0,6-3,7.94-6.35c1.94-3.35,1.59-4.76,1.59-5.47s3,1.23,1.94,4.23c0,0,7.23-6.17,11.64-7.94c4.41-1.76,8.11-0.18,10.76-1.23
		s4.76-2.82,7.05-0.88c2.29,1.94,4.94,4.94,6,4.94s1.76,0.71,1.76,0.71s-2.47,5.47-2.47,7.76c0,2.29,0.35,11.64,1.23,13.23
		s1.94,2.82,3.53,1.94c1.59-0.88,3.17-3.35,4.41-5.47c1.23-2.12,1.41-1.06,0.35,3c-1.06,4.06,0.71,6-1.41,8.11
		c-2.12,2.12-2.65,4.58-1.23,4.58c1.41,0,0,2.64-3.53,2.64s-3.53-1.59-7.05-4.41c-3.53-2.82-7.41,3.35-7.94,5.82
		c-0.53,2.47-1.52,15.41,6.88,23.81c2.29,2.29,23.63,10.93,40.38,33.33s31.78,86,13.05,123.43c-14.97,29.91-25.77,38.05-32.91,47.36
		c0,0,8.88-4.5,11-5.73c0,0-17.87,18.96-46.62,32.18c-28.74,13.23-36.21,8.54-50.85,11.19c-14.64,2.65-40.03,10.23-40.03,10.23
		s0.88,3-1.59,4.58c-2.47,1.59-0.53,4.94-2.82,4.76c-2.29-0.18-5.29,0.71-6-1.06c-0.71-1.76-0.71-2.47-1.59-2.65
		c-0.88-0.18-4.76,0.35-6.17,1.41c-1.41,1.06,1.59,3,0,3.53c-1.59,0.53-2.47,0.53-4.94-0.71c-2.47-1.23-5.64-5.29-9.17-5.82
		s-4.76-2.47-8.29-3.35c-3.53-0.88-7.23-2.65-10.58-4.58c-3.35-1.94-6-4.94-10.05-9.7c-4.06-4.76-6.17-8.99-10.58-11.46
		c-4.41-2.47-8.99-6.17-7.23-6.7s8.99,4.23,17.1,15.52c0,0,4.94,0.35,7.58,2.64c2.65,2.29,4.06,3.7,4.06,3.17
		c0-0.53-7.05-7.23-6.7-9.7c0.35-2.47,6.35-0.53,6.35-0.53s-6.17-5.47-6.17-8.64c0,0-1.59,2.64-3.17,4.23
		c-1.59,1.59-1.94-2.47-0.88-6.35s1.41-7.76,1.41-7.76s-23.63-16.05-38.79-49.37c-15.16-33.33-16.58-59.42-13.05-89.22
		S481.24,515.01,520.91,489.44z"/>
</g>
</svg>
