<?xml version="1.0" encoding="utf-8"?>
<!-- Generator: Adobe Illustrator 24.1.3, SVG Export Plug-In . SVG Version: 6.00 Build 0)  -->
<svg version="1.1" id="圖層_1" xmlns="http://www.w3.org/2000/svg" xmlns:xlink="http://www.w3.org/1999/xlink" x="0px" y="0px"
	 viewBox="0 0 1200 1200" style="enable-background:new 0 0 1200 1200;" xml:space="preserve">
<style type="text/css">
	.st0{fill-rule:evenodd;clip-rule:evenodd;}
</style>
<g>
	<path d="M552.34,521.79c21.4-7.52,57.15-7.42,67.18-3.49c10.03,3.93,19.19,13.52,19.19,13.52s11.34,3.49,21.38,11.34
		c10.03,7.85,36.21,19.19,29.66,66.31c-6.54,47.11-37.08,77.65-70.67,71.98c0,0-5.67,3.93-13.09,2.62c-7.42-1.31-23.99,0-30.54-8.72
		c-6.54-8.72-32.72-3.93-38.82-19.19c-6.11-15.27-27.48-23.56-19.19-48.42c0,0-4.8-2.62-6.98-18.76
		c-2.18-16.14-2.62-27.05,8.29-40.57C529.65,534.88,536.2,527.47,552.34,521.79z"/>
</g>
</svg>
