<?xml version="1.0" encoding="utf-8"?>
<!-- Generator: Adobe Illustrator 24.1.3, SVG Export Plug-In . SVG Version: 6.00 Build 0)  -->
<svg version="1.1" id="圖層_1" xmlns="http://www.w3.org/2000/svg" xmlns:xlink="http://www.w3.org/1999/xlink" x="0px" y="0px"
	 viewBox="0 0 1200 1200" style="enable-background:new 0 0 1200 1200;" xml:space="preserve">
<style type="text/css">
	.st0{fill-rule:evenodd;clip-rule:evenodd;}
</style>
<g>
	<path d="M687.68,620.19c-2.93-4.1-1.47-7.03-4.69-18.46c-3.22-11.43-19.05-18.75-19.05-18.75s-8.79-10.84-10.26-14.06
		c-1.47-3.22-3.81-7.91-8.5-14.36c-4.69-6.45-12.31-7.03-15.82-7.91c-3.52-0.88-21.1-11.43-25.2-16.12
		c-4.1-4.69-10.84-4.4-10.84-4.4s5.27-7.91,3.52-8.2c-1.76-0.29-12.6-4.1-15.82-4.4c-3.22-0.29-17.87-5.57-21.39-7.03
		c-3.52-1.47-14.94,1.76-20.22,4.98c-5.27,3.22-9.08,11.72-9.67,17.87c-0.59,6.15-2.79,6.95-7.33,16.41
		c-3.52,7.33-9.08,22.85-10.84,29.89c-1.76,7.03,0.29,10.84,2.34,17.87c2.05,7.03,0.59,11.72,2.64,22.27
		c2.05,10.55,8.2,16.7,12.01,25.49s17.58,26.66,24.03,29.3c6.45,2.64,19.92,14.65,29.01,19.05c9.08,4.4,24.61,4.98,34.87,3.52
		c10.26-1.47,23.73-1.76,32.23-5.27c8.5-3.52,14.36-12.31,16.41-16.99c2.05-4.69,14.36-14.94,16.99-20.51s2.64-15.24,4.4-17.58
		S690.62,624.29,687.68,620.19z M620.39,634.35c0.59,1.95-0.98,6.06-2.15,6.25s-7.62-1.76-8.79,0c-1.17,1.76-6.45,6.06-7.23,6.84
		c-0.78,0.78-1.56,2.54-1.56,2.54s-5.08-1.95-7.62-3.52c-2.54-1.56-6.84-5.47-8.99-7.23c-2.15-1.76-5.27-3.52-5.47-6.45
		c-0.2-2.93-1.37-7.03-2.73-8.4c-1.37-1.37-3.32-3.13-3.52-3.71c-0.2-0.59,0.2-4.3-0.59-4.69c-0.78-0.39-1.17-2.15-1.17-2.15
		s1.76-1.95,0.78-2.93c-0.98-0.98-1.95-1.56-2.15-3.13c-0.2-1.56,0.39-3.91-0.59-5.08c-0.98-1.17-2.73-1.37-3.32-2.15
		c-0.59-0.78-0.2-3.52-1.17-4.49c-0.98-0.98-1.76-1.95-1.17-2.73c0.59-0.78,2.15-2.15,1.37-2.73c-0.78-0.59-1.37-1.37-1.95-1.95
		c-0.59-0.59-1.56-3.32-1.76-4.88c-0.2-1.56-0.78-3.13-1.56-4.1s0-3.13-0.98-3.52s-0.78-1.95-0.78-3.32c0-1.37-0.2-1.76,0.78-2.34
		s2.73-0.2,2.73-2.15c0-1.95-0.59-2.34,0-2.54c0.59-0.2,2.93-0.2,1.95-2.15c0,0,2.93,0.59,4.88,0.2c1.95-0.39,4.49-2.54,5.66-2.15
		s6.25,3.71,7.03,4.69c0.78,0.98,4.49,5.27,5.66,5.86c1.17,0.59,9.18,5.47,9.18,5.47l7.23,8.59c0,0,2.93,12.7,6.25,18.36
		s6.64,11.33,8.59,12.7c1.95,1.37,3.91,6.45,4.1,8.4C621.56,627.71,619.81,632.39,620.39,634.35z"/>
</g>
</svg>
