<?xml version="1.0" encoding="utf-8"?>
<!-- Generator: Adobe Illustrator 24.1.3, SVG Export Plug-In . SVG Version: 6.00 Build 0)  -->
<svg version="1.1" id="圖層_1" xmlns="http://www.w3.org/2000/svg" xmlns:xlink="http://www.w3.org/1999/xlink" x="0px" y="0px"
	 viewBox="0 0 1200 1200" style="enable-background:new 0 0 1200 1200;" xml:space="preserve">
<style type="text/css">
	.st0{fill-rule:evenodd;clip-rule:evenodd;}
</style>
<g>
	<path d="M655.93,523.33C668.39,535.11,679.8,561,679.8,561s5.22,5.97,5.59,24.24s-4.85,30.21-5.97,35.43s-7.09,8.58-8.58,11.19
		s-1.49,9.32-3.36,11.56c-1.86,2.24-11.93,17.9-11.93,17.9s0.75,6.71,0,8.95c-0.75,2.24-4.1,2.24-4.1,2.24l-1.12,15.66
		c0,0-3.73,2.98-5.97,4.85c-2.24,1.86-25.73,10.44-41.77,9.7s-22.38-3.73-22.38-4.85c0-1.12-0.75-13.43-0.75-13.43
		s-8.2-9.32-13.05-10.82c-4.85-1.49-14.17-2.61-19.39-7.83c-5.22-5.22-19.02-27.6-20.51-32.82c-1.49-5.22-4.48-14.17-3.73-18.65
		c0.75-4.48,0.37-11.19,0.37-11.19s-6.71-12.31-5.97-24.24s-7.83-21.26,2.61-33.19c10.44-11.93,28.72-33.94,36.92-38.04
		s16.78-8.58,19.02-10.07c2.24-1.49,8.58,2.24,8.58,2.24s-1.12-1.86,18.65-0.75C622.74,500.21,635.42,503.94,655.93,523.33z"/>
</g>
</svg>
