<svg id="圖層_1" data-name="圖層 1" xmlns="http://www.w3.org/2000/svg" viewBox="0 0 1200 1200"><path d="M507.33,435.24c.33-.33,2,.33,2.63.33a3.4,3.4,0,0,1,1.31.33,1.46,1.46,0,0,0,1-1.31c0-1-.32-1.32,0-1.32s2,.66,2.63,0,2.62-1,3-2,2.29-.66,2.62-1,2.95-.33,2.95-.33,3.94-2,4.92-2.29,5.91-1.31,6.56-2,3.94-.66,4.59-1.31a10.3,10.3,0,0,1,3.28-1.64c1-.33,4.92-.66,5.91-1s3.93-.32,4.59-.65,4.59-2,5.58-2.62a23.1,23.1,0,0,1,5.24-2.3,5.33,5.33,0,0,1,2,1s2.62-1,3.28-.65a16.6,16.6,0,0,1,2.3,2s5.57-.66,6.56-1a22.64,22.64,0,0,1,5.24-.65c1.64,0,5.91.32,6.23.65l.66.66a3.41,3.41,0,0,1,2-1c1,0,11.48,1,12.13,1.32a15.66,15.66,0,0,0,3.94,0,9.57,9.57,0,0,1,3.28-1c1.31,0,2.62.33,3.28.33a10.05,10.05,0,0,0,3-.33c1-.33,3.61.33,3.93.33s2.3.33,3,0,3.93,0,4.59,0H631s.65-2.3,2-2.62,4.26,1.31,4.59,1.64a13.88,13.88,0,0,0,4.26,1c1,0,8.86.33,10.5.66s4.92.65,5.9,1.31a17.15,17.15,0,0,0,3.93,1.64,22.65,22.65,0,0,1,2.63,1,37.3,37.3,0,0,1,4.59.66,4.56,4.56,0,0,1,1.64,1s2.62-.33,3.94.33a6.58,6.58,0,0,0,2.62,1,1.8,1.8,0,0,1,1.64.66,5.66,5.66,0,0,1,1,1.31,2.08,2.08,0,0,1,2-.33c1.31.33,3.28,1,3.28,1l1.64-1.64c.33-.33,2.62.65,3.61,1.31s2.62,0,3,.33.33,2,.33,2.29-.33,2.63-.33,2.63,5.25,3.28,5.9,4.59,3.28,2.29,4.92,2.95a27.89,27.89,0,0,1,6.23,4.59c1.32,1.31,4.27,1.64,4.6,2.62s-.33,3.94-.33,3.94a10.77,10.77,0,0,0,3.61.66c2,0,3.6-.33,4.26.65a23.77,23.77,0,0,0,2.29,2.63s4.27,5.57,5.25,6.55,4.27,3.94,4.92,5.58,1.31,4.26,2.3,4.59,2,.66,2.29,2,2,2,2,3.28a36.79,36.79,0,0,1-.66,4.59v3.28c0,1.31,0,3.28-.32,3.61s-1.31,2.29-.66,3,1,2.62,1.31,2.62,1.64,2.3,1,2.3a6.58,6.58,0,0,0-2.63,1.31c-.32.33-.65,2.3-.32,2.63a7.47,7.47,0,0,1,1,4.26,24.74,24.74,0,0,0-.33,4.59,8.34,8.34,0,0,0,.66,3.61c.65,1.31,0,3.61,0,4.59s-.66,2.62,0,3,1.31,0,1.64.66a8.48,8.48,0,0,1,.65,2.29c0,.33-.33,1.64-.33,2s-.65.33-1.64.66-2.29,0-2.29,1-1,1-1.31,1-1,2.3-.33,3,2,2,2,3.28,0,2-.33,2.29a4.68,4.68,0,0,0-.66,1.31,17.56,17.56,0,0,1,.33,2.63c0,1,.33,2,.33,3.6s.66,2.3,0,3-1,1-1,1.31.65,3.28.65,3.93c0,14.2-2.88,29.19-2,44.07a67.56,67.56,0,0,1,.17,9.54c-.61,7.08-3.26,12.92-2,19.92.52,2.92-.33,5.05-.3,7.87,0,1.73,1.22,3.08,1.22,4.86a7.16,7.16,0,0,1-.33,2.62,7,7,0,0,0,0,2.63c0,.65.66,1.64,0,2.29a2,2,0,0,1-1.31.66,12.3,12.3,0,0,1,.33,2.62c0,1.31-1,2-1,2.63s.66,2-.32,2.62l-1,.66s1.31,2.62.66,3.6c-3,4.59-3.87,10.56-6,15.64q-3.89,9.2-6.9,18.72c-1.67,5.26-5,12.26-3.15,17.79.33,1,.65,3.94.33,4.59a6.47,6.47,0,0,1-1.32,2.63,24.83,24.83,0,0,0-2.29,2.95s1.64,8.2,1,10.49-2,4.27-2.29,5.25a22.44,22.44,0,0,1-1,2.3s2.63.32,2.63,2a7.76,7.76,0,0,0,1,3.94c.66,1.31.33,2.29-.33,3.61a17.8,17.8,0,0,1-2.62,3.28s1.31,3-1.31,4.59-12.47,3.93-12.47,3.93-4.26,4.59-7.21,5.25-15.42,3-18.7,3.28-4.92,1.31-7.21,2.3-6.89,3.28-8.53,3.93-2,1.64-3.61,1-5.57-.66-5.9-.66a36.4,36.4,0,0,0-3.94,2.62c-2,1.32-19.35,4.92-22.63,4.92a79.93,79.93,0,0,0-10.49.66c-1.31.33-2,1-3.94.33s-6.23-2-7.54-2.3-7.87,0-7.87,0l-2.95-4.59s-3,.66-3.61.33a3.87,3.87,0,0,1-1-.66s-2.3,1.64-3.61,1.64a4.76,4.76,0,0,1-2-.33s0,3-1.64,2.63c-1.31-.33-2.62-3.94-2.62-3.94l-2-4.26s-3.94-2.63-4.59-2.63a6.62,6.62,0,0,1-2-.65s-6.56-7.22-7.21-8.2a6.87,6.87,0,0,0-1.64-1.64l-3.61-2.3a39.12,39.12,0,0,0-3.28-2.62c-.66-.33-2.3-1-2.95-2a40.61,40.61,0,0,0-3-3.93c-.65-.66-1-.66-1-1.64a3.52,3.52,0,0,1,.33-2c.33-.66-.33-1.64-.66-2a8.22,8.22,0,0,0-2.29-.65l-2.3-2.3v-1.64l-2-1C530,729.2,523.31,722.49,517,714.58a249.24,249.24,0,0,1-32.3-52.51c-2.93-6.46-3.14-12.7-5.54-19.23-.06-.17-4.59-12.47-4.92-14.1a4.4,4.4,0,0,1,0-2.29,21.34,21.34,0,0,1-1.31-3.28,29.87,29.87,0,0,1-.33-5.25c0-1.31-.33-2.62-.33-3.61a10,10,0,0,1,.66-2.29c0-.33,0-1.64-.33-2a2,2,0,0,1-1-2.3c.32-1.64.32-3.61,1-3.61s1.64.33,1.64-.32a9.61,9.61,0,0,0-1.31-2.63s-.66-4.26-1-5.9,0-2.95,0-4.92-.32-3.94-.32-4.92v-1.64a3.73,3.73,0,0,0-1.32-2,4.52,4.52,0,0,1-1.64-2.62c-.32-1-1.31-1.64-1.64-3a22.8,22.8,0,0,1-.65-4.92c0-1.64-1-3.61-1-4.27s-1-1.64-1-2.29a6.59,6.59,0,0,1,.33-1.64s-.66-1-1-1.64a.72.72,0,0,1,.33-1,2.76,2.76,0,0,1-1-2.3c0-1.64-.66-3.61-.66-4.59a10.24,10.24,0,0,0-1-2.95c-1-3.12-1-6.72-2-10-1.35-4.57-1.76-9.71-2.16-14.44a118.2,118.2,0,0,1,1-28.25c1.91-12.29,5.21-28.7,14.3-37.86a8.9,8.9,0,0,1,2.3-1.31,13.32,13.32,0,0,1,3.28-3.28c2-1.32,9.51-6.89,10.49-7.88s2.62-2,3.61-2.95,5.25-4.26,5.25-4.26-.33-1.64.65-2.3a23.15,23.15,0,0,1,3.28-1.31c.66-.33,1-.65,1.64-1s2.3.33,2.62,0A5.54,5.54,0,0,1,507.33,435.24Z"/></svg>