<?xml version="1.0" encoding="utf-8"?>
<!-- Generator: Adobe Illustrator 24.1.3, SVG Export Plug-In . SVG Version: 6.00 Build 0)  -->
<svg version="1.1" id="圖層_1" xmlns="http://www.w3.org/2000/svg" xmlns:xlink="http://www.w3.org/1999/xlink" x="0px" y="0px"
	 viewBox="0 0 1200 1200" style="enable-background:new 0 0 1200 1200;" xml:space="preserve">
<style type="text/css">
	.st0{fill-rule:evenodd;clip-rule:evenodd;}
</style>
<g>
	<path d="M541.75,489.4c6.98-3.34,68.26-15.17,68.26-15.17s41.26,8.19,43.69,8.8c2.43,0.61,6.98,4.85,9.71,7.28
		c2.73,2.43,57.68,52.33,58.89,53.85c1.21,1.52,2.69,9.55,3.6,15.93c0.91,6.37-4.25,28.52-4.25,37.62s0.3,47.63-3.03,54.3
		s-7.58,11.83-12.13,15.47c-4.55,3.64-39.13,36.71-39.13,37.31c0,0.61-34.28,18.51-41.26,20.63c-6.98,2.12-30.94-6.07-39.13-6.67
		c-8.19-0.61-53.83-10.76-64.14-18.04c-10.31-7.28-25.64-36.05-31.71-40.29c-6.07-4.25-6.08-6.59-8.21-10.23
		c-2.12-3.64-6.37-23.06-8.19-30.64c-1.82-7.58,0.22-53.4,2.53-59.53c4.93-13.1,34.97-42.6,38.31-46.24
		C518.88,510.13,541.75,489.4,541.75,489.4z"/>
</g>
</svg>
