<?xml version="1.0" encoding="utf-8"?>
<!-- Generator: Adobe Illustrator 24.1.3, SVG Export Plug-In . SVG Version: 6.00 Build 0)  -->
<svg version="1.1" id="圖層_1" xmlns="http://www.w3.org/2000/svg" xmlns:xlink="http://www.w3.org/1999/xlink" x="0px" y="0px"
	 viewBox="0 0 1200 1200" style="enable-background:new 0 0 1200 1200;" xml:space="preserve">
<style type="text/css">
	.st0{fill-rule:evenodd;clip-rule:evenodd;}
</style>
<g>
	<path d="M520.54,517.23c0,0,4.5,0.35,6.23-1.04s14.88-12.8,18.68-15.57c3.81-2.77,21.1-6.23,21.1-6.23s28.71-12.8,34.59-13.84
		c5.88-1.04,18.33,0.35,20.41-0.35s13.84-1.04,17.99,1.38c4.15,2.42,11.76,2.42,15.91,4.84c4.15,2.42,10.72,13.15,13.84,13.49
		c3.11,0.35,7.26,2.08,9.34,3.81c2.08,1.73,4.5,3.81,4.5,3.81s5.53,2.42,8.65,6.92c3.11,4.5,11.76,23.18,12.8,25.95
		c1.04,2.77,1.04,6.57,1.04,6.57s7.61,8.99,8.65,15.57c1.04,6.57,2.42,27.67,2.77,33.56c0.35,5.88,2.42,18.68,1.73,25.25
		c-0.69,6.57-10.38,29.4-14.18,34.59c-3.81,5.19-4.15,14.88-7.61,19.37s-3.46,4.5-3.46,4.5s-11.76,11.76-14.88,13.84
		c-3.11,2.08-19.72,7.96-22.83,10.03c-3.11,2.08-4.15,2.08-4.15,2.08s-16.95,6.23-21.45,6.57c-4.5,0.35-15.57,14.88-49.47,3.81
		c-33.9-11.07-39.78-14.88-42.9-16.26s-9.69-6.23-13.84-9.69c-4.15-3.46-8.99-6.23-11.76-10.38c-2.77-4.15-3.81-4.15-7.61-8.65
		c-3.81-4.5-7.61-11.42-9.34-13.84c-1.73-2.42-7.96-10.72-10.38-18.68c-2.42-7.96-3.81-19.37-3.81-24.56s1.04-7.96,2.08-10.72
		c1.04-2.77,0-4.5,1.73-5.88c1.73-1.38,4.5-2.77,4.84-5.53c0.35-2.77-1.38-6.23-0.69-8.3c0.69-2.08,0.69-3.81,2.77-10.03
		c2.08-6.23,6.92-14.88,10.38-19.72C505.66,549.06,495.63,540.75,520.54,517.23z"/>
</g>
</svg>
