<?xml version="1.0" encoding="utf-8"?>
<!-- Generator: Adobe Illustrator 24.1.3, SVG Export Plug-In . SVG Version: 6.00 Build 0)  -->
<svg version="1.1" id="圖層_1" xmlns="http://www.w3.org/2000/svg" xmlns:xlink="http://www.w3.org/1999/xlink" x="0px" y="0px"
	 viewBox="0 0 1200 1200" style="enable-background:new 0 0 1200 1200;" xml:space="preserve">
<style type="text/css">
	.st0{fill-rule:evenodd;clip-rule:evenodd;}
</style>
<g>
	<path d="M496.25,496.87c4.44-4.7,12.79-8.35,14.36-10.44c1.57-2.09,7.83-6.53,9.92-7.57c2.09-1.04,9.66-4.7,12.79-6.79
		c3.13-2.09,16.7-5.74,16.7-5.74s16.7-6,18.27-6.26c1.57-0.26,12.01-1.83,12.01-1.83s15.66-0.78,18.01-0.78
		c2.35,0,24.01,4.18,27.93,4.96c3.92,0.78,8.35,0.52,10.18,0.52s1.83,1.83,3.13,2.09c1.31,0.26,6.53,0,8.87,0.78
		c2.35,0.78,14.09,7.05,21.4,10.44c7.31,3.39,15.66,8.61,17.75,10.96s2.09,2.35,2.09,2.35s3.13,5.22,6.53,7.31
		c3.39,2.09,10.44,9.66,10.96,12.27c0.52,2.61-0.78,9.4,1.3,9.66c2.09,0.26,3.39-1.83,4.96-1.04c1.57,0.78,9.66,8.35,12.53,10.96
		s3.39,4.96,3.13,6s-2.61,2.61-1.3,4.44c1.3,1.83,4.96,3.92,5.48,6.26c0.52,2.35,0.52,8.09,1.83,11.22
		c1.31,3.13,3.92,3.65,4.44,5.74c0.52,2.09,2.61,6,2.87,8.09s2.09,7.31,3.65,12.53c1.57,5.22,0,9.92,0.52,12.53
		c0.52,2.61,2.35,4.96,1.57,7.83s-2.87,4.44-2.61,7.05c0.26,2.61,3.39,2.61,3.13,7.05c-0.26,4.44-0.52,17.49-1.31,22.19
		s-2.61,6.53-3.39,8.35s-1.31,5.48-3.13,8.61s-2.09,6.79-3.39,10.18c-1.31,3.39-2.61,3.13-3.39,4.44c-0.78,1.31-1.04,4.44-3.39,5.22
		c-2.35,0.78-3.39-2.09-4.44,0s-3.13,9.14-4.44,11.75c-1.3,2.61-11.48,12.27-15.14,16.18s-11.75,14.09-17.49,16.7
		s-7.83,2.61-9.4,3.65s-1.04,4.44-4.44,2.87c-3.39-1.57-5.22-3.13-7.83-2.09s-3.39,2.61-5.48,3.39s-5.22-1.04-6.79,0.78
		s-5.74,2.87-7.57,2.87s-18.79,2.61-29.75,4.44c-10.96,1.83-15.4,1.04-19.31,1.3s-7.05,3.65-10.96,4.18
		c-3.92,0.52-17.49-1.83-22.71-3.65c-5.22-1.83-9.66-3.92-11.22-2.87c-1.57,1.04-3.92,1.04-6,0.52c-2.09-0.52-19.84-4.96-22.19-6.53
		c-2.35-1.57-2.35-4.7-4.18-4.44c-1.83,0.26-2.61,1.83-2.87,0.52c-0.26-1.3-1.04-2.87-2.09-2.35c-1.04,0.52-3.65,0-4.96-1.57
		c-1.3-1.57-3.92-6.53-6.79-7.31c-2.87-0.78-3.92-1.3-5.22-3.39s-1.57-1.04-3.13-2.61c-1.57-1.57-2.87-3.65-4.44-5.22
		c-1.57-1.57-4.44-4.44-6.26-4.44s-3.39-3.13-4.18-4.96s-5.22-1.83-7.31-3.65c-2.09-1.83-6.53-6-8.35-10.96s-2.87-8.61-2.61-12.01
		c0.26-3.39,0-6.53,0-6.53s-2.87-4.18-3.13-6.26c-0.26-2.09,1.3-4.7,0.26-6.26c-1.04-1.57-1.3-3.13-0.26-4.7
		c1.04-1.57,2.61-2.61,1.3-4.7c-1.3-2.09-2.61-2.35-4.18-3.39c-1.57-1.04-2.87-3.65-2.87-7.31s0-7.05,0.78-8.35
		c0.78-1.3,2.35-2.87,2.09-4.44c-0.26-1.57-1.04-3.13-2.09-3.13s-2.35-3.13-1.31-5.48c1.04-2.35,2.61-5.74,1.31-7.57
		c-1.31-1.83-3.92-1.57-3.65-3.39c0.26-1.83,2.61-4.96,3.65-3.39c1.04,1.57,3.92,4.96,4.18,3.13c0.26-1.83-0.78-5.74-2.61-7.05
		c-1.83-1.3-3.65-2.35-3.65-2.35s-0.52-4.44,0.26-6.79c0.78-2.35,4.7-5.22,5.22-7.31c0.52-2.09,0-4.18-0.78-4.96
		c-0.78-0.78-1.31-2.09-0.52-3.13c0.78-1.04,4.7-3.13,4.96-4.7c0.26-1.57-0.26-6.26-0.52-8.35c-0.26-2.09,2.35-3.65,2.61-6
		c0.26-2.35-0.78-4.96,1.3-7.31c2.09-2.35,3.39,0.78,4.44-1.31c1.04-2.09,1.57-4.96,1.04-7.05c-0.52-2.09-2.09-1.31,0.78-4.44
		c2.87-3.13,6.26-7.83,10.18-12.53s7.05-8.61,8.87-9.92C492.6,501.3,496.25,496.87,496.25,496.87z"/>
</g>
</svg>
