<?xml version="1.0" encoding="utf-8"?>
<!-- Generator: Adobe Illustrator 24.1.3, SVG Export Plug-In . SVG Version: 6.00 Build 0)  -->
<svg version="1.1" id="圖層_1" xmlns="http://www.w3.org/2000/svg" xmlns:xlink="http://www.w3.org/1999/xlink" x="0px" y="0px"
	 viewBox="0 0 1200 1200" style="enable-background:new 0 0 1200 1200;" xml:space="preserve">
<style type="text/css">
	.st0{fill-rule:evenodd;clip-rule:evenodd;}
</style>
<g>
	<path d="M532.77,513.76c14.7-12.41,51.2-29.54,64.2-30.33s45.69,7.88,53.17,9.06c7.48,1.18,19.69,0.79,26.39,5.12
		c6.7,4.33,23.63,24.81,31.51,31.12s24.03,26,27.57,37.42s1.58,21.27,1.97,27.97c0.39,6.7-3.15,39.78-5.12,50.42
		c-1.97,10.63-12.21,22.85-8.67,31.9c3.54,9.06-4.33,22.06-11.03,24.42c-6.7,2.36-43.33,18.51-61.45,15.36
		c-18.12-3.15-37.81-3.94-47.66-5.91c-9.85-1.97-12.6-6.7-26-11.03c-13.39-4.33-26.78-6.3-34.66-5.12c-7.88,1.18-13,3.94-19.3,3.54
		s-11.03-2.36-15.76-4.73s-21.27-28.36-30.72-35.45c-9.45-7.09-16.94-18.12-14.57-33.48c2.36-15.36,6.7-37.02,15.76-47.27
		c9.06-10.24,16.15-16.54,19.69-23.24C501.65,546.85,515.04,528.73,532.77,513.76z"/>
</g>
</svg>
