<?xml version="1.0" encoding="utf-8"?>
<!-- Generator: Adobe Illustrator 24.1.3, SVG Export Plug-In . SVG Version: 6.00 Build 0)  -->
<svg version="1.1" id="圖層_1" xmlns="http://www.w3.org/2000/svg" xmlns:xlink="http://www.w3.org/1999/xlink" x="0px" y="0px"
	 viewBox="0 0 1200 1200" style="enable-background:new 0 0 1200 1200;" xml:space="preserve">
<style type="text/css">
	.st0{fill-rule:evenodd;clip-rule:evenodd;}
</style>
<g>
	<path d="M559.68,540.51c4.13-1.89,10.01-7.06,16.09-7.55c6.07-0.49,15.27,0.49,21.67,1.31c6.4,0.82,25.61,1.64,32.99,6.4
		c7.39,4.76,15.27,4.6,19.86,9.85c4.6,5.25,7.06,20.68,10.34,24.29s8.7,10.34,8.86,15.76c0.16,5.42-0.82,15.1-2.95,18.55
		c-2.13,3.45-3.45,3.78-3.28,7.06c0.16,3.28,1.48,9.68-1.81,15.43c-3.28,5.75-5.25,14.94-11.65,18.06
		c-6.4,3.12-13.95,12.64-25.77,14.61c-11.82,1.97-11.16,4.92-19.7,0.82c-8.54-4.1-15.76-6.73-22.32-6.73s-11.82,0.49-16.42-7.88
		c-4.6-8.37-8.54-9.19-15.76-14.94c-7.22-5.75-11.6-11-11.98-20.85c-0.16-4.27-2.3-7.72-4.76-12.97
		c-2.46-5.25-4.43-14.12,0.16-21.83s6.07-10.01,6.24-17.56C539.66,554.8,544.58,547.41,559.68,540.51z"/>
</g>
</svg>
