<?xml version="1.0" encoding="utf-8"?>
<!-- Generator: Adobe Illustrator 24.1.3, SVG Export Plug-In . SVG Version: 6.00 Build 0)  -->
<svg version="1.1" id="圖層_1" xmlns="http://www.w3.org/2000/svg" xmlns:xlink="http://www.w3.org/1999/xlink" x="0px" y="0px"
	 viewBox="0 0 1200 1200" style="enable-background:new 0 0 1200 1200;" xml:space="preserve">
<style type="text/css">
	.st0{fill-rule:evenodd;clip-rule:evenodd;}
</style>
<g>
	<path d="M671.52,474.06c9.78,2.53,15.54,11.18,21.95,15.38c6.41,4.2,9.62,10.99,12.89,14.33c3.27,3.34,9.21,12.91,16.17,17.67
		c6.95,4.76,7.09,7.24,8.33,10.84c1.23,3.6,1.86,10.08,4.93,14.39c3.07,4.3,10.38,19.96,12.51,25.63
		c2.12,5.67-2.63,12.52-0.31,17.23c2.32,4.71,6.71,18.54,6.44,22.95s-2.69,15.97-3.16,21.34c-0.47,5.37-5.14,18.15-7.45,22.81
		s-4.67,12.78-6.43,18c-1.76,5.22-10.4,11.62-15.15,18.46c-4.75,6.85-9.79,8.73-17.33,16.24c-7.54,7.51-18.02,13.2-27.95,19.44
		c-9.93,6.24-47.09,12.77-56.21,15.16c-9.12,2.39-8.17,1.02-20.56,0.07c-12.39-0.95-16.41-3.89-18.8-5.15
		c-2.39-1.26-8.17,1.02-14.98-1.25c-6.81-2.27-11.58-4.8-19.08-10.12s-13.97-6.07-21.12-9.86c-7.16-3.79-9.2-3.54-19.22-12.6
		c-10.02-9.06-19.71-16.6-22.57-21.87c-2.87-5.27-13.78-16.41-17.14-25.68c-3.35-9.27-7.19-22.55-10.81-27.41
		c-3.62-4.86-9.36-15.4-8.89-20.77c0.47-5.37-2.48-16.57-1.95-25.39c0.53-8.82,1.18-24.53,3.69-30.16
		c2.51-5.63,9.97-19.07,15.68-27.28c5.7-8.22,7.26-12.47,16.44-18.31c9.18-5.84,13.26-6.35,16.66-9.9s6.51-12.07,15.69-17.91
		c9.18-5.84,7.14-5.58,18.16-10.71s14.96-8.12,25.72-8.84c10.76-0.72,20.48-6,28.45-6.06c7.97-0.06,19.2,3.22,28.12,1.8
		c8.92-1.43,9.66-1.83,17.02,1C638.61,460.36,657.7,470.48,671.52,474.06z"/>
</g>
</svg>
