<?xml version="1.0" encoding="utf-8"?>
<!-- Generator: Adobe Illustrator 24.1.3, SVG Export Plug-In . SVG Version: 6.00 Build 0)  -->
<svg version="1.1" id="圖層_1" xmlns="http://www.w3.org/2000/svg" xmlns:xlink="http://www.w3.org/1999/xlink" x="0px" y="0px"
	 viewBox="0 0 1200 1200" style="enable-background:new 0 0 1200 1200;" xml:space="preserve">
<style type="text/css">
	.st0{fill-rule:evenodd;clip-rule:evenodd;}
</style>
<g>
	<path d="M610.03,516.56c5.62,0.77,16.04,0.59,22.57,3.86c6.53,3.27,19.9,8.32,27.32,14.85c7.43,6.53,23.17,32.37,25.54,35.94
		c2.38,3.56,0.3,26.43,0.59,29.11c0.3,2.67-2.67,29.11-8.32,36.53c-5.64,7.43-26.43,28.22-32.08,32.08s-11.88,7.43-20.79,9.21
		c-8.91,1.78-35.05,3.56-37.72,4.16c-2.67,0.59-1.48,2.38-10.4,1.19c-8.91-1.19-28.51-10.99-34.45-14.26s-20.2-31.78-24.06-45.44
		s-5.35-25.84-4.75-30.59c0.59-4.75,19.6-44.55,34.16-54.35c14.55-9.8,34.75-20.2,40.69-21.38
		C594.29,516.26,603.5,515.66,610.03,516.56z"/>
</g>
</svg>
