<?xml version="1.0" encoding="utf-8"?>
<!-- Generator: Adobe Illustrator 24.1.3, SVG Export Plug-In . SVG Version: 6.00 Build 0)  -->
<svg version="1.1" id="圖層_1" xmlns="http://www.w3.org/2000/svg" xmlns:xlink="http://www.w3.org/1999/xlink" x="0px" y="0px"
	 viewBox="0 0 1200 1200" style="enable-background:new 0 0 1200 1200;" xml:space="preserve">
<style type="text/css">
	.st0{fill-rule:evenodd;clip-rule:evenodd;}
</style>
<g>
	<path d="M558.78,468.39c0,0,2.28-6.32,11.59-8.61c9.31-2.28,22.66-1.76,26.17,3.16c0,0,1.76-2.81,7.55-3.69
		c5.8-0.88,25.12-0.7,29.68,3.51c4.57,4.22,4.92,5.8,4.92,5.8s4.92-3.86,12.29-2.11c7.38,1.76,21.78,8.08,23.71,11.77
		c1.93,3.69,3.16,8.26,3.16,8.26s8.96-1.76,15.28,1.41c6.32,3.16,15.11,14.4,16.86,20.02c1.76,5.62,0.88,8.43,0.88,8.43
		s4.74-0.53,9.13,4.74c4.39,5.27,13.17,22.66,13.17,27.05s-0.35,5.27-0.7,6.15c-0.35,0.88-3.34,6.67-3.34,6.67s6.67-0.88,10.54,8.43
		c3.86,9.31,5.09,20.02,4.57,23.36s-1.76,5.97-2.81,7.38c-1.05,1.41-3.86,2.46-3.86,2.46s2.11,2.81,2.81,7.03
		c0.7,4.22,4.04,4.39,4.22,5.97c0.18,1.58-0.18,14.05-7.38,20.9c-7.2,6.85-8.26,9.13-12.47,9.13c0,0,4.57,4.22,4.22,11.77
		c-0.35,7.55-3.16,16.33-8.26,21.6c-5.09,5.27-11.07,8.78-13.35,8.78s-4.39-0.35-4.39-0.35s1.76,4.22-0.53,8.43
		c-2.28,4.22-8.96,10.01-13,12.65c-4.04,2.63-7.55,4.57-9.84,4.22s-5.62-1.76-5.62-1.76s0.53,4.74-1.58,7.38s-10.19,8.61-12.12,9.48
		c-1.93,0.88-5.44,3.34-11.42,6.15c-5.97,2.81-13.35,1.23-15.63-0.35c-2.28-1.58-1.93-1.76-3.51,1.05s-2.99,4.74-8.78,5.97
		c-5.8,1.23-14.05-0.88-15.98-1.76c-1.93-0.88-4.57-4.74-4.57-4.74s-0.35,2.28-2.11,3.51c-1.76,1.23-11.59,3.34-13.52,3.69
		c-1.93,0.35-14.93,0.35-18.79-1.58c-3.86-1.93-3.86-1.93-3.86-1.93l-4.22-8.61c0,0-0.53,2.99-5.62,2.99s-12.12-1.41-17.04-4.22
		s-11.24-2.46-14.4-8.08c-3.16-5.62-3.34-9.13-3.34-9.13s-4.92,2.28-11.59-1.41c-6.67-3.69-14.05-10.19-15.63-14.75
		c-1.58-4.57-1.41-8.61-1.41-8.61s-4.92,1.23-10.71-4.74c-5.8-5.97-8.78-13.88-9.31-16.33c-0.53-2.46-0.18-5.8-1.41-7.9
		c-1.23-2.11-2.46-5.44-1.05-7.55c1.41-2.11,1.93-5.62,1.93-5.62s-7.9-4.04-9.31-11.07c-1.41-7.03-2.28-14.05-1.58-18.09
		c0.7-4.04,1.58-7.38,6.15-10.36c0,0-4.04-1.41-6.15-9.13c-2.11-7.73-3.51-11.94,0.35-20.9s9.31-12.12,14.75-13.35
		c0,0-4.39-2.11-3.16-12.47c1.23-10.36,8.08-18.97,11.94-21.43c3.86-2.46,7.03-2.63,7.03-2.63s-2.99-7.03,0.35-12.65
		c3.34-5.62,8.08-10.54,12.29-12.65c4.22-2.11,13-4.22,15.63-3.51c2.63,0.7,4.92,1.05,4.92,1.05s-0.7-4.57-0.18-5.97
		c0.53-1.41,1.41-0.35,1.41-0.35s-1.23-1.05,2.99-5.44c4.22-4.39,12.47-8.78,18.79-8.43c6.32,0.35,9.66,1.93,9.66,1.93
		S553.69,473.13,558.78,468.39z"/>
</g>
</svg>
