<?xml version="1.0" encoding="utf-8"?>
<!-- Generator: Adobe Illustrator 24.1.3, SVG Export Plug-In . SVG Version: 6.00 Build 0)  -->
<svg version="1.1" id="圖層_1" xmlns="http://www.w3.org/2000/svg" xmlns:xlink="http://www.w3.org/1999/xlink" x="0px" y="0px"
	 viewBox="0 0 1200 1200" style="enable-background:new 0 0 1200 1200;" xml:space="preserve">
<style type="text/css">
	.st0{fill-rule:evenodd;clip-rule:evenodd;}
</style>
<g>
	<path d="M577.8,533.46c1.59-0.29,3.38,1.89,5.27,1.69c1.89-0.2,8.44-0.89,8.64-1.19c0.2-0.3,4.17-3.77,6.26-4.17
		c2.09-0.4,3.38,1.89,4.27,2.48c0.89,0.6,4.07,1.59,5.36,1.59c1.29,0,5.07,0.3,5.07,0.3s2.58-2.38,4.87-1.99
		c2.28,0.4,3.87,1.69,4.47,2.88c0.6,1.19,1.09,2.38,1.59,2.68c0.5,0.3,7.55,3.58,8.84,3.38c1.29-0.2,3.48-1.19,5.07-0.1
		s2.58,3.38,2.88,4.37s0.6,2.09,0.6,2.09s4.67,4.17,5.96,5.36c1.29,1.19,3.77,0,5.07,0.6c1.29,0.6,2.38,0.79,2.58,3.18
		s0.3,5.76,0.79,6.26s2.68,4.77,3.28,5.56c0.6,0.79,5.07,0.99,5.96,3.18c0.89,2.19,0.4,3.87,0,5.76c-0.4,1.89-1.09,2.68-0.6,3.68
		c0.5,0.99,1.49,5.56,1.59,6.36c0.1,0.79,4.37,2.68,4.37,5.17c0,2.48-1.49,3.97-1.99,5.36c-0.5,1.39-1.29,5.96-1.19,7.15
		c0.1,1.19-0.4,2.48,0,2.98c0.4,0.5,2.19,2.88,1.99,4.87s-1.79,3.18-2.68,4.17c-0.89,0.99-1.79,1.89-2.58,4.17
		c-0.79,2.28-2.38,5.36-2.28,6.26c0.1,0.89,1.89,3.18,0.5,5.17c-1.39,1.99-3.38,3.28-4.37,3.87c-0.99,0.6-3.38,2.58-4.67,4.37
		c-1.29,1.79-2.58,3.87-2.68,5.17s0,3.18-2.09,4.37c-2.09,1.19-3.97,1.29-4.97,1.99c-0.99,0.7-4.87,2.78-5.76,3.68
		c-0.89,0.89-2.98,3.18-3.87,4.67c-0.89,1.49-2.19,2.48-4.87,2.38s-4.87,0.4-6.46,0.89c-1.59,0.5-5.66,1.99-6.46,2.48
		c-0.79,0.5-1.39,2.28-3.68,2.58c-2.28,0.3-4.57-0.5-5.86-0.79c-1.29-0.3-5.66-0.1-7.45-0.1s-4.07,1.39-5.66,1.79
		c-1.59,0.4-2.48,0.2-3.77-0.3c-1.29-0.5-4.57-3.28-5.86-3.38c-1.29-0.1-6.66-1.99-7.65-1.79c-0.99,0.2-1.29,0.5-2.28,0.4
		c-0.99-0.1-3.08-0.99-3.87-1.39c-0.79-0.4-2.58-2.68-3.38-3.38s-4.77-4.27-6.06-4.57c-1.29-0.3-4.37-1.29-5.46-1.79
		c-1.09-0.5-2.78-2.58-3.28-3.87s-0.7-3.28-0.7-3.28s-2.98-3.77-4.77-5.17c-1.79-1.39-5.76-3.58-6.26-5.07s0-4.17-0.2-4.87
		s-1.89-5.66-2.48-6.56c-0.6-0.89-4.37-4.97-4.57-7.65c-0.2-2.68,0.79-3.97,0.7-5.27c-0.1-1.29-0.1-8.05-0.5-8.74
		c-0.4-0.7-2.48-2.68-2.48-4.47c0-1.79,0.2-3.18,0.6-4.27c0.4-1.09,1.99-2.19,2.28-3.18s1.59-5.56,1.49-7.35
		c-0.1-1.79-0.79-3.97-0.7-5.46c0.1-1.49,0.4-2.68,1.29-3.87c0.89-1.19,2.98-2.09,3.77-3.08c0.79-0.99,3.38-5.17,3.87-6.56
		c0.5-1.39,0-4.27,0.3-5.46c0.3-1.19,1.49-1.69,2.38-2.68c0.89-0.99,3.38-0.99,4.57-1.79s5.86-5.46,6.16-6.06
		c0.3-0.6,0.6-3.58,1.39-4.57s2.68-1.99,3.38-2.19s4.67,0.3,5.46-0.1c0.79-0.4,6.26-3.08,6.95-3.68c0.7-0.6,1.69-3.68,2.19-4.17
		S576.7,533.66,577.8,533.46z"/>
</g>
</svg>
