<svg id="圖層_1" data-name="圖層 1" xmlns="http://www.w3.org/2000/svg" viewBox="0 0 1200 1200"><path d="M509.09,511.08c2.57-3.43,11.14-11.14,17.13-14.57s30-14.56,32.57-15.42,7.71-3.43,9.42-3.43,3.43,1.72,3.43,1.72a35,35,0,0,0,6-1.72c1.71-.85,2.57-1.71,4.28-2.57s5.57-1.28,7.28-1.28h7.71c2.58,0,8.57,1.71,9.43.85a5,5,0,0,1,4.28-1.71c2.57,0,11.14,2.57,14.57,2.57h3.43S635.47,479,638,479s35.13,11.14,40.28,12.85,13.7,6.86,16.28,10.28,8.56,10.28,10.28,13.71a20.15,20.15,0,0,1,1.71,9.43c0,2.57-2.57,5.14-2.57,5.14a2.63,2.63,0,0,1,1.71.86c.86.85,5.15,1.71,6,1.71s3.43,3.43,5.14,4.28,5.14,4.29,6.86,8.57,5.14,11.14,6,12.85,3.42,10.29,2.57,17.14-2.57,11.14-3.43,12-.86,3.42-.86,3.42a33.83,33.83,0,0,0,1.72,5.15c.85,1.71.85,8.56-1.72,15.42s-3.42,22.28-5.14,29.13-5.14,16.28-6.85,18.85-1.72,5.14-2.57,7.71l-.86,2.57S671.46,714.58,662,718s-12.86,5.14-18,6-20.56,4.28-24,2.57A22.76,22.76,0,0,0,609.77,724c-3.43,0-23.14-.86-28.28-3.43s-18.85-8.57-22.28-9.43-6.85-4.28-9.42-5.14-16.28-7.71-21.42-9.42-11.14-5.14-12.86-8.57-4.28-12-4.28-13.71-.86-1.71-2.57-2.57-6,0-8.57-1.72-11.14-6.85-13.71-10.28a61,61,0,0,1-6.85-12.85c-1.72-4.28-.86-6-2.57-7.71s-4.29-2.57-5.14-4.29,0-4.28,0-4.28l-1.72-5.14-.86-2.57a12.56,12.56,0,0,1-.85-5.14v-7.71c0-1.72-.86-3.43-.86-6.86s1.71-22.28,3.43-24,1.71-3.43,2.57-5.14.86-4.29,1.71-7.71,0-5.14.86-7.72,2.57-3.42,3.43-5.14-.86-5.14.85-7.71,4.29-4.28,5.14-6,1.72-1.71,3.43-5.14,2.57-8.57,4.29-9.42a6.59,6.59,0,0,1,2.57-.86,6.55,6.55,0,0,0,1.71-4.28c0-2.57,2.57-3.43,3.43-4.29s1.71,0,3.43-.85A28,28,0,0,0,509.09,511.08Z"/></svg>