<?xml version="1.0" encoding="utf-8"?>
<!-- Generator: Adobe Illustrator 24.1.3, SVG Export Plug-In . SVG Version: 6.00 Build 0)  -->
<svg version="1.1" id="圖層_1" xmlns="http://www.w3.org/2000/svg" xmlns:xlink="http://www.w3.org/1999/xlink" x="0px" y="0px"
	 viewBox="0 0 1200 1200" style="enable-background:new 0 0 1200 1200;" xml:space="preserve">
<style type="text/css">
	.st0{fill-rule:evenodd;clip-rule:evenodd;}
</style>
<g>
	<path d="M517.86,523.88c0.46-2.74,8.77-4.25,10.63-3.99c1.86,0.27,10.1-0.53,10.1-0.53s4.25-1.33,5.85-1.06
		c1.59,0.27,6.11,1.33,7.71,1.86s8.24,0.8,8.24,0.8s0.8-1.33,2.39-0.53c1.59,0.8,9.83,1.33,10.37,1.33s6.91-1.33,8.77-1.06
		c1.86,0.27,9.83,1.86,11.16,0.8c1.33-1.06,6.91-4.25,9.04-3.72c2.13,0.53,2.92,1.59,4.52,0.53s3.46-1.86,4.78-1.06
		c1.33,0.8,5.05,2.39,5.05,2.39s19.67,1.59,22.59,0.53c2.92-1.06,4.52-3.99,6.38-2.92c0,0,4.25,2.13,5.85,1.59s7.18-0.53,9.83-0.27
		c2.66,0.27,9.57,1.59,9.57,1.59s8.77,1.06,9.57,1.06c0.8,0,2.39,6.38,2.39,10.1s4.52,31.1,3.99,38.27s0.8,13.02,0.53,19.14
		c-0.27,6.11-3.99,36.15-3.19,40.4c0.8,4.25,1.86,12.23,1.59,13.82c-0.27,1.59-2.13,7.71-2.13,7.71s2.66,3.99,2.13,6.64
		s-2.39,7.18-2.39,9.57c0,2.39-2.13,11.96-2.13,11.96s-9.83,1.06-13.82,1.86c-3.99,0.8-13.02,0-19.4-0.53
		c-6.38-0.53-21.26-2.39-27.38-1.86s-6.91,0.53-6.91,0.53s-5.58,2.39-9.3,2.39c-3.72,0-10.63-1.33-16.74-1.06
		c-6.11,0.27-12.49,1.59-17.01,0.8c-4.52-0.8-8.77-1.59-10.37-1.33c-1.59,0.27-3.19,3.72-8.77,3.46
		c-5.58-0.27-11.16-0.53-14.09-1.06c-2.92-0.53-10.19-0.6-13.02-1.86c-2.39-1.06-1.86-4.25-2.39-5.85s-2.39-6.38-2.13-10.63
		c0.27-4.25-1.59-9.04-1.59-13.29c0-4.25,1.33-29.5,0.8-31.63s-2.13-4.78-2.92-16.48c-0.8-11.69,0-37.47-0.53-41.2
		s-2.66-16.74-2.66-21.26c0-4.52,0.53-10.63,1.06-11.96C514.4,526.53,517.33,527.07,517.86,523.88z"/>
</g>
</svg>
