<?xml version="1.0" encoding="utf-8"?>
<!-- Generator: Adobe Illustrator 24.1.3, SVG Export Plug-In . SVG Version: 6.00 Build 0)  -->
<svg version="1.1" id="圖層_1" xmlns="http://www.w3.org/2000/svg" xmlns:xlink="http://www.w3.org/1999/xlink" x="0px" y="0px"
	 viewBox="0 0 1200 1200" style="enable-background:new 0 0 1200 1200;" xml:space="preserve">
<style type="text/css">
	.st0{fill-rule:evenodd;clip-rule:evenodd;}
</style>
<g>
	<path d="M429.28,443.05c4.19,0,16.93-2.46,20.62-3.69c3.69-1.23,18.46-3.69,21.54-2.77c3.08,0.92,4.31,1.23,4.31,1.23
		s21.85-7.39,27.39-7.69s16.31,2.46,19.39,1.23s12.93,1.23,12.93,1.23s26.16-0.31,29.85-2.46s6.77-5.23,10.77-5.54
		c4-0.31,11.39,1.54,13.54,0.31c2.15-1.23,12-3.08,16.31-4.31c4.31-1.23,14.16-2.15,15.08,0c0.92,2.15,2.46,1.85,9.54,0.62
		c7.08-1.23,22.16-2.15,25.54-0.31c3.39,1.85,7.39,2.46,8,3.69s3.08,3.39,5.23,2.77c2.15-0.62,5.23-1.23,6.46-2.46
		s4.31-2.46,8.62-2.77c4.31-0.31,20-2.15,23.08-2.15s1.85,2.15,1.85,2.15s7.39-0.31,11.39-0.31c4,0,2.77,2.46,2.77,2.46
		s7.39,2.46,10.77,2.46c3.39,0,4.62-0.92,5.23,1.54c0.62,2.46,0.31,10.46,1.54,15.08c1.23,4.62,1.54,13.85,2.15,23.7
		s-2.77,31.39-0.31,38.47c2.46,7.08,2.46,7.08,2.46,7.08s3.39,32.31,5.23,39.08c1.85,6.77,6.15,42.16,8.31,48.62
		c2.15,6.46,7.08,52.01,9.23,64.32c2.15,12.31,6.15,42.78,6.46,50.78c0.31,8,1.23,18.77,1.23,18.77s2.15-1.85,3.08,2.15
		c0.92,4,0.31,12.93-0.31,14.77c-0.62,1.85-3.08,4.62-4,4.92s-4-1.54-6.15,0.62s-2.77,4.31-2.77,4.31s-9.85,2.15-12,1.54
		s-5.54-3.08-7.08-1.54c-1.54,1.54-4,12.62-5.23,14.77s-2.15,5.54-4.31,4.92s-6.15-2.77-8-2.77s-5.54-1.54-7.08-2.15
		s-6.15-1.85-7.08-1.85s-11.39,2.46-16,1.54c-4.62-0.92-52.32-4.62-58.16-3.69c-5.85,0.92-13.54,1.23-13.54,1.23
		s2.46,2.15-3.39,3.08s-21.54-0.62-21.54-0.62s-0.31,0.92-7.39,1.85c-7.08,0.92-34.47-0.31-34.47-0.31s0.92,2.15-1.85,2.77
		c-2.77,0.62-25.23-3.69-28.93-3.39c-3.69,0.31-17.54-3.39-20.31-3.08c-2.77,0.31-8,2.46-9.85,2.77c-1.85,0.31-0.92-2.15-0.92-2.15
		s-14.16-2.15-18.77-2.46c-4.62-0.31-12.62,0.62-16-0.62c-3.39-1.23-6.46-3.69-6.46-3.69s-6.15,0.31-8,0.31
		c-1.85,0-1.23-1.85-1.23-1.85s-4.92-1.54-8.31-4c-3.39-2.46-6.77-2.77-7.08-7.69c-0.31-4.92,0.62-11.39,0.62-11.39
		s-5.23-1.23-6.77-2.46s-0.62-3.39-0.92-4.31c-0.31-0.92-3.39-5.23-4.62-7.39s2.46-6.15,2.46-10.46c0-4.31,1.54-9.23,3.39-12.62
		c1.85-3.39,7.69-11.69,8.31-13.23c0.62-1.54,5.85-41.54,5.54-46.47s-2.46-21.85-0.92-30.77s2.46-37.24,2.46-42.16
		s-1.54-10.77-1.85-20c-0.31-9.23,2.15-31.08,0.92-35.39s-4.31-5.54-4.92-10.16c-0.62-4.62-0.92-9.85-2.15-13.54
		c-1.23-3.69-2.15-9.85-3.39-14.46c-1.23-4.62-1.23-9.23-2.77-13.85c-1.54-4.62-2.15-7.39-4.31-12.31
		c-2.15-4.92-4.62-5.54-1.85-6.77C424.66,444.89,426.2,443.05,429.28,443.05z"/>
</g>
</svg>
