<?xml version="1.0" encoding="utf-8"?>
<!-- Generator: Adobe Illustrator 24.1.3, SVG Export Plug-In . SVG Version: 6.00 Build 0)  -->
<svg version="1.1" id="圖層_1" xmlns="http://www.w3.org/2000/svg" xmlns:xlink="http://www.w3.org/1999/xlink" x="0px" y="0px"
	 viewBox="0 0 1200 1200" style="enable-background:new 0 0 1200 1200;" xml:space="preserve">
<style type="text/css">
	.st0{fill-rule:evenodd;clip-rule:evenodd;}
</style>
<g>
	<path d="M489.33,460.07c1.22-2.45,7.14-5.3,7.14-5.3s6.12-3.47,6.32-4.08c0,0,2.45-1.63,4.69-1.43c2.24,0.2,4.9,0,6.73-1.02
		c1.84-1.02,6.94-1.63,7.96-0.2c1.02,1.43,3.26,3.88,3.26,3.88s6.53-0.2,8.77,0.2c2.24,0.41,7.75,0.2,10,0.82
		c2.24,0.61,19.59,6.73,22.04,6.53c2.45-0.2,8.57-0.61,10.61,0.2c2.04,0.82,3.06,3.47,3.06,3.47s6.73,0.61,8.57,0.41
		c1.84-0.2,3.88-1.43,6.94-1.43s36.11,6.12,39.79,5.92c3.67-0.2,3.67-0.2,3.67-0.2s5.92-0.2,7.96,0.61
		c2.04,0.82,6.53,2.65,6.53,2.65s3.47-1.84,6.53-1.63c3.06,0.2,5.51,1.63,6.73,2.04c1.22,0.41,2.24,2.04,4.9,0.82
		s4.9-1.22,7.14-1.22s3.26-0.2,5.92-1.63c2.65-1.43,4.28-2.24,4.9-0.41c0.61,1.84,2.45,3.47,2.45,3.47s9.39-0.41,11.83,0.41
		c2.45,0.82,8.37,3.67,9.39,5.1c1.02,1.43,3.06,8.57,4.08,9.79c1.02,1.22,2.04,1.63,1.22,3.26c-0.82,1.63-2.04,8.16-2.04,8.16
		s0.61,4.08,1.02,5.71c0.41,1.63-1.02,6.53-1.22,9.18c-0.2,2.65-1.02,7.35-0.82,10.41c0.2,3.06,1.84,3.88,1.84,6.12s0,5.1-0.41,7.55
		s-0.82,5.3-1.43,6.73c-0.61,1.43-2.04,3.26-2.04,3.26s0.41,2.24-0.82,3.47c0.2,0.82,1.84,0.61,2.65,4.69s2.24,8.16,2.86,8.57
		c0.61,0.41,2.04,1.02,1.43,4.08c-0.61,3.06,1.02,4.69,1.22,6.73c0.2,2.04-0.41,8.16-1.43,9.79c-1.02,1.63-2.45,4.69-2.45,4.69
		s1.63-0.41,2.65-0.2s-0.2,3.47,0.2,5.71c0.41,2.24,3.06,5.71,3.06,8.37s-1.02,4.9-0.82,6.94c0.2,2.04-0.41,9.59-0.41,10.61
		s-2.04,8.37-1.84,9.59c0.2,1.22-1.63,1.43-2.86,2.24s-9.18,4.49-9.18,4.49s7.35-0.82,9.18-0.61c1.84,0.2,4.08-0.41,5.1,2.24
		s1.22,10.41,1.22,10.41s3.06-0.2,3.67,1.63c0.61,1.84,0.61,19.59,1.43,23.06c0.82,3.47,0.82,3.47,0.82,3.47s0,6.12,0.82,8.98
		c0.82,2.86,0.61,6.53,0,9.39c-0.61,2.86-1.02,10.61-1.02,10.61s0.82,8.16,0.61,11.83s0,8.77-1.22,11.63
		c-1.22,2.86-6.32,13.67-11.02,16.93c-4.69,3.26-5.92,4.9-8.98,4.9c-3.06,0-7.14-0.82-10.2,0c-3.06,0.82-7.35,0-13.26-0.2
		c-5.92-0.2-17.75-0.61-18.97-0.82c-1.22-0.2-22.44-3.67-24.69-3.06c-2.24,0.61-5.51,2.24-8.16,2.24s-8.57-0.61-11.02-0.41
		s-8.77-0.41-11.43-0.61s-4.69-1.22-7.14,0.2s-4.28,2.04-6.53,1.43c-2.24-0.61-5.3-0.82-6.94-1.02c-1.63-0.2-5.71-1.02-9.18-0.41
		c-3.47,0.61-13.47,1.63-13.47,1.63s-46.11,0.61-50.8-0.2c-4.69-0.82-18.36-1.02-20.61-1.02c-2.24,0-5.3-1.43-7.96-1.02
		s-5.92,2.04-7.35,0.41c-1.43-1.63-1.43-2.65-2.24-5.51s-2.45-4.69-2.45-7.14c0-2.45-0.41-5.51-1.63-7.96
		c-1.22-2.45-0.61-3.67-2.24-6.53c-1.63-2.86-2.86-3.26-2.24-6.53c0.61-3.26,3.26-13.06,3.67-16.93c0.41-3.88,1.84-15.51,2.24-22.44
		s3.06-12.45,4.69-18.57c1.63-6.12,2.86-10.61,3.67-12.04s2.86-1.22,3.47-1.02s3.47-1.02,3.47-1.02l-6.12-3.67
		c0,0-0.2-4.9-0.41-7.75c-0.2-2.86-1.84-6.12-1.43-10.41c0.41-4.28,2.24-15.3,2.04-18.77c-0.2-3.47-0.61-5.51-0.61-5.51l2.86-2.24
		c0,0-2.04-2.65-4.28-3.88c-2.24-1.22-2.24-1.22-2.24-1.22s-0.61-2.24-0.61-4.9s-1.63-5.1-2.24-8.98c-0.61-3.88,0.2-5.3,0.82-11.22
		c0.61-5.92,1.43-8.16,2.86-10c1.43-1.84,3.67-2.04,5.1-4.08s5.71-6.12,5.71-6.12s-8.57-6.94-10.2-8.57
		c-1.63-1.63-3.88-5.51-4.9-6.94c-1.02-1.43-3.26-2.45-3.06-3.67s1.22-3.26,2.04-5.3c0.82-2.04,0.2-5.51,1.43-8.37
		s2.65-7.96,2.86-12.04c0.2-4.08-1.02-7.35,0.61-10c1.63-2.65,2.45-2.45,2.45-5.71s1.02-8.98,1.84-14.28
		C486.27,464.97,489.33,460.07,489.33,460.07z"/>
</g>
</svg>
