<?xml version="1.0" encoding="utf-8"?>
<!-- Generator: Adobe Illustrator 24.1.3, SVG Export Plug-In . SVG Version: 6.00 Build 0)  -->
<svg version="1.1" id="圖層_1" xmlns="http://www.w3.org/2000/svg" xmlns:xlink="http://www.w3.org/1999/xlink" x="0px" y="0px"
	 viewBox="0 0 1200 1200" style="enable-background:new 0 0 1200 1200;" xml:space="preserve">
<style type="text/css">
	.st0{fill-rule:evenodd;clip-rule:evenodd;}
</style>
<g>
	<path d="M689.87,667.21c-1.15-1.15-2.01-6.04-2.59-8.48s1.73-5.17,1.73-5.17s-0.43-3.88-0.58-7.47c-0.05-1.16-0.24-5.21-0.49-10.18
		c-0.74-0.79-0.5-1.39-0.09-1.79c-0.23-4.74-0.5-10.05-0.71-14.42c-0.25-0.15-0.45-0.28-0.58-0.35c-0.72-0.43-1.29-1.72-1.01-3.02
		c0.13-0.59,0.73-1.02,1.35-1.33c-0.12-2.53-0.2-4.18-0.2-4.28c0-0.43-0.86-2.16-1.29-3.74c-0.43-1.58,1.29-2.88,0.86-4.17
		c-0.43-1.29-0.29-7.04-0.58-9.34c-0.29-2.3-1.29-7.04-1.29-7.04c-3.02-0.14-3.88-2.87-3.59-4.6c0.29-1.72,5.03-0.72,5.03-0.72
		s0.42-2,0.88-4.29c-0.25-0.59-0.47-1.12-0.59-1.46c-0.21-0.57,0.38-0.75,1.03-0.79c0.32-1.64,0.59-3.15,0.69-3.96
		c0.03-0.22,0.05-0.55,0.07-0.94c-0.5-0.7-1.01-1.52-1.07-2.08c-0.12-0.94,0.63-1.39,1.14-1.53c0-0.81,0-1.68,0-2.57
		c-0.3-0.04-0.61-0.21-0.85-0.65c-0.49-0.88,0.29-1.57,0.84-1.91c-0.01-1.43-0.02-2.83-0.02-4.03c-0.47-0.37-0.93-0.87-1.11-1.53
		c-0.24-0.89,0.48-1.51,1.15-1.88c0.15-2.32,1.01-13.22,0.72-15.8c-0.29-2.59,0.86-10.64,0.86-10.64l-7.19-2.3l-11.79-0.86
		c0,0-9.2-2.59-10.92-1.15c-1.72,1.44-5.17-0.86-8.34-0.58c-3.16,0.29-19.26-0.86-19.26-0.86s-25.59-0.29-29.04-0.58
		c-3.45-0.29-50.31-1.44-53.76-1.44c-3.45,0-21.56,0-24.15,0.57c-2.59,0.58-5.17,2.88-7.47,4.6c0,0-3.31,1.58-4.17,1.87
		c-0.86,0.29-2.73,2.44-3.45,3.31c-0.72,0.86-1.15,1.87-1.87,2.87c-0.72,1.01,0.29,2.01,1.44,2.87c1.15,0.86,2.87,3.31,2.87,3.31
		c0.43,1.01,1.44,4.46,1.87,8.34c0.43,3.88,2.59,28.46,2.3,30.76c-0.22,1.78,0.67,7.92,0.95,11.82c0.74,0.34,1.49,0.88,1.49,1.69
		c0,0.85-0.79,1.65-1.52,2.22c-0.1,3,0.24,8.14,0.37,11.01c0.02,0.42,0.02,1.14,0,2.09c0.52,1.38,0.97,3.67,0.57,3.8
		c-0.14,0.05-0.39,0.06-0.67,0.06c-0.08,2.81-0.21,6.22-0.34,9.57c0.53,0.62,0.88,1.39,0.43,2.16c-0.07,0.13-0.15,0.24-0.23,0.34
		c0.35,0.31,0.6,0.72,0.37,1.1c-0.15,0.24-0.44,0.64-0.77,1.05c-0.18,4.2-0.33,7.67-0.38,8.73c-0.07,1.43,0.15,7.66,0.36,14.29
		c1.03,1.04,1.52,1.75,1.08,2.96c-0.24,0.66-0.6,1.23-0.94,1.64c0.16,5.81,0.26,11.16,0.08,13.02c-0.43,4.46-3.45,7.04-2.59,7.33
		c0.86,0.29,10.35,2.3,12.94,2.73c2.59,0.43,26.74,3.45,31.34,3.59s13.8,0.43,15.24,0.29c1.44-0.14,12.36-0.57,13.94-0.43
		c1.58,0.14,3.88,0.43,5.75,1.44c1.87,1.01,9.2-0.14,14.37-0.43c5.17-0.29,10.92-2.44,10.92-2.44s13.08,0.72,14.81,1.29
		c1.73,0.57,14.81-1.72,17.39-1.58c2.59,0.14,8.77-0.58,11.36-1.01c2.59-0.43,10.64-0.72,12.79-0.43
		c2.16,0.29,14.95,2.16,14.95,2.16s-0.29-1.29-0.57-2.44c-0.29-1.15,1.58-4.6,1.87-5.46C692.31,669.08,691.02,668.36,689.87,667.21z
		"/>
</g>
</svg>
