<?xml version="1.0" encoding="utf-8"?>
<!-- Generator: Adobe Illustrator 24.1.3, SVG Export Plug-In . SVG Version: 6.00 Build 0)  -->
<svg version="1.1" id="圖層_1" xmlns="http://www.w3.org/2000/svg" xmlns:xlink="http://www.w3.org/1999/xlink" x="0px" y="0px"
	 viewBox="0 0 1200 1200" style="enable-background:new 0 0 1200 1200;" xml:space="preserve">
<style type="text/css">
	.st0{fill-rule:evenodd;clip-rule:evenodd;}
</style>
<g>
	<path d="M614.02,489.12c8.49,0.39,12.07,1.62,12.07,1.62s21.07-2.15,26.12-1.9c5.05,0.25,12.83,2.97,15.53,1.44
		c2.7-1.53,8.04-2.33,10.77,0.13c2.73,2.46,9.37,3.15,12.59,1.77c3.23-1.39,5.54-3.59,8.71-2.72c3.17,0.87,7.16,0.84,8.17,3.39
		s3.86,10.74,4.68,12.95s-1.27,5.62-1.27,5.62s1.62,4.43,1.61,7.55c-0.01,3.13-0.81,14.28-0.81,14.28s2.32,6.04,3.46,8.06
		c1.15,2.02-0.06,5.39-0.94,8.56c-0.87,3.17-2.42,6.73-0.77,10.02s1.37,9.48,0.9,12.19c-0.46,2.72-2.96,9.71-2.96,9.71
		s1.95,7.36,2.16,9.7c0.21,2.33-5.11,21.63-4.4,25.23c0.71,3.61,1.39,11.47,1.39,11.47s-1.13,8.22-0.66,10.63
		c0.47,2.41,0.52,11.52,0.39,14.04s-2.05,10.53-1.27,13.87c0.78,3.34,1.51,8.95,0.78,11.59s-3,5.71-4.4,8.74
		c-1.4,3.03-5.18,5.4-5.12,8.26c0.06,2.86,2.92,5.92,2.79,8.45c-0.13,2.52-1.05,4.83-3.64,4.97c-2.6,0.14-4.81,0.95-6.95,1.5
		c-2.14,0.55-3.89-1.36-6.42-1.48c-2.52-0.13-4.76-1.31-5.99,0.06c-1.23,1.37-5.88,3.78-8.14,3.73c-2.26-0.05-4.37-0.64-4.37-0.64
		s-4.41,3.62-9.08,4.04c-4.67,0.42-9.11,0.05-10.94-1.59c-1.82-1.64-4.79-5.3-8.9-5.87c-4.11-0.56-11.08-1.07-14.43-0.28
		c-3.34,0.78-10.3,2.28-12.37,2.56s-9.06-2.21-9.06-2.21s-4.99,5.27-8.91,5.51c-10.99,0.67-11.94-4.15-13.91-5.26
		s-6.68-1.56-9.16-0.82c-2.48,0.74-11.86,0.71-14.43-0.28s-5.02-1.38-5.96-1.07c-0.94,0.31-15.01,1.83-18.83,0.21
		c-3.82-1.62-9.27-4.55-9.27-4.55s-5.9,4.91-8.77,4.98c-2.86,0.06-10.72-2.39-12.76-3.23c-2.04-0.85-5.92-5.33-4.93-7.9
		c0.99-2.57,2.97-4.58,2.52-8.12c-0.45-3.54,0.09-6.52-1.6-10.68c-1.7-4.16-2.86-8.18-1.27-10.87s3.22-6.51,2.96-9.71
		c-0.26-3.2-0.26-3.2-0.26-3.2s-2.46-5.51-2.67-7.85s-0.93-2.82-0.93-2.82s-0.75-7.6-1.17-12.27c-0.42-4.67-3.88-4.48-2.95-9.91
		c0.93-5.43,1.54-8.68,1.54-8.68s-3.35-4.34-2.21-10.56s1.15-6.22,1.15-6.22l1.28-3.63c0,0-1.71-6.16-2.18-11.69
		c-0.47-5.53-0.47-5.53-0.47-5.53l1-5.7c0,0-3.78-5.88-3.26-10.85c0.52-4.98,0.52-4.98,0.52-4.98l0.76-3.77c0,0-2.85-3.06-2.5-9.5
		c0.35-6.44,0.35-6.44,0.35-6.44s2.08-3.41,1.7-7.21c-0.37-3.8-0.24-9.45-1.79-14.14c-1.55-4.69,0.42-11.83,0.47-14.09
		c0.05-2.26,1.69-4.08-1.16-7.14c-2.85-3.06-3.23-6.86-0.44-6.66c2.79,0.2,8.48,1.2,11.15,0.8c8.06-1.21,16.68,3.46,20.67,3.42
		s19.05-1,22.66-1.72s14.05-3.52,19.34-2.06c5.29,1.46,20.36,2.49,25.94,2.89c0,0,4.05-2.3,8.37-2.53c4.33-0.23,3.57-1.05,7.26-0.56
		C609.13,485.21,613.81,487.6,614.02,489.12z"/>
</g>
</svg>
