<?xml version="1.0" encoding="utf-8"?>
<!-- Generator: Adobe Illustrator 24.1.3, SVG Export Plug-In . SVG Version: 6.00 Build 0)  -->
<svg version="1.1" id="圖層_1" xmlns="http://www.w3.org/2000/svg" xmlns:xlink="http://www.w3.org/1999/xlink" x="0px" y="0px"
	 viewBox="0 0 1200 1200" style="enable-background:new 0 0 1200 1200;" xml:space="preserve">
<style type="text/css">
	.st0{fill-rule:evenodd;clip-rule:evenodd;}
</style>
<g>
	<path d="M520.6,410.2c0,0,9.61-0.31,11.78-0.31s16.75,0.62,23.57,0.62c6.82,0,37.53-0.31,42.18-0.62
		c4.65-0.31,17.99,0.31,26.98-1.86c8.99-2.17,25.12-1.24,29.77-1.86c4.65-0.62,22.95,0.62,25.74-0.93s19.85-6.51,25.43-6.51
		s4.34-0.31,5.58,0s-1.24,6.51,0,9.92c1.24,3.41,2.17,20.78,2.17,25.12s-5.89,83.42-6.2,89.63c-0.31,6.2-0.62,22.02-1.55,30.39
		s-8.99,64.2-8.99,66.37c0,2.17,0.31,72.57,0,80.01s-7.44,32.56-8.06,41.56c-0.62,8.99,0.62,50.86,0.62,53.03
		c0,2.17-0.31,4.34-0.31,5.27c0,0.93-7.44,0.93-9.61,1.24s-13.96,0-21.4,0c-7.44,0-29.77-2.48-35.66-2.17s-16.44-0.31-22.33-1.55
		c-5.89-1.24-19.23-3.1-26.67-3.72c-7.44-0.62-23.88-2.17-33.18-2.17c-9.3,0-31.01-0.31-34.73-0.62c-3.72-0.31-9.61-0.62-11.47-1.24
		c-1.86-0.62-6.2-4.03-7.13-5.27c-0.93-1.24-2.17-0.93,2.17-19.54c4.34-18.61,8.37-57.37,9.92-68.85
		c1.55-11.47,4.03-53.65,7.75-61.41c3.72-7.75,16.13-62.34,16.13-65.75c0-3.41-1.55-31.32-2.17-38.77
		c-0.62-7.44-0.31-10.54-0.93-17.68c-0.62-7.13,0.31-19.85,0.31-19.85s0.31-47.76,0.93-54.58s-2.17-18.92-1.86-22.33
		C519.67,412.37,518.43,410.2,520.6,410.2z"/>
</g>
</svg>
