<?xml version="1.0" encoding="utf-8"?>
<!-- Generator: Adobe Illustrator 24.1.3, SVG Export Plug-In . SVG Version: 6.00 Build 0)  -->
<svg version="1.1" id="圖層_1" xmlns="http://www.w3.org/2000/svg" xmlns:xlink="http://www.w3.org/1999/xlink" x="0px" y="0px"
	 viewBox="0 0 1200 1200" style="enable-background:new 0 0 1200 1200;" xml:space="preserve">
<style type="text/css">
	.st0{fill-rule:evenodd;clip-rule:evenodd;}
</style>
<g>
	<path d="M536.57,394.34c0,0,11.99-1.6,19.58-0.4c7.59,1.2,23.98,3.2,23.98,3.2s6.39-7.19,10.79-7.19s12.79,8.39,12.79,8.39
		s23.58-2,27.97-2.4s5.99-1.2,5.99-1.2s0.8-3.2,3.2-3.2s4.4,2.8,4.4,2.8s8.79-0.4,10.79-0.4s2.8,2.8,2.8,5.59s-0.4,7.99-0.8,10.39
		c-0.4,2.4-3.2,5.2-2.8,8.39c0.4,3.2,3.2,10.79,3.2,10.79l-0.4,10.79c0,0,4,4.4,3.6,8.79c-0.4,4.4-2.8,5.2-2.8,5.2
		s3.6,5.99,2.4,8.79c-1.2,2.8-2.4,3.2-2.4,3.2s3.6,2,4.4,4s-1.2,5.2-1.2,5.2l-4,2c0,0-1.6,13.19-1.2,16.78c0,0,2.8,0.4,0.4,4
		c0,0-2.4,13.59-1.6,16.78c0.8,3.2,1.6,16.38,2,19.18c0.4,2.8-0.4,7.59-0.4,7.59s4.8,3.6,0,9.19c0,0-1.6,21.58-1.6,22.78
		s1.2,2,1.6,4.8c0.4,2.8,0,9.99,0,9.99l-1.6,2c0,0,1.6,27.97,1.2,32.77c-0.4,4.8-2.8,18.78-2.4,20.38c0.4,1.6,0.8,7.99,0.8,10.79
		c0,2.8-0.4,49.95-0.4,53.95c0,4-4,10.79-2.8,14.79c1.2,4,3.6,21.18,4.8,26.37c1.2,5.2-1.6,33.57-1.2,37.56s-0.8,16.78-0.8,18.78
		c0,2-4.8,2.4-6.39,3.6c-1.6,1.2-45.16-3.6-47.95-2.8s-9.19,2.8-12.79,3.2c-3.6,0.4-20.78-0.8-23.58-0.4
		c-2.8,0.4-9.19,1.2-12.79,0.8c-3.6-0.4-9.99-2.8-9.99-2.8s-0.4-2.4-0.4-9.99s0-7.99-1.2-12.79c-1.2-4.8-1.2-9.99-0.4-14.39
		c0.8-4.4,2.8-11.99,3.2-15.98c0.4-4,0.4-7.99,0.4-7.99s0.8-58.74,0.4-63.14s-0.4-9.59-0.4-9.59s-1.6,4-2-3.6
		c-0.4-7.59-0.4-10.79-0.4-12.39c0-1.6,2.4-0.8,2.4-0.8s-1.2-23.98-2-27.57s-0.84-0.84-2-14.79c-0.4-4.8,2-4.8,2-4.8
		s0.4-28.77-0.4-31.57c-0.8-2.8-1.2-4.8-1.2-12.39s1.2-9.99,1.2-9.99l0.4-7.99c0,0-2-3.2-1.6-7.59c0.4-4.4,0.4-7.59,0.4-13.19
		c0-5.59,0.4-14.39,0.4-21.98s1.2-29.17,0.8-35.57c-0.4-6.39-3.2-10.79-2.4-19.18c0.8-8.39,1.2-19.18,0.8-24.38
		c-0.4-5.2-4-6.79-2.4-12.79c0,0,2.8-2,1.2-7.59C536.57,399.54,536.57,394.34,536.57,394.34z"/>
</g>
</svg>
