<?xml version="1.0" encoding="utf-8"?>
<!-- Generator: Adobe Illustrator 24.1.3, SVG Export Plug-In . SVG Version: 6.00 Build 0)  -->
<svg version="1.1" id="圖層_1" xmlns="http://www.w3.org/2000/svg" xmlns:xlink="http://www.w3.org/1999/xlink" x="0px" y="0px"
	 viewBox="0 0 1200 1200" style="enable-background:new 0 0 1200 1200;" xml:space="preserve">
<style type="text/css">
	.st0{fill-rule:evenodd;clip-rule:evenodd;}
</style>
<g>
	<path d="M354.05,301.54c0,0,4.31-2.41,5.2-2.54s3.17,0.13,3.17,0.13s4.06-1.9,4.44-1.9c0.38,0,1.65,0.13,1.65,0.13l1.14-1.02
		c0,0,3.17-0.76,4.31-1.4c1.14-0.63,1.14-0.63,1.14-0.63l2.54-1.14l5.84,1.02c0,0,31.47,0.51,34.52,0.63
		c3.05,0.13,17.13-0.63,17.13-0.63s2.16,1.14,3.43,1.02c1.27-0.13,1.27-0.13,1.27-0.13s6.73,0.89,9.01,1.14
		c2.28,0.25,5.46,1.02,5.46,1.02s10.79,1.02,13.83,0.89c3.05-0.13,9.77-1.02,10.79-0.89c1.02,0.13,3.43,0.38,3.43,0.38
		s4.57-0.89,5.2-0.89s4.82-0.25,5.2-0.25c0,0,18.27-1.27,19.16-1.52c0.89-0.25,4.31,0.63,4.31,0.63s2.28-0.89,2.66-1.02
		c0.38-0.13,5.08-0.13,6.98-0.25c1.9-0.13,13.58,0.76,13.58,0.76s4.7-1.27,9.14-1.52c4.44-0.25,7.36,0.13,7.36,0.13
		s-0.63-0.76,1.4-0.63s4.44,0.63,4.44,0.63s16.75,0,22.08,0.13c5.33,0.13,17-0.51,17-0.51l22.84,2.66c0,0,2.54-0.38,6.6-0.38
		s38.96,1.52,38.96,1.52l14.59,0.13l1.65,1.27c0,0,3.05-0.76,3.55-0.89c0.51-0.13,18.53,3.05,21.57,4.57
		c3.05,1.52,10.15,3.17,14.09,4.44s7.61,2.41,7.61,2.41s0.25-0.89,1.65-0.89c1.4,0,4.31,0.63,4.31,0.63s1.02-0.51,1.4-0.63
		s10.79-2.28,10.79-2.28s5.84,1.9,8.76,1.78c2.92-0.13,23.73,1.52,23.73,1.52s1.9-1.9,2.92-1.02c1.02,0.89,3.93,0.76,4.44,0.76
		s4.44-0.76,4.95-0.63c0.51,0.13,4.57,0.38,4.57,0.38h8.5l26.39-3.93c0,0,19.29,4.95,20.68,5.33c1.4,0.38,2.16,1.14,2.16,1.14
		s8.63-2.79,10.79-4.06s5.84-4.19,5.84-4.19l-1.02-1.78c0,0-1.27-1.78-2.16-2.28c-0.89-0.51,3.05-0.25,4.06-0.89
		c1.02-0.63,2.92-3.05,3.3-3.17c0.38-0.13,3.05-1.9,3.05-1.9s0-1.02,2.16-2.54c2.16-1.52,5.71-4.57,7.23-5.2
		c1.52-0.63,1.14,1.14,2.16,0.76c1.02-0.38,1.78-2.16,1.78-2.16s1.27,4.06,1.52,5.08s2.92,4.31,2.92,4.31s7.11-2.03,8.76-2.66
		c1.65-0.63,9.39-0.63,9.39-0.63s0.63-0.51,1.14-0.76c0.51-0.25,2.41-0.25,2.41-0.25s12.06,6.6,13.32,7.36
		c1.27,0.76,10.41,2.54,10.41,2.54s2.66,2.28,5.46,4.44c2.79,2.16,26.77,18.53,30.45,20.94c3.68,2.41,11.8,8.12,11.8,8.12l1.65-0.38
		l0.63,0.89c0,0,4.82-2.16,5.84-2.28c1.02-0.13,4.31-0.51,4.31-0.51l0.63,1.4l1.4-0.89h1.65c0,0,0.25-1.02,2.03-1.27
		c1.78-0.25,1.65,0,2.92-0.38c1.27-0.38,2.66-0.89,2.66-0.89l1.78,0.89l14.72-1.27l-0.89,1.65l2.66,3.55c0,0,2.66,0.76,3.43,2.03
		s0.89,2.66,0.89,2.66l-0.25,3.81c0,0,1.78,2.03,2.03,2.79s0.13,5.2,0.13,5.2s0.76,1.14,1.14,1.65c0.38,0.51,0.51,2.16,0.51,2.16
		s1.14,1.52,1.65,2.54s0.13,2.79,0.13,2.79s0.63,1.65,0.51,2.66c-0.13,1.02-0.89,2.28-0.89,2.28l-0.51,3.43c0,0,1.52-0.25,1.27,0.63
		c-0.25,0.89-1.14,3.05-1.02,3.55c0.13,0.51-0.51,3.81-0.76,4.95s-0.63,3.68-0.63,5.84s-2.54,6.22-2.54,6.22l0.63,8.25l-3.81,12.69
		l-0.51,12.69c0,0-1.9,3.93-1.78,5.46c0.13,1.52,2.28,2.16,2.28,2.16s3.81-0.38,4.19-0.25c0.38,0.13,1.78,1.65,1.78,1.65
		s-0.13,2.79-0.51,6.22c-0.38,3.43,0.38,2.79-1.14,8.88c-1.52,6.09-1.27,9.26-1.27,9.26s-2.54,3.93-3.93,5.33s-2.54,5.46-2.54,5.46
		s4.31-1.4,4.95-1.27c0.63,0.13-0.13,3.81-0.13,5.08s-1.02,2.03-0.89,5.71c0.13,3.68,5.08,29.06,5.2,29.57
		c0.13,0.51-0.02,8.35,1.14,9.9c0.76,1.02,0.38,0.51,0.38,2.03s0.63,5.46,1.27,7.49c0.63,2.03,6.09,53.3,6.09,55.71
		s2.28,25.13,2.16,25.89c-0.13,0.76,1.9,24.36,2.28,31.6c0.38,7.23,0.38,11.42,0.25,12.94c-0.13,1.52-6.98,56.47-6.98,56.47
		l-7.87,57.74l-4.57,12.56c0,0-1.78,2.79-1.78,3.17s2.41,5.46,2.92,6.85s1.27,23.73,1.27,23.73s3.68,33.5,3.17,33.75
		s-6.73,13.96-6.73,13.96s-3.43,0.38-3.43,0s-0.63-1.4-1.27-0.89c-0.63,0.51-1.52,0.89-1.52,0.89l-3.17-0.25
		c0,0-11.8,23.35-13.83,26.39c-2.03,3.05-8.25,9.9-9.14,11.29c-0.89,1.4-0.63,2.66-0.63,2.66s-1.02-0.76-4.44-1.02l-34.64,18.15
		c0,0-4.57-1.02-9.39-1.02s-14.85,0.76-15.23,0.76c-0.38,0-6.6-1.65-7.61-1.52s-2.92,0.63-2.92,0.63s-1.65,1.65-2.54,1.52
		c-0.89-0.13-1.78-0.89-1.78-0.89s-0.51,0.25-0.89,0.38c-0.38,0.13-2.03-1.65-3.43-1.27s-2.28-0.13-0.51-0.76s2.41-1.27,2.41-1.27
		s0.51-1.02,2.54-1.9c2.03-0.89,2.03-0.89,2.03-0.89l2.28,0.25c0,0,3.93-2.41,4.57-3.93c0.63-1.52,2.54-2.92,0.76-3.17
		s-4.82,2.03-4.82,2.03s-2.54-0.51-3.93,0.76c-1.4,1.27-2.16,1.9-2.16,1.9s-1.4,0.13-2.66,0.13c-1.27,0-3.55-0.51-3.55-0.51
		s-1.78,1.78-2.79,1.65c-1.02-0.13-1.4-0.51-1.4-0.51s-0.38,0.76-1.65,0.76c-1.27,0-3.05-1.4-4.95-1.52s-3.43,0.76-3.43,0.76
		s-1.65-0.89-3.43-0.63s-1.78,1.14-2.66,0.63c-0.89-0.51-2.16-1.02-2.16-1.02s0,1.4-1.27,1.27c-1.27-0.13-2.03-0.51-2.03-0.51
		s0.13,0.89-1.52,1.02s-2.03-0.89-2.92-0.63c-0.89,0.25-1.27,0.76-2.03,0.89c-0.76,0.13-2.66,0.25-4.31,0.51s-3.68,0-4.7,0
		c-1.02,0-2.28-0.38-3.43-1.78c-1.14-1.4-2.79-2.41-3.43-2.41s-4.7-1.02-6.85-1.4s-7.23-2.03-7.23-2.03l-7.87,6.22
		c0,0-13.7,0.76-14.21,0.63s-20.68-2.79-20.68-2.79s-8.63-10.53-9.26-10.15c-0.63,0.38-6.6,9.64-7.36,10.79
		c-0.76,1.14-4.95-0.63-8.63,0c-3.68,0.63-5.71,0.89-8.38-0.13c-2.66-1.02-9.14-2.03-9.14-2.03s-2.54,1.78-6.34-0.38
		s-6.09-2.92-6.98-2.79s-3.55-3.05-4.95-2.92c-1.4,0.13-2.54-1.4-2.54-1.4s-12.18-1.27-13.7-1.4c-1.52-0.13-6.47-1.02-7.74-1.27
		c-1.27-0.25-2.79-1.52-4.7-1.4c-1.9,0.13-2.92,0.63-4.19,0.25c-1.27-0.38-2.28-1.02-2.79-0.89c-0.51,0.13-1.02-1.4-1.78-1.14
		c-0.76,0.25-2.79,0.25-2.79,0.25s-1.9,0.25-3.3,0.63c-1.4,0.38-3.05,1.27-4.31,1.14c-1.27-0.13-3.3,0.25-3.3,0.25
		s-27.28-1.9-31.6-2.79s-8.76-3.05-9.52-3.05c-0.76,0-6.73,2.03-10.41,2.92c-3.68,0.89-6.34,0.89-7.49,1.14
		c-1.14,0.25-14.97-0.89-17.38-0.63c-2.41,0.25-4.31,0.76-5.58,0.63c-1.27-0.13-2.54-0.51-3.55-0.89c-1.02-0.38-3.17-0.89-3.55-0.89
		s-8.88,3.68-8.88,3.68l-57.61-5.84l-4.57-3.93h-8.88c0,0-24.36-7.11-25.38-7.74c-1.02-0.63-6.73-4.57-9.39-4.57
		c-2.66,0-6.09,0.63-6.09,0.63l1.78,1.14c0,0-3.05,0.25-4.31,3.81c-1.27,3.55-4.82,8.25-5.2,8.63c-0.38,0.38-8.12,2.41-8.12,2.41
		s-2.54-1.4-3.43-1.78c-0.89-0.38-4.44,0.13-4.44,0.13s-1.78-2.28-2.16-2.28s-0.38-0.25-2.92,1.52c-2.54,1.78-9.9-0.25-11.42,0
		c-1.52,0.25-4.82,4.06-5.71,4.44c-0.89,0.38-36.93,8.76-36.93,8.76s-17.13,2.03-18.15,1.65s-2.28-0.89-2.28-0.89
		s-0.38,1.4-1.65,1.9s-2.79,0-3.81-0.25s-3.55-2.28-3.55-2.28s-3.68,0.76-4.06,0.51c-0.38-0.25-3.55-6.47-3.93-6.85
		c0,0-0.63,0.57-1.52,0.32c-0.89-0.25-1.4-1.4-1.4-1.4s-0.82,0.76-1.71,0.13s-1.65-2.09-1.65-2.09s-0.63,0.82-1.46,0.51
		c-0.82-0.32-1.27-0.95-1.27-0.95s-0.44,1.4-1.27,1.21c-0.82-0.19-1.46-0.63-1.46-0.63s-0.76,1.33-2.03,0.95
		c-1.27-0.38-2.92-1.33-2.92-1.33s-0.25,1.52-1.52,1.84c-1.27,0.32-4.95,1.14-5.71,1.02c-0.76-0.13-2.28-1.08-2.28-1.08
		s0,1.52-2.28,2.16s-3.11-0.25-3.62-0.32c0,0-0.51,1.78-2.28,2.09c-1.78,0.32-3.68-0.63-3.68-0.63s0.19,1.4-1.46,1.4
		c-1.65,0-2.79-0.89-2.79-0.89s0,1.08-2.22,1.59c-2.22,0.51-3.74-0.25-3.74-0.25s-0.13,1.02-2.16,1.14
		c-2.03,0.13-2.66-1.08-2.66-1.08s0.63,0.95-1.21,1.27s-2.86-0.38-2.86-0.38s0.13,1.21-1.08,1.14c-1.21-0.06-2.6-0.95-2.6-0.95
		s0,1.27-1.71,1.27c-1.71,0-3.3-0.63-3.3-0.63s-0.95,1.33-1.97,1.14c-1.02-0.19-3.3-0.7-3.3-0.7s-2.6,1.71-4.06,1.71
		s-2.28,0.63-3.43-0.06s-1.78-1.14-1.78-1.14s-0.7,1.33-1.71,1.52c-1.02,0.19-3.49,0.44-4.63,0.13c-1.14-0.32-2.16-0.76-2.41-0.7
		c-0.25,0.06-1.08-0.13-1.27-0.06c-0.19,0.06,0.13,0.7-0.82,0.82s-2.35,0.51-2.66,0.51c-0.32,0-0.44,0.7-2.73,0.44
		s-5.77,0.7-6.34-0.06c-0.57-0.76-0.7-1.02-0.7-1.02s-0.44,1.21-1.33,0.7c-0.89-0.51-1.02-1.08-1.02-1.08s0.32,0.76-1.27,0.38
		s-3.05-1.46-3.36-1.46s-0.82,0.38-1.27,0.19c-0.44-0.19-2.22-2.16-2.22-2.16s-1.84,0.82-3.17-0.19c-1.33-1.02-1.65-2.28-1.65-2.28
		s-1.02,0.57-1.84-0.13c-0.82-0.7-0.89-1.21-0.89-1.21s-1.33,0.51-2.22,0.06c-0.89-0.44-2.16-2.09-2.16-2.09s-6.03-3.11-7.8-3.68
		s-3.74-1.4-7.49-0.76c-3.74,0.63-6.6,1.9-6.79,1.71c-0.19-0.19-1.14-0.57-1.59-1.27c-0.44-0.7-0.25-1.14-0.25-1.14
		s-0.19,0.13-1.4-0.19c-1.21-0.32-2.66-2.41-3.3-2.66s-1.46-0.44-1.46-0.44l-1.4-2.47c0,0,1.78-2.35,2.66-3.11
		c0.89-0.76,1.46-0.57,1.46-0.76c0-0.19-1.46-0.57,0.06-2.09c1.52-1.52,2.16-1.78,3.36-2.98s1.97-1.84,2.92-2.28
		c0.95-0.44,1.65-0.57,1.65-0.57s-0.32-1.33-1.02-1.46s-0.89,0.7-1.84,0s-1.33-0.7-2.16-0.63c-0.82,0.06-0.7,0.89-1.52,0
		c-0.82-0.89-1.71-1.84-2.22-2.22s-0.63,0.7-0.76,1.97c-0.13,1.27-1.02,3.17-1.71,3.49c-0.7,0.32-8.69,2.98-10.41,4.82
		c-1.71,1.84-6.03,6.22-7.36,7.55c-1.33,1.33-6.03,5.14-6.54,6.34c-0.51,1.21-0.89,2.79-0.89,2.79l-0.7,0.32
		c0,0-0.19-0.82-0.82-1.08s-7.23-1.97-8.95-2.54s-8.5-1.33-8.5-1.33s0.76-2.03,0.44-2.28c-0.32-0.25-0.7-3.17-0.7-3.17l4.57-3.62
		l9.52-14.02l2.41-8.25l-1.52-16.69c0,0-4.44-4-5.52-4.57c-1.08-0.57-2.16-1.65-2.16-1.65s1.33-1.59,2.47-3.3
		c1.14-1.71,1.21-2.73,2.09-3.36c0.89-0.63,2.66,0.13,2.54,0.32c-0.13,0.19,0.06-2.92,0.06-2.92s-0.76,0.44-1.02-0.38
		c-0.25-0.82-1.71-6.66-1.9-7.87c-0.19-1.21-2.03-2.6-2.09-4.06c-0.06-1.46-0.38-3.49-0.38-3.49l-1.4-2.35c0,0,0.44-8.63-0.25-10.98
		c-0.7-2.35-0.95-3.87-1.08-4.19c-0.13-0.32-1.21-13.58-1.21-13.58l-0.25-16.43c0,0-2.03,4.57-2.6,6.41
		c-0.57,1.84-2.73,3.43-2.73,3.43s-0.25-0.82,0.06-1.4c0.32-0.57,0.95-1.27,1.02-1.46c0.06-0.19,0-1.97,0-1.97s0.82-1.52,1.71-4.06
		c0.89-2.54,0.95-7.17,1.27-8.38c0.32-1.21,1.9-4.12,1.71-4.19c-0.19-0.06-2.09-4.57-1.97-5.08c0.13-0.51,1.33-1.59,1.14-1.71
		c-0.19-0.13-1.33-1.59-1.33-1.59s1.33-2.35,1.08-3.3c-0.25-0.95,1.21-1.02,1.21-1.02s-0.76-1.65-0.63-2.66
		c0.13-1.02,1.59-0.63,1.78-1.14c0.19-0.51,0.06-1.84-0.25-2.22c-0.32-0.38-0.51-2.6-0.13-2.92c0.38-0.32-0.38-2.86-0.38-2.86
		l-8.63-14.59c0,0-0.38,1.46-1.21,0.44c-0.82-1.02-0.7-2.6-0.95-3.68s-1.14-3.11-1.46-3.17c-0.32-0.06,0.89-4.7,1.27-5.58
		c0.38-0.89,5.01-13.32,5.01-13.32s-0.7-9.83-1.21-11.61s-1.33-4.95-2.47-5.77s-2.16-2.22-2.6-3.55c-0.44-1.33-0.06-4.38-0.44-4.82
		c-0.38-0.44-0.82-1.4-1.08-2.79c-0.25-1.4-1.14-2.35-1.14-2.35s-0.32,1.71-0.19,1.9c0,0,1.02,1.08,0.89,1.84
		c-0.13,0.76-0.32,0.89-0.32,0.89s0.82,2.03,0.44,4.31c-0.38,2.28-1.4,2.28-1.33,2.73c0.06,0.44,1.65-0.32,1.02,0.38
		s-0.89,1.08-0.89,1.08s0,1.27-0.7,2.09s-0.7,0.82-0.7,0.82s0.76,1.4,0.13,1.46c-0.63,0.06-1.27,0.76-1.27,0.76s0.89,0.63,0.51,1.14
		c0,0,2.47,0.89,2.98,1.65c0.51,0.76,0,1.14,0,1.14s-0.25-0.76-0.95-1.02s-0.7,1.08-1.4,0.51s-1.33-1.46-1.33-1.46
		s-1.78,0.13-2.28-0.13c-0.51-0.25-0.51-1.59-0.38-1.71c0.13-0.13-0.89-0.44-0.13-1.02c0,0,0.57-1.08,0.7-1.4
		c0.13-0.32,0.51-0.44,0.51-0.44s0.32-8.44,0.13-9.01s-1.52-2.09-0.89-3.24c0.63-1.14,0.95-1.71,0.95-1.71s-0.19-0.44-0.38-1.84
		c-0.19-1.4-0.63-2.6-0.25-3.43s1.21-1.21,0.89-1.65c-0.32-0.44-0.44-1.21-0.89-2.35c-0.44-1.14-4.19-7.04-4.19-7.04
		s-2.66-3.36-2.66-4.95s0.95-2.54,0.89-3.24c-0.06-0.7-0.06-1.65-0.06-1.65l2.66-10.41c0,0,0.06-3.43-0.38-3.81
		c-0.44-0.38-0.06-1.52-0.06-2.66c0-1.14,0.13-3.17-0.44-5.01c-0.57-1.84,0.32-2.79,0.7-3.36c0.38-0.57,0.25-0.38-1.27-2.28
		c0,0-0.44,0.44-1.33,0.32c-0.89-0.13-1.52-0.89-1.52-0.89s1.78-13.83,1.97-14.4s11.67-21.76,12.18-22.33s1.27,0.06,1.46-1.78
		c0.19-1.84-0.06-5.65-0.38-5.84s-2.41-1.78-3.17-1.84c-0.76-0.06-1.78,1.9-1.97,1.71c-0.19-0.19,0.19-0.32-2.03-1.9
		c-2.22-1.59-9.2-9.96-9.45-10.02c-0.25-0.06,1.4-2.54,1.4-2.54l-0.51-14.09c0,0,1.14-4.57,1.78-7.23c0.63-2.66,1.65-2.22,1.65-2.03
		c0,0.19-1.4-3.24-0.25-3.24s0.25,0,0.25,0s0.63-8.63,1.33-9.64c0,0,3.74-2.54,3.87-2.79c0.13-0.25,3.62-6.6,3.62-6.6
		s-2.09-0.63-2.27-1.72c-0.03-0.16-0.01-0.32,0.05-0.5c0.51-1.4-1.97,0.38-2.66-0.13c0,0,1.14-2.73,1.33-2.86
		c0.19-0.13-1.46-1.02-1.46-1.02s0.44-2.35,0.38-3.3c-0.06-0.95-0.06-0.95-0.06-0.95s0.32-1.46,0.7-1.52s1.08,0.7,1.08,0.7
		l0.32,1.78c0,0,1.9-2.92,2.47-3.36c0.57-0.44,6.09-1.08,6.41-1.4c0.32-0.32,4.31-2.16,4.31-2.16l1.21-8.31
		c0,0-4.89-14.34-5.14-14.78c-0.25-0.44-3.05-9.45-3.05-9.45s0.57-3.17,0.38-3.3s-1.65-2.47-1.65-2.47l0.89-3.3l-1.02-1.71
		l-0.51-2.6l-2.28-1.84c0,0,0.19-1.02,0.25-1.84c0.06-0.82-0.38-3.93-0.63-3.93c-0.25,0-1.59,0.57-1.84,0.25
		c-0.25-0.32,0.95-1.59,1.4-1.97c0.44-0.38,0.82-2.09,0.82-2.09l4.25-3.68l1.33-10.79c0,0,2.6-1.21,3.43-0.38
		c0,0-0.32-2.35-0.06-2.98c0.25-0.63,4.57-5.71,6.09-6.73c1.52-1.02,6.03-6.41,6.03-6.41l1.21-8.31c0,0-0.63-10.72,0.06-12.06
		c0.7-1.33,2.98-3.36,3.24-3.87c0.25-0.51-0.13-3.87,0-4.7c0.13-0.82,1.4-1.08,1.71-1.02c0.32,0.06-0.13-1.33,0.57-1.4
		s1.46,0,1.46,0s0.51-1.08,0.95-1.21c0.44-0.13,1.46-0.19,1.46-0.19s1.97-1.65,2.73-2.03c0.76-0.38,1.08,0.06,1.4-0.76
		c0.32-0.82,0-3.05,0-3.05l2.16-1.71l0.06-4l0.44-0.57c0,0,1.08-1.46,1.65-3.11c0.57-1.65,1.4-2.86,1.71-3.74
		c0.32-0.89,1.33-5.2,1.52-6.22c0.18-0.95,0.25-4.75-0.69-6c-0.06-0.08-0.13-0.16-0.2-0.22c-1.14-0.95,0.7-0.76,1.14-0.63
		c0,0,0.25-0.82,1.9-1.46c1.65-0.63,3.24-0.89,3.24-0.89l4.76-3.55l0.57-1.02l1.71-0.19c0,0,0.76-1.84,3.24-2.41
		c2.47-0.57,6.54-0.57,6.54-0.57s13.77-5.33,20.3-7.17c6.54-1.84,20.62-6.47,20.62-6.47l73.54-4.76c0,0,3.55,2.54,7.36,2.92
		c3.81,0.38,9.52,0.25,9.52,0.25L354.05,301.54z"/>
</g>
</svg>
