<?xml version="1.0" encoding="utf-8"?>
<!-- Generator: Adobe Illustrator 24.1.3, SVG Export Plug-In . SVG Version: 6.00 Build 0)  -->
<svg version="1.1" id="圖層_1" xmlns="http://www.w3.org/2000/svg" xmlns:xlink="http://www.w3.org/1999/xlink" x="0px" y="0px"
	 viewBox="0 0 1200 1200" style="enable-background:new 0 0 1200 1200;" xml:space="preserve">
<style type="text/css">
	.st0{fill-rule:evenodd;clip-rule:evenodd;}
</style>
<g>
	<path d="M760.92,478.98c4.44,5.44,4.67,6.14,2.73,8.38c-1.94,2.23-5.11,6.56-3.96,8.93c1.15,2.37,4.34,12.14,5.44,17.87
		c1.1,5.72-2.25,21.22-0.2,27.5c2.05,6.28,2.32,18.84,2.01,23.73s-2.78,39.5-1.42,43.69s-5.05,17.31-3.25,24.01
		c1.8,6.7,0.31,25.54,0.31,25.54s-4.03,73.14-4.56,76.22c-0.53,3.07-7.91,2.65-11.01,2.51c-3.1-0.14-7.88,0.42-13.15,1.81
		c-5.27,1.4-47.7,0-54.37-0.56c-6.67-0.56-13.34-1.12-20.46-3.07c-7.12-1.95-30.88-8.1-39.02-6.14c-8.14,1.95-31.32,4.61-39.2,5.03
		c-7.88,0.42-21.86-5.02-27.59-5.02c-5.72,0-1.7,1.81-4.13,4.89s-11.73,2.65-14.83,2.51s-21.86-5.02-30.42-6.7
		s-20.18-5.72-24.96-5.16c-4.78,0.56-10.92-3.07-12.83-3.07c-1.91,0-8.35,0.14-9.75-1.81s-3.86-11.87-6.45-13.96
		c-2.59-2.09-12.46-11.31-13.82-15.49c-1.36-4.19-2.09-33.36-1.72-41.6c0.37-8.24-1.65-46.06-0.4-49.27
		c1.24-3.21-0.33-9.21,0.9-11.31s-0.87-5.03-1.56-7.12s0.3-3.77,0.33-6c0.04-2.23-0.42-3.63-0.59-7.68
		c-0.17-4.05,0.86-9.07,1.88-12.98c1.02-3.91-1.9-15.22-1.38-18.29c0.53-3.07,3.7-7.4,3.7-7.4s-0.37-6.98,0.41-10.47
		c0.77-3.49-0.89-19.12,2.48-20.52c3.36-1.4,2.21-3.77,2.21-3.77s-7.35-2.65-4.15-9.21c3.21-6.56,7.2-17.73,13.13-15.91
		c5.93,1.81,21.02,12.98,26.71,15.21c5.69,2.23,14.46,5.72,18.08,2.79s9.72-11.17,11.44-14.1s10.52-1.68,16.28-3.91
		c5.76-2.23,18.15-1.68,19.85-3.49s8.4-3.49,11.48-2.23s29.34-0.14,33.38,0.56c4.04,0.7,71.84-3.21,79.72-3.63
		c7.88-0.42,25.73,1.67,29.04,3.63c3.31,1.95,8.73,5.72,11.15,3.77s4.17-7.12,7-5.44c2.84,1.68,8.52,3.91,11.87,3.63
		c3.34-0.28,7.18-1.4,12.66-0.98c5.48,0.42,12.11,3.21,15.42,5.16C758.65,472,760.92,478.98,760.92,478.98z"/>
</g>
</svg>
