<svg id="圖層_1" data-name="圖層 1" xmlns="http://www.w3.org/2000/svg" viewBox="0 0 1200 1200"><path d="M575.31,530.2a7.2,7.2,0,0,1,2.51-1.4s-.56-1.12,1.68-1.67a25.5,25.5,0,0,0,4.47-1.68s-.56-2.79,2.79-3.91,4.47,1.12,5,1.68a8.05,8.05,0,0,1,1.11,1.67s3.07-1.95,5.87-1.39l2.79.55s3.35,1.12,4.47,2.8a23,23,0,0,0,5.58,5,48.27,48.27,0,0,1,5.59,3.91c.56.56,7.26,3.35,8.38,3.91s3.35.56,3.35,0,1.12-.56,1.67-2.23,1.12-2.79,2.24-2.79,3.35,1.11,4.47,1.67,3.91,2.79,4.46,5a36.4,36.4,0,0,1,1.12,6.14,31.33,31.33,0,0,0,.56,3.91s3.35,7.82,5.59,9.5,3.54,6.88,2.79,8.38l-1.12,2.23s-4.47,16.2-7.26,23.46-11.17,22.9-18.43,33-26.81,37.42-31.28,41.33-10.61,8.38-14,8.94-7.82,1.12-11.73-.56-14.52-12.29-17.32-20.11-3.35-31.27-2.23-39.09,10-31.28,11.17-35.75-.56-8.94-1.12-12.29-2.79-6.7-1.11-8.93,3.35-5,3.35-5a2.91,2.91,0,0,1,.56-2.79c1.11-1.12,2.79-2.24,3.35-2.8s2.23-1.11,2.23.56c0,0,1.12-2.79,2.24-3.35a9.78,9.78,0,0,1,3.35-.56s-1.12-1.67,0-2.79a22.63,22.63,0,0,0,2.23-2.79v-6.71C574.75,533.55,574.47,531,575.31,530.2Z"/></svg>