<?xml version="1.0" encoding="utf-8"?>
<!-- Generator: Adobe Illustrator 24.1.3, SVG Export Plug-In . SVG Version: 6.00 Build 0)  -->
<svg version="1.1" id="圖層_1" xmlns="http://www.w3.org/2000/svg" xmlns:xlink="http://www.w3.org/1999/xlink" x="0px" y="0px"
	 viewBox="0 0 1200 1200" style="enable-background:new 0 0 1200 1200;" xml:space="preserve">
<style type="text/css">
	.st0{fill-rule:evenodd;clip-rule:evenodd;}
</style>
<g>
	<path d="M655.01,634.63c0,0,0.03-0.8,0.06-1.42s-0.77-0.77-0.77-0.77s0.1-0.56,0.14-0.99s-0.77-0.71-0.73-1.14
		c0.04-0.43-0.52-1.24-0.53-1.55c-0.01-0.22-0.32-1.07-0.54-1.73c-0.68-3.87-1.71-8.26-3.21-13.03c-2.95-9.36-6.42-19.73-8.61-27.4
		c-0.01-0.36-0.28-1.08-0.24-1.42c0.05-0.37-0.18-0.7-0.22-0.85c-0.04-0.15-0.3-1.16-0.34-1.5c-0.03-0.2-0.19-0.28-0.32-0.4
		c-0.52-2.06-0.88-3.78-1-5c-0.39-3.77-0.3-8.55-1.66-14.27c0.01-0.04,0.02-0.1,0.03-0.13c0.16-0.67-0.1-1.22-0.15-1.35
		c-0.05-0.12,0.37-0.38,0.4-0.67c0.03-0.29,0.23-0.98,0.3-1.29c0.07-0.31,0.45-1.25,0.63-1.51c0.18-0.26,0.25-1.17,0.45-1.49
		c0.21-0.31,0.14-0.71,0.18-0.87c0.03-0.15,0.25-1.17,0.35-1.5s-0.29-0.5-0.13-0.93c0.16-0.44-0.13-0.7-0.13-0.7s0.24-0.47,0.25-0.8
		c0.01-0.33-0.31-0.91-0.4-1.15c-0.1-0.24,0.19-1.8,0.11-2.24c-0.08-0.44-0.61-0.61-0.61-0.61c0.03-0.29-0.2-0.63-0.2-0.63
		c0.18-0.63-0.28-2.51-0.77-2.93c-0.49-0.42-0.96-0.42-1.13-0.5c-0.17-0.07-0.23-0.47-0.85-0.98c-0.62-0.51-0.93-0.34-0.93-0.34
		s-0.03-0.32-0.07-0.67c-0.05-0.36-2.22-2.09-2.81-2.65c-0.59-0.56-0.97-0.33-0.97-0.33s0.11-0.19-0.09-0.48
		c-0.21-0.29-0.77-0.31-1.67-0.8c-0.9-0.49-2.59-1.61-2.8-1.67c-0.21-0.06-0.74-0.46-0.85-0.61c-0.1-0.15-0.79-0.58-0.96-0.89
		s-0.48-0.14-0.75-0.36c-0.27-0.22-0.29-0.63-0.78-0.91c-0.48-0.28-1.59-0.36-1.73-0.36s0.11-0.19-0.05-0.49
		c-0.17-0.31-0.87-0.32-0.87-0.32s-0.07-0.3-1.05-0.67c-0.99-0.37-1.67-0.57-2.12-0.63c-0.45-0.06-0.33-0.48-0.96-0.89
		c-0.63-0.41-0.88-0.22-0.88-0.22s-1.47-0.65-1.6-0.74c-0.13-0.09-0.77-0.17-0.9-0.26c-0.13-0.09-0.69-0.57-1.29-0.67
		c-0.6-0.09-0.64,0.39-1.27,0.35c-0.62-0.04-1.53,0.03-1.53,0.03l-0.67-0.16c0,0,0.16-0.3-0.33-0.48c-0.49-0.18-0.55,0.03-1.18,0.22
		s-1.05,0.92-1.05,0.92s-0.97-0.09-1.38-0.07c-0.41,0.02-0.58,0.32-0.98,0.48c-0.41,0.16-0.41,0.39-0.41,0.39s-0.5,0.15-0.97,0.28
		c-0.46,0.13-0.55,0.26-0.83,0.51c-0.28,0.25-0.57,0.22-0.57,0.22c0-0.23-0.43-0.02-0.65,0.02s-0.45,0.04-1.12-0.12
		c-0.67-0.16-0.13,0.52-0.13,0.52s-0.64-0.08-0.91-0.16c-0.27-0.08-0.32,0.03-0.45-0.2s-0.19-0.25-0.54-0.3
		c-0.35-0.05-0.17,0.3-0.34,0.32c-0.18,0.02-0.41-0.21-0.43-0.39c-0.02-0.18-0.94-0.24-1.32-0.38s-0.75,0.11-1.06,0.41
		c-0.3,0.31-0.37,0.85-0.52,0.95c-0.15,0.1-0.57,0.22-0.57,0.22l-0.43,0.21c0,0,0,0-0.24-0.14c-0.24-0.14-0.63,0.06-1.05,0.08
		c-0.41,0.02-0.6,0.14-1.02,0.02c-0.42-0.12-0.55,0.26-0.95,0.56c-0.4,0.3-1.29,0.64-1.76,0.64c-0.47,0-0.93,0.27-1.27,0.35
		c-0.34,0.09-0.99-0.13-1.1-0.42c-0.11-0.28-0.62-0.27-0.62-0.27l0.17-0.4c0,0-0.32-0.34-0.73-0.32s-0.48,0.33-0.92,0.4
		c-0.44,0.08-0.82,0.18-0.82,0.18c-0.56-0.35-1.06,0.18-1.06,0.18s-0.08-0.2-0.35-0.29s-0.81-0.39-1.22-0.37
		c-0.41,0.02-1.03,0.59-1.03,0.59l-0.47-0.61c0,0-0.59-0.43-1.06-0.57s-1.02,0.4-1.02,0.4s-0.51-0.36-0.93-0.34
		c-0.41,0.02-0.81,0.69-0.81,0.69s-0.18,0.02-0.52,0.11c-0.34,0.09-0.42,0.49-0.42,0.49l-0.44,0.08c0,0-0.41-0.21-0.68-0.44
		c-0.27-0.22-0.61,0-0.66-0.12c-0.05-0.12-0.17-0.31-0.32-0.34c-0.15-0.03-1.47-0.18-1.47-0.18c-0.27-0.08-0.77-0.17-1.12-0.22
		c-0.35-0.05-0.46,0.51-1.08,0.61c-0.62,0.1-0.93,0.5-1.21,0.61c-0.28,0.11-0.5,0.05-0.5,0.05s0.18-0.49,0.06-0.68
		s-0.45-0.67-0.62-0.74s-0.96,0.19-0.96,0.19s-0.61-0.23-1.03-0.25c-0.43-0.02-0.83,0.51-0.83,0.51l-0.82,0.41
		c0,0-0.31-0.3-0.71-0.38s-0.4,0.53-0.4,0.53l-0.38,0.1c0,0-0.26-0.32-0.66-0.49c-0.4-0.17-0.91-0.16-0.91-0.16
		s-0.33-0.25-0.61-0.14c-0.28,0.11-0.79,0.26-1.28,0.45c-0.49,0.19-0.64,0.53-0.65,0.86c-0.01,0.33-0.31,0.77-0.43,0.82
		c-0.12,0.05-0.66-0.02-0.97,0.14c-0.31,0.17-0.75,0.71-0.75,0.71s-0.88,0.62-1.12,0.86c-0.24,0.23-0.2,0.92-0.2,0.92
		s-0.7,0.37-1.19,0.79c-0.49,0.42-0.22,0.51-0.33,1.07s0.11,1.13,0.11,1.13s-0.85,0.47-1.09,0.8c-0.25,0.33-0.09,0.74-0.09,0.74
		s-0.18,0.02-0.38,0.34c-0.21,0.31,0.1,0.38,0.16,0.64c0.05,0.26-0.11,0.93-0.14,1.08s-0.17,1-0.17,1s0.29,0.5,0.34,0.76
		s0.13,0.7,0.13,0.7l-0.18,0.26c0,0-0.03,0.53-0.02,0.66c0.01,0.14,0.38,0.6,0.38,0.6s-0.22,1.12-0.28,1.33
		c-0.06,0.21,0.25,0.42,0.33,0.62s-0.06,0.82-0.12,1.12c-0.01,0.05,0.01,0.09,0.01,0.14c-0.07,0.26-0.13,0.54-0.2,0.81
		c-0.09,0.09-0.18,0.17-0.28,0.26c-0.17,0.15-0.05,0.35,0.08,0.56c-0.02,0.08-0.04,0.14-0.05,0.22c-1.19,6.27-4.18,18.21-3.73,21.65
		c0.45,3.43,3.58,33.89,4.18,38.22c0.6,4.33-2.99,21.65-2.39,30.31c0.6,8.66,3.58,12.09,4.33,14.18s3.43,7.61,8.81,11.65
		c5.37,4.03,7.02,2.54,17.92,3.88c10.9,1.34,10.3-0.45,26.57-2.09c5.38-0.54,10.19-1.59,14.63-2.9c0.71,0.08,1.54,0.15,2.23-0.07
		c1.16-0.36,3.64,0.03,4.26-0.12c0.61-0.15,1.27-0.61,1.27-0.61s1.53-0.25,2.32-0.72s1.66-0.26,2.51-0.42s11.11-7.21,11.52-7.66
		s3.42-2.31,3.42-2.31s1.7-0.57,2.47-1.53c0.76-0.96,1.45-2.22,1.99-3.85c0.55-1.63,2-3.73,2.07-4.85c0.03-0.51,0.14-1.14,0.25-1.68
		c0.06-0.26,0.12-0.51,0.17-0.74c0.03-0.13,0.05-0.29,0.08-0.45c0.03-0.06,0.9-2.14,1.23-2.88
		C655.1,638.27,655.25,635.92,655.01,634.63z"/>
</g>
</svg>
