<?xml version="1.0" encoding="utf-8"?>
<!-- Generator: Adobe Illustrator 24.1.3, SVG Export Plug-In . SVG Version: 6.00 Build 0)  -->
<svg version="1.1" id="圖層_1" xmlns="http://www.w3.org/2000/svg" xmlns:xlink="http://www.w3.org/1999/xlink" x="0px" y="0px"
	 viewBox="0 0 1200 1200" style="enable-background:new 0 0 1200 1200;" xml:space="preserve">
<style type="text/css">
	.st0{fill-rule:evenodd;clip-rule:evenodd;}
</style>
<g>
	<path d="M515.65,498.22c31.54-13.33,65.14-16.74,116.49-10.72c51.35,6.01,68.93,22.09,81.34,30.85
		c12.4,8.75,17.33,14.63,24.59,23.7c7.26,9.07,12.33,13.45,14.65,17.89c1.67,3.19,0.05,5.67,4.31,12.2
		c4.26,6.52,10.21,14.92,11.8,23.38s5.27,37.27,1.92,50.15c-3.35,12.88-15.88,40.27-33.03,49.65
		c-17.15,9.38-34.86,12.16-42.54,14.16c-7.68,2-17.08,4.77-27.48,3.03c-10.4-1.73-22.59-7.05-28.54-5.82
		c-5.95,1.23-10.61,3.8-16.53,3.06c-5.92-0.74-8.39-3.68-8.39-3.68s-8.1,4.1-21.45,5.5c-13.34,1.39-20.52,4.98-26.69,3.44
		c-6.18-1.54-13.77-5.47-13.77-5.47s-7.3,3.19-15.56-0.09c-8.26-3.28-10.25-2.65-10.25-2.65s-0.96,2.49-10.7,1.43
		c0,0-16.61,8.33-34.36,4.78c-17.76-3.55-28.89-8.99-35.75-18.19c-6.86-9.2-11.3-21.13-12.67-26.83s-5.14-36.87-5.06-42.81
		s-0.49-11.88,0.75-15.55c1.24-3.68,1.57-8.16,2.71-14.21s3.94-26.19,15.67-44.36C458.83,532.88,480.35,513.14,515.65,498.22z"/>
</g>
</svg>
