<?xml version="1.0" encoding="utf-8"?>
<!-- Generator: Adobe Illustrator 24.1.3, SVG Export Plug-In . SVG Version: 6.00 Build 0)  -->
<svg version="1.1" id="圖層_1" xmlns="http://www.w3.org/2000/svg" xmlns:xlink="http://www.w3.org/1999/xlink" x="0px" y="0px"
	 viewBox="0 0 1200 1200" style="enable-background:new 0 0 1200 1200;" xml:space="preserve">
<style type="text/css">
	.st0{fill-rule:evenodd;clip-rule:evenodd;}
</style>
<g>
	<path d="M598.52,549.15c17.75,0.53,82.9-2.47,87.19-1.95c4.29,0.51,7.15,0.31,7.15,0.31s0.95,46.62,1.91,55.93
		s3.81,48.59,3.81,48.59s-63.35-0.07-72.41-1.15c-9.06-1.08-32.9,0.94-44.34,0.66c-11.44-0.28-53.4,2.28-60.07,0.95
		c-6.67-1.34-11.92-13.86-14.78-19.07c-2.86-5.21-2.38-7.31-5.24-7.66c0,0-0.95-4.44,0.48-17.25c1.43-12.81,4.77-29.72,9.54-37.8
		c4.77-8.08,11.92-15.34,15.73-17.05c3.81-1.71,10.01-0.97,11.92-2.9C541.3,548.81,580.4,548.61,598.52,549.15z"/>
</g>
</svg>
