<?xml version="1.0" encoding="utf-8"?>
<!-- Generator: Adobe Illustrator 24.1.3, SVG Export Plug-In . SVG Version: 6.00 Build 0)  -->
<svg version="1.1" id="圖層_1" xmlns="http://www.w3.org/2000/svg" xmlns:xlink="http://www.w3.org/1999/xlink" x="0px" y="0px"
	 viewBox="0 0 1200 1200" style="enable-background:new 0 0 1200 1200;" xml:space="preserve">
<style type="text/css">
	.st0{fill-rule:evenodd;clip-rule:evenodd;}
</style>
<g>
	<path class="st0" d="M835.19,367.15c1.88,0.01,5.33,0.5,6.27,1.39c3.49,0.93,5.48,3.96,7.66,6.26c0.46,0.23,0.93,0.46,1.39,0.7
		c0,0.46,0,0.93,0,1.39c0.46,0.23,0.93,0.46,1.39,0.7c0,0.46,0,0.93,0,1.39c0.46,0.23,0.93,0.46,1.39,0.7
		c0.23,0.7,0.46,1.39,0.7,2.09c0.23,0,0.46,0,0.7,0c0,0.46,0,0.93,0,1.39c0.23,0,0.46,0,0.7,0c0.23,0.93,0.46,1.86,0.7,2.78
		c0.23,0,0.46,0,0.7,0c0.46,2.09,0.93,4.18,1.39,6.27c0.23,0,0.46,0,0.7,0c0,1.16,0,2.32,0,3.48c0.23,0,0.46,0,0.7,0
		c0,1.62,0,3.25,0,4.87c0.23,0,0.46,0,0.7,0c0,3.02,0,6.03,0,9.05c0.23,0,0.46,0,0.7,0c0,4.18,0,8.35,0,12.53c-0.23,0-0.46,0-0.7,0
		c-0.69,2.44-0.07,17.01,0,17.4c0,6.96,0,13.92,0,20.88c0.23,0,0.46,0,0.7,0c0.76,2.7-0.88,8.68-1.39,10.44c0,1.86,0,3.71,0,5.57
		c-0.23,0-0.46,0-0.7,0c-0.23,1.16-0.46,2.32-0.7,3.48c0.23,0,0.46,0,0.7,0c0,0.46,0,0.93,0,1.39c0.23,0,0.46,0,0.7,0
		c0.23,2.32,0.46,4.64,0.7,6.96c0.23,0,0.46,0,0.7,0c0,2.09,0,4.18,0,6.26c0.23,0,0.46,0,0.7,0c1.37,4.86-1.15,12.83-2.09,16.01
		c-0.14,0.48-0.7,6.26-0.7,6.26c0.01,0.07,0.91,0.3,0.7,1.39c-0.23,0-0.46,0-0.7,0c0.23,7.66,0.46,15.32,0.7,22.97
		c-0.23,0-0.46,0-0.7,0c0,2.55,0,5.11,0,7.66c-0.23,0-0.46,0-0.7,0c0,1.62,0,3.25,0,4.87c-0.23,0-0.46,0-0.7,0c0,1.39,0,2.78,0,4.18
		c-1.86,6.73-3.71,13.46-5.57,20.19c-0.81,2.86,0.96,4.8,1.39,6.26c-0.23,2.32-0.46,4.64-0.7,6.96c0.23,0,0.46,0,0.7,0
		c0,2.32,0,4.64,0,6.96c0.23,0,0.46,0,0.7,0c0,0.93,0,1.86,0,2.78c0.23,0,0.46,0,0.7,0c0,0.7,0,1.39,0,2.09c0.23,0,0.46,0,0.7,0
		c0,0.7,0,1.39,0,2.09c0.23,0,0.46,0,0.7,0c0.23,6.26,0.46,12.53,0.7,18.79c0.23,0,0.46,0,0.7,0c-0.23,7.66-0.46,15.32-0.7,22.97
		c0.23,0,0.46,0,0.7,0c0,2.32,0,4.64,0,6.96c0.23,0,0.46,0,0.7,0c0,1.62,0,3.25,0,4.87c0.23,0,0.46,0,0.7,0c0,1.16,0,2.32,0,3.48
		c0.23,0,0.46,0,0.7,0c0,1.16,0,2.32,0,3.48c0.23,0,0.46,0,0.7,0c0.91,3.13-0.08,11.78-0.7,13.92c-0.7,5.1-1.39,10.21-2.09,15.31
		c-0.7,2.32-1.39,4.64-2.09,6.96c0.23,0,0.46,0,0.7,0c2.23,2.17,3.25-0.09,3.48,4.87c1.57,1.79,0.66,8.05,0.7,11.14
		c0.06,4.92,1.39,9.72,0,14.62c0,2.09,0,4.18,0,6.26c-0.23,0-0.46,0-0.7,0c0,0.7,0,1.39,0,2.09c-0.18,0.46-2.17,4.36-2.09,4.87
		c0.23,0,0.46,0,0.7,0c0,1.39,0,2.78,0,4.18c0.23,0,0.46,0,0.7,0c0.23,2.09,0.46,4.18,0.7,6.27c0.23,0,0.46,0,0.7,0
		c0,0.7,0,1.39,0,2.09c0.23,0,0.46,0,0.7,0c0,1.39,0,2.78,0,4.18c0.23,0,0.46,0,0.7,0c-0.23,3.94-0.46,7.89-0.7,11.83
		c0.23,0,0.46,0,0.7,0c0,2.32,0,4.64,0,6.96c0.23,0,0.46,0,0.7,0c0,1.62,0,3.25,0,4.87c0.23,0,0.46,0,0.7,0c0,2.09,0,4.18,0,6.27
		c0.23,0,0.46,0,0.7,0c0.87,3.09-0.1,11.14-0.7,13.23c0,1.62,0,3.25,0,4.87c-0.23,0-0.46,0-0.7,0c0,0.7,0,1.39,0,2.09
		c-0.23,0-0.46,0-0.7,0c0,1.16,0,2.32,0,3.48c-0.23,0-0.46,0-0.7,0c0.46,3.71,0.93,7.43,1.39,11.14c0.23,0,0.46,0,0.7,0
		c-0.23,1.39-0.46,2.78-0.7,4.18c0.23,0,0.46,0,0.7,0c0.32,1.8-0.7,2.09-0.7,2.09c0,3.02,0,6.03,0,9.05c-0.23,0-0.46,0-0.7,0
		c0,1.62,0,3.25,0,4.87c-0.23,0-0.46,0-0.7,0c0,1.39,0,2.78,0,4.18c-0.23,0-0.46,0-0.7,0c-0.46,3.94-0.93,7.89-1.39,11.83
		c0,2.09,0,4.18,0,6.27c-0.23,0-0.46,0-0.7,0c0,0.93,0,1.86,0,2.78c-0.23,0-0.46,0-0.7,0c0,0.7,0,1.39,0,2.09c-0.23,0-0.46,0-0.7,0
		c-0.46,1.39-0.93,2.78-1.39,4.18c-0.23,0-0.46,0-0.7,0c0,0.46,0,0.93,0,1.39c-0.23,0-0.46,0-0.7,0c-0.23,0.93-0.46,1.86-0.7,2.78
		c-1.16,0.93-2.32,1.86-3.48,2.78c-0.46,0.7-0.93,1.39-1.39,2.09c-0.7,0-1.39,0-2.09,0c0,0.23,0,0.46,0,0.7c-0.46,0-0.93,0-1.39,0
		c0,0.23,0,0.46,0,0.7c-2.09,0.46-4.18,0.93-6.26,1.39c0,0.23,0,0.46,0,0.7c-2.09,0.23-4.18,0.46-6.27,0.7c0-0.23,0-0.46,0-0.7
		c-0.23,0-0.46,0-0.7,0c0,0.23,0,0.46,0,0.7c-2.78,0-5.57,0-8.35,0c0,0.23,0,0.46,0,0.7c-2.32,0-4.64,0-6.96,0c0,0.23,0,0.46,0,0.7
		c-2.78,0-5.57,0-8.35,0c0,0.23,0,0.46,0,0.7c-2.32,0-4.64,0-6.96,0c-5.58,0-12.97,0.56-17.4-0.7c-2.78,0-5.57,0-8.35,0
		c0-0.23,0-0.46,0-0.7c-0.7,0-1.39,0-2.09,0c0-0.23,0-0.46,0-0.7c-2.32,0.23-4.64,0.46-6.96,0.7c-0.23,0.46-0.46,0.93-0.7,1.39
		c-1.39,0-2.78,0-4.18,0c0,0.23,0,0.46,0,0.7c-3.48,0.23-6.96,0.46-10.44,0.7c-5.02-1.42-13.29-0.69-19.49-0.7
		c-2.09,0-4.18,0-6.27,0c-4.83-1.36-12.8-0.69-18.79-0.7c-2.09,0-4.18,0-6.27,0c0-0.23,0-0.46,0-0.7c-1.16,0-2.32,0-3.48,0
		c0-0.23,0-0.46,0-0.7c-0.93,0-1.86,0-2.78,0c0-0.23,0-0.46,0-0.7c-0.93,0-1.86,0-2.78,0c0-0.23,0-0.46,0-0.7c-0.93,0-1.86,0-2.78,0
		c0-0.23,0-0.46,0-0.7c-0.7,0-1.39,0-2.09,0c0-0.23,0-0.46,0-0.7c-3.25,0-6.5,0-9.75,0c0-0.23,0-0.46,0-0.7c-1.39,0-2.78,0-4.18,0
		c0-0.23,0-0.46,0-0.7c-3.94,0-7.89,0-11.83,0c-3.48-0.23-6.96-0.46-10.44-0.7c0,0.23,0,0.46,0,0.7c-0.7,0-1.39,0-2.09,0
		c0,0.23,0,0.46,0,0.7c-2.78,0.23-5.57,0.46-8.35,0.7c0,0.23,0,0.46,0,0.7c-3.94,0-7.89,0-11.83,0c0,0.23,0,0.46,0,0.7
		c-0.93,0-1.86,0-2.78,0c0,0.23,0,0.46,0,0.7c-0.7,0-1.39,0-2.09,0c0,0.23,0,0.46,0,0.7c-3.02,0-6.03,0-9.05,0
		c-0.01,0-0.56,1.01-2.09,0.7c0-0.23,0-0.46,0-0.7c-1.39,0.23-2.78,0.46-4.18,0.7c-0.46-0.7-0.93-1.39-1.39-2.09
		c-0.46,0-0.93,0-1.39,0c0-0.23,0-0.46,0-0.7c-5.61-2.11-8.86,3.11-14.62,1.39c0-0.23,0-0.46,0-0.7c-0.93,0-1.86,0-2.78,0
		c0-0.23,0-0.46,0-0.7c-0.93,0-1.86,0-2.78,0c0-0.23,0-0.46,0-0.7c-0.7,0-1.39,0-2.09,0c0-0.23,0-0.46,0-0.7c-0.7,0-1.39,0-2.09,0
		c-0.51-0.22-0.29-1.57-1.39-1.39c-0.23,0.46-0.46,0.93-0.7,1.39c-1.39,0-2.78,0-4.18,0c0,0.23,0,0.46,0,0.7c-1.62,0-3.25,0-4.87,0
		c0,0.23,0,0.46,0,0.7c-3.71,0-7.43,0-11.14,0c-5.97,1.67-22.64,1.47-27.84,0c-5.49-1.55-12.91,1.26-17.4,0
		c-14.38,0-28.77,0-43.16,0c0-0.23,0-0.46,0-0.7c-0.93,0-1.86,0-2.78,0c0-0.23,0-0.46,0-0.7c-0.7,0-1.39,0-2.09,0
		c0-0.23,0-0.46,0-0.7c-0.93,0-1.86,0-2.78,0c0-0.23,0-0.46,0-0.7c-3.48,0-6.96,0-10.44,0c0-0.23,0-0.46,0-0.7
		c-1.39,0-2.78,0-4.18,0c0-0.23,0-0.46,0-0.7c-1.16,0-2.32,0-3.48,0c0-0.23,0-0.46,0-0.7c-1.16,0-2.32,0-3.48,0c0-0.23,0-0.46,0-0.7
		c-0.46,0-0.93,0-1.39,0c-0.23-0.46-0.46-0.93-0.7-1.39c-1.58-0.64-2.67,0.57-3.48,0.7c-3.71,0-7.43,0-11.14,0
		c-12.99-0.46-25.99-0.93-38.98-1.39c0-0.23,0-0.46,0-0.7c-0.7,0-1.39,0-2.09,0c0-0.23,0-0.46,0-0.7c-1.39,0-2.78,0-4.18,0
		c0-0.23,0-0.46,0-0.7c-0.93,0-1.86,0-2.78,0c0-0.23,0-0.46,0-0.7c-0.7,0-1.39,0-2.09,0c-0.97-0.64-0.01-1.8-0.7-2.78
		c-0.7-0.23-1.39-0.46-2.09-0.7c-0.46-0.7-0.93-1.39-1.39-2.09c-0.46,0-0.93,0-1.39,0c-0.23-1.86-0.46-3.71-0.7-5.57
		c-0.46-0.23-0.93-0.46-1.39-0.7c0.23-0.93,0.46-1.86,0.7-2.78c-0.23,0-0.46,0-0.7,0c0-0.46,0-0.93,0-1.39
		c-0.46-0.23-0.93-0.46-1.39-0.7c0-0.93,0-1.86,0-2.78c0.23,0,0.46,0,0.7,0c0.46-3.02,0.93-6.03,1.39-9.05
		c0.46-0.23,0.93-0.46,1.39-0.7c0-0.23,0-0.46,0-0.7c-0.23,0-0.46,0-0.7,0c-0.42-1.55-0.57-1.75-1.39-2.78c-0.23,0-0.46,0-0.7,0
		c0-0.46,0-0.93,0-1.39c-0.46-0.23-0.93-0.46-1.39-0.7c0-0.23,0-0.46,0-0.7c-0.46-0.23-0.93-0.46-1.39-0.7c0-0.93,0-1.86,0-2.78
		c-0.23,0-0.46,0-0.7,0c0-1.39,0-2.78,0-4.18c0.23,0,0.46,0,0.7,0c-0.23-2.55-0.46-5.11-0.7-7.66c-0.23,0-0.46,0-0.7,0
		c0-1.16,0-2.32,0-3.48c-0.7-0.46-1.39-0.93-2.09-1.39c0-2.32,0-4.64,0-6.96c-0.23,0-0.46,0-0.7,0c0-5.57,0-11.14,0-16.71
		c0.23,0,0.46,0,0.7,0c0.15-0.53,0.7-6.27,0.7-6.27c-0.23,0-0.46,0-0.7,0c-0.23-5.1-0.46-10.21-0.7-15.31c0.23,0,0.46,0,0.7,0
		c0-0.46,0-0.93,0-1.39c0.23,0,0.46,0,0.7,0c0.73-2.43-2.73-5.47-1.39-9.75c0.23,0,0.46,0,0.7,0c0-0.7,0-1.39,0-2.09
		c0.23,0,0.46,0,0.7,0c0.23-3.02,0.46-6.03,0.7-9.05c0.23,0,0.46,0,0.7,0c1.7-6.1-4.12-8.77-2.09-16.01c0.23,0,0.46,0,0.7,0
		c0-3.71,0-7.43,0-11.14c0.23,0,0.46,0,0.7,0c0-1.39,0-2.78,0-4.18c0.23,0,0.46,0,0.7,0c0-1.16,0-2.32,0-3.48
		c0.93-0.46,1.86-0.93,2.78-1.39c0.43-0.69,1.02-4.6,1.39-5.57c-2.39-1.38-2.04-2.17-3.48-4.18c-0.93-0.7-1.86-1.39-2.78-2.09
		c-0.46-1.39-0.93-2.78-1.39-4.18c-0.46-0.23-0.93-0.46-1.39-0.7c-0.23-1.86-0.46-3.71-0.7-5.57c-3.04-9.42-2.09-23.83-2.09-36.2
		c0.46-6.26,0.93-12.53,1.39-18.79c0.7-0.46,1.39-0.93,2.09-1.39c0.41-1.17-0.67-1.25-0.7-1.39c0-3.02,0-6.03,0-9.05
		c0.23,0,0.46,0,0.7,0c0-1.39,0-2.78,0-4.18c0.23,0,0.46,0,0.7,0c0-2.55,0-5.11,0-7.66c0.23,0,0.46,0,0.7,0c0-0.46,0-0.93,0-1.39
		c0.23,0,0.46,0,0.7,0c0.7-2.09,1.39-4.18,2.09-6.26c0.23-3.48,0.46-6.96,0.7-10.44c-0.23,0-0.46,0-0.7,0
		c0.7-4.18,1.39-8.35,2.09-12.53c0.23,0,0.46,0,0.7,0c0-0.7,0-1.39,0-2.09c0.23,0,0.46,0,0.7,0c0-0.7,0-1.39,0-2.09
		c0.23,0,0.46,0,0.7,0c0-0.93,0-1.86,0-2.78c0.23,0,0.46,0,0.7,0c0-1.39,0-2.78,0-4.18c0.23,0,0.46,0,0.7,0c0-0.46,0-0.93,0-1.39
		c0.93-0.7,1.86-1.39,2.78-2.09c0-1.16,0-2.32,0-3.48c0.23,0,0.46,0,0.7,0c0-0.46,0-0.93,0-1.39c0.46-0.23,0.93-0.46,1.39-0.7
		c0.23-1.62,0.46-3.25,0.7-4.87c-9.27-5.61-10.58-19.09-13.92-30.63c0.23-4.18,0.46-8.35,0.7-12.53c-0.23,0-0.46,0-0.7,0
		c0-0.46,0-0.93,0-1.39c-0.23,0-0.46,0-0.7,0c0-0.7,0-1.39,0-2.09c-0.23,0-0.46,0-0.7,0c0-0.46,0-0.93,0-1.39c-0.23,0-0.46,0-0.7,0
		c0-0.7,0-1.39,0-2.09c-0.23,0-0.46,0-0.7,0c-0.23-0.93-0.46-1.86-0.7-2.78c-0.23,0-0.46,0-0.7,0c0-0.7,0-1.39,0-2.09
		c-0.23,0-0.46,0-0.7,0c-0.23-1.62-0.46-3.25-0.7-4.87c-0.23,0-0.46,0-0.7,0c0-0.46,0-0.93,0-1.39c-0.23,0-0.46,0-0.7,0
		c0-1.39,0-2.78,0-4.18c-0.23,0-0.46,0-0.7,0c0-0.93,0-1.86,0-2.78c-0.23,0-0.46,0-0.7,0c0-1.39,0-2.78,0-4.18c-0.23,0-0.46,0-0.7,0
		c0-1.86,0-3.71,0-5.57c-0.23,0-0.46,0-0.7,0c0-3.02,0-6.03,0-9.05c-0.23,0-0.46,0-0.7,0c0-1.39,0-2.78,0-4.18c-0.23,0-0.46,0-0.7,0
		c0-0.93,0-1.86,0-2.78c-0.23,0-0.46,0-0.7,0c0-1.16,0-2.32,0-3.48c-0.23,0-0.46,0-0.7,0c-0.23-0.93-0.46-1.86-0.7-2.78
		c-0.23,0-0.46,0-0.7,0c0-0.7,0-1.39,0-2.09c-0.23,0-0.46,0-0.7,0c0-0.7,0-1.39,0-2.09c-0.23,0-0.46,0-0.7,0c0-0.7,0-1.39,0-2.09
		c-0.23,0-0.46,0-0.7,0c0-0.93,0-1.86,0-2.78c-0.23,0-0.46,0-0.7,0c-0.23-2.78-0.46-5.57-0.7-8.35c-0.23,0-0.46,0-0.7,0
		c-0.64-1.99,0.16-3.36-0.7-4.87c-0.46-0.23-0.93-0.46-1.39-0.7c0-4.41,0-8.82,0-13.23c-0.56-1.93-2.86-9.79-2.09-12.53
		c0.23,0,0.46,0,0.7,0c0-1.16,0-2.32,0-3.48c0.23,0,0.46,0,0.7,0c0-0.7,0-1.39,0-2.09c0.23,0,0.46,0,0.7,0c0-1.39,0-2.78,0-4.18
		c0.23,0,0.46,0,0.7,0c0-0.7,0-1.39,0-2.09c0.23,0,0.46,0,0.7,0c0-0.7,0-1.39,0-2.09c0.23,0,0.46,0,0.7,0c0-0.93,0-1.86,0-2.78
		c0.23,0,0.46,0,0.7,0c0-0.46,0-0.93,0-1.39c0.23,0,0.46,0,0.7,0c0-1.86,0-3.71,0-5.57c0.23,0,0.46,0,0.7,0
		c0.23-0.93,0.46-1.86,0.7-2.78c1.9-0.88,2.29-1.76,4.87-2.09c0-0.46,0-0.93,0-1.39c-0.7,0-1.39,0-2.09,0
		c-0.17-2.77-1.85-12.15-0.7-15.31c0.23,0,0.46,0,0.7,0c0.23-0.93,0.46-1.86,0.7-2.78c0.23,0,0.46,0,0.7,0
		c0.23-1.16,0.46-2.32,0.7-3.48c0.7-0.46,1.39-0.93,2.09-1.39c0.23-0.7,0.46-1.39,0.7-2.09c0.23,0,0.46,0,0.7,0
		c0-0.46,0-0.93,0-1.39c0.46-0.23,0.93-0.46,1.39-0.7c0-0.46,0-0.93,0-1.39c2.09-1.86,4.18-3.71,6.27-5.57c0-0.46,0-0.93,0-1.39
		c0.23,0,0.46,0,0.7,0c0.23-0.93,0.46-1.86,0.7-2.78c0.23,0,0.46,0,0.7,0c0-0.7,0-1.39,0-2.09c0.23,0,0.46,0,0.7,0
		c0-0.7,0-1.39,0-2.09c0.23,0,0.46,0,0.7,0c0-0.46,0-0.93,0-1.39c0.88-1.68,2.2-2.69,2.78-4.87c4.18-2.09,8.35-4.18,12.53-6.26
		c0.46-0.7,0.93-1.39,1.39-2.09c0.46,0,0.93,0,1.39,0c0-0.23,0-0.46,0-0.7c0.46,0,0.93,0,1.39,0c0-0.23,0-0.46,0-0.7
		c0.7,0,1.39,0,2.09,0c0-0.23,0-0.46,0-0.7c0.46,0,0.93,0,1.39,0c0-0.23,0-0.46,0-0.7c0.7,0,1.39,0,2.09,0c0-0.23,0-0.46,0-0.7
		c0.7,0,1.39,0,2.09,0c0-0.23,0-0.46,0-0.7c0.7,0,1.39,0,2.09,0c0-0.23,0-0.46,0-0.7c1.39-0.23,2.78-0.46,4.18-0.7
		c0-0.23,0-0.46,0-0.7c0.46,0,0.93,0,1.39,0c0-0.23,0-0.46,0-0.7c0.93,0,1.86,0,2.78,0c0.46-0.7,0.93-1.39,1.39-2.09
		c1.91-0.85,5.32,1.11,6.26,1.39c3.02,0,6.03,0,9.05,0c0-1.86,0-3.71,0-5.57c3.3-0.31,11.3-3.01,14.62-2.09
		c2.62,0.73,9.19,3.73,12.53,2.78c0-0.23,0-0.46,0-0.7c1.16,0,2.32,0,3.48,0c0-0.23,0-0.46,0-0.7c2.23-0.65,5.79,0.36,6.96,0.7
		c2.55,0,5.11,0,7.66,0c0-0.23,0-0.46,0-0.7c2.55,0,5.11,0,7.66,0c0-0.23,0-0.46,0-0.7c3.48,0,6.96,0,10.44,0c0-0.23,0-0.46,0-0.7
		c0.93,0,1.86,0,2.78,0c0,0.23,0,0.46,0,0.7c0.7,0,1.39,0,2.09,0c0,0.23,0,0.46,0,0.7c2.09,0.7,4.18,1.39,6.27,2.09
		c0,0.23,0,0.46,0,0.7c0.46,0,0.93,0,1.39,0c0,0.23,0,0.46,0,0.7c11.37-0.23,22.74-0.46,34.11-0.7c0,0.23,0,0.46,0,0.7
		c0.46-0.23,0.93-0.46,1.39-0.7c4.64,0.23,9.28,0.46,13.92,0.7c4.46,1.28,10.27,2.2,14.62,3.48c2.09,0,4.18,0,6.27,0
		c0,0.23,0,0.46,0,0.7c0.98,0.12-0.26-0.46,0.7-0.7c0.93,0,1.86,0,2.78,0c0.23-0.46,0.46-0.93,0.7-1.39
		c1.39-0.46,2.78-0.93,4.18-1.39c0-0.23,0-0.46,0-0.7c2.09-0.51,5.07,2.31,8.35,1.39c0-0.23,0-0.46,0-0.7c1.16,0,2.32,0,3.48,0
		c0-0.23,0-0.46,0-0.7c0.46,0,0.93,0,1.39,0c0-0.23,0-0.46,0-0.7c4.64,0,9.28,0,13.92,0c2.52-0.72,7.71-2.6,11.83-1.39
		c0,0.23,0,0.46,0,0.7c1.16,0,2.32,0,3.48,0c0,0.23,0,0.46,0,0.7c2.55,0.23,5.11,0.46,7.66,0.7c0,0.23,0,0.46,0,0.7
		c0.46,0,0.93,0,1.39,0c0,0.23,0,0.46,0,0.7c0.7,0,1.39,0,2.09,0c0,0.23,0,0.46,0,0.7c0.46,0,0.93,0,1.39,0
		c0.23,0.46,0.46,0.93,0.7,1.39c0.46,0,0.93,0,1.39,0c0.23,0.46,0.46,0.93,0.7,1.39c0.46,0,0.93,0,1.39,0c0,0.23,0,0.46,0,0.7
		c3.75,1.25,4.42-3.55,9.05-2.09c1.95,0.62,3.41,2.23,5.57,2.78c0,0.46,0,0.93,0,1.39c0.46,0.23,0.93,0.46,1.39,0.7
		c0.28,0.37,0.58,4.46,1.39,2.09c2.11,0.68,3.03-0.16,5.57-0.7c0-0.46,0-0.93,0-1.39c0.7-0.23,1.39-0.46,2.09-0.7
		c0.93-1.16,1.86-2.32,2.78-3.48c0.23,0,0.46,0,0.7,0c0-0.46,0-0.93,0-1.39c0.7-0.23,1.39-0.46,2.09-0.7c0,0.23,0,0.46,0,0.7
		c1.19,0.37,3.11,1.18,4.87,0.7c0-0.23,0-0.46,0-0.7c1.62,0,3.25,0,4.87,0c0-0.23,0-0.46,0-0.7c1.39,0,2.78,0,4.18,0
		c0-0.23,0-0.46,0-0.7c0.93,0,1.86,0,2.78,0c0-0.23,0-0.46,0-0.7c0.46,0,0.93,0,1.39,0c0-0.23,0-0.46,0-0.7c0.7,0,1.39,0,2.09,0
		c0-0.23,0-0.46,0-0.7c2.09-0.23,4.18-0.46,6.27-0.7c0-0.23,0-0.46,0-0.7c0.93,0,1.86,0,2.78,0c0-0.23,0-0.46,0-0.7
		c1.16,0,2.32,0,3.48,0c0-0.23,0-0.46,0-0.7c1.16,0,2.32,0,3.48,0c0-0.23,0-0.46,0-0.7c1.39,0,2.78,0,4.18,0c0-0.23,0-0.46,0-0.7
		c7.42-0.7,14.85-1.39,22.28-2.09c0-0.23,0-0.46,0-0.7c0.7,0,1.39,0,2.09,0c0.23-0.46,0.46-0.93,0.7-1.39
		c1.16-0.23,2.32-0.46,3.48-0.7c0-0.23,0-0.46,0-0.7c3.71-0.46,7.43-0.93,11.14-1.39c2.32,0,4.64,0,6.96,0
		c0.23-0.46,0.46-0.93,0.7-1.39c3.02,0,6.03,0,9.05,0c0,0.23,0,0.46,0,0.7c1.86,0,3.71,0,5.57,0c0,0.23,0,0.46,0,0.7
		c1.62,0,3.25,0,4.87,0c0,0.23,0,0.46,0,0.7c2.09,0,4.18,0,6.27,0c0,0.23,0,0.46,0,0.7c3.25,0,6.5,0,9.75,0c0,0.23,0,0.46,0,0.7
		c0.93,0,1.86,0,2.78,0c0,0.23,0,0.46,0,0.7c0.7,0,1.39,0,2.09,0c0,0.23,0,0.46,0,0.7c0.93,0,1.86,0,2.78,0c0,0.23,0,0.46,0,0.7
		c1.16,0,2.32,0,3.48,0c0,0.23,0,0.46,0,0.7c1.62,0,3.25,0,4.87,0c0,0.23,0,0.46,0,0.7c0.93,0.23,1.86,0.46,2.78,0.7
		c0.23,0.46,0.46,0.93,0.7,1.39c0.46,0,0.93,0,1.39,0c0,0.23,0,0.46,0,0.7c0.93,0.23,1.86,0.46,2.78,0.7
		c0.23,0.46,0.46,0.93,0.7,1.39c1.39,1.16,2.78,2.32,4.18,3.48c0,0.46,0,0.93,0,1.39c0.7,0.46,1.39,0.93,2.09,1.39
		c0,0.46,0,0.93,0,1.39c0.93,0.7,1.86,1.39,2.78,2.09c0,0.46,0,0.93,0,1.39c0.46,0.23,0.93,0.46,1.39,0.7c0,0.46,0,0.93,0,1.39
		c0.7,0.46,1.39,0.93,2.09,1.39c0,0.46,0,0.93,0,1.39c0.46,0.23,0.93,0.46,1.39,0.7c0,0.46,0,0.93,0,1.39c0.23,0,0.46,0,0.7,0
		c0.46,1.39,0.93,2.78,1.39,4.18c0.23,0,0.46,0,0.7,0c0.23,1.39,0.46,2.78,0.7,4.18c0.23,0,0.46,0,0.7,0c0,0.93,0,1.86,0,2.78
		c0.23,0,0.46,0,0.7,0c0,3.71,0,7.43,0,11.14c-0.23,0-0.46,0-0.7,0c-0.23,3.48-0.46,6.96-0.7,10.44c0.23,0,0.46,0,0.7,0
		c2.6-2.52,6.84,0.53,8.35,1.39C835.19,368.08,835.19,367.62,835.19,367.15z M742.61,319.12c-1.39-0.42-0.6,0.1-1.39-0.7
		C742.6,318.84,741.81,318.33,742.61,319.12z M569.97,327.47c0,0.46,0,0.93,0,1.39c-0.23,0-0.46,0-0.7,0c0-0.46,0-0.93,0-1.39
		C569.51,327.47,569.74,327.47,569.97,327.47z M451.63,330.95c-1.39-0.42-0.6,0.1-1.39-0.7
		C451.63,330.68,450.84,330.16,451.63,330.95z M686.92,331.65c-1.39-0.42-0.6,0.1-1.39-0.7
		C686.92,331.37,686.13,330.86,686.92,331.65z M635.41,335.83c-0.23,0-0.46,0-0.7,0c-0.23-0.7-0.46-1.39-0.7-2.09
		C635.19,334.53,634.98,334.16,635.41,335.83z M622.18,339.31c-0.23,0-0.46,0-0.7,0c0-0.23,0-0.46,0-0.7c-0.23,0-0.46,0-0.7,0
		c0-0.23,0-0.46,0-0.7c0.46,0,0.93,0,1.39,0C622.18,338.38,622.18,338.84,622.18,339.31z M659.77,337.91
		c0.62,0.29-1.34,1.36-1.39,1.39c0.23-0.46,0.46-0.93,0.7-1.39C659.31,337.91,659.54,337.91,659.77,337.91z M626.36,339.31
		c0.7,0.23,1.39,0.46,2.09,0.7c0,0.23,0,0.46,0,0.7c-0.7,0-1.39,0-2.09,0C626.36,340.24,626.36,339.77,626.36,339.31z
		 M665.34,343.48c0.23,0,0.46,0,0.7,0c0-0.23,0-0.46,0-0.7c0.23,0,0.46,0,0.7,0c0,0.46,0,0.93,0,1.39
		C665.34,343.76,666.13,344.28,665.34,343.48z M699.45,343.48c-1.39-0.42-0.6,0.1-1.39-0.7
		C699.45,343.21,698.66,342.69,699.45,343.48z M668.12,344.18c0,0.46,0,0.93,0,1.39c-0.23,0-0.46,0-0.7,0c0-0.46,0-0.93,0-1.39
		C667.66,344.18,667.89,344.18,668.12,344.18z M663.95,346.27c-1.39-0.42-0.6,0.1-1.39-0.7
		C663.94,345.99,663.15,345.48,663.95,346.27z M421,348.36c0,0.23,0,0.46,0,0.7c-1.65-0.45-1.3-0.2-2.09-1.39
		C419.61,347.89,420.31,348.12,421,348.36z M646.54,351.14c-1.39-0.42-0.6,0.1-1.39-0.7C646.54,350.86,645.75,350.35,646.54,351.14z
		 M651.42,351.84c0,0.23,0,0.46,0,0.7c-0.93,0-1.86,0-2.78,0c0-0.46,0-0.93,0-1.39C649.56,351.37,650.49,351.6,651.42,351.84z
		 M549.78,351.84c0.23,0,0.46,0,0.7,0c0.23,0.7,0.46,1.39,0.7,2.09c-0.46,0-0.93,0-1.39,0
		C549.78,353.23,549.78,352.53,549.78,351.84z M631.23,353.23c-0.23,0-0.46,0-0.7,0c0-0.23,0-0.46,0-0.7c-0.23,0-0.46,0-0.7,0
		c0-0.23,0-0.46,0-0.7c0.46,0,0.93,0,1.39,0C631.23,352.3,631.23,352.77,631.23,353.23z M700.84,352.53c-1.39-0.42-0.6,0.1-1.39-0.7
		C700.84,352.26,700.05,351.74,700.84,352.53z M589.46,353.23c-1.39-0.42-0.6,0.1-1.39-0.7
		C589.46,352.95,588.67,352.44,589.46,353.23z M595.73,355.32c-1.39-0.42-0.6,0.1-1.39-0.7
		C595.73,355.04,594.93,354.52,595.73,355.32z M438.41,356.01c0,0.46,0,0.93,0,1.39c-0.23,0-0.46,0-0.7,0c0-0.46,0-0.93,0-1.39
		C437.94,356.01,438.18,356.01,438.41,356.01z M576.24,360.19c-1.65-0.45-1.3-0.2-2.09-1.39
		C575.04,359.23,575.63,359.48,576.24,360.19z M661.16,358.8c0,0.46,0,0.93,0,1.39c-0.23,0-0.46,0-0.7,0c0-0.46,0-0.93,0-1.39
		C660.7,358.8,660.93,358.8,661.16,358.8z M754.44,359.49c0,0.46,0,0.93,0,1.39c-0.23,0-0.46,0-0.7,0c0-0.46,0-0.93,0-1.39
		C753.98,359.49,754.21,359.49,754.44,359.49z M587.37,365.76c-1.39-0.42-0.6,0.1-1.39-0.7
		C587.37,365.48,586.58,364.97,587.37,365.76z M649.33,365.76c-0.23,0-0.46,0-0.7,0c0,0.23,0,0.46,0,0.7c-0.23,0-0.46,0-0.7,0
		c0-0.46,0-0.93,0-1.39C649.33,365.48,648.54,364.97,649.33,365.76z M709.19,375.5c-1.17-0.79-0.97-0.42-1.39-2.09
		C708.51,374.01,708.78,374.61,709.19,375.5z M611.74,375.5c-0.23,0-0.46,0-0.7,0c0-0.23,0-0.46,0-0.7c-0.23,0-0.46,0-0.7,0
		c0-0.23,0-0.46,0-0.7c0.46,0,0.93,0,1.39,0C611.74,374.58,611.74,375.04,611.74,375.5z M649.33,376.2
		c-1.17-0.79-0.97-0.42-1.39-2.09C648.64,374.71,648.92,375.31,649.33,376.2z M682.05,374.81c-1.39-0.42-0.6,0.1-1.39-0.7
		C682.04,374.53,681.25,374.02,682.05,374.81z M559.53,377.59c0,0.46,0,0.93,0,1.39c-0.46,0-0.93,0-1.39,0c0-0.46,0-0.93,0-1.39
		C558.6,377.59,559.07,377.59,559.53,377.59z M732.86,378.99c0,0.46,0,0.93,0,1.39c-0.23,0-0.46,0-0.7,0c0-0.46,0-0.93,0-1.39
		C732.4,378.99,732.63,378.99,732.86,378.99z M769.06,380.38c0,0.7,0,1.39,0,2.09c-0.23,0-0.46,0-0.7,0
		c-0.23-0.93-0.46-1.86-0.7-2.78C768.13,379.91,768.6,380.15,769.06,380.38z M673.69,380.38c0,0.46,0,0.93,0,1.39
		c-0.23,0-0.46,0-0.7,0c0-0.46,0-0.93,0-1.39C673.23,380.38,673.46,380.38,673.69,380.38z M426.57,381.07c0.23,0,0.46,0,0.7,0
		c0,0.23,0,0.46,0,0.7c0.23,0,0.46,0,0.7,0c0,0.23,0,0.46,0,0.7c-0.46,0-0.93,0-1.39,0C426.57,382,426.57,381.54,426.57,381.07z
		 M717.55,382.47c0,0.46,0,0.93,0,1.39c-0.23,0-0.46,0-0.7,0c0-0.46,0-0.93,0-1.39C717.08,382.47,717.32,382.47,717.55,382.47z
		 M723.12,383.86c-1.39-0.42-0.6,0.1-1.39-0.7C723.11,383.58,722.32,383.07,723.12,383.86z M660.47,383.86c0,0.46,0,0.93,0,1.39
		c-0.23,0-0.46,0-0.7,0c0-0.46,0-0.93,0-1.39C660,383.86,660.23,383.86,660.47,383.86z M691.09,384.55c-1.39-0.42-0.6,0.1-1.39-0.7
		C691.09,384.28,690.3,383.76,691.09,384.55z M673.69,384.55c0.23,0,0.46,0,0.7,0c0,0.23,0,0.46,0,0.7c0.23,0,0.46,0,0.7,0
		c0,0.23,0,0.46,0,0.7c-0.46,0-0.93,0-1.39,0C673.69,385.48,673.69,385.02,673.69,384.55z M754.44,384.55c0,0.46,0,0.93,0,1.39
		c-0.23,0-0.46,0-0.7,0c0-0.46,0-0.93,0-1.39C753.98,384.55,754.21,384.55,754.44,384.55z M560.92,387.34c0,0.46,0,0.93,0,1.39
		c-0.23,0-0.46,0-0.7,0c0-0.46,0-0.93,0-1.39C560.46,387.34,560.69,387.34,560.92,387.34z M707.11,388.03
		c-0.23,0.46-0.46,0.93-0.7,1.39c-0.46,0-0.93,0-1.39,0c0-0.23,0-0.46,0-0.7c1.39-0.42,0.6,0.1,1.39-0.7
		C706.64,388.03,706.87,388.03,707.11,388.03z M638.19,389.43c0,0.46,0,0.93,0,1.39c-0.23,0-0.46,0-0.7,0c0-0.46,0-0.93,0-1.39
		C637.73,389.43,637.96,389.43,638.19,389.43z M705.02,391.52c-1.39-0.42-0.6,0.1-1.39-0.7
		C705.01,391.24,704.22,390.72,705.02,391.52z M725.2,390.82c0,0.46,0,0.93,0,1.39c-0.23,0-0.46,0-0.7,0c0-0.46,0-0.93,0-1.39
		C724.74,390.82,724.97,390.82,725.2,390.82z M719.64,392.91c-1.39-0.42-0.6,0.1-1.39-0.7
		C719.63,392.63,718.84,392.11,719.64,392.91z M574.15,395c0-0.23,0-0.46,0-0.7c0.7-0.23,1.39-0.46,2.09-0.7c0,0.46,0,0.93,0,1.39
		C575.54,395,574.84,395,574.15,395z M733.56,393.6c0,0.7,0,1.39,0,2.09c-0.23,0-0.46,0-0.7,0c-0.23-0.7-0.46-1.39-0.7-2.09
		C732.63,393.6,733.09,393.6,733.56,393.6z M515.68,394.3c0,0.46,0,0.93,0,1.39c-0.23,0-0.46,0-0.7,0c0-0.46,0-0.93,0-1.39
		C515.21,394.3,515.44,394.3,515.68,394.3z M597.12,394.3c0,0.46,0,0.93,0,1.39c-0.23,0-0.46,0-0.7,0c0-0.46,0-0.93,0-1.39
		C596.66,394.3,596.89,394.3,597.12,394.3z M698.06,395.69c-1.39-0.42-0.6,0.1-1.39-0.7C698.05,395.41,697.26,394.9,698.06,395.69z
		 M677.87,395.69c0,0.46,0,0.93,0,1.39c-0.23,0-0.46,0-0.7,0c0-0.46,0-0.93,0-1.39C677.4,395.69,677.64,395.69,677.87,395.69z
		 M607.56,396.39c0.46,0,0.93,0,1.39,0c0.23,0.7,0.46,1.39,0.7,2.09c-0.46,0-0.93,0-1.39,0
		C608.03,397.78,607.79,397.08,607.56,396.39z M684.83,397.08c0.23,0,0.46,0,0.7,0c0,0.23,0,0.46,0,0.7c0.23,0,0.46,0,0.7,0
		c0,0.23,0,0.46,0,0.7c-0.46,0-0.93,0-1.39,0C684.83,398.01,684.83,397.55,684.83,397.08z M755.14,397.78
		c-1.39-0.42-0.6,0.1-1.39-0.7C755.13,397.5,754.34,396.99,755.14,397.78z M708.5,398.48c0,0.46,0,0.93,0,1.39
		c-0.46,0-0.93,0-1.39,0c0-0.46,0-0.93,0-1.39C707.57,398.48,708.03,398.48,708.5,398.48z M719.64,398.48c0,0.46,0,0.93,0,1.39
		c-0.46,0-0.93,0-1.39,0c0-0.46,0-0.93,0-1.39C718.71,398.48,719.17,398.48,719.64,398.48z M541.43,402.65
		c-1.39-0.42-0.6,0.1-1.39-0.7C541.43,402.38,540.64,401.86,541.43,402.65z M769.06,403.35c0,0.46,0,0.93,0,1.39
		c-0.23,0-0.46,0-0.7,0c-0.23-0.7-0.46-1.39-0.7-2.09C768.13,402.88,768.6,403.12,769.06,403.35z M613.83,405.44
		c0,0.46,0,0.93,0,1.39c-0.23,0-0.46,0-0.7,0c0-0.46,0-0.93,0-1.39C613.36,405.44,613.59,405.44,613.83,405.44z M665.34,405.44
		c0.44,1.29-0.41,0.99-0.7,1.39c0,0.23,0,0.46,0,0.7c-0.23,0-0.46,0-0.7,0c0.23-0.7,0.46-1.39,0.7-2.09
		C664.87,405.44,665.11,405.44,665.34,405.44z M725.9,406.83c-0.23,0-0.46,0-0.7,0c0,0.23,0,0.46,0,0.7c0,0-2.71-0.1-1.39-0.7
		c0.23,0,0.46,0,0.7,0c0-0.23,0-0.46,0-0.7C725.9,406.55,725.11,406.04,725.9,406.83z M742.61,406.83c0.23,0,0.46,0,0.7,0
		c0-0.23,0-0.46,0-0.7c0.23,0,0.46,0,0.7,0c0,0.46,0,0.93,0,1.39C742.61,407.11,743.4,407.62,742.61,406.83z M663.25,408.92
		c-0.81-0.42-1.67-0.54-2.09-1.39c0.23,0,0.46,0,0.7,0c0-0.23,0-0.46,0-0.7C662.56,407.43,662.84,408.03,663.25,408.92z
		 M667.43,407.53c-0.23,0-0.46,0-0.7,0c0,0.23,0,0.46,0,0.7c-0.23,0-0.46,0-0.7,0c0-0.46,0-0.93,0-1.39
		C667.42,407.25,666.63,406.73,667.43,407.53z M772.54,408.22c0,0.46,0,0.93,0,1.39c-0.23,0-0.46,0-0.7,0c0-0.46,0-0.93,0-1.39
		C772.08,408.22,772.31,408.22,772.54,408.22z M754.44,411.7c0,0.46,0,0.93,0,1.39c-0.23,0-0.46,0-0.7,0c0-0.46,0-0.93,0-1.39
		C753.98,411.7,754.21,411.7,754.44,411.7z M774.63,412.4c-0.23,0-0.46,0-0.7,0c0,0.23,0,0.46,0,0.7c-0.23,0-0.46,0-0.7,0
		c0-0.46,0-0.93,0-1.39C774.63,412.12,773.84,411.61,774.63,412.4z M684.13,412.4c0,0.46,0,0.93,0,1.39c-0.23,0-0.46,0-0.7,0
		c0-0.46,0-0.93,0-1.39C683.67,412.4,683.9,412.4,684.13,412.4z M698.06,413.79c-1.39-0.42-0.6,0.1-1.39-0.7
		C698.05,413.51,697.26,413,698.06,413.79z M724.51,415.18c-0.23,0-0.46,0-0.7,0c0-0.23,0-0.46,0-0.7c-0.23,0-0.46,0-0.7,0
		c0-0.23,0-0.46,0-0.7c0.46,0,0.93,0,1.39,0C724.51,414.25,724.51,414.72,724.51,415.18z M618,416.58c-0.23,0-0.46,0-0.7,0
		c0,0.23,0,0.46,0,0.7c-0.23,0-0.46,0-0.7,0c0-0.46,0-0.93,0-1.39C618,416.3,617.21,415.78,618,416.58z M733.56,416.58
		c-1.39-0.42-0.6,0.1-1.39-0.7C733.56,416.3,732.76,415.78,733.56,416.58z M714.76,417.97c-0.23,0-0.46,0-0.7,0c0-0.23,0-0.46,0-0.7
		c-0.23,0-0.46,0-0.7,0c0-0.23,0-0.46,0-0.7c0.46,0,0.93,0,1.39,0C714.76,417.04,714.76,417.5,714.76,417.97z M759.31,417.97
		c0,0-0.21,0.11-1.39-1.39C758.11,416.74,759.83,417.29,759.31,417.97z M777.41,417.27c0,0.46,0,0.93,0,1.39c-0.23,0-0.46,0-0.7,0
		c0-0.46,0-0.93,0-1.39C776.95,417.27,777.18,417.27,777.41,417.27z M564.4,417.97c0,0.46,0,0.93,0,1.39c-0.23,0-0.46,0-0.7,0
		c0-0.46,0-0.93,0-1.39C563.94,417.97,564.17,417.97,564.4,417.97z M580.41,417.97c0,0.46,0,0.93,0,1.39c-0.23,0-0.46,0-0.7,0
		c0-0.46,0-0.93,0-1.39C579.95,417.97,580.18,417.97,580.41,417.97z M571.36,418.66c0,0.46,0,0.93,0,1.39c-0.23,0-0.46,0-0.7,0
		c0-0.46,0-0.93,0-1.39C570.9,418.66,571.13,418.66,571.36,418.66z M696.66,420.06c0,0.23,0,0.46,0,0.7c-0.46,0-0.93,0-1.39,0
		c-0.23-0.7-0.46-1.39-0.7-2.09C695.27,419.13,695.97,419.59,696.66,420.06z M758.62,420.06c-0.23,0-0.46,0-0.7,0
		c0-0.23,0-0.46,0-0.7c-0.23,0-0.46,0-0.7,0c0-0.23,0-0.46,0-0.7c0.46,0,0.93,0,1.39,0C758.62,419.13,758.62,419.59,758.62,420.06z
		 M564.4,420.06c0.23,0,0.46,0,0.7,0c0-0.23,0-0.46,0-0.7c0.23,0,0.46,0,0.7,0c0,0.46,0,0.93,0,1.39
		C564.41,420.33,565.2,420.85,564.4,420.06z M678.57,420.06c0,0.46,0,0.93,0,1.39c-0.23,0-0.46,0-0.7,0c0-0.46,0-0.93,0-1.39
		C678.1,420.06,678.33,420.06,678.57,420.06z M581.81,420.75c0,0.23,0,0.46,0,0.7c-0.7,0.23-1.39,0.46-2.09,0.7
		c0-0.46,0-0.93,0-1.39C580.41,420.75,581.11,420.75,581.81,420.75z M769.76,420.75c0.23,0,0.46,0,0.7,0c0,0.23,0,0.46,0,0.7
		c0.23,0,0.46,0,0.7,0c0,0.23,0,0.46,0,0.7c-0.46,0-0.93,0-1.39,0C769.76,421.68,769.76,421.22,769.76,420.75z M662.55,421.45
		c0,0.46,0,0.93,0,1.39c-0.23,0-0.46,0-0.7,0c0-0.46,0-0.93,0-1.39C662.09,421.45,662.32,421.45,662.55,421.45z M760.01,422.84
		c-0.23,0-0.46,0-0.7,0c0-0.23,0-0.46,0-0.7c-0.23,0-0.46,0-0.7,0c0-0.23,0-0.46,0-0.7c0.46,0,0.93,0,1.39,0
		C760.01,421.91,760.01,422.38,760.01,422.84z M618,422.14c0,0.23,0,0.46,0,0.7c-0.7,0.23-1.39,0.46-2.09,0.7c0-0.46,0-0.93,0-1.39
		C616.61,422.14,617.31,422.14,618,422.14z M711.28,422.84c0,0.46,0,0.93,0,1.39c-0.23,0-0.46,0-0.7,0c-0.23-0.7-0.46-1.39-0.7-2.09
		C710.35,422.38,710.82,422.61,711.28,422.84z M773.24,423.54c0,0-0.21,0.11-1.39-1.39C772.03,422.31,773.75,422.86,773.24,423.54z
		 M525.42,423.54c0.62,0.29-1.34,1.36-1.39,1.39c0.23-0.46,0.46-0.93,0.7-1.39C524.96,423.54,525.19,423.54,525.42,423.54z
		 M744.7,423.54c0,0.46,0,0.93,0,1.39c-0.23,0-0.46,0-0.7,0c0-0.46,0-0.93,0-1.39C744.23,423.54,744.46,423.54,744.7,423.54z
		 M618.7,424.23c0,0.46,0,0.93,0,1.39c-0.23,0-0.46,0-0.7,0c0-0.46,0-0.93,0-1.39C618.24,424.23,618.47,424.23,618.7,424.23z
		 M727.99,424.93c0-0.23,0-0.46,0-0.7c0.23,0,0.46,0,0.7,0c0,0.7,0,1.39,0,2.09c-0.46,0-0.93,0-1.39,0
		C727.71,424.93,727.2,425.72,727.99,424.93z M579.72,426.32c0,0-0.21,0.11-1.39-1.39C578.51,425.1,580.23,425.64,579.72,426.32z
		 M757.92,426.32c-0.23,0-0.46,0-0.7,0c0-0.23,0-0.46,0-0.7c-0.23,0-0.46,0-0.7,0c0-0.23,0-0.46,0-0.7c0.46,0,0.93,0,1.39,0
		C757.92,425.39,757.92,425.86,757.92,426.32z M776.72,426.32c-0.23,0-0.46,0-0.7,0c0-0.23,0-0.46,0-0.7c-0.23,0-0.46,0-0.7,0
		c0-0.23,0-0.46,0-0.7c0.46,0,0.93,0,1.39,0C776.72,425.39,776.72,425.86,776.72,426.32z M741.91,426.32
		c-1.39-0.42-0.6,0.1-1.39-0.7C741.91,426.04,741.12,425.53,741.91,426.32z M785.77,427.02c0-0.46,0-0.93,0-1.39
		c0.23,0,0.46,0,0.7,0c0,0.93,0,1.86,0,2.78c-0.46,0-0.93,0-1.39,0C785.49,427.02,784.97,427.81,785.77,427.02z M763.49,427.02
		c0,0.46,0,0.93,0,1.39c-0.23,0-0.46,0-0.7,0c0-0.46,0-0.93,0-1.39C763.03,427.02,763.26,427.02,763.49,427.02z M771.84,427.02
		c0,0.46,0,0.93,0,1.39c-0.23,0-0.46,0-0.7,0c0-0.46,0-0.93,0-1.39C771.38,427.02,771.61,427.02,771.84,427.02z M608.95,427.71
		c0,0.46,0,0.93,0,1.39c-0.23,0-0.46,0-0.7,0c0-0.46,0-0.93,0-1.39C608.49,427.71,608.72,427.71,608.95,427.71z M619.4,428.41
		c-0.23,0-0.46,0-0.7,0c0,0.23,0,0.46,0,0.7c-0.23,0-0.46,0-0.7,0c0-0.46,0-0.93,0-1.39C619.39,428.13,618.6,427.62,619.4,428.41z
		 M626.36,428.41c0,0.46,0,0.93,0,1.39c-0.23,0-0.46,0-0.7,0c0-0.46,0-0.93,0-1.39C625.89,428.41,626.12,428.41,626.36,428.41z
		 M774.63,429.11c-0.23,0-0.46,0-0.7,0c0,0.23,0,0.46,0,0.7c0,0-2.71-0.1-1.39-0.7c0.23,0,0.46,0,0.7,0c0-0.23,0-0.46,0-0.7
		C774.63,428.83,773.84,428.31,774.63,429.11z M705.71,429.11c0.23,0,0.46,0,0.7,0c0,0.23,0,0.46,0,0.7c0.23,0,0.46,0,0.7,0
		c0,0.23,0,0.46,0,0.7c-0.46,0-0.93,0-1.39,0C705.71,430.03,705.71,429.57,705.71,429.11z M721.03,429.11c0.23,0,0.46,0,0.7,0
		c0,0.23,0,0.46,0,0.7c0.23,0,0.46,0,0.7,0c0,0.23,0,0.46,0,0.7c-0.46,0-0.93,0-1.39,0C721.03,430.03,721.03,429.57,721.03,429.11z
		 M751.66,429.11c0,0.46,0,0.93,0,1.39c-0.23,0-0.46,0-0.7,0c0-0.46,0-0.93,0-1.39C751.19,429.11,751.42,429.11,751.66,429.11z
		 M621.48,429.8c0.62,0.29-1.34,1.36-1.39,1.39c0.23-0.46,0.46-0.93,0.7-1.39C621.02,429.8,621.25,429.8,621.48,429.8z
		 M757.23,429.8c0,0.7,0,1.39,0,2.09c-0.46,0-0.93,0-1.39,0c0-0.7,0-1.39,0-2.09C756.3,429.8,756.76,429.8,757.23,429.8z
		 M748.18,431.19c0,0.7,0,1.39,0,2.09c-0.23,0-0.46,0-0.7,0c-0.41-1.06-0.56-1.13-0.7-2.78
		C747.25,430.73,747.71,430.96,748.18,431.19z M745.39,431.19c0,0.46,0,0.93,0,1.39c-0.46,0-0.93,0-1.39,0c0-0.46,0-0.93,0-1.39
		C744.46,431.19,744.93,431.19,745.39,431.19z M754.44,431.89c-1.39-0.42-0.6,0.1-1.39-0.7
		C754.44,431.61,753.65,431.1,754.44,431.89z M723.12,433.28c0,0-0.21,0.11-1.39-1.39C721.91,432.06,723.63,432.61,723.12,433.28z
		 M750.96,432.59c-0.23,0.46-0.46,0.93-0.7,1.39c-0.46,0-0.93,0-1.39,0c0-0.23,0-0.46,0-0.7c1.39-0.42,0.6,0.1,1.39-0.7
		C750.5,432.59,750.73,432.59,750.96,432.59z M505.23,433.28c0,0.46,0,0.93,0,1.39c-0.23,0-0.46,0-0.7,0c0-0.46,0-0.93,0-1.39
		C504.77,433.28,505,433.28,505.23,433.28z M681.35,433.28c0,0.46,0,0.93,0,1.39c-0.23,0-0.46,0-0.7,0c0-0.46,0-0.93,0-1.39
		C680.89,433.28,681.12,433.28,681.35,433.28z M520.55,433.98c0,0.46,0,0.93,0,1.39c-0.23,0-0.46,0-0.7,0c0-0.46,0-0.93,0-1.39
		C520.08,433.98,520.32,433.98,520.55,433.98z M670.21,435.37c-0.23,0-0.46,0-0.7,0c0-0.23,0-0.46,0-0.7c-0.23,0-0.46,0-0.7,0
		c0-0.23,0-0.46,0-0.7c0.46,0,0.93,0,1.39,0C670.21,434.44,670.21,434.91,670.21,435.37z M684.13,436.07c-0.23,0-0.46,0-0.7,0
		c0-0.23,0-0.46,0-0.7c-0.23,0-0.46,0-0.7,0c0-0.23,0-0.46,0-0.7c0.46,0,0.93,0,1.39,0C684.13,435.14,684.13,435.6,684.13,436.07z
		 M729.38,434.67c0,0.46,0,0.93,0,1.39c-0.23,0-0.46,0-0.7,0c0-0.46,0-0.93,0-1.39C728.92,434.67,729.15,434.67,729.38,434.67z
		 M744.7,434.67c0,0.46,0,0.93,0,1.39c-0.46,0-0.93,0-1.39,0c0-0.46,0-0.93,0-1.39C743.77,434.67,744.23,434.67,744.7,434.67z
		 M475.3,435.37c0,0.46,0,0.93,0,1.39c-0.23,0-0.46,0-0.7,0c0-0.46,0-0.93,0-1.39C474.84,435.37,475.07,435.37,475.3,435.37z
		 M772.54,435.37c0,0.46,0,0.93,0,1.39c-1.39,0.42-0.6-0.1-1.39,0.7c-0.23,0-0.46,0-0.7,0c0.23-0.7,0.46-1.39,0.7-2.09
		C771.61,435.37,772.08,435.37,772.54,435.37z M736.34,436.07c0,0.7,0,1.39,0,2.09c-0.23,0-0.46,0-0.7,0c0-0.7,0-1.39,0-2.09
		C735.88,436.07,736.11,436.07,736.34,436.07z M748.87,436.76c-0.23,0-0.46,0-0.7,0c0,0.46,0,0.93,0,1.39c-0.23,0-0.46,0-0.7,0
		c0-0.7,0-1.39,0-2.09C747.48,436.07,750.16,436.1,748.87,436.76z M459.29,436.76c0,0.46,0,0.93,0,1.39c-0.23,0-0.46,0-0.7,0
		c0-0.46,0-0.93,0-1.39C458.83,436.76,459.06,436.76,459.29,436.76z M663.95,436.76c0.62,0.29-1.34,1.36-1.39,1.39
		c0.23-0.46,0.46-0.93,0.7-1.39C663.48,436.76,663.71,436.76,663.95,436.76z M757.92,437.46c0,0.23,0,0.46,0,0.7
		c-2.08-0.24-1.91-0.06-2.78-1.39C756.2,437.17,756.27,437.32,757.92,437.46z M831.71,436.76c0,0.46,0,0.93,0,1.39
		c-0.23,0-0.46,0-0.7,0c0-0.46,0-0.93,0-1.39C831.25,436.76,831.48,436.76,831.71,436.76z M732.17,437.46c0,0.46,0,0.93,0,1.39
		c-0.23,0-0.46,0-0.7,0c0-0.46,0-0.93,0-1.39C731.7,437.46,731.93,437.46,732.17,437.46z M665.34,439.55
		c-1.39-0.42-0.6,0.1-1.39-0.7C665.34,439.27,664.55,438.75,665.34,439.55z M711.98,439.55c-0.23,0-0.46,0-0.7,0
		c0,0.46,0,0.93,0,1.39c-0.23,0-0.46,0-0.7,0c0-0.7,0-1.39,0-2.09C710.59,438.85,713.26,438.89,711.98,439.55z M734.95,438.85
		c0,0.7,0,1.39,0,2.09c-0.23,0-0.46,0-0.7,0c0-0.7,0-1.39,0-2.09C734.49,438.85,734.72,438.85,734.95,438.85z M611.74,440.94
		c-0.23,0-0.46,0-0.7,0c0-0.23,0-0.46,0-0.7c-0.23,0-0.46,0-0.7,0c0-0.23,0-0.46,0-0.7c0.46,0,0.93,0,1.39,0
		C611.74,440.01,611.74,440.47,611.74,440.94z M730.77,440.24c0.23,0,0.46,0,0.7,0c0-0.23,0-0.46,0-0.7c0.23,0,0.46,0,0.7,0
		c0,0.46,0,0.93,0,1.39C730.78,440.52,731.57,441.04,730.77,440.24z M763.49,440.24c-1.39-0.42-0.6,0.1-1.39-0.7
		C763.49,439.97,762.7,439.45,763.49,440.24z M773.24,440.24c-1.39-0.42-0.6,0.1-1.39-0.7
		C773.23,439.97,772.44,439.45,773.24,440.24z M618.7,440.94c0,0.46,0,0.93,0,1.39c-0.23,0-0.46,0-0.7,0c0-0.46,0-0.93,0-1.39
		C618.24,440.94,618.47,440.94,618.7,440.94z M671.6,440.94c0.23,0,0.46,0,0.7,0c0,0.23,0,0.46,0,0.7c0.23,0,0.46,0,0.7,0
		c0,0.23,0,0.46,0,0.7c-0.46,0-0.93,0-1.39,0C671.6,441.87,671.6,441.4,671.6,440.94z M595.73,441.64c0.23,0,0.46,0,0.7,0
		c0,0.23,0,0.46,0,0.7c0.23,0,0.46,0,0.7,0c0,0.23,0,0.46,0,0.7c-0.46,0-0.93,0-1.39,0C595.73,442.56,595.73,442.1,595.73,441.64z
		 M601.3,441.64c0,0.46,0,0.93,0,1.39c-0.23,0-0.46,0-0.7,0c0-0.46,0-0.93,0-1.39C600.83,441.64,601.06,441.64,601.3,441.64z
		 M662.55,441.64c0,0.46,0,0.93,0,1.39c-0.23,0-0.46,0-0.7,0c0-0.46,0-0.93,0-1.39C662.09,441.64,662.32,441.64,662.55,441.64z
		 M695.27,443.03c0,0.7,0,1.39,0,2.09c-0.7,0-1.39,0-2.09,0c0.23-0.7,0.46-1.39,0.7-2.09C694.34,443.03,694.81,443.03,695.27,443.03
		z M730.08,443.72c0,0.46,0,0.93,0,1.39c-0.23,0-0.46,0-0.7,0c0-0.46,0-0.93,0-1.39C729.61,443.72,729.85,443.72,730.08,443.72z
		 M767.67,443.72c0,0.46,0,0.93,0,1.39c-0.23,0-0.46,0-0.7,0c0-0.46,0-0.93,0-1.39C767.2,443.72,767.44,443.72,767.67,443.72z
		 M624.27,446.51c-0.89-0.43-1.49-0.68-2.09-1.39C623.83,445.56,623.48,445.31,624.27,446.51z M631.23,445.12c0,0.46,0,0.93,0,1.39
		c-0.23,0-0.46,0-0.7,0c0-0.46,0-0.93,0-1.39C630.77,445.12,631,445.12,631.23,445.12z M737.04,447.9c-0.23,0-0.46,0-0.7,0
		c0-0.23,0-0.46,0-0.7c-0.23,0-0.46,0-0.7,0c0-0.23,0-0.46,0-0.7c0.46,0,0.93,0,1.39,0C737.04,446.97,737.04,447.44,737.04,447.9z
		 M613.13,449.29c-1.39-0.42-0.6,0.1-1.39-0.7C613.13,449.01,612.34,448.5,613.13,449.29z M606.87,449.99c-0.23,0-0.46,0-0.7,0
		c0,0.23,0,0.46,0,0.7c-0.23,0-0.46,0-0.7,0c0-0.46,0-0.93,0-1.39C606.86,449.71,606.07,449.2,606.87,449.99z M627.75,449.29
		c0,0.46,0,0.93,0,1.39c-0.23,0-0.46,0-0.7,0c0-0.46,0-0.93,0-1.39C627.28,449.29,627.52,449.29,627.75,449.29z M802.47,449.99
		c-1.39-0.42-0.6,0.1-1.39-0.7C802.47,449.71,801.68,449.2,802.47,449.99z M618.7,452.77c-0.23,0-0.46,0-0.7,0
		c-0.23-0.7-0.46-1.39-0.7-2.09C618.48,451.48,618.28,451.11,618.7,452.77z M597.12,452.08c-1.39-0.42-0.6,0.1-1.39-0.7
		C597.12,451.8,596.33,451.28,597.12,452.08z M760.71,453.47c-1.39-0.42-0.6,0.1-1.39-0.7C760.7,453.19,759.91,452.68,760.71,453.47
		z M746.09,453.47c0,0.46,0,0.93,0,1.39c-0.23,0-0.46,0-0.7,0c0-0.46,0-0.93,0-1.39C745.62,453.47,745.86,453.47,746.09,453.47z
		 M764.88,455.56c-1.39-0.42-0.6,0.1-1.39-0.7C764.88,455.28,764.09,454.76,764.88,455.56z M617.31,457.65
		c-1.07-0.63-1.47-1.01-2.09-2.09c0.46,0,0.93,0,1.39,0C616.84,456.25,617.08,456.95,617.31,457.65z M599.21,457.65
		c0,0-0.21,0.11-1.39-1.39C598,456.42,599.72,456.97,599.21,457.65z M736.34,457.65c0,0.46,0,0.93,0,1.39c-0.23,0-0.46,0-0.7,0
		c0-0.46,0-0.93,0-1.39C735.88,457.65,736.11,457.65,736.34,457.65z M753.05,457.65c0.44,1.29-0.41,0.99-0.7,1.39
		c0,0.23,0,0.46,0,0.7c-0.23,0-0.46,0-0.7,0c0.23-0.7,0.46-1.39,0.7-2.09C752.58,457.65,752.82,457.65,753.05,457.65z
		 M501.06,458.34c0,0.46,0,0.93,0,1.39c-0.23,0-0.46,0-0.7,0c0-0.46,0-0.93,0-1.39C500.59,458.34,500.82,458.34,501.06,458.34z
		 M622.18,459.04c-0.23,0-0.46,0-0.7,0c0,0.46,0,0.93,0,1.39c-0.23,0-0.46,0-0.7,0c0-0.7,0-1.39,0-2.09
		C620.79,458.34,623.46,458.38,622.18,459.04z M756.53,458.34c0,0.46,0,0.93,0,1.39c-0.46,0-0.93,0-1.39,0c0-0.46,0-0.93,0-1.39
		C755.6,458.34,756.07,458.34,756.53,458.34z M663.25,460.43c0.23,0,0.46,0,0.7,0c0-0.23,0-0.46,0-0.7c0.23,0,0.46,0,0.7,0
		c0,0.46,0,0.93,0,1.39C663.25,460.71,664.04,461.22,663.25,460.43z M675.08,459.73c0,0.23,0,0.46,0,0.7
		c-0.7,0.23-1.39,0.46-2.09,0.7c0.23-0.46,0.46-0.93,0.7-1.39C674.16,459.73,674.62,459.73,675.08,459.73z M720.33,459.73
		c0,0.46,0,0.93,0,1.39c-0.23,0-0.46,0-0.7,0c0-0.46,0-0.93,0-1.39C719.87,459.73,720.1,459.73,720.33,459.73z M467.64,460.43
		c0,0.46,0,0.93,0,1.39c-0.23,0-0.46,0-0.7,0c0-0.46,0-0.93,0-1.39C467.18,460.43,467.41,460.43,467.64,460.43z M654.9,462.52
		c-0.23,0-0.46,0-0.7,0c0-0.23,0-0.46,0-0.7c-0.23,0-0.46,0-0.7,0c0-0.23,0-0.46,0-0.7c0.46,0,0.93,0,1.39,0
		C654.9,461.59,654.9,462.05,654.9,462.52z M676.48,461.13c0,0.23,0,0.46,0,0.7c-0.7,0.23-1.39,0.46-2.09,0.7
		c0.23-0.46,0.46-0.93,0.7-1.39C675.55,461.13,676.01,461.13,676.48,461.13z M661.16,462.52c0,0.46,0,0.93,0,1.39
		c-0.23,0-0.46,0-0.7,0c0-0.46,0-0.93,0-1.39C660.7,462.52,660.93,462.52,661.16,462.52z M747.48,463.21
		c-1.39-0.42-0.6,0.1-1.39-0.7C747.48,462.94,746.69,462.42,747.48,463.21z M765.58,463.21c-1.39-0.42-0.6,0.1-1.39-0.7
		C765.58,462.94,764.79,462.42,765.58,463.21z M769.06,462.52c0,0.46,0,0.93,0,1.39c-0.23,0-0.46,0-0.7,0c0-0.46,0-0.93,0-1.39
		C768.6,462.52,768.83,462.52,769.06,462.52z M762.79,464.61c0,0-0.21,0.11-1.39-1.39C761.59,463.38,763.31,463.93,762.79,464.61z
		 M613.83,466.69c-0.23,0-0.46,0-0.7,0c-0.23-0.7-0.46-1.39-0.7-2.09c0.7-0.23,1.39-0.46,2.09-0.7c0.23,0.7,0.46,1.39,0.7,2.09
		C613.83,466.42,614.62,465.9,613.83,466.69z M497.58,466c-1.39-0.42-0.6,0.1-1.39-0.7C497.57,465.72,496.78,465.21,497.58,466z
		 M631.93,466.69c0,0.46,0,0.93,0,1.39c-0.23,0-0.46,0-0.7,0c0-0.46,0-0.93,0-1.39C631.46,466.69,631.69,466.69,631.93,466.69z
		 M645.15,467.39c-1.39-0.42-0.6,0.1-1.39-0.7C645.15,467.11,644.36,466.6,645.15,467.39z M652.81,468.09
		c0.44,1.29-0.41,0.99-0.7,1.39c0,0.23,0,0.46,0,0.7c-0.23,0-0.46,0-0.7,0c0-0.23,0-0.46,0-0.7c-0.23,0-0.46,0-0.7,0
		c-0.97-1.09,1.29-0.57,1.39-0.7c0-0.23,0-0.46,0-0.7C652.34,468.09,652.58,468.09,652.81,468.09z M757.92,468.78
		c0,0.46,0,0.93,0,1.39c-0.23,0-0.46,0-0.7,0c-0.23-0.7-0.46-1.39-0.7-2.09C756.99,468.32,757.46,468.55,757.92,468.78z
		 M598.51,468.78c0,0.7,0,1.39,0,2.09c-0.23,0-0.46,0-0.7,0c0-0.7,0-1.39,0-2.09C598.05,468.78,598.28,468.78,598.51,468.78z
		 M656.99,469.48c0.23,0,0.46,0,0.7,0c0-0.23,0-0.46,0-0.7c0.23,0,0.46,0,0.7,0c0,0.46,0,0.93,0,1.39
		C656.99,469.76,657.78,470.27,656.99,469.48z M687.61,468.78c0.23,0,0.46,0,0.7,0c0,0.23,0,0.46,0,0.7c0.23,0,0.46,0,0.7,0
		c0,0.23,0,0.46,0,0.7c-0.46,0-0.93,0-1.39,0C687.61,469.71,687.61,469.25,687.61,468.78z M656.29,470.18c0,0.46,0,0.93,0,1.39
		c-0.23,0-0.46,0-0.7,0c0-0.46,0-0.93,0-1.39C655.83,470.18,656.06,470.18,656.29,470.18z M692.49,471.57c0,0-0.21,0.11-1.39-1.39
		C691.28,470.34,693,470.89,692.49,471.57z M679.26,470.87c0,0.93,0,1.86,0,2.78c-1.39-0.42-0.6,0.1-1.39-0.7c-0.23,0-0.46,0-0.7,0
		c0.23-0.7,0.46-1.39,0.7-2.09C678.33,470.87,678.8,470.87,679.26,470.87z M757.92,470.87c0,0.46,0,0.93,0,1.39
		c-0.23,0-0.46,0-0.7,0c0-0.46,0-0.93,0-1.39C757.46,470.87,757.69,470.87,757.92,470.87z M558.83,471.57c0,0.46,0,0.93,0,1.39
		c-0.23,0-0.46,0-0.7,0c0-0.46,0-0.93,0-1.39C558.37,471.57,558.6,471.57,558.83,471.57z M689.01,471.57c0,0.46,0,0.93,0,1.39
		c-0.23,0-0.46,0-0.7,0c0-0.46,0-0.93,0-1.39C688.54,471.57,688.77,471.57,689.01,471.57z M622.88,472.26c0,0.46,0,0.93,0,1.39
		c-0.23,0-0.46,0-0.7,0c0-0.46,0-0.93,0-1.39C622.41,472.26,622.64,472.26,622.88,472.26z M721.03,474.35c-0.23,0-0.46,0-0.7,0
		c0-0.23,0-0.46,0-0.7c-0.23,0-0.46,0-0.7,0c0-0.23,0-0.46,0-0.7c0.46,0,0.93,0,1.39,0C721.03,473.42,721.03,473.89,721.03,474.35z
		 M682.74,475.05c-0.23,0-0.46,0-0.7,0c0-0.23,0-0.46,0-0.7c-0.7,0-1.39,0-2.09,0c0-0.23,0-0.46,0-0.7
		C682.04,473.89,681.87,473.72,682.74,475.05z M666.73,475.05c-1.39-0.42-0.6,0.1-1.39-0.7
		C666.73,474.77,665.94,474.26,666.73,475.05z M772.54,477.14c-1.39-0.42-0.6,0.1-1.39-0.7
		C772.54,476.86,771.75,476.34,772.54,477.14z M801.78,479.92c0,0.46,0,0.93,0,1.39c-0.23,0-0.46,0-0.7,0c0-0.46,0-0.93,0-1.39
		C801.31,479.92,801.54,479.92,801.78,479.92z M681.35,484.1c-0.7,0.46-1.39,0.93-2.09,1.39c-0.23-0.7-0.46-1.39-0.7-2.09
		c0.71-0.6,0.98-1.2,1.39-2.09c0.23,0,0.46,0,0.7,0c-0.23,0.7-0.46,1.39-0.7,2.09C681.35,483.82,680.56,483.31,681.35,484.1z
		 M755.14,481.31c0,0.46,0,0.93,0,1.39c-0.23,0-0.46,0-0.7,0c0-0.46,0-0.93,0-1.39C754.67,481.31,754.91,481.31,755.14,481.31z
		 M770.45,481.31c0.23,0,0.46,0,0.7,0c0,0.23,0,0.46,0,0.7c0.23,0,0.46,0,0.7,0c0,0.23,0,0.46,0,0.7c-0.46,0-0.93,0-1.39,0
		C770.45,482.24,770.45,481.78,770.45,481.31z M666.04,482.01c0.44,1.29-0.41,0.99-0.7,1.39c0,0.23,0,0.46,0,0.7
		c-0.23,0-0.46,0-0.7,0c0.23-0.7,0.46-1.39,0.7-2.09C665.57,482.01,665.8,482.01,666.04,482.01z M521.24,484.79
		c-1.39-0.42-0.6,0.1-1.39-0.7C521.24,484.52,520.45,484,521.24,484.79z M691.79,486.88c0,0.23,0,0.46,0,0.7
		c-0.38-0.05-2.88,0.4-2.09-0.7c0.23,0,0.46,0,0.7,0c0-0.23,0-0.46,0-0.7C690.86,486.42,691.33,486.65,691.79,486.88z
		 M764.88,488.97c-1.39-0.42-0.6,0.1-1.39-0.7C764.88,488.69,764.09,488.18,764.88,488.97z M633.32,489.67
		c0.62,0.29-1.34,1.36-1.39,1.39c0.23-0.46,0.46-0.93,0.7-1.39C632.85,489.67,633.09,489.67,633.32,489.67z M662.55,489.67
		c0,0.7,0,1.39,0,2.09c-0.52,0.84-0.7-0.7-0.7-0.7c-0.23,0-0.46,0-0.7,0c0.23-0.46,0.46-0.93,0.7-1.39
		C662.09,489.67,662.32,489.67,662.55,489.67z M801.78,491.06c0,0.46,0,0.93,0,1.39c-0.23,0-0.46,0-0.7,0c0-0.46,0-0.93,0-1.39
		C801.31,491.06,801.54,491.06,801.78,491.06z M617.31,491.75c0,0.46,0,0.93,0,1.39c-0.23,0-0.46,0-0.7,0c0-0.46,0-0.93,0-1.39
		C616.84,491.75,617.08,491.75,617.31,491.75z M657.68,492.45c0,0.46,0,0.93,0,1.39c-0.23,0-0.46,0-0.7,0c0-0.46,0-0.93,0-1.39
		C657.22,492.45,657.45,492.45,657.68,492.45z M636.1,494.54c0,0-0.21,0.11-1.39-1.39C634.9,493.32,636.61,493.86,636.1,494.54z
		 M629.14,493.84c0,0.46,0,0.93,0,1.39c-0.23,0-0.46,0-0.7,0c0-0.46,0-0.93,0-1.39C628.68,493.84,628.91,493.84,629.14,493.84z
		 M712.67,495.93c-1.39-0.42-0.6,0.1-1.39-0.7C712.67,495.65,711.88,495.14,712.67,495.93z M718.24,498.72c0,0-0.21,0.11-1.39-1.39
		C717.04,497.49,718.76,498.04,718.24,498.72z M753.05,497.32c0,0.46,0,0.93,0,1.39c-0.23,0-0.46,0-0.7,0c0-0.46,0-0.93,0-1.39
		C752.58,497.32,752.82,497.32,753.05,497.32z M640.98,498.72c-1.39-0.42-0.6,0.1-1.39-0.7
		C640.97,498.44,640.18,497.92,640.98,498.72z M622.88,500.11c-1.39-0.42-0.6,0.1-1.39-0.7
		C622.87,499.83,622.08,499.32,622.88,500.11z M639.58,499.41c0.23,0,0.46,0,0.7,0c0.23,0.7,0.46,1.39,0.7,2.09
		c-0.46,0-0.93,0-1.39,0C639.58,500.8,639.58,500.11,639.58,499.41z M788.55,500.8c0,0-0.21,0.11-1.39-1.39
		C787.34,499.58,789.06,500.13,788.55,500.8z M638.19,500.11c0,0.46,0,0.93,0,1.39c-0.23,0-0.46,0-0.7,0c0-0.46,0-0.93,0-1.39
		C637.73,500.11,637.96,500.11,638.19,500.11z M785.77,501.5c-1.39-0.42-0.6,0.1-1.39-0.7C785.76,501.22,784.97,500.71,785.77,501.5
		z M700.84,502.2c-1.39-0.42-0.6,0.1-1.39-0.7C700.84,501.92,700.05,501.4,700.84,502.2z M723.12,502.2c-0.23,0-0.46,0-0.7,0
		c0,0.23,0,0.46,0,0.7c-0.23,0-0.46,0-0.7,0c0-0.46,0-0.93,0-1.39C723.11,501.92,722.32,501.4,723.12,502.2z M651.42,502.2
		c0,0.46,0,0.93,0,1.39c-0.23,0-0.46,0-0.7,0c0-0.46,0-0.93,0-1.39C650.95,502.2,651.18,502.2,651.42,502.2z M723.81,503.59
		c0,0.46,0,0.93,0,1.39c-0.23,0-0.46,0-0.7,0c0-0.46,0-0.93,0-1.39C723.35,503.59,723.58,503.59,723.81,503.59z M636.8,506.37
		c-0.23,0-0.46,0-0.7,0c0-0.23,0-0.46,0-0.7c-0.23,0-0.46,0-0.7,0c0-0.23,0-0.46,0-0.7c0.46,0,0.93,0,1.39,0
		C636.8,505.45,636.8,505.91,636.8,506.37z M645.85,506.37c-1.39-0.42-0.6,0.1-1.39-0.7C645.85,506.1,645.05,505.58,645.85,506.37z
		 M696.66,506.37c-1.39-0.42-0.6,0.1-1.39-0.7C696.66,506.1,695.87,505.58,696.66,506.37z M796.9,509.85c0,0.46,0,0.93,0,1.39
		c-0.23,0-0.46,0-0.7,0c0-0.46,0-0.93,0-1.39C796.44,509.85,796.67,509.85,796.9,509.85z M607.56,511.25c0,0.46,0,0.93,0,1.39
		c-0.23,0-0.46,0-0.7,0c0-0.46,0-0.93,0-1.39C607.1,511.25,607.33,511.25,607.56,511.25z M671.6,512.64c0,0.46,0,0.93,0,1.39
		c-0.46,0-0.93,0-1.39,0c0-0.46,0-0.93,0-1.39C670.68,512.64,671.14,512.64,671.6,512.64z M573.45,516.81c0.23,0,0.46,0,0.7,0
		c0-0.23,0-0.46,0-0.7c0.23,0,0.46,0,0.7,0c0,0.46,0,0.93,0,1.39C573.46,517.09,574.25,517.61,573.45,516.81z M703.62,517.51
		c0,0.46,0,0.93,0,1.39c-0.23,0-0.46,0-0.7,0c0-0.46,0-0.93,0-1.39C703.16,517.51,703.39,517.51,703.62,517.51z M775.32,520.3
		c-0.46,0-0.93,0-1.39,0c0-0.23,0-0.46,0-0.7c0.93,0,1.86,0,2.78,0c0,0.46,0,0.93,0,1.39C775.33,520.57,776.12,521.09,775.32,520.3z
		 M780.2,519.6c0.23,0,0.46,0,0.7,0c0,0.23,0,0.46,0,0.7c0.23,0,0.46,0,0.7,0c0,0.23,0,0.46,0,0.7c-0.46,0-0.93,0-1.39,0
		C780.2,520.53,780.2,520.06,780.2,519.6z M739.13,521.69c-1.39-0.42-0.6,0.1-1.39-0.7C739.12,521.41,738.33,520.89,739.13,521.69z
		 M729.38,523.78c0,0.46,0,0.93,0,1.39c-0.23,0-0.46,0-0.7,0c0-0.46,0-0.93,0-1.39C728.92,523.78,729.15,523.78,729.38,523.78z
		 M547,525.17c-1.39-0.42-0.6,0.1-1.39-0.7C547,524.89,546.21,524.38,547,525.17z M737.73,525.86c-0.23,0-0.46,0-0.7,0
		c0-0.23,0-0.46,0-0.7c-0.23,0-0.46,0-0.7,0c0-0.23,0-0.46,0-0.7c0.46,0,0.93,0,1.39,0C737.73,524.94,737.73,525.4,737.73,525.86z
		 M511.5,534.91c0,0.46,0,0.93,0,1.39c-0.46,0-0.93,0-1.39,0c0-0.46,0-0.93,0-1.39C510.57,534.91,511.03,534.91,511.5,534.91z
		 M741.91,535.61c0.23,0,0.46,0,0.7,0c0,0.23,0,0.46,0,0.7c0.23,0,0.46,0,0.7,0c0,0.23,0,0.46,0,0.7c-0.46,0-0.93,0-1.39,0
		C741.91,536.54,741.91,536.07,741.91,535.61z M780.89,537c-1.39-0.42-0.6,0.1-1.39-0.7C780.89,536.72,780.1,536.21,780.89,537z
		 M704.32,538.39c0,0.46,0,0.93,0,1.39c-0.23,0-0.46,0-0.7,0c0-0.46,0-0.93,0-1.39C703.86,538.39,704.09,538.39,704.32,538.39z
		 M714.76,538.39c0,0.46,0,0.93,0,1.39c-0.46,0-0.93,0-1.39,0c0-0.46,0-0.93,0-1.39C713.83,538.39,714.3,538.39,714.76,538.39z
		 M749.57,539.79c0.44,1.29-0.41,0.99-0.7,1.39c0,0.23,0,0.46,0,0.7c-0.23,0-0.46,0-0.7,0c0.23-0.7,0.46-1.39,0.7-2.09
		C749.1,539.79,749.34,539.79,749.57,539.79z M754.44,539.79c0,0.46,0,0.93,0,1.39c-0.23,0-0.46,0-0.7,0c0-0.46,0-0.93,0-1.39
		C753.98,539.79,754.21,539.79,754.44,539.79z M659.07,542.57c0.62,0.29-1.34,1.36-1.39,1.39c0.23-0.46,0.46-0.93,0.7-1.39
		C658.61,542.57,658.84,542.57,659.07,542.57z M716.15,549.53c-1.39-0.42-0.6,0.1-1.39-0.7
		C716.15,549.25,715.36,548.74,716.15,549.53z M659.07,550.23c0-0.23,0-0.46,0-0.7c0.23,0,0.46,0,0.7,0c0,0.23,0,0.46,0,0.7
		c0.23,0,0.46,0,0.7,0c0,0.23,0,0.46,0,0.7c-0.7,0.23-1.39,0.46-2.09,0.7C658.8,550.23,658.28,551.02,659.07,550.23z M760.01,550.92
		c-1.39-0.42-0.6,0.1-1.39-0.7C760.01,550.65,759.22,550.13,760.01,550.92z M526.81,550.92c0,0.46,0,0.93,0,1.39
		c-0.23,0-0.46,0-0.7,0c0-0.46,0-0.93,0-1.39C526.35,550.92,526.58,550.92,526.81,550.92z M687.61,551.62c-0.23,0-0.46,0-0.7,0
		c0,0.23,0,0.46,0,0.7c-0.23,0-0.46,0-0.7,0c0-0.46,0-0.93,0-1.39C687.61,551.34,686.82,550.83,687.61,551.62z M659.77,552.32
		c0,0.46,0,0.93,0,1.39c-0.23,0-0.46,0-0.7,0c0-0.46,0-0.93,0-1.39C659.31,552.32,659.54,552.32,659.77,552.32z M744,555.1
		c-0.23,0-0.46,0-0.7,0c0-0.23,0-0.46,0-0.7c-0.23,0-0.46,0-0.7,0c0-0.23,0-0.46,0-0.7c0.46,0,0.93,0,1.39,0
		C744,554.17,744,554.64,744,555.1z M709.89,555.8c-1.39-0.42-0.6,0.1-1.39-0.7C709.89,555.52,709.1,555,709.89,555.8z
		 M695.97,560.67c0,0.46,0,0.93,0,1.39c-0.23,0-0.46,0-0.7,0c0-0.46,0-0.93,0-1.39C695.5,560.67,695.74,560.67,695.97,560.67z
		 M411.95,561.37c0,0.46,0,0.93,0,1.39c-0.23,0-0.46,0-0.7,0c0-0.46,0-0.93,0-1.39C411.49,561.37,411.72,561.37,411.95,561.37z
		 M621.48,562.76c-0.23,0-0.46,0-0.7,0c0,0.23,0,0.46,0,0.7c0,0-2.71-0.1-1.39-0.7c0.23,0,0.46,0,0.7,0c0-0.23,0-0.46,0-0.7
		C621.48,562.48,620.69,561.97,621.48,562.76z M673.69,569.02c0,0-0.21,0.11-1.39-1.39C672.49,567.8,674.2,568.35,673.69,569.02z
		 M671.6,568.33c0,0.46,0,0.93,0,1.39c-0.23,0-0.46,0-0.7,0c0-0.46,0-0.93,0-1.39C671.14,568.33,671.37,568.33,671.6,568.33z
		 M729.38,573.2c0,0.46,0,0.93,0,1.39c-0.23,0-0.46,0-0.7,0c0-0.46,0-0.93,0-1.39C728.92,573.2,729.15,573.2,729.38,573.2z
		 M698.06,576.68c0,0.46,0,0.93,0,1.39c-0.23,0-0.46,0-0.7,0c0-0.46,0-0.93,0-1.39C697.59,576.68,697.82,576.68,698.06,576.68z
		 M595.73,578.07c0,0.46,0,0.93,0,1.39c-0.23,0-0.46,0-0.7,0c0-0.46,0-0.93,0-1.39C595.26,578.07,595.5,578.07,595.73,578.07z
		 M618,578.77c0,0.46,0,0.93,0,1.39c-0.23,0-0.46,0-0.7,0c0-0.46,0-0.93,0-1.39C617.54,578.77,617.77,578.77,618,578.77z
		 M642.37,580.16c0,0.46,0,0.93,0,1.39c-0.23,0-0.46,0-0.7,0c0-0.46,0-0.93,0-1.39C641.9,580.16,642.14,580.16,642.37,580.16z
		 M725.2,582.95c-0.23,0-0.46,0-0.7,0c0-0.23,0-0.46,0-0.7c-0.23,0-0.46,0-0.7,0c0-0.23,0-0.46,0-0.7c0.46,0,0.93,0,1.39,0
		C725.2,582.02,725.2,582.48,725.2,582.95z M727.29,585.73c0,0.46,0,0.93,0,1.39c-0.23,0-0.46,0-0.7,0c0-0.46,0-0.93,0-1.39
		C726.83,585.73,727.06,585.73,727.29,585.73z M731.47,589.21c0,0.46,0,0.93,0,1.39c-0.23,0-0.46,0-0.7,0c0-0.46,0-0.93,0-1.39
		C731.01,589.21,731.24,589.21,731.47,589.21z M585.98,590.6c0.23,0,0.46,0,0.7,0c0,0.23,0,0.46,0,0.7c0.23,0,0.46,0,0.7,0
		c0,0.23,0,0.46,0,0.7c-0.46,0-0.93,0-1.39,0C585.98,591.53,585.98,591.07,585.98,590.6z M674.39,593.39c-0.23,0-0.46,0-0.7,0
		c-0.23-0.7-0.46-1.39-0.7-2.09C674.17,592.09,673.97,591.72,674.39,593.39z M670.91,596.17c-1.39-0.42-0.6,0.1-1.39-0.7
		C670.91,595.89,670.11,595.38,670.91,596.17z M679.26,597.56c-0.23,0-0.46,0-0.7,0c0-0.23,0-0.46,0-0.7c-0.23,0-0.46,0-0.7,0
		c0-0.23,0-0.46,0-0.7c0.46,0,0.93,0,1.39,0C679.26,596.64,679.26,597.1,679.26,597.56z M616.61,597.56c0,0.7,0,1.39,0,2.09
		c-0.23,0-0.46,0-0.7,0c0-0.7,0-1.39,0-2.09C616.15,597.56,616.38,597.56,616.61,597.56z M615.22,601.04c-0.23,0-0.46,0-0.7,0
		c0-0.23,0-0.46,0-0.7c-0.23,0-0.46,0-0.7,0c0-0.23,0-0.46,0-0.7c0.46,0,0.93,0,1.39,0C615.22,600.12,615.22,600.58,615.22,601.04z
		 M530.99,600.35c0,0.46,0,0.93,0,1.39c-0.23,0-0.46,0-0.7,0c0-0.46,0-0.93,0-1.39C530.53,600.35,530.76,600.35,530.99,600.35z
		 M748.87,604.52c0,0.46,0,0.93,0,1.39c-0.23,0-0.46,0-0.7,0c0-0.46,0-0.93,0-1.39C748.41,604.52,748.64,604.52,748.87,604.52z
		 M514.28,605.22c0,0.46,0,0.93,0,1.39c-0.23,0-0.46,0-0.7,0c0-0.46,0-0.93,0-1.39C513.82,605.22,514.05,605.22,514.28,605.22z
		 M729.38,605.22c0.23,0,0.46,0,0.7,0c0,0.23,0,0.46,0,0.7c0.23,0,0.46,0,0.7,0c0,0.23,0,0.46,0,0.7c-0.46,0-0.93,0-1.39,0
		C729.38,606.15,729.38,605.68,729.38,605.22z M739.82,607.31c-0.23,0-0.46,0-0.7,0c0-0.23,0-0.46,0-0.7c-0.23,0-0.46,0-0.7,0
		c0-0.23,0-0.46,0-0.7c0.46,0,0.93,0,1.39,0C739.82,606.38,739.82,606.85,739.82,607.31z M697.36,609.4c-0.23,0-0.46,0-0.7,0
		c0,0.23,0,0.46,0,0.7c-0.23,0-0.46,0-0.7,0c0-0.46,0-0.93,0-1.39C697.36,609.12,696.57,608.6,697.36,609.4z M753.05,610.09
		c-0.23,0-0.46,0-0.7,0c0-0.23,0-0.46,0-0.7c-0.23,0-0.46,0-0.7,0c0-0.23,0-0.46,0-0.7c0.46,0,0.93,0,1.39,0
		C753.05,609.17,753.05,609.63,753.05,610.09z M716.85,609.4c0,0.46,0,0.93,0,1.39c-0.23,0-0.46,0-0.7,0c0-0.46,0-0.93,0-1.39
		C716.39,609.4,716.62,609.4,716.85,609.4z M700.84,616.36c0,0.46,0,0.93,0,1.39c-0.23,0-0.46,0-0.7,0c0-0.46,0-0.93,0-1.39
		C700.38,616.36,700.61,616.36,700.84,616.36z M640.98,619.14c-1.39-0.42-0.6,0.1-1.39-0.7
		C640.97,618.87,640.18,618.35,640.98,619.14z M713.37,621.93c0,0.93,0,1.86,0,2.78c-0.46,0-0.93,0-1.39,0c0-0.93,0-1.86,0-2.78
		C712.44,621.93,712.91,621.93,713.37,621.93z M687.61,624.02c0,0.46,0,0.93,0,1.39c-0.23,0-0.46,0-0.7,0c0-0.46,0-0.93,0-1.39
		C687.15,624.02,687.38,624.02,687.61,624.02z M698.75,626.1c0,0.46,0,0.93,0,1.39c-0.23,0-0.46,0-0.7,0c0-0.46,0-0.93,0-1.39
		C698.29,626.1,698.52,626.1,698.75,626.1z M659.07,627.5c-1.39-0.42-0.6,0.1-1.39-0.7C659.07,627.22,658.28,626.7,659.07,627.5z
		 M771.84,628.89c0,0.46,0,0.93,0,1.39c-0.46,0-0.93,0-1.39,0c0-0.46,0-0.93,0-1.39C770.92,628.89,771.38,628.89,771.84,628.89z
		 M659.77,630.98c0.23,0,0.46,0,0.7,0c0-0.23,0-0.46,0-0.7c0.23,0,0.46,0,0.7,0c0,0.46,0,0.93,0,1.39
		C659.77,631.25,660.56,631.77,659.77,630.98z M700.14,634.46c0,0.46,0,0.93,0,1.39c-0.23,0-0.46,0-0.7,0c0-0.46,0-0.93,0-1.39
		C699.68,634.46,699.91,634.46,700.14,634.46z M706.41,635.15c-1.39-0.42-0.6,0.1-1.39-0.7
		C706.41,634.88,705.62,634.36,706.41,635.15z M723.81,635.15c0.23,0,0.46,0,0.7,0c0,0.23,0,0.46,0,0.7c0.23,0,0.46,0,0.7,0
		c0,0.23,0,0.46,0,0.7c-0.46,0-0.93,0-1.39,0C723.81,636.08,723.81,635.62,723.81,635.15z M465.56,635.85c0,0.46,0,0.93,0,1.39
		c-0.23,0-0.46,0-0.7,0c0-0.46,0-0.93,0-1.39C465.09,635.85,465.32,635.85,465.56,635.85z M671.6,640.72c0,0.46,0,0.93,0,1.39
		c-0.23,0-0.46,0-0.7,0c0-0.46,0-0.93,0-1.39C671.14,640.72,671.37,640.72,671.6,640.72z M705.02,643.51c0,0.46,0,0.93,0,1.39
		c-0.23,0-0.46,0-0.7,0c0-0.46,0-0.93,0-1.39C704.55,643.51,704.79,643.51,705.02,643.51z M647.94,645.6c0.23,0,0.46,0,0.7,0
		c0-0.23,0-0.46,0-0.7c0.23,0,0.46,0,0.7,0c0,0.46,0,0.93,0,1.39C647.94,645.87,648.73,646.39,647.94,645.6z M703.62,645.6
		c0,0.46,0,0.93,0,1.39c-0.23,0-0.46,0-0.7,0c0-0.46,0-0.93,0-1.39C703.16,645.6,703.39,645.6,703.62,645.6z M693.88,649.08
		c0.23,0,0.46,0,0.7,0c0-0.23,0-0.46,0-0.7c0.23,0,0.46,0,0.7,0c0,0.46,0,0.93,0,1.39C693.88,649.35,694.67,649.87,693.88,649.08z
		 M702.93,648.38c0,0.46,0,0.93,0,1.39c-0.23,0-0.46,0-0.7,0c0-0.46,0-0.93,0-1.39C702.46,648.38,702.7,648.38,702.93,648.38z
		 M709.19,649.77c0,0.46,0,0.93,0,1.39c-0.23,0-0.46,0-0.7,0c0-0.46,0-0.93,0-1.39C708.73,649.77,708.96,649.77,709.19,649.77z
		 M689.7,652.56c0,0.46,0,0.93,0,1.39c-0.23,0-0.46,0-0.7,0c0-0.46,0-0.93,0-1.39C689.24,652.56,689.47,652.56,689.7,652.56z
		 M684.83,654.64c-0.23,0-0.46,0-0.7,0c0,0.23,0,0.46,0,0.7c-0.23,0-0.46,0-0.7,0c0-0.46,0-0.93,0-1.39
		C684.83,654.37,684.04,653.85,684.83,654.64z M623.57,655.34c0,0.46,0,0.93,0,1.39c-0.23,0-0.46,0-0.7,0c0-0.46,0-0.93,0-1.39
		C623.11,655.34,623.34,655.34,623.57,655.34z M574.84,658.13c0,0.46,0,0.93,0,1.39c-0.23,0-0.46,0-0.7,0c0-0.46,0-0.93,0-1.39
		C574.38,658.13,574.61,658.13,574.84,658.13z M627.75,658.13c0.23,0,0.46,0,0.7,0c0,0.23,0,0.46,0,0.7c0.23,0,0.46,0,0.7,0
		c0,0.23,0,0.46,0,0.7c-0.46,0-0.93,0-1.39,0C627.75,659.05,627.75,658.59,627.75,658.13z M644.46,658.13
		c0.62,0.29-1.34,1.36-1.39,1.39c0.23-0.46,0.46-0.93,0.7-1.39C643.99,658.13,644.22,658.13,644.46,658.13z M723.81,659.52
		c-1.39-0.42-0.6,0.1-1.39-0.7C723.81,659.24,723.02,658.72,723.81,659.52z M691.79,663c0.44,1.29-0.41,0.99-0.7,1.39
		c0,0.23,0,0.46,0,0.7c-0.23,0-0.46,0-0.7,0c0.23-0.7,0.46-1.39,0.7-2.09C691.33,663,691.56,663,691.79,663z M663.95,666.48
		c0,0.46,0,0.93,0,1.39c-0.23,0-0.46,0-0.7,0c0-0.46,0-0.93,0-1.39C663.48,666.48,663.71,666.48,663.95,666.48z M779.5,667.87
		c0.23,0,0.46,0,0.7,0c0-0.23,0-0.46,0-0.7c0.23,0,0.46,0,0.7,0c0,0.46,0,0.93,0,1.39C779.5,668.15,780.29,668.66,779.5,667.87z
		 M685.53,667.87c0,0.46,0,0.93,0,1.39c-0.23,0-0.46,0-0.7,0c0-0.46,0-0.93,0-1.39C685.06,667.87,685.29,667.87,685.53,667.87z
		 M544.22,668.57c0,0.46,0,0.93,0,1.39c-0.23,0-0.46,0-0.7,0c0-0.46,0-0.93,0-1.39C543.75,668.57,543.98,668.57,544.22,668.57z
		 M729.38,669.26c0.23,0,0.46,0,0.7,0c0-0.23,0-0.46,0-0.7c0.23,0,0.46,0,0.7,0c0,0.46,0,0.93,0,1.39
		C729.38,669.54,730.17,670.06,729.38,669.26z M677.87,670.66c0,0.46,0,0.93,0,1.39c-0.46,0-0.93,0-1.39,0c0-0.46,0-0.93,0-1.39
		C676.94,670.66,677.4,670.66,677.87,670.66z M671.6,672.05c0.23,0,0.46,0,0.7,0c0-0.23,0-0.46,0-0.7c0.23,0,0.46,0,0.7,0
		c0,0.46,0,0.93,0,1.39C671.61,672.32,672.4,672.84,671.6,672.05z M661.16,672.05c0.23,0,0.46,0,0.7,0c0,0.23,0,0.46,0,0.7
		c0.23,0,0.46,0,0.7,0c0,0.23,0,0.46,0,0.7c-0.46,0-0.93,0-1.39,0C661.16,672.98,661.16,672.51,661.16,672.05z M750.96,674.14
		c0,0.46,0,0.93,0,1.39c-0.23,0-0.46,0-0.7,0c0-0.46,0-0.93,0-1.39C750.5,674.14,750.73,674.14,750.96,674.14z M709.19,676.22
		c-1.39-0.42-0.6,0.1-1.39-0.7C709.19,675.95,708.4,675.43,709.19,676.22z M729.38,676.92c0,0.46,0,0.93,0,1.39
		c-0.23,0-0.46,0-0.7,0c0-0.46,0-0.93,0-1.39C728.92,676.92,729.15,676.92,729.38,676.92z M679.26,678.31c0,0.46,0,0.93,0,1.39
		c-0.23,0-0.46,0-0.7,0c0-0.46,0-0.93,0-1.39C678.8,678.31,679.03,678.31,679.26,678.31z M679.26,681.1c-1.39-0.42-0.6,0.1-1.39-0.7
		C679.26,680.82,678.47,680.3,679.26,681.1z M711.98,682.49c-0.23,0-0.46,0-0.7,0c0-0.23,0-0.46,0-0.7c-0.23,0-0.46,0-0.7,0
		c0-0.23,0-0.46,0-0.7c0.46,0,0.93,0,1.39,0C711.98,681.56,711.98,682.02,711.98,682.49z M708.5,682.49c-1.39-0.42-0.6,0.1-1.39-0.7
		C708.5,682.21,707.7,681.7,708.5,682.49z M694.58,684.58c-1.39-0.42-0.6,0.1-1.39-0.7C694.57,684.3,693.78,683.78,694.58,684.58z
		 M757.92,688.06c0,0.46,0,0.93,0,1.39c-0.23,0-0.46,0-0.7,0c0-0.46,0-0.93,0-1.39C757.46,688.06,757.69,688.06,757.92,688.06z
		 M730.08,691.54c-1.39-0.42-0.6,0.1-1.39-0.7C730.07,691.26,729.28,690.75,730.08,691.54z M751.66,691.54c0,0.46,0,0.93,0,1.39
		c-0.23,0-0.46,0-0.7,0c0-0.46,0-0.93,0-1.39C751.19,691.54,751.42,691.54,751.66,691.54z M662.55,695.72c0,0.46,0,0.93,0,1.39
		c-0.23,0-0.46,0-0.7,0c0-0.46,0-0.93,0-1.39C662.09,695.72,662.32,695.72,662.55,695.72z M693.18,695.72c0,0.46,0,0.93,0,1.39
		c-0.46,0-0.93,0-1.39,0c0-0.46,0-0.93,0-1.39C692.26,695.72,692.72,695.72,693.18,695.72z M589.46,697.8c0,0.46,0,0.93,0,1.39
		c-0.23,0-0.46,0-0.7,0c0-0.46,0-0.93,0-1.39C589,697.8,589.23,697.8,589.46,697.8z M737.04,699.89c0,0.46,0,0.93,0,1.39
		c-0.23,0-0.46,0-0.7,0c0-0.46,0-0.93,0-1.39C736.57,699.89,736.81,699.89,737.04,699.89z M780.89,708.94c-0.23,0-0.46,0-0.7,0
		c0-0.23,0-0.46,0-0.7c-0.23,0-0.46,0-0.7,0c0-0.23,0-0.46,0-0.7c0.46,0,0.93,0,1.39,0C780.89,708.01,780.89,708.48,780.89,708.94z
		 M722.42,710.33c-1.39-0.42-0.6,0.1-1.39-0.7C722.42,710.06,721.63,709.54,722.42,710.33z M749.57,717.99c-0.23,0-0.46,0-0.7,0
		c-0.23-0.93-0.46-1.86-0.7-2.78C749.11,716.01,749.27,716.47,749.57,717.99z M750.26,720.08c-0.23,0-0.46,0-0.7,0
		c0-0.23,0-0.46,0-0.7c-0.23,0-0.46,0-0.7,0c0-0.23,0-0.46,0-0.7c0.46,0,0.93,0,1.39,0C750.26,719.15,750.26,719.61,750.26,720.08z
		 M744,724.95c0,0.7,0,1.39,0,2.09c-0.23,0-0.46,0-0.7,0c-0.41-1.06-0.56-1.13-0.7-2.78C743.07,724.49,743.54,724.72,744,724.95z
		 M731.47,732.61c-0.9-0.57-0.83-0.48-1.39-1.39c-0.46,0-0.93,0-1.39,0c0-0.23,0-0.46,0-0.7c0.93,0.23,1.86,0.46,2.78,0.7
		C731.47,731.68,731.47,732.14,731.47,732.61z M798.3,751.4c0,0.46,0,0.93,0,1.39c-0.23,0-0.46,0-0.7,0c0-0.46,0-0.93,0-1.39
		C797.83,751.4,798.06,751.4,798.3,751.4z M524.03,757.67c0,0.46,0,0.93,0,1.39c-0.23,0-0.46,0-0.7,0c0-0.46,0-0.93,0-1.39
		C523.56,757.67,523.8,757.67,524.03,757.67z M732.86,768.11c-1.39-0.42-0.6,0.1-1.39-0.7
		C732.86,767.83,732.07,767.32,732.86,768.11z M741.91,768.11c-1.39-0.42-0.6,0.1-1.39-0.7
		C741.91,767.83,741.12,767.32,741.91,768.11z M536.56,771.59c-1.39-0.42-0.6,0.1-1.39-0.7
		C536.56,771.31,535.77,770.8,536.56,771.59z M583.89,775.07c-1.39-0.42-0.6,0.1-1.39-0.7C583.89,774.79,583.1,774.28,583.89,775.07
		z M530.99,780.64c-1.39-0.42-0.6,0.1-1.39-0.7C530.99,780.36,530.2,779.85,530.99,780.64z M802.47,795.95c0,0.46,0,0.93,0,1.39
		c-0.23,0-0.46,0-0.7,0c0-0.46,0-0.93,0-1.39C802.01,795.95,802.24,795.95,802.47,795.95z M625.66,800.13c0,0.46,0,0.93,0,1.39
		c-0.23,0-0.46,0-0.7,0c0-0.46,0-0.93,0-1.39C625.2,800.13,625.43,800.13,625.66,800.13z M640.28,802.92c-0.23,0-0.46,0-0.7,0
		c0-0.23,0-0.46,0-0.7c-0.23,0-0.46,0-0.7,0c0-0.23,0-0.46,0-0.7c0.46,0,0.93,0,1.39,0C640.28,801.99,640.28,802.45,640.28,802.92z
		 M803.17,839.81c0,0-0.21,0.11-1.39-1.39C801.96,838.59,803.68,839.13,803.17,839.81z M819.88,847.47c0,0.46,0,0.93,0,1.39
		c-0.23,0-0.46,0-0.7,0c0-0.46,0-0.93,0-1.39C819.41,847.47,819.64,847.47,819.88,847.47z"/>
</g>
</svg>
