<?xml version="1.0" encoding="utf-8"?>
<!-- Generator: Adobe Illustrator 24.1.3, SVG Export Plug-In . SVG Version: 6.00 Build 0)  -->
<svg version="1.1" id="圖層_1" xmlns="http://www.w3.org/2000/svg" xmlns:xlink="http://www.w3.org/1999/xlink" x="0px" y="0px"
	 viewBox="0 0 1200 1200" style="enable-background:new 0 0 1200 1200;" xml:space="preserve">
<style type="text/css">
	.st0{fill-rule:evenodd;clip-rule:evenodd;}
</style>
<g>
	<path d="M391.22,583.01c0.33-7.84,3.41-9.91,4.64-13.06c1.23-3.15,1.66-7.67,1.66-7.67s5.7,0.36,12.31,0.19
		c6.61-0.17,22.06-3.01,34.03-4.46c11.98-1.45,42.69-2.15,51.66-2.47c8.97-0.32,11.88-6.88,20.73-5.3
		c8.85,1.58,30.07,0.28,33.87,0.52s12.39,1.37,20.9,1.32c8.51-0.05,14.17,3.39,18.81,1.92c4.64-1.47,58.18-8.08,66.81-10.03
		s26.86-9.46,36.56-9.58c9.69-0.12,29.42,1.27,37.4,0.3c7.99-0.96,22.85-1.64,28.33-4.82c5.48-3.18,9.43-0.58,11.83-3.8
		s9.86,6.49,15.4,11.83c5.53,5.34,23.03,28.16,22.96,38.57c-0.07,10.41-2.56,31.39-14.61,43.25s-37.83,27.41-64.98,32.16
		s-110.35,13.89-131.9,13.56c-21.55-0.33-97.26,11.19-124.85,8.87s-45.82-6.41-53.64-10.42s-18.65-18.49-23.48-27.89
		C390.83,626.57,390.36,603.65,391.22,583.01z"/>
</g>
</svg>
