<?xml version="1.0" encoding="utf-8"?>
<!-- Generator: Adobe Illustrator 24.1.3, SVG Export Plug-In . SVG Version: 6.00 Build 0)  -->
<svg version="1.1" id="圖層_1" xmlns="http://www.w3.org/2000/svg" xmlns:xlink="http://www.w3.org/1999/xlink" x="0px" y="0px"
	 viewBox="0 0 1200 1200" style="enable-background:new 0 0 1200 1200;" xml:space="preserve">
<style type="text/css">
	.st0{fill-rule:evenodd;clip-rule:evenodd;}
</style>
<g>
	<path d="M337.53,628.95c-8.34-13.73-9.23-26.36-10.02-30.06s-3.95-6.06-4.75-11.34s-0.26-20.04,0.26-24.78s3.43-18.45,1.85-23.2
		c-1.58-4.75,0.53-16.08-1.85-20.56s-2.9-11.07-2.9-16.35c0-5.27,1.05-10.02,1.32-12.65c0.26-2.64-0.26-5.8,1.05-6.85
		s4.22-0.79,5.8,0s0.53,0.53,0.53,3.43c0,2.9-2.37,2.64-2.37,2.64s2.64-1.58,3.43,3.95c0.79,5.54,0.53,13.97,1.58,17.4
		c1.05,3.43,6.59,8.17,8.7,12.39s0,9.75,6.59,12.92c6.59,3.16,13.56-0.69,24.52,3.69c5.27,2.11,8.44,2.64,11.86,2.37
		c3.43-0.26,6.33-0.79,8.17,1.58c1.85,2.37,3.95,0.53,8.44,1.85c4.48,1.32,8.7,3.16,12.39,3.95c3.69,0.79,19.77,1.58,27.68,3.43
		c7.91,1.85,17.66,4.22,20.56,4.22c2.9,0,10.28-1.85,13.45,0c3.16,1.85,5.27,2.9,9.23,2.9c3.95,0,10.55-2.37,14.24-1.58
		c3.69,0.79,9.75,2.64,13.45,2.9c3.69,0.26,15.03,0.53,18.45,2.11s10.02,3.95,13.97,3.95s8.44,1.32,11.34,2.37
		c2.9,1.05,9.75,1.05,13.45,2.11c3.69,1.05,5.8-0.79,13.45,1.58c0,0,13.97-1.58,20.56,1.58c0,0,11.43-1.01,17.14,1.85
		c2.11,1.05,5.01-1.85,8.7-0.79c0,0,5.54-2.37,10.55-1.85s29.26,0.79,33.22,0.53c3.95-0.26,7.12-3.69,14.24-3.16
		c7.12,0.53,10.55,0.53,11.86,0.26c1.32-0.26,10.02-3.16,15.29-3.43c5.27-0.26,10.81-1.05,11.86-1.05s4.22-3.43,11.34-3.95
		s18.98-3.43,22.41-3.69c3.43-0.26,11.07-1.32,13.71-2.64c2.64-1.32,2.11-2.9,8.7-2.9c6.59,0,5.54-1.85,13.18-1.32
		c7.65,0.53,17.14,1.58,22.41,1.58s8.44-3.16,14.5,1.32c6.06,4.48,15.03,15.55,17.14,19.51c2.11,3.95,3.16,14.76,4.75,15.55
		s9.75,7.65,12.92,10.02c3.16,2.37,8.44,10.28,11.34,11.86c2.9,1.58,1.32,3.95,0.79,5.8c-0.53,1.85,1.58,4.22,1.85,5.8
		c0.26,1.58-1.58,5.27-3.69,7.38s-5.27,4.22-8.44,4.48c-3.16,0.26-6.06-2.11-10.81,1.05s-8.17,10.02-12.65,15.03
		s-5.27,10.55-11.07,13.97c-5.8,3.43-3.95,7.12-20.56,14.76c-16.61,7.65-37.17,13.71-39.55,15.03c-2.37,1.32-4.75,3.95-10.55,4.48
		s-5.8,1.58-10.02,2.9c-4.22,1.32-11.34,1.85-13.97,2.64c-2.64,0.79-1.32,3.43-14.5,4.22c-13.18,0.79-32.16,3.16-34.27,3.16
		s-16.87,3.16-28.74,3.43c-11.86,0.26-18.72,0.79-26.36,0.79s-12.65-1.85-16.61-2.37s-29.26-4.22-32.69-5.01
		c-3.43-0.79-13.97,0.53-17.93-1.05c-3.95-1.58-12.39-1.58-16.35-3.43c-3.95-1.85-7.65-1.05-12.13-1.05
		c-4.48,0-22.41-1.05-27.95-2.64c-5.54-1.58-10.81-4.48-13.97-5.01c-3.16-0.53-8.44-0.26-13.71-1.05
		c-5.27-0.79-7.65-3.16-10.55-3.43c-2.9-0.26-7.38-1.32-11.86-2.37c-4.48-1.05-10.02-1.85-14.76-3.16
		c-4.75-1.32-14.76-3.69-34.01-11.86c-19.25-8.17-28.21-9.49-34.27-13.97c-6.06-4.48-9.49-6.06-14.5-9.23
		S346.5,643.72,337.53,628.95z"/>
</g>
</svg>
