<?xml version="1.0" encoding="utf-8"?>
<!-- Generator: Adobe Illustrator 24.1.3, SVG Export Plug-In . SVG Version: 6.00 Build 0)  -->
<svg version="1.1" id="圖層_1" xmlns="http://www.w3.org/2000/svg" xmlns:xlink="http://www.w3.org/1999/xlink" x="0px" y="0px"
	 viewBox="0 0 1200 1200" style="enable-background:new 0 0 1200 1200;" xml:space="preserve">
<style type="text/css">
	.st0{fill-rule:evenodd;clip-rule:evenodd;}
</style>
<g>
	<path d="M698.64,434.79c1.71-0.62,5.74,1.58,5.74,1.58l4.55,5.54c0,0,4.55,0.99,5.54,0.99s4.95,6.93,5.94,8.11
		c0.99,1.19,1.98,7.72,1.98,7.72s-0.2,11.28,0.59,12.67s1.98,2.77,1.78,4.16s-0.79,5.54-0.4,6.73c0.4,1.19,2.57,8.31,2.38,12.07
		s-0.59,6.73,0.4,9.3c0.99,2.57,2.57,4.16,2.57,11.48s-1.98,21.18-0.99,24.54c0.99,3.36,2.38,8.11,1.98,12.87
		c-0.4,4.75,1.19,18.41,0.4,22.37c-0.79,3.96-2.57,11.48-1.98,14.25c0.59,2.77,1.78,4.95,1.78,4.95s0.2,2.38-1.58,2.97
		c0,0-0.2,7.92,0.2,10.89c0.4,2.97-0.4,6.93,0,8.51c0.4,1.58,1.98,1.19,1.39,5.94c-0.59,4.75-0.4,15.83-0.79,18.21
		c-0.4,2.38-1.78,3.36-1.78,3.36s-0.4,3.96,0.79,5.34c1.19,1.39,2.18,5.74,1.98,10.29c-0.2,4.55-1.19,11.08-0.99,12.87
		c0.2,1.78,1.19,5.54,0.59,9.7c-0.59,4.16-1.39,12.27-1.58,15.64c-0.2,3.36,0.2,8.71-0.4,9.5s-1.39,1.58-2.38,7.92
		c-0.99,6.33-2.18,20.39-5.54,26.32c-3.36,5.94-8.51,15.83-10.69,19.2s-2.77,3.76-4.75,4.55v-1.78c0,0-6.14-0.99-7.13-1.19
		c-0.99-0.2-1.58-0.99-2.38-2.38c-0.79-1.39-2.38-2.77-2.38-4.35c0-1.58,0.99-3.96,0.99-3.96s-0.99-2.38-1.19-3.96
		s1.39-8.91,1.98-12.47c0.59-3.56,0.99-13.66,1.98-16.63s4.75-6.33,4.95-9.3c0.2-2.97,0.59-13.85,0-18.41
		c-0.59-4.55-2.18-12.47-2.18-19.2s1.39-12.87,1.98-16.43c0.59-3.56-1.39-12.27-1.19-18.8s1.19-13.46,1.19-17.62
		c0-4.16-0.2-8.31,0.2-12.47c0.4-4.16,2.38-6.14,1.98-8.51c-0.4-2.38-2.97-3.17-3.36-6.93c-0.4-3.76,0.4-4.95,0.99-5.74
		c0.59-0.79-1.19-10.49-0.99-13.46c0.2-2.97-1.39-11.28-0.79-17.02c0.59-5.74,0.79-8.11,0.79-11.28c0-3.17,0-15.83,0.2-19.59
		c0.2-3.76,1.19-6.93,0.2-10.09c-0.99-3.17-3.36-2.18-3.56-12.27c-0.2-10.09-0.2-11.48,0.79-15.04c0.99-3.56-0.2-10.09,0-13.06
		c0.2-2.97,1.58-4.95,1.58-8.71s0-4.75-0.79-6.73c-0.79-1.98-2.38-3.56-2.38-6.73c0-3.17,0.2-9.7,0.2-11.28
		c0-1.58-1.19-1.39-1.19-1.39S696.46,435.58,698.64,434.79z"/>
	<path d="M474.98,455.18c2.57-0.99,8.91-0.99,10.69-0.59c1.78,0.4,4.55,0.59,4.95,1.98s0.2,2.38,0.2,2.38s0.79,0.2,1.58,0.99
		c0.79,0.79,1.58,2.77,1.58,2.77s-1.19,1.98-1.58,4.16s-0.2,3.17-1.78,5.74c-1.58,2.57-1.78,3.96-2.18,5.34
		c-0.4,1.39-3.56,3.17-3.56,3.17s-0.4,7.13-0.59,9.5c-0.2,2.38-1.39,2.77-1.39,2.77s2.18,3.36,1.98,5.94
		c-0.2,2.57-1.19,4.35-0.2,6.33c0.99,1.98,3.56,3.96,4.16,5.94c0.59,1.98,2.97,4.75,4.55,6.53s1.39,5.34,1.39,7.72
		c0,2.38,0.79,8.71,1.98,10.49c1.19,1.78,0.59,5.94,1.39,7.92s3.96,8.51,4.35,10.69c0.4,2.18,1.58,2.97,2.77,6.14
		c1.19,3.17,2.18,5.74,3.17,7.32c0.99,1.58,5.54,8.51,7.72,13.46c2.18,4.95,3.76,9.7,4.35,11.88c0.59,2.18,0.99,3.76,0.99,3.76
		s3.96,5.94,5.34,8.71c1.39,2.77,3.17,4.75,3.36,7.32s-0.4,12.47-0.4,14.84c0,2.38,0.4,7.92-0.99,8.91
		c-1.39,0.99-4.55,4.75-4.75,5.94c-0.2,1.19-0.59,4.95-2.57,5.74s-3.56,0.99-4.35,1.19s-3.76-1.19-6.73-7.32
		c-2.97-6.14-4.95-11.68-5.74-13.66c-0.79-1.98-8.91-16.23-10.09-18.41c-1.19-2.18-4.95-9.5-6.53-11.88
		c-1.58-2.38-3.56-8.11-4.75-10.09c-1.19-1.98-3.76-7.32-4.55-9.1c-0.79-1.78-0.4-3.17-1.58-3.96c-1.19-0.79-2.38-1.78-2.77-4.16
		c-0.4-2.38-0.59-4.55-0.79-5.54c-0.2-0.99-3.56-5.94-4.35-8.31c-0.79-2.38-1.98-7.52-1.98-7.52s-1.39-2.18-1.98-6.93
		s-2.18-5.74-3.17-10.09c-0.99-4.35-1.39-10.49-2.38-12.67c-0.99-2.18-4.55-14.84-4.35-19.2c0.2-4.35,1.78-6.33,2.18-10.29
		c0.4-3.96-1.39-8.11,0.59-12.67c1.98-4.55,6.33-12.27,7.52-13.85C466.87,462.89,474.98,455.18,474.98,455.18z"/>
	<path d="M645.59,499.91c0.99-0.59,5.15-1.58,5.94-1.58c0.79,0,6.73,6.93,6.73,6.93s2.18,3.76,3.96,4.55
		c1.78,0.79,3.17,4.16,3.17,4.16s-0.79,8.71-1.39,10.89c-0.59,2.18-1.58,4.55-0.79,7.13s1.98,6.53,2.77,8.91
		c0.79,2.38,3.36,15.04,3.17,19c-0.2,3.96-1.39,7.72-0.99,9.9c0.4,2.18,1.58,4.75,1.58,7.72c0,2.97-0.99,5.15-0.79,7.72
		c0.2,2.57,0.59,10.89,0.2,15.04c-0.4,4.16-0.79,11.08-1.98,13.85c-1.19,2.77-6.53,6.53-5.94,8.71s-2.18,12.27-1.98,17.22
		s-1.58,31.87-1.58,36.81c0,4.95-0.4,9.9-2.38,15.64s-6.93,22.56-6.93,22.56s1.64,3.78-0.59,8.51c-1.78,3.76-1.98,4.16-3.36,3.36
		c-1.39-0.79-2.57-2.77-2.57-2.77s-3.56-1.19-4.55-1.78c-0.99-0.59-2.57,0.4-3.96,0c-1.39-0.4-4.16-4.16-4.16-4.16
		s0.59-7.52,0.4-10.29s2.77-11.28,2.97-19c0.2-7.72,1.78-42.16,2.57-47.9s2.38-18.21,2.18-23.16c-0.2-4.95,0-20.19,0.99-25.14
		c0.99-4.95,2.57-11.68,2.57-11.68s0-15.24,0.99-18.41c0.99-3.17,2.77-7.13,2.97-9.7c0.2-2.57,0.4-5.34,0.4-5.34s-2.18,0-2.18-1.98
		c0-1.98,1.78-6.53,2.57-8.71c0.79-2.18-0.2-5.34-1.19-6.73c-0.99-1.39-1.39-5.54-1.19-7.92c0.2-2.38,1.98-12.27,2.18-14.65
		S645.59,499.91,645.59,499.91z"/>
	<path d="M736.24,478.13c0,0,3.36-1.78,4.35-2.38s2.38,0,2.38,0s2.38-3.17,4.95-3.96c2.57-0.79,5.74,1.58,7.13,2.38
		c1.39,0.79,3.96,3.96,3.96,3.96s0.79,4.55,0.59,10.49c-0.2,5.94-0.99,14.84-1.78,17.22s-1.98,2.77-1.98,4.95s0.99,6.93,0.79,7.72
		c-0.2,0.79-1.78,4.95-1.78,4.95s1.98,4.16,0,10.29c-1.98,6.14-2.77,9.7-3.96,11.28c-1.19,1.58-3.17,2.77-3.36,3.56
		s0.79,3.36,1.58,4.95s2.18,3.36,2.38,5.54s2.18,18.41,3.17,22.96s3.17,14.45,4.35,19c1.19,4.55,1.58,13.06,1.58,13.06
		s1.98,4.55,2.38,10.29c0.4,5.74,1.58,15.64,1.58,15.64s7.13,10.89,8.91,21.18s1.39,24.94,1.19,29.49s-0.4,7.72-0.99,10.69
		c-0.59,2.97-2.77,4.55-2.97,5.74c-0.2,1.19-0.99,2.77-0.99,2.77s-8.31-0.4-9.3-1.19c-0.99-0.79-7.72-5.34-7.72-5.34
		s-2.57-0.2-2.97-0.99c-0.4-0.79-5.34-10.29-5.94-11.68c-0.59-1.39-0.99-11.68-1.58-15.24c-0.59-3.56-1.78-8.91-2.38-14.25
		c-0.59-5.34-0.59-16.23-1.39-18.6c-0.79-2.38-2.97-7.32-3.56-14.45c-0.59-7.13-2.57-33.45-4.16-46.12
		c-1.58-12.67-2.57-26.32-1.78-29.49s-0.4-6.93-0.4-10.29s1.39-21.18,2.18-27.12c0.79-5.94,2.77-10.89,3.17-13.26
		C734.26,499.51,736.24,478.13,736.24,478.13z"/>
	<path d="M647.47,464.48l5.05-0.89l4.75-8.31c0,0,4.45,1.19,6.53,1.48c2.08,0.3,2.08-0.3,2.82,0.15c0.74,0.45,0.3,1.93,0.3,1.93
		s4.45,4.9,5.64,6.83c1.19,1.93,6.09,8.61,7.27,11.73s2.08,3.27,2.23,5.05c0.15,1.78,0.3,8.16,0.3,8.16s4.16,2.23,5.2,6.53
		c1.04,4.3,1.19,7.72,0.59,10.84c-0.59,3.12-0.3,11.73-0.3,11.73s3.12,2.52,3.41,4.45s1.19,7.57,1.19,7.57s1.93,0.89,1.93,4.16
		s0,12.17,0.45,12.91c0.45,0.74,2.38,2.23,2.23,4.9s2.38,8.46,3.27,13.21c0.89,4.75,2.67,15.59,2.52,21.23
		c-0.15,5.64-2.23,16.48-2.23,16.92s4.45,8.31,5.34,16.77c0.89,8.46,3.12,17.52,3.12,17.52s3.41,2.38,3.86,4.9
		c0.45,2.52,0.59,6.83,0.59,6.83s1.93,4.45,3.41,6.98c1.48,2.52,1.63,5.94,1.48,8.76s-0.3,3.71-0.89,3.71
		c-0.59,0-4.75,0.59-7.87-0.3c-3.12-0.89-14.25-8.76-15.29-12.32c-1.04-3.56-0.45-5.2-0.45-5.2s-1.48-0.45-2.97-3.71
		s-8.61-19.3-9.95-24.34s-0.59-8.61-0.89-13.51c-0.3-4.9,1.19-8.61,0.3-11.58c-0.89-2.97-3.12-6.68-4.3-11.28
		c-1.19-4.6-3.56-18.85-3.56-23.31s0.89-11.73-0.3-14.1c-1.19-2.38-4.01-10.24-4.45-15.59c-0.45-5.34,0.59-10.09-0.3-11.43
		c-0.89-1.34-3.41-9.95-3.41-16.18c0-6.23,2.38-10.09,2.38-10.09l1.19-0.45c0,0-1.19-1.04-0.74-3.27c0,0-1.19,1.48-5.49-2.67
		c-4.3-4.16-6.83-6.38-7.42-11.58c0,0-2.67-4.45-4.01-7.27C648.66,469.52,647.47,464.48,647.47,464.48z"/>
	<path d="M428.08,510.05c0,0,2.38-3.41,2.82-4.45c0.45-1.04,3.12-1.93,3.56-2.67c0.45-0.74,0.59-1.48,1.34-1.93
		c0.74-0.45,3.56,0.74,4.9,1.78c1.34,1.04,7.42,8.31,7.57,9.06s0.59,3.41,0.59,3.41s1.19,4.16,2.08,5.05
		c0.89,0.89,2.82,2.82,2.97,3.56c0.15,0.74,5.05,11.28,6.09,13.51c1.04,2.23,1.04,7.57,1.34,9.06c0.3,1.48,4.3,4.75,4.75,6.38
		c0.45,1.63,0.59,8.91,0.89,9.65c0.3,0.74,6.23,9.35,7.42,13.06c1.19,3.71,0,3.12,1.93,6.09c1.93,2.97,8.16,18.26,9.2,23.75
		c1.04,5.49,2.52,18.56,2.08,20.78c-0.45,2.23-0.45,5.2-0.45,5.2s2.52,2.52,2.97,4.9c0.45,2.38,0.3,6.38,0.59,8.46
		c0.3,2.08,1.48,2.52,1.93,5.64c0.45,3.12,2.97,14.99,4.3,25.09c1.34,10.09,1.48,20.49,1.48,22.27s-1.78,4.16-1.78,4.16
		s-1.78-0.3-2.38,0.3c-0.59,0.59-4.16,8.76-5.49,9.2c-1.34,0.45-8.46,0.45-8.46,0.45s-1.93,1.78-2.82,1.78s-1.93-0.89-1.93-1.63
		c0-0.74-0.3-3.12-0.3-3.12s-3.56,0.45-4.75-0.45c-1.19-0.89-1.48-5.2-1.93-6.38c-0.45-1.19-8.76-38.15-9.2-42.01
		c-0.45-3.86-1.48-17.96-2.08-21.97c-0.59-4.01-1.34-10.98-2.82-15.59c-1.48-4.6-2.82-29.84-2.97-35.33
		c-0.15-5.49-0.3-7.72-1.48-10.09c-1.19-2.38-5.49-15.14-6.38-19c-0.89-3.86-1.19-10.39-1.93-12.32s-1.19-0.74-1.78-3.86
		s-1.19-7.72-1.19-7.72s-5.05-7.13-8.02-9.35c-2.97-2.23-4.9-3.27-5.2-4.3c-0.3-1.04,0.45-4.16,0.3-4.6
		c-0.15-0.45-1.34-2.82-0.15-3.86C426.89,510.94,428.08,510.05,428.08,510.05z"/>
	<path d="M554.35,455.97c0,0-0.2-1.58,0.59-2.77c0.79-1.19,4.75-4.35,5.94-5.54c1.19-1.19,2.57,0,2.57,0l0.59,1.58
		c0,0,9.7,3.17,11.68,4.95s14.84,11.88,17.42,18.01c2.57,6.14,3.17,11.88,3.17,11.88s1.98,2.77,2.38,4.95
		c0.4,2.18,2.97,21.18,3.56,23.95c0.59,2.77,0.99,7.52,1.58,8.91c0.59,1.39,2.18,7.13,2.18,11.68c0,4.55-0.2,15.24-0.99,17.81
		c-0.79,2.57-1.78,4.95-1.78,4.95s0.59,3.36-0.99,7.13s-3.96,7.32-4.35,7.92c-0.4,0.59-0.2,4.95-0.79,6.93
		c-0.59,1.98-1.19,4.95-1.19,7.13s1.39,2.18,0.4,5.74s-2.18,5.34-3.36,8.91c-1.19,3.56-4.95,17.81-6.93,23.16
		c-1.98,5.34-3.56,11.28-3.96,15.83c-0.4,4.55-1.39,7.32-2.18,9.3s-0.99,4.75-0.99,4.75s-0.79,2.77-0.79,4.16
		c0,1.39-4.16,3.17-4.95,2.77c-0.79-0.4-4.35-2.38-4.35-2.38s-2.77,0.79-4.95,0.4c-2.18-0.4-5.94-2.18-5.94-2.18s-2.18,0-3.36-0.2
		s-3.76-3.96-4.35-6.14c-0.59-2.18-1.19-4.55-1.19-4.55s3.36-3.96,5.54-17.62c2.18-13.66,5.34-27.51,7.13-32.66
		c1.78-5.15,4.16-11.08,4.16-11.68c0-0.59-1.39-1.19,0-6.93c1.39-5.74,3.56-14.05,4.35-17.81s3.36-16.63,3.17-18.41
		s0.99-13.46,0.59-16.03c-0.4-2.57,0.2-3.56-0.4-5.34c-0.59-1.78,0.4-11.48-0.2-14.65c-0.59-3.17-1.98-9.9-2.57-10.49
		c-0.59-0.59-2.18-2.38-1.98-3.96c0.2-1.58-0.79-3.96-2.38-6.33s-5.94-7.13-6.53-8.51c-0.59-1.39-3.76-5.34-4.95-6.93
		c-1.19-1.58-3.96-5.74-5.15-6.73s-1.98-2.97-1.98-3.76c0-0.79,3.17-2.77,3.36-2.97c0.2-0.2,1.58,0.79,1.58,0.79l1.58,1.58"/>
	<path d="M594.22,455.55c-0.29-1.68,1.29-2.67,1.29-2.67s5.03-1.3,7.41-1.69c2.39-0.38,7.36,0.7,8.68,0.69
		c1.33-0.02,2.67,1.29,2.67,1.29s1.63,9.81,2.19,12.28s1.48,5.12,1.95,6.88c0.47,1.76,0.49,10.79,1.17,15.74
		c0.68,4.95,3.29,22.27,4.06,27.04c0.77,4.77,0.31,10.71,1.79,15.82c1.48,5.12,4.44,22.16,5.1,25.34
		c0.66,3.18,2.26,10.33,1.78,14.49c-0.48,4.17-0.86,22.67-0.86,22.67s-0.88,7.27,0.51,12.12s1.39,4.85,1.39,4.85
		s0.83,2.38-0.19,6.29s-3.82,12.88-4.1,18.46c-0.28,5.58-0.87,14.97-0.29,19.21c0.59,4.24-6.37,28.14-6.95,31.16
		c-0.58,3.02-2.04,6.93-2.04,6.93s-2.12,0.74-4.07,0.23c-1.95-0.51-2.93-0.76-2.93-0.76s-0.7,0.54-1.77,0.02s-2.67-1.29-2.67-1.29
		s-2.92,0.13-2.85-1.38s0.99-12.94,0.77-16.12c-0.22-3.18,0.29-5.14,1.45-11.61c1.16-6.48,0.26-14.61,1.62-18.79
		c1.36-4.18,7.1-12.84,6.76-18.5s-1.71-16.44-0.96-19.37s0.46-5.49,0.25-8.24c-0.21-2.74-0.4-3.27,0.83-3.99c0,0-1.24-0.16-1.62-2.1
		c-0.38-1.94-2.47-13.51-3.39-16.16c-0.92-2.64-2.27-18.47-3.01-21.03c-0.74-2.56-1.56-4.49-1.86-7.06
		c-0.3-2.56-1.65-4.32-1.69-7.86c-0.05-3.54,0.13-10.27-1.25-14.68c-1.38-4.41-3.33-18.55-4-22.17s-2.3-13.87-2.17-17.77
		c0.13-3.9,0.08-7.88-0.41-10.97c-0.48-3.09,0.35-7.53-0.48-9.91C595.52,460.58,594.22,455.55,594.22,455.55z"/>
	<path d="M536.93,472.99c1.19-0.99,3.56-2.18,3.56-2.18s6.33-0.79,8.31,0c1.98,0.79,1.98,0.79,1.98,0.79s1.98,1.19,3.56,1.58
		c1.58,0.4,2.97,1.98,2.77,4.16c-0.2,2.18-3.17,10.89-3.96,14.25s-2.38,9.9-2.57,12.27s-0.2,14.25-0.4,17.62
		c-0.2,3.36,0.2,9.1,0.79,13.06c0.59,3.96,0,6.93-0.4,10.69s-0.4,12.27-0.4,17.02s0,6.73-0.59,8.71c-0.59,1.98-0.79,2.57-0.79,3.96
		c0,1.39,0.79,7.92,1.39,12.47c0.59,4.55,0.79,8.91,0.79,12.07s2.18,10.29,3.36,13.85s4.95,11.28,5.94,13.66
		c0.99,2.38,5.54,10.69,5.94,12.07c0.4,1.39,0.2,3.17,0.2,3.17s-4.55-0.4-6.14-0.4c-1.58,0-4.55,1.19-6.53,0.2s-3.56-1.98-3.56-1.98
		s-2.57,0.4-4.95-0.2c-2.38-0.59-4.35-2.18-5.34-2.57c-0.99-0.4-2.77-2.57-2.77-2.57s-3.96-15.24-4.55-19.4
		c-0.59-4.16,0-16.43-0.2-19.99c-0.2-3.56-0.59-8.51-1.39-12.87c-0.79-4.35-3.36-7.52-3.36-11.48c0-3.96,0-14.65-0.4-18.21
		c-0.4-3.56,0-7.72,0-11.08c0-3.36-1.19-12.87,0.2-18.8c1.39-5.94,4.16-12.67,4.95-15.64c0.79-2.97,0-11.08,1.39-17.42
		c1.39-6.33,2.77-9.3,2.97-11.48C536.93,476.15,536.93,472.99,536.93,472.99z"/>
	<path d="M513.28,455.87c0.98-4.69,3.86-5.34,3.56-8.61c-0.3-3.27,1.48-4.75,3.27-6.23c1.78-1.48,3.86-1.48,3.86-0.59
		s1.19,5.64,2.08,8.02c0.89,2.38,1.78,10.39,2.38,13.95c0.59,3.56,1.78,5.05,0.89,9.2c-0.89,4.16-2.08,6.23-2.38,6.83
		c-0.3,0.59,0.3,6.53,0.3,13.06c0,6.53-0.59,11.58-0.89,16.92c-0.3,5.34,2.08,9.2,0.89,14.25s-0.59,13.66-0.3,18.11
		s1.19,16.63,3.86,21.67c2.67,5.05,3.56,8.02,4.16,10.69c0.59,2.67,3.27,5.64,3.86,11.58c0.59,5.94-0.3,11.88-0.3,11.88
		s1.09,1.78,1.09,6.73c0,4.95,0.79,12.67,0.79,15.44s0.4,9.9,0.59,12.87s1.78,35.82,1.58,37.61s-0.2,4.16-1.39,4.75
		c-1.19,0.59-4.35,0.59-4.35,0.59s-2.57,1.19-4.16,1.58c-1.58,0.4-4.95-0.79-5.94-1.58c-0.99-0.79-2.57-0.4-2.57-0.4
		s-0.79,1.78-1.19-1.98s-2.38-38.4-2.57-41.76c-0.2-3.36-2.77-29.89-2.77-32.66s0.2-6.73-0.79-9.1c-0.99-2.38-1.98-16.82-2.18-21.38
		s-1.98-11.88-2.77-15.64c-0.79-3.76-1.98-6.73-2.38-10.69c-0.4-3.96-1.58-14.25-0.99-19c0.59-4.75,0.4-11.28,0.4-14.05
		s-1.58-3.56-0.79-12.27c0.79-8.71,3.17-16.43,3.56-18.8c0.4-2.38,0.59-5.54,0.4-10.29C511.9,461.81,512.29,460.62,513.28,455.87z"
		/>
</g>
</svg>
