<?xml version="1.0" encoding="utf-8"?>
<!-- Generator: Adobe Illustrator 24.1.3, SVG Export Plug-In . SVG Version: 6.00 Build 0)  -->
<svg version="1.1" id="圖層_1" xmlns="http://www.w3.org/2000/svg" xmlns:xlink="http://www.w3.org/1999/xlink" x="0px" y="0px"
	 viewBox="0 0 1200 1200" style="enable-background:new 0 0 1200 1200;" xml:space="preserve">
<style type="text/css">
	.st0{fill-rule:evenodd;clip-rule:evenodd;}
</style>
<g>
	<path d="M540.43,447.57c0,0,3.51-0.32,4.22,1.7s-0.1,2.98-0.1,2.98s2.86,1.72,1.62,4.65c0,0,2.33,2.13,1.61,3.97s2.06,2,1.88,4.1
		c-0.18,2.1-0.18,2.1-0.18,2.1s2.71,0.64,1.73,3.02c-0.98,2.38-0.98,2.38-0.98,2.38s3.8,1.17,3.16,3.88s-1.05,2.18-1.05,2.18
		s2.6,2.27,2.49,3.89c-0.11,1.62,2.35,3.49,2.16,4.91c-0.18,1.42-0.37,2.85-0.37,2.85s2.18,1.05,1.53,3.09s-0.65,2.04-0.65,2.04
		s1.97,0.45,2.01,3.83s0.04,3.38,0.04,3.38s1.44,1.54,1.59,2.62c0.15,1.08-0.18,2.1-0.18,2.1s2.05,1.33,1.47,3.57
		c-0.58,2.24,2.55,3.42,2.43,5.04c-0.11,1.62-0.23,3.25-0.23,3.25s1.84,0.72,1.73,3.02c-0.11,2.3-0.21,4.6-0.21,4.6
		s1.9,0.25,1.92,2.27c0.03,2.03-0.14,4.8-0.14,4.8s3.89,2.72,2.26,7.14c0,0,2.81,2.87,2.12,6.74c0,0,1.92,2.27,1.76,5.05
		c-0.17,2.78-1.29,4.75-1.29,4.75s2.66,1.79,2.77,4.7c0.11,2.91-0.9,3.93-0.9,3.93s2.05,1.33,2.35,4.16
		c0.31,2.84-1.57,3.94-1.57,3.94s3.36,3.14,3.04,4.83s-2.32,3.75-2.32,3.75s2.45,1.19,2.55,3.42c0.1,2.23-1.56,4.62-1.56,4.62
		s2.24,0.58,2.21,3.76c-0.03,3.18-1.3,4.08-1.3,4.08s1.77,0.52,2.75,3.35c0.98,2.83-0.08,4.33-0.08,4.33s2.12,1.53,2.09,4.71
		s-0.96,4.41-0.96,4.41s1.31,1.81,1.81,3.9c0.5,2.09-0.82,4.81-0.82,4.81s1.91,1.6,2.42,4.36c0.51,2.77-1.3,4.08-1.3,4.08
		s1.86,2.75,1.76,5.05c-0.11,2.3-1.17,3.8-1.17,3.8s1.57,1.26,1.94,3.63c0.37,2.36-1.3,4.08-1.3,4.08s1.43,0.86,2.01,3.83
		s-1.15,5.16-1.15,5.16s2.12,1.53,2.42,3.69c0.3,2.16-0.75,4.34-0.75,4.34s1.93,2.95,1.63,6c-0.3,3.05-1.04,2.85-1.04,2.85
		s1.6,3.29,1.43,6.07c-0.17,2.78-1.51,3.47-1.51,3.47s2.33,2.13,2.3,5.31s-1.22,4.95-1.22,4.95s1.39,2.69-0.01,4.53
		c0,0,0.9,1.27,0.6,4.32c-0.3,3.05-1.83,5.16-1.83,5.16s0.84,2.42,0.33,4.87c-0.51,2.44-0.06,5.68-0.06,5.68s1.59,2.62,1.97,5.66
		c0.38,3.04-1.41,5.7-1.41,5.7s0.76,1.55,0.6,4.32c-0.17,2.78-0.9,3.93-0.9,3.93s1.18,2.08,0.81,4.93c-0.37,2.85-1.24,3.6-1.24,3.6
		s1.24,1.61,0.6,4.32s-2.25,3.95-2.25,3.95s2.8,2.2,2.37,5.52s-3.05,4.91-3.57,6c-0.53,1.09,1.01,4.86-0.59,6.77
		c-1.6,1.91-1.99,2.73-1.99,2.73l-1.52,2.79c0,0,2.92,1.25,1.85,2.07c-1.07,0.83-5.39,1.42-7.2,2.73c-1.81,1.31-2.79,3.69-4.29,3.3
		c-1.49-0.39-2.85-1.04-2.85-1.04s-1.2,1.1-3.75,2.89c-2.55,1.79-2.56,1.12-6.24,3.53c-3.69,2.42-3.8-1.17-5.77-1.62
		s-3.66-0.76-4.46,0.19c-0.8,0.96-1.58,3.27-3.82,2.69c-2.24-0.58-5.91-2.02-8.57-3.81c-2.66-1.79-2.77-4.7-2.77-4.7
		s-3.04,0.38-3.98,0.93c-0.94,0.55-1.84-0.72-1.84-0.72s-2.02,0.7-3.86-0.02c-1.84-0.72-4.26-5.08-6.36-5.26s-1.39-2.69-1.61-3.97
		c-0.22-1.28-1.61-3.97-1.08-5.06s2.61-2.27,1.77-4.01c-0.83-1.75-2.89-3.75-2.36-4.84c0.53-1.09,2.39-3.55,1.9-4.96
		c-0.49-1.41-1.59-2.62-1.2-4.11c0.39-1.49,1.98-4.08,1.98-4.08s-1.96-4.98-1.57-6.47c0.39-1.49,1.99-2.73,1.99-2.73
		s-1.12-3.23-1.2-4.11c-0.08-0.88,1.99-2.73,1.99-2.73s0.97-3.73,0.47-5.15c-0.49-1.41-1.05-3.03-1.05-3.03s3.26,0.9,2.56-0.44
		c-0.69-1.34-2.2-7.61-2.2-7.61s1.99-2.73,1.71-3.54c-0.28-0.81-1.17-6.61-0.86-8.98c0.31-2.37,0.46-5.82,0.04-7.04
		c-0.42-1.21-0.24-2.63-0.12-4.26c0.11-1.62,0.89-4.61,1-6.24c0.11-1.62-0.38-3.04,0.07-5.01c0.45-1.97,0.97-3.73,0.97-3.73
		s-0.76-0.87-0.45-3.24c0.31-2.37,0.22-3.93,0.21-4.6c-0.01-0.68-0.16-1.76,0.03-3.18c0.18-1.42,1.38-3.2,1.38-3.2
		s-1.38-2.01-1.61-3.97c-0.23-1.96,1.1-4.01,1.1-4.01s-2.33-2.13-1.41-4.04c0.92-1.91,2.13-3,2.13-3s-0.5-2.09-0.61-5
		c-0.11-2.91,0.23-3.25,0.02-3.86c-0.21-0.61-1.04-1.68-0.73-4.05c0.31-2.37,1.64-3.74,1.64-3.74s-1.18-2.08-1.2-4.11
		c-0.03-2.03,0.91-2.58,1.44-3.67s-1.72-2.34-1.21-4.79c0.51-2.44,1.98-4.08,1.76-4.69c-0.21-0.61-2.26-1.93-1.68-4.17
		c0.58-2.24,1.42-5.02,1.42-5.02s-2.58-0.91-2.95-3.28c-0.37-2.36,2.55-1.79,2.52-3.82c-0.03-2.03-1.37-1.33-2.48-3.21
		s1.79-2.66,2.18-4.15c0.39-1.49-2.67-2.47-2.89-3.75s1.86-2.46,2.58-4.3c0.72-1.84-0.97-1.48-2.42-3.69s1.65-3.07,1.91-4.29
		c0.25-1.22-1.44-1.54-2.41-3.01c-0.97-1.48,1.44-3.67,2.24-4.63c0.8-0.96-3.07-2.33-3.3-4.29c-0.23-1.96,3.48-3.02,3.27-3.63
		c-0.21-0.61-2.13-2.88-2.63-4.29c-0.49-1.41,2.05-3.88,2.05-3.88s-0.77-2.22-1.81-3.9c-1.04-1.68,2.17-4.83,2.17-4.83
		s-2.47-2.54-2.15-4.23c0.32-1.7,2.46-3.35,2.46-3.35s-2.38-0.98-2.48-3.21c-0.1-2.23,2.04-4.56,2.04-4.56s-2.64-0.44-2.47-2.54
		c0.18-2.1,0.49-3.79,0.49-3.79s-2.66-1.79-1.34-3.84c1.33-2.05,3.13-4.03,3.13-4.03s-2.64-0.44-2.13-2.88
		c0.51-2.44,2.24-4.63,2.24-4.63s-2.59-1.59-2.35-3.49c0.25-1.9,1.59-2.59,1.58-3.27s-1.18-2.08-1.2-4.11s1.3-4.08,1.3-4.08
		s-1.11-1.88-0.73-4.05c0.38-2.17,2.04-4.56,2.04-4.56s-0.99-3.5,1-6.24c0,0-1.02-5.53,0.71-7.72c1.73-2.19,1.04-2.85,1.83-5.16
		c0.78-2.31,0.89-4.61,1.94-6.79c1.05-2.18,4.01-3.43,5.89-4.54c1.88-1.11,3.08-2.2,4.76-3.24
		C539.02,448.06,540.43,447.57,540.43,447.57z"/>
	<path d="M661.54,690.6c0,0-0.68,4.11-0.93,4.85c-0.25,0.74-2.39,1.56-2.39,1.56l1.1,2.54c0,0-1.49,0.42-3.4,0.29l0-0.31
		c0,0-2.63-0.17-4.6-0.74c-1.98-0.57-1.75-2.46-1.75-2.46s-2.54,0.48-3.96,0.41c-1.42-0.07-1.99-2.64-2.3-3.57
		c-0.3-0.93-0.31-3.93-0.31-3.93s-2.13-0.42-2.69-0.61c-0.56-0.19,0.11-2.13-1-3.44c-1.1-1.31-1-3.44-1-3.44s-0.86-0.81-2.37-1.53
		c-0.56-0.27-0.8-0.84-0.89-1.46c-0.36,1.15-0.7,2.29-0.92,3.12c-0.64,2.47-1.77,6.11-2.65,8.4c-0.88,2.28-1.67,4.91-1.67,4.91
		l-0.68,0.49c0,0,0.45-2.22,1.14-4.26c0.69-2.04,2.24-6.26,2.62-8.61c0.22-1.36,1.07-4.44,1.74-6.8c-0.67-0.65-1.79-1.74-2.73-2.74
		c-1.44-1.53,1.18-4.66,1.18-4.66s-2.37-2.46-3.75-3.86c-1.38-1.4,1.29-3.18,1.29-3.18s-1.82-1.34-4.09-3.15
		c-2.28-1.81,1.46-4.88,1.46-4.88s-0.31-0.62-2.27-2.12c-1.97-1.5-0.47-4.09-0.47-4.09s0.28,0.09-2.15-1.56
		c-2.21-1.5-1.36-6.21-1.19-7.07c-0.13,0.08-0.63-0.05-2.44-1.4c-2.57-1.92-0.11-5.58,0.31-6.18c-0.15,0.14-0.63,0.29-1.97-0.79
		c-1.78-1.43,0.66-5.87,0.66-5.87s-0.87,0.74-2.74-1.66c-1.87-2.39,1.88-7.63,1.88-7.63s-1.69-1.4-2.83-2.93
		c-1.13-1.52,2.02-5.93,2.02-5.93s-0.74-0.56-1.84-1.87c-1.1-1.31,1.05-4.29,1.05-4.29s-0.92-0.62-1.97-1.5
		c-1.05-0.87,1.1-2.62,1.1-2.62s-0.08-1.58-1.37-3.26c-1.29-1.68,1.23-3.92,1.23-3.92s0,0-1.17-0.81c-2.34-1.63-0.18-5.23-0.18-5.23
		c-2.31-1.41-0.46-4.7-0.46-4.7c-2.16-1.25-1.12-4-1.12-4c-1.66-1.19,0.25-5.6,0.25-5.6c-2.18-1.78-0.4-5.51-0.4-5.51
		c-0.98-0.75-0.25-3.81-0.25-3.81c-2.34-1.31,0.32-5.78,0.32-5.78c-2.13-1.34,0.06-5.04,0.06-5.04s-1.3-0.44-2.37-2.46
		c-1.07-2.02,0.81-5.41,0.81-5.41s-0.68-0.44-1.47-2.67c-0.79-2.23,3.14-7.71,3.14-7.71c-2.62-2.03,0.7-6.89,0.7-6.89
		s-1.62-2.21-2.54-4.07c-0.92-1.86,1.46-4.88,1.46-4.88l0.58-2.9c0,0-0.95-1.15-2.52-2.31c-1.91-1.4-1.86-8.49-1.86-8.49
		c-2.25-0.97-0.81-8.54-0.81-8.54c-2.61-3.27,0.82-10.88,0.82-10.88c-2.15-1.87,0.45-6.46,0.45-6.46s-0.64-1.15-1.09-3.78
		c-0.45-2.63,1.28-5.87,1.28-5.87s0,0-0.89-1.03c-2.18-2.51,1.48-4.35,1.48-4.35s-0.64-0.84-1.32-2.2s1.85-3.92,1.85-3.92
		s-0.61-0.62-1.8-3.2c-0.28-0.61-0.24-1.31-0.01-2.02c-1.69,0.22-3.87,0.49-5.87,0.98c-3.76,0.92-7.11,1.85-8.63,2.29
		c-1.53,0.44-6.81,0.16-10.93,0.55c-4.13,0.38-5.29,0.95-5.29,0.95l-1.03-0.63c1.86-1.02,14.49-2.09,15.68-1.96
		c1.2,0.13,3.06-0.47,5.13-1.7c2.07-1.22,5.37-0.79,9.29-1.38c0.83-0.13,1.69-0.46,2.52-0.9c1.04-1.6,2.46-2.91,2.46-2.91
		s-0.61-1.86-2.04-4.62c-1.44-2.76,0.5-5.41,0.5-5.41s-0.93-4.86-2.5-6.02c-1.57-1.15-1.48-0.81-1.78-2.05
		c-0.3-1.24,0.17-2.32,0.17-2.32l0.84-0.33c0,0-0.23,1.89-0.17,2.32c0.06,0.43,1.36,0.57,1.79,1.13c0.38,0.5,1.72,4.19,1.94,5.19
		c-0.04-1.06,0.06-5.27,0.41-6.04c0.41-0.89,1.27-5.56,4.16-6.44c2.88-0.88,6.11-2.46,8.75-3.84c2.64-1.37,5.21-2.56,6.55-3.76
		c1.34-1.2,4.61-4.11,6.1-4.85c1.49-0.73,4.43-1.49,5.54-0.8c1.11,0.69,1.97,0.88,2.99,1.54c1.02,0.66,2.61-1.28,4-1.12
		c1.39,0.16,4.24,0,7.05,0.85c2.81,0.85,2.8,2.4,3.04,2.59c0.25,0.19,4.85,0.31,8.52,2.28c3.67,1.97,4.47,6.28,4.9,6.84
		c0.43,0.56,1.86,0.01,2.54,0.14c0.68,0.13,1.93-1.1,3.96,0.21s0.39,2.51,0.66,2.91c0.28,0.4,1.94,1.9,2.37,2.46
		c0.43,0.56-0.45,2.53,0.13,4.18c0.58,1.64,1.56,2.08,1.56,2.08l0.02,2.07l1.51,0.41l1.26,1.15c0,0-1.36,0.05-1.86-0.01
		c-0.49-0.07-1.41,2.31-1.6,4.1c-0.2,1.79-0.6,6.62,0.03,8.69c0.64,2.08-0.04,5.57-0.21,8.2c-0.17,2.63-0.21,3.96,0.46,5.01
		c0.67,1.06,1.45,4.53,1.19,7.12s-2.62,3.45-2.38,4.56c0.24,1.12-2.06,3.33-2.01,4.69c0.05,1.36,1.34,3.04,1.36,5.11
		c0.02,2.07-2.19,4.01-2.19,4.01s1.62,2.21,2.69,5.46c1.06,3.25-1.04,3.36-1.04,3.36s0.82,2.14,1.39,4.4
		c0.57,2.26-1.22,2.68-1.22,2.68s0.58,1.33,0.85,2.98s-1.37,6.46-1.5,7.14c-0.13,0.68,0.41,3.96,0.95,6.32
		c0.54,2.35,0.47,3.78,0.03,5.38s-2.06,7.25-2.06,7.25s1.4,4.09,1.81,6.2c0.42,2.11,0.27,5.88,0.27,5.88s0.61,5.17,0.16,8.63
		c-0.46,3.46-0.55,4.05-1.12,5.71c-0.57,1.67,0,3.93-0.01,6.09s1.65,3.35,1.65,3.35l-1.43,5.71c0,0-0.07,5.66,0.57,6.81
		c0.64,1.15,1.13,2.14,1.03,3.04c-0.1,0.9-2.35,4.78-2.35,4.78s1.84,1.87,1.89,3.54c0.05,1.67-3.87,5.6-3.87,5.6
		s2.86,2.83,3.44,4.17c0.58,1.33-1.49,5.59-1.49,5.59c0.85,2.05,0.12,4.8-0.79,6.55s-2.64,1.68-2.64,1.68s3.84,3.58,4.3,4.67
		c0.46,1.09-0.5,0.86-1.34,1.51c-0.84,0.64-1.42,3.86-1.61,4.41c-0.19,0.56,0.49,0.68,0.95,1.15c0.46,0.47,0.27,1.02-0.45,1.91
		c-0.72,0.89-1.29,2.56-1.29,2.56s1.69,1.71,1.81,2.89c0.12,1.18-2.31,3.14-2.31,3.14s2.06,1.84,1.73,5.55
		c-0.33,3.71-3.37,3.81-3.28,4.15c0.09,0.34,1.39,0.78,1.03,3.97c-0.36,3.18-2.18,2.46-2.18,2.46s-1.44,2.4-1.26,2.78
		c0.18,0.37,0.8,1.3,1.16,2.67c0.36,1.36-1.78,1.87-1.78,1.87s-1,2.03-0.67,2.87c0.33,0.84,0.05,2.29-0.14,3.15
		c-0.19,0.86-1.59,1.32-1.59,1.32l0.65,3.84c0,0-0.45,1.91-0.85,2.5c-0.41,0.59-1.93,1.72-2.24,2.34c-0.31,0.62,0.24,1.42,0.08,2.51
		c-0.16,1.08-1.46,1.57-1.46,1.57s0.14,2.01,0.01,3c-0.13,0.99-1.78,2.49-1.78,2.49s0.52,0.9,0.64,2.08
		C664.24,688.73,661.54,690.6,661.54,690.6z"/>
</g>
</svg>
