<?xml version="1.0" encoding="utf-8"?>
<!-- Generator: Adobe Illustrator 24.1.3, SVG Export Plug-In . SVG Version: 6.00 Build 0)  -->
<svg version="1.1" id="圖層_1" xmlns="http://www.w3.org/2000/svg" xmlns:xlink="http://www.w3.org/1999/xlink" x="0px" y="0px"
	 viewBox="0 0 1200 1200" style="enable-background:new 0 0 1200 1200;" xml:space="preserve">
<style type="text/css">
	.st0{fill-rule:evenodd;clip-rule:evenodd;}
</style>
<g>
	<path d="M675.54,855.34c-1.19-2.05-1.37-6.39-1.37-6.39l3.79-2.34l0.93-2l-2.78-0.41l-0.2-3.27c0,0-5.25-8.67-6.14-11.7
		c-0.89-3.03-1.88-23.37-2.06-30.16c-0.18-6.78,1.85-56.92,1.85-56.92s3.94-11.16,4.57-14.17c0.63-3.01,7.23-46.53,8-50.97
		c0.78-4.45,4.95-12.93,4.95-12.93s0.78,2.08,2.89,1.51c2.11-0.56,1.43-2.61,1.6-3.17c0.17-0.56-2.5-3.74-1.63-4.59
		c0.88-0.85,6.51-2.56,6.51-2.56s-0.12,0.37,0.92,1.31c1.75,1.58,4.44,0.47,5.78-2.17c1.33-2.64-0.34-4.8-2.41-5.03
		c-2.07-0.24-3.1,1.78-3.1,1.78l-4.08,0.97c0,0,3.04-5.17,6.46-12.87c3.42-7.7,0.98-15.9,0.98-15.9s4.6-4.28,7.4-5.75
		c2.8-1.47,16.07-9.36,16.07-9.36s-0.02,0.71,2.71-0.18c2.72-0.88,3.93-3.77,2.87-5.93s-4.12-1.18-5.94-0.22s-1.79,2.8-1.79,2.8
		s-4.32,2.42-6.3,3.85c-1.97,1.42-9.01,3.41-10.63,4.02c-1.62,0.62-8.98,1.99-8.98,1.99c-1.04-1.24-2.84-3.64-2.84-3.64l1.14-1.68
		c0,0,0,0,1.29-0.21c2.64-0.43,1.65-3.97,1.65-3.97l12.29-15.23c0,0,0,0,2.03-0.29c2.03-0.29,2.33-1.92,0.61-4.91
		c-1.72-2.98-5.12-3.84-7.22-2.35c-2.1,1.49,0.37,4.7,0.37,4.7l-1.18,1.16c0,0-0.62-0.3-1.63-1.63c-1.01-1.33-3.58-2.24-5.86-0.81
		c-2.28,1.43-0.45,3.73-0.45,3.73l-1.18,2.49l-8.52,14.88l-2.57-2.54l-0.67-2.76c0,0,8.81-37.72,9.77-42.11
		c0.96-4.39,6.18-14.89,8.57-19.96c2.4-5.06,14.91-26.54,18.15-29.1c3.24-2.56,11.39-3.18,16.96-3.07c5.57,0.11,8.6,0.54,8.6,0.54
		c2.32,3.68,5.4,3.62,7.36,1.89c1.97-1.73,2.47-8.91-2.11-10.24c-4.58-1.33-5.71,2.3-5.71,2.3s-12.81-0.43-19.44,0.56
		c-6.63,0.99-9.47,3.57-9.47,3.57s-1.2,0.24-0.92-1.61c0.27-1.85,3.79-4.32,4.13-4.42c0.34-0.1,0.23-2.37,0.23-2.37l-1.7-0.43
		l2.3-3.77c0,0,1.35-0.4,2.95-0.3c1.6,0.09,2.91-2.15,2.75-4.24c-0.16-2.09-0.95-3.15-0.95-3.15s1.01-0.3,1.8-0.87
		c0.79-0.57,2.34-4.88-0.85-7.09c-3.18-2.22-5.67-1.77-7.63-0.04c-1.97,1.73,1.81,4.64,1.82,4.95s-2.98,3.66-9.42,11.23
		s-27.14,46.48-27.14,46.48s1.18-7.38,1.6-9.7c0.42-2.32,5.21-20.29,5.21-20.29s3.72-0.16,4.79-3.6c1.07-3.44-2.77-4.84-2.77-4.84
		l1.93-8.16c0,0,1.34,0.62,3.33-1.51c1.99-2.13,0.79-7.09-3.49-8.43c-4.27-1.33-6.15,1.75-6.15,1.75l-1.5-1.39
		c0,0-0.14-0.86,0.32-2.35c0.46-1.49,6.91-13.34,6.91-13.34c6.46-0.13,6.19-10.71,2.28-12.85c-3.92-2.14-7.18-0.2-7.18-0.2
		c-0.06-1.45-0.99-3.37-0.99-3.37s1.93-0.31,2.44-4.54c0.5-4.23-3.21-6.71-3.21-6.71l2.31-9.37c0,0,2.64-4.88,3.75-6.78
		c1.1-1.9-0.23-5.47,0.15-6.68c0.38-1.21,2.48-2.39,3.79-4.63c1.31-2.24-0.74-3.19-0.74-3.19s1.57-1.75,2.82-2.18
		c1.25-0.42,2.63-0.91,6.72-5.86c4.09-4.94-0.72-10.11-3.91-11.01c-3.19-0.89-4.38,2.61-4.38,2.61c-0.08-2.37-3.25-5.91-3.25-5.91
		s1.39,0.13,2.51,0.78c1.12,0.66,2.9-1.13,4.73-3.72c1.83-2.59,2.38-7.62-2.72-13.18c-5.09-5.56-10.43-2.85-10.43-2.85
		s0.42-0.69,0.64-3.68s-0.94-4.17-3.88-7.84c-2.93-3.67-7.94-1.66-7.94-1.66s-0.31-6.21-3.85-7.93c-3.54-1.72-6.58,0.19-6.58,0.19
		s-4.43-2.81-10.5-1.64c-6.07,1.16-6.43,4.93-6.43,4.93s-6.4,0.25-8.2,2.74c-3.67,5.09-2.42,8.42-0.77,7.71
		c1.65-0.71,2.37,1.55,2.37,1.55c-2.91,2.15-3.41,5.05-3.41,5.05s-0.15-1.47-3.42,1.17c-3.27,2.65-1.54,6.25-1.54,6.25l-3.75,10.05
		l-9.63,21.06c0,0,5.07-11.67,4.79-13.39c-0.28-1.72-1.44-7.79-1.44-7.79s4.89-1.94,6.18-8.06c1.3-6.12-2.59-6.72-2.59-6.72
		c2.17-2.38,6.1-5.84,6.1-5.84c5.79,0.38,2.36-8.23,2.36-8.23l1.62-8.47l6.63-4.25c0,0,3.33,0.43,4.57-2.24
		c1.24-2.67,0.07-6.1-3.8-8.73c-3.87-2.63-5.75-1.18-5.75-1.18s-1.71-2.37-3.82-3.43c-5.33-2.69-11.36-1.5-8.54-2.05
		c2.82-0.55,6.85-2.35,4.47-7.78c-2.38-5.43-8-9.63-14.71-6.43c-6.71,3.21-5.75,11.25-5.75,11.25c-2.1-0.45-4.3,0.7-4.3,0.7
		s-3.24-5.29-7.02-6.27c-3.77-0.97-8.67,0.35-11.54,4.96c-2.87,4.61-0.28,10.72-0.28,10.72c-1.48,0.15-2.25,1.34-2.25,1.34
		c-0.87-3.74-5.25-7.35-10.15-6.02c-4.9,1.33-8.09,5.02-8.8,9.9c-0.71,4.88,3.17,4.86,3.17,4.86l-2.03,9.77c0,0-1.1,0.27-3.41,1.79
		c-2.31,1.52-3.17,4.92-1.66,6.62c1.51,1.69,2.09-0.16,2.09-0.16l1.21,2.01l-0.16,7.7c0,0-6.61-10.83-8.8-18.85
		c-2.19-8.02,1.13-21.26,1.13-21.26s0.73-0.38,2.04,0.64c1.31,1.02,8.49-0.41,9.17-6.52c0.68-6.11-5.37-10.24-14.12-10.93
		c-8.75-0.69-12.25,6.58-12.25,6.58c-2.7-2.47-7.34-0.66-12.06,3.37c-4.72,4.03-2.21,9.71-0.2,11.76c2.01,2.05,4.98-0.28,4.98-0.28
		l4.55,6.31c0,0-1.68-1.14-6.07,1.16c-4.39,2.3-5.72,9.84-5.72,9.84l-1.2-4.66c0,0,3.47-5.24,1.99-8.35c-1.48-3.11-6.65-3.5-11-2
		c-4.34,1.5-8.02,5.45-8.24,10.07s2.8,8.01,5.14,7.72c2.33-0.29,4.75-2.8,4.75-2.8c1.7,1.75,5.07,10.55,5.07,10.55
		s-3.59-0.92-8.45,2.26c-4.86,3.17-2.27,9.89-2.27,9.89c-3.25,0.62-4.82,2.37-4.82,2.37l-1.62-7.23c0,0,3.53-2.16,4.1-4.63
		c0.57-2.47-3.98-8.17-7.01-8.91c-3.03-0.74-8.42,0.84-10.3,5.55c-1.88,4.72,0.92,6.2,1.12,6.87c0.2,0.67-0.49,15.95-1.03,22.92
		c-0.54,6.97-0.66,26.3-0.66,26.3l-6.19-9.58c0,0,1.46-0.77,2.09-1.79c0.63-1.03-1.27-3.76-3.63-6.02
		c-2.35-2.26-7.4-0.78-10.85,2.43c-3.45,3.21-2.28,6.32,0.48,10.24c2.75,3.92,5.78,3.03,6.45,3.85c0.66,0.82,5.3,6.55,5.3,6.55
		c-0.76,3.43,3.59,4.18,3.59,4.18l3.8,5.47c0,0,1.45,8.1,2.64,12.14c1.19,4.04-0.63,19.68-0.67,22.73
		c-0.03,3.05,2.95,9.18,4.48,12.1c1.53,2.93,2.79,15.55,4.21,21.8c1.41,6.25,5.25,42.01,6.03,49.29c0.79,7.28,7.51,77.88,7.51,77.88
		s-6.09-52.05-6.72-55.92c-0.63-3.87-8-55.71-8.72-59.3c-0.72-3.59-4.58-26.51-5.76-30.55c-1.19-4.04-5.77-16.79-7.26-21.84
		c-1.48-5.05-4.12-17.19-4.12-17.19s0.35-1.11,1.97-3.36c1.62-2.25-0.96-6.72-3.28-7.14c-2.32-0.42-6.57-0.52-8.78,4.6
		c-2.21,5.12,2.98,6.13,2.98,6.13s-0.33,2.04,1.03,5.52c1.36,3.48,5.69,17.07,9.45,25.58c3.77,8.51,4.22,12.94,4.21,16.91
		c-0.02,3.97,1.87,15.57,2.83,22.29c0.96,6.72,11.67,63.58,13.41,77.58c1.75,14,6.5,68.39,6.5,68.39s-5.05-12.74-7.58-19.34
		s-20.72-59.07-20.72-59.07s1.79-0.36,1.23-2.98c-0.56-2.62-3.83-4.87-6.99-3.56c-3.16,1.31-3.37,4.91-2.04,6.55
		s4.37,1.67,4.37,1.67s11,33.86,15.6,45.08c4.6,11.22,12.4,34.76,12.4,34.76s-2.3,2.95-2.13,6.83c0.17,3.88,3.12,13.51,3.12,13.51
		s-4.29-4.4-4.85-5.03c-0.57-0.64-3.78-2.1-4.24-2.09c-0.46,0.01-7.94-2.48-16.07-9.75c-8.13-7.28-16.14-6.11-24.37-6.68
		c-6.79-0.48-10.69-0.07-11.86,0.09c-0.23-0.07-0.53-0.15-0.93-0.25c-3.25-0.86-4.63-0.83-6.8,1.7c-2.17,2.54,0.81,3.77,3.08,3.86
		c2.26,0.09,3.24-2.05,3.24-2.05s2.87-1.86,6.2-1.74c3.33,0.12,14.11,1.34,19.59,2.9c5.48,1.56,14.39,8.77,21.59,13.62
		s20.43,29.62,23.02,34.55c2.59,4.94,9.87,25.71,9.87,25.71l-1.64,1.32l-2.11-1.58c0,0-3.8,1.41-1.71,2.06
		c2.09,0.65,4.09,3.57,4.09,3.57l0.2,7.71c0,0-5.14-3.13-6.66-0.7c-1.52,2.43,2.38,3.65,5.31,5.02c2.94,1.37,6,4.78,6.47,5.23
		c0.47,0.45-0.15,13.72,0.57,22.2c0.72,8.48-1.07,25.97-1.07,25.97l1.43,11.61l-2.65,4.07l2.07,6.61l-6.19,4.64l-1.76-2.69
		c0,0-2.36-0.28-2.34,0.65c0.02,0.92,1.33,4.55,1.67,4.95c0.33,0.41-4.95,2.13-4.52,2.72c0.43,0.59,2.71-0.84,4.48-0.13
		c1.77,0.7,2.63,2.35,4.11,4.95c1.48,2.6,2.07,4.16,2.55,5.08c0.48,0.91-0.59,2.87-0.59,2.87s-3.47-0.16-4.01,0.59
		c-0.54,0.75,0.05,5.22,0.06,7.66c0,2.45-2.34,5.54-3.82,7.83c-1.48,2.29-0.82,5.56-0.98,6.58c-0.16,1.02,1.37,6.39,1.67,7.4
		c0.3,1.01,2.92,0.45,3.29,0.72c0.38,0.27,1.59,1.26,2.85,1.65c1.25,0.39,3.03-0.89,6.13-2.98c3.1-2.09,7.64-3.43,9.66-4.48
		c2.01-1.05,7.65-0.52,8.31-0.16c0.65,0.36,2.97,0.77,4.05,1.72c1.08,0.95,3.12-1.17,3.72-1.13c0.6,0.03,5.63-0.39,8.78,0.29
		c3.15,0.68,5.79-1.41,6.37-2.29c0.58-0.89,6.34-1.69,6.34-1.69l5.89-1.22l4.31,0.89c0,0,1.39,0.43,3.14,0.22
		c1.75-0.22,8.97-1.79,8.97-1.79l5.21,1.93l5.54-0.11l3.33,2.57c0,0,6.84-1.84,7.63-1.9c0.78-0.06,3,2.16,3.33,2.57
		c0.33,0.41,8.05-1.77,8.05-1.77l10.98-2.84l4.81,0.28c0,0,3.58-1.18,4.67-2.21c1.09-1.04-0.36-4.24-0.1-5.08
		c0.26-0.84,5.21-2.96,5.81-4.91c0.61-1.95,1.78-5.71,1.91-6.13c0.13-0.42,3.31-0.8,3.31-0.8S676.73,857.4,675.54,855.34z
		 M507.25,681.58c5.23,0.87,10.58,14.62,10.58,14.62C515.11,691.68,507.25,681.58,507.25,681.58z M521.16,693.87
		c-0.63-1.42-4.05-11.05-4.8-14.04c-0.75-2.99-0.8-8.2-0.8-8.2c3.07,5.85,7.99,26.35,7.99,26.35S521.79,695.29,521.16,693.87z
		 M681.69,624.37c-0.01-0.46,0.38-11.5,1.18-15.54c0,0,2.88,3.04,2.41,3.05c-0.46,0.01-2.8,5.55-2.68,7.12
		C682.72,620.57,681.7,624.83,681.69,624.37z M679.81,639.69l2.67-7.58c0,0-0.18,4.99-0.21,5.59
		C682.23,638.3,679.81,639.69,679.81,639.69z M692.6,618.3c0,0,2.93,3.36,2.9,4.42l-5.27,2.18
		C690.24,624.9,691.89,619.6,692.6,618.3z M689.44,643.15c-1.32,3.26-4.21,9.08-4.21,9.08l-0.87-4.55c0,0,0.91-2.93,1.65-5.3
		c0.74-2.37,2.35-7.52,2.35-7.52l6.79-4.61C695.47,632.65,690.76,639.89,689.44,643.15z M697.46,616.45c0,0,6.31-0.63,8-1.63
		c1.69-1,4.72-1.89,4.72-1.89s-7.53,4.08-9.05,4.98c-1.69,1-1.77,1.74-1.77,1.74L697.46,616.45z M668.25,731.65
		c0,0,0.15-4.39,0.9-8.28c0.76-3.89,3.6-14.47,4.01-14.81c0,0-1.01,9.62-1.73,13.38C670.72,725.7,668.25,731.65,668.25,731.65z"/>
</g>
</svg>
