<svg id="圖層_1" data-name="圖層 1" xmlns="http://www.w3.org/2000/svg" viewBox="0 0 1200 1200"><path d="M453.58,519.53c5.34-10.68,26.11-24.24,28-26.11s5.59-5.6,7.46-5.6,11.19-7.46,14.92-9.32S517,471,517,471s0-1.87,5.59-3.73,11.19-3.73,14.92-3.73,24.25-3.73,26.12-5.6,7.46-1.87,13-5.6,7.47-3.73,11.2-3.73h7.46s3.73-3.73,7.46-3.73,11.19,1.87,13.05,0,13.06-3.73,16.79-3.73,9.33,5.6,13.06,5.6h3.73s18.65,5.59,22.38,7.46,24.25,5.6,29.85,11.19,20.51,22.38,26.11,26.11,11.19,3.74,13.06,9.33,1.86,16.79,5.59,18.65,1.87,7.46,3.73,11.19,0,18.66,0,18.66,3.73,5.59,5.6,9.32,0,11.19,1.86,13.06l3.73,3.73v1.87a2.58,2.58,0,0,1,3.73,0,5.76,5.76,0,0,1,1.87,3.73A1.82,1.82,0,0,1,768.8,583v28a2.58,2.58,0,0,1,0,3.73c-1.86,1.87-3.73,3.73-3.73,5.6s-7.46,18.65-7.46,22.38,0,9.33-1.86,11.19a26.73,26.73,0,0,1-5.6,3.73L742.69,665a5.76,5.76,0,0,1-3.73,1.87s0,5.59-1.86,7.46l-5.6,5.59a1.83,1.83,0,0,0,1.87,1.87s5.59-1.87,3.73,1.86-9.33,11.2-11.2,13.06-7.46,11.19-9.32,13.06S703.52,721,701.66,722.85s-11.2,7.46-13.06,9.32-5.6,5.6-7.46,5.6-7.46,3.73-7.46,3.73l-7.46,3.73c-3.73,1.86-18.66,3.73-22.39,5.59s-20.51,5.6-24.24,5.6-24.25,3.73-37.31,1.86-20.52-1.86-20.52-3.73-9.32-3.73-11.19-3.73-9.33-3.73-11.19-3.73S526.32,741.5,515.13,734,502.07,722.85,500.21,721c0,0-5.6,1.87-7.46-3.73s-11.19-13.06-9.33-14.92,0-3.73,0-5.6-1.86-3.73-3.73-5.59-3.73-5.6-3.73-7.47v-1.86l-3.73-3.73h-1.86s-1.87,5.59,0,7.46v5.6s-7.47,1.86-9.33,0-3.73-7.47-5.6-9.33-3.73,0-3.73-3.73-5.59-14.92-7.46-18.65-3.73-13.06-5.59-18.66-1.87-9.32-3.73-14.92-3.73-18.65-3.73-26.11-1.87-20.52,0-26.11,3.73-7.47,5.59-9.33,1.87-9.33,1.87-9.33v-7.46c0-5.59,5.59-14.92,7.46-18.65S451.71,523.26,453.58,519.53Z"/></svg>