<?xml version="1.0" encoding="utf-8"?>
<!-- Generator: Adobe Illustrator 24.1.3, SVG Export Plug-In . SVG Version: 6.00 Build 0)  -->
<svg version="1.1" id="圖層_1" xmlns="http://www.w3.org/2000/svg" xmlns:xlink="http://www.w3.org/1999/xlink" x="0px" y="0px"
	 viewBox="0 0 1200 1200" style="enable-background:new 0 0 1200 1200;" xml:space="preserve">
<style type="text/css">
	.st0{fill-rule:evenodd;clip-rule:evenodd;}
</style>
<g>
	<path d="M525.95,325.57c2.11-0.66,4.9,0.2,11.75,2.31c6.85,2.11,17.12,8.95,27.8,18.36c10.69,9.41,17.62,19.81,22.31,24.91
		c4.69,5.1,14.6,18.82,19.25,26.26c4.65,7.44,4.37,10.23,12.14,25.78c7.77,15.55,8.82,22.57,12.16,31.39
		c3.34,8.81,10.52,18.75,10.52,18.75s4.07,0.66,7.87,3.53c2.53,1.91,1.57,3.76,5.14,6.51c3.57,2.75,4.8,5.46,3.56,9.52
		c-1.24,4.06-0.99,3.02-0.6,7.34c0.39,4.33,6,3.73,9.93,5.78c3.93,2.06,5.21,8.62,9.18,15.11c3.97,6.49,4.24,17.24,4.57,25.06
		c0.33,7.83-0.23,12.84-2.13,20.97c-1.9,8.14-2.03,15.72-3.55,22c-1.51,6.28-1.84,11.41-3.06,14.3s-2.56,6.02-3.46,10.56
		s1.21,10.64,1.42,18.12c0.22,7.47,4.27,15.49,3.46,21.54c-0.81,6.06-2.62,9.52-4.49,15.91c-1.87,6.39-0.91,11.89-1.7,16.78
		c-0.79,4.89-2.82,7.65-5.55,16.24c-2.72,8.59-1.35,9.9-5.16,14.38c-3.82,4.48-6.51,11.32-7.78,17.14s-3.53,7.87-5.45,10.99
		s-4.72,15.79-10.14,25.03c-5.42,9.24-7.39,8.51-8.94,10.34c-1.55,1.84-3.36,5.31-5.07,9.13s-5.27,7.26-6.59,9.22
		c-1.32,1.96-9.69,19.67-11.64,23.95c-1.94,4.28-6.21,7.94-8.26,11.29s-9.15,15.24-12.02,19.04c-2.87,3.8-7.1,5.13-8.9,8.01
		c-1.8,2.89-10.1,9.74-13.06,12.02c-2.96,2.28-11,1.32-12.63,1.06c-1.63-0.26-5.82-0.69-7.67-1.66c-1.85-0.97-1.01-2-0.64-3.28
		c0.37-1.28,0.89-3.95,1.96-4.87c1.07-0.91,5.15-0.84,6.22-1.76c1.07-0.91,2.65-4.5,3.39-6.48c0.74-1.97,4.27-3.66,6.78-6.77
		c2.51-3.11,8.16-6.04,8.45-8.84c0.28-2.8,3.85-6.23,5.32-10.18c1.47-3.94,6.51-11.32,7.79-17.72c1.28-6.4,9.63-16.17,10.23-17.33
		c0.6-1.16,1.42-7.8,2.46-13.73c1.04-5.93,6.81-8.52,7.32-11.19s-0.04-4.44-0.76-9.82s4.3-12.18,8.54-20.27
		c4.23-8.09,9.08-17.93,8.81-22.49c-0.27-4.56,2.79-18.86,3.12-23.99c0.33-5.13,6.16-17.98,6.74-24.16s0.37-14.23-1.41-18.7
		c-1.79-4.47,2.13-14.79,1.98-18.99c-0.16-4.21,0.09-11.44-0.85-17.52c-0.94-6.09,0.67-11.43,0.22-18.44s5.1-10.88,5.1-10.88
		s-1.47-2.83-4.75-8.37s0.77-16.68,0.77-16.68c-4.01-4.16-1.73-7.39-4.01-10.93c-2.27-3.54-7.96-18-12.12-26.95
		c-4.16-8.95,0.55-11.2,0.75-15.51c0.19-4.32,1.39-12.23,1.37-17.84c-0.02-5.6,7.41-9.67,7.41-9.67c-0.54-2.34,3.06-8.12,3.06-8.12
		s-0.48-5.85-2.44-13.35c-1.97-7.51-7.62-30.49-14.29-42.51c-6.67-12.03-14.9-28.4-29.96-47.46c-15.07-19.06-37.95-31.62-40.5-32.95
		c-2.54-1.33-8.05-0.38-9.35,0.42c-1.3,0.79-4.93,1.55-5.62,1.18s-1.7-2.95-1.91-4.24C518.36,332.2,523.84,326.23,525.95,325.57z"/>
</g>
</svg>
