<?xml version="1.0" encoding="utf-8"?>
<!-- Generator: Adobe Illustrator 24.1.3, SVG Export Plug-In . SVG Version: 6.00 Build 0)  -->
<svg version="1.1" id="圖層_1" xmlns="http://www.w3.org/2000/svg" xmlns:xlink="http://www.w3.org/1999/xlink" x="0px" y="0px"
	 viewBox="0 0 1200 1200" style="enable-background:new 0 0 1200 1200;" xml:space="preserve">
<style type="text/css">
	.st0{fill-rule:evenodd;clip-rule:evenodd;}
</style>
<g>
	<path d="M565.54,160.5c-9.46,1.86-18.8,4.6-28.06,7.32c0.1-0.7,0.21-1.41,0.31-2.11c-10.37-0.31-25.63,9.97-34.22,14.27
		c-27.83,13.91-55.65,35.56-57.59,96.62c-0.42,13.29-0.22,29.52,0.42,47.78c-0.79,0.67-1.69,1.66-1.58,2.66
		c0.09,0.84,0.95,2.25,1.81,3.5c0.05,1.4,0.11,2.82,0.17,4.24c-0.84,1.09-1.69,2.62-1.79,4.43c-0.14,2.74,1.44,4.95,2.25,5.88
		c0.01,0.27,0.03,0.54,0.04,0.81c-0.53,0.46-1.38,1.44-1.51,3.16c-0.11,1.45,0.94,2.77,1.85,3.63c0.03,0.67,0.07,1.33,0.1,2
		c-0.6,0.6-1.27,1.42-1.56,2.29c-0.48,1.43,1.14,1.03,1.73,0.84c0,0.08,0.01,0.15,0.01,0.23c-0.41,0.66-1.35,2.23-1.35,2.98
		c0,0.8,1.19,1.33,1.59,1.49c0,0.06,0.01,0.12,0.01,0.18l-2.18,2c0,0,2.13,0.77,1.16,2.9c-0.93,2.05,1.36,3.91,1.53,4.04
		c0.26,4.45,0.53,8.96,0.81,13.52c-0.38,0.19-0.73,0.45-0.99,0.79c-0.76,1.01,0.3,1.28,1.12,1.34c0.01,0.2,0.03,0.41,0.04,0.61
		c-0.48,0.09-0.96,0.3-1.35,0.75c-0.81,0.93,0.39,1.3,1.49,1.45c0.3,4.79,0.62,9.64,0.94,14.53c-0.56,0.27-1.11,0.61-1.46,1.03
		c-0.62,0.74,0.11,1.17,0.92,1.43c-0.42,0.32-0.81,0.68-1.11,1.08c-1.16,1.55,1.55,1.93,0.97,3.09c-0.39,0.78,0.45,1.65,1.28,2.2
		c0.38,5.58,0.76,11.21,1.16,16.87c-0.27,0.19-0.51,0.4-0.7,0.65c-1.16,1.55,0.19,0.77-0.77,2.51c-0.73,1.31,0.74,1.85,1.84,2.12
		c0.13,1.88,0.26,3.76,0.4,5.64c-0.57,0.31-1.46,0.91-1.46,1.7c0,0.69,0.95,1.44,1.72,1.94c0.15,2.15,0.31,4.3,0.46,6.46
		c-0.48,0.47-1.23,1.44-0.25,2.42c0.18,0.18,0.33,0.26,0.44,0.27c0.18,2.45,0.35,4.9,0.53,7.36c-0.6,0.29-2.42,1.26-1.93,2.23
		c0.31,0.63,1.31,0.86,2.16,0.94c0.09,1.29,0.18,2.57,0.28,3.86c-0.91,0.61-2.21,1.27-1.47,2.16c0.43,0.51,1.08,0.65,1.67,0.64
		c0.19,2.66,0.38,5.33,0.57,7.99l-0.51-0.51c0,0-1.16,1.74-0.19,2.51c0.22,0.18,0.54,0.32,0.88,0.42
		c0.66,9.23,1.32,18.43,1.97,27.55c-1.04,0.35-3.54,1.33-3.23,2.56c0.24,0.97,2.17,1.79,3.57,2.27c0.07,0.93,0.13,1.85,0.19,2.78
		c-0.88,0.41-2.61,1.33-2.03,1.91c0.42,0.42,1.41,0.78,2.23,1.03c0.07,1.02,0.14,2.05,0.21,3.07c-1.22,0.77-3.03,2.08-2.64,2.86
		c0.38,0.75,1.89,1.02,2.91,1.11c0.38,5.52,0.75,11,1.11,16.42c-1.2,0.82-2.85,2.15-2.09,2.76c0.44,0.35,1.4,0.58,2.32,0.73
		c0.16,2.37,0.31,4.73,0.46,7.08l-0.07-0.08c0,0-2.32,1.55-1.16,2.51c0.37,0.3,0.88,0.47,1.42,0.56c0.04,0.65,0.08,1.3,0.12,1.95
		c0.28,4.4,0.52,8.7,0.76,12.97c-1.52,0.76-2.08,0.85-1.92,1.52c0.11,0.43,1.15,0.91,2.07,1.26c0.14,2.66,0.27,5.29,0.4,7.9
		c-1.08,1.8-1.26,1.88,0.14,2.93c0.05,1.16,0.1,2.29,0.15,3.44c-1.05,0.56-4.07,1.34-2.75,2.82c0.67,0.76,1.86,1.73,2.98,2.6
		c0.04,0.93,0.07,1.84,0.1,2.77c-1.86,0.57-3.91,1.4-3.47,2.17c0.47,0.82,2.28,1.71,3.63,2.28c0.16,4.67,0.29,9.26,0.41,13.79
		c-1.88,0.4-4.84,1.29-3.85,2.28c1.35,1.35,2.51,2.9,2.32,3.48c-0.19,0.58-1.74,2.51-1.16,3.86c0.58,1.35,2.9,2.51,2.9,2.51
		s0.02,0.03,0.04,0.09c0.03,1.58,0.05,3.14,0.07,4.71c-0.67,1.48-1.75,3.11-2.04,4.29c-0.3,1.19,1.34,2.37,2.12,2.86
		c0,0.19,0,0.37,0,0.56c-0.95,0.8-3.32,2.93-3.47,4.32c-0.13,1.15,2.03,1.37,3.5,1.39c0,0.44,0,0.88,0,1.32
		c-0.62,0.74-1.19,1.65-1,2.32c0.15,0.52,0.56,0.84,1,1.04c0,0.35,0,0.7,0,1.06c-0.75,0.41-1.49,0.9-1.39,1.19
		c0.1,0.3,0.76,0.44,1.39,0.51c0,0.24,0,0.47,0,0.7c-0.96,0.59-2.13,1.48-1.77,2.07c0.25,0.41,0.99,0.83,1.76,1.16
		c-0.02,4.18-0.06,8.3-0.11,12.39c-1.1,0.44-2.55,1.09-1.66,2.49c0.43,0.67,1.01,1.07,1.61,1.31c-0.05,3.16-0.1,6.29-0.17,9.4
		c-1.86,0.41-4.75,1.29-3.95,2.62c0.58,0.97,2.3,1.6,3.85,1.99c-0.11,4.6-0.23,9.17-0.37,13.7c-1.27,1.52-2.43,3.22-2.13,3.83
		c0.25,0.51,1.1,0.94,1.97,1.27c-0.11,3.22-0.22,6.44-0.34,9.64c-1.42,1.57-2.67,3.02-1.63,4.36c0.4,0.52,0.91,0.93,1.42,1.26
		c-0.32,8.25-0.68,16.45-1.04,24.66c-1.27,0.76-3.45,2.36-2.7,3.26c0.53,0.64,1.59,1.74,2.43,2.61c-0.06,1.4-0.13,2.8-0.19,4.21
		c-0.49,0.17-0.95,0.4-1.27,0.72c-0.93,0.93-0.11,2.49,1.05,4.17c-0.33,7.17-0.66,14.37-0.98,21.64c-0.67,0.32-1.35,0.7-1.61,1.04
		c-0.51,0.69-0.57,1.53,1.46,2.52c-0.08,1.84-0.16,3.68-0.24,5.53c-1.02,0.53-2.01,1.19-2.19,1.81c-0.29,1,0.92,2.86,1.95,3.75
		c-0.01,0.17-0.01,0.33-0.02,0.5c-3.09,75.75,0.77,127.15,10.82,156.53c10.05,29.37,17.78,39.42,20.87,43.67
		c3.09,4.25,2.71,1.55,4.64,2.32c1.93,0.77,6.18,10.05,9.28,12.75c3.09,2.71,8.12,9.28,11.98,13.53c3.86,4.25,3.09-0.39,7.73,3.09
		c4.64,3.48,7.34,4.25,9.66,4.64c2.32,0.39,13.14,8.12,13.14,8.12c3.84,9.58,18.59,1.31,25.15,0.98c1.94-0.1,3.95-0.19,5.76,0.5
		c1.22,0.46,2.31,1.26,3.55,1.68c1.33,0.45,2.76,0.45,4.16,0.45c18.91-0.06,39.21,2.77,57.23-3.24c6.96-2.32,9.28-3.86,13.91-5.41
		c4.64-1.55,6.57-1.16,11.98-2.32c5.41-1.16,7.73-3.48,13.14-7.73c5.41-4.25,13.91-11.21,17.39-13.14
		c3.48-1.93,6.96-6.57,10.05-16.62c3.09-10.05,13.14-20.1,15.46-27.05c2.32-6.96,10.05-24.35,11.59-37.1
		c0.11-0.88,0.24-1.84,0.4-2.87c1.17-0.62,2.83-1.69,3.08-2.92c0.39-1.93,0-6.57,0-6.57s1.93-2.13,1.16-3.09
		c-0.27-0.34-0.87-1.22-1.51-2.21c0.61-3.03,1.25-6.2,1.89-9.38c1.54-0.25,2.52-0.41,2.52-0.96c0-0.77-0.58-1.35-0.58-1.35
		s1.16-1.35,0.97-2.51c-0.1-0.6-0.83-1.52-1.5-2.26c0.82-4.18,1.58-8.27,2.2-12.03c2.01-1.52,4.38-2.7,3.93-3.88
		c-0.54-1.43-1.74-7.69-2.37-8.43c0.18-2.2,0.43-5.12,0.73-8.6c2.22-1.27,4.52-2.78,4.16-4.81c-0.58-3.29-0.19-9.66-0.19-9.66
		l1.74-3.48c0,0-2.1-2.87-3.85-5.36c0.24-3.2,0.47-6.51,0.7-9.91c0.97-0.34,2.45-1.23,1.22-3.28c-0.3-0.5-0.6-1.02-0.9-1.53
		c0.15-2.32,0.3-4.66,0.44-7.02c0.65-0.61,1.17-1.23,1.23-1.69c0.08-0.59-0.42-1.37-1.02-2.05c0.26-4.58,0.49-9.19,0.68-13.75
		c1.25-1.02,2.96-2.64,2.46-3.52c-0.77-1.35-0.77-1.35-0.77-1.35s0.78-3.77-1.35-4.36c0.21-7.03,0.31-13.78,0.23-19.9
		c1.07-1.02,1.92-1.81,1.51-3.17c-0.27-0.91-0.97-1.68-1.63-2.25c-0.02-0.48-0.03-0.95-0.05-1.42c1.2-0.42,2.69-1.21,2.45-2.51
		c-0.22-1.22-1.59-2.82-2.71-3.96c-0.02-0.57-0.04-1.16-0.06-1.75c1.29-0.35,2.96-1.02,2.96-2.21c0-1.16-1.74-3.08-3.13-4.44
		c-0.02-0.82-0.03-1.64-0.05-2.49c1.22-0.78,2.63-1.92,2.41-2.93c-0.19-0.85-1.36-2.03-2.5-3.02c-0.01-0.96-0.03-1.94-0.04-2.92
		c1.09-0.67,2.15-1.62,2.15-2.76c0-2.32-1.16-4.83-1.16-4.83s2.13-3.48,0.77-4.64c-0.45-0.39-1.15-0.78-1.87-1.12
		c-0.03-6.35-0.05-12.94-0.05-19.57c1.2-0.7,2.31-1.68,2.12-2.88c-0.39-2.51-0.19-6.96-0.19-6.96s2.13-4.83,0.97-5.99
		c-0.75-0.75-2.06-3.6-2.9-5.52c0-4.74,0-9.38-0.01-13.83c0.77-1.11,1.74-2.9,0.98-4.03c-0.34-0.51-0.68-1.2-1-1.91
		c-0.01-1.44-0.01-2.86-0.02-4.25c0.77-0.52,1.6-1.24,1.6-1.96c0-0.65-0.8-1.74-1.63-2.81c-0.02-2.39-0.04-4.67-0.07-6.82
		c0.6-1.29,1.12-2.61,1.12-3.51c0-1.12-0.65-2.62-1.26-3.78c-0.02-0.91-0.05-1.77-0.07-2.6c0.79-0.67,1.79-1.63,1.91-2.31
		c0.19-1.16-0.39-6.18-0.97-6.96c-0.24-0.32-0.91-1.5-1.61-2.78c-0.05-1.2-0.09-2.52-0.13-3.94c1.64-0.18,3.75-0.58,3.87-1.4
		c0.19-1.35-2.13-6.96-2.9-7.34c-0.77-0.39,1.93-1.35,0.77-3.29c-0.54-0.9-1.25-1.89-1.86-2.69c0-0.79,0-1.59,0.01-2.41
		c1.37-1.02,3.33-2.77,2.82-4.18c-0.35-0.95-1.55-2.79-2.76-4.54c0.02-2.23,0.04-4.51,0.06-6.83c0.9-0.94,1.62-1.96,1.55-2.73
		c-0.19-1.93-0.39-3.48-0.39-3.48s3.09-0.58,1.55-2.32c-0.95-1.06-1.96-1.83-2.61-2.28c0.19-22.24,0.29-45.86-0.87-59.76
		c-0.92-11.07-1.91-29.12-3-49.03c0.78-1.03,1.55-2.34,1.45-3.34c-0.07-0.74-0.87-1.98-1.81-3.18c-1.22-22.06-2.57-45.68-4.13-64.24
		c1.38-0.93,2.94-2.34,1.5-3.31c-0.65-0.43-1.29-0.74-1.87-0.97c-0.26-2.95-0.53-5.74-0.81-8.34c1.49-0.87,3.03-2.03,2.48-3.25
		c-0.44-0.98-1.82-2.07-3.18-2.97c-0.69-5.76-1.48-11.54-2.33-17.21c1.06-0.98,1.93-2.46-0.55-3.63c-4-25.94-8.9-48.94-9.78-55.41
		c-1.16-8.5-5.41-31.31-6.57-36.72c-1.16-5.41-1.93-12.75-2.71-15.85c-0.77-3.09-5.8-13.14-9.28-20.48
		c-3.48-7.34-5.02-20.1-10.44-29.37c-5.41-9.28-29.37-33.62-48.31-44.83c-16.27-9.63-39.96-7.45-58.11-5.14
		c0.53,0.22,0.99,0.54,1.37,0.97c-2.59,2.02-5.79,2.05-9.02,2.14C578.23,158.42,571.86,159.26,565.54,160.5z"/>
</g>
</svg>
