<?xml version="1.0" encoding="utf-8"?>
<!-- Generator: Adobe Illustrator 24.1.3, SVG Export Plug-In . SVG Version: 6.00 Build 0)  -->
<svg version="1.1" id="圖層_1" xmlns="http://www.w3.org/2000/svg" xmlns:xlink="http://www.w3.org/1999/xlink" x="0px" y="0px"
	 viewBox="0 0 1200 1200" style="enable-background:new 0 0 1200 1200;" xml:space="preserve">
<style type="text/css">
	.st0{fill-rule:evenodd;clip-rule:evenodd;}
</style>
<g>
	<path d="M706.48,246.98c0.49,0.85,0.95,1.72,1.37,2.6c3.9,8.21,6.66,16.85,7.32,25.97c1.19,16.26-13.09,51.15-21.02,85.25
		s-22.21,91.99-20.22,105.87c1.98,13.88-5.15,124.9-3.17,143.54c1.98,18.64,7.93,109.44,14.27,130.85
		c6.34,21.41,12.29,104.28,16.65,119.75c4.36,15.46,7.53,41.63,5.95,50.36s-3.97,30.93-8.72,45.2
		c-4.76,14.27-17.45,40.44-45.6,47.98c-28.15,7.53-48.77-1.19-48.77-1.19s-0.4,4.36-17.45-5.55c-17.05-9.91-26.17-26.17-32.12-36.08
		s-38.07-73.75-40.84-94.77c-2.78-21.02-7.93-31.72-10.71-44.01c-2.78-12.29-15.86-66.61-18.24-176.85
		c-2.38-110.23,5.95-166.93,7.93-183.19c1.98-16.26,16.26-70.18,21.41-87.23s15.86-49.96,22.6-72.56
		c6.74-22.6,14.27-59.48,37.27-83.27c9.73-10.07,21.34-19.44,34.52-24.59c13.26-5.19,32.83-1.35,45.58,3.99
		c5.2,2.18,10.14,4.96,14.66,8.33c6.54,4.88,12.11,10.93,17.63,16.94C693.39,231.48,701.57,238.45,706.48,246.98z"/>
</g>
</svg>
