<?xml version="1.0" encoding="utf-8"?>
<!-- Generator: Adobe Illustrator 24.1.3, SVG Export Plug-In . SVG Version: 6.00 Build 0)  -->
<svg version="1.1" id="圖層_1" xmlns="http://www.w3.org/2000/svg" xmlns:xlink="http://www.w3.org/1999/xlink" x="0px" y="0px"
	 viewBox="0 0 1200 1200" style="enable-background:new 0 0 1200 1200;" xml:space="preserve">
<style type="text/css">
	.st0{fill-rule:evenodd;clip-rule:evenodd;}
</style>
<g>
	<path d="M567.33,243.3c0.86-2.73,1.93-5.39,3.21-7.95c1.57-3.15,3.62-6.29,6.77-7.84c2.2-1.08,4.72-1.28,7.17-1.39
		c7.31-0.34,14.67-0.06,21.92,1.01c23.27,3.43,41.58,17.61,59.07,32.38c23.32,19.69,43.47,43.17,60.95,68.11
		c40.81,58.23,73.63,129.69,75.76,213.7c0.55,21.5-0.32,42.38-0.63,52.23s-6.08,38.95-9.88,52.05c-3.81,13.11-7.3,34.65-23.58,73.52
		s-48.73,97.74-76.31,137.23s-72.94,65.47-102.76,85.57c-29.82,20.1-76.27,34.06-97.48,31.88c-21.21-2.18-43.3-1.76-56.58-9.02
		c-13.28-7.25-27.83-22.84-35.01-32.48c-7.18-9.63,1.78-50.42,33.19-66.45c31.41-16.03,31.67-17.21,60.26-28.9
		s57.9-29.42,67.92-38.38c10.02-8.95,43.35-45.01,60.42-69.15c17.08-24.14,43.03-53.45,58.91-83.42s29.94-64.38,32.47-91.4
		c2.53-27.02,4.94-60.57-15.21-112.72c-10.46-27.07-22.84-53.95-40.33-77.28c-7.1-9.47-15.08-18.26-24.03-26.02
		c-11.52-10-21.47-22.22-31.95-33.35c-4.13-4.39-8.29-8.83-11.41-13.99c-3.41-5.66-5.52-12.12-9.67-17.27
		c-5.11-6.33-13.36-10.92-14.78-18.93c-0.5-2.83-0.03-5.75,0.66-8.54C566.7,245.43,567,244.36,567.33,243.3z"/>
</g>
</svg>
