<?xml version="1.0" encoding="utf-8"?>
<!-- Generator: Adobe Illustrator 24.1.3, SVG Export Plug-In . SVG Version: 6.00 Build 0)  -->
<svg version="1.1" id="圖層_1" xmlns="http://www.w3.org/2000/svg" xmlns:xlink="http://www.w3.org/1999/xlink" x="0px" y="0px"
	 viewBox="0 0 1200 1200" style="enable-background:new 0 0 1200 1200;" xml:space="preserve">
<style type="text/css">
	.st0{fill-rule:evenodd;clip-rule:evenodd;}
</style>
<g>
	<path d="M592.2,946.3c-7.66,3.2-17.3,12.72-24.04-3.09s-8.61-46.99-5.33-60.57c3.28-13.58,9.07-133.42,9.09-149.68
		c0.02-16.25,0.88-115.73,0.02-127.14c-0.86-11.41-10.97-87.02-17.63-124.07c-6.65-37.05-11.41-59.17-12.3-88.92
		c-0.88-29.76-5.66-61.05-4.86-70.07c0.8-9.03-3.78-29.86-4.16-41.6c-0.43-13.31,10.44-33.62,25.45-33.23
		c4.82,0.13,7.34-0.05,11.57,2.66c4.04,2.58,7.74,5.74,11.02,9.23c8.11,8.61,17.23,17.7,19.81,26.5
		c2.58,8.8,40.9,103.67,43.7,141.28c2.8,37.6,11.4,100.85,14.12,108.84c2.73,7.99,2.68,31.33,2.04,48.72
		c-0.64,17.39,7.58,103.5,6.15,129.92c-1.43,26.42-17.97,122.65-24.61,145.62c-6.65,22.98-12.74,49.81-24.06,64.02
		C606.86,938.94,599.86,943.1,592.2,946.3z"/>
</g>
</svg>
