<?xml version="1.0" encoding="utf-8"?>
<!-- Generator: Adobe Illustrator 24.1.3, SVG Export Plug-In . SVG Version: 6.00 Build 0)  -->
<svg version="1.1" id="圖層_1" xmlns="http://www.w3.org/2000/svg" xmlns:xlink="http://www.w3.org/1999/xlink" x="0px" y="0px"
	 viewBox="0 0 1200 1200" style="enable-background:new 0 0 1200 1200;" xml:space="preserve">
<style type="text/css">
	.st0{fill-rule:evenodd;clip-rule:evenodd;}
</style>
<g>
	<path d="M675.97,992.41c0,0-2.59,5.96-4.49,6.89c-1.9,0.92-22.99,3.02-25.99,0.72c-3-2.3-4.12-3.96-4.6-5.92
		c-0.48-1.96-7.72-9.1-10.95-13.18c-3.23-4.07-15.69-40.66-20.4-47.46c-4.72-6.8-4.52-24.14-5.6-28.94
		c-1.08-4.8-12.39-53.23-13.48-63.21c-1.09-9.97-8.28-32.19-7.65-37.67c0.63-5.48,0.97-8,0.97-8s-2.33-0.59-5.3-11.22
		c-2.97-10.63-7.6-30.48-10.15-39.59c-2.55-9.11-15.21-43.87-18.99-55.51c-3.78-11.64-2.92-20.53-6.16-29.77
		c-3.24-9.24-11.31-34.71-12.32-42.45c-0.46-3.54,1.09-7.11,1.09-7.11s-0.5-0.38-4.93-10.14c-4.43-9.76-9.51-34.72-10.9-45.33
		c-1.39-10.61,0.81-16.07,0.81-16.07s-1.28-9.72-6.33-20.75c-5.05-11.03-5.89-25.98-6.14-31.34c-0.26-5.36,1.87-9.69,1.87-9.69
		s-2.17-2.86-5.06-26.54c-2.89-23.68-5.28-35.05-8.06-45.93c-2.78-10.88-0.24-29.2-2.66-44.17c-2.42-14.97-2.97-27.71,0.41-48.17
		s7.03-42.29,17.1-63.18s31.35-35.15,35.83-40.46c4.47-5.31,17.47-5.67,17.47-5.67c10.26-2.34,21.2-4.15,31.74-3.49
		c10.59,0.67,20.86,3.57,30.88,6.9c8.12,2.7,16.46,4.53,24.39,7.85c14.01,5.87,24.32,15.8,29.93,30.02
		c11.47,29.07,10.54,44.26,12.31,49.19c1.77,4.94,6.44,16.47,6.85,24.73c0.41,8.26-2.29,52.69-1.17,64.68
		c1.13,11.99-0.09,47.23-1.44,55.72c-1.36,8.5-5.62,11.98-5.62,11.98s2.8,14.47,1.91,26.5c-0.89,12.03-2.87,14.09-2.87,14.09
		s3.24,14.41,2.14,23.1c-1.11,8.69-0.89,29.12-0.98,37c-0.09,7.88-1.86,42.29,1.11,58.08c2.98,15.8,5.71,58.83,6.78,70.38
		c1.07,11.55,8.29,81.87,7.72,92.97c-0.57,11.09,4.22,68.02,4.58,81.01c0.36,12.99-1.42,25.14,0.91,47.99
		c2.33,22.85,0.28,31.22-9.37,48.45c-9.65,17.23-10.89,26.61-14.48,31.81C683.1,986.75,675.97,992.41,675.97,992.41z"/>
</g>
</svg>
