<?xml version="1.0" encoding="utf-8"?>
<!-- Generator: Adobe Illustrator 24.1.3, SVG Export Plug-In . SVG Version: 6.00 Build 0)  -->
<svg version="1.1" id="圖層_1" xmlns="http://www.w3.org/2000/svg" xmlns:xlink="http://www.w3.org/1999/xlink" x="0px" y="0px"
	 viewBox="0 0 1200 1200" style="enable-background:new 0 0 1200 1200;" xml:space="preserve">
<style type="text/css">
	.st0{fill-rule:evenodd;clip-rule:evenodd;}
</style>
<g>
	<path d="M513.95,514.31c-0.33-0.56-0.34-10.16-1.87-14.33c-1.53-4.17-1.4-5.81-2.1-6.39c-0.69-0.58-1.69-1.99-1.63-2.81
		c0.06-0.82,4.07-0.38,5.69,0.1c1.62,0.48,8.42,2.95,11.08,4.3s5.02,4.18,6.71,6.17c1.69,1.99,4.94,5.28,4.94,5.28
		s6.06,0.12,8.22,0.75s5.72,2.16,8.12,2.12c2.39-0.04,4.98-0.2,6.4,3.01c1.41,3.21,4.47,16.49,5.18,21.73
		c0.71,5.24-3.39,52.62-1.38,65.04c2.01,12.42,2.29,33.26,2.78,53.7s2.64,35.88-7.87,65.73s-13.94,41.22-17,47.67
		s-7.6,8.18-10.03,6.16c-2.42-2.02-2.62-6.82-1.78-13.09c0.84-6.27,0.46-20.81-3.52-29.06c-3.98-8.25-8.47-14.61-15.4-27.64
		c-6.93-13.03-9.08-38.34-11.54-44.75c-2.46-6.41-4.29-16.35-4.11-23.74c0.19-7.39,6.02-53.33,6.46-61.68
		c0.44-8.34,2.68-30.86,1.56-35.57s-4.68-11.16-4.65-14.04c0.03-2.88,4.34-3.93,5.52-4.98s3.51-2.6,5.23-3.48
		C510.69,513.63,513.95,514.31,513.95,514.31z"/>
	<path d="M617.08,453.96c0.99-0.92,5.41-5.94,5.81-8.8c0.4-2.86-0.07-11.38-0.25-13.85c-0.18-2.47,0.71-4.63,0.71-4.63
		s2.59-0.17,5.83,0.79s6.02,0.66,7.59,4.29c1.57,3.63,0.57,12.08,2.89,15.47c2.32,3.39,5.83,8.05,5.83,8.05s7.05-0.8,10.28,2.76
		s6.14,8.89,4.2,15.11c-1.94,6.22-1.89,30.07-1.59,38.44c0.29,8.37,3.35,50.98,5.43,62.58c2.07,11.6,6.34,38.09,7.96,43.5
		c1.62,5.41,5.48,17.63,6.16,25.75c0.68,8.11,0.31,17.97,3.84,27.29c3.53,9.33,10.84,29.64,14.47,37.6
		c3.63,7.96,7.89,14.99,8.74,18.32c0.85,3.32-1.35,3.23-3.59,3.69c-2.24,0.45-5.57-1.74-7.41-4.15c-1.84-2.41-6.12-9.16-12.06-15.85
		c-5.94-6.69-10.93-16.08-15.33-21.19c-4.4-5.12-31.8-29.69-36.24-34.26s-20.78-24.57-22.49-31.22
		c-1.71-6.65-12.53-31.63-14.02-53.48s1.86-51.86,2.61-69.24c0.75-17.37,1.39-25.84,1.84-31.86s0.68-9.02,3.99-11.48
		c3.31-2.47,8.66-2.65,11.07-2.97S617.08,453.96,617.08,453.96z"/>
</g>
</svg>
