<?xml version="1.0" encoding="utf-8"?>
<!-- Generator: Adobe Illustrator 24.1.3, SVG Export Plug-In . SVG Version: 6.00 Build 0)  -->
<svg version="1.1" id="圖層_1" xmlns="http://www.w3.org/2000/svg" xmlns:xlink="http://www.w3.org/1999/xlink" x="0px" y="0px"
	 viewBox="0 0 1200 1200" style="enable-background:new 0 0 1200 1200;" xml:space="preserve">
<style type="text/css">
	.st0{fill-rule:evenodd;clip-rule:evenodd;}
</style>
<g>
	<path d="M775.04,695.96c0.06,3.83,4.4,18.37,5.02,22.86s1.58,12.28,1.96,13.31c0.38,1.04-0.61,0.99-2.25,1.22
		c-1.63,0.24-10.77,0.81-12.25,1.72s-7.08,2.2-7.78,2.79c-0.71,0.59-1.65,1.37-2.14,1.06s-2.46-1.54-2.82-1.87
		c-0.36-0.34-1.21-5.2-1.92-8.27s-1.27-19.67-3.14-29.9c-1.87-10.2-5.81-25.23-7.31-30.61c-0.56-2.01-2.37-3.1-2.37-5.11
		c0-2.01,0.91-16.25,1.1-22.09c0.18-5.84-0.91-13.32-0.91-13.32s-2.56-0.18-2.37-2.92c0.18-2.74,1.1-6.02,2.37-9.13
		s2.56-18.98,5.66-22.63l1.46-12.23c0,0-1.83-2.19-1.83-4.38s1.28-5.29,2.19-8.76s1.28-8.03,1.64-10.59
		c0.37-2.56,1.64-4.75,2.74-7.48c1.1-2.74,2.01-6.75,2.01-6.75s-2.74-0.55-2.19-4.38c0.55-3.83-0.18-10.59,1.1-14.78
		s4.38-9.86,7.3-11.5c0,0,1.64-10.59,3.83-12.96c0,0,2.01-9.49,6.02-14.42s10.4-12.96,11.5-14.42c1.1-1.46,2.19-3.83,4.93-6.75
		c2.74-2.92,6.21-4.38,6.94-5.66c0.73-1.28,2.92,1.83,2.74,3.47c-0.18,1.64,1.28,2.56,0.73,7.12c-0.55,4.56-1.46,8.03-1.46,8.03
		s-0.18,6.02-2.01,8.21c0,0,1.1,8.58-0.55,12.96c-1.64,4.38-2.92,5.84-2.92,5.84v4.93c0,0,2.37,2.92,2.01,4.56
		c-0.37,1.64-0.55,3.1-1.64,3.65c-1.1,0.55-2.92,0.91-2.92,0.91s-0.37,3.65-4.2,8.21c0,0-0.37,5.66-2.37,8.76
		c-2.01,3.1-2.92,4.02-2.92,4.02s0.37,7.12-0.73,11.32c0,0,2.01,6.94,0.55,15.33c-1.46,8.4-2.01,11.32-3.29,13.51
		s-3.1,2.37-4.38,1.28c0,0-3.29,14.97-3.65,21.9c-0.37,6.94-1.64,24.46-0.73,29.02c0.91,4.56,1.64,15.7,2.37,18.07
		c0.73,2.37,2.19,2.92,2.56,6.21c0.37,3.29,0,4.56-1.1,4.93c-1.1,0.37-1.64-0.18-1.64-0.18S774.96,691.02,775.04,695.96z"/>
	<g>
		<path d="M579.26,757.76c-1.46-0.13-3.29-1.83-3.29-1.83s-0.65-1.75-0.74-4.1c-0.08-2.36,0.43-64.29,0.53-67.88
			c0.1-3.59,0.89-32.31,1.16-36.17c0.27-3.87,1.02-66.81,1.02-71.8c0-4.99,0.38-3.42,1.56-22.48s3.54-52.19,2.59-57.2
			c-0.95-5,0.83-50.6,1.55-54.57s2.27-11.47,3.03-14.27c0.76-2.8,2.19-4.8,2.19-4.8s2.39,2.05,3.34,2.06c0.95,0.01,3.71-0.4,4.99,0
			c1.29,0.41,10.64,1.75,12.27,1.6s3.83-0.91,5.22-0.05s2.93,8.34,3.01,10.7c0.08,2.36,1.14,7.81,0.57,8.42
			c-0.57,0.61-2.84,3.05-2.84,3.05s-4.54,113.05-4.53,117.09c0.01,4.04,0.72,34.06-1.19,39.03s-2.29,60.45-2.51,64.55
			c-0.22,4.09,0.4,36.75-0.04,40.9c-0.44,4.15-0.36,20.53-0.55,22.72c-0.19,2.19,0.52,8.2,0.49,11.06
			c-0.03,2.86-0.88,12.33-0.94,13.06c-0.06,0.73-0.47,2.01-1.37,2.23c-0.9,0.21-11.84,0.2-15.93-0.02
			C584.75,758.83,579.26,757.76,579.26,757.76z"/>
		<path d="M459.56,740.89c0.46,3.01,2.31,5.09,3.47,5.55c1.16,0.46,10.64,1.85,12.49,2.31c1.85,0.46,7.86-1.62,7.86-1.62
			s0.46-7.4,1.16-10.87c0.69-3.47-1.85-24.06-2.54-37.47c-0.69-13.42-7.17-80.26-7.63-85.58c-0.46-5.32-6.48-46.03-6.25-49.73
			c0.23-3.7,1.62-3.7,1.62-3.7s1.85,0.23,2.08-2.54c0.23-2.78-0.46-5.09-0.93-5.78s-3.93-5.78-4.39-6.71s-2.08-21.05-2.54-21.97
			s-1.39-5.32-1.16-7.63c0.23-2.31-5.32-40.94-5.09-41.64c0.23-0.69,2.54-3.47,2.54-3.47s-0.23-4.86-0.46-6.01
			c-0.23-1.16-2.31-4.86-2.31-4.86s0.23-2.31-0.23-3.47c-0.46-1.16-2.31-4.16-3.7-4.63s-8.33,2.08-9.95,3.01
			c-1.62,0.93-8.79,5.09-9.02,5.55c-0.23,0.46,1.62,11.57,1.62,14.57c0,3.01,0.46,23.36-0.23,25.91c-0.69,2.54,3.93,47.88,4.86,53.2
			s3.47,23.59,3.47,26.83c0,3.24-1.39,8.79-0.93,12.49s3.01,7.86,3.01,7.86s3.24,16.89,3.7,21.74s3.24,39.32,4.16,52.28
			s1.85,39.55,2.54,44.87c0.69,5.32,1.39,11.33,1.39,13.65C458.18,735.33,459.56,740.89,459.56,740.89z"/>
		<path d="M728.57,468.61c-3.77,1.13-12.03,4.57-12.84,4.88c-0.81,0.31-3.41,6.46-4.93,8.58s-1.12,8.7-1.37,11.4
			c-0.25,2.7,3.22,10.58,3.07,14.78c-0.16,4.19,2.08,48.89,2.87,57.15c0.79,8.25-0.04,59.21-0.04,59.21s-2.9,4.33-3.61,6.13
			c-0.71,1.8-0.71,1.8-0.71,1.8s1,4.3,1.48,5.83s3.09,1.92,3.47,4.61c0.37,2.68-1.74,55.7-1.75,61.63c0,5.92-2.17,30.11-1.32,32.68
			c0.85,2.57,3.96,3.48,5.51,3.63c1.55,0.14,16.55-0.33,19.29-0.47c2.74-0.14,7.44-2.11,7.75-2.94c0.31-0.83,1.77-12.38,2.11-16.87
			c0.34-4.49,1.5-17.86,1.88-21.1c0.38-3.24,2.39-8.12,1.52-11.31c-0.87-3.2-1.63-4.28-2.01-8.6c-0.38-4.32,0.49-55.66,0.09-65.52
			c-0.41-9.86-4.31-67.64-4.46-73.66c-0.14-6.01-3.61-40.85-3.96-42.91c-0.35-2.06-1.68-2.88-1.41-4.96
			c0.27-2.08,1.1-1.77,1.39-3.22c0.29-1.45,1.12-7.06,0.4-8.53c-0.72-1.47-4-4.73-4-4.73s-0.45-3.55-1.15-4.39
			c-0.7-0.84-4-3.1-4-3.1L728.57,468.61z"/>
		<path d="M694.22,739.61c3.44,0.14,4.25-0.68,5.4-0.2c1.15,0.48,3.77,0.79,3.77,0.79s1.94-3.28,2.42-5.09
			c0.48-1.8-2.87-13.23-2.72-15.03c0.15-1.8,1.78-3.45,1.78-3.45s0.86-17.67,1.01-19.47c0.15-1.8-0.06-8.18,0.1-9
			s3.26-2.31,3.74-3.79s1.43-5.73,0.28-7.2c-1.16-1.46-6.27-7.81-5.95-9.12c0.32-1.31-1.05-33.85-1.26-39.57
			c-0.2-5.72-0.34-48.74-0.34-48.74s2.76-3.45,3.4-5.09s-0.71-54.95-1.53-56.09c-0.83-1.14-8.71-5.66-11.49-5.48
			c-2.78,0.18-9.01-2.06-9.5-1.57c-0.49,0.49-3.43,24.23-4.04,30.12c-0.61,5.89-3.78,20.96-3.76,24.23
			c0.02,3.27,0.28,16.19-0.51,20.94c-0.78,4.75-0.7,17.51-0.67,20.78s-2.57,6.56-2.38,9.99s0.36,4.25-0.29,5.24
			c-0.65,0.99-2.94,0.67-2.6,1.98c0.34,1.31,3.15,6.36,3.98,8.48c0.83,2.12,1.29,21.42,1.98,26.32c0.69,4.9-0.72,14.56-0.48,25.19
			c0.24,10.63,3.15,30.4,2.71,36.78s0.07,10.14,0.9,11.28s7.9,6.49,10.19,7.45C690.63,741.27,694.22,739.61,694.22,739.61z"/>
		<path d="M534.28,740.54c1.39,0.35,13.88-0.35,14.23-1.39c0.35-1.04,4.16-13.53,4.51-16.31c0.35-2.78-1.73-65.92-1.04-72.52
			c0.69-6.59,8.33-82.23,8.33-82.23s4.86,0,6.25-3.12c1.39-3.12,5.2-22.9,5.55-27.76s0-10.41-1.73-11.45
			c-1.73-1.04-3.12-0.69-3.12-0.69s4.16-10.76,5.9-17.35s1.39-12.14,2.78-14.92c1.39-2.78-0.35-9.37-0.35-9.37s1.73-0.69,2.08-4.16
			c0.35-3.47-3.82-5.55-3.82-5.55s1.73-5.9,2.08-11.8c0.35-5.9-3.82-8.33-4.16-12.49c-0.35-4.16,0.35-7.98-1.04-7.63
			c-1.39,0.35-2.43,3.12-4.51,5.55c-2.08,2.43-2.78,5.2-2.78,5.2s-7.63,7.29-9.71,12.49c-2.08,5.2-4.16,14.92-4.16,14.92
			s-4.86,2.43-4.51,5.2s0.69,5.2,0.69,5.2s-4.16,1.04-3.82,4.51c0.35,3.47,0.69,18.74,2.43,20.82s1.73,3.82,1.73,3.82
			s-1.39,1.73-2.43,5.9c-1.04,4.16-1.04,4.16-1.04,4.16s0.35,11.1,0.35,12.14s-1.39,2.78-1.73,7.29c-0.35,4.51-5.9,51.7-6.25,55.17
			c-0.35,3.47-3.47,75.98-3.47,87.43c0,11.45,2.43,44.41,2.08,45.8C533.24,738.8,534.28,740.54,534.28,740.54z"/>
		<path d="M632.19,571.11c-0.85-0.36-2.64-2.1-2.69-4.37c-0.06-2.28,0.47-12.58,1.31-13.99c0.84-1.41,2.03-3.67,1.83-5
			c-0.2-1.33-1.86-14.8-2.67-18.89c-0.8-4.09-2.19-6.17-0.63-7.53c1.56-1.35,3.04-2.49,3.04-2.49s-2.19-3.17-2.34-5.23
			c-0.14-2.06,0.3-6.14,0.3-6.14s-1.53-1.14-1.41-3.84c0.12-2.7,3.04-5.5,2.77-7.87s-0.4-5.68,0.1-7.47c0.5-1.8,2.73-8.38,3-9.02
			c0.27-0.64,3.96-13.13,3.94-14.9c-0.02-1.76-0.02-1.76-0.02-1.76s-0.48-2.46-0.77-3.58c-0.29-1.12,3.27-0.64,4.24,1.26
			c0.96,1.9,3.39,6.92,4.15,7.49c0.77,0.57,5.18,1.4,5.22,4.92c0,0,4.52,2.38,5.31,4.71s0.28,14.39,0.62,17.79
			c0.34,3.4,0.34,3.4,0.34,3.4l-0.46,5.32c0,0,4.36,1.56,1.87,7.54c-2.49,5.98-3.87,9.91-3.87,9.91s0.43,6.19,1.06,7.7
			c0.62,1.51,3.06-3.74,4.34-3.21s3.23,12.11,2.93,15.25c-0.3,3.13,0.45,10.96-0.86,12.92c-1.32,1.96-4.04,3.08-4.04,3.08
			s-0.49,7.81-0.76,8.45c-0.27,0.64,0.95,3.15-0.33,5.62c-1.28,2.47,0.06,5.28-2.45,6.5c0,0,1.86,8.79,2.84,12.45
			c0.98,3.66,3.02,12.03,1.35,14.84c-1.67,2.81-2.65,5.16-2.65,5.16s0.78,43.91,1.43,47.19c0.64,3.27,2.3,24,3.16,30.37
			c0.86,6.37,5.97,35.05,6.24,37.41c0.27,2.37-0.06,11-0.6,12.28c-0.53,1.28-19.43,0.94-21.88,1.42c-2.46,0.48-4.86,0.24-4.86,0.24
			s-3.68-17.06-4.7-21.24c-1.02-4.18-7.64-73.82-8.28-77.09s2.88-9.33,2.88-9.33s1.92-43.79,1.63-47.92
			C631.52,579.35,632.19,571.11,632.19,571.11z"/>
		<path d="M407.78,722.53c-0.1-1.87-4.84-40.2-4.89-43.61c-0.05-3.42,1.91-6.62,1.54-9.89c-0.37-3.27,5.13-118.6,5.58-123.4
			c0.46-4.8,6.06-20.77,6.61-23.71c0.55-2.93,5.22-8.54,5.22-8.54s-4.04,5.31-3.36,8.44c0,0,8.12,3.5,10.11,4.5
			c1.99,0.99,4.85,3.87,4.85,3.87s0.68,18.8,1.5,22.24c0.83,3.44-3.16,37.78-3.05,44.62c0.1,6.83-2.41,54.26-2.91,60.61
			c-0.5,6.35-1.67,19.51-2.81,26.15s0.6,36.81-0.1,39.43c-0.7,2.62-2.02,15.46-6.5,14.86C415.1,737.49,407.78,722.53,407.78,722.53z
			"/>
		<path d="M485.16,488.49c-0.49-6.05,2.89-13.67,2.89-13.67s-2.19-4.96-1.3-12.25s0.57-12.11,0.39-15.67s0.98-22.35,1.45-23.28
			s8.21-2.52,12.09-2.54s9.78,1.35,9.78,1.35l2.9,23.11c0,0,4.5,0.29,4.52,4.94s-1.34,12.89-1.34,12.89s1.48,18.92,2.28,23.58
			c0.8,4.65,3.31,114.65,3.63,116.36c0.32,1.71,2.49,1.23,1.6,10.08c-0.89,8.85-2.25,84.42-2.55,87.37s-5.63,58.37-7.62,65.52
			c-1.98,7.15-11.89,13.09-13.6,12.63s-12.13-6.77-13.4-12.04s3.67-45.79,5.29-64.73c1.62-18.94,1.93-19.56,2.82-29.18
			c0.89-9.62-0.89-58.49-0.91-64.7c-0.03-6.21,1.02-14.59,0.83-21.26s-4.04-69.34-4.68-73.53c-0.64-4.19-6.55-6.33-6.42-12.07
			C483.95,495.63,485.16,488.49,485.16,488.49z"/>
	</g>
</g>
</svg>
