<?xml version="1.0" encoding="utf-8"?>
<!-- Generator: Adobe Illustrator 24.1.3, SVG Export Plug-In . SVG Version: 6.00 Build 0)  -->
<svg version="1.1" id="圖層_1" xmlns="http://www.w3.org/2000/svg" xmlns:xlink="http://www.w3.org/1999/xlink" x="0px" y="0px"
	 viewBox="0 0 1200 1200" style="enable-background:new 0 0 1200 1200;" xml:space="preserve">
<g>
	<path d="M549.54,534.96c0.07-0.1,0.13-0.2,0.2-0.29c2.94-4.09,8.46-5.49,9.87-6.9c1.44-1.44,1.44-2.88,4.32-2.88
		s10.07-2.88,11.51-2.88s2.88,2.88,2.88,2.88s8.63-1.44,11.51-2.88s8.63-2.88,12.95-2.88c4.32,0,17.26-1.44,20.14,0
		c2.88,1.44,7.19,0,11.51,2.88c4.32,2.88,8.63,5.75,11.51,7.19s4.32,4.32,5.75,5.75s0,2.88,2.88,2.88c2.88,0,4.32,1.44,5.75,2.88
		s2.68,4.28,3.95,4.91s2.06,1.58,2.53,3.01c0.48,1.43,0.16,4.91,0.79,5.7c0.63,0.79,4.59,3.8,5.38,5.38
		c0.79,1.58,1.27,4.59,2.53,5.7s2.06,2.22,2.38,4.28c0.32,2.06,0,4.12,0.63,6.02s1.58,3.8,3.01,5.86s3.8,5.86,4.12,8.24
		c0.32,2.38,0.48,10.14,0.48,11.72c0,1.58,0,1.74-0.63,4.59c-0.63,2.85-1.43,7.13-2.38,8.24c-0.95,1.11-2.22,5.54-2.53,7.13
		c-0.32,1.58-0.16,7.6-1.43,9.82c-1.27,2.22-3.48,5.07-3.17,6.65c0.32,1.58,1.43,3.33,0.16,4.28c-1.27,0.95-3.96,3.33-5.23,3.8
		c-1.27,0.48-4.91,3.8-6.65,5.86s-3.96,6.18-7.92,8.55s-12.99,5.7-14.89,8.08c-1.9,2.38-1.58,3.64-3.64,3.64s-4.75-0.32-8.24,0.48
		s-10.29,2.38-11.24,3.96c-0.95,1.58-1.58,2.53-4.12,2.53s-4.28,0-7.29-0.16c-3.01-0.16-6.33-0.16-7.76,0.16
		c-1.43,0.32-1.43,0.95-3.17,1.11c-1.74,0.16-3.33-0.63-4.28-0.16c-0.95,0.48-1.11,1.9-3.01,1.27s-5.38-1.27-5.38-1.27
		s-3.96-2.38-8.87-3.33c-4.91-0.95-8.71,0-11.09-2.22c-2.38-2.22-6.33-3.96-9.19-5.23c-2.85-1.27-3.8-5.38-7.6-6.18
		c-3.8-0.79-8.39,0.16-9.82-2.38s-1.43-2.53-1.43-2.53s-1.43-4.59-4.75-8.24c-3.33-3.64-4.59-4.28-7.13-6.33
		c-2.53-2.06-6.97-5.54-7.92-10.29c-0.95-4.75-1.58-9.82-1.58-16.79s-0.63-16.95,1.9-21.54s5.86-6.02,5.86-8.39s-1.9-7.6,0-15.2
		s7.46-13.14,10.93-17.1c2.22-2.53,3.01-5.23,3.8-7.6c0.79-2.38,2.69-3.33,3.48-3.33s1.11-2.06,1.11-2.06s1.9-0.32,2.85-0.79
		C544.84,540.08,547.27,538.07,549.54,534.96z"/>
</g>
</svg>
