<?xml version="1.0" encoding="utf-8"?>
<!-- Generator: Adobe Illustrator 24.1.3, SVG Export Plug-In . SVG Version: 6.00 Build 0)  -->
<svg version="1.1" id="圖層_1" xmlns="http://www.w3.org/2000/svg" xmlns:xlink="http://www.w3.org/1999/xlink" x="0px" y="0px"
	 viewBox="0 0 1200 1200" style="enable-background:new 0 0 1200 1200;" xml:space="preserve">
<style type="text/css">
	.st0{fill-rule:evenodd;clip-rule:evenodd;}
</style>
<g>
	<path d="M627.31,699.94c0,0-2.38-0.66-3.24-5.11c-0.86-4.45,1.16-84.3,1.26-88.95c0.1-4.65,2.17-35.5,2.73-37.62
		c0.56-2.12,2.33-7.28,2.43-10.47c0.1-3.19,6.62-65.69,7.12-68.42c0.51-2.73,3.54-4.45,5.11-4.7c1.57-0.25,17.35-1.57,18.2-1.52
		c0.86,0.05,3.44,1.67,5.01,1.42s0.91,2.12,0.76,3.24c-0.15,1.11-12.63,122.53-12.68,124.86c-0.05,2.33-3.99,23.92-3.99,28.32
		s-5.41,49.46-5.61,51.43c-0.2,1.97,0.15,10.62,0.15,10.62s-5.87,5.87-7.84,5.66c-1.97-0.2-6.68-2.38-7.69-2.78
		c-1.01-0.4-2.23-3.24-2.23-3.24L627.31,699.94z"/>
	<path d="M572.85,706.64c0,0-1.21,2.83-2.23,3.24s-5.71,2.58-7.69,2.78s-7.84-5.66-7.84-5.66s0.35-8.65,0.15-10.62
		s-5.61-47.03-5.61-51.43c0-4.4-3.94-25.99-3.99-28.32c-0.05-2.33-12.53-123.74-12.68-124.86c-0.15-1.11-0.81-3.49,0.76-3.24
		c1.57,0.25,4.15-1.37,5.01-1.42c0.86-0.05,16.64,1.27,18.2,1.52s4.6,1.97,5.11,4.7c0.51,2.73,7.02,65.23,7.12,68.42
		s1.87,8.34,2.43,10.47c0.56,2.12,2.63,32.97,2.73,37.62c0.1,4.65,2.12,84.5,1.26,88.95s-3.24,5.11-3.24,5.11L572.85,706.64z"/>
	<path d="M716.4,460.79c0,0,8.3,0.61,10.76,0.61c2.46,0,16.91,2.15,16.91,2.15l8.61,7.99c0,0-2.46,45.5-3.69,59.03
		c-1.23,13.53-8.61,60.87-8.61,62.41s-1.23,3.07-1.23,3.07s0.61,9.53-1.23,16.91c-1.84,7.38-22.75,105.76-22.75,107.29
		s0.31,2.77-0.92,2.77c-1.23,0-23.98-4.3-23.98-4.3s-2.77-2.46-3.38-3.38s-0.92-2.46-1.23-4.92
		c-0.31-2.46,17.52-110.67,18.14-114.98c0.61-4.3,5.53-46.11,5.53-47.34C709.33,546.87,716.4,460.79,716.4,460.79z"/>
	<path d="M505.64,497.44c0,0,8.29-0.78,10.71-1.19c2.42-0.41,17.03-0.7,17.03-0.7l9.82,6.44c0,0,5.17,45.27,6.22,58.81
		c1.05,13.54,1.67,61.45,1.93,62.97s-0.7,3.24-0.7,3.24s2.2,9.29,1.61,16.88c-0.59,7.58-4.78,50.06-4.52,51.57
		c0.26,1.52,0.77,2.68-0.45,2.88c-1.21,0.21-24.36-0.24-24.36-0.24s-3.14-1.96-3.9-2.77s-1.32-2.27-2.03-4.64
		c-0.71-2.37-1.2-54.03-1.31-58.38s-2.24-46.39-2.45-47.6S505.64,497.44,505.64,497.44z"/>
	<path d="M539.98,469.7c0,0,8.29-0.78,10.71-1.19c2.42-0.41,17.03-0.7,17.03-0.7l9.82,6.44c0,0,5.17,45.27,6.22,58.81
		c1.05,13.54,1.67,61.45,1.93,62.97c0.26,1.52-0.7,3.24-0.7,3.24s2.2,9.29,1.61,16.88s-4.78,50.06-4.52,51.57
		c0.26,1.52,0.77,2.68-0.45,2.88s-24.36-0.24-24.36-0.24s-3.14-1.96-3.9-2.77s-1.32-2.27-2.03-4.64s-1.2-54.03-1.31-58.38
		c-0.11-4.35-2.24-46.39-2.45-47.6C547.38,555.75,539.98,469.7,539.98,469.7z"/>
	<path d="M602.08,496.12c0,0,8.29-0.78,10.71-1.19s17.03-0.7,17.03-0.7l9.82,6.44c0,0,5.17,45.27,6.22,58.81s1.67,61.45,1.93,62.97
		s-0.7,3.24-0.7,3.24s2.2,9.29,1.61,16.88c-0.59,7.58-4.78,50.06-4.52,51.57c0.26,1.52,0.77,2.68-0.45,2.88
		c-1.21,0.21-24.36-0.24-24.36-0.24s-3.14-1.96-3.9-2.77c-0.76-0.81-1.32-2.27-2.03-4.64c-0.71-2.37-1.2-54.03-1.31-58.38
		s-2.24-46.39-2.45-47.6C609.47,582.17,602.08,496.12,602.08,496.12z"/>
	<path d="M646.16,495.49c0,0,8.29-0.78,10.71-1.19c2.42-0.41,17.03-0.7,17.03-0.7l9.82,6.44c0,0,5.17,45.27,6.22,58.81
		c1.05,13.54,1.67,61.45,1.93,62.97c0.26,1.52-0.7,3.24-0.7,3.24s2.2,9.29,1.61,16.88S688,692,688.26,693.52s0.77,2.68-0.45,2.88
		s-24.36-0.24-24.36-0.24s-3.14-1.96-3.9-2.77s-1.32-2.27-2.03-4.64s-1.2-54.03-1.31-58.38c-0.11-4.35-2.24-46.39-2.45-47.6
		C653.56,581.55,646.16,495.49,646.16,495.49z"/>
	<path d="M673.42,496.12c0,0,8.29-0.78,10.71-1.19c2.42-0.41,17.03-0.7,17.03-0.7l9.82,6.44c0,0,5.17,45.27,6.22,58.81
		s1.67,61.45,1.93,62.97s-0.7,3.24-0.7,3.24s2.2,9.29,1.61,16.88c-0.59,7.58-4.78,50.06-4.52,51.57c0.26,1.52,0.77,2.68-0.45,2.88
		c-1.21,0.21-24.36-0.24-24.36-0.24s-3.14-1.96-3.9-2.77c-0.76-0.81-1.32-2.27-2.03-4.64c-0.71-2.37-1.2-54.03-1.31-58.38
		s-2.24-46.39-2.45-47.6C680.81,582.17,673.42,496.12,673.42,496.12z"/>
	<path d="M467.35,692.75c0,0,22.96,3.5,24.19,3.54c1.23,0.04,6.5-1.33,6.5-1.33s5.34-32.43,6.06-35.8
		c0.72-3.36,1.6-21.48-1.09-23.72c-2.7-2.24-6.79-8.83-8.46-14.42c-1.67-5.59-8.31-67.63-8.83-70.72s-1.85-9.59-2.97-13.01
		s-3.07-29.32-3.34-30.56s-3.33-1.64-4.26-1.37c-0.93,0.28-1.87,0.86-6.48,0.72c-4.61-0.15-9.52-0.61-9.52-0.61
		s-0.44,4.29-0.85,7.36c-0.4,3.06,1.48,11.43,1.68,14.82c0.2,3.39,0.02,8.92,0.57,11.09c0.55,2.17,2.73,10.85,2.25,16.37
		c-0.48,5.52,0.1,6.46,0.1,6.46s4.88,59.52,5.69,62.93s7.15,16.84,8.04,18.1c0,0-1.59,1.79-1.68,4.56
		c-0.09,2.77-7.33,27.45-6.82,30.85c0.51,3.4,0.3,9.85,0.3,9.85l-1.33,3.03L467.35,692.75z"/>
	<path d="M590.16,479.85c0,0,10.6,0.76,12.87,1.14c2.27,0.38,13.25,1.14,14.39,3.41c1.14,2.27,2.27,10.22,2.65,15.14
		s0.38,4.92,0.38,4.92s0.38,21.2-0.76,27.26s-1.14,6.06-1.14,6.06s-5.3,18.93-6.06,21.2c0,0-9.84,18.17-11.74,25.37
		c-1.89,7.19-15.14,45.05-15.52,51.11c-0.38,6.06,7.19,34.83,6.06,35.59c-1.14,0.76-6.06,0.76-9.09,1.14s-6.06,1.51-5.68-1.51
		c0.38-3.03,1.51-51.87,1.89-56.41s3.03-28.77,3.41-31.8c0.38-3.03,6.81-30.67,6.81-31.8c0-1.14-1.14-7.19,0-10.22
		c1.14-3.03,1.14-8.71,1.14-11.36c0-2.65-0.76-28.39-0.76-35.59C589.02,485.9,590.16,479.85,590.16,479.85z"/>
	<path d="M709.07,422.94c0,0,10.6,0.76,12.87,1.14c2.27,0.38,13.25,1.14,14.39,3.41c1.14,2.27,2.27,10.22,2.65,15.14
		s0.38,4.92,0.38,4.92s0.38,21.2-0.76,27.26s-1.14,6.06-1.14,6.06s-5.3,18.93-6.06,21.2c0,0-9.84,18.17-11.74,25.37
		s-15.14,45.05-15.52,51.11c-0.38,6.06,7.19,34.83,6.06,35.59c-1.14,0.76-6.06,0.76-9.09,1.14c-3.03,0.38-6.06,1.51-5.68-1.51
		c0.38-3.03,1.51-51.87,1.89-56.41s3.03-28.77,3.41-31.8c0.38-3.03,6.81-30.67,6.81-31.8s-1.14-7.19,0-10.22
		c1.14-3.03,1.14-8.71,1.14-11.36c0-2.65-0.76-28.39-0.76-35.59C707.93,429,709.07,422.94,709.07,422.94z"/>
	<path d="M435.59,584.21c0,0,10.6,0.76,12.87,1.14c2.27,0.38,13.25,1.14,14.39,3.41s2.27,10.22,2.65,15.14
		c0.38,4.92,0.38,4.92,0.38,4.92s0.38,21.2-0.76,27.26c-1.14,6.06-1.14,6.06-1.14,6.06s-5.3,18.93-6.06,21.2
		c0,0-9.84,18.17-11.74,25.37c-1.89,7.19-15.14,45.05-15.52,51.11c-0.38,6.06,7.19,34.83,6.06,35.59c-1.14,0.76-6.06,0.76-9.09,1.14
		c-3.03,0.38-6.06,1.51-5.68-1.51c0.38-3.03,1.51-51.87,1.89-56.41c0.38-4.54,3.03-28.77,3.41-31.8c0.38-3.03,6.81-30.67,6.81-31.8
		c0-1.14-1.14-7.19,0-10.22c1.14-3.03,1.14-8.71,1.14-11.36c0-2.65-0.76-28.39-0.76-35.59
		C434.45,590.27,435.59,584.21,435.59,584.21z"/>
	<path d="M624.7,527.91c0.41,7-0.01,136.89-0.01,136.89s-0.38,3.78,0.63,5.32c1.01,1.54-0.7,4.65-2.33,4.84
		c-1.64,0.19-8.88-1.44-10.98-1.61c-2.09-0.17-9.51,0.29-9.51,0.29s-2.5-0.12-3.15-2.12c-0.65-2,1.23-98.46,0.99-100.5
		c-0.24-2.05,2.89-35.19,3.11-36.87c0.22-1.68,1.76-86.91,1.76-86.91s6.37-5.73,8.37-6.38c2-0.65,7.61,1.18,9.03,2.67
		C622.61,443.53,624.28,520.91,624.7,527.91z"/>
	<path d="M555.75,660.52c-0.23-6.05,2.52-118.21,2.52-118.21s0.4-3.26-0.45-4.6c-0.85-1.35,0.69-4,2.1-4.14s7.64,1.41,9.45,1.59
		c1.81,0.18,8.21-0.08,8.21-0.08s2.16,0.15,2.68,1.89c0.53,1.74-2.87,85-2.7,86.77c0.17,1.77-3.15,30.33-3.36,31.78
		c-0.22,1.45-3.12,75.01-3.12,75.01s-5.61,4.83-7.35,5.36c-1.74,0.53-6.55-1.15-7.75-2.47C556,733.41,555.98,666.57,555.75,660.52z"
		/>
	<path d="M686.77,486.18c1.53,0.17,9.13,1.74,10.43,2.61c1.3,0.87,5.87,3.7,6.09,6.96c0.22,3.26-8.91,37.61-9.35,42.39
		c-0.43,4.78-9.78,35.43-10.65,38.04c-0.87,2.61-4.57,11.96-4.57,11.96s3.04,9.13,3.48,10.43c0.43,1.3,9.78,12.83,10.87,16.09
		s10.87,23.91,11.09,25.87c0.22,1.96,2.61,2.17,1.52,3.7c-1.09,1.52-14.35,7.83-15.22,8.26c-0.87,0.43-6.96,0.87-7.83,1.3
		c-0.87,0.43-6.3,2.39-7.83,1.74c-1.52-0.65-13.04-38.26-14.56-41.09c-1.52-2.83-5.43-33.26-5.22-35.65s11.52-21.09,12.83-28.04
		s9.78-38.91,10.22-43.69s1.74-10.87,2.83-13.7C681.99,490.53,684.82,485.96,686.77,486.18z"/>
	<path d="M758.88,505c1.53,0.17,9.13,1.74,10.43,2.61c1.3,0.87,5.87,3.7,6.09,6.96s-8.91,37.61-9.35,42.39
		c-0.43,4.78-9.78,35.43-10.65,38.04s-4.57,11.96-4.57,11.96s3.04,9.13,3.48,10.43c0.43,1.3,9.78,12.83,10.87,16.09
		c1.09,3.26,10.87,23.91,11.09,25.87c0.22,1.96,2.61,2.17,1.52,3.7c-1.09,1.52-14.35,7.83-15.22,8.26c-0.87,0.43-6.96,0.87-7.83,1.3
		s-6.3,2.39-7.83,1.74c-1.52-0.65-13.04-38.26-14.56-41.09s-5.43-33.26-5.22-35.65c0.22-2.39,11.52-21.09,12.83-28.04
		s9.78-38.91,10.22-43.69c0.43-4.78,1.74-10.87,2.83-13.7C754.1,509.35,756.92,504.79,758.88,505z"/>
</g>
</svg>
