<?xml version="1.0" encoding="utf-8"?>
<!-- Generator: Adobe Illustrator 24.1.3, SVG Export Plug-In . SVG Version: 6.00 Build 0)  -->
<svg version="1.1" id="圖層_1" xmlns="http://www.w3.org/2000/svg" xmlns:xlink="http://www.w3.org/1999/xlink" x="0px" y="0px"
	 viewBox="0 0 1200 1200" style="enable-background:new 0 0 1200 1200;" xml:space="preserve">
<style type="text/css">
	.st0{fill-rule:evenodd;clip-rule:evenodd;}
</style>
<g>
	<path d="M761.44,458.27c-3.13-0.39-7.58-2.15-7.58-2.15l-1.11,9.77l-12.06,87.01l-6.37,39.12c0,0-0.39-14.21-0.43-17.67
		c-0.04-3.46-1.07-30.69-1.76-37.93s-3.65-43.86-4.49-49.15c-0.84-5.29-1.24-19.5-1.64-21.18s-1.98-5.15-1.98-5.15
		s-1.45,0.76-2.8,0.73c-1.35-0.03-3.27-3.07-3.27-3.07l-2.42,2.22c0,0-2.82-1-5.1-0.72c-2.28,0.28-9.02,1.88-9.02,1.88
		s0.25-5.81-0.13-7.3c-0.38-1.5-2.96-0.6-2.96-0.6s-6.5-1.13-8.27-1.49c-1.78-0.36-7.21-0.66-7.92-0.18s0.14,1.14,0.14,2.68
		c0,1.54-0.64,10.48-0.64,10.48s-2.57-5.27-2.93-6.58c-0.35-1.31-1.51-4.44-2.34-4.91c-0.83-0.48-4.36,0.54-4.36,0.54
		s-1.89-4.39-4.83-4.8c-2.94-0.41-4.67,1.15-4.67,1.15s0.19,1.52,1.06,3.92c0.87,2.4,3.99,16.85,4.23,18.75s5.11,25.96,6.64,30.58
		c1.53,4.63,4.74,21.38,4.69,22.54c-0.05,1.16-1.03,24.59-1.03,24.59c-1.6-5.2-10.02-23.62-10.02-23.62s-2.75-20.85-3.34-24.06
		c-0.59-3.2-0.2-14.23-0.6-17.46s-4.07-25.31-4.01-28.02c0.05-2.7,0.39-6.21-0.38-7.85c-0.78-1.64-1.65-4.04-1.65-4.04
		s-1.99,1.02-3.16,0.97c-1.16-0.05-6.12,0.37-7.07,0.48c-0.95,0.12-3.13-1.93-3.01,0.56c0.11,2.49,0.32,7.28,1.02,9.89
		c0.71,2.61,1.77,25.4,1.77,25.4l-13.04-23.06c0,0-0.49-5.53-1.66-10.39c-1.17-4.86-3.95-16.47-4.35-18.15
		c-0.4-1.68-2.38-5.29-3.07-6.17c-0.69-0.88-1.59,1.16-1.59,1.16s-0.26-2.09-1.89-2.85c-1.63-0.76-3.34-2.09-3.34-2.09
		s-0.29,0.81-1.17,1.49c-0.88,0.69-3.85,1.63-5.32,2.19s-4.61,1.72-4.61,1.72l-1.32-1.38l-4.7,2.5l7.63,13.51
		c0,0-2.83,2.08-3.87,2.98c-1.05,0.9-4.58,1.91-4.58,1.91s-2.58-13.17-2.76-16.23c-0.18-3.06-1.7-2.87-3.9-3.57
		c-2.2-0.69-6.52,0.22-8.44,0.27c-1.92,0.04-4.91,2.34-4.91,2.34s-1.22-5.24-1.95-8.04c-0.73-2.8-2.7-11.03-4.22-12.39
		c-1.51-1.36-6.12-1.18-8.04-1.13c-1.92,0.04-5.67-0.65-5.95,0.15s0.19,1.52,0.68,2.42s0.54,4.36,0.54,4.36l-3.39,0.61l0.42,3.42
		l-1.79-3.63c0,0,0,0-1.33,0.16c-1.33,0.16-8.28,3.14-8.28,3.14s-0.41,1.4-0.22,2.92s2.35,9.73,2.35,9.73s-1.31,0.35-4.55,0.56
		c-3.25,0.21-1.49,0.38-1.17,1.49c0.33,1.12,3.51,19.22,3.51,19.22l-14.21,1.94c0,0-4.97-13.84-8.04-21.55
		c-3.07-7.71-7.05-18.21-7.05-18.21l-2.63-2.57c0,0-2.42,0.68-3.13,1.15c-0.71,0.47-6,1.31-8.92,2.64s-4.43-0.03-4.06,1.46
		c0.38,1.49,3.33,6.72,4.84,9.62c1.51,2.9,10.21,26.68,16.52,45.17c6.31,18.49,0.13,5.76,9.25,39.32
		c9.12,33.56,14.22,57.78,14.22,57.78s-13.68-31.45-16.47-36.89s-15.06-31.67-18.81-38.72c-3.75-7.05-24.81-48.39-24.81-48.39
		s-7.41-14.89-8.4-16.69c-0.99-1.8-4.12-2.19-5.83-1.98s-4.84,2.91-6.91,3.35c-2.06,0.45-3.96,0.68-7.45,2.07
		c-3.49,1.39-2.26,2.01-3.66,3.15s-1.85,0.61-2.3,1.63c-0.45,1.02-0.27,2.54,0.77,6.26c1.03,3.73,6.82,14.77,6.82,14.77
		s-4.25,1.48-5.84,2.64s-2.71,4.57-2.71,4.57s-3.85-6.27-5.48-8.57s-7.35-9.69-9.48-12.9s-3.53-2.07-3.53-2.07
		c-1.82-2.28-2.11-1.48-2.61-0.84c-0.5,0.64-0.95,1.66-0.01,3.08c0.95,1.42,6.9,12.25,8.69,14.34c1.8,2.09,4.04,4.71,4.04,4.71
		s0.99,1.8,1.51,2.9c0.52,1.09,4.79,9.24,4.79,9.24l-1.97,1.21c0,0-0.79,1.44-0.17,3.3c0.61,1.85,7.15,15.88,23.84,48.32
		c9.1,17.69,17.46,35.75,25.93,53.74c4.26,9.06,8.55,18.12,12.99,27.1c2.22,4.5,4.48,8.99,6.78,13.45
		c1.85,3.58,4.87,7.23,5.97,11.08c0.23,0.79,0.37,1.6,0.47,2.42c0.32,2.81,0,5.64-0.33,8.45c-2.49,21.49-3.27,43.29-4.88,64.9
		c0.03,1.06,0.76,6.8,0.33,9.01c-0.43,2.21-0.6,6.27-1.01,6.85c-0.41,0.58,0.59,0.77,1.45,1.02c0.86,0.26,2.51,0.99,4.3,1.3
		c0,0,2.98,2.19,4.69,2.71c1.72,0.52,6.09-0.74,7.14-1.13c1.05-0.38,4.52-0.98,5.22-1.36c0.05-0.02,0.09-0.07,0.14-0.11
		c0.37,3.5,1.61,14.08,1.43,15.83c-0.21,2.03,0.02,10.14,0.1,10.61c0.08,0.47,3.05-0.12,4.68,0.41c1.24,0.4,5.03,4.49,5.43,4.4
		c0.4-0.09,3.71-1.89,3.71-1.89s2.71-7.61,2.69-9.49c-0.01-1.1-0.33-6.5-0.63-10.87c1.66-0.32,4.26-1.1,5.12-1.15
		c1.15-0.07,3.73-0.43,4.38-0.58c0.65-0.15,1.88-0.72,1.88-0.72s5.36-0.25,7.32-0.36c0.25,3.78,0.55,7.1,0.86,8.05
		c0.76,2.39,2.78,6.49,2.75,7.49c-0.03,1-0.55,40.16-0.55,40.16c-0.06,2.01,1.38,2.49,1.98,2.7c0.6,0.22,2.66-0.85,2.66-0.85
		s4.25-4.64,4.35-5.25c0.1-0.62,1.47-25.76,1.38-26.79c-0.09-1.02-0.29-2.19-0.29-2.19s1.2-2.84,0.72-3.8
		c-0.48-0.96-1.49-3.39-1.44-4.51c0.01-0.23,0-1.45-0.03-3.27c0.62,0.77,1.16,1.37,1.16,1.37l2.79-0.55l2.47,1.91c0,0,0,0,0.91-0.42
		c0.91-0.42,3.11-2.77,3.11-2.77s2.22-0.35,2.87-0.53c0,0,1.34-0.92,1.41-1.56c0.06-0.52-0.15-4.26-0.47-7.16l1.7,0.08
		c0,0,2.44-1.02,2.8-0.95c0.36,0.07-0.23-0.69-0.21-1s0.9-3.59,1.07-3.74c0.16-0.15,0.83-0.95,1.45-1.02
		c0.42-0.05,2.48-0.81,4.17-1.52c-0.05,0.29-0.09,0.51-0.12,0.64c-0.52,2.29-1.98,13.75-1.98,13.75s5.27-0.54,6.86-0.64
		c1.59-0.11,4.87,1.26,7.01,1.67c2.14,0.41,6.68,0.85,6.96,0.48c0.28-0.38,0.6-1.3,0.6-1.3s3.53-1.01,4.01-1.35
		c0.48-0.34,0.7-0.64,0.49-1.61c0,0-0.93-18.47-1.77-34.12c0.55-0.01,0.91-0.02,0.91-0.02s3.13,3.31,3.71,3.78
		c0.49,0.39,2.43,0.94,3.59,1.25l1.03,8.94c0.26,1.91,1.55,2.51,1.79,2.42c0.25-0.1,4.35,0.03,4.35,0.03s6.46,3.86,7.18,4.82
		c0.72,0.97,1.89,2.75,2.32,2.98c0.43,0.23,2.08-0.1,2.08-0.1s0.36-6.45,0.73-13.37c1.14,0.73,1.97,1.28,2.27,1.53
		c1.3,1.1,5.63,8.5,7.31,8.29c1.37-0.17-0.81-17.33-1.66-23.66c1.06-0.26,1.98-0.54,2.39-0.69c0.28-0.1,0.75-0.22,1.28-0.35
		c0.16,2.67,0.13,6.28,0.66,7.25c0.78,1.43,1.62,2.58,2.11,2.97c0.49,0.39,2.66,1.49,3.95,1.88c1.29,0.39,6.53,0.26,6.53,0.26
		s3.13,3.31,3.71,3.78c0.59,0.47,3.24,1.16,4.16,1.41s4.54-0.06,4.91-0.72c0.37-0.66,1.43-2.38,1.9-2.97
		c0.47-0.59,1.13-1.02,1.17-1.47s-1.75-13.43-2.64-25.54c-0.26-3.48-0.36-6.28-0.4-8.69c1.34-0.3,2.87-0.63,3.31-0.86
		c0.7-0.38,1.5-2.25,1.5-2.25s1.04-0.45,2.01-0.99c0.12,15.21,0.28,28.07,0.46,29.19c0.45,2.84,1.62,35.83,2.06,37.58
		c0.44,1.75,0.01,4.93,0.23,5.26s7.4,4.82,8.2,6.04c0.8,1.22,1.61,5.35,1.84,5.19c0.23-0.17,3.58-7.44,5.64-12.78
		c2.06-5.34,0.33-17.83,0.54-22.26c0.06-1.29-0.12-10.34-0.42-22.53c0.06,0.02,0.13,0.05,0.19,0.07c1.72,0.52,6.09-0.74,7.14-1.13
		c1.05-0.39,4.52-0.98,5.22-1.36c0.7-0.38,1.5-2.24,1.5-2.24s3.51-1.52,3.63-2.31c0.12-0.78,0.18-26.22-0.15-27.84
		s0.31-4.13,0.34-5.41c0.03-1.28-0.68-1.26-1.2-2.24c-0.16-0.3-0.46-4.26-0.8-9.77c2.33,0.01,4.67,0.04,7,0.04
		c8.31-16.16,7.34-43.15,10.23-61.11c2.51-15.58,5.67-31.21,7.28-46.92c1.41-13.66,7.08-67.91,7.85-74.17
		c0.77-6.26,1.11-6.69,1.11-6.69S764.57,458.66,761.44,458.27z M701.2,502.64c1.88,9.02,4.69,44.5,4.69,44.5
		c-0.73-2.8-5.1-18.06-5.1-18.06C701.56,522.83,701.2,502.64,701.2,502.64z M615.25,697.47c0.01-1.35,0.02-2.6,0.03-3.7
		c0.16,0.49,0.27,0.81,0.29,0.86C615.6,694.69,615.47,695.76,615.25,697.47z"/>
</g>
</svg>
