<?xml version="1.0" encoding="utf-8"?>
<!-- Generator: Adobe Illustrator 24.1.3, SVG Export Plug-In . SVG Version: 6.00 Build 0)  -->
<svg version="1.1" id="圖層_1" xmlns="http://www.w3.org/2000/svg" xmlns:xlink="http://www.w3.org/1999/xlink" x="0px" y="0px"
	 viewBox="0 0 1200 1200" style="enable-background:new 0 0 1200 1200;" xml:space="preserve">
<style type="text/css">
	.st0{fill-rule:evenodd;clip-rule:evenodd;}
</style>
<g>
	<path d="M550.54,977.07c1.49,4.95,1.98,14.36,4.95,15.36c2.97,0.99,17.34,6.44,21.3,8.42c3.96,1.98,8.92,6.44,21.79,4.95
		c12.88-1.49,31.21-7.43,33.68-10.9c2.48-3.47,2.97-14.36,4.95-23.78c1.98-9.41,9.41-30.71,10.4-39.63
		c0.99-8.92,3.47-25.76,4.46-32.69c0.99-6.93,3.96-17.34,2.48-17.83c-1.49-0.5-2.97-3.96-2.97-3.96s5.45-83.22,7.43-102.04
		c1.98-18.82-1.98-69.84-1.49-89.66c0.5-19.81-5.45-36.16-4.95-46.56s0.99-29.22,0.99-33.19s-4.95,3.96-4.46,1.98
		c0.5-1.98-2.48-33.19-2.97-46.56c-0.5-13.37-9.91-82.72-10.9-98.08s-13.87-215.97-15.36-229.84c-1.49-13.87-1.98-25.26-2.97-27.74
		c-0.99-2.48-3.96,0-3.96,0s0-7.43-1.98-9.41c-1.98-1.98-7.43-1.49-9.41-1.98c-1.98-0.5-4.95,3.96-6.93,4.46
		c-1.98,0.5-4.46-1.49-3.96,2.48c0.5,3.96,0.99,6.93,0.99,6.93s-4.46,1.49-6.44,1.98c-1.98,0.5-2.97,6.93-2.97,11.89
		s-3.96,330.89-10.4,365.56c-6.44,34.67-10.9,87.18-14.86,105.51c-3.96,18.33-8.42,129.78-10.4,147.61
		c-1.98,17.83-2.48,26.75-2.97,28.73c-0.5,1.98-1.98-6.93-2.97,12.38c-0.99,19.32,1.98,48.54,1.49,57.95
		C541.62,948.84,550.54,977.07,550.54,977.07z"/>
</g>
</svg>
