<?xml version="1.0" encoding="utf-8"?>
<!-- Generator: Adobe Illustrator 24.1.3, SVG Export Plug-In . SVG Version: 6.00 Build 0)  -->
<svg version="1.1" id="圖層_1" xmlns="http://www.w3.org/2000/svg" xmlns:xlink="http://www.w3.org/1999/xlink" x="0px" y="0px"
	 viewBox="0 0 1200 1200" style="enable-background:new 0 0 1200 1200;" xml:space="preserve">
<style type="text/css">
	.st0{fill-rule:evenodd;clip-rule:evenodd;}
</style>
<g>
	<path d="M719.45,465.75c0,0,10.86,1.62,14.94,1.94c4.08,0.31,18.67,3.29,18.67,3.29s9.9,7.36,10.45,8.08
		c0.56,0.72,3.24,15.18,3.24,15.18s13.9,48.46,21.85,74.23s15.85,71.93,15.5,77.96s-0.3,14.07-0.3,14.07s-9.7,7.86-11.98,10.38
		c-2.28,2.53-6.92,6.48-6.92,6.48l-5.4,1.47c0,0-4.18-2.93-5.53-4.19c-1.36-1.26-10.58-69.08-13.91-81.88
		c-3.33-12.8-9.06-32.21-14.49-42.24c-5.43-10.03-19.53-55.26-19.53-55.26s-5.34-17.4-6.29-20.13S719.45,465.75,719.45,465.75z"/>
	<path d="M527.99,446.85c2.65,0.62,12.28,4.27,12.28,4.27s3.76,15,3.92,21.47s2.12,88.84,2.36,96.17
		c0.24,7.33,2.67,57.24,3.76,62.11s3.98,43.29,3.98,43.29l0.56,15.51c0,0-13.63,9.25-16.01,9.25c-2.38,0-6.43,0.59-6.43,0.59
		l-7.14-7.12c0,0,2-27.63,1.51-44.66s-5.92-78.55-6.44-91.26c-0.52-12.7-0.88-61.29-1.79-71.15c-0.91-9.86-2.1-34.6-2.1-34.6
		L527.99,446.85z"/>
	<path d="M591.51,477.92c0.61-0.91,14.61-10.96,18.26-13.09c3.65-2.13,9.13-3.04,9.13-3.04s0.91,9.43,2.13,14.3
		c1.22,4.87,3.65,28.91,5.17,35.61s3.04,26.17,4.26,31.96c1.22,5.78,4.87,42.91,7,51.74s6.7,35.3,8.52,43.22
		c1.83,7.91,3.65,27.09,4.26,31.04s-6.09,14.61-6.09,14.61l-8.22,6.7c0,0-7.61-5.17-9.13-5.17c-1.52,0-8.52-0.91-8.83-2.13
		c-0.3-1.22-1.22-8.52-1.83-15.22c-0.61-6.7-3.04-37.43-4.87-44.74s-11.57-78.83-12.17-84.3c-0.61-5.48-5.48-43.83-6.39-45.35
		s-2.74-5.48-2.74-6.7S591.51,477.92,591.51,477.92z"/>
	<path d="M621.49,450.83c0-0.91-0.3-1.83,0.61-2.13c0.91-0.3,6.09-1.22,6.09-1.22l22.52,11.57c0,0,13.09,37.43,17.65,46.26
		c4.57,8.83,14.61,39.87,17.65,46.87c3.04,7,16.74,39.87,19.48,46.56c2.74,6.7,9.43,40.78,10.96,43.22
		c1.52,2.43,3.96,3.04,3.04,5.48c-0.91,2.43-2.74,17.96-3.35,18.87s-13.09,17.96-13.09,17.96l-11.87,6.39c0,0-2.43-7.3-3.35-9.43
		c-0.91-2.13-0.61-9.43-1.83-13.7c-1.22-4.26-22.52-94.35-27.7-102.56c-5.17-8.22-26.48-71.22-28.91-77.3
		c-2.43-6.09-5.17-14.3-6.7-17.65C621.19,466.66,621.49,450.83,621.49,450.83z"/>
	<path d="M578.12,477.98c-1.18,0.31-27.16,5.62-27.16,5.62s-0.8,32.64-2.42,38.42c-1.62,5.78-7,80.56-7.99,83.97
		s1.66,13.41,2.95,15.9c1.29,2.49,6.28,16.6,7.14,19.83c0.86,3.24,0.57,9.29,0.57,9.29s0.96,0.06,3.8,2.46
		c2.84,2.4,4.95,5.62,7.26,7.21c2.31,1.59,3.8,2.46,4.7,3.48s5.43-2.07,7.06-1.87c1.63,0.2,3.94,1.79,3.55,0.32
		c-0.39-1.47-2.46-6.91-2.18-8.24c0.28-1.33,1.87-3.64,1.87-3.64s-0.23-5.61-0.62-7.08s0.25-8.57,0.25-8.57s-2.67-6.53-2.77-8.08
		s-0.22-10.33-0.22-10.33s5.55-115.76,5.28-119.15c-0.27-3.39-1.07-7.59-1.16-9.14S578.12,477.98,578.12,477.98z"/>
	<path d="M472.59,493.22c1.04-0.39,2.2,0,2.2,0l1.29,0.65l3.11-0.65c0,0,3.11,0.91,3.5,0.91s1.42-0.78,1.42-0.78l0.13,1.55
		c0,0,2.33,1.17,2.98,1.68c0.65,0.52,3.24,1.55,3.24,1.55s0.52,2.07,0.78,2.85c0.26,0.78,2.46,4.4,2.59,6.21
		c0.13,1.81-0.52,6.47-0.52,8.28c0,1.81,0.39,6.08,0.26,7.38c-0.13,1.29,0.26,3.5,0.26,4.27s0.39,2.07,0.26,3.37
		c-0.13,1.29-0.13,6.21,0,7.64s-0.13,7.12-0.13,7.12s-0.91,4.27-0.52,6.47c0.39,2.2-1.29,5.95-1.29,7.12
		c0,1.17,0.52,16.05,0.26,18.25c-0.26,2.2-0.65,16.18-0.39,18.9c0.26,2.72,0.91,17.73,1.42,18.64c0.52,0.91,1.04,4.14,1.04,5.57
		c0,1.42,0,3.75,0,3.75s0.39,2.98,0.39,3.49c0,0.52,0,5.18,0,6.34c0,1.17,0.78,3.24,0.65,3.88c-0.13,0.65-1.42,4.01-1.42,5.31
		c0,1.29-0.52,3.62-0.13,3.75s1.42,1.55,1.29,2.46s-2.85,6.73-2.85,6.73s0.39,1.55,0,1.94c-0.39,0.39-1.55,1.94-1.55,1.94
		s-0.26,3.37-0.26,4.01s0.91,2.33,1.29,2.46s1.29,1.17,1.29,1.94s1.17,3.49,1.17,3.49s2.46,1.55,2.85,2.85
		c0.39,1.29,0,2.46,0.39,2.72s1.29,2.2,1.42,3.37c0.13,1.16-1.94,4.01-1.94,4.01s-3.75,1.04-4.79,1.68
		c-1.04,0.65-2.85,0.52-3.37,0.13c-0.52-0.39-3.62-3.37-4.53-5.44c-0.91-2.07-3.37-4.4-3.62-5.7c-0.26-1.29-1.29-5.7-1.29-5.7
		s-1.94-4.92-2.2-6.21c-0.26-1.29-1.94-2.98-2.85-3.62s-2.46-1.29-2.46-2.33c0-1.04-1.17-1.94-1.17-3.24c0-1.29,0.13-3.11-0.13-4.27
		c-0.26-1.17-0.13-2.85-0.13-3.5s-0.91-2.07-0.65-2.85c0,0-0.65-1.55-0.39-2.33c0.26-0.78,0-2.2,0.13-3.37
		c0.13-1.16-0.39-2.98-0.26-5.05c0.13-2.07,0-8.28,0-8.28s-3.24-32.49-3.37-33.53c-0.13-1.04-0.78-2.46-0.78-2.46
		s-1.29-1.81-0.65-2.85c0.65-1.04,0.13-2.2,0.26-3.62c0.13-1.42,0.52-2.2,0.65-3.24c0.13-1.04-0.39-3.11-0.13-4.66
		s0.13-4.53,0.13-6.47c0-1.94-0.65-16.05,0-19.16c0.65-3.11,1.29-5.7,1.29-8.54c0-2.85-0.65-6.21-0.13-8.41
		c0.52-2.2,0.52-2.98,0.65-3.37c0.13-0.39-0.91-4.27-0.13-6.86s-0.26-5.7,0.65-6.34c0.91-0.65,0.26-2.72,0.26-2.72
		s-0.78-1.42,0.13-2.59c0.91-1.17,1.04-2.46,1.42-3.62s0.91-3.37,1.04-4.27c0.13-0.91-0.26-2.72-0.26-2.72s0.65,0.78,0.91-0.13
		c0.26-0.91-0.26-1.68-0.26-1.68s0.52-0.52,1.04-1.55S472.59,493.22,472.59,493.22z"/>
	<path d="M423.6,470.57c1.81-0.78,2.98-1.04,2.98-1.04l3.24,0.91l1.94-0.65l5.31,0.52c0,0,3.24,0.91,4.27,0.91
		c1.04,0,2.85,0.39,2.85,0.39s1.42,2.72,1.94,4.79c0.52,2.07,1.29,3.24,1.29,4.27c0,1.04,0,2.59,0,2.59l0.65,2.85l-0.13,2.46
		c0,0,1.29,2.33,1.17,2.72s-1.17,0.91-0.91,3.24c0.26,2.33,0,12.04-0.13,13.85c-0.13,1.81,0.39,4.79,0.39,4.79l-0.39,6.47
		c0,0,0.13,3.75,0.52,5.05c0.39,1.29,0.39,3.75,0.39,3.75l-0.78,1.81c0,0,0.13,0.65,0.52,1.94c0.39,1.29,0.26,3.37,0.26,3.37
		s0.13,2.07,0.52,3.37c0.39,1.29,0.39,2.46,0,4.14c-0.39,1.68-0.78,3.88-0.78,3.88s-0.52,2.46-0.39,3.11
		c0.13,0.65-0.52,13.59-0.26,15.15c0.26,1.55-0.65,4.27-0.26,5.7s1.04,2.2,0.65,3.24s-1.29,1.81-1.42,2.98
		c-0.13,1.17,0.13,2.85,0.13,3.75c0,0.91-1.04,3.24-0.65,4.14s0.91,2.98,0.91,2.98l-1.29,2.98c0,0-0.78,2.98-0.91,4.27
		c-0.13,1.29-0.65,3.24-0.65,4.53c0,1.29,0.26,4.14,0.26,4.14l-0.39,3.5l1.94,0.52c0,0,0.26,2.2-0.13,4.53s-2.33,6.08-2.07,8.8
		c0.26,2.72,0.39,4.4-0.26,6.6c-0.65,2.2-1.42,3.75-1.42,3.75s1.17,4.66,1.04,6.86c-0.13,2.2-0.26,3.24-1.55,4.53
		c-1.29,1.29-2.98,4.01-2.98,4.01s-1.04,4.01-0.78,5.95c0.26,1.94,0.52,4.27-0.52,7.51c-1.04,3.24-1.04,4.01-1.42,7.25
		s-2.2,14.89-1.81,15.15s2.46,5.44,2.46,5.44s-0.13,5.44-0.13,7.25s-1.04,4.53-1.55,5.95c-0.52,1.42-1.68,4.27-1.68,4.27
		s0.39,6.47,0.13,7.9s-0.91,2.59-0.52,4.14s-0.26,3.49-0.52,4.01c-0.26,0.52-1.42,1.42-1.04,1.94s0.65,1.04-0.13,1.94
		c-0.78,0.91-2.46,1.16-2.46,1.94s-0.39,2.2-0.39,2.2s1.29,1.17,0.78,1.94s-1.29,0.39-1.29,1.29s-0.26,2.59-0.13,3.11
		c0.13,0.52,0.26,1.94,0.39,3.88c0.13,1.94,1.55,2.46,0.65,3.5s-1.94,1.16-1.94,1.55c0,0.39,0,0.91-0.26,2.59
		c-0.26,1.68-1.42,3.75-1.94,4.14c-0.52,0.39-4.14,1.29-4.14,1.29s-2.85-2.33-4.53-2.46c-1.68-0.13-8.67-2.33-8.67-2.33l-5.95-4.53
		c0,0-1.55-0.39-1.94-1.42c-0.39-1.04-1.29-2.98-1.29-2.98s-2.72-4.14-2.46-4.66s2.98-3.11,3.11-6.86c0.13-3.75,0.78-9.32,0.91-9.45
		s1.42,0,1.42-1.04s-1.55-2.07-1.55-2.07s0.26-4.01,1.04-6.99c0.78-2.98,1.68-10.61,1.68-10.61l2.2-11.78c0,0-0.39-2.85-0.13-4.27
		c0.26-1.42,0-6.34,0-6.34s-0.39-6.86,0.39-7.9c0.78-1.04,1.29-1.94,1.29-1.94s-0.91,0.26-0.39-1.94c0.52-2.2,1.55-9.19,2.07-12.17
		c0.52-2.98,1.17-8.28,1.29-9.58c0.13-1.29-0.78-3.75-0.39-4.79c0.39-1.04,1.17-2.07,1.17-2.07s-0.39-1.94,0.13-2.46
		s1.04-1.42,1.04-1.42l-0.26-6.6l1.17-3.75c0,0,0.65-2.98,0.91-5.7c0.26-2.72,0.26-7.77,0.39-8.67c0.13-0.91-0.52-4.92-0.39-7.77
		c0.13-2.85,0.52-6.73,0.52-7.51s-0.91-2.33,0.26-3.5c1.17-1.17,1.17-0.91,1.17-1.17c0-0.26-0.78-2.33-0.52-3.75
		s-0.65-3.75-0.65-5.44s0.52-13.85,1.17-16.83c0.65-2.98-0.26-8.67,0.13-11.13c0.39-2.46,0.91-6.08,1.17-6.6
		c0.26-0.52-0.52-1.81-0.52-3.62c0-1.81-0.26-6.08-0.13-6.73s-1.04-19.55-1.04-22.01s-0.52-5.31-0.26-7.12
		c0.26-1.81-0.52-2.33-0.26-3.88s0.52-4.79,0.52-5.57s-0.39-5.57-0.39-5.57l-0.65-5.57c0,0-0.78,0-0.26-2.07
		c0.52-2.07,0.78-4.53,0.78-4.53s2.59-1.42,4.53-2.46c1.94-1.04,4.01-1.42,4.01-1.42L423.6,470.57z"/>
	<path d="M684.98,473.25c0.78-0.19,2.52-0.78,3.3,0.39s3.11,3.88,3.11,3.88s3.11-0.19,4.27,0.58c1.16,0.78,1.36,2.14,1.94,2.33
		c0,0,2.72,0.39,4.08,2.14c1.36,1.75,3.3,3.11,3.88,3.5c0,0,0.78,0.58,2.52,2.33c1.75,1.75,1.75,1.75,1.75,1.75s1.36,0.19,1.94,1.36
		c0.58,1.17,1.36,4.85,1.94,6.99c0.58,2.14,0,4.66,0.97,5.44c0.97,0.78,1.16,2.14,1.75,3.88c0.58,1.75-0.58,4.27,0,5.24
		c0.58,0.97,0.58,5.83,1.36,7.77c0.78,1.94,0.78,1.94,0.78,1.94l2.52-1.36l0.97,0.78c0,0-0.68,0.39-1.26,0.68s-0.87,0.87-1.16,1.65
		s-0.68,1.94-0.39,3.11c0.29,1.17,0.87,1.75,0.87,2.33c0,0.58,0,1.36,0,1.36s0.97,0.87,1.07,2.62c0.1,1.75-0.1,3.01-0.1,3.01
		s0.68,1.94,0.78,2.23c0.1,0.29-0.68,1.55-0.49,3.01c0.19,1.46,0.1,7.67,0.68,10.39c0.58,2.72,2.43,11.07,2.43,14.27
		c0,3.2-0.19,12.14-0.19,12.14s1.16,23.69,1.75,24.85c0.58,1.17,0.97,2.23,0.97,2.23l-0.58,2.14l1.46,20.87l1.07,2.82l-0.87,2.82
		c0,0,0,2.33-0.29,4.17s-1.16,3.11-1.16,3.11l0.19,2.72c0,0,0.58,21.46,0.29,23.4c-0.29,1.94-1.36,5.24-1.36,5.24l-3.88,4.76
		l-5.53,1.55c0,0-7.86,0.68-9.9,1.07c-2.04,0.39-6.6,1.26-7.67,1.55s-1.94,0.19-2.91,0.68s-1.26-0.19-1.36-0.68
		c-0.1-0.49-0.49-1.26-0.49-1.55s-0.1-2.43-0.1-2.43l1.16-2.91c0,0-0.19-1.94,0.1-3.01s0.39-2.43,0.39-2.43s-0.97-0.19-1.36-0.68
		c-0.39-0.49,0.58-0.97,0.97-1.07c0.39-0.1,0.87,0.1,0.87,0.1s0-5.44,0.1-6.8c0.1-1.36,0.87-8.06,0.87-8.06s-1.07-0.87-0.97-2.52
		c0.1-1.65,0.29-3.49,0.39-4.27s0.39-3.2,0.39-3.2l0.29-1.75c0,0,0.19-6.02,0.29-7.18c0.1-1.16,0.68-1.36,0.58-2.33
		c-0.1-0.97-0.78-1.75-0.78-1.75s0.49-1.26,0.19-2.52s-1.36-10-1.36-10s-1.16-4.08-0.78-4.85c0.39-0.78-0.78-0.58-0.68-1.26
		c0.1-0.68-0.1-1.07,0-1.75c0.1-0.68-1.07-1.36-0.87-2.52c0.19-1.16-0.39-2.23,0-3.69c0.39-1.46,0.78-1.26,0.78-2.04
		s-0.49-1.65-0.39-2.43s0.1-0.78,0.19-2.04c0.1-1.26,0.19-3.2,0.19-3.2s-0.39-3.69-0.39-4.27s-0.78-3.4-0.58-4.37
		s-0.19-3.2,0.1-4.27s0.29-2.14,0.68-3.2c0.39-1.07-0.19-0.97-0.29-2.33c-0.1-1.36,0.19-1.84,0.19-2.43s-0.87-1.17-0.87-1.94
		s0-1.65,0.1-3.01c0.1-1.36-0.1-3.01-0.78-3.98c-0.68-0.97-0.97-1.75-0.49-2.52s0.87-1.36,0.87-2.82c0-1.46-0.39-4.17-0.39-4.17
		s-0.29-2.91-0.1-3.5c0.19-0.58-0.39-3.11-0.39-3.11l-1.26-6.7c0,0-0.19,0.19-0.58-1.46c-0.39-1.65-0.1-2.33-0.1-2.33
		s0.39,0.29,0.68,0.1s0-2.91,0-2.91l0.19-3.88c0,0-0.78-5.73-0.97-7.57c-0.19-1.84,0.29-3.2-0.78-4.76s-1.46-2.91-1.65-4.37
		c-0.19-1.46-0.68-3.11-0.68-3.11l-0.78-4.08l0.29-2.23l-0.39-3.69c0,0-0.1-2.52-0.29-3.11c-0.19-0.58-0.49-1.17-0.78-3.01
		c-0.29-1.84-1.07-6.8-1.55-7.86c-0.49-1.07-0.29-1.26-1.07-2.62c-0.78-1.36-0.87-2.23-0.87-3.4s0.1-3.59,0.1-5.05
		c0-1.46,1.65-3.01,1.65-3.01L684.98,473.25z"/>
</g>
</svg>
