<?xml version="1.0" encoding="utf-8"?>
<!-- Generator: Adobe Illustrator 24.1.3, SVG Export Plug-In . SVG Version: 6.00 Build 0)  -->
<svg version="1.1" id="圖層_1" xmlns="http://www.w3.org/2000/svg" xmlns:xlink="http://www.w3.org/1999/xlink" x="0px" y="0px"
	 viewBox="0 0 1200 1200" style="enable-background:new 0 0 1200 1200;" xml:space="preserve">
<style type="text/css">
	.st0{fill-rule:evenodd;clip-rule:evenodd;}
</style>
<g>
	<path d="M374.48,505.37c5.57-2.39,9.95-5.17,12.34-5.97c2.39-0.8,11.14-7.16,15.12-8.75c3.98-1.59,14.33-4.78,19.1-5.57
		c4.78-0.8,18.31-2.39,19.9-3.98c1.59-1.59,61.68-15.52,68.84-18.7c7.16-3.18,27.06-13.53,36.21-15.52
		c9.15-1.99,28.65,0.8,34.22-0.8c5.57-1.59,31.44-5.97,41.39-7.16c9.95-1.19,23.48,0.4,32.63,0c9.15-0.4,45.76-1.99,52.13-1.19
		c6.37,0.8,13.13,1.19,16.71,0.8c3.58-0.4,2.79-5.17,7.96-4.78c5.17,0.4,5.17-4.38,8.36-5.17c3.18-0.8,9.55,2.39,15.52,2.79
		c5.97,0.4,12.73-0.8,15.12-0.8s-3.58,1.99,4.78,4.78s11.14,3.98,15.12,6.37c3.98,2.39,5.57,6.37,5.57,6.37l-2.79,7.56
		c0,0-3.18,6.37,1.19,5.97c4.38-0.4,9.55,0.8,13.53,3.18c3.98,2.39,5.97,5.97,9.95,5.97s12.73,3.18,16.71,7.96
		s17.11,12.34,17.11,12.34s10.35,3.98,15.92,8.75c5.57,4.78,6.76,5.97,10.35,7.16s12.34,6.76,17.91,11.54
		c5.57,4.78,10.74,9.15,17.11,9.95s13.53,4.78,17.11,7.56c3.58,2.79,5.97,9.95,8.36,14.72c2.39,4.78,5.97,19.5,7.16,22.28
		c1.19,2.79,4.78,3.18,5.57,10.35c0.8,7.16-0.8,13.53,1.59,18.31s7.96,8.75,5.57,11.14c-2.39,2.39-10.35,8.75-11.14,11.94
		c-0.8,3.18-9.15,25.07-9.95,29.05c-0.8,3.98-1.19,9.95-2.39,13.53c-1.19,3.58,0.8,8.75-1.99,8.36c-2.79-0.4-4.78-1.59-4.78-1.59
		s0,5.57-3.98,11.14c-3.98,5.57-3.58,8.36-5.57,12.73c-1.99,4.38-4.38,5.97-5.97,2.79c-1.59-3.18-5.57,3.18-8.36,0.4
		c-2.79-2.79-6.76,3.58-6.76,3.58s3.98,3.98,1.59,4.78s-5.17,1.19-8.36-1.19c-3.18-2.39-6.37-3.18-6.37-3.18s-3.18,7.96-7.96,10.35
		s-18.31,0.8-24.67,3.18c-6.37,2.39-15.52,4.38-20.69,3.98c-5.17-0.4-10.74-1.19-7.16-5.57s8.75-12.73,8.75-12.73l13.53-15.12
		c0,0-7.96,4.78-11.14,8.75c-3.18,3.98-4.38,7.56-9.55,12.73c-5.17,5.17-8.75,2.39-8.75,2.39s5.17,2.79,0,7.16
		c-5.17,4.38-10.35,5.84-10.35,5.84s1.86,1.86-2.39,3.45c-4.24,1.59-8.75-2.39-8.75-2.39s-6.37,0.53-11.14,3.18
		c-4.78,2.65-15.92,12.73-57.3,12.2s-51.47,0-58.1,2.39c-6.63,2.39-31.57,3.98-37.41,3.45s-8.49-2.12-11.67-0.53
		c-3.18,1.59-5.57,5.57-9.29,3.45c-3.71-2.12-7.69-5.04-10.88-2.92c-3.18,2.12-3.45,3.45-7.69,4.51c-4.24,1.06-6.9,3.71-14.33,3.71
		s-26.53,2.65-26.53,2.65s-0.53,2.12-3.45,2.39c-2.92,0.27-2.65-2.12-2.65-2.12s-6.9,1.59-17.24,2.92
		c-10.35,1.33-28.92,0.8-34.49,2.65s-21.75,4.24-26,5.31c-4.24,1.06-6.9,0.53-9.02,1.06c-2.12,0.53-1.59-1.06-3.45-1.86
		c-1.86-0.8-9.82-0.8-9.82-0.8s-8.49,1.06-13.8,0.53c-5.31-0.53-13.8-3.18-17.77-3.98c-3.98-0.8-9.55-3.18-13.8-4.24
		c-4.24-1.06-8.22-0.8-14.86-1.59c-6.63-0.8-15.39-1.59-22.02-3.98c-6.63-2.39-12.2-3.71-20.16-8.49
		c-7.96-4.78-12.47-9.82-14.06-12.47c-1.59-2.65-2.92-8.75-3.71-11.67c-0.8-2.92-1.86-10.35-3.18-12.2
		c-1.33-1.86-2.92-9.29-3.45-8.22c-0.53,1.06-3.71,3.18-6.63,6.1s-5.04,2.39-6.63,5.57c-1.59,3.18-4.78,3.71-6.63,1.86
		c-1.86-1.86-2.92-2.92-2.92-2.92s-6.1,0.8-10.08,1.06c-3.98,0.27-7.16-3.98-10.08-4.78c-2.92-0.8-5.84,5.31-6.37,0
		c-0.53-5.31,1.59-7.96,0.53-10.61c-1.06-2.65-1.86-5.04-2.92-6.1c-1.06-1.06-2.92,2.39-4.78-1.59c-1.86-3.98-0.27-6.63-2.65-9.02
		c-2.39-2.39-3.71-1.59-3.98-7.16c-0.27-5.57-0.8-16.18,0.27-19.9c1.06-3.71,3.18-15.39,3.18-15.39s-1.33-6.63-2.65-9.02
		c-1.33-2.39-6.1-3.98-6.63-8.22c-0.53-4.24,0.53-13.26,0.53-13.26s-3.18,1.06-4.78-3.18c-1.59-4.24-0.8-9.82-1.59-16.45
		c-0.8-6.63-0.8-7.16-1.06-10.08c-0.27-2.92,8.22,0.27,9.82-1.86c1.59-2.12,4.78-6.9,10.61-13.8c5.84-6.9,7.96-7.96,12.73-12.73
		s18.31-18.84,21.22-21.22s9.82-2.92,12.2-6.37s5.57-5.04,7.96-6.9c2.39-1.86,6.1-2.39,8.75-3.45s6.63-2.92,9.02-5.31
		c2.39-2.39,7.43-4.24,11.14-4.24s9.29,3.45,14.33,2.12C364.4,504.31,371.3,501.65,374.48,505.37z"/>
</g>
</svg>
