<?xml version="1.0" encoding="utf-8"?>
<!-- Generator: Adobe Illustrator 24.1.3, SVG Export Plug-In . SVG Version: 6.00 Build 0)  -->
<svg version="1.1" id="圖層_1" xmlns="http://www.w3.org/2000/svg" xmlns:xlink="http://www.w3.org/1999/xlink" x="0px" y="0px"
	 viewBox="0 0 1200 1200" style="enable-background:new 0 0 1200 1200;" xml:space="preserve">
<style type="text/css">
	.st0{fill-rule:evenodd;clip-rule:evenodd;}
</style>
<g>
	<path d="M529.03,815.95c0,0-4.14-1.52-4.72-4.07c-0.58-2.55,0.67-3.95,0.67-3.95s-0.44-3.92,1.22-2.51
		c1.66,1.41,4.88,3.81,4.88,3.81s-2.37-2.59,1.87-10.47c4.24-7.88,10.64-15.14,25.27-17.56c14.63-2.42,52.97-3.75,61.39-4.99
		c8.43-1.24,22.39,0.28,28.71,3.54c6.32,3.26,12.56,10.1,12.56,10.1s-0.58-2.55,1.38-2.77c1.96-0.22,2.13-3.39,2.13-3.39
		s2.11,2.42,3.42,3.25c1.3,0.82,2.77,1.38,1.95,2.68c-0.82,1.3-1.55,3.03-1.55,3.03s0.41,2.81-0.38,5.22
		c-0.79,2.41-2.11,4.5-4.3,5.66c0,0-0.48,4.8-2.25,8.77c-1.78,3.98-0.95,9.59-12.66,16.05s-28.23,5.51-42.08,8.42
		s-31.85,4.32-45.72,3.22c-13.87-1.1-15.08-1.49-21.88-6.87c-6.8-5.38-8.74-10.97-8.26-15.77L529.03,815.95z"/>
	<path d="M538.41,748.8c-0.23-0.89-1.99-0.89-3.42-3.24c-1.43-2.36-3.02-4.45-0.99-5.36c2.03-0.91,5.1-1.16,5.1-1.16
		s-0.54-4.34,2.36-11.25c2.9-6.91,13.24-13.5,23.43-15.81c10.19-2.31,41.74-5,51.31-5.16s24.87,0.39,33.44,4.7
		c8.57,4.31,11.2,16.89,12.43,18.39c1.23,1.51,6.22,2.83,9.13,2.84c2.91,0.01,4.83,1.59,4.62,3.64c-0.2,2.06-0.15,4.28-2.41,6.13
		c-2.26,1.85-3.18,2.73-4.74,1.74c-1.56-0.99,0.93-3.78,0.93-3.78s-2.22,0.06-3.59-0.08s1.52,2.78-2.11,4.5
		c-3.63,1.72-0.66,1.04-0.66,1.04s-0.05,4.7-3.92,10.27c-3.87,5.57-7.61,9.76-24.18,13.52c-16.57,3.76-64.76,6.87-72.26,4.33
		C555.39,771.52,543.52,768.41,538.41,748.8z"/>
	<path d="M527.52,666.77c-0.8-1.78,4.56-3.87,4.21-4.92s-1.36-3.78-1.09-5.13s2.53-4.27,2.53-4.27s-1.03-4.7,3.58-11.65
		c4.61-6.95,8.52-12.49,29.99-14.55c21.47-2.06,55.55-6.8,65.87-5.03s20.33,11.48,21.71,17.23s1.66,7.91,1.66,7.91s2.1-4.22,3-2.35
		s0.28,5.67,0.28,5.67s4.4-1.65,3,4.67s-4.87,11.81-7.28,11.89c-2.4,0.08-6.24-2.5-6.24-2.5s1.29,11.91-12.54,17.17
		c-13.82,5.26-45.46,3.33-67.33,3.9c-21.88,0.57-29.04-2.26-32.64-8.17c0,0,0.24,0.19-0.48,3.13c-0.73,2.95-3.62,2.65-4.89,1.28
		c-1.27-1.38-2.6-3.18-3.73-5.24c-1.14-2.05-0.06-3.94-0.06-3.94S529.96,672.17,527.52,666.77z"/>
	<path d="M537.53,595.05c-3.93-3.11-3.34-5.26-3.34-5.26s3.41,1.11,3.54-0.63c0.12-1.74,1.02-2.11,1.02-2.11l3.01,0.65
		c0,0-1.12-2.7-2.13-3.86c-1.01-1.16-0.45-2.87,0.74-4.31c1.19-1.44,2.26-1.15,3.76-6.94c1.5-5.79,2.32-17.52,33.52-23.41
		c31.19-5.89,49.36-6.58,58.78-7.01c9.42-0.43,17.69,2.99,22.37,7.9c4.68,4.91,7.57,7.3,9.38,9.39c1.82,2.09,0.62,3.54,0.62,3.54
		l2.7-1.12c0,0,3.53,2.65,3.37,4.82c-0.15,2.17-1.84,4.46-3.9,5.84c-2.06,1.38-3.48,9.14-13.48,17.83s-19.32,13.93-46.04,18.38
		s-47.86,0.79-56.46-1.12C546.39,605.71,537.53,595.05,537.53,595.05z"/>
	<path d="M534.18,477.81l-1.19-3.79c0,0,1.38-7.6,1.54-9.13s-0.78-6.01-0.78-6.01s-0.43-1.54,0.3-2.46
		c0.73-0.92,6.55-3.35,9.17-4.57s12.41-6.95,14.91-8.41c2.51-1.46,6-4.54,7.69-6.49c1.7-1.95,3.62-7.78,3.54-9.19
		c-0.08-1.41-2.53-19.69-0.69-26.93c1.84-7.24,4.33-12.46,7.25-16.14c2.92-3.68,2.92-3.68,2.92-3.68s4.81-3.98,6.66-7.46
		c1.86-3.48,3.3-4.73,3.49-7.43c0.19-2.7,1.78-4.89,1.78-4.89l1.92,2.87c0,0-0.16-2.82,0.44-3.4c0.6-0.57,1.48,1.92,2.9,1.25
		c1.43-0.67,2.13-0.41,1.46-1.84c-0.67-1.43,2.57,0.54,2.29,2.41s-1.06,4.55-1.06,4.55s2.02-0.65,4.86-1.4s6.08,1.22,5.7,2.27
		c-0.38,1.05,1.21,3.21,1.21,3.21s7.71,5.96,8.57,9.04c0.86,3.08,4.61,12.34,5.13,14.71s2.69,13.82,3,19.47
		c0.32,5.65,4.64,19.87,5.5,22.94c0.86,3.08,10.26,25.07,10.26,25.07s2.81,0.43,2.62,3.13c-0.19,2.7-1.16,3.73-1.16,3.73
		s4.22,4.7,5.11,6.6c0.89,1.9,8.48,8.22,9.24,10.47c0.76,2.25,2.6,8.06,0.4,11.41c-2.2,3.35-8.6,9.52-9.66,9.73
		s-2.87-2.43-2.87-2.43l-2.82,4.51c0,0-3.01,2.86-6.09,3.72c-3.08,0.86-6,0.19-6,0.19s-0.7-4.6-2.75-7.12
		c-2.05-2.52-5.71-6.03-6.49-7.69c-0.78-1.67-1.83-6.39-1.83-6.39s-1.7,1.95-6.2,3.48c-4.51,1.52-7.54,0.62-9.05-0.12
		c-1.51-0.75-1.78-3.81-1.78-3.81l-2.16,1.59c0,0,0.38,3.3-2.08,7.35c-2.46,4.05-3.57,6.02-6.49,9.7c-2.92,3.68-5.35,6.56-5.35,6.56
		s-5.66,0.91-8.04,2.02c-2.38,1.11-2.38,1.11-2.38,1.11s-2.06-1.94-3.56-3.27c-1.49-1.33-3.76-4.33-3.76-4.33s-4.16,1.65-4.74,1.64
		s-1.27-0.86-1-2.14c0.27-1.29-2.4-2.65-1.21-3.21s3.46-1.91,3.01-2.86c-0.44-0.95,0.08-2.94,0.13-4.7
		c0.05-1.76-1.57-2.74-0.37-3.89c1.21-1.14,3.63-4.02,3.63-4.02s-0.54-1.78,1.03-3.38c1.57-1.6,3.14-3.21,3.14-3.21
		s-0.78-1.67-0.02-3.76s0.51-5.74,0.51-5.74s0.79-3.27,1.28-4.08c0.49-0.81-1.48-1.92-1.48-1.92s-3.46,1.91-5.46,1.97
		c-2,0.06-6.84,0.87-6.84,0.87s-2.17,2.17-4.3,2.59c-2.13,0.41-3.05-0.32-3.05-0.32s-0.98,1.62-3.55,1.08
		c-2.57-0.54-2.57-0.54-2.57-0.54s-1.13,2.56-3.09,1.44s-1.29-0.27-1.29-0.27s-1.54,0.43-2.57-0.54c-1.03-0.97-2.02,0.65-3.3,0.38
		S534.18,477.81,534.18,477.81z"/>
</g>
</svg>
