<?xml version="1.0" encoding="utf-8"?>
<!-- Generator: Adobe Illustrator 24.1.3, SVG Export Plug-In . SVG Version: 6.00 Build 0)  -->
<svg version="1.1" id="圖層_1" xmlns="http://www.w3.org/2000/svg" xmlns:xlink="http://www.w3.org/1999/xlink" x="0px" y="0px"
	 viewBox="0 0 1200 1200" style="enable-background:new 0 0 1200 1200;" xml:space="preserve">
<style type="text/css">
	.st0{fill-rule:evenodd;clip-rule:evenodd;}
</style>
<g>
	<path d="M517.54,403.71c0.22-9.64-0.34-15.3-0.15-19.67c0.19-4.37,6.63-17.97,6.63-17.97s-5.02-3.42-4.99-11.68
		c0.03-8.26,5.63-16.95,5.78-17.84c0.15-0.89-0.98-11,0.1-16.24s0.31-8.3,2.78-12.02c2.47-3.71,4.06-9.32,4.06-9.32
		s-0.95-11.73,3.96-18.43s6.28-6.19,6.28-6.19s-0.68-10.03,6.39-14.89c7.07-4.86,14.93-7.38,18.42-7.34s-0.2-3.16,6.02-1.37
		s12.21,2.17,12.21,2.17l23.67,6.04c0,0,4.51-9.24,13.7-2.26c9.19,6.98,12.07,10.59,12.07,10.59s-1.65-5.97,6.07-0.07
		c7.72,5.9,7.87,5.01,12.14,6.38c4.27,1.37,6.13,1.22,5.95,6.61c-0.18,5.39-7.84,12.07-7.84,12.07s3.14,5.31,3.25,11.66
		s0.72,16.83-0.93,21.14c-1.65,4.31-1.76,9.25-1.76,9.25s4.98,3.14,2.89,8.39c-2.08,5.25-4.03,12.35-3.9,13.2s1.94,6.94,0.77,10.6
		c-1.17,3.66-2.15,6.7-2.14,7.72s2.79-0.72,4.5,14.08s5.75,45.6,7.75,53.84c2,8.24,3.4,27.57,3.82,39.67
		c0.42,12.1-3.57,23.73-1.01,31.87c2.56,8.15,6.62,19.4,6.82,32.84c0.2,13.44,0.13,21.42,0.22,29.51c0.09,8.1-1.79,40.83-0.56,52.52
		c1.23,11.69,1.15,40.23,3.18,58.02c2.03,17.79,6.22,29.89,7.17,38.86c0.95,8.98,2.83,37.94,1.05,48.93
		c-1.78,10.99-4.12,14.54-4.12,14.54s2.49,8.59,3.52,17.12s-2.55,3.15-4.02,23.65c-1.46,20.5-5.08,29.9-3.41,37.89
		c1.67,8,6.57,21.87,0.65,31.33c-5.92,9.46-4.9,16.98-11.66,27.58c-6.76,10.6-19.14,14.84-23.93,13.84
		c-4.79-1-15.46,0.22-16.67,0.84s-10.17,10.12-20.43,8.37s-11.39-8.09-17.41-10.49c-6.02-2.4-7.05,6.88-14.22-1.13
		s-8.48-15.49-11.63-18.04c-3.15-2.55-14.26-4.17-15.93-12.16c-1.67-8,0.2-17.41,0.2-17.41s-1.55-8.16-3.64-10.44
		c-2.09-2.28-3.16-3.57-2.8-7.82c0.36-4.26,1.02-13.05,1.6-15.89c0.57-2.84-4.45-3.51-1.7-10.02c2.76-6.51,4.09-10.05,4.09-10.05
		s-3.12-7.05-1.11-11.85c2.01-4.8-0.99-15.78,2.04-19.58s-0.93-6.95,2.86-15.22c3.79-8.26,5.64-15.94,5.64-15.94
		s-1.51-11.64,2.02-17.84c3.53-6.19,5.44-8.81,5.44-8.81s-0.92-9.71-0.63-16.27c0.29-6.56,0.07-18.26,0.07-18.26
		s-6.01-1.39-6.78-8.22s-1.47-15.12-1.47-15.12s-2.51,4.41-5.48-8.28c-0.85-3.63-1.09-9.83-1.09-9.83s-3.35-5.71-5.65-12.16
		c-2.3-6.45-4.87-14.6-5.74-20.26c-0.88-5.66-3.83-8.82-4.7-10.71s0.48-4.42,2.31-6.59c1.84-2.17,0.07-7.98-0.81-13.63
		c-0.88-5.66-6.2-11.06-4.55-15.37c1.65-4.31,3.12-7,3.12-7s-3.69-0.44-3.16-3.57s4.89-60.14,1.75-69.21
		c-3.14-9.07-4.1-32.1-5.54-41.43C517.52,461.65,517.24,416.79,517.54,403.71z"/>
</g>
</svg>
