<?xml version="1.0" encoding="utf-8"?>
<!-- Generator: Adobe Illustrator 24.1.3, SVG Export Plug-In . SVG Version: 6.00 Build 0)  -->
<svg version="1.1" id="圖層_1" xmlns="http://www.w3.org/2000/svg" xmlns:xlink="http://www.w3.org/1999/xlink" x="0px" y="0px"
	 viewBox="0 0 1200 1200" style="enable-background:new 0 0 1200 1200;" xml:space="preserve">
<style type="text/css">
	.st0{fill-rule:evenodd;clip-rule:evenodd;}
</style>
<g>
	<path d="M658.11,389.33c-4.06,1.85-8.17,7.52-8.17,7.52s-1.18-5.99-3.54-8.21c-2.36-2.21-8.11-2.95-13.81,2.27
		c-5.7,5.23-3.3,11.42-3.3,11.42c-3.32,2.77-3.83,4.61-3.83,4.61c-4.3-2.89-6.73-1.29-6.73-1.29c-3.46-4.92-6.24-5.13-6.28-5.99
		c-0.04-0.86-1.25-5.73-2.53-8.78c-1.28-3.05-5.75-5.84-5.75-5.84s-0.2-3.88-1.01-6.09c-0.81-2.21-5.43-8.02-5.43-8.02
		s2.29-2.63,3.13-4.66c0.85-2.03-0.06-4.41-2.58-9.64c-2.52-5.23-6.59-5.37-10.72-3.25c-4.13,2.12-5.49,7.55-5.57,10.93
		c-0.08,3.38,3.23,8.83,3.23,8.83c-6.1,4.12-6.23,8.2-6.2,10.62c0.04,2.42,2.06,7.94,6.81,11.24c4.76,3.3,9.65,0.97,9.65,0.97
		c2.32,14.67,0.19,20.32,0.19,20.32c-1.36-1.23-5.06,0.87-6.53,4.15c-1.47,3.28-3.55,8.23-4,12.92c-0.45,4.69,1.8,6.31,3.19,6.41
		c1.39,0.1,2.26-3.06,3.41-2.6c1.15,0.46,1.31,1.92,1.99,5.09c0.68,3.17,1.22,6.86,2.17,10.1c0.95,3.24,0.29,7.17,0.29,7.17
		s-2.77-3.32-7.1-3.52c-4.34-0.21-7.13,2.71-7.13,2.71c-2.4-6.19-3.18-14.63-4.48-19.66c-1.3-5.04-0.77-11.55-0.77-11.55
		s1.99-0.02,3.19-0.25c1.2-0.24,1.47-1.72,1.91-4.86c0.44-3.14-1.71-4.58-3.52-6.22c-1.82-1.64-3.88-1.36-6.78-0.6
		c-2.9,0.76-4.52,3-4.65,7.08c-0.13,4.07,4.1,7.23,4.1,7.23s0,0,0.42,3.09s0.62,13.64,2.35,20.21c1.73,6.57,3.2,9.95,3.2,9.95
		s-0.31,0.62-0.85,2.03c-1.64,4.35,0.98,8.77,3.84,10.7c2.87,1.93,7.68-2.13,7.68-2.13l2.64,5.83c0,0-2.02,1.14-3.8,3.48
		c-1.78,2.34-6.81,13.85-6.81,13.85s-5.54,8.25-7.16,12.05c-1.62,3.8-2.1,11.18-2.47,14.06c-0.37,2.87-3.15,22.66-4.07,24.95
		c-0.92,2.3,0.51,4.82,0.94,6.35c0.43,1.54-1.86,4.16-2.78,6.46c-0.92,2.3-2.91,15.64-4.1,20.98c-1.19,5.34-0.73,9.29-0.71,11.28
		c0.02,1.99,0.34,4.91,0.34,4.91s-2.27,6.17-3.46,9.96c-0.58,1.84-1.36,6.35-2.08,10.98c-7.61,4.66-13.22,8.21-15.27,9.73
		c-9.99,7.44-21.58,17.56-21.58,17.56s7.58-2.9,35.58-18.63c-0.2,1.43-0.36,2.62-0.47,3.4c-0.57,4.1,1.11,3.14,1.9,4.92
		c0.78,1.78,0.71,3.6,0.29,5.61c-0.41,2.01,1.83,3.62,1.83,3.62l-0.36,1.32c-4.99,0.61-8.81,5.22-9.85,8.47
		c-1.04,3.26-0.33,5.29-0.17,6.76c0.16,1.46-1.06,2.82-0.93,5.41c0.13,2.59,4.36,5.74,4.36,5.74s-0.53,1.41-1.19,3.78
		c-0.66,2.37-3.37,10.12-5.93,15.79c-2.56,5.67-2.99,12.35-2.99,12.35l-10.33,7.63c0,0-1.78,0.78-4.42,3.17
		c-2.64,2.39-3.99,4.71-4.43,6.29c-0.44,1.58,2.53,2.12,2.53,2.12s-8.3,15.14-10.32,19.4c-2.03,4.26-8.44,14.11-9.43,16.67
		c-0.99,2.56,2.93,4.78,5.3,5.43c2.37,0.66,4.76,3.3,7.15,2.83c2.4-0.47,7.92,2.62,7.92,2.62s4.39,4.62,5.55,3.52
		c1.15-1.1,4.29-7.32,4.29-7.32c-0.15,2.08,2.75,2.88,4.16,3.42c1.41,0.53,4.65-0.41,6.23,0.02c1.58,0.44,3.14,0.44,4.37-2.48
		c1.23-2.92,5.15-14.02,6.04-15.19c0.89-1.17,7.57,0.82,7.57,0.82s-5.16,15.58-4.32,16.66c0.83,1.08,5.75-0.82,6.35-0.94
		c0.6-0.12,1.82,1.64,2,3.53c0.18,1.89,1.96,2.67,4.04,2.82c2.08,0.15,4.21,1.17,4.21,1.17s0,0,1.71-2.08
		c1.71-2.08,1.01-7.23,1.01-7.23s3.26,6.15,4.3,9.55c1.04,3.41-0.55,6.08-0.99,9.22c-0.44,3.14-1.42,7.69-1.76,9.43
		c-0.34,1.75,2.96,2.1,5.77,1.17c2.81-0.92,9.55,3.92,9.55,3.92s-0.22,0.79,0.28,2.06c0.5,1.27,2.27,0.49,3.88-0.2
		c1.61-0.69,3.42,0.95,3.42,0.95s0.33,9.59,0.36,12.01c0.04,2.42-3.48,9.52-3.9,11.54c-0.41,2.01-0.59,5.22-0.38,5.99
		c0.21,0.77-0.4,4-1.08,5.94c-0.68,1.94-2.21,2.36-1.98,3.56c0.24,1.2,4.66,3.13,4.66,3.13s2.14-2.1,2.38-0.9
		c0.24,1.2,0.98,2.11,1.39,0.1s2.28-14.39,2.28-14.39s1.88-3.73,2.97-6.12c1.09-2.39,1.97-8.67,1.84-11.26
		c-0.13-2.59-0.71-8.7-0.29-12.27c0.42-3.57,0.95-10.08,0.95-10.08l2.34,1.78c0,0-0.69,5.05-0.17,8.31
		c0.52,3.26,1.18,5.99,1.29,8.15c0.11,2.16,0.15,11.24,0,13.32c-0.15,2.08,0.23,9.42,0.2,12.1c-0.03,2.68-0.68,10.16-0.68,10.16
		s0,0,0.18,1.89c0.18,1.89,2.66,1.16,2.66,1.16l1.97-2.01c0,0,2.2,0.75,3.28-0.08c1.08-0.83,2.26-1.5,2.26-1.5s0.38,2.23,0.59,3
		c0.21,0.77,1.39,0.1,2.04-0.71c0.65-0.81,2.52-14.75,2.55-17.43c0.03-2.68-1.21-9.97-1.21-9.97s0,0,2.94-5s1.27-7.16,0.76-10.42
		c-0.52-3.26-2.89-9.02-2.95-11.87c-0.06-2.85-2.33-13.11-2.54-13.88c-0.21-0.77,0.03-7.79,0.03-7.79s2.04-0.71,3.22-1.38
		c1.18-0.67,5.22,0.59,5.22,0.59s0.57,1.01,1.43,2.52s1.64-1.82,1.64-1.82s5.34,1.19,6.16,0.29c0.82-0.91-2.64-17.6-4.82-26.13
		c-2.17-8.54-5.61-24.8-6.35-33.93c-0.73-9.13-2.05-22.82-2.05-22.82s3.08-2.41,4.88-4.32c1.8-1.91,3.02-8.38,3.45-11.94
		c0.42-3.57,3.41-14.36,3.22-16.26c-0.18-1.89-0.88-8.61-0.88-8.61s3.19-1.81,4.3-2.21c1.1-0.4,3.6-0.71,5.13-1.13
		c1.54-0.43,2.6-3.25,2.99-5.69c0.39-2.44-2.57-6.1-2.57-6.1s2.04-0.71,3.29-1.64s-0.59-3,1.28-3.61c1.87-0.62-0.24-1.2,0.44-3.14
		c0.68-1.94,0.59-5.22-0.77-4.89c-1.37,0.33-4.05,0.3-4.05,0.3s1.07-4.38,1.22-6.47c0.15-2.08,0.55-6.08,0.46-7.81
		c-0.09-1.73,1.06-2.82,1.26-4.04c0.2-1.22-2.14-4.56-2.35-5.33c-0.21-0.77,1.06-2.82,1.31-4.74c0.25-1.92-2.29-2.48-1.95-4.22
		c0.34-1.75-0.22-4.31-0.27-5.18c-0.04-0.86,1.31-3.18,0.4-4c-0.91-0.82-2.89-3.92-2.89-3.92s19.64-11.58,21.73-12.98
		c2.09-1.41,27.55-19.17,27.55-19.17s0.08-1.82-1.03-1.42c-1.1,0.4-23.35,10.12-26.97,11.96c-3.62,1.83-21.9,13.08-21.9,13.08
		s0.54-2.97,1.31-4.74c0.77-1.77-0.44-3.52,0.07-5.37c0.51-1.84,1.9-1.74,4.06-3.41c2.16-1.67,1.96-3.99,3.17-7.34
		c1.21-3.35,3.57-7.8,3.92-9.55c0.34-1.75-1.02-2.97,0.42-3.57c1.44-0.59,4.72-5.78,6.52-7.69c1.8-1.91,2.75-5.33,4.49-8.54
		c1.74-3.2-2.64-4.27-4.86-7.01c-2.22-2.74-11.12-12.57-11.12-12.57c-0.11-2.16,3.06-12.62,3.06-12.62s2.01,0.41,4.05-0.3
		c2.04-0.71,3.49-4.42,5.87-6.88c2.38-2.46,4.29-7.32,3.83-11.27s-5.22-2.15-5.22-2.15l3.71-6.77c0,0,2.42-0.04,4.29-0.66
		c1.87-0.62,3.24-2.5,3.59-5.81s-1.89-6.48-7.11-8.63c-5.22-2.15-9.98,2.77-9.98,2.77l1.31-3.18c7.76-5.51,2.6-11.47,2.6-11.47
		c1.13-1.53,1.91-4.86,3.03-9.93c1.12-5.08-1.93-2.24-1.93-2.24s0.01-1.56,0.35-3.31c0.34-1.75-0.8-3.76-0.8-3.76
		c7.3-5.92,8.77-7.64,5.7-13.45C668.63,388.69,662.16,387.47,658.11,389.33z M612.09,770.46c-0.61,3.23,0.49,17.71,0.49,17.71
		s-2.8-2.19-3.25-2.6c0,0,1.08-0.83,0.76-5.32c-0.32-4.48,1.57-16.43,1.57-16.43l1.65,1.73C613.3,765.55,612.7,767.22,612.09,770.46
		z M659.44,414.5c-0.33,1.18-2.45,6.55-2.45,6.55s-3.39-2.74-7.39,0.19c0,0,0-1.17,0.32-2.68c0.31-1.51,2.04-3.16,1.94-6.26
		c0,0,1.98,4.37,6.76,0.17C658.62,412.46,659.76,413.31,659.44,414.5z"/>
</g>
</svg>
