<?xml version="1.0" encoding="utf-8"?>
<!-- Generator: Adobe Illustrator 24.1.3, SVG Export Plug-In . SVG Version: 6.00 Build 0)  -->
<svg version="1.1" id="圖層_1" xmlns="http://www.w3.org/2000/svg" xmlns:xlink="http://www.w3.org/1999/xlink" x="0px" y="0px"
	 viewBox="0 0 1200 1200" style="enable-background:new 0 0 1200 1200;" xml:space="preserve">
<g>
	<path d="M689.63,607.1c-0.55,0.27-1.28,0.33-2.01,0.3c0.93-4.84,0.63-6.41,0.81-9.09c0.2-3,1-6.79,0.2-7.59
		c-0.8-0.8-2.8-3.2-3.4-5.39s-1.8-5.39-1.8-5.39s1.8,0,2.2-1.8c0.4-1.8-2.4-1.4-2.4-1.4c0-1.6-1-7.19-1-7.19s1,0,1.6-0.8
		c0.6-0.8-2.2-1.6-3.2-3.6c-1-2-3.8-7.99-5.99-12.38c-2.2-4.39-8.59-8.79-8.59-8.79s-0.6-0.6-1.4-2.8c-0.8-2.2-3.8-3.2-3.8-3.2
		s-0.8-2.2-1.6-3.6c-0.8-1.4-1.4,1.4-1.4,1.4s-3.6-1.2-5.19-1.8c-1.6-0.6-6.39-4.59-8.19-5.39c-1.8-0.8-5.19-1.2-6.79-1.4
		c-1.6-0.2-3.99-3.99-5.79-4.99c-1.8-1-5.19,0-8.39,0s-13.38-2.8-13.38-2.8s-10.19-1.6-12.18-2c-2-0.4-1.8,0.6-3.2,1.4
		c-1.4,0.8-6.19,1.8-8.19,1.8c-2,0-8.59,1.8-9.79,3c-1.2,1.2-5.59,2.4-5.99,1.6c-0.4-0.8-2,0-2,0s0.2,1.4-0.4,2.2
		c-0.6,0.8-4,3.2-4,3.2s-0.2-1.2-0.4-2.2c-0.2-1-1.4-0.6-1.4-0.6l-1,4.79c0,0-2.6,0-5.19,2.4c-2.6,2.4-12.78,6.79-14.78,8.99
		c-2,2.2-3.99,4.99-4.99,6.39c-1,1.4-4.77,3.42-6.19,5.19c-1.6,2-0.4,3-1.6,4.79s-1.6-2.4-2.4-3.4s-3-3-4.19-2.2
		c-1.2,0.8-1.6,6.19-1.4,9.59c0.2,3.4-1.4,7.79-1.6,10.99s-4.39,5.39-5.79,6.59c-1.4,1.2-0.8,4.79-1.8,7.19
		c-1,2.4-1.6,4.59-2.4,10.59c-0.8,5.99-0.2,8.79,0.4,10.19c0.6,1.4,2.4,1.8,2.8,3.8c0.4,2-0.4,3.99,0,7.19
		c0.4,3.2,3.6,11.59,3.6,11.59s0.6,1,1.2,3.99c0.6,3,5.79,10.59,5.79,10.59s0,0,3.8,4.79c3.8,4.79,7.99,10.39,10.59,11.59
		c2.6,1.2,2.8,5.39,4.39,7.39c1.6,2,3.2,2.2,3.2,2.2s1.2,0,2.8,1.6c1.6,1.6,3,2.6,4.99,2.8c2,0.2,7.99,3.99,9.99,4.99
		c2,1,2.4-1,3.99-1.6c1.6-0.6,6.99,0.8,9.59,0.8c2.6,0,10.19-3.8,10.19-3.8l2.6,0.4c0,0,0,0,2.2,0.2c2.2,0.2,10.79-1.2,13.58-0.4
		c2.8,0.8,8.39,0.6,11.98-0.4c3.6-1,2.8-2.2,2.8-2.2s1.4-0.6,3.2-0.6c1.8,0,9.19-2.2,11.79-2.8c2.6-0.6,5.39-2.2,5.39-2.2
		s2.8,0,3,0.8c0.2,0.8,2.8,1.2,5.19,0.6c2.4-0.6,3-3,1.2-3.2c-1.8-0.2-2.6-1.8-2.6-1.8c3.6-1.2,8.59-7.19,11.79-8.99
		c3.2-1.8,7.39-6.59,9.59-9.19c2.2-2.6,5.39-7.39,5.99-7.79c0.6-0.4,2.2-0.2,2.4-1.8s1-3.2,3.4-6.79c2.4-3.6,5.79-15.98,7.19-22.37
		C692.82,607.3,691.22,606.3,689.63,607.1z"/>
</g>
</svg>
