<?xml version="1.0" encoding="utf-8"?>
<!-- Generator: Adobe Illustrator 24.1.3, SVG Export Plug-In . SVG Version: 6.00 Build 0)  -->
<svg version="1.1" id="圖層_1" xmlns="http://www.w3.org/2000/svg" xmlns:xlink="http://www.w3.org/1999/xlink" x="0px" y="0px"
	 viewBox="0 0 1200 1200" style="enable-background:new 0 0 1200 1200;" xml:space="preserve">
<style type="text/css">
	.st0{fill-rule:evenodd;clip-rule:evenodd;}
</style>
<g>
	<path d="M746.97,873.43c0,0,11.46,3.49,11.46,0.5s25.41-458.83,26.4-507.16s-0.25-86.44-0.75-93.91c-0.5-7.47-1-8.97-1-8.97
		s-1.37-0.65-2.49,8.47c-1.99,16.19-4.48,31.64-4.98,44.59c-0.5,12.95-29.14,546.02-29.14,550S746.97,873.43,746.97,873.43z"/>
	<path d="M433.61,959.3c0,0,10.59,5.6,11.15,2.67c0.57-2.93,153.77-637.2,162.96-684.66c5.12-26.41,5.78-37.7,6.71-45.13
		c0.93-7.43,0.73-8.99,0.73-8.99s-1.22-0.9-4.06,7.84c-5.04,15.52-10.42,30.2-13.37,42.83c-2.95,12.62-162.63,675.08-163.38,678.99
		C433.59,956.76,433.61,959.3,433.61,959.3z"/>
	<path d="M414.8,985.67c0,0,11.16,5.35,11.63,2.3S559.3,323.78,566.87,274.41c4.21-27.48,4.44-39.16,5.1-46.87s0.39-9.32,0.39-9.32
		s-1.3-0.88-3.87,8.26c-4.57,16.23-9.53,31.61-12.06,44.76c-2.54,13.15-140.48,703.66-141.11,707.73S414.8,985.67,414.8,985.67z"/>
	<path d="M591.53,889.38c0,2.49-2.49,4.48,0.5,5.48s6.48,2.49,8.47,2.49s3.49,4.98,4.98-12.45s93.66-561.96,99.14-591.85
		c5.48-29.89,8.97-77.22,8.47-81.2c-0.5-3.99-4.48,8.47-7.97,22.42s-3.99,14.45-13.95,70.74
		C681.21,361.3,591.53,889.38,591.53,889.38z"/>
	<path d="M522.79,887.79c-0.23,2.52-2.9,4.31-0.01,5.59c2.88,1.28,6.22,3.11,8.2,3.29c1.98,0.18,3.01,5.36,6.12-12.16
		c3.11-17.52,145.38-560.4,153.61-590.16c8.23-29.76,16.09-77.36,15.96-81.44c-0.13-4.08-5.25,8.17-10.02,21.97
		c-4.77,13.8-5.31,14.26-20.45,70.35S522.79,887.79,522.79,887.79z"/>
	<path d="M506.84,896.85c0,0,5.98,3.49,8.97,3.49s4.98-1.49,4.98-1.49s171.88-636.69,173.37-645.65c1.49-8.97,4.48-39.86,4.48-39.86
		s-1-3.99-3.49,2.99s-13.95,29.89-21.42,63.27s-166.4,610.78-166.4,612.27S506.84,896.85,506.84,896.85z"/>
	<path d="M478.45,928.73c0,0,5.98,2.99,8.47,2.99c0,0,1.49,0.5,4.48-7.97c2.99-8.47,184.33-648.64,186.32-655.12
		c1.99-6.48,2.49-30.89,2.99-31.88c0.5-1-2.49,1-2.49,1s-7.97,18.43-12.45,34.38c-4.48,15.94-186.82,648.64-187.32,651.63
		C477.95,926.74,478.45,928.73,478.45,928.73z"/>
	<path d="M467.49,925.25c0,0,4.48,2.99,6.48,1.99c1.99-1,1.99,1,5.48-10.96c3.49-11.96,179.35-632.2,184.33-646.65
		c4.98-14.45,9.96-49.32,9.96-49.32s-2.49-4.48-2.99-1.99c-0.5,2.49,0.5,1.99-1.49,7.47c-1.99,5.48-17.93,33.88-23.91,57.29
		s-165.4,583.38-168.89,593.84s-16.44,42.84-16.44,42.84l2.99-0.5c0,0,11.46-28.4,14.45-37.36c0,0-9.47,33.88-10.46,36.87
		S467.49,925.25,467.49,925.25z"/>
</g>
</svg>
