<?xml version="1.0" encoding="utf-8"?>
<!-- Generator: Adobe Illustrator 24.1.3, SVG Export Plug-In . SVG Version: 6.00 Build 0)  -->
<svg version="1.1" id="圖層_1" xmlns="http://www.w3.org/2000/svg" xmlns:xlink="http://www.w3.org/1999/xlink" x="0px" y="0px"
	 viewBox="0 0 1200 1200" style="enable-background:new 0 0 1200 1200;" xml:space="preserve">
<style type="text/css">
	.st0{fill-rule:evenodd;clip-rule:evenodd;}
</style>
<g>
	<path d="M643.48,296.38c0,0,1.11-1.94,1.94-1.39c0.83,0.55,0.28,2.22,0,3.88c-0.28,1.66-2.22,14.41-3.33,15.52
		c-1.11,1.11-2.77,4.43-3.33,5.54c-0.55,1.11-1.94,11.08-2.77,13.02c-0.83,1.94-7.21,19.4-6.65,20.51c0.55,1.11,0,8.31-0.83,9.98
		c-0.83,1.66-0.83,1.66-0.83,1.66s-2.22,5.54-3.33,6.37c-1.11,0.83-3.33,3.88-3.33,3.88s1.39,2.77,0,4.71
		c-1.39,1.94-2.77,2.22-2.77,2.22l-2.77,5.54c0,0-2.22,41.57-2.22,43.51s-0.28,10.53,0.55,10.81c0.83,0.28,2.22-1.11,2.77,0.55
		c0.55,1.66-1.39,3.88-1.39,3.88s-1.94,0-2.77,1.11s-3.33,6.93-3.6,9.42s-3.05,14.69-3.33,17.74c-0.28,3.05-0.55,3.88-0.83,4.99
		s-7.76,14.13-7.76,15.52c0,1.39-2.22,19.95-2.22,21.89c0,1.94,0,1.94,0,1.94s-0.28,9.42-0.83,13.58
		c-0.55,4.16-3.05,35.47-3.33,38.52c-0.28,3.05-1.11,30.76-1.94,32.42c-0.83,1.66-2.77,11.92-3.05,13.86c0,0-4.43,12.19-4.99,15.8
		c-0.55,3.6-6.1,10.81-6.37,12.75c-0.28,1.94-1.94,3.88-1.94,5.82s0,1.94,0,1.94v2.22l3.33-0.28c0,0-0.55-3.05,0.55-3.05
		s1.11,2.22,0.83,4.71c-0.28,2.49-0.28,2.49-0.28,2.49s-1.39,1.66-2.49,3.05c-1.11,1.39-1.66,3.6-1.66,3.6l0.55,37.41
		c0,0,1.66,0,3.05,5.27c1.39,5.27,2.22,25.22,1.94,29.65c-0.28,4.43,0,11.64,1.11,16.35c1.11,4.71,2.49,23.83,2.49,29.65
		c0,5.82,0.55,15.52,0.28,19.4c-0.28,3.88-4.71,15.52-4.71,17.74s1.66,10.53,1.66,10.53s2.22,0,2.22,3.33
		c0,3.33-0.83,8.87,0.55,11.36s4.99,6.37,5.54,8.31c0.55,1.94,0.83,8.59,0.83,8.59s8.87,25.49,10.81,29.1
		c1.94,3.6,0.55,13.86,0.55,13.86s-2.49,0-3.33,0s-1.94-2.22-1.94-2.22s-1.39,2.77-2.22,2.77s-0.55-3.05-0.83-5.54
		s-0.28-2.49-0.28-2.49s-4.71-9.7-6.37-14.96c-1.66-5.27-5.27-8.87-4.99-12.47c0.28-3.6,0-6.65-1.66-14.69
		c-1.66-8.04-7.76-23.83-9.42-29.65c-1.66-5.82-1.94-9.14-1.94-13.3s1.39-4.71,2.77-3.33c1.39,1.39,1.94,0.83,2.77-0.83
		c0.83-1.66,3.05-4.99,3.6-6.65c0.55-1.66,2.77-20.78,2.49-25.77c-0.28-4.99-3.6-21.34-4.43-27.16c-0.83-5.82-0.55-9.42-1.11-10.53
		c-0.55-1.11-3.05-1.39-3.05-2.22c0-0.83,2.49-0.83,2.49-0.83s0.83-6.37,0.28-11.36c-0.55-4.99-1.66-11.08-2.77-15.8
		c-1.11-4.71-1.39-1.39-1.94-10.81c-0.55-9.42,0.28-39.63,0.83-44.89c0.55-5.27,1.39-18.29,1.11-23.28
		c-0.28-4.99-1.39-23.83-1.39-23.83s-2.77-0.55-2.22-2.22c0.55-1.66,1.94-1.66,1.94-1.66s0-9.42-0.83-14.41
		c-0.83-4.99-1.11-5.54-1.94-11.08c-0.83-5.54-2.22-16.9-3.88-21.62c-1.66-4.71-3.88-21.06-4.43-24.94
		c-0.55-3.88-1.68-13.78-2.49-17.46c-0.55-2.49,1.39-0.83,1.94,1.39c0.55,2.22,0.28-6.37,0.28-9.98s1.94-21.62,2.77-25.49
		s1.94-11.36,2.77-15.24c0.83-3.88,3.05-9.7,3.33-13.3c0.28-3.6,0.83-8.04,2.49-11.36c1.66-3.33,3.6-11.64,3.6-16.07
		c0-4.43-2.49-5.27-2.22-8.59c0.28-3.33-0.28-56.81-0.28-60.41s0-3.6,0-3.6s0.83-11.64,0.28-20.23c-0.55-8.59-1.66-30.76-1.66-34.92
		s1.11-4.43,1.66-3.05c0.55,1.39,0.83,1.11,1.11,8.31c0.28,7.2,0.83,39.63,0.83,43.51c0,3.88,1.66,16.9,1.66,24.11s0,7.21,0,7.21
		s-0.83,27.43-1.11,30.48c-0.28,3.05,1.11,7.76,1.11,7.76s2.77,3.05,3.33,0.28c0.55-2.77,0.83-1.11-0.55,4.43
		c-1.39,5.54-2.22,10.25-2.77,13.86c-0.55,3.6-1.66,10.53-1.66,14.41c0,3.88-4.16,11.08-4.71,14.13c-0.55,3.05,1.39,6.93,0.28,9.42
		s-5.54,11.92-5.82,16.35c-0.28,4.43-2.77,26.05-1.39,34.92c1.39,8.87,4.71,34.36,6.1,36.86s2.22,1.94,2.49,4.43
		c0.28,2.49,0.83,21.06,1.66,25.22s3.05,9.98,3.33,15.8c0.28,5.82,0,16.63,0,20.23c0,3.6-1.39,7.21-0.55,8.59
		c0.83,1.39,2.77-1.66,3.88-3.6s4.16-9.7,4.71-11.08c0.55-1.39,2.77-15.24,3.6-18.01c0.83-2.77,1.94-36.86,1.94-40.18
		c0-3.33,0-3.33,0-3.33s2.49-18.29,3.33-22.45s3.05-34.92,3.88-39.07c0.83-4.16,0.83-4.16,0.83-4.16s0.83-6.1,1.66-8.59
		c0.83-2.49,0.83-2.49,0.83-2.49s1.39,3.33,4.99-11.36c3.6-14.69,3.05-18.01,4.99-21.61c1.94-3.6,1.66-4.43,2.77-14.96
		s0.55-25.49,1.39-28.82c0.83-3.33,1.94-11.36,2.22-19.12c0.28-7.76-0.83-15.24-0.28-20.51s3.05-25.49,3.88-30.21
		c0.83-4.71,0.83-4.71,0.83-4.71s0.55-11.08,1.11-15.52c0.55-4.43,1.11-14.41,1.11-16.63c0,0,1.39-1.11,3.05-0.83
		c1.66,0.28,1.11,0.83,0.83,3.6c-0.28,2.77-0.28,2.77-0.28,2.77s-1.39,19.95-1.94,24.11c-0.55,4.16-3.33,15.8-3.33,19.4
		s-1.94,18.29-1.94,21.62c0,3.33-0.55,8.31,0.28,8.87c0.83,0.55,1.66,0.28,4.16-5.54c2.49-5.82,5.82-18.57,7.21-24.11
		c1.39-5.54,7.48-24.39,8.04-27.16c0.55-2.77,4.43-6.93,4.71-8.87C641.26,308.85,643.48,296.38,643.48,296.38z"/>
</g>
</svg>
