<?xml version="1.0" encoding="utf-8"?>
<!-- Generator: Adobe Illustrator 24.1.3, SVG Export Plug-In . SVG Version: 6.00 Build 0)  -->
<svg version="1.1" id="圖層_1" xmlns="http://www.w3.org/2000/svg" xmlns:xlink="http://www.w3.org/1999/xlink" x="0px" y="0px"
	 viewBox="0 0 1200 1200" style="enable-background:new 0 0 1200 1200;" xml:space="preserve">
<style type="text/css">
	.st0{fill-rule:evenodd;clip-rule:evenodd;}
</style>
<g>
	<path class="st0" d="M239.4,504.84c13.35-1.8,61.44-6.62,69.99-7.02c8.55-0.4,16.75-3.68,22.85-6.29s16.9-3.94,16.9-3.94
		s3.48-1.76,5.95-2.35c2.47-0.59,4.2-0.05,5.67-0.53c1.47-0.48,4.4-1.47,6.4-2.28c2-0.81-0.67,1.95,0.18,1.89
		c0.84-0.06,4.3,0.7,6.05-0.01c1.75-0.71,7.41-0.25,9.97-1.27s7.18-0.26,10.74-0.22c3.57,0.04,7.56-0.71,7.56-0.71
		s0.94-1.1,0.35-2.28c-0.59-1.17-1.23-1.12-1.23-1.12s1.09-2.01,3.67-2.7s7.89-0.25,12.18-0.47c4.29-0.22,5.29-0.5,7.49-0.25
		s4.36-2.8,7.07-3.58c2.71-0.78,6.72,1.4,10.54,1.14c3.81-0.26,16.63,4.77,20.2,4.94c3.58,0.17,14.98,0.42,20.72-1.5
		c5.74-1.92,21.59-4.16,21.59-4.16s24.79-4.18,35.2-4.88c10.42-0.7,18.14,0.34,20.44,0.32c2.3-0.02,19.53,1.4,29.82-0.11
		c10.29-1.51,66.95,10.95,69.88,12.05c2.93,1.1,16.91,7.8,21.19,10.68c4.28,2.89,3.86,5.56,1.16,7.63
		c-2.69,2.06-3.19-0.49-3.19-0.49s0.53,2.44,2.41-0.56c1.89-3-3.8-4.32-6.59-5.66c-2.79-1.35-6.45-0.01-12.63,0.4
		s-11.05-0.23-15.05,0.96c-4,1.19-11.38,1.77-15.01,3.76c-3.63,1.99-7.25,0.5-14.39-0.33c-7.14-0.83-16.21-0.86-20.3-1.23
		s-10.81,0.49-9.97,1.27c0.83,0.78,4.81,8.18,4.81,8.18s-7.9-6.66-11.32-8.25s-4.9-1.8-6.62-2.41c-1.72-0.61-5.29,2.73-6.68,4.1
		c-1.39,1.38-8.4,6.74-9.72,8.76c-1.31,2.03-3.09,0.38-4.06,2.18c-0.97,1.79-6.61,10.44-11.08,14.61
		c-4.46,4.17-8.26,11.68-12.4,17.2c-4.15,5.52-10.39,16.77-11.63,18.25c-1.24,1.48-4.37,2.28-6.22,4.17
		c-1.85,1.89-0.35,3.55-1.74,5.32c-1.4,1.77-1.78,2.52-1.78,2.52l2.41-0.56c0,0,0.31,2.83-1.74,5.32c-2.05,2.49-3.55,3.65-3.56,5.04
		c-0.02,1.4-5.89,9.8-6.29,10.68c-0.39,0.88-3.11,4.25-4.23,6.34s-0.78,3.42-1.04,6.83s-0.69,4.55-0.69,4.55s-4.98,3.03-7.07,3.58
		c-2.08,0.55-5.54,2.63-5.18,3.4c0.36,0.77-1.1,4.08-2.02,7.14c-0.92,3.07-3.05,1.97-3.42,4.13s-1.92,5.43-3.98,7.78
		c-2.06,2.35-5,5.29-5,5.29s6.82-2.4,5.42-1.97s-1.64,1.61-1.64,1.61l0.32,0.98c0,0-0.7,2.03-2.45,3.82c-1.75,1.79-3.19,5.2-5.8,7.5
		c-2.61,2.3-2.41,4.02-3.39,6.93s-0.89,4.14-2.41,6.62c-1.51,2.47-3.56,5.04-3.56,5.04s1.4,1.39,2.07,1.71s0.17,2.94,1.02,2.48
		s4.37-1.2,4.37-1.2s0.03,0.61-2.62,1.93c-2.65,1.32-7.18,3.72-15.04,7.02s-28.84,7.66-35.62,7.61c-6.78-0.05-26.21,3.7-28.1,4.1
		c-1.89,0.4-5.34-0.12-6.37-0.97s-2.51-1.74-3.82-2.45s-3.92,1.03-7.31,2.14c-3.4,1.11-3.26-1.1-4.87-1.67
		c-1.6-0.57-6.74-0.85-9.17-0.93c-2.43-0.08-30.6-1.37-32.87-1.29c-2.27,0.08-9.13-1.99-11.24-2.65c-2.11-0.66-7.58-0.74-8.26-0.79
		c-0.68-0.06-1.76,1.85-4.44,1.65c-2.68-0.2-1.11-2.75-4.59-3.49s-4.66-3.04-4.66-3.04s-0.2,2.81-3.29,3.22
		c-3.08,0.41,1.43-2.42-0.88-3.39s-4.64-1.08-7.67-1.64c-3.03-0.56-1.17-3.35-3.02-4.65s-4.26-0.39-6.58,0.39s-3.35-1.57-6.16-2.34
		c-2.81-0.77-5.23-1.8-7.14-2.02c-1.91-0.22-4.08,0.44-6.97-0.13c-2.89-0.57-6.29,0.62-7.1,0.78s-1.87,1.61-3.6,2.24
		s-4.63-0.68-5.99-0.45s-3.85,0.81-3.85,0.81s-0.91-2.03-4.2-2.97c-3.3-0.94-9.85-5.17-13.27-7.61
		c-3.42-2.45-30.51-15.21-33.76-16.79c-3.25-1.58-4.39-1.04-7.46-3c-3.07-1.96-2.73-2.36-5.11-3.11c-2.39-0.75-8.33-3.06-12.78-4.74
		c-4.45-1.68-6.69-5.04-12.68-8.45s-7.46-4.36-8.55-5.03c-1.09-0.67-5.15,1.79-7.94,0.19c-2.8-1.6-3.52-3.92-8.06-8.21
		c-4.54-4.29-12.39-9.42-17.13-12.86s-4.21-5.35-5.79-7.87c-1.58-2.52-6.72-4.09-8.72-6.92s-0.42-3.32-0.42-3.32
		s0.46-0.08-0.11-2.34c-1.31-5.19,1.14-10.39,1.42-12.36c0.28-1.97,5.43-6.81,12.59-9.26s13.22-7.57,21.2-10.74
		c7.97-3.16,29.54-14.44,36.62-17.23s20.79-10.36,26.16-12.77s10.35-6.23,13.68-7.23c3.33-1,6.54-0.45,13.51-3.06
		C205.83,505.35,226.04,506.63,239.4,504.84z"/>
	<path class="st0" d="M565.73,487.1c4.07,1.2,4.83,5.2,9.28,6.68c4.46,1.47,87.73,17.33,101.75,20.36
		c14.03,3.03,101,13.49,112.84,14.43c11.84,0.93,18.31,4.93,20.2,4.45s12.03-2.04,21.47-3.03c9.43-0.99,32.3-3.01,33.9-3.52
		s4.07,1.06,4.73,1.48c0.66,0.42,11.98,0.19,17.97-0.46c5.99-0.64,19.31,0.21,21.22-0.24s5.59,0.67,4.17,0.14
		c-1.42-0.53-0.78,1.91-0.78,1.91l0.78,4.1c0,0,6.56,2.42,10.17,0.14s4.98-1.31,4.98-1.31s51.74-20.76,61.83-24.6
		c10.09-3.84,44.17-18.87,47.39-20.26c3.22-1.39,8.61-3.64,10.31-4.02c1.7-0.38-2.12,2.47-2.12,2.47l3.99-2.15
		c0,0,5.82-2.14,8.12-2.47s1.02,1.31,1.02,1.31s15.7-6.21,20.69-7.13s22.81-2.51,26.13-2.47s12.64,2.57,14.16,3.99
		c1.52,1.42,5.26,8.06,5.29,8.83s0.06,1.56,0.46,5.97c0.4,4.41,0.06,6.66-0.53,5.12c-0.59-1.55-1.02-7.31-1.02-7.31
		s-0.45-1.81-2.08-3.07c-1.63-1.26-9.91-0.2-15.25-0.22s-7.02,1.38-9.07,2.08s-2.44,1.89-0.74,2.37c1.7,0.47,2.74-0.36,5.12,0.53
		c2.38,0.89,0.45,2.8,0.6,1.8c0.15-0.99-0.51-1.38-2.89-1.62c-2.38-0.24-6.53,0.06-12.29,2.33s-30.08,13.59-34.85,15.14
		c-4.77,1.55-6.96,5.61-6.96,5.61s1.6,1.04,3.25,0.21c1.65-0.83,1.71-2,1.8-0.6c0.09,1.4,0.11,1.38,0.11,1.38s-5.45,2.98-11.86,7.84
		c-6.42,4.85-47.83,34.3-52.09,37.24c-4.26,2.93-14.82,13-19.85,18.14c-5.03,5.14-8.83,5.29-8.83,5.29s-3.45,4.89-4.17,5.86
		c-0.72,0.97-8.19-0.48-11.51,0.42c-3.32,0.9-7.13,1.95-11.23,4.09c-4.1,2.15-8.09,3.56-10.7,4.98s0.67,2.72,0.67,2.72
		s-3.81-0.64-5.54-0.04c-1.73,0.61-2.05,3.39-2.05,3.39s6.63,2.76,8.58,3.5s6.75,1.15,18.25,3.22c11.5,2.07,17.52,7.42,23.76,8.8
		s9.64,3.66,15.36,7.59s12.13,5.55,15.39,8.05c3.26,2.5,15.31,7.29,19.7,10.03c4.39,2.74,3.48,8.05,9.71,12.18
		c6.22,4.14,25.81,15.91,27.71,18.19c1.9,2.28,6.83,0.7,8.37,0.74c1.54,0.04,0.64,2.26,0.64,2.26l-2.26,0.64l2.44,1.66
		c0,0,2.72,4.16,6.88,5.47s9.99,3.85,9.99,3.85l-1.24,1.94l-2.4-1.2l4.06,4.77c0,0-4.06-2.56-4.84-2.86s-0.74,2.37-0.74,2.37
		s9.99,6.94,11.26,8.37s5.23,1.91,5.23,1.91l-1.2,2.4c0,0,5.35,5.27,7.55,8.19c2.21,2.92,6,3.63,7.77,4.94
		c1.77,1.31,5.52,2.14,7.59,2.65c2.07,0.51,5.08,0.07,5.08,0.07l-1.7,1.98c0,0-0.1,3.22,0.78,4.1c0.87,0.88,3.38-2.02,4.87-2.68
		c1.5-0.66,6.5,0.43,6.5,0.43s-4.39,2.52-8.05,3.39c-3.66,0.87-3.92,0.65-14.72,0.67c-10.8,0.01-7.3-2.25-18.36-4.59
		s-14.71-7.32-26.23-10.92c-11.52-3.6-46.1-19.22-55.36-23.46c-9.26-4.24-54.57-23.65-59.7-25.89
		c-5.13-2.24-33.92-13.15-40.99-16.71c-7.07-3.56-14.41-9.84-24.47-11.97c-10.06-2.14-12.89-5.48-12.89-5.48s-1.01,0.72-2.75,0.21
		c-1.74-0.51-2.46-2.77-14.83-6.71s-21.15-4.68-29.59-6.5c-8.43-1.83-23.59-1.58-28.7-1.03c-5.11,0.55-10.62,0.72-17.09-0.07
		s-11.63,2.09-15.92,3.07s-31.57,17.84-42.13,22.62c-10.56,4.78-28.1,10.62-30.93,12.07c-2.83,1.45-4.06,1.23-4.06,1.23l-0.28,2.33
		c0,0-0.87,0.95-3.21,0.25c-2.34-0.71-15.78-0.53-18.01,0c-2.23,0.53-3.94,2.82-6.11,4.62c-2.17,1.81-4.9,1.99-9.89,3.53
		s-13.55,4.12-15.32,4.87s-20.59,4.8-21.33,4.87s-0.78,1.91-0.78,1.91s0.01,0-1.77,1.06c-1.78,1.06-18.5,6.13-22.53,7.27
		c-4.03,1.14-5.03,2.8-8.51,3.42c-3.48,0.63-16.7,4.97-16.7,4.97s2.44,2.32,6.04,0.46c3.6-1.86,10.77-2.12,14.41-4.8
		c3.64-2.68,9.46-3.27,13.42-5.65c3.96-2.38,9.91-3.39,9.85-3.99c-0.06-0.6,2,1.69-0.14,4.17c-2.14,2.48-5.23,4.09-5.23,4.09
		s-0.22,1.83,1.52,1.73s5.93-0.92,5.93-0.92l-4.38,3.11c0,0-0.59,1.43-7.63,2.89c-7.03,1.46-7.73,1.52-7.73,1.52
		s-1.15,0.23-3.14,1.16c-5.37,2.51-18.49,6.36-31.46,5.18c-12.97-1.17-17.43-2.77-30.72-3.18c-13.29-0.41-12.1,0.33-17.9,1.37
		c-5.8,1.04-16.95,3.65-22.35,3.56s-8.13-0.75-12.92,0.07c-4.8,0.82-6.26,3.24-15.01,3s-8-0.73-12.64-2.26
		c-4.64-1.53-18.92-5.94-18.92-5.94s4,2.52,1.13,2.68c-2.87,0.16-5.21-1.15-7.06-1.77c-1.86-0.62-4.69-1.89-6.81-4.56
		c-2.12-2.66-3.28-4.17-3.81-1.55c-0.54,2.62,2.55,6.9,1.45,6.81s-1.62-2.21-3.71-6.18c-2.08-3.97-1.36-4.16-1.38-5.9
		s-1.64-3.74-2.29-5.83c-0.65-2.08-3.05-5.76-2.47-8.12s-2.75-2-3.57-4.34c-0.82-2.35-0.76-5.72,0.32-13.88s4.51-23.78,5.97-30.47
		c1.46-6.69,9.94-12.39,11.3-15.18c1.36-2.79,5.96-7.32,7.06-10.24c1.11-2.91,0.38-3.19,1.66-8.44c1.28-5.25-0.71-5.09-0.67-8.72
		s1.28-2.85,5.3-9.18c4.02-6.32,5.31-11.41,6.71-14.83s2.52-7.29,4.7-10.98s0.24-1.46,0.11-4.63c-0.13-3.16-0.99-2.68,0.57-4.66
		s7.54-3.54,11.02-6.85c3.47-3.31,0.85-2.92,1.84-6.14c0.98-3.23,0.87-2.03,2.97-3.46c2.1-1.43,8.2-4.35,15.08-8.08
		c6.88-3.73,4.76-2.94,7.35-6.57c2.58-3.62,4.95-4.57,7.87-5.68c2.92-1.11,3.28-4.84,4.13-6.32c0.86-1.48,2.51-3.95,5.61-5.05
		c3.11-1.1,10.68-1.38,15.96-2.61c5.28-1.23,6.68-2.91,9.32-4.87c2.64-1.96,8.12-3.98,8.9-4.38c0.78-0.39,1.43,0.51,4.63,0.11
		s8.6,0.21,9.67-0.28c1.07-0.49,6.78-1.04,7.77-1.06C544.18,482.34,561.66,485.9,565.73,487.1z"/>
</g>
</svg>
