<?xml version="1.0" encoding="utf-8"?>
<!-- Generator: Adobe Illustrator 24.1.3, SVG Export Plug-In . SVG Version: 6.00 Build 0)  -->
<svg version="1.1" id="圖層_1" xmlns="http://www.w3.org/2000/svg" xmlns:xlink="http://www.w3.org/1999/xlink" x="0px" y="0px"
	 viewBox="0 0 1200 1200" style="enable-background:new 0 0 1200 1200;" xml:space="preserve">
<style type="text/css">
	.st0{fill-rule:evenodd;clip-rule:evenodd;}
</style>
<g>
	<path class="st0" d="M186.24,553.31c-22.99,10.72-46.31,17.62-54.05,21.11c-7.74,3.49-16.29,9.32-24.48,12.32
		s-18.57,7.09-23.17,9.28c-4.6,2.19-6.03,2.37-6.33,3.78c-0.29,1.41,7.27,2.19,10.33,3.03c3.05,0.84,11.62,6.4,14.41,7.94
		c2.79,1.54,6.45,5.01,6.45,5.01l4.4,2.79c0,0-8.13,1.34-13.86,2.06c-5.73,0.72-12.47,3.06-15.57,3.18
		c-3.09,0.11-5.75,1.19-8.84,1.31c-3.09,0.11-0.13,3.32,3.27,7.26c3.4,3.94,5.19,6.86,12.96,8.36c7.78,1.5,27.78,6.1,33.46,6.57
		c5.68,0.47,40.67,4.48,44.88,6.08c4.21,1.59,17.73,8.07,43.52,10.53s54.89,5.29,68.09,7.72c13.2,2.43,16.67,4.71,27.84,4.68
		c11.16-0.03,15.52,3.95,21.3,1.8c5.79-2.14,7.78-4.44,7.78-4.44s-0.54,1.64-4.6,2.19c-4.06,0.55-6.17-0.01-7.34-0.53
		c-1.17-0.52,0.33-2.36,0.33-2.36s14.08-1.57,19.28-1.13c5.21,0.45,107.24-3.06,131.73-3.74c24.49-0.68,85.16-3.23,85.16-3.23
		s34.11,2.32,38.59,2.97c4.49,0.66,12.97,2.42,16.09,1.6c3.12-0.82,10.43,0.42,10.43,0.42s35.83,6.66,42.46,7.17
		c6.63,0.5,5.99-1.42,5.99-1.42l-3.77-0.86c0,0,4.48,0.89,6.86,0.75c2.38-0.14,2.41-0.85,4.33-1.49c1.93-0.64,3.87-1.74,6.24-1.65
		s5.5-0.97,7.18-1.37c1.68-0.41,4.62-2.66,4.62-2.66l-1.1-2.18c0,0-2.37-0.1-4.5-0.42s-12.08-0.72-12.08-0.72l1.71-1.12
		c0,0,7.32,1.01,8.77,0.35c1.45-0.65,3.4-1.76-0.16-1.91s-8.07-0.09-10.66-0.67s-11.89-5.46-11.89-5.46s28.94-5.01,41.64-7.83
		c12.7-2.82,16.58-4.8,16.58-4.8s5.15,1.87,7.34,0.53s5.86-4.04,7.06-4.23c1.2-0.19,15.61-4.36,18.01-4.98
		c2.4-0.62,3.24,2.03,7.09,0.76c3.85-1.27,5.85-3.8,5.85-3.8l20.86-4.86c0,0,3.2,3.22,7.08,1.23s8.76-5.35,8.76-5.35
		s10.06-2.21,12.7-2.82c2.64-0.61,6.37,0.97,9.27-0.1c2.89-1.07,8.02-4.67,8.02-4.67l16.74-2.89c0,0,1.6,1.49,5.41,1.4
		c3.8-0.08,8.2-3,8.2-3s14.86-3.44,17.26-4.06c2.4-0.62,7.27,2.43,10.14,1.83c2.87-0.6,3.91-2.69,7.74-3.49
		c3.83-0.8,10.04-1.73,14.31-1.56s11.7-1.67,13.39-2.31c1.69-0.64,18.5,0.74,23.5,0.23c5.01-0.51,7.26-3.27,9.62-2.94
		s11.94-1.66,21.63-0.32c9.68,1.34,30.48,15.71,34.01,22.5c3.53,6.79,16.67,28.46,23.61,38.95c6.94,10.49,12.45,21.16,21.06,31.48
		c8.61,10.32,14.24,12.21,19.63,13.85c5.4,1.64,11.04,3.06,11.54,2.36c0.5-0.69-6.05-9.03-6.96-10.02
		c-0.91-0.99,1.08-3.28-1.43-5.76s-5.15-7.81-6.01-9.98c-0.86-2.17-2.04-8.39-3.8-11.79c-1.76-3.4-5.6-8.3-6.86-12.63
		s-9.09-21.98-10.01-28.66c-0.92-6.69-4.76-17.53-5.29-22.06c-0.53-4.53,0.81-8.28-0.48-11.66c-1.29-3.38-2.91-4.39-0.81-9.3
		s3.25-10.08,3.09-11.99c-0.16-1.91,15.43-23.37,23.85-32.06c8.42-8.69,14.6-20.55,20.01-25.09c5.41-4.53,6.88-5.66,9.88-9.58
		c3.01-3.92,5.57-8.56,7.79-10.61s-1.1-2.18-1.1-2.18s-0.43-1.2-2.33-1.04c-1.91,0.16-5.57,2.63-8,3.95s-9.07,1.06-21.75,9.34
		c-12.68,8.28-44.72,31.22-59.39,41.79c-14.67,10.57-21.25,14.59-24.62,15.87c-3.38,1.29-22.8-5.9-23.74-6.18
		c-0.94-0.28-2.06-1.98-3.73-1.81s-8.75-0.83-8.75-0.83s-5.42-1.17-8.22-2.23s-5.78-4.03-8.61-4.38s-7.13,0.19-8.79,0.12
		s-6.17-0.01-8.97-1.31c-2.8-1.3-7.07-1.47-10.06-3.73s-4.08-4.91-6.71-4.54s-2.97,2.97-6.5,2.11c-3.53-0.85-11.51-3.07-11.51-3.07
		s-6.54-2.64-9.08-4.64c-2.53-2-1.8-2.45-3.71-2.29c-1.91,0.16-3.63,1.75-5.76,1.43c-2.12-0.32-5.23,0.03-8.26-1.28
		c-3.03-1.31-7-3.13-9.79-4.67c-2.79-1.54-6.95-4.32-9.31-4.65c-2.36-0.33-8.37,1.33-10.74,1.23c-2.37-0.1-4.74-0.19-8.24-1.76
		s-9.76-5.38-13.29-6.23c-3.53-0.85-6.8-2.17-8.24-1.76c-1.44,0.42-2.18,1.1-5.49,0.73c-3.31-0.37-8.52-0.82-9.93-1.11
		c-1.41-0.29-9.34-3.94-11.45-4.73c-2.11-0.8-6.72-4.07-10.29-3.98c-3.57,0.09-4.83,1.94-9.08,1.3s-12.02-2.38-15.54-3.47
		s-12.06-7.13-14.7-6.53c-2.64,0.61-6.48,1.64-9.33,1.76c-2.85,0.12-17.25-2.12-20.78-2.97s-6.4-6.19-9.76-5.38
		c-3.36,0.82-6.29,2.84-10.55,2.43s-14.4-2.24-17.25-2.12s-7.1-0.52-4.97-0.44s2.94-2.26,4.36-2.2c1.42,0.06-3.76-1.1-4.71-0.9
		c-0.96,0.2-4.32,1.01-5.98,0.95c-1.66-0.07-3.3-0.61-3.3-0.61l0.81-2.34c0,0-0.69-0.5-3.77-0.86c-3.07-0.36-4.69-1.38-4.69-1.38
		l0.11-2.85c0,0-3.82,0.56-5.7,0.01c-1.88-0.55-4.7-1.14-3.46-2.51s3.71-3.65,6.43-6.39c2.72-2.74,5.18-4.78,7.66-7.53
		c2.49-2.75,5.21-5.49,3.33-6.04s-7.1-0.52-10.91-0.44c-3.8,0.08-23.45,4.28-26.83,5.81s-13.62,2.07-18.98,5.41
		c-5.36,3.35-18.41,9-22.56,11.68c-4.15,2.68-10.12,3.63-13.98,5.14s-24.64,4.47-24.64,4.47s-18.24-1.21-25.42,0.17
		c-7.18,1.37-49.79,3.7-50.49,3.44s0.61-3.3-3.96-1.82c-4.57,1.48-7.21,2.09-8.86,1.78c-1.65-0.3-0.1-3.33-3.71-2.29
		c-3.6,1.04-7.74,3.49-9.64,3.41s-1.81-2.21-4.2-1.83c-2.39,0.38-6.75,2.58-7.95,2.77c-1.2,0.19-5.44-0.46-5.44-0.46
		s2.93-2.02-2.82-0.83c-5.75,1.19-12.23,2.83-15.39,4.61s-6.98,2.33-9.12,2.25s-3.78-0.39-3.78-0.39s-0.13-2.62-2.08-1.51
		c-1.94,1.11-4.4,3.15-7.28,3.98s-8.87,2.02-10.03,1.26c-1.16-0.76-7.86,0.63-14.57,2.03c-6.71,1.39-48.18,11.13-71.25,17.8
		s-56.01,16.75-60.82,18.22S186.24,553.31,186.24,553.31z"/>
</g>
</svg>
