<?xml version="1.0" encoding="utf-8"?>
<!-- Generator: Adobe Illustrator 24.1.3, SVG Export Plug-In . SVG Version: 6.00 Build 0)  -->
<svg version="1.1" id="圖層_1" xmlns="http://www.w3.org/2000/svg" xmlns:xlink="http://www.w3.org/1999/xlink" x="0px" y="0px"
	 viewBox="0 0 1200 1200" style="enable-background:new 0 0 1200 1200;" xml:space="preserve">
<g>
	<path d="M542.01,531.65c3.44-3.2,8.84-6.85,10.39-8.62s3.54-3.54,5.3-3.76s4.42-0.22,5.52-0.88s4.2-2.65,5.97-4.42
		s3.09-2.87,4.2-2.65c1.1,0.22,5.97-1.55,8.62-2.87s16.13-6.19,25.64-2.87s20.11,9.72,26.96,12.82
		c6.85,3.09,13.48,13.26,18.12,18.78c4.64,5.52,4.64,5.52,4.64,5.52l1.77,2.21c0,0,0-1.77,2.43,1.1c2.43,2.87,3.54,4.2,4.2,5.75
		c0.66,1.55,0,3.09,1.1,4.42c1.1,1.33,9.5,20.77,13.92,27.85c4.42,7.07,4.86,15.69,7.07,19.89c2.21,4.2,4.42,11.93,3.76,19.67
		s0,13.7-1.77,20.11c-1.77,6.41-2.43,9.72-3.98,11.71c-1.55,1.99-19.45,22.54-21.88,25.64c-2.43,3.09-1.33,3.98-3.09,4.42
		c-1.77,0.44-4.2-1.55-5.52-0.66c-1.33,0.88-2.65,1.33-7.29,2.21c-4.64,0.88-39.34,4.86-42.21,5.52s-5.3,4.2-15.91,2.65
		c-10.61-1.55-17.02-4.2-26.3-12.6s-15.03-17.9-17.9-19.45c-2.87-1.55-5.75-3.31-8.62-5.52c-2.87-2.21-7.73-9.06-9.5-10.61
		c-1.77-1.55-4.2-2.21-4.2-2.21s1.1-2.43,0.22-4.86s-2.65-7.07-4.42-8.18c-1.77-1.1-2.43-1.99-2.43-3.98s-0.88-3.98-1.55-5.08
		c-0.66-1.1-1.55-1.99-2.65-4.86c-1.1-2.87-3.09-5.75-3.54-8.84c-0.44-3.09-1.33-1.77-0.44-10.61c0.88-8.84,9.94-33.15,11.27-37.79
		c1.33-4.64,0.44-6.63,3.09-9.28C525.65,548.66,532.28,540.71,542.01,531.65z"/>
</g>
</svg>
