<?xml version="1.0" encoding="utf-8"?>
<!-- Generator: Adobe Illustrator 24.1.3, SVG Export Plug-In . SVG Version: 6.00 Build 0)  -->
<svg version="1.1" id="圖層_1" xmlns="http://www.w3.org/2000/svg" xmlns:xlink="http://www.w3.org/1999/xlink" x="0px" y="0px"
	 viewBox="0 0 1200 1200" style="enable-background:new 0 0 1200 1200;" xml:space="preserve">
<style type="text/css">
	.st0{fill-rule:evenodd;clip-rule:evenodd;}
</style>
<g>
	<path d="M620.12,430.47c0,0-4.23-11.17-5.34-15.2c-1.11-4.03-5.74-37-6.29-39.93c-0.55-2.93-1.14-23.27-1.14-23.27
		s-8.1-23.44-9.02-27.1c-0.92-3.66-1.66-7.88-6.8-11.71s-8.44-6.77-13.38-5.66s-9.71,1.66-12.63,5.88
		c-2.92,4.22-10.73,12.11-11.7,15.65s-4.5,9.9-4.99,13.2c-0.48,3.3,0.02,11.6-0.35,13.31c-0.36,1.71,1.35,3.91,1.35,3.91l3.66-0.01
		c0,0,0.74,3.91,2.08,2.32c1.34-1.59,3.9-3.18,3.66-4.28c-0.25-1.1-0.38-6.23-0.14-8.18s2.06-8.67,2.79-12.1s4.51-8.07,5.72-11.12
		s4.26-7.95,6.09-8.56c1.83-0.61,6.59-0.87,8.43,1.57s6,11.35,6.86,14.28c0.86,2.93,3.7,22.59,2.97,26.01
		c-0.73,3.42-2.76,29.2-2.51,32.13s-0.95,14.54-2.17,18.2c-1.22,3.67-3.53,9.41-3.89,11.73c-0.36,2.32-1.45,9.28-1.45,9.28
		s-4.77-2.8-12.95-3.89c-8.18-1.09-27-3.25-36.76-0.8c-9.77,2.46-17.33,6.87-17.33,6.87s-9.77,3.68-16.84,7.84
		c-7.08,4.16-19.52,16.52-22.81,20.31s-11.21,19.68-13.52,24.82c-2.31,5.13-4.74,13.69-7.06,16.99s-5.61,4.65-8.29,10.27
		s-6.32,21.51-7.41,26.64c-1.09,5.13-2.53,20.52-0.57,25.04c1.96,4.52,2.71,16.97,3.82,20.39c1.1,3.42,1.48,10.26,2.95,13.8
		c1.61,3.87,3.67,7.58,4.82,11.64c1.39,4.88-0.28,9.37,0.58,14.25c1.87,10.68,5.38,21.47,7.62,32.19
		c1.62,7.76,2.35,15.68,3.08,23.58c2.41,26.18,6.1,52.74,6.15,78.91c0.01,6.11,3.21,22.22,3.22,24.66c0,2.44,5.63,10.01,7.23,13.79
		c6.52,15.47,14.73,32.95,26.73,44.87c7.43,7.38,17.52,12.74,27.98,12.12c7.88-0.47,15.53-3.34,23.42-3.01
		c5.62,0.24,12.58-1.12,20.28,0.21c7.7,1.33,23.24,19.5,26.54,25.48c3.31,5.98,6.37,9.64,11.5,11.34s5.75,4.14,11.12,3.28
		c10.52-1.69,15.24-10.96,25.45-12.4c4.72-0.66,9.51-0.27,14.27-0.49c17.55-0.82,34.26-10.77,43.85-25.41
		c4.43-6.76,7.72-14.7,10.95-22.09c2.46-5.61,6.59-12.87,6.72-19.16c0.11-5.25,8.6-45.57,8.95-52.17s6.55-29.57,6.66-36.04
		c0.11-6.47,0.23-6.84,0.22-14.78c-0.01-7.94,0.95-15.15,1.8-20.77s-0.38-5.62-0.26-11.48c0.11-5.86,1.32-11.97,1.32-15.64
		s-1.35-5.74,0.35-10.26s2.19-5.38,1.82-9.77c-0.37-4.4-0.86-3.54-0.26-9.04c0.6-5.5,3.77-10.14,3.76-15.64
		c-0.01-5.5,2.03-29.44,4.94-42.51c2.91-13.07,7.02-39.58,6.52-44.83c-0.5-5.25-0.04-24.43-0.9-29.8
		c-0.86-5.37-2.96-16.85-5.65-21.61s-8.82-15.74-11.63-19.52s-6.12-10.37-10.77-12.93c-4.65-2.56-21.27-11.32-21.27-11.32
		s-22.85-7.17-37.14-7.64c-14.29-0.47-32.48,6.53-32.48,6.53s-8.92-3.16-12.34-3.28c-3.42-0.12-10.75,1.12-10.75,1.12L620.12,430.47
		z"/>
</g>
</svg>
