<?xml version="1.0" encoding="utf-8"?>
<!-- Generator: Adobe Illustrator 24.1.3, SVG Export Plug-In . SVG Version: 6.00 Build 0)  -->
<svg version="1.1" id="圖層_1" xmlns="http://www.w3.org/2000/svg" xmlns:xlink="http://www.w3.org/1999/xlink" x="0px" y="0px"
	 viewBox="0 0 1200 1200" style="enable-background:new 0 0 1200 1200;" xml:space="preserve">
<style type="text/css">
	.st0{fill-rule:evenodd;clip-rule:evenodd;}
</style>
<g>
	<path d="M654.57,883.56c-6.61-0.05-19.25,7.78-23.35,11.06c-4.55,3.64-10.3,6.25-15.67,8.39c-6.5,2.59-11.74,0.94-17.9,3.83
		c-3.26,1.53-7.06,1.85-10.53,0.9c-7.6-2.08-13.85-3.16-20.64-7.8c-15.57-10.65-19.25-13.52-29.09-19.25s-25.81-24.17-30.31-37.69
		c-4.51-13.52-8.6-44.65-10.24-57.76c-1.64-13.11-2.05-29.5-4.92-39.33c-2.87-9.83-3.28-24.17-9.83-28.68
		c-6.55-4.51-9.01-11.47-11.06-20.07c-2.05-8.6-5.74-12.29-9.83-19.66c-8.53-15.36-17.32-31.72-17.12-49.73
		c0.21-18.39,6.06-38.91,17.53-53.5c4.51-5.74,12.29-11.88,12.29-11.88s0.82-4.92,7.78-14.34c6.96-9.42,12.7-14.34,20.48-15.98
		s20.07-2.05,24.58,0s9.83,2.05,9.83,2.05s6.14-4.92,13.11-5.74c6.96-0.82,14.34,2.87,14.34,2.87s3.28-13.79,3.28-18.16
		s-1.91-10.92-3.55-15.57c-1.64-4.64-2.46-6.01-2.18-12.02c0.27-6.01,1.64-10.38-0.27-15.02s-4.64-8.19-4.92-12.56
		c-0.27-4.37,0.82-5.46,0.82-5.46l3.55,1.09l-1.09-8.47c0,0-4.37,4.37-4.1,1.09c0.27-3.28,2.18-5.19,0.82-8.74
		c-1.37-3.55-2.18-5.46-1.91-10.38c0.27-4.92-6.28-26.22-7.92-31.95c-1.64-5.74-13.11-24.58-14.75-28.68
		c-1.64-4.1-5.19-11.2-6.55-15.02c-1.37-3.82-6.83-9.01-10.38-13.38c-3.55-4.37-19.12-21.03-21.03-24.31
		c-1.91-3.28-6.28-6.55-10.38-10.38c-4.1-3.82-10.65-3.28-13.11-3.55s-5.74,0.27-6.83,3.28c-1.09,3-3,3.55-3,5.74
		s-0.55,6.28-0.55,6.28s-1.64,3.28-3,3.28c-1.37,0-3.82-1.37-5.74-3.55s-0.27-3.28,0.82-7.1c1.09-3.82,3.82-8.19,7.37-11.2
		c3.55-3,8.19-5.46,13.11-4.64c4.92,0.82,16.39,7.65,19.12,10.1s27.58,29.22,30.86,32.23c3.28,3,16.39,25.4,18.84,29.5
		c2.46,4.1,6.01,7.37,6.83,11.2c0.82,3.82,3,9.29,3,9.29s6.55,16.11,8.74,21.3c2.18,5.19,1.91,7.65,3.28,11.2
		c1.37,3.55,1.37,3.55,3.28,7.65s2.73,8.74,4.1,11.2c1.37,2.46,1.37,5.46,1.37,5.46s1.91-0.27,2.46,2.46
		c0.55,2.73,0,10.38,0.55,13.93c0.55,3.55,3.82,7.37,4.92,10.92c1.09,3.55,1.37,12.02,1.37,12.02l3.28,12.56
		c0,0,4.64,16.93,6.01,20.48c1.37,3.55,2.18,5.19,2.18,5.19s7.1-4.1,13.38-4.92c6.28-0.82,14.47,0,17.75,0.82
		c3.28,0.82,11.2,0.27,11.2,0.27s3-3.55,12.29-1.91c9.29,1.64,13.11,6.01,13.11,6.01s22.67,4.37,25.67,4.92s16.11,7.1,20.21,10.38
		c4.1,3.28,12.02,12.02,17.48,15.84c5.46,3.82,9.29,9.83,13.93,24.31c2.41,7.51,2.86,14.18,3.96,21.75
		c1.47,10.16,4.6,19.89,5.45,30.2c1.47,17.79-1.2,35.87,1.89,53.44c1.45,8.27,4.17,16.29,5.56,24.57
		c1.78,10.61,1.38,21.44,0.96,32.19c-0.38,9.98-3.21,19.06-4.25,29.01c-1.39,13.36-3.52,26.6-2.38,39.9
		c1.02,11.9-4.25,24.57-6,36.31c-1.91,12.84-1.64,17.48-6.28,25.13c-4.64,7.65-9.29,11.2-16.93,16.93
		c-7.65,5.74-14.2,9.83-24.58,7.1C684.75,888.07,671.92,883.7,654.57,883.56z"/>
</g>
</svg>
