<?xml version="1.0" encoding="utf-8"?>
<!-- Generator: Adobe Illustrator 24.1.3, SVG Export Plug-In . SVG Version: 6.00 Build 0)  -->
<svg version="1.1" id="圖層_1" xmlns="http://www.w3.org/2000/svg" xmlns:xlink="http://www.w3.org/1999/xlink" x="0px" y="0px"
	 viewBox="0 0 1200 1200" style="enable-background:new 0 0 1200 1200;" xml:space="preserve">
<style type="text/css">
	.st0{fill-rule:evenodd;clip-rule:evenodd;}
</style>
<g>
	<path d="M612.51,519.38c0,0,3.2,0.47,6.51-2.45c3.31-2.92,9.82-4.46,15.32-5.81c5.5-1.36,9.89-0.06,14.1,1.6
		c4.21,1.66,9.69,5.8,9.69,5.8s4.49,0.2,12,0.77s17.85,3.27,22.24,5.48c4.39,2.21,17.65,8.21,24.77,15.47
		c7.12,7.26,14.5,19.47,16.41,24.33s12.28,25.69,13.45,32.47c1.17,6.78,2.68,19.7,2.02,26.48c-0.66,6.78-4.03,27.1-5.14,30.67
		c-1.11,3.57-0.11,6.14-0.67,8.15c-0.56,2.01-3.32,7.96-3.98,11.53c-0.65,3.57-4.81,14.09-5.64,16.65
		c-0.83,2.56-2.36,20.14-1.73,23.9c0.63,3.76,0.68,16.4,0.47,22.72s1.79,11.46,0.21,18.69c-1.58,7.23-1.61,15.48-1.16,19.14
		c0.45,3.67-0.49,10.99-1.25,18.87c-0.76,7.88-3.36,17.12-3.36,17.12s-8.12,18.39-15.02,27.52c-6.9,9.14-11.96,16.45-18.21,21.56
		c-6.25,5.11-16.71,11.76-24.05,13.57s-11.27,2.34-17.77,1.13s-16.38-5.73-16.84-5.28c-0.46,0.46-2.68,5.76-6.54,10.7
		s-19.29,16.88-29.65,17.85s-8.71,2.72-21.16,0.57c-12.45-2.15-14.82-5.18-22.23-9.6c-7.41-4.42-16.54-10.86-16.54-10.86
		s-15.19-4.45-21.31-8.68c-6.12-4.23-21.1-18.67-23.28-24.81c-2.18-6.14-3.1-5.23-7.73-16.06c-8.15-19.04-14.06-37.98-19.09-58.12
		c-1.52-6.08-3.04-12.16-4.56-18.24c-2.44-9.75-4.49-19.38-3.15-29.46c0.95-7.09,3.91-14.17,1.93-21.41
		c-1.42-5.21-1.36-10.83-2.08-16.15c-0.77-5.73-3.12-11-3.98-16.85c-1.99-13.58-2.29-27.33-2.6-41.03
		c-0.19-8.49-0.39-16.98-0.58-25.48c-0.14-6.05-1.57-12.14-1.53-18.05c0.06-7.98,4.99-16.01,8.21-22.97
		c7.66-16.55,17.12-25.77,24.2-31.15c7.07-5.38,31.11-15.74,39.99-15.62s21.79,2.73,21.79,2.73s3.39,0.56,6.14-1.26
		c2.75-1.82,6.06-2.91,3.68-3.65c0,0,2.4-0.27,1.45,3.94c-0.37,1.65,1.46,2.57,1.46,2.57s0.83-0.73,2.76-2.74
		c1.93-2.01,2.94-2.19,4.41-3.74c1.47-1.55,1.57-2.65,0.93-2.74s3.11,0.19,0.91,3.21l4.2,3.04l10.82-1.89c0,0,2.67-3.01,4.23-4.75
		c1.56-1.74,5.03-25.45,5.79-32.41c0.76-6.96,2.64-23.9,3.48-27.84c0.84-3.94,2.51-10.43,2.35-16.48
		c-0.16-6.05-0.24-11.82,0.06-18.32s0.2-31.33-0.24-36.83c-0.44-5.5-0.44-5.5-0.44-5.5s-4.28-7.43-4.81-13.66
		s-1.13-17.77-3.78-21.17c-2.65-3.4-4.29-6.06-4.29-6.06s-1.65,0.09-4.95,0.72c-3.3,0.63-5.96,1.81-5.96,0.44
		c0-1.37,2.38-0.63,0.39-6.23c-2-5.59,0.31-10.62,0.51-15.57c0.2-4.95,1.77-7.6,2.59-8.79c0.83-1.19,4.22-0.63,5.31,0.38
		c0,0,2.91,6.51,5.18,11.1c2.27,4.59,14.05,43.1,14.95,49.06c0.9,5.96,3.14,18.33,4.76,29.7c1.61,11.36,1.4,18.6,2.85,23
		s2.27,5.05,1.53,7.42s-0.74,2.38-0.74,2.38s-2.84-1.2-2.39,1.55c0.45,2.75,1,3.48,2.64,6.15c1.64,2.66,2.65,2.48,4.39,1.76
		c0,0,1.27,3.39,0.34,7.05c-0.93,3.66-5.08,12.35-5.08,12.35s0.79,10.26,0.67,17.77c-0.12,7.51-1.6,12.73-2.07,16.39
		s-1.48,5.67-0.95,9.16s1.91,5.32,2.26,9.17c0.35,3.85-0.48,6.87-0.48,6.87S610.23,516.16,612.51,519.38z"/>
</g>
</svg>
