<?xml version="1.0" encoding="utf-8"?>
<!-- Generator: Adobe Illustrator 24.1.3, SVG Export Plug-In . SVG Version: 6.00 Build 0)  -->
<svg version="1.1" id="圖層_1" xmlns="http://www.w3.org/2000/svg" xmlns:xlink="http://www.w3.org/1999/xlink" x="0px" y="0px"
	 viewBox="0 0 1200 1200" style="enable-background:new 0 0 1200 1200;" xml:space="preserve">
<style type="text/css">
	.st0{fill-rule:evenodd;clip-rule:evenodd;}
</style>
<g>
	<path class="st0" d="M425.17,516.63c1.82-0.85,3.63-1.7,5.45-2.56c5.23,5.23,7.84,5.96,13.25,8.4c0.46-0.44,0.92-0.87,1.38-1.31
		c2.9,1.66,1.02,3.71,1.24,4.07c0.44,0.46,0.87,0.92,1.31,1.38c1.77,1.94,3.98,0.43,6.62,4.2c0,0-0.82,4.24,2.56,5.45
		c0.46-0.44,0.92-0.87,1.38-1.31c3.06,0.08,0.53,0.54,4.07-1.24c2.6,3.65,5.2,7.31,7.8,10.96c-0.46,0.44-0.92,0.87-1.38,1.31
		c-0.08,3.06,0.52,0.55-1.45,4c3.08,2.32,6.16,4.64,9.25,6.96c-0.46,0.44-0.92,0.87-1.38,1.31c0.87,0.92,1.75,1.84,2.62,2.76
		c-0.46,0.44-0.92,0.87-1.38,1.31c2.64,1.86,5.29,3.72,7.94,5.58c-0.77,3.09-1.4,4.92-0.2,8.07c0.87,0.92,1.75,1.84,2.62,2.76
		c-0.99,3.56-1.97,7.13-2.96,10.69c0.85,1.82,1.7,3.63,2.56,5.45c-4.59,4.37-9.19,8.74-13.78,13.11c-0.87-0.92-1.75-1.84-2.62-2.76
		c-0.92,0.87-1.84,1.75-2.76,2.62c0.41,1.36,0.83,2.71,1.24,4.07c-1.67,2.88-3.73,1.03-4.07,1.24c-3.22,3.06-6.43,6.12-9.65,9.18
		c-0.44-0.46-0.87-0.92-1.31-1.38c-11.9,9.57-23.8,19.15-35.7,28.72c1.22,7.13-2.91,8.18-4.4,14.69c0.41,1.36,0.83,2.71,1.24,4.07
		c-0.94,1.77-1.88,3.54-2.82,5.31c0.35,4.05,0.7,8.09,1.04,12.14c-0.92,0.87-1.84,1.75-2.76,2.62c0.41,1.36,0.83,2.71,1.24,4.07
		c-0.92,0.87-1.84,1.75-2.76,2.62c0.39,2.25,0.79,4.51,1.18,6.76c-0.92,0.87-1.84,1.75-2.76,2.62c0.41,1.36,0.83,2.71,1.24,4.07
		c-0.92,0.87-1.84,1.75-2.76,2.62c0.44,0.46,0.87,0.92,1.31,1.38c-0.48,1.33-0.96,2.67-1.45,4c2.19,2.3,4.37,4.59,6.56,6.89
		c-2.34,3.98-4.68,7.96-7.02,11.94c0.39,2.25,0.79,4.51,1.18,6.76c-0.92,0.87-1.84,1.75-2.76,2.62c0.41,1.36,0.83,2.71,1.24,4.07
		c-0.44,6.29-2.11,13.86-7.23,20.01c-0.44-0.46-0.87-0.92-1.31-1.38c-1.38,1.31-2.76,2.62-4.13,3.93c-2.23-0.5-4.46-1.01-6.69-1.51
		c-0.92,0.87-1.84,1.75-2.76,2.62c-1.25,0.15-11.88-2.54-13.38-3.02c-0.87-0.92-1.75-1.84-2.62-2.76c-0.46,0.44-0.92,0.87-1.38,1.31
		c-0.87-0.92-1.75-1.84-2.62-2.76c-1.36,0.41-2.71,0.83-4.07,1.24c-7.24-1.88-15.48-8.13-22.49-15.36c1.83-4.57,1.47-7.42,4.34-12
		c-3.95-6.9-0.2-8.98-0.98-14.83c-0.87-0.92-1.75-1.84-2.62-2.76c0.48-1.33,0.96-2.67,1.45-4c0-6.32-1.39-9.59,3.09-16.07
		c0.87,0.92,1.75,1.84,2.62,2.76c0.94-1.77,1.88-3.54,2.82-5.31c-2.14-1.62-0.52,1.53-2.69-0.07c-1.24-4.07-2.49-8.14-3.73-12.2
		c0.48-1.33,0.96-2.67,1.45-4c-0.87-0.92-1.75-1.84-2.62-2.76c0.48-1.33,0.96-2.67,1.45-4c-2.16-3.19-4.33-6.39-6.49-9.58
		c0.46-0.44,0.92-0.87,1.38-1.31c-2.16-3.19-4.33-6.39-6.49-9.58c0.46-0.44,0.92-0.87,1.38-1.31c-0.87-0.92-1.75-1.84-2.62-2.76
		c0.46-0.44,0.92-0.87,1.38-1.31c-1.31-1.38-2.62-2.76-3.93-4.13c0.46-0.44,0.92-0.87,1.38-1.31c-1.77-4-9.93-13.24-14.43-15.16
		c-1.36,0.41-2.71,0.83-4.07,1.24c-2.19-2.3-4.37-4.59-6.56-6.89c-0.92,0.87-1.84,1.75-2.76,2.62c-1.31-1.38-2.62-2.76-3.93-4.13
		c0.73-2.12-0.06-4.76,0.13-5.38c1.38-1.31,2.76-2.62,4.13-3.93c-0.39-2.25-0.79-4.51-1.18-6.76c1.4-2.21,2.8-4.42,4.2-6.62
		c-0.37-3.15-0.74-6.3-1.11-9.45c2.3-2.19,4.59-4.37,6.89-6.56c-0.44-0.46-0.87-0.92-1.31-1.38c0.29-7.61-6.79-4.8-0.98-14.83
		c-1.31-1.38-2.62-2.76-3.93-4.13c2.76-2.62,5.51-5.25,8.27-7.87c0.44,0.46,0.87,0.92,1.31,1.38c1.84-1.75,3.68-3.5,5.51-5.25
		c0.44,0.46,0.87,0.92,1.31,1.38c0.46-0.44,0.92-0.87,1.38-1.31c-0.44-0.46-0.87-0.92-1.31-1.38c2.3-2.19,4.59-4.37,6.89-6.56
		c-0.41-1.36-0.83-2.71-1.24-4.07c1.84-1.75,3.68-3.5,5.51-5.25c0.44,0.46,0.87,0.92,1.31,1.38c0.48-1.33,0.96-2.67,1.45-4
		c3.19-2.16,6.39-4.33,9.58-6.49c-0.44-0.46-0.87-0.92-1.31-1.38c0.46-0.44,0.92-0.87,1.38-1.31c0.44,0.46,0.87,0.92,1.31,1.38
		c4.11-3.04,8.23-6.08,12.34-9.11c0.44,0.46,0.87,0.92,1.31,1.38c0.92-0.87,1.84-1.75,2.76-2.62c0.44,0.46,0.87,0.92,1.31,1.38
		c1.84-1.75,3.68-3.5,5.51-5.25c2.67,0.96,5.34,1.93,8,2.89c2.73-1.73,5.47-3.45,8.2-5.18c3.56,0.99,7.13,1.97,10.69,2.96
		c0.92-0.87,1.84-1.75,2.76-2.62c1.33,0.48,2.67,0.96,4,1.45c4.05-0.35,8.09-0.7,12.14-1.04c1.31,1.38,2.62,2.76,3.93,4.13
		c0.46-0.44,0.92-0.87,1.38-1.31C419.88,512.91,422.52,514.77,425.17,516.63z"/>
	<path class="st0" d="M742.52,462.06c2.57-4.23,1.95-2.64,5.35-4.29c0.19-0.6,0.38-1.21,0.57-1.81c1.21,0.38,2.42,0.77,3.63,1.15
		c0.19-0.6,0.38-1.21,0.57-1.81c0.6,0.19,1.21,0.38,1.81,0.57c4.89-3.04-0.9-4.05,7.17-3.72c6.59-9.83,4.34-2.29,13.18-3.81
		c0.99-1.02,1.98-2.04,2.96-3.05c2.01-0.03,4.01-0.06,6.02-0.09c0.38-1.21,0.77-2.42,1.15-3.63c4.04,1.95,8.08,3.89,12.12,5.84
		c0,0,2.67-2.31,6.02-0.09c-0.19,0.6-0.38,1.21-0.57,1.81c3.44,1.75,6.87,3.51,10.31,5.26c1.18-1.62,2.36-3.24,3.54-4.87
		c3.72,0.43,4.2-0.66,4.2-0.66c3.02,0.96,6.05,1.92,9.07,2.87c0.19-0.6,0.38-1.21,0.57-1.81c1.21,0.38,2.42,0.77,3.63,1.15
		c0.19-0.6,0.38-1.21,0.57-1.81c4.64,2.14,9.29,4.27,13.93,6.41c0.19-0.6,0.38-1.21,0.57-1.81c1.21,0.38,2.42,0.77,3.63,1.15
		c0.19-0.6,0.38-1.21,0.57-1.81c6.46,2.71,12.92,5.42,19.38,8.14c0.22,1.4,0.44,2.8,0.66,4.2c2.83,1.56,5.66,3.12,8.49,4.69
		c-0.19,0.6-0.38,1.21-0.57,1.81c1.21,0.38,2.42,0.77,3.63,1.15c-0.19,0.6-0.38,1.21-0.57,1.81c1.21,0.38,2.42,0.77,3.63,1.15
		c-0.19,0.6-0.38,1.21-0.57,1.81c6.28,4.66,10.78,0.2,18.14,5.75c-0.93,5.03-1.86,10.06-2.78,15.08c-0.85,1.11-6.16-0.38-5.93,6.1
		c1.02,0.99,2.04,1.98,3.05,2.96c-0.38,1.21-0.77,2.42-1.15,3.63c0.6,0.19,1.21,0.38,1.81,0.57c0.15,4.49-2.38,4.05-3.54,4.87
		c0.22,1.4,0.44,2.8,0.66,4.2c1.62,1.18,3.24,2.36,4.87,3.54c-0.77,2.42-1.53,4.84-2.3,7.25c-6.58,1.85-3.33,4.58-11.37,4.38
		c0.03,2.01,0.06,4.01,0.09,6.02c0.6,0.19,1.21,0.38,1.81,0.57c-0.19,0.6-0.38,1.21-0.57,1.81c-0.6-0.19-1.21-0.38-1.81-0.57
		c-0.96,3.02-1.92,6.05-2.87,9.07c-6.31,0.59-9.33,0.73-12.52,8.01c-0.6-0.19-1.21-0.38-1.81-0.57c-0.19,0.6-0.38,1.21-0.57,1.81
		c0.6,0.19,1.21,0.38,1.81,0.57c-0.38,1.21-0.77,2.42-1.15,3.63c0.6,0.19,1.21,0.38,1.81,0.57c-2.52,5.85-5.04,11.71-7.56,17.56
		c-0.6-0.19-1.21-0.38-1.81-0.57c-1.15,3.63-2.3,7.25-3.45,10.88c-0.6-0.19-1.21-0.38-1.81-0.57c-0.57,1.81-1.15,3.63-1.72,5.44
		c-0.6-0.19-1.21-0.38-1.81-0.57c-0.57,1.81-1.15,3.63-1.72,5.44c-0.6-0.19-1.21-0.38-1.81-0.57c-1.53,4.84-3.07,9.67-4.6,14.51
		c-0.6-0.19-1.21-0.38-1.81-0.57c-7.34,11.19-8.74,42.32-8.26,51.27c0.6,0.19,1.21,0.38,1.81,0.57c-0.77,2.42-1.53,4.84-2.3,7.25
		c0.14,3.7,1.07,10.25,1.42,14.42c1.4-0.22,2.8-0.44,4.2-0.66c-0.19,0.6-0.38,1.21-0.57,1.81c0.6,0.19,1.21,0.38,1.81,0.57
		c-5.37,6.87-8.87,21.38-12.16,32.07c-1.4,0.22-2.8,0.44-4.2,0.66c-0.19,0.6-0.38,1.21-0.57,1.81c-3.82-0.54-7.64-1.09-11.46-1.63
		c-0.19,0.6-0.38,1.21-0.57,1.81c-3.02-0.96-6.05-1.92-9.07-2.87c-0.19,0.6-0.38,1.21-0.57,1.81c-4.23-1.34-8.46-2.68-12.7-4.02
		c-8.12-0.16-17.54-0.1-27.11-2.61c4.59-14.28,0-29.95-3.01-40.87c-1.02-0.99-2.04-1.98-3.05-2.96c0.93-5.03,1.86-10.06,2.78-15.08
		c-0.6-0.19-1.21-0.38-1.81-0.57c0.74-4.42,1.47-8.85,2.21-13.27c-0.6-0.19-1.21-0.38-1.81-0.57c0.38-1.21,0.77-2.42,1.15-3.63
		c-0.6-0.19-1.21-0.38-1.81-0.57c0.57-1.81,1.15-3.63,1.72-5.44c-1.02-0.99-2.04-1.98-3.05-2.96c-2.02-7.87,1.92-10.7-6.86-16.14
		c0.19-0.6,0.38-1.21,0.57-1.81c-3.44-1.75-6.87-3.51-10.31-5.26c0.19-0.6,0.38-1.21,0.57-1.81c-1.21-0.38-2.42-0.77-3.63-1.15
		c0.19-0.6,0.38-1.21,0.57-1.81c-3.02-0.96-6.05-1.92-9.07-2.87c-0.22-1.4-0.44-2.8-0.66-4.2c-3.02-0.96-6.05-1.92-9.07-2.87
		c-0.19,0.6-0.38,1.21-0.57,1.81c-1.21-0.38-2.42-0.77-3.63-1.15c-0.99,1.02-1.98,2.04-2.96,3.05c-1.62-1.18-3.24-2.36-4.87-3.54
		c-0.19,0.6-0.38,1.21-0.57,1.81c-3.32,0.64-4.85,0.11-9.64-1.06c0.35-3.21,0.71-6.43,1.06-9.64c-6.13-4.06-4.14-9.1-7.43-14.33
		c0.77-2.42,1.53-4.84,2.3-7.25c-2.01,0.03-4.01,0.06-6.02,0.09c-0.22-1.4-0.44-2.8-0.66-4.2c-1.21-0.38-2.42-0.77-3.63-1.15
		c0.57-1.81,1.15-3.63,1.72-5.44c-1.62-1.18-3.24-2.36-4.87-3.54c2.02-3.95,3.99-10.77,6.99-15.75c0.6,0.19,1.21,0.38,1.81,0.57
		c0.16-2.61,0.32-5.22,0.49-7.83c0,0,2.95-0.05,2.96-3.05c-1.02-0.99-2.04-1.98-3.05-2.96c1.53-4.84,3.07-9.67,4.6-14.51
		c-0.6-0.19-1.21-0.38-1.81-0.57c0.19-0.6,0.38-1.21,0.57-1.81c7.65-11.54,15.3-23.09,22.95-34.64c1.02,0.99,2.04,1.98,3.05,2.96
		c0.19-0.6,0.38-1.21,0.57-1.81c-0.42-1.29-2.88-1.2-0.66-4.2c0.6,0.19,1.21,0.38,1.81,0.57c0.19-0.6,0.38-1.21,0.57-1.81
		c1.81,0.57,3.63,1.15,5.44,1.72C733.57,467,730.24,460.97,742.52,462.06z M731.22,592.2c0.9,2.53-0.33,0.21,1.24,2.39
		c0,0-2.49,6.97-2.96,3.05c0.19-0.6,0.38-1.21,0.57-1.81c-0.6-0.19-1.21-0.38-1.81-0.57C730.5,591.97,728.5,593.61,731.22,592.2z"/>
	<path class="st0" d="M616.5,430.31c0.73,1.76,1.47,3.51,2.2,5.27c7.45-2.31,11.08,0.47,16.98,1.16c1.17-0.49,2.34-0.98,3.51-1.47
		c1.07,0.93,2.15,1.85,3.22,2.78c2.34-0.98,4.68-1.95,7.02-2.93c0.24,0.59,0.49,1.17,0.73,1.76c0.59-0.24,1.17-0.49,1.76-0.73
		c0.73,1.76,1.47,3.51,2.2,5.27c1.41,0.1,2.83,0.19,4.24,0.29c0.73,1.76,1.47,3.51,2.2,5.27c0.59-0.24,1.17-0.49,1.76-0.73
		c2.71,1.96,3.31,3.66,5.42,8.05c-2.43,3.6-2.17,3-0.58,8.49c2.61,0.65,0.16-0.33,2.49,1.02c2.91-2.47,2.62-4.05,7.02-2.93
		c0.24,0.59,0.49,1.17,0.73,1.76c1.17-0.49,2.34-0.98,3.51-1.47l-1.02,2.49c5.75,6.31,4.17,8.55,4.84,16.53
		c-0.59,0.24-1.17,0.49-1.76,0.73c2.15,1.85,4.29,3.71,6.44,5.56c-0.93,1.07-1.85,2.15-2.78,3.22c0.49,1.17,0.98,2.34,1.47,3.51
		c-0.59,0.24-1.17,0.49-1.76,0.73c-0.02,6.48,2.43,6.55,5.13,12.29c-1.51,1.32-3.02,2.64-4.53,3.95c-0.24-0.59-0.49-1.17-0.73-1.76
		c-0.59,0.24-1.17,0.49-1.76,0.73c0.24,0.59,0.49,1.17,0.73,1.76c-2.42,3.65-2.14,4.19-7.31,7.17c0.49,1.17,0.98,2.34,1.47,3.51
		c-1.17,0.49-2.34,0.98-3.51,1.47c-0.1,1.41-0.19,2.83-0.29,4.24c-2.58,0.39-5.17,0.78-7.76,1.17c-0.24-0.59-0.49-1.17-0.73-1.76
		c-0.59,0.24-1.17,0.49-1.76,0.73c0.24,0.59,0.49,1.17,0.73,1.76c-2,0.15-4,0.29-6,0.44c0.24,0.59,0.49,1.17,0.73,1.76
		c-1.17,0.49-2.34,0.98-3.51,1.47c0.24,0.59,0.49,1.17,0.73,1.76c-2.1,1.56-4.19,3.12-6.29,4.69c0.24,0.59,0.49,1.17,0.73,1.76
		c-1.76,0.73-3.51,1.47-5.27,2.2c0.24,0.59,0.49,1.17,0.73,1.76c-7.51,1.76-15.02,3.52-22.53,5.28c-0.49-1.17-0.98-2.34-1.47-3.51
		c-1.37,2.31-0.35-0.12-1.02,2.49c-3.56,6.29-7.12,12.59-10.67,18.88c0.39,2.59,0.78,5.17,1.17,7.76c-1.61,2.73-3.22,5.47-4.83,8.2
		c0.15,2,0.29,4,0.44,6c-1.17,0.49-2.34,0.98-3.51,1.47c0.83,5.27-0.67,6.62-1.6,10.98c-0.59,0.24-1.17,0.49-1.76,0.73
		c1.22,2.93,2.44,5.85,3.66,8.78c-0.59,0.24-1.17,0.49-1.76,0.73c0.29,4,0.59,8,0.88,12c-0.59,0.24-1.17,0.49-1.76,0.73
		c0.39,2.58,0.78,5.17,1.17,7.76c-0.93,1.07-1.85,2.15-2.78,3.22c0.49,1.17,0.98,2.34,1.47,3.51c-0.59,0.24-1.17,0.49-1.76,0.73
		c0.15,2,0.29,4,0.44,6c-0.93,1.07-1.85,2.15-2.78,3.22c0.49,1.17,0.98,2.34,1.47,3.51c-1.27,1.9-2.53,3.81-3.8,5.71
		c0.49,1.17,0.98,2.34,1.47,3.51c-0.93,1.07-1.85,2.15-2.78,3.22c0.49,1.17,0.98,2.34,1.47,3.51c-1.27,1.9-2.53,3.81-3.8,5.71
		c-1.52,6.87,2.54,8.71-4.38,14.2c-0.92,2.03-18.47,9.64-22.83,9.52c-1.07-0.93-2.15-1.85-3.22-2.78c-1.17,0.49-2.34,0.98-3.51,1.47
		c-4.06-6.1-16.9-13.53-22.84-15.21c0.08-6.55,1.41-13.42,2.19-19.47c-0.49-1.17-0.98-2.34-1.47-3.51c1.27-1.9,2.53-3.81,3.8-5.71
		c-0.39-2.58-0.78-5.17-1.17-7.76c0.93-1.07,1.85-2.15,2.78-3.22c-0.73-1.76-1.47-3.51-2.2-5.27c0.93-1.07,1.85-2.15,2.78-3.22
		c-0.73-1.76-1.47-3.51-2.2-5.27c0.59-0.24,1.17-0.49,1.76-0.73c-0.73-1.76-1.47-3.51-2.2-5.27c0.59-0.24,1.17-0.49,1.76-0.73
		c-1.95-4.68-3.91-9.36-5.86-14.05c0.93-1.07,1.85-2.15,2.78-3.22c-0.49-1.17-0.98-2.34-1.47-3.51c0.93-1.07,1.85-2.15,2.78-3.22
		c-0.49-1.17-0.98-2.34-1.47-3.51c0.59-0.24,1.17-0.49,1.76-0.73c-1.86-6.1-3.71-12.19-5.57-18.29c-0.59,0.24-1.17,0.49-1.76,0.73
		c-0.24-0.59-0.49-1.17-0.73-1.76c0.59-0.24,1.17-0.49,1.76-0.73c-0.98-2.34-1.95-4.68-2.93-7.02c2.52-0.94-0.14,1.62,2.49,1.02
		c2.89,2.69,0.29-4.24,0.29-4.24c-4.55-2.09-8.08-13.93-10.55-20.34c-9.77,3.9-10.38,0.38-18,1.33c-0.49-1.17-0.98-2.34-1.47-3.51
		c-5.38,0.75-4.13,1.15-7.47-3.07c-0.59,0.24-1.17,0.49-1.76,0.73c-0.98-2.34-1.95-4.68-2.93-7.02c-0.59,0.24-1.17,0.49-1.76,0.73
		c-4.97-3.04-6.76-2.59-10.4-10.09c3.82-5.66-0.42-5.65,5.85-10.69c-1.86-6.1-3.71-12.19-5.57-18.29c2.08-2.69,2.61-4.11,3.07-7.47
		c2-0.15,4-0.29,6-0.44c-1.68-11.86,9.15-17.05,16.23-25.33c-0.24-0.59-0.49-1.17-0.73-1.76c1.17-0.49,2.34-0.98,3.51-1.47
		c-0.24-0.59-0.49-1.17-0.73-1.76c1.41,0.1,2.83,0.19,4.24,0.29c0.44-2.24,0.88-4.49,1.31-6.73c1.76-0.73,3.51-1.47,5.27-2.2
		c-0.24-0.59-0.49-1.17-0.73-1.76c4.86-4.15,9.35-1.06,13.02-3.37c-0.24-0.59-0.49-1.17-0.73-1.76c4.1-1.71,8.19-3.42,12.29-5.13
		c0.24,0.59,0.49,1.17,0.73,1.76c1.17-0.49,2.34-0.98,3.51-1.47c0.24,0.59,0.49,1.17,0.73,1.76c3.27-2.05,6.54-4.1,9.8-6.15
		c0.24,0.59,0.49,1.17,0.73,1.76c1.17-0.49,2.34-0.98,3.51-1.47c0.24,0.59,0.49,1.17,0.73,1.76c2.93-1.22,5.85-2.44,8.78-3.66
		c1.07,0.93,2.15,1.85,3.22,2.78c1.51-1.32,3.02-2.64,4.53-3.95c1.9,1.27,3.81,2.53,5.71,3.8c2.93-1.22,5.85-2.44,8.78-3.66
		c1.07,0.93,2.15,1.85,3.22,2.78c0.93-1.07,1.85-2.15,2.78-3.22c0.24,0.59,0.49,1.17,0.73,1.76c1.17-0.49,2.34-0.98,3.51-1.47
		c1.07,0.93,2.15,1.85,3.22,2.78c1.17-0.49,2.34-0.98,3.51-1.47c0.24,0.59,0.49,1.17,0.73,1.76
		C612.5,430.61,614.5,430.46,616.5,430.31z"/>
</g>
</svg>
