<?xml version="1.0" encoding="utf-8"?>
<!-- Generator: Adobe Illustrator 24.1.3, SVG Export Plug-In . SVG Version: 6.00 Build 0)  -->
<svg version="1.1" id="圖層_1" xmlns="http://www.w3.org/2000/svg" xmlns:xlink="http://www.w3.org/1999/xlink" x="0px" y="0px"
	 viewBox="0 0 1200 1200" style="enable-background:new 0 0 1200 1200;" xml:space="preserve">
<style type="text/css">
	.st0{fill-rule:evenodd;clip-rule:evenodd;}
</style>
<g>
	<path d="M630.54,597.98c-0.02,0.07-0.03,0.12-0.03,0.12S630.52,598.05,630.54,597.98z"/>
	<path d="M613.51,435.7c-9.75,2.5-67.08,15.28-85.69,19.42c-0.49-0.9-0.78-1.43-0.78-1.43s-105.5,23.84-113.5,26.6
		c-8,2.76-30.12,1.13-30.12,1.13s-6.03,3.85-12.59,4.08c-6.56,0.23-18.77-2.48-18.77-2.48l-5.3,5.41c0,0-18.09,2.63-19.86,2.46
		c-1.76-0.18-13.76-1.98-14.71-1.48c-0.94,0.5-4.33,4.62-4.33,4.62s-20.3,3.9-25.89,6.31c-5.59,2.41-14.42,4.49-18.68,5.55
		s-12.71,5.26-16.86,8.11c-4.15,2.85-6.24,5.91-6.24,5.91s-3.38,1.14-5.32-0.24c-1.94-1.38-6.15-3.89-11.67-5.04
		c-5.53-1.15-11.95,3.55-16.18,7.28c-4.24,3.73-4.45,8.76-4.45,8.76c-3,0.29-6.24,5.91-6.24,5.91s-7.12,2.85-13.62,5.46
		c-6.5,2.61-22.18,4.9-32.1,5.98c-9.91,1.08-15.71,2.58-19.09,3.72c-3.38,1.14,2.62,0.56,7.97,0.51c5.35-0.06,17.21,0.25,22-0.16
		c4.79-0.41,9.18,0.33,9.18,0.33l0.91,2.77c0,0,3.44-1.73,5.62-2.7c2.18-0.97,10.36-2.52,10.36-2.52l1.53,2.53
		c0,0-2.91,2.38-5.74,3.88c-2.83,1.5-8.92,8.91-11.1,9.88c-2.18,0.97-10.94-0.51-14.5-0.57c-3.56-0.06-11.95,3.55-14.83,5.64
		c-2.88,2.09-9.24,6.2-9.24,6.2s-1.79-2.85-3.29-5.68c-1.5-2.82-0.97-5.15-0.97-5.15l-2.35-0.24c0,0-0.09,3.85-0.5,5
		c-0.41,1.15,0,0-1.82,0.41c-2.97,0.67,1.5,2.83,1.5,2.83s-1.47,2.82-3.5,2.32c-2.03-0.5-15.12-3.31-18.73-5.75
		c-3.62-2.44-13.55-21.86-17.07-25.19C83.4,542.71,74.09,529,71.91,527c-2.18-2-1.44-3.41-1.44-3.41l-1.44-0.44
		c0,0-0.09,3.85,2.52,7.38c2.62,3.53,5.76,10.68,9.46,15.21c3.7,4.53,9.05,13.39,10.78,16.83s8.29,12.12,13.11,14.39
		c4.82,2.27,22.03,5.49,22.03,5.49l-0.92,6.15c0,0-5.41,0.64-7.56,1.32c-2.15,0.68-1.8,3.09-1.8,3.09s-3.29,0.26-7.53,1.02
		c-4.24,0.76-11.86,2.67-11.86,2.67s9.27-0.55,14.56-0.02c5.29,0.53,9.27-0.55,9.27-0.55s-2.71,3.29-5.06,3.06
		c-2.35-0.24-6.53,2.91-9.68,4.67c-3.15,1.76-4.74,2.79-3.59,3.2c1.15,0.41,6.21,0.33,5.41,2.33c-0.8,2-4.12,5.53-4.12,5.53
		s4.03-1.67,6.68-4.38c2.65-2.7,5.94-2.97,5.94-2.97s-1.68,1.91-1.91,4.26c-0.24,2.35-1.83,9.32-1.83,9.32s9.82-0.2,12.53-0.52
		c2.71-0.32,4.3-4.32,7.18-6.41c2.88-2.09,5.47-1.23,5.47-1.23s-1.09,4.94-2.68,8.94c-1.59,4-0.18,7.71-0.18,7.71
		s7.68-2.49,12.77-2.87s7.03,1.01,7.03,1.01s0.18-1.76,2.47-3.91c1.17-1.09,5.5-2.1,9.47-2.83c-3.75,6.26-8.15,15.54-9.91,26.78
		c-2.11,13.43,1.33,28.18,4.96,37.26c3.63,9.08,7.72,17.45,13.19,27.1s15.4,23.91,33.82,36.76c18.41,12.84,31.58,17.58,40.09,19.58
		c8.52,1.99,20.3,1.67,20.3,1.67s-14.07,0.48-38.71-10.72c-24.64-11.2-44.37-29.86-56.13-52.27
		c-11.77-22.41-16.26-34.23-15.72-54.64c0.23-8.57,3.89-20.08,11.12-32.02c2.45-0.39,4.27-0.62,4.27-0.62s11.06-0.67,13.12-0.46
		c2.06,0.21,5.83-1.79,8.53-2.11c2.71-0.32,17.39-1.52,20.65-1.49c3.26,0.03,10.44-0.43,10.44-0.43l1.12-2.26c0,0,6-0.58,6.91-0.79
		c0.91-0.21-0.8,7.94-0.8,7.94s-6.94,1.08-10.88,1.88c-3.94,0.79-16.74,3.96-20.21,5.99c-3.47,2.03-8.89,5.64-8.89,5.64
		s-5.53-1.15-7.5,0.73c-1.97,1.88-2.09,6.03-2.09,6.03s2.12-3.35,3.74-4.67s3.03-0.59,5.09-0.38c2.06,0.21,2.62,3.53,2.62,3.53
		s0.03-3.27,2.47-3.91c2.44-0.65,2.91,3.56,2.91,3.56s0.06-3.56,1.36-4.62c1.29-1.06,3.7,4.53,3.7,4.53s0.03-3.27,0.44-4.41
		c0.41-1.15,2.59-2.12,3.8-2.29c1.21-0.18,1.64,4.33,2.32,3.5c0.68-0.82,2.24-1.56,2.24-1.56l1.12-2.26c0,0,3.29-0.26,4.44,0.15
		c1.15,0.41,2.06,3.18,2.06,3.18s1.68-4.88,3.06-6.82c1.38-1.94,3.12,1.5,3.12,1.5l3.24,0.33c-0.15,4.44-4.77,12-6.31,15.41
		c-1.53,3.41-5.45,9.85-6.63,12.7c-1.18,2.85-2.18,6.91-2.18,6.91l2.44,2.33c0,0,3.33-6.5,4.07-7.91c0.74-1.41,7.89-13.47,9.31-15.7
		c1.41-2.23,8.75-13.08,8.75-13.08l2.15-0.68l1.17,3.09c0,0,0.59-2.91,0.68-3.79c0.09-0.88,4.62-1.61,4.62-1.61l6.24,0.03
		c0,0,0.85,3.35,0.08,5.06c-0.77,1.71-1.15,2.56-1.15,2.56s0.85,0.38,2.21-1.26c1.77-2.15,1-7.03,1-7.03s3.38-1.14,6.12-1.76
		c2.74-0.62,12.38,0.95,14.85,0.01c2.47-0.94,6.53,0.06,6.53,0.06s-10.59,4.88-12.01,7.11c-1.41,2.23-8.24,8.08-11.33,12.23
		c-3.09,4.15-10.54,10.23-12.19,11.85c-1.65,1.62-3.74,7.65-3.74,7.65s4.06-1.97,5.86-2.08c1.79-0.12,6.15,0.92,6.15,0.92
		s5.65-5.97,8.04-9c2.38-3.03,11.19-16.7,11.19-16.7l3.94-0.79c0,0,0.29,3,0.47,4.21c0.18,1.21,1.73,3.44,1.73,3.44s1.3-7,3.42-7.38
		c2.12-0.38,4-1.38,5.86-2.08c1.85-0.7,4.44,0.15,4.44,0.15l-4.47,3.11c0,0-0.62,3.21,0.38,5.09c0.28,0.54,0.89,0.81,1.65,0.93
		c-3.3,4.38-6.57,8.39-8.93,10.55c-7.1,6.49-21.7,23.58-22.9,24.22c-1.2,0.64-8.97,10.09-9.69,13.43c-0.06,0.28-0.08,0.48-0.08,0.65
		c-2.35,1.26-4.29,2.35-5.21,2.99c-2.85,1.99-3.94,5.29-3.94,5.29c1.24-1.01,3.6-1.91,7.24-4.2c3.64-2.29,17.53-8.47,17.53-8.47
		l-17.72,17.92c0,0,6.23-1.65,10.1-6.18c3.87-4.54,13.33-11.92,16.59-14.25c3.27-2.32,18.28-12.18,18.28-12.18
		s-11.38,18.94-15.93,30.23c-4.55,11.29-4.44,21.53-4.44,21.53s2.82-9.19,8.23-21.53c5.41-12.34,18.14-29.63,24.23-37.35
		c6.08-7.72,14.42-22.8,21.82-28.5c6.84-5.27,10.91-5.63,12.91-7.91c0.89,0.24,1.63,0.39,2.05,0.23c1.24-0.47,5.12-6.61,5.12-6.61
		s2.85,0.06,6.74,0.12c-0.39,3.59-0.76,8.33-1.5,11.04c-1.2,4.43,4.84,0.87,11.52-1.49c6.68-2.36,19.18-6.03,19.18-6.03
		s-6.42,11.1-11.98,21.15c-5.56,10.05-15.62,23.44-15.18,30.31c0.45,6.87-2.81,50.5-1.58,57.07c1.23,6.57,2.11-5.85,2.78-8.82
		c0.68-2.96,1.68-39.24,3.41-45.13c1.73-5.89,10.52-21.68,10.52-21.68s-3.84,19.32-5.01,27.16c-1.17,7.84-1.3,31.7-0.25,40.15
		c1.04,8.44,5.01,29.31,5.01,29.31s-3.36-26.87-2.83-32.12c0.53-5.25,2.24-33.5,5.25-44.57s10.71-27.34,10.71-27.34
		s23.57-12.03,31.79-14.61c8.22-2.58,27.51-9.74,27.51-9.74s-3.42,11.4-2.45,16.81c0.97,5.4,1.76,5.1,3.26,1.47
		c1.5-3.64,6.23-5.44,6.23-5.44s-1.57-6.98,0.31-10.58c0.69-1.31,2.49-3.73,4.51-6.26c2.41,0.24,5.35,0.54,7.19,0.72
		c3.53,0.36,9.86-3.46,10.74-3.38c0.88,0.09-6.74,7.94-6.95,10c-0.21,2.06,1.7,3.74,3.79,3.65c2.09-0.09,5.27-2.14,8.95-6.23
		c3.68-4.09,8.89-5.64,11.77-7.73c1.2-0.87,3.78-2.11,6.67-3.54c1.05,5.03,2.69,10.85,5,15.31c4.76,9.2,9.82,19.18,14.58,20.8
		c4.76,1.62,14.11-0.85,14.11-0.85l8.74-4.05l1.7-9.3c0,0-7.73,5.28-10.66,8.02c-2.93,2.74-5.71,3.97-8.48,1.42
		c-2.77-2.55-5.54-12.69-8.54-16.78c-2-2.73-3.08-14.64-3.57-22.27c1.55-0.99,3.57-2.01,5.79-3.05c0.52,0.45,0.98,0.92,1.33,1.42
		c1.99,2.85,14.55,17.38,19.34,22.41c4.8,5.03,25.76,18.89,25.76,18.89s-9.56-18.02-13.27-22.56c-3.71-4.54-9.38-4.73-10.24-7.47
		c-0.86-2.74-1.04-8.44,1.4-10.09s5.41-12.34,5.41-12.34l2.73,10.51c0,0,6.64-1.98,11.78-4.12c5.14-2.14,13.89-9.97,13.89-9.97
		l3.11,2.97c0,0-2.79,16.39-2.64,18.68c0.15,2.29,15.15,15.17,16.91,16.48c1.76,1.31,13.06,2.07,16.32-0.25
		c3.27-2.32,4.84-6.71,4.84-6.71l-1.69-2.06c0,0,5.63,0.58,6.19-5.06c0.19-1.88-1.57-3.19-1.57-3.19s1.76,5.1-2.11,5.85
		c-3.87,0.75-10.09-1.4-10.09-1.4s-5.25-8.11-4.79-12.61c0.45-4.5-0.24-27.69-0.24-27.69l7.69,2.67l-2.03,8.89l5.55-2.47l-4.73,9.38
		l11.34-7.2l-2.45,9.23c0,0,10.7-8.4,13.03-8.92c2.17-0.49,0.3,6.5,0.03,7.46c0.25-0.89,2.13-7.06,6.2-9.11
		c4.39-2.21,15.24-4.53,15.24-4.53l12.68,9.61l6.08-3.94c0,0,0.36,15.2,0.21,20.49c-0.15,5.29,19.01,18.21,23.62,21.33
		c4.61,3.12,23.67,9.58,27.61,8.09c3.94-1.5,22.75-11.35,22.75-11.35s7.98,11.04,12.15,14.87c4.16,3.83,11.36,7.59,16.28,3.91
		c4.92-3.67,17.91-12.22,19.14-13.23c1.24-1.01,1.62-12.34,1.62-12.34s-1.84,3.23-6.87,4.23c0,0,2.22-3.19,3.08-8.03
		c0,0-6.87,4.23-8.07,4.87c-1.2,0.64-1.84-4.35-1.84-4.35l-4.05,2.62l-5.22,6.67l-12.01-1.21c0,0-1.49-11.52-2.54-12.38
		c-1.05-0.86,5.82-8.89,5.82-8.89s10.47,1.43,13.84,1.77c3.38,0.34,7.21-3.82,7.21-3.82l1.72,9.27c0,0,3.12-8.4,3.76-10.99
		c0.64-2.59,6.01-14.55,6.01-14.55s13.95,12.02,19.43,10.29c5.48-1.72,13.47-2.05,20.15-0.62c6.68,1.43,14.33,4.47,21.87,1.07
		c7.54-3.41,9.08-3.63,11.71-3.37c2.63,0.26,49.59,11.82,71.25,3.76c0,0,6.63,16.96,33.15,20.77c0,0,61.88,40.34,80.82,47.93
		c18.94,7.59,42.46,22.47,47.94,20.74c5.48-1.72-0.1-14.03,2.23-18.35c2.33-4.31,4.29-12.45-0.03-14.78
		c-4.31-2.33-14.44-3.35-14.33-4.47c0.11-1.13-0.71-4.24-0.71-4.24s9.27-1.72,10.93-10.65c1.66-8.93,3.8-18.94,4.22-23.07
		s3.8-11.37,3.8-11.37l4.96-4.05c0,0,10.91,8.3,13.77,2.52l2.59-6.94c0,0-32.52-11.99-49.25-18.98
		c-16.73-6.99-81.72-46.51-89.53-48.05c-7.8-1.54-32.9-12.03-37.58-14.4c-4.69-2.37-80.08-36.49-87.92-37.66
		c-7.84-1.17-37.7-9.48-42.84-11.14c-5.14-1.65-19.09-6.09-34.02-8.35C772.62,451.34,625.18,432.7,613.51,435.7z M268.57,684.81
		c-2.41,1.56-7.9,4.42-12.55,6.9c1.33-1.5,3.23-3.95,5.31-6.49c4.32-5.25,11.49-8.7,13.44-9.26
		C276.72,675.4,272.62,682.19,268.57,684.81z M596.19,617.76c1.93,0.95,6.5,3.18,6.5,3.18l1.92,3.48l-1.05,0.4
		c-0.75-0.08-7.9,0.72-7.9,0.72s-3.85-4.43-5.2-6.08c-1.35-1.65-0.37-3.83-0.37-3.83S594.26,616.81,596.19,617.76z M741.88,563.46
		c2.6,1.78,6.27,5.43,8.28,5.63s6.83,4.98,6.83,4.98s-11.09,9.75-13.89,12.5c-2.8,2.75-5.59,10.3-5.59,10.3s0,0-1.05,2.93
		c-1.05,2.93,0.64,18.76,0.64,18.76l-2.55,0.25l0.8-5.48c0,0-4.35,3.1-4.55,0.05c-0.2-3.05-2.2-5.78-2.2-5.78l-4.11,10.7
		c0,0-11.96,0.82-16.63-0.41c-4.68-1.23-10.15-7.09-10.52-8.39l-5.17-6.33c0,0,2.88,1.55,3.6,1.88c0.73,0.33,0.71-7,1.88-8.65
		c1.18-1.65,8.16-8.27,8.16-8.27s5.43-1.22,8.66-0.64c3.23,0.58,6.6,2.18,9.46-1.07c2.85-3.25,4.11-8.18,7.16-8.37
		c3.05-0.2,6.43-6.17,6.43-6.17S739.28,561.68,741.88,563.46z"/>
</g>
</svg>
