<?xml version="1.0" encoding="utf-8"?>
<!-- Generator: Adobe Illustrator 24.1.3, SVG Export Plug-In . SVG Version: 6.00 Build 0)  -->
<svg version="1.1" id="圖層_1" xmlns="http://www.w3.org/2000/svg" xmlns:xlink="http://www.w3.org/1999/xlink" x="0px" y="0px"
	 viewBox="0 0 1200 1200" style="enable-background:new 0 0 1200 1200;" xml:space="preserve">
<style type="text/css">
	.st0{fill-rule:evenodd;clip-rule:evenodd;}
</style>
<g>
	<path d="M728.43,512.88c-15.2,0.83-22.99,2.97-23.92,3.06c-0.93,0.09-3.34-1.21-14.65-1.21c-11.31,0-16.96,0-24.75,0.65
		c-7.79,0.65-13.9,1.85-13.9,1.85s-0.56-0.56-8.53-1.21c-7.97-0.65-20.95-1.48-22.71-1.3c-1.76,0.19-1.76,0.19-1.76,0.19l-2.78,2.6
		c0,0-2.78-1.95-5.56-2.13c-2.78-0.19-5.65,0.46-8.9,1.48c-3.24,1.02-6.49,2.41-6.49,2.41s-4.54,7.69-5.28,9.27
		c-0.74,1.58-1.02,2.69-1.02,2.69s-1.21-2.97-4.91-3.62c-3.71-0.65-21.6-4.26-29.2-4.36c-7.6-0.09-37.63-2.22-42.45-1.95
		c-4.82,0.28-11.59-0.19-12.42,0.28c-0.83,0.46-2.5,1.3-2.5,1.3s-13.26-0.09-18.26-0.19c-5.01-0.09-9.08-1.48-10.85-0.93
		c-1.76,0.56-2.78,1.67-3.71,1.67s-16.78-0.56-16.78-0.56s-2.97-1.3-4.26-1.21c-1.3,0.09-0.56,2.87-0.56,2.87s-5.01-0.37-6.95-0.56
		s-4.26-0.56-5.38-0.65c-1.11-0.09-5.28-0.74-6.4,0.09c-1.11,0.83-2.69,2.32-2.69,2.32s-7.42-1.95-9.64-1.21
		c-2.23,0.74-4.08,2.97-5.01,3.52c-0.93,0.56-2.32,0.09-4.54,0.74c-2.22,0.65-6.3,2.22-6.3,2.41c0,0.19,0.74-4.45-0.93-7.6
		s-2.97-3.8-4.17-4.82c-1.21-1.02-2.5-2.32-2.97-2.78c-0.46-0.46,1.95,6.12,2.32,6.77c0,0-14,1.85-16.69,2.13
		c-2.69,0.28-6.67,2.04-8.62,3.15s-4.26,1.76-2.32,1.58c1.95-0.19,5.01-0.19,6.21-0.56c1.21-0.37,7.14-2.04,8.99-2.32
		c1.85-0.28,12.61-0.28,12.61-0.28s-0.37,10.2-0.28,12.05c0.09,1.85-0.19,2.32-0.19,2.32s-2.69-1.95-2.41-0.37
		c0.28,1.58,0.46,2.6,0.93,4.73c0.46,2.13,0.37,3.89,0.46,4.45c0.09,0.56-2.69-0.93-3.34,0.19c-0.65,1.11-3.8,1.58-5.19,1.67
		c-1.39,0.09-1.58,1.3-3.71,1.95c-2.13,0.65-3.34,0.93-3.89,0.56c-0.56-0.37-1.39,2.22-1.39,2.22l-1.85,0.09l-0.74,1.95
		c-2.97-0.19-7.04-1.67-8.71-1.67c-1.67,0-4.45,0.74-4.45,0.74l-8.9,3.15l-24.1-5.38c0,0-23.54-5.01-26.14-5.56
		s-15.94-3.52-17.24-3.52s-2.04-0.19-2.04-0.19s-2.6-1.48-3.89-1.67s-2.6,0.19-3.15,0c-0.56-0.19-3.34-2.22-3.34-2.22
		s2.04,3.34,3.34,3.89c1.3,0.56,5.19,2.41,5.19,2.41s-0.19,2.04,0.93,2.04c1.11,0,10.2-0.19,13.16,0.74
		c2.97,0.93,12.61,2.04,15.76,2.78s18.54,4.63,18.54,4.63l18.17,4.26l-7.97,4.45c0,0-2.22-0.19-2.04,0.93
		c0.19,1.11-3.15,2.04-4.45,2.41c-1.3,0.37-7.42,2.41-9.64,2.22c-2.23-0.19-4.45-1.11-4.45-1.11l0.19,1.67c0,0-4.45,0.19-5.56,1.48
		c0,0-6.12,1.3-8.16,2.41c-2.04,1.11-6.12,2.6-6.12,2.6s-8.34,2.78-10.75,3.52c-2.41,0.74-12.24,2.6-19.47,3.34
		c-7.23,0.74-16.5-0.37-25.77,0.19c-9.27,0.56-21.13,1.3-31.52,5.56c0,0-15.39-2.6-23.54-2.78c0,0-8.9-4.26-17.98-13.35
		c-9.08-9.08-12.98-17.61-12.98-17.61s0.19,1.67,0.09,2.13c-0.09,0.46-0.37,1.11-0.37,1.11s5.65,10.1,10.57,15.11
		c4.91,5.01,15.02,12.33,15.02,12.33s-6.3,0.56-7.23,0.65c-0.93,0.09-5.84,2.04-7.6,2.87c-1.76,0.83-16.78,7.6-18.17,8.44
		c-1.39,0.83-3.43,2.41-3.43,2.41s6.86-2.87,8.34-3.52c1.48-0.65,17.8-7.42,19.1-7.97c1.3-0.56,14.83-0.28,14.83-0.28l12.33,6.4
		c0,0-10.66,7.42-14.37,9.92c-3.71,2.5-12.88,10.66-13.44,11.4c-0.56,0.74-4.73,5.65-5.01,6.3c-0.28,0.65,0.37,1.11,0.37,1.11
		s0.56-0.37,1.11-0.56c0.56-0.19,0.93-0.19,1.21-0.83c0.28-0.65,4.36-5.38,4.36-5.38s9.27-8.9,12.51-10.85
		c3.24-1.95,15.29-10.01,15.29-10.01s10.1,4.45,11.03,4.91c0.93,0.46,2.22,1.67,2.22,1.67s-4.08,0.74-5.38,1.02
		c-1.3,0.28-11.87,2.69-14,3.34c-2.13,0.65-4.64,0.74-6.67,0.93c-2.04,0.19-2.22,0.37-2.69,0.37c-0.46,0-0.83,1.3,0,1.67
		c0.83,0.37,3.71,0.46,5.65,0.28c1.95-0.19,5.19-0.74,6.21-1.11c1.02-0.37,11.68-2.69,14.74-3.24c3.06-0.56,8.16,0,10.1-0.09
		c0,0,8.62,4.17,22.25,8.99c13.63,4.82,20.76,6.77,29.48,7.6s30.31,0,30.31,0s-0.19,1.39-1.02,2.13c-0.83,0.74-2.78,2.04-2.78,2.04
		l6.21-1.58c0,0,5.65,0.28,7.14-0.19c1.48-0.46,12.61-3.15,12.61-3.15l13.35-2.41l-1.2-2.6l-1.67-1.67l7.97-2.22l1.76,1.21
		l8.71,7.51c0,0-14.74,5.56-16.31,6.49c-1.58,0.93-3.61,2.13-3.8,2.41c-0.19,0.28,1.48,0.74,1.48,0.74s-17.89,4.17-21.78,4.73
		c-3.89,0.56-13.35,2.41-13.35,2.41s-1.39-0.42-6.4,3.34c-2.6,1.95-3.8,3.62-4.54,4.73c-0.74,1.11-0.74,1.11-0.74,1.11
		s-8.06,9.55-9.73,11.59c-1.67,2.04-6.58,6.67-7.51,8.62c-0.93,1.95-1.48,5.75-1.48,5.75s1.48-2.32,2.22-2.97
		c0.74-0.65,2.32-1.76,3.06-2.97c0.74-1.21,4.45-5.65,5.38-6.21c0.93-0.56,1.76-0.65,1.76-0.65s-6.03,7.23-6.77,8.25
		c-0.74,1.02-2.6,2.87-3.06,3.8c-0.46,0.93-0.83,1.21-1.02,1.67c-0.19,0.46,1.48,0,2.13-0.65c0.65-0.65,7.42-7.04,8.81-8.71
		c1.39-1.67,7.79-8.34,9.64-10.57c1.85-2.22,5.19-6.3,5.75-6.95c0.56-0.65,3.62-1.39,4.17-1.76c0.56-0.37,4.82-1.48,7.04-2.87
		c2.23-1.39,9.64-3.24,13.44-4.54c3.8-1.3,12.14-3.15,13.63-3.34c1.48-0.19,3.43-0.19,3.62-0.09c0.19,0.09-0.09,1.48-0.09,1.48
		s-3.24,1.48-4.26,1.67c-1.02,0.19-3.52,2.13-5.01,2.78c-1.48,0.65-2.97,1.39-3.99,2.22c-1.02,0.83-1.85,1.39-3.24,2.04
		c-1.39,0.65-2.87,1.21-3.43,2.41c-0.56,1.21-1.95,2.32-1.95,2.32s-10.29,7.42-11.4,9.83c-1.11,2.41-1.85,6.03-1.58,6.77
		c0.28,0.74,0.83,0.19,1.02-0.09c0.19-0.28,2.5-1.48,3.71-2.6c1.21-1.11,4.45-3.62,5.38-4.63c0.93-1.02,2.6-1.85,2.6-1.85
		s-0.09,2.41,0.19,2.87c0.28,0.46,1.3,0.65,1.3,0.93s0,1.39,0,1.39s0.65-1.21,1.11-1.76c0.46-0.56,2.32-0.56,2.32-0.56
		s-1.48,1.85-1.85,2.69c-0.37,0.83-3.06,2.69-3.06,3.89s1.2,0.37,1.2,0.37s1.67-1.95,2.22-2.69c0.56-0.74,1.76-1.85,1.76-1.85
		s-0.28,2.13-0.74,2.69c-0.46,0.56,1.3-1.11,1.85-2.13c0.56-1.02,3.15-2.5,3.15-2.5s-1.11,2.13-2.32,4.17c0,0,3.89-2.97,4.73-4.17
		c0.83-1.21,1.67-1.21,1.67-1.21l0.46,1.3c0,0,1.11-0.56,1.48-1.58c0.37-1.02,5.28-3.43,6.21-4.17c0.93-0.74,5.38-3.34,5.65-3.89
		c0.28-0.56-0.19,1.85-0.74,2.5c-0.56,0.65-5.75,5.65-6.67,6.4c-0.93,0.74,4.36-2.41,5.38-3.34c1.02-0.93,6.03-3.71,8.81-4.82
		c2.78-1.11,14-5.1,14-5.1s8.25-2.97,9.64-3.43c0,0-13.63,8.62-15.39,9.27c-1.76,0.65-2.5,1.76-3.99,2.6
		c-1.48,0.83-3.34,1.3-4.45,2.32c-1.11,1.02-1.67,2.32-2.69,3.99c-1.02,1.67-5.28,4.73-5.28,6.03c0,1.3,0.28,3.71,0.28,3.71
		s1.67-1.39,2.78-2.41c1.11-1.02,2.78-1.95,3.24-2.04c0.46-0.09,0.09,1.58-0.56,2.5c-0.65,0.93-0.65,0.93-0.65,0.93
		s-0.65,2.32-1.02,2.97c0,0,1.39,0.74,3.8-0.83c2.41-1.58,2.41-1.58,2.41-1.58s3.89-3.15,4.63-4.45c0.74-1.3,1.3-2.69,2.13-3.43
		c0,0,1.21,0,2.32-1.02c1.11-1.02,11.22-8.16,12.61-9.27c0,0-2.5,5.19-2.78,6.86c-0.28,1.67-0.56,3.43-0.28,3.43
		c0.28,0,2.69,0.09,4.63-0.74c1.95-0.83,4.45-1.95,5.38-2.69c0.93-0.74,5.93-3.99,5.93-3.99l15.57,14.28c0,0,1.76,2.32,2.32,2.41
		c0.56,0.09,1.21-0.74,1.85-1.11c0.65-0.37,1.3-1.48,1.3-1.48l-16.78-15.94l6.49-6.21l8.9-3.24l5.38-0.65l10.2,4.63
		c0,0,1.95,1.02,5.01,1.67c3.06,0.65,30.68,11.22,30.68,11.22s2.13,2.32,5.84,1.85c3.71-0.46,29.66-4.36,29.66-4.36
		s0.37,1.39,2.6,1.02c2.22-0.37,4.73-1.48,5.01-1.48s29.38-3.52,33.65-4.73c4.26-1.21,9.73-1.3,9.73-1.3l3.15,1.48l-1.48-2.22
		l5.01,0.28l4.54,1.58l1.39-1.39l-2.87-1.3l2.78-1.76c0,0,2.13-0.37,3.8-2.13c1.67-1.76,19.47-9.36,19.47-9.36l13.53-6.58
		c0,0-10.47,10.1-10.57,13.9c-0.09,3.8,0.83,8.9,9.92,11.96c0,0,0.37,4.73,5.38,6.12c5.01,1.39,9.83,0,10.75-1.21
		c0.93-1.21,2.04-3.06,2.32-4.36c0.28-1.3,0.46-5.75,0.46-5.75s2.69-2.32,3.24-4.82c0,0,4.26,8.25,7.69,10.2
		c3.43,1.95,5.38,3.06,8.43,2.87c3.06-0.19,10.66-4.73,11.77-7.79c1.11-3.06,2.41-4.08,2.41-4.08s-1.3-6.12-1.48-7.05
		c-0.18-0.93-3.71-2.32-3.71-2.32s-4.17-1.02-4.73-0.37c-0.56,0.65-1.3,1.21-1.3,1.21s-0.83-0.56-2.04-0.37
		c-1.21,0.19-1.67,0.09-2.5-0.46c-0.83-0.56,0.65-1.67,0.93-2.6s3.43-6.21,4.17-7.23c0.74-1.02,2.69-2.78,4.26-3.71
		c1.58-0.93,4.73-3.43,4.73-3.43s19.74,0.37,22.25-0.19c2.5-0.56,17.61-7.88,17.61-7.88s5.75-0.28,7.14-1.21
		c1.39-0.93,6.12-2.97,6.12-2.97l-6.58,5.47c0,0-6.77,3.43-8.34,6.12c-1.58,2.69-15.57,12.61-20.49,22.99
		c-4.91,10.38-6.58,15.85-4.64,21.13c1.95,5.28,8.53,4.64,11.96,1.2c3.43-3.43,5.47-8.34,5.75-11.68c0.28-3.34-0.09-4.45-0.09-6.21
		c0-1.76,0.74-3.24-0.56-4.17c-1.3-0.93-1.58-1.58-1.58-1.58s4.54-4.63,6.4-6.12c0,0-0.74,7.6-1.39,9.64
		c-0.65,2.04-2.41,2.32-1.3,6.58s1.39,4.26,3.43,5.19c2.04,0.93,7.05,0.65,8.44-1.3c1.39-1.95,0.19-2.22,4.36-10.94
		c4.17-8.71,8.62-13.16,9.92-14.28c1.3-1.11,5.47-3.52,5.47-3.52s6.49-2.22,9.08-3.06c2.6-0.83,7.14-1.95,9.73-3.24
		c2.6-1.3,3.8-1.21,5.19-2.13c1.39-0.93,4.08-2.87,5.47-3.61c1.39-0.74,5.84-0.93,5.84-0.93s-3.52,5.38-4.36,6.03
		c-0.83,0.65-4.08,1.48-11.96,9.08s-12.14,11.87-11.31,19.47c0.83,7.6,9.46,11.59,14.83,4.91c0,0,1.2,1.76,1.95,1.85
		c0.74,0.09,1.3,0.28,1.3,0.28s0.83,3.99,1.11,5.56c0.28,1.58,2.6,5.38,3.71,6.4c1.11,1.02,8.44,10.66,8.44,10.66
		s4.54,3.43,6.77,4.36c2.22,0.93,2.6,0.93,3.61,0.56c1.02-0.37,1.58-1.11,1.58-1.11l0.37-0.37l-1.85-0.19c0,0-1.11-1.48-1.85-2.5
		c-0.74-1.02-1.02-2.32-1.02-2.32s2.04-0.74,2.22-1.48c0.19-0.74-1.67-2.5-2.32-2.87c0,0,0.46,1.48,0.56,1.85
		c0.09,0.37-1.76-0.19-1.76-0.19s-0.74-2.6-1.11-3.24c-0.37-0.65-1.67-0.56-2.32-1.11s-2.04-3.99-2.87-5.38
		c-0.83-1.39-2.22-2.78-2.22-2.78s1.95-1.48,3.15-2.04c1.21-0.56,2.32-0.09,2.6-1.58c0.28-1.48-2.13-11.96-2.5-13.81
		c-0.37-1.85-0.65-6.58-1.02-8.99s0.09-6.58,0.09-6.58l1.48-0.46c0,0,3.24,0.83,5.19,0.46c1.95-0.37,3.99-1.21,4.36-1.02
		c0.37,0.19,2.32,1.48,4.26,0.09s9.55-3.8,9.55-3.8s4.08,0.93,5.56-0.28c1.48-1.21,3.99-1.11,5.47-2.22
		c1.48-1.11,6.49-4.36,6.49-4.36s3.15-0.28,5.19-1.3c2.04-1.02,4.54-2.22,4.54-2.22s2.32,0.93,2.87,2.41
		c0.56,1.48,0.93,2.22,0.93,2.22s-0.18-2.41,0.65-4.17c0.83-1.76,2.04-2.87,2.32-2.87c0.28,0,2.13,2.04,2.13,2.69
		c0,0.65-5.01,6.49-8.71,11.59c-3.71,5.1-3.61,16.78-1.85,22.06c1.76,5.28,8.44,11.22,14.83,12.88c6.4,1.67,9.92,1.11,12.14-0.83
		c2.22-1.95,6.12-7.69,5.19-10.85c-0.93-3.15-1.11-5.65-3.24-6.95c-2.13-1.3-4.26-1.85-5.93-1.21c-1.67,0.65-3.8,1.76-3.8,1.76
		s-1.02-1.76-1.3-2.78c-0.28-1.02-0.19-2.22-1.02-3.06c-0.83-0.83-1.58-1.95-1.58-1.95s3.24-1.11,5.84-3.52c0,0,1.48,0.93,1.85,0.93
		s0.09,2.32,0.83,2.22c0.74-0.09,2.6,0.46,2.69-0.09c0.09-0.56,2.32-1.85,2.32-1.85s2.04,1.58,3.62,1.95
		c1.58,0.37,4.17,0.83,4.73,0.09c0.56-0.74-0.56-3.52-0.56-3.52s2.5,0.37,2.97,0c0.46-0.37,1.67-3.71,2.32-4.17
		c0.65-0.46-0.74-1.48-0.28-2.41c0.46-0.93,2.13-3.06,2.13-3.06l1.67-1.11c0,0,1.95,1.02,2.13,2.32s1.11-3.62-0.28-6.3
		c0,0,2.87-1.11,4.26-2.22c1.39-1.11,1.3-2.32,1.3-2.32s1.67-0.19,2.22-0.56c0,0,12.51,2.97,13.63,3.34c0,0-1.21,2.5,0.93,2.13
		c2.13-0.37,3.71,0.28,5.19,0.46c1.48,0.19,3.52-0.09,3.52-0.09s-2.22-0.83-2.6-1.85c-0.37-1.02-0.28-3.89-0.28-3.89
		s2.32-0.93,3.15,0.74c0,0-0.93-3.15-1.48-3.52c-0.56-0.37-0.37-3.24-0.37-3.24l0.56-5.19l14.46,1.11c0,0,3.99,4.54,10.01,4.91
		c6.03,0.37,16.78,0.83,24.84,0.37c8.06-0.46,17.61,0.56,17.61,0.56s7.32,5.01,9.55,5.38c2.23,0.37,4.54-0.46,4.54-0.46
		s2.32,2.41,6.95,3.43c4.64,1.02,17.8,2.97,22.9,3.71c5.1,0.74,32.26,3.89,37.91,3.99c5.65,0.09,14.74,0.65,18.26,0.09
		c3.52-0.56,7.69-0.65,10.01-1.48c2.32-0.83,4.08-1.58,5.28-2.6c1.2-1.02,1.48-1.67,1.48-1.67l-2.04-0.46l-1.21-1.3
		c0,0,1.95-0.56,3.34-1.11c1.39-0.56,3.34-1.76,3.34-2.04c0-0.28-0.83,1.11-1.76-3.34c-0.93-4.45-4.91-20.58-16.78-26.05
		c0,0,3.43-7.23-0.18-9.92c-3.62-2.69-11.87-4.36-15.29-4.45c-3.43-0.09-8.99,0.19-8.99,0.19s-4.17-3.52-7.42-4.08
		c-3.24-0.56,9.08-1.21,11.03-1.48c1.95-0.28,4.82,0.37,4.54-0.65c-0.28-1.02-1.48-2.32-1.48-2.32s2.69,0.09,2.5-0.74
		c-0.18-0.83-2.5-1.58-3.24-2.04c-0.74-0.46,2.13-1.39,2.13-1.39s-2.04-1.11-7.69-0.74c-5.65,0.37-13.9,2.13-23.08,2.41
		c-9.18,0.28-19.19,0.46-30.87,1.3c-11.68,0.83-17.89,1.48-19.1,0.83c-1.21-0.65-2.22-0.74-3.15-0.28
		c-0.93,0.46-1.85,2.04-2.78,1.11c-0.93-0.93-0.74-1.76-2.22-1.58c-1.48,0.19-2.78,1.02-2.78,1.02s-8.71-12.98-21.88-12.88
		c-13.16,0.09-34.76-2.87-37.36-3.43c-2.6-0.56-8.53-7.42-19.65-10.75c-11.12-3.34-24.75-3.8-27.44-4.26
		c-2.69-0.46-8.34-4.73-18.35-7.79c-10.01-3.06-20.58-5.38-28.64-5.84c-8.06-0.46-11.87-0.83-13.81-1.3
		c-1.95-0.46-3.62-1.76-5.65-2.32C758.56,514.55,743.63,512.05,728.43,512.88z M422.3,644.74c0.83,0.7,3.62,1.11,4.87,1.11
		s2.36,0,4.03,0.42c1.67,0.42,3.06-0.42,3.89-0.56c0.83-0.14,3.06-0.28,4.31-0.28s3.34,0,3.34,0v1.53l2.09-1.25
		c0,0,0.69-0.56,2.36-0.28c1.67,0.28,3.75,1.25,3.75,1.25s-3.62,0.7-4.59,0.7c-0.97,0-1.81,2.09-1.81,2.09s1.81,0,4.17,0.42
		c2.36,0.42,5.98-0.14,7.93,0c1.95,0.14,9.59-0.28,9.59-0.28c-0.28,1.81-3.34,2.92-3.34,2.92s1.25,0.28,2.92-0.14
		c1.67-0.42,5.28-1.39,5.28-1.39s1.53,0.83,2.78,0.56c1.25-0.28,8.2-0.14,8.2-0.14s3.34-1.81,4.31-2.5c0.97-0.7,1.95-2.36,1.95-2.36
		s1.25,0.28,2.5,0.28s5.28,0.42,5.28,0.42l-3.2,2.78l4.87-1.81c0,0,0.56-0.14,1.39-0.14s7.93-1.67,7.93-1.67l-8.34,4.31l5.84-1.67
		l-1.95,2.09l3.34-2.36c0,0,2.92-0.97,3.89-0.97c0.97,0,3.89,2.22,3.89,2.22s9.32,0.7,9.73,0.7c0.42,0-16.82,3.2-16.82,3.2
		s-30.03,1.95-34.07,2.64c-4.03,0.7-6.67,0.83-8.2,1.25c-1.53,0.42-2.92,0.7-5.14,0.56c-2.22-0.14-33.09-10.15-33.09-10.15
		s-3.48-0.97-4.31-1.81c-0.83-0.83-2.64-0.7-3.2-0.7C418.69,645.71,421.47,644.04,422.3,644.74z M604.17,661.56
		c-1.11,1.11-2.5,2.09-3.89,1.67c-1.39-0.42-3.48-2.64-3.48-2.64c1.25,0.28,9.04-3.48,9.04-3.48S605.28,660.45,604.17,661.56z
		 M376.56,634.73c-1.95,0.14-5.28,0.7-5.28,0.7l4.73-3.34c0,0,3.75,0.56,5.7,0.14c1.95-0.42,2.92-0.97,4.87-0.56
		c1.95,0.42,7.51,1.81,7.09,1.81c-0.42,0-7.79-0.14-9.73,0.28C381.98,634.17,378.5,634.59,376.56,634.73z M587.49,650.72
		c-0.42-1.11,0.14-3.75,0.97-4.87c0.83-1.11,5.56-6.12,5.56-6.12s-1.67,4.17-2.5,6.26c-0.83,2.09-1.25,7.51-1.25,7.51
		S587.9,651.83,587.49,650.72z M637.4,643.07c1.39,0.97,2.36,0.56,2.5,2.09c0.14,1.53,0.42,2.78,0,3.75
		c-0.42,0.97-2.36,2.36-2.36,2.36c-0.28-0.42,0.28-4.31-0.83-5.98c-1.11-1.67-2.36-2.22-2.36-2.22S636.01,642.1,637.4,643.07z
		 M616.13,626.8c1.67,0.42,5.14,0.14,5.14,0.14s-1.11,1.53-2.36,3.62c-1.25,2.09-3.75,6.53-4.87,10.15
		c-1.11,3.62-1.25,5.28-1.25,5.28s-2.09-1.67-3.06-2.36c-0.97-0.7-3.06-0.97-3.06-0.97l2.5,2.64c0,0-1.11,2.09-1.39,2.78
		c-0.28,0.7-1.95,1.11-2.92,1.95c-0.97,0.83-3.89,3.2-4.59,3.75c-0.7,0.56-3.34,0.14-3.34,0.14s-1.11-2.22,0.28-5.7
		c1.39-3.48,4.31-11.82,4.31-11.82s1.95-2.78,4.17-4.73c2.22-1.95,4.73-5.01,5.28-5.01C611.54,626.66,614.46,626.39,616.13,626.8z
		 M668.83,650.72c-0.14,2.22-0.42,8.62-1.25,10.85c-0.83,2.22-1.25,3.48-1.25,3.48c-0.56-0.14-2.64-1.39-3.62-2.92
		c-0.97-1.53-1.25-1.95-0.69-3.61c0.56-1.67,1.11-4.03,2.5-5.84c1.39-1.81,2.64-3.75,2.64-3.75S668.97,648.49,668.83,650.72z
		 M729.87,641.96c-0.28,1.53,0.28,6.54,0.28,6.54c-1.95-2.36-4.45-1.67-4.45-1.67c2.09,1.53,0,2.92-0.28,4.87
		c-0.28,1.95-4.17,1.92-4.31,1.53c-0.97-2.78,0.76-5.57,2.5-7.79c3.06-3.89,6.95-5.84,6.95-5.84S730.14,640.43,729.87,641.96z
		 M820.24,651.55c0,0-2.92-0.28-3.2-1.67c-0.28-1.39,1.11-2.5,1.11-2.5S820.24,647.94,820.24,651.55z M188.02,592.88
		c5.01,0.28,13.81,1.76,13.81,1.76l-5.19,2.6L188.02,592.88z M315.38,620.04c-6.03,1.58-17.52,3.71-32.81,3.52
		c-15.3-0.19-19.93-1.58-34.11-5.56c-14.18-3.99-25.21-9.08-25.21-9.08s2.97-0.56,5.75-0.83c2.78-0.28,13.81,0.74,19.56,0.74
		s6.3,1.11,6.3,1.11l1.67,1.85c0,0,0.93-1.67,1.02-1.95c0.09-0.28,1.11-0.09,1.11-0.09l0.56,2.04l1.48-2.5c0,0,2.32,0.28,2.78,0.28
		c0.46,0,0.19,1.21,0.19,1.21l2.87-1.58c0,0,0,1.39-0.56,2.69c-0.56,1.3,0.93,2.5,0.93,2.5c-0.74-1.39,0.28-1.95,0.28-1.95
		l0.93-0.28c0.37,1.39,1.39,2.32,1.39,2.32c-1.39-2.32-0.19-4.36-0.19-4.36l2.97-0.46c-2.23,1.3-1.58,2.78-0.74,4.08
		c0.83,1.3,1.67,0.37,0.83-0.56c-1.45-1.61,1.02-2.69,1.02-2.69l1.48-0.28c0,0,0.37,1.39,0.09,1.95c-0.28,0.56-1.39,2.78-1.39,2.78
		l2.97-2.41l2.13,0.09l-0.09,2.5c0,0,2.87-2.41,3.62-2.5c0.74-0.09,6.03-0.46,6.03-0.46l-7.69,5.84c0,0,4.08-2.13,7.69-3.52
		c3.62-1.39,5.38-1.3,5.75-1.3c0.37,0-0.46,1.3-1.3,2.04c-0.83,0.74-6.03,5.93-4.26,4.63c1.76-1.3,8.16-3.61,8.16-3.61l-5.01,5.19
		c0,0,4.54-3.24,6.03-4.08c1.48-0.83,4.17-0.93,4.17-0.93s-1.67,1.95-2.22,2.69s-2.32,2.69-2.32,2.69c1.58-0.09,1.95-1.3,2.32-1.76
		c0.37-0.46,0.83-0.46,2.78-2.27c1.95-1.81,6.81-4.45,6.81-4.45s7.37,0.42,6.95,0.83c-0.42,0.42-3.48,3.06-5.14,3.89
		c-1.67,0.83-1.81,2.22-1.81,2.22s1.39-1.53,2.92-1.95c1.53-0.42,3.62-1.11,6.95-2.09s5.84-1.95,7.65-2.36
		c1.81-0.42,1.67,0.7,2.5,0.97C329.14,614.85,321.4,618.46,315.38,620.04z M399.36,619.67c-0.74,0.19-7.97,2.6-7.97,2.6
		s-4.08-0.37-6.49-0.93c-2.41-0.56-3.71,0-4.64,0.56c-0.93,0.56-3.52,0.19-3.52,0.19c6.67-2.97,9.83-2.41,11.31-2.97
		c1.48-0.56,3.89-0.74,5.56-0.19c1.67,0.56,8.53-0.74,8.53-0.74S400.1,619.48,399.36,619.67z M382.31,614.48
		c0,0-5.93,1.67-10.75,3.15c-4.82,1.48-14.46,4.63-14.46,4.63c-0.74-0.19-7.79-6.86-7.79-6.86l7.42-3.71l9.83-1.85l2.78-0.93
		c0,0,0.93,0.93,2.04,0.19c1.11-0.74,4.08-1.11,4.08-1.11s-2.78,6.49-3.34,7.42c-0.56,0.93,5.19-4.82,5.19-4.82l1.48,1.11
		c0,0,2.04-1.3,3.71-2.22c1.67-0.93,0.56,1.85,0.56,1.85l3.34-0.37L382.31,614.48z M616.41,610.81c-0.07,0.04,0.17-0.15,0.32-0.28
		c0.97-0.82,3.68-2.89,5.24-3.61c1.81-0.83,3.34-1.25,3.34-1.25s0.42,1.39,2.23,0.42c1.81-0.97,4.17-1.11,4.17-1.11
		S622.39,607.76,616.41,610.81z M214.53,605.21c0,0-13.72-5.93-15.2-6.67c0,0,4.45-2.5,5.65-2.87c0,0,10.47,1.39,17.61,1.58
		c7.14,0.19,22.99,2.69,30.4,1.76c7.42-0.93,24.29-4.08,24.29-4.08s-14.83,6.3-23.82,7.6c-8.99,1.3-14.09,1.02-20.95,1.3
		C225.65,604.09,218.23,604.56,214.53,605.21z M663.82,602.75c0,0,2.78-2.64,3.75-2.78c0.97-0.14,2.36,2.64,2.36,2.64
		S666.88,601.91,663.82,602.75z M719.72,594.68c-0.14,0.7-2.22,3.89-2.22,3.89s2.64,1.95,2.36,2.92c-0.28,0.97-5.56,2.09-6.12,2.09
		c0,0,1.53-4.45,2.5-8.06c0.97-3.61,3.48-4.03,3.48-4.03S719.85,593.99,719.72,594.68z M259.95,592.69
		c-10.2,1.11-15.02,1.39-18.63,1.58c-3.62,0.19-20.39-0.28-29.01-1.21c0,0,3.99-1.58,13.07-2.6c9.08-1.02,20.49,0.09,26.05,0.09
		c5.56,0,10.57-0.56,14.65-1.02c4.08-0.46,12.79-1.21,12.79-1.21S270.14,591.58,259.95,592.69z"/>
</g>
</svg>
