<?xml version="1.0" encoding="utf-8"?>
<!-- Generator: Adobe Illustrator 24.1.3, SVG Export Plug-In . SVG Version: 6.00 Build 0)  -->
<svg version="1.1" id="圖層_1" xmlns="http://www.w3.org/2000/svg" xmlns:xlink="http://www.w3.org/1999/xlink" x="0px" y="0px"
	 viewBox="0 0 1200 1200" style="enable-background:new 0 0 1200 1200;" xml:space="preserve">
<style type="text/css">
	.st0{fill-rule:evenodd;clip-rule:evenodd;}
</style>
<g>
	<path d="M880.97,571.11c-0.89-1.21-2.04-2.1-3.25-3.44c-1.21-1.34-3.57-1.85-5.09-1.91c-1.53-0.06-2.74,0.32-2.74,0.32
		s0.83-0.7,0.06-0.51c-1.29,0.32-3.06,0.96-3.06,0.96l0.13-0.64c0,0-2.93,0.76-5.16,1.27c-2.23,0.51-6.69,2.61-6.69,2.61
		s-1.59-0.96-1.59-1.15c0-0.19,0.57-1.72,0.57-1.72s-1.66,1.02-2.48,1.59c-0.83,0.57-2.8,1.27-4.59,2.61
		c-1.78,1.34-12.86,7.45-14.01,8.41c-1.15,0.96-24.2,14.01-25.86,15.03c-1.66,1.02-11.97,6.11-11.97,6.11s-0.83,0.45-1.21-0.06
		c-0.38-0.51-1.02-2.04-1.02-2.04s-0.32,0.83-0.7,1.4c-0.38,0.57-2.67,3.12-2.67,3.12l-2.23,0.13c-0.25-1.85-2.36-3.31-2.36-3.31
		c1.08,1.15,1.27,3.57,1.08,3.76c-0.89,0.89-4.97,4.97-4.97,4.97s-1.59,0.76-2.29,1.91c-0.7,1.15-2.17,3.95-2.17,3.95l-0.83-0.64
		c0,0,0.13,1.02-0.13,1.53c-0.25,0.51-2.87,3.63-3.82,4.84c-0.96,1.21-2.67,3.18-2.67,3.18l-0.45-1.02
		c1.68-2.21,2.68-4.39,2.68-4.39s2.17-2.8,2.23-3.82c0.06-1.02-0.96-1.78-0.96-1.78s3.63-2.8,4.39-4.27
		c0.76-1.46,0.7-2.36,2.04-6.88c1.34-4.52,2.1-15.22,2.48-18.21c0.38-2.99,0.25-12.04,0.25-12.86s-0.7-3.12-0.7-3.12
		s0.25-0.51,0.96-1.34c1.28-1.51,0.96-2.36,0.96-2.36c-0.45,1.4-1.91,1.66-2.55,1.59c-0.64-0.06-0.57-2.36-0.57-2.36
		s0.83-1.85,1.53-3.44s3.44-7.58,3.63-8.34c0.19-0.76,0.76-2.23,1.85-3.12c1.08-0.89,1.34-2.55,1.34-2.55
		c-0.7,0.64-1.34,1.08-1.34,1.08s2.74-7.77,3.12-8.28c0.38-0.51,1.4-1.27,2.1-2.67c0.7-1.4,1.66-2.17,1.66-2.17
		c-1.4,0.57-2.55,1.46-2.55,1.46s0.32-1.66,0.7-2.87c0.38-1.21,1.34-4.01,2.17-5.09c0.83-1.08,0.89-2.23,1.72-3.18
		s1.72-3.25,1.72-3.25c-0.64,1.08-2.17,1.85-2.17,1.85s0.06-1.27,0.51-2.23c0.45-0.96,1.27-1.08,1.59-1.85
		c0.32-0.76,2.04-2.42,2.04-2.42c-0.32,0.19-2.61,1.4-2.61,1.4s0.06-1.08,0.25-1.78c0.19-0.7,0.96-1.46,1.46-2.17
		c0.51-0.7-0.57-1.34-0.57-1.34c1.08-0.32,1.72-0.96,2.29-3.38c0.57-2.42,2.61-3.44,2.61-3.44s-0.96,0.13-2.17,1.08
		c-1.21,0.96-1.91,2.1-1.91,2.1s0,0-0.38,0.45c-0.38,0.45-0.76,0-0.89-0.89c-0.13-0.89,0.06-1.97-0.13-2.36
		c-0.19-0.38,0-1.15,0-1.15s0,0,0.76-0.38c0.76-0.38,1.08-1.02,1.08-1.02c-1.21,0.25-1.02-1.08-1.02-1.08s0.13-0.19,0.83-0.64
		s1.34-1.34,2.42-1.72s1.53-1.08,1.53-1.08s-0.57,0.32-1.91,0.32c-1.34,0-2.48-0.19-2.48-0.19l0.19-1.4
		c1.14-0.38,1.08-1.59,2.36-2.1c1.27-0.51,1.4-0.57,1.4-0.57c-1.78-0.64-4.08-0.19-4.08-0.19s-0.19-0.89-0.51-1.97
		c-0.32-1.08-1.53-3.69-2.17-4.59c-0.64-0.89-3.95-1.66-5.16-1.78c-1.21-0.13-1.66,0.57-1.66,0.57c-0.57-1.46-2.93-0.45-2.93-0.45
		s-2.23,1.97-2.55,0.57c-0.32-1.4,0.38-5.73,0-7.77c-0.38-2.04-1.46-2.67-1.53-2.93c-0.06-0.25,0.25-1.08,0.45-2.67
		c0.19-1.59,0.38-4.2,0.89-5.54c0.51-1.34,1.66-4.39,1.66-4.39c-0.45,0.7-1.4,1.4-1.4,1.4s0.96-3.25,1.4-5.16
		c0.45-1.91,0.57-3.12,0.25-2.48c-0.32,0.64-1.78,2.48-1.78,2.48s0.38-3.31,1.02-4.9c0.64-1.59,1.15-4.46,1.15-4.46
		c-0.13,0.51-1.66,2.8-1.66,2.8s-0.51-1.53-0.38-3.38c0.13-1.85,2.17-5.48,1.46-4.97c-0.04,0.03-0.09,0.07-0.14,0.11
		c-0.72,0.62-1.84,2.25-1.84,2.25l-0.45-2.23c0,0,0.06-1.21,0.38-2.36c0.32-1.15,0.83-2.17-0.06-3.31c-0.89-1.15-0.7-2.8-1.02-4.14
		c-0.32-1.34,0.32-2.1,0.38-3.44c0.06-1.34-0.51-1.72-0.96-2.42c-0.45-0.7,0.06-2.74,0.19-6.18c0.13-3.44-0.83-3.31-0.83-3.31
		s0.25,0.19,0.19,0.76c-0.11,1.02-0.7,1.34-0.89,0.38c-0.19-0.96-0.54-1.27-0.92-1.94c-0.38-0.67,0.57-2.29,0.29-3.34
		c-0.29-1.05-0.38-3.15-0.38-3.15c-0.48,0.48-0.96,2.2-0.96,2.67c0,0.48-0.76,0.67-1.43,0.1c-0.67-0.57-2.2-3.44-2.58-4.49
		c-0.38-1.05-0.86-2.58,0.1-3.63c2.32-2.55,1.34-4.59,1.34-4.59c0,2.67-1.43,2.77-2.2,3.63c-0.76,0.86-0.57-1.34-0.76-2.39
		c-0.19-1.05-0.48-3.82-0.48-3.82s-0.86,0.86-1.34,1.43c-0.48,0.57-1.15,0.19-1.81-2.67s-1.43-3.82-1.43-3.82
		c0.48,0.86,0.1,2.48-0.38,3.15c-0.48,0.67-1.24-1.91-1.91-3.06c-0.67-1.15-4.01-3.63-4.01-3.63l-0.57-1.72
		c0,0,1.62-0.57,20.54-14.33c18.91-13.76,39.17-32.19,53.02-51.58s22.83-45.38,26.56-60.18c3.73-14.81,8.02-31.05,8.79-34.2
		c0.76-3.15,0.1-2.87-0.38-3.73c-0.48-0.86-1.81-1.72-2.39-1.05c-0.57,0.67-4.11,9.46-7.74,25.32
		c-3.63,15.86-10.89,37.83-21.11,56.55c-10.22,18.72-29.71,37.54-42.89,49.1c-13.18,11.56-35.15,25.6-35.15,25.6
		s2.01-15.76,2.96-28.75c0.96-12.99-0.86-30.76-0.57-34.77s1.91-31.24-1.34-59.8c-3.25-28.56-9.84-47.38-16.34-67.06
		c-6.5-19.68-18.25-45.85-22.83-53.97c-4.59-8.12-25.7-28.47-41.46-43.18c-15.76-14.71-25.03-17.39-30.66-18.91
		c-5.64-1.53-6.78-1.05-7.83-0.29c-1.05,0.76-0.67,2.58-0.96,3.92c-0.29,1.34,0.38,1.05,1.62,1.82c1.24,0.76,4.3,2.58,4.59,3.34
		c0.29,0.76,0,1.91,0,1.91c-3.07-1.22-8.43-0.86-11.61,6.97c-3.19,7.83-2.22,17.52-1.32,30.27c0.9,12.74,7.06,48.28,9.63,65.31
		c2.56,17.04,7.48,36.92,10.32,48.83c2.84,11.91,6.1,18.22,7.48,21.54c1.39,3.32,2.49,6.51,2.01,7.9c-0.97,2.78-0.07,4.09-0.07,4.09
		c-3.39,3.26-1.32,4.29-1.39,5.75c-0.07,1.45-1.73,3.12-2.49,3.32c-0.76,0.21-2.35,0.14-2.7-0.07c-0.35-0.21-2.7-2.29-3.05-1.59
		c-0.35,0.69-0.76,1.94,1.52,5.89c2.29,3.95,5.82,5.19,5.96,6.16c0.14,0.97,0.99,5.63,0.99,5.63l-1.08-0.13c0,0-0.89,1.15,0.19,4.65
		c1.08,3.5,2.61,3.5,3.25,4.65c0.64,1.15,1.91,3.57,3.06,6.11c1.15,2.55,3.38,8.53,4.65,11.4c1.27,2.87,4.97,10.25,5.6,12.42
		c0.64,2.17-0.76,2.99-0.76,2.99c-1.66,0.76-2.1,1.85-1.91,3.38c0.19,1.53,1.59,1.59,2.8,2.17c1.21,0.57,3.88,1.4,4.97,2.36
		c1.08,0.96,4.46,5.73,7.77,9.17c3.31,3.44,6.88,7.13,6.88,7.13c1.08,2.55,3.95,2.42,4.84,2.93c0.89,0.51,4.01,3.18,4.59,4.14
		c0.57,0.96,1.4,5.16,1.21,6.11c-0.19,0.96-2.1,1.59-2.1,1.59s-0.83-0.45-1.78,1.15c-0.96,1.59-2.04,10.76-3.38,17.26
		c-1.34,6.5-4.65,10.76-6.94,12.42c-10.04,7.25-10.38,11.78-10.38,11.78c-10.44,4.84-34.96,14.01-36.05,14.58
		c-1.08,0.57-0.7,1.91-0.7,1.91l-1.59-2.1c0,0-2.04,0.38-3.12,0.76c-1.08,0.38-2.42,0.13-2.42,0.13s-1.15,1.46-1.46,1.91
		c-0.32,0.45-1.91,0.45-1.91,0.45s-0.57,1.78-0.64,2.04c-0.06,0.25-1.21-0.19-1.21-0.19s-2.04,2.99-2.23,3.44
		c-0.19,0.45-1.53,0.64-1.53,0.64l0.7,2.29c0,0-0.32,1.4-0.38,2.74c-0.06,1.34,0,3.44-0.32,3.95c-0.32,0.51-1.85-0.19-1.85-0.19
		l-1.08,0.76l-3.18-5.22l1.4,4.2c0,0-0.19,1.53-0.25,2.8c-0.06,1.27-0.06,4.01-0.06,4.01l-1.72,2.17l-1.02-0.32
		c0,0-0.32-7.64-0.32-9.11c0-1.46-0.51-3.5-0.51-3.5s0.51-2.36,3.95-8.28c3.44-5.92,8.92-12.61,12.8-17.45
		c3.88-4.84,7.71-10.76,9.23-15.54c1.35-4.21,2.48-10.51,4.97-15.86c2.48-5.35,6.88-7.9,7.58-8.34c0.7-0.45,4.27-1.34,4.9-1.46
		c0.64-0.13,1.27-0.83,0.51-0.76c-0.76,0.06-4.84,1.02-5.6,1.53c-0.76,0.51-5.6,3.76-8.09,7.9c-2.48,4.14-4.39,11.34-6.05,15.98
		c-1.66,4.65-5.41,9.62-9.55,15.09c-4.14,5.48-9.3,11.02-11.46,14.9c-2.17,3.88-5.73,9.68-5.73,9.68s-0.45-2.23-0.25-3.18
		c0.19-0.96-0.13-2.23-0.19-2.61c-0.06-0.38-1.53,0.06-1.53,0.06s0.06-4.52,0.32-8.28c0.25-3.76,1.59-11.53,2.55-14.71
		c0.96-3.18,3.31-5.35,3.82-5.99c0.51-0.64,0.19-1.21-0.25-0.76c-0.45,0.45-3.82,3.69-4.97,7.32c-1.15,3.63-3.25,14.65-3.12,16.94
		c0.13,2.29-0.7,5.8-0.89,5.35c-0.19-0.45-0.96-9.49-1.46-14.9c-0.51-5.41-0.76-13.25-1.08-13.95c-0.32-0.7-0.64-0.83-1.4-0.57
		c-0.76,0.25-1.72,0.51-2.04,2.04c-0.32,1.53-1.85,16.37-1.85,16.37s-2.04-3.25-2.87-4.01c-0.83-0.76-3.63-0.7-4.65-0.76
		c-1.02-0.06-4.14-1.85-3.76-1.02c0.38,0.83,2.74,2.17,2.74,2.17s-0.89,0.06-1.66,0.32c-0.76,0.25-2.74,1.78-2.74,1.78
		s-7.32-11.72-7.83-12.67c-0.51-0.96-3.69-7.9-3.69-7.9s-0.83-2.93-1.27-3.95c-0.45-1.02-2.04-3.25-4.01-5.09
		c-1.67-1.56-1.65-2.16-1.61-2.31c-0.07,0.2-0.3,1.12,0.65,2.19c1.08,1.21,2.42,2.93,2.61,2.99c0.19,0.06-0.51,1.02-0.64,1.59
		c-0.13,0.57,0.38,1.21,0.83,2.1c0.45,0.89,2.04,5.8,3.38,8.92c1.34,3.12,5.99,14.27,5.99,14.27s-0.76,0.96-1.66,1.4
		c-0.89,0.45-6.5,3.44-6.5,3.44s-1.59-0.7-1.97-0.51c-0.38,0.19-2.36,2.04-2.36,2.04s-1.59-1.4-2.23-1.97
		c-0.64-0.57-2.99-2.17-3.88-2.74c-0.89-0.57-1.53-1.4-3.18-2.8c-1.66-1.4-18.66-10.51-26.75-14.9
		c-8.09-4.39-27.89-13.56-27.89-13.56s-0.32-1.02-0.57-2.67c-0.25-1.66-0.25-10.64-0.45-13.88c-0.19-3.25-1.72-4.65-4.2-6.75
		c-2.48-2.1-11.02-7.01-11.02-7.01s-1.34-6.05,0.13-8.02c1.46-1.97,3.88-4.33,3.88-4.33s0,0,2.23-0.83
		c2.23-0.83,4.65-3.44,6.05-5.35c1.4-1.91,0.64-2.99,0.64-2.99s3.18-2.1,5.16-3.44c1.97-1.34,3.31-1.85,4.59-2.23
		c1.27-0.38,2.42-1.46,2.87-2.36c0.45-0.89-0.64-1.15-1.34-1.4c-0.7-0.25-1.08-1.21-1.59-2.17c-0.51-0.96,0-2.87,0.7-4.78
		s3.18-5.6,3.69-6.37c0.51-0.76,3.5-2.87,5.29-3.63c1.78-0.76,3.57-2.93,4.27-3.63c0.7-0.7,0.25-1.15-0.83-0.96
		c-1.08,0.19-4.14-0.32-4.71-0.51c-0.57-0.19-1.72-1.34-1.72-2.67c0-1.34,0.32-6.24,0.32-6.24s0.96-1.72,2.23-4.14
		c1.27-2.42,0.83-6.75,0.89-7.64c0.06-0.89-1.02-2.55-0.89-3.88c0.13-1.34,1.27-6.05,3.38-12.04s1.72-5.8,1.72-7.32
		s-1.15-1.59-1.78-0.83c-0.64,0.76-1.72,1.27-1.72,1.27s-0.13-6.11-0.13-7.32c0-1.21,1.27-5.35,1.46-11.21
		c0.19-5.86-2.67-7.51-2.67-7.51c-0.89-6.5-5.03-7.71-6.43-8.47c-1.4-0.76-2.23-1.78-2.17-1.97c0.06-0.19,1.72-2.42,2.8-4.52
		c1.08-2.1,1.97-5.22,3.25-10.76c1.27-5.54,3.88-22.67,4.14-35.66c0.25-12.99-1.46-32.86-2.1-42.54c-0.64-9.68-0.7-28.72-5.41-40.63
		c-4.71-11.91-14.2-10.32-15.67-9.23c-1.46,1.08-4.08,2.55-4.2,5.48c-0.13,2.93,1.4,2.93,1.4,2.93s-1.15,2.8-1.15,4.65
		c0,1.85,0.45,3.06,0.45,3.95c0,0.89-1.15,2.04-1.46,3.18c-0.32,1.15,0.38,2.23,0.38,2.42c0,0.19,0.13,1.97,0.13,1.97
		s-1.08-0.83-1.4,0.64c-0.32,1.46,0.51,2.8,0.51,2.8c-0.51-0.13-0.64,1.66-0.25,2.61c0.38,0.96,0.64,0.45,0.96,0.96
		c0.32,0.51-0.38,1.02-0.64,1.78c-0.25,0.76-1.46,1.02-1.46,1.02c-1.21,0.06-1.91,1.27-2.04,4.08c-0.13,2.8,1.08,2.29,1.27,2.36
		c0.19,0.06,0.76,0.83,0.76,1.34c0,0.51-1.02,1.27-1.02,1.27s-0.89-0.45-1.27,0.57c-0.89,2.38,0,3.44,0,3.44s0.25,2.29,0.19,2.48
		c-0.06,0.19-1.15,1.02-2.61,1.91c-1.46,0.89-2.93,2.04-2.93,2.04s0.51-2.1,0.64-4.71c0.13-2.61-0.45-6.69-1.02-8.6
		c-0.57-1.91-0.51-1.46-1.08-4.33c-0.57-2.87-2.36-4.78-2.36-4.78s0.45-1.4,0.7-2.29c0.25-0.89-0.13-1.91,0.06-3.31
		c0.19-1.4,1.66-7.77,1.72-8.02s1.27-0.25,1.97-1.59c0.7-1.34,0.32-0.96-0.83-2.67c-1.15-1.72-0.96-2.74-0.32-4.78
		c0.64-2.04,4.27-6.75,6.05-9.36c1.78-2.61,1.21-5.16-0.89-6.24c-2.1-1.08-4.78,0.13-17.13,4.33c-12.35,4.2-24.58,14.07-42.16,35.09
		c-17.58,21.02-24.14,37.64-29.93,54.2c-5.8,16.56-2.93,32.93-2.93,32.93s-1.15,5.35-1.72,13.25s-0.06,19.87,1.66,29.36
		c1.72,9.49-1.46,25.03,0.38,38.15c1.85,13.12,11.08,38.15,10.76,37.96c-0.32-0.19-10.32-10.7-19.62-23.18
		c-9.3-12.48-12.04-16.94-17.64-25.35c-5.6-8.41-20.44-35.09-24.2-41.2c-3.76-6.11-18.28-32.93-19.11-34.52
		c-0.83-1.59-4.84-7.26-4.97-7.45c-0.13-0.19-0.64,0-1.27-0.06c-0.64-0.06-2.04,0.38-1.91,0.89c0.13,0.51,1.08,5.03,1.85,6.43
		c0.76,1.4,5.22,9.23,6.5,11.59c1.27,2.36,27.45,49.87,35.54,64.26c8.09,14.39,22.61,33.94,29.04,41.97
		c6.43,8.02,19.42,21.02,19.42,21.02s6.81,20.7,14.39,34.01c7.58,13.31,11.85,14.2,11.85,14.2s0.45,0.7,1.4,1.97
		c0.96,1.27,4.01,1.4,4.01,1.4s-2.42,0.76-2.74,1.15c-0.32,0.38-2.61,1.97-3.76,2.99c-1.15,1.02-2.55,2.04-2.99,2.55
		c-0.45,0.51-1.27,3.31-1.59,2.93c-0.32-0.38-1.34-2.61-1.4-2.36c-0.06,0.25-0.96,5.03-0.96,5.03s-0.19-1.85-0.64-1.53
		c-0.45,0.32-1.59,1.4-1.97,3.25c-0.38,1.85,0,3.12,0,3.12l-1.91-0.06c0,0,1.53,2.8,1.4,3.57c-0.13,0.76-0.89,2.93-0.89,2.93
		s-0.76-0.19-1.4,0.06c-0.64,0.25-2.17,2.8-2.17,2.8s-1.4,0.57-2.93-0.38c-1.53-0.96-3.95-4.2-3.95-4.2s1.34,1.97,2.67,3.82
		c1.34,1.85,2.23,2.29,2.23,2.29s-0.32,0.89-0.45,1.85c-0.13,0.96,0.25,3.5-0.06,4.01c-0.32,0.51-2.1,0.06-2.87-0.38
		c-0.76-0.45-1.78-2.17-1.08,0s2.17,3.12,2.17,3.95c0,0.83-0.51,2.8-1.02,2.67c-0.51-0.13-2.36-2.48-2.36-2.48
		c0.13,2.42,1.46,4.65,1.34,6.88c-0.13,2.23-1.27,6.75-1.27,6.75s-0.38-0.13-0.57,1.02c-0.19,1.15,0,2.42,0,2.67
		c0,0.25-0.57,0.45-0.57,1.72c0,1.27,0.25,4.14,0,4.84c-0.25,0.7-1.91-1.21-1.91-1.21s0,1.27,0.57,3.06c0.57,1.78,1.53,5.6,1.34,5.8
		c-0.19,0.19-2.17-1.66-2.17-1.66s1.34,4.27,1.4,5.16c0.06,0.89,0.96,5.73,0.96,5.73h-4.59l-3.82,1.4c0,0-4.39,2.42-6.56,5.22
		c-2.17,2.8-4.46,6.18-5.48,9.43c-1.02,3.25-2.36,11.02-2.42,11.97c-0.06,0.96-0.83,1.91-1.53,1.08c-0.7-0.83-1.78-4.14-1.78-4.14
		c-0.32,0.7,0.7,3.76,1.02,5.35c0.32,1.59,0.32,2.29-0.64,2.29c-0.96,0-2.67-2.67-2.67-2.67s0.19,1.02,0.7,2.23
		c0.51,1.21,1.91,2.04,2.36,3.31c0.45,1.27,0.06,3.06,0.32,4.46c0.25,1.4,0.89,2.93,0.57,3.12c-0.32,0.19-1.85-1.15-1.85-1.15
		c0.25,1.97,1.27,3.38,1.59,4.65c0.32,1.27,0.96,4.9,0.96,4.9c-0.7-0.64-2.36-0.89-1.59-0.32c0.76,0.57,1.4,2.36,1.4,2.36l1.27,9.17
		c-0.57-0.51-1.34-0.13-1.34-0.13c1.21,1.02,1.78,2.67,1.91,2.87c0.13,0.19,1.27,10.32,2.1,12.99c0.83,2.67,1.46,6.11,1.91,7.45
		c0.45,1.34,1.66,5.03,1.66,5.6c0,0.57-1.72-0.7-1.72-0.7s1.02,1.78,1.34,3.38c0.32,1.59,0.7,3.88-0.06,4.01
		c-0.76,0.13-3.69-2.04-3.69-2.04s2.17,3.44,2.61,4.2c0.45,0.76,0.06,1.72,0.45,3.88c0.38,2.17,1.27,6.81,2.17,10.95
		c0.89,4.14,5.86,15.54,6.75,17.32c0.89,1.78,3.06,5.35,2.99,6.75c-0.06,1.4-4.2,0.7-4.2,0.7c2.23,0.96,5.54,0.64,5.86,0.76
		c0.32,0.13,1.08,0.19,1.59,0.7c0.51,0.51,2.61,2.17,2.61,2.17s-0.96,2.99-0.25,3.88c0.7,0.89,0.83,1.15,1.15,1.78
		c0.32,0.64-1.66,0.83-1.66,0.83s1.85,0.13,2.74,0.51c0.89,0.38,2.55,1.72,5.6,4.2c3.06,2.48,5.35,3.95,8.53,6.75
		c3.18,2.8,28.85,17.83,42.67,25.28s31.59,12.61,32.54,12.74c0.96,0.13,2.17,2.67,4.39,3.76c2.23,1.08,8.15-0.06,8.15-0.06
		s-0.64,9.17,0.32,21.21c0.96,12.04,3.12,34.77,3.12,34.77s-2.99-0.32-6.81-0.51c-3.82-0.19-16.49-0.76-16.94-0.76
		c-0.45,0-5.03,0.89-5.16,0.51c-0.13-0.38-2.04-1.34-2.42-1.97c-0.38-0.64-0.83-2.67-0.83-2.67s-0.89,1.72-0.89,1.91
		c0,0.19-3.38-3.06-10.57-9.55c-7.2-6.5-21.53-27.51-25.54-34.39c-4.01-6.88-13.44-23.44-15.28-25.92
		c-1.85-2.48-4.65-1.27-4.97-1.46c-0.32-0.19-10.44-12.29-17-19.74c-6.56-7.45-16.88-14.58-17.77-14.71
		c-0.89-0.13-1.02,1.02-1.02,1.02s-11.65-7.58-23.44-16.24s-25.86-21.59-29.74-25.92c-3.88-4.33-4.33-2.55-4.52-2.67
		c-0.19-0.13-0.32,1.72-0.32,1.72s-5.22-7.13-5.29-7.32c-0.06-0.19-2.23-2.87-4.59-5.54c-2.36-2.67-8.6-8.34-13.82-11.34
		c-5.22-2.99-4.33-0.45-4.33-0.45l1.27,1.53c0,0-0.64-0.38-1.02,0.51c-0.38,0.89,1.08,2.36,2.8,6.18c1.72,3.82,3.5,5.6,5.73,9.68
		c2.23,4.08,8.53,11.46,8.53,11.46l2.67,4.84l0.51,1.85l-2.61-0.64l1.66,2.1l-1.78-0.06c0,0,1.02,1.59,2.55,2.55
		c1.53,0.96,1.4,2.23,2.17,3.18c0.76,0.96,4.2,2.29,4.71,2.8c0.51,0.51-1.27,0.7-1.27,0.7s2.17,1.02,3.76,2.1
		c1.59,1.08,3.5,1.72,5.8,2.42c2.29,0.7,2.87,1.08,3.69,2.04c0.83,0.96-0.25,1.66-0.25,1.66c0.25,0.38,1.72,0.32,2.55,0.57
		c0.83,0.25,2.1,1.59,2.74,2.23c0.64,0.64-2.48,0.32-2.48,0.32c0.25,0.06,2.29,1.02,3.57,2.04c1.27,1.02,1.72,0.64,3.38,1.59
		c1.66,0.96,3.82,1.97,5.67,2.87c1.85,0.89,3.57,3.06,3.82,3.76c0.25,0.7-2.23,0.19-2.23,0.19c2.29,2.99,4.78,1.53,6.05,2.1
		c1.27,0.57,8.92,6.24,8.92,6.24c0.19,1.15-2.04,1.34-2.04,1.34c2.1,1.21,3.18-0.57,4.46,0c1.27,0.57,8.22,4.84,8.22,4.84
		s0.25,1.34,0.89,2.8c0.64,1.46,2.36,2.61,6.18,6.56c3.82,3.95,14.01,13.18,14.01,13.18s0,0,1.02,1.21
		c1.02,1.21,1.34,2.93,1.34,2.93s-0.51,0.19-0.64,0.96c-0.13,0.76,1.4,3.69,1.4,3.69c-0.7,2.17,0.89,2.48,3.25,4.2
		c2.36,1.72,7.71,5.54,12.74,11.53c5.03,5.99,23.69,29.17,35.03,41.27c11.34,12.1,17.7,15.79,19.04,16.18
		c1.34,0.38,3.06-0.64,3.06-0.64s1.27,2.48,4.9,3.95c3.63,1.46,30,0,30,0c1.46,9.17,3.44,12.8,3.44,12.8s-12.04,0.51-31.84-1.53
		c-19.81-2.04-34.45-5.67-41.97-8.15c-7.51-2.48-17.07-6.88-18.15-7.07c-1.08-0.19-1.53,0.64-1.53,0.64s-1.91-3.12-2.04-2.23
		c-0.13,0.89-1.97,2.1-1.97,2.1c-1.08-2.67-2.42-2.93-2.42-2.93c1.53,1.4,0.64,2.36,0.64,2.36s-15.86-6.5-20.38-7.45
		c-4.52-0.96-5.92-0.25-5.92-0.25s-0.83-1.08-2.8-2.55c-1.97-1.46-3.44-1.78-4.71-2.29c-1.27-0.51-2.87-0.64-4.84-1.72
		c-1.97-1.08-2.8-3.69-2.8-3.69c-0.32,0.57-0.19,1.97-0.19,1.97s-4.39-2.42-5.48-3.06c-1.08-0.64-2.36-2.8-3.38-3.82
		c-1.02-1.02,0.32,1.85,0.32,1.85s-2.42-1.08-3.44-1.59c-1.02-0.51-1.4-1.4-1.91-2.1c-0.51-0.7-1.59-0.76-3.82-1.72
		c-2.23-0.96-7.13-4.84-7.96-6.18c-0.83-1.34-2.48-4.08-2.48-4.08s0.38,2.04-0.57,1.72c-0.96-0.32-2.93-1.15-5.22-2.74
		c-2.29-1.59-1.91-3.06-2.48-3.76c-0.57-0.7-0.25-2.1-0.25-2.1s-1.21,0.64-2.1,0.51s-1.85-0.83-4.65-2.8
		c-2.8-1.97-1.59-2.74-2.36-3.95c-0.76-1.21-0.13-2.74-0.13-2.93c0-0.19-1.27,0.64-1.66,0.7c-0.38,0.06-2.8-0.38-2.8-0.38
		s-2.23-1.91-3.31-3.06c-1.08-1.15-7.51-15.03-8.92-18.79c-1.4-3.76-1.78-3.88-1.78-3.88l-0.64,2.48c0,0-0.57,0.25-1.15,0.51
		c-0.57,0.25-0.32,2.23-0.25,2.67c0.06,0.45,0.19,1.91,0.19,1.91h-1.46c0,0,1.02,1.66,1.27,1.72c0.25,0.06,0.32,1.85,0.32,1.85
		s-0.89-0.83-1.02-0.51c-0.13,0.32,0,2.67,0.45,3.5c0.45,0.83,1.27,2.29,1.34,2.55c0.06,0.25-1.02-0.06-1.34-0.19
		c-0.32-0.13,0.57,4.71,0.57,4.71s1.91,5.48,3.82,7.71c1.91,2.23,3.25,3.63,2.23,2.87c-1.02-0.76-6.69-3.5-6.88-3.5
		c-0.19,0,5.73,5.92,5.73,5.92s-7.2-2.29-7.45-2.36c-0.25-0.06,7.64,4.14,9.43,5.09c1.78,0.96,3.76,3.06,3.82,3.38
		c0.06,0.32-0.38,0.96-0.38,0.96s5.48,2.1,8.15,4.14c2.67,2.04,45.79,27.26,49.48,29.36c3.69,2.1,3.82,1.46,4.46,2.99
		c0.64,1.53,5.54,6.5,14.46,10.7c8.92,4.2,16.94,4.14,17.32,5.48c0.38,1.34,3.25,3.31,3.25,3.31s1.15,1.97,2.36,2.36
		c1.21,0.38,3.57-0.57,8.09-0.19c4.52,0.38,31.08,4.14,46.55,6.18c15.48,2.04,25.92,1.97,25.92,1.97s1.27,1.85,3.38,1.97
		s4.14-1.59,4.14-1.59s0.32,0.19,4.14,0.32s8.53,0.19,8.53,0.19s0.19,0.19,0.45,1.91c0.25,1.72,4.65,10,6.18,12.48
		s6.81,2.74,6.81,2.74s-0.76,2.36-1.15,3.69c-0.38,1.34-0.51,2.61-0.89,2.8c-0.38,0.19-2.36,0.32-2.61-0.25
		c-0.25-0.57,1.08-5.22,1.08-5.22l-2.36,2.8l0.25-2.55c0,0-0.45,0.06-1.21,0.51c-0.76,0.45-2.55,0.32-2.55,0.32l-0.38-4.52
		l-0.76,1.08l-0.45-5.48l-1.02,4.52l-1.02,0.25c0,0-1.53,2.74-1.21,7.26c0.32,4.52,1.4,6.18,1.59,6.18s-0.19,2.36-0.32,7.83
		s1.46,8.6,1.46,8.6c-1.59,8.09-1.91,13.18-1.08,24.2c0.83,11.02,2.8,18.6,2.93,18.79c0.13,0.19-0.13,1.78-0.83,5.48
		c-0.7,3.69-2.87,8.92-3.44,14.39s2.36,8.09,3.38,12.42c1.02,4.33,4.08,15.6,4.08,15.6c-1.72-1.85-3.12,0.76-3.5,2.17
		c-0.38,1.4-1.91,7.9-3.06,11.85c-1.15,3.95-1.78,4.46-0.51,7.58c1.27,3.12,2.55,4.9,4.59,10.13c2.04,5.22,9.04,12.93,9.04,12.93
		s-2.17-0.25-3.38-0.38c-1.21-0.13-2.87-0.13-4.27,1.97c-1.4,2.1-3.25,8.34-4.65,12.93c-1.4,4.59-3.5,3.95-2.74,8.28
		c0.76,4.33,2.74,4.52,6.88,9.17c4.14,4.65,6.88,7.83,6.88,7.83s-3.38-0.96-4.84,0.45c-1.46,1.4-0.64,2.67-0.7,4.14
		c-0.06,1.46-2.74,5.09-4.2,8.15c-1.46,3.06-2.36,6.11-1.97,7.9c0.35,1.62,2.69,4.19,3.06,4.49c-0.3-0.18-2.61-0.31-3.64,0.54
		c-1.08,0.89-2.87,2.42-2.87,2.42c0.13-2.29-3.38-4.39-11.08-8.53c-14.57-7.82-16.56-4.78-28.72-5.92
		c-12.16-1.15-26.75-1.27-30.51-2.17c-3.76-0.89-5.6-0.89-5.29-0.45c0.32,0.45,0,4.39,0,4.39s-2.04-0.19-1.53,0.51
		c0.51,0.7-0.13,2.99-0.13,2.99l-4.52,2.17c0,0-8.47,7.39-11.02,11.65c-2.55,4.27-4.46,10.06-4.59,15.92
		c-0.13,5.86,6.62,22.67,11.02,29.8c4.39,7.13,24.2,12.1,31.46,12.1c7.26,0,14.78-4.08,14.78-4.08l-4.78,6.3
		c0,0,1.34,0.76,1.72,0.83c0.38,0.06,0.51,1.4,0.38,3.25c-0.13,1.85,1.34,6.05,3.12,9.17c1.78,3.12,26.88,19.81,41.97,23.05
		c15.09,3.25,22.16-2.55,24.96-5.35c2.8-2.8,5.03-14.46,5.03-14.46s1.27,1.53,2.17,2.87c0.89,1.34,1.59,6.69,1.78,7.32
		c0.19,0.64,1.85,1.59,2.1,1.53c0.25-0.06,3.44,0.89,7.71,4.59c4.27,3.69,6.75,6.3,25.54,8.02c18.79,1.72,20.51-11.34,20.51-11.34
		l2.48,1.53c0,0-0.45,0.32-0.13,1.91c0.32,1.59,9.93,5.22,15.92,6.43c5.99,1.21,7.26-0.96,7.77-0.96s4.9,1.34,10.7,1.72
		c5.8,0.38,25.66-9.62,31.52-12.86c5.86-3.25,4.59-8.79,4.59-8.79l6.18-0.25c0,0,11.34,2.29,23.63,0.7
		c12.29-1.59,23.63-15.98,23.63-15.98s4.46-6.11,6.94-12.16c2.48-6.05,0.7-17.32,0.45-21.27c-0.25-3.95-9.43-13.37-9.43-13.37
		s1.02-1.59,0.19-2.42c-0.83-0.83-2.87-2.99-2.8-3.69c0.06-0.7,2.23-2.87,2.23-2.87s-1.91-1.27-6.69-2.04
		c-4.78-0.76-5.8-1.34-14.97-3.82c-9.17-2.48-25.73-9.23-38.47-7.77c-12.74,1.46-13.95,4.2-16.24,5.16
		c-2.29,0.96-3.88-1.21-6.24-3.25c-2.36-2.04-5.03-1.46-5.03-1.46s0.32-1.21,1.21-2.29c0.89-1.08,2.17-2.17,1.21-4.52
		c-0.96-2.36-2.42-8.53-4.14-14.27c-1.72-5.73-4.97-6.37-4.08-7.32c0.89-0.96,7.01-7.26,8.02-8.92c1.02-1.66,2.1-2.23,3.12-3.76
		c1.02-1.53,0.32-4.14-0.06-7.45c-0.38-3.31-5.8-11.97-6.3-14.46c-0.51-2.48-2.17-3.57-2.17-3.57s-0.19-1.78,0.25-2.48
		c0.45-0.7,0.57-1.72,0.13-2.48c-0.45-0.76-0.38-2.17,1.66-6.43c2.04-4.27,4.84-7.71,5.6-11.59c0.76-3.88-2.55-15.73-2.93-18.34
		c-0.38-2.61-2.67-4.01-2.67-4.01c1.27-0.96,1.15-2.74,2.99-8.92c1.85-6.18,4.39-16.43,3.5-23.05c-0.89-6.62-3.69-11.02-3.69-11.02
		s0.83-1.66,2.04-5.86c1.21-4.2,3.95-24.26,3.44-30.51c-0.51-6.24-2.87-5.29-2.87-5.29c3.44-4.27,3.44-8.47,3.82-11.14
		s-0.64-7.26-0.06-8.79c0.57-1.53,2.04-6.37,1.78-8.85c-0.25-2.48-0.51-4.01-0.51-4.01l-0.83,0.19c0,0-0.76-0.7-0.83-2.1
		c-0.06-1.4-0.96-3.25-0.96-3.25c0.13,1.78-0.51,2.1-1.21,3.76c-0.7,1.66-1.08,4.65-1.08,4.65s-2.87,0.76-3.88,0.64
		s-2.29-1.21-2.29-1.21c0.89,2.17,2.04,4.78,2.04,4.78s-0.83,0.13-1.27,0.38c-0.45,0.25-1.59,0.32-1.53-0.51
		c0.16-2.06-0.89-5.09-0.7-6.3c0.19-1.21,1.66-1.34,2.42-1.78c0.76-0.45,2.48-1.53,3.18-2.48c0.7-0.96,4.84-9.17,4.65-9.17
		c-0.19,0,3.31-0.45,4.01-0.32s4.46,0.89,6.37,1.53c1.91,0.64,4.27,1.08,4.27,1.08s-0.19-0.19-0.7-0.76
		c-0.87-0.98-0.13-2.74-0.13-2.74s0.96,0.32,1.72,0.89c0.76,0.57,2.29,1.4,2.29,1.4l0.51-0.57c0,0,1.72,0.57,2.99,0.76
		c1.27,0.19,5.6,2.1,7.2,2.61c1.59,0.51,10.25,3.88,17.13,5.6c6.88,1.72,34.33,8.85,36.62,10.06c2.29,1.21,6.5,3.88,7.01,3.5
		c0.51-0.38,1.85-1.4,1.85-1.4s0.83,0.83,2.36,0.57c1.53-0.25,3.63-1.53,3.63-1.53s2.48,0.89,14.97,3.88
		c12.48,2.99,15.54-0.45,15.54-0.45c2.36-0.19,3.18-2.1,3.18-2.1s0.89-0.38,2.1-0.76c1.21-0.38,1.02-1.46,1.15-1.66
		c0.13-0.19,3.95-1.27,3.95-1.27l0.83,0.64c0,0,0.51-0.76,0.51-0.96c0-0.19,4.9-2.93,4.9-2.93s0.19-0.13,1.66-1.15
		c1.46-1.02,6.62-3.95,6.62-3.95l0.64,0.06l0.38-0.7l5.8-4.14l1.59,0.51c0,0-0.7-1.21-0.45-1.4c0.25-0.19,12.99-7.58,12.99-7.58
		l2.42,0.19c0,0-0.45-1.15-0.38-1.34c0.06-0.19,2.23-1.66,2.23-1.66s1.27-0.25,2.04-0.45c0.76-0.19,1.08-1.66,1.85-2.55
		c0.76-0.89,2.48-2.99,3.44-2.67c0.96,0.32,2.23,1.21,2.23,1.21s-0.13-0.51-0.45-0.96c-0.32-0.45-0.51-1.91-0.51-1.91
		s0.19-0.13,0.64-0.32c0.45-0.19,1.46-1.46,2.29-2.29s3.12-2.55,3.12-2.55s-1.27,0.13-2.04,0.51c-0.76,0.38-0.64-0.83-0.64-1.21
		s0.57-1.08,1.08-1.53c0.51-0.45,2.8-2.74,5.09-3.5c2.29-0.76,3.63-3.38,3.63-3.38l-1.78,1.15c0,0-0.45-0.64,0.64-1.53
		c1.08-0.89,2.61-2.48,2.61-2.48s-1.78-0.45-1.85-0.76c-0.06-0.32,0.96-1.66,1.46-2.29c0.51-0.64,0-1.78,0.06-1.97
		c0.06-0.19,0.45-0.89,0.76-1.15c0.32-0.25,0.64-1.4,0.19-2.17c-0.45-0.76,0.25-1.02,0.25-1.4c0-0.38,0.57-2.04,0.7-2.8
		c0.13-0.76,1.08-1.78,1.08-1.78l-1.02-0.45c0,0-0.19-1.66-0.25-2.8c-0.06-1.15-0.89-2.42-0.89-2.42s-0.32,0.83-0.64,1.91
		c-0.32,1.08-1.53,2.1-2.67,3.88c-1.15,1.78-8.72,12.04-8.72,12.04s-5.16,4.27-5.92,4.84c-0.76,0.57-0.38,2.61-0.38,2.61
		s-1.53-1.15-1.97-2.04c-0.45-0.89-1.72-0.76-1.72-0.76s0.06-4.14,0-3.95c-0.06,0.19-2.04,3.06-3.57,5.67
		c-1.53,2.61-13.06,13.12-14.52,14.78c-1.46,1.66-18.47,14.58-22.8,16.11c-4.33,1.53-11.97,6.24-11.97,6.24
		c-0.96-0.7-3.18-1.08-4.59-1.34c-1.4-0.25-6.75-2.61-7.9-2.99c-1.15-0.38-10.32-1.66-11.97-1.78c-1.66-0.13-3.06,0.57-3.06,0.57
		s-0.13-1.34-0.51-1.34c-0.38,0-2.48-0.32-2.48-0.32s-0.25-1.66-1.27-2.55c-1.02-0.89-3.44-0.25-5.16-0.25
		c-1.72,0-19.04-1.97-25.92-3.06s-26.24-5.16-27.7-5.48c-1.46-0.32-12.16-5.29-13.82-5.6c-1.66-0.32-2.61,1.21-2.61,1.21l-1.27-0.57
		c-0.19-1.59-1.97-1.78-4.9-1.91c-2.93-0.13-10.38,1.08-10.38,1.08s0.64-1.66,1.85-5.73c1.21-4.08,7.35-38.07,7.35-38.07
		s10.87-3.25,12.41-3.81c1.54-0.55,6.51-2.7,7.12-3.01c0.61-0.31,0.25-2.03,0.25-2.03c3.44,0.06,3.75-2.39,3.75-2.39
		s2.03-1.23,5.22-3.01c3.19-1.78,15.41-11.98,25.79-21.19c10.38-9.21,17.99-17.99,21.99-20.76c3.99-2.76,8.84-8.84,11.79-10.5
		c2.95-1.66,4.67-3.13,4.61-3.68c-0.06-0.55-0.74-1.41-0.55-2.09c0.18-0.68,0.86-3.01,0.86-3.01s0.98,0.25,1.11,0
		c0.12-0.25,0.12-1.04,0.12-1.04c3.19,0.55,5.04,0,5.04,0c-2.89-0.18-4.79-1.35-4.79-1.35s3.25-3.38,6.82-6.94
		c3.56-3.56,6.15-7.8,8.13-10.35c1.97-2.55,4.2-9.36,4.2-9.36c1.97,0.51,3.57-0.7,3.57-0.7c1.85,1.21,3.18,0.25,3.18,0.25
		c-1.15,0.13-1.91-0.76-1.91-0.96c0-0.19,0.83-0.76,1.91-1.21c1.08-0.45,2.55-0.89,3.57-1.21c1.02-0.32,3.18,1.21,3.18,1.21
		s-2.61-2.04-2.29-2.36c0.32-0.32,2.23-1.08,3.18-1.66c0.96-0.57,2.67-1.02,3.63-1.15c0.96-0.13,1.91-0.38,1.91-0.38s0,0,0.89-0.06
		s2.87-0.13,2.87-0.13s-0.83-0.38-1.53-0.57c-0.7-0.19-1.4-0.89-1.4-0.89s5.09-2.48,6.43-3.25c1.34-0.76,3.25-1.4,5.09-1.59
		c1.85-0.19,2.61-0.13,2.61-0.13c-0.51-0.19-2.99-0.51-2.67-1.08c0.32-0.57,3.25-2.99,5.41-4.39c2.17-1.4,3.38-1.72,4.9-1.85
		c1.53-0.13,2.29-0.45,3.76-0.7c1.46-0.25,1.08-0.64,2.36-0.57c1.27,0.06,2.1-0.51,2.1-0.51c-1.34,0-2.23-0.83-2.23-0.83
		s0,0,1.97-0.32c1.97-0.32,4.14-1.08,4.14-1.08c-1.02-0.25-1.53-0.64-1.53-0.64s0.57-0.19,1.4-0.32s1.85-1.53,4.01-1.66
		c2.17-0.13,2.29-1.15,2.29-1.15c-1.02,0.76-2.04,0.19-1.85-0.64c0.19-0.83,2.36-1.4,3.25-2.36c0.89-0.96,1.78-1.91,1.78-1.91
		s-0.76-0.19-1.27-0.06c-0.51,0.13-1.85,0-1.34-0.89c0.51-0.89,2.99-1.59,2.99-1.59c0.51,0.45,2.17,1.21,2.17,1.21
		s-0.32-0.32-0.83-0.96c-0.51-0.64,2.55-1.59,2.74-1.53c0.19,0.06,2.04,0.76,2.67,1.27c0.64,0.51,2.36,0,2.61,0
		c0.25,0,1.59,1.53,1.59,1.53l-0.25-2.8c0,0,1.02-1.59,1.66-1.02c0.64,0.57,2.36,1.02,2.36,1.02s-0.64-0.25-0.7-0.96
		c-0.06-0.7,2.23-0.64,2.42-0.64c0.19,0,1.15,1.4,1.15,1.4s-0.64-1.15-0.06-1.15c0.57,0,2.8,0.13,2.87-0.51
		C882.05,575.06,881.86,572.32,880.97,571.11z M656.55,116.95c0.07,0.76-1.45-0.48-1.45-0.48l-1.45-1.94c0,0,1.42-1.51-0.55-2.35
		c-0.48-0.21,0.28-1.73-0.21-2.29c-0.48-0.55-0.69-0.97-0.69-0.97s2.63-1.18,1.45-2.01c-1.18-0.83-3.46-1.8-3.46-1.8l-0.48-0.97
		c0,0,2.15-1.04,0.14-2.49c-2.01-1.45-1.32-3.05-1.32-3.05s1.25-0.62,0.62-1.87c-0.62-1.25-2.7-2.08-2.7-2.29
		c0-0.21-0.14-1.25-0.14-1.8c0-0.55-0.55-1.66-0.55-1.66s-0.07-1.11,0.69-2.08c0.76-0.97,1.52-1.66,1.52-1.66s0.42,0.69,1.39,1.25
		c0.97,0.55,1.52,1.52,1.39,1.94c-0.14,0.42-2.08,2.36-1.59,3.19c0.48,0.83,1.59,1.04,2.42,1.45c0.83,0.42,1.59,1.87,1.59,1.87
		s-1.45,0.55-1.04,1.32c0.42,0.76,2.01,1.8,2.01,1.8s-3.12,1.39-2.98,2.49c0.14,1.11,2.35,1.45,2.35,1.45s0,1.18,1.04,1.59
		c1.04,0.42,2.22,1.32,2.22,1.32s-1.45,0.28-1.66,1.25c-0.21,0.97,0.83,1.45,1.59,1.87c0.76,0.42,0.69,1.18,0.69,1.18
		s-2.91,0.14-2.84,0.97c0.07,0.83,0,1.52,1.25,1.66c1.25,0.14,2.01,0.42,2.01,0.42S656.49,116.18,656.55,116.95z M658.33,124.43
		c0.25-0.13,1.4-0.25,1.27-0.57s-0.83-1.27-0.83-1.27l-0.06-0.32l0.76-0.25c0,0,0,0.76,0.7,0.96c0.7,0.19,1.4,0.83,1.4,0.83
		l-0.19,1.08c0,0-2.48,0.96-2.8,0.76S658.07,124.55,658.33,124.43z M660.81,132c0,0-0.06-1.91-0.83-1.66
		c-0.76,0.25-1.15,0.13-1.21-0.57c-0.06-0.7,0.89-1.27,0.89-1.27c0.25-0.25,1.97,0.7,2.48,1.21c0.51,0.51,1.59,1.4,1.59,1.4
		s-0.7,0.32-1.02,0.57c-0.32,0.25-0.51,0.96-0.51,0.96L660.81,132z M662.85,138.63c-0.06,0.38-0.51-0.51-0.76-0.64
		c-0.25-0.13,0.38-0.83,0.57-0.89l1.21,0.38C663.87,137.48,662.91,138.25,662.85,138.63z M665.91,142.64
		c-0.7-0.51-2.1,0.83-2.1,0.83s0.45-1.27,0.76-1.78s-0.89-0.64-0.89-0.64l0.25-0.96c1.15-0.06,2.93,0.25,2.93,0.25
		C665.52,140.73,665.91,142.64,665.91,142.64z M485.36,159.39c1.02-1.08,2.29-3.69,2.36-4.65s0.96-3.69,1.4-4.65
		c0.45-0.96,1.85-2.29,1.85-2.29s0.64,1.78,1.34,3.25c0.7,1.46,1.46,2.1,1.46,2.1l0.13,2.36c0,0-0.96,0.19-1.21,1.53
		c-0.25,1.34-0.32,3.5-0.25,4.33c0.06,0.83-1.08,1.08-0.51,1.97c0.57,0.89,1.66,1.66,1.66,1.66s-2.99,0.89-3.12,2.67
		c-0.13,1.78,0.45,3.69,1.08,4.46c0.64,0.76,0.13,2.99,0.13,2.99s-1.21,3.12-1.15,3.31c0.06,0.19-2.36,0.19-2.36,0.19l-0.45-6.18
		l-3.12-5.99c0,0,0.19-1.85,0-2.36c-0.19-0.51-2.23-4.14-3.06-4.46C480.71,159.33,484.34,160.47,485.36,159.39z M526.37,652.95
		c0,0-0.64-1.66-1.53-1.53c-0.89,0.13-2.04-2.93-3.95-2.04c-1.91,0.89-4.2,1.78-4.59,1.91c-0.38,0.13-12.61-0.64-41.78-19.62
		c-29.17-18.98-36.43-26.24-36.43-26.24s-1.53-0.38-2.04-0.51c-0.51-0.13-4.59-2.42-5.48-5.48c-0.89-3.06-2.17-7.77-3.18-13.25
		c-1.02-5.48-1.78-13.88-1.91-14.39c-0.13-0.51,1.15-3.18,1.15-3.18l-1.66,1.66c0,0-1.02-2.93-2.17-3.82
		c-1.15-0.89-0.89-3.69-1.78-4.46c-0.89-0.76,0.76,0.76-1.15-10.19s-3.44-23.05-3.31-26.37c0.13-3.31,0.64-5.35,0.76-5.73
		c0.13-0.38,1.15-2.42,1.27-2.8c0.13-0.38-0.89-1.78-0.89-1.78s0.64-1.4,0.89-2.67c0.25-1.27,0.76-4.08,0.76-4.08
		s1.66,7.01,2.04,8.79c0.38,1.78,0.38,3.57,1.78,5.35c0,0,0.13,1.66,0.89,3.57c0.76,1.91,1.27,5.09,1.27,5.09s-1.4,0.76-2.42-1.66
		c0,0,0.38,2.55,2.93,3.82c0,0,1.15,2.17,2.55,3.31c1.4,1.15,1.66,1.91,1.66,1.91l-1.02,0.89l1.53,1.66c0,0,0,0.89-1.02,1.15
		c-1.02,0.25-4.84-0.25-4.84-0.25s2.29,1.4,3.69,2.04c1.4,0.64,3.06,2.04,3.95,3.18c0.89,1.15,1.66,1.78,4.08,4.46
		c2.42,2.67,6.5,7.51,10.32,11.08c3.82,3.57,25.6,20.25,34.39,27.51c8.79,7.26,39.48,29.04,40.25,29.68c0.76,0.64,2.8,4.33,2.8,4.33
		l5.6,1.02C529.81,625.69,526.37,652.95,526.37,652.95z M535.92,583.15c0.25,2.67-2.17,14.39-2.17,14.39l-4.59,1.02
		c0,0-6.37-3.95-13.12-8.92c-6.75-4.97-29.93-25.35-40.63-35.15c-10.7-9.81-13.37-12.35-16.94-15.41c-3.57-3.06-6.5-5.73-8.28-6.88
		c-1.78-1.15-4.2-1.53-4.2-1.53s-1.4-1.91-2.04-3.31c-0.64-1.4-3.18-2.55-3.69-4.84c-0.51-2.29,0.38-4.59,0.64-8.28
		c0.25-3.69,1.53-14.27,1.78-19.74c0.25-5.48-0.51-5.35-0.51-5.35s0.64-1.78,0.38-2.67c-0.25-0.89-0.38-2.42-0.38-2.8
		c0-0.38,0.89-2.04,1.53-4.71c0.64-2.67,1.78-9.3,1.78-9.3c2.93-4.46,2.93-7.13,2.93-7.13c-0.51,1.91-1.78,2.29-1.78,2.29l0.76-4.71
		c0.64-3.18,3.57-6.11,3.57-6.11l-2.42,0.89c0,0,0.76-4.2,1.78-7.77c1.02-3.57,6.5-20.25,6.5-20.25s3.31,5.09,5.48,8.53
		c2.17,3.44,5.6,6.5,5.6,6.5s-0.13,1.4-0.76,1.91c-0.64,0.51-0.76,1.78-0.76,1.78s-3.06,0.64-2.8,1.4c0.25,0.76,4.2,7.51,6.88,10.57
		c2.67,3.06,8.41,14.52,11.08,18.85c2.67,4.33,24.2,47,27.38,52.86c3.18,5.86,6.88,10.7,10.06,14.77
		c3.18,4.08,12.74,19.74,12.99,21.27c0.25,1.53,4.33,10.32,4.2,11.85c-0.13,1.53-3.57,2.29-3.57,2.29S535.67,580.47,535.92,583.15z
		 M574.39,467.18c1.43,1.34-0.19,0.38-0.19,0.38s-2.1,1.34-2.67,3.44c-0.57,2.1-0.86,3.63-0.86,3.63s-1.82-2.29-3.15-2.67
		c-1.34-0.38-2.77-1.62-3.53-3.82c-0.76-2.2-1.34-3.53-1.34-3.53s-1.05-0.67-1.34,1.05c-0.29,1.72-0.48,6.11,0,9.27
		c0.48,3.15,2.29,12.9,2.96,14.62c0.67,1.72,1.72,4.59,1.72,4.59v2.01c0,0-1.53-1.53-2.1-2.29c-0.57-0.76-1.05-0.29-1.05,1.34
		s0.29,4.3-0.38,5.54c-0.67,1.24-1.53,1.43-1.53,1.43l-0.96-2.67c0,0,1.15-2.1,0.76-2.87c-0.38-0.76-1.72,0.29-1.72,0.29
		s-2.2-6.88-2.2-8.6c0-1.72,1.24-3.06,1.24-3.82c0-0.76,0-3.25-1.34-2.87c-1.34,0.38-1.72,0-2.39,1.62c0,0-2.48-7.16-2.87-10.32
		c-0.38-3.15,1.72-6.78,1.82-9.74c0.1-2.96,1.34-13.37,1.43-17.86c0.1-4.49,0.57-6.21,0.57-7.36c0-1.15,0.67-1.34-1.15,0.67
		c-1.82,2.01-4.87,6.02-5.73,6.5c-0.86,0.48-3.73,0.96-5.25,1.15c-1.53,0.19-2.2-1.24-2.29-1.62c-0.1-0.38,1.72-3.53,0.29-7.16
		c-1.43-3.63-4.97-9.36-5.83-10.6c-0.86-1.24-1.05-1.91-1.05-1.91s1.43-2.87,1.34-4.11c-0.1-1.24-0.67-1.43-1.43-1.43
		c-0.76,0-2.58,0-3.44-0.19c-0.86-0.19-1.15-0.38-1.15-0.38l-3.34-5.35c0,0,5.73,2.8,10.06,4.84c4.33,2.04,15.28,8.41,19.87,10.83
		c4.59,2.42,7.64,4.33,9.04,5.35c1.4,1.02,2.67,3.44,2.67,3.44s-0.13,2.42-0.25,3.69c-0.13,1.27-0.13,2.55-0.13,2.55
		s2.42,4.33,3.18,5.35c0.76,1.02,2.42,2.04,2.8,1.91c0.38-0.13,1.78,2.04,1.78,2.04s-2.13,3.38-2.23,4.62
		c-0.1,1.24-0.48,5.44-0.48,5.44S572.96,465.84,574.39,467.18z M651.67,474.25c-1.72,0.86-3.25,2.67-3.25,2.67s-0.48-3.25-1.24-5.35
		c-0.76-2.1-1.53-3.06-1.53-3.06s1.82-2.58,2.1-5.73c0.29-3.15-0.76-4.78-1.24-5.92c-0.48-1.15-0.76-2.58-0.76-2.58
		c0.29,0,2.1,0.19,3.25-0.57c1.15-0.76,2.77-2.58,3.92-3.92c1.15-1.34,1.91-3.25,1.91-3.25s0.38,3.25,0.48,5.83
		c0.1,2.58,0.19,4.87,0.76,7.26s1.43,6.78,1.43,6.78s-1.62,4.3-2.58,5.64C653.96,473.39,653.39,473.39,651.67,474.25z
		 M658.93,476.35c-0.48,2.39-2.39,8.02-2.39,8.02s1.34-8.31,1.43-11.46c0.1-3.15,0.69-4.88,0.76-4.49
		C659.31,471.48,659.41,473.96,658.93,476.35z M668.96,439.76c-0.38,1.82-0.1,6.97-0.1,7.26c0,0.29-5.64,0.57-6.21,0.57
		s-2.58-0.86-4.2-2.29c-1.62-1.43-3.53-3.92-3.53-3.92c4.68-2.2,15.67-6.4,15.67-6.4S669.34,437.95,668.96,439.76z M774.87,529.91
		c0.89-0.89,3.18-4.46,3.18-4.46s1.53,1.27,1.4,2.04c-0.13,0.76-1.4,3.57-1.4,3.57l-1.4-2.04c0,0,0.13,1.15,0.13,2.93
		c0,1.78-0.51,2.93-0.51,2.93l-3.57,0.64l-0.76-2.67C771.94,532.84,773.98,530.8,774.87,529.91z M674.89,563.38
		c0,0,13.57-18.91,22.83-37.54c9.27-18.63,14.71-30.86,17.48-35.15c2.77-4.3,9.27-12.71,12.32-17.77
		c3.06-5.06,7.26-11.75,8.69-13.28s2.58-2.48,3.82-4.97c1.24-2.48,1.43-5.64,1.43-5.64s-3.44-1.72-4.2-2.67
		c-0.76-0.96-0.38-1.82-0.38-1.82s1.24-0.48,2.1-1.34c0.86-0.86,2.01-2.2,2.29-2.87c0.29-0.67,0.38-1.24,0.38-1.24
		s1.15-0.48,2.58-1.53c1.43-1.05,5.45-4.87,5.45-4.87s2.67,0,3.15,0.57c0.48,0.57,1.34,4.2,1.34,4.2s-1.43,0-0.76,0.67
		s3.06,2.77,3.06,2.77l-1.15,1.91c0,0,1.72,1.91,2.1,3.15c0.38,1.24,0.86,4.3,0.86,4.3s-1.43-0.48-2.1-1.91c0,0,1.24,3.06,1.91,4.2
		c0.67,1.15,1.53,7.74,1.53,7.74s-1.43,0.19-2.39-1.82c0,0,1.53,3.25,2.39,4.78c0.86,1.53,1.05,3.63,1.05,3.63s-1.62-2.01-1.24-0.57
		c0.38,1.43,0.57,2.77,1.43,4.39c0.86,1.62,1.91,6.97,2.1,7.26c0.19,0.29,0.86,3.06,0.86,3.06s-1.24,1.24-1.34,2.77
		c-0.1,1.53-0.57,10.89-0.57,12.9s0.19,15.95,0.48,17.29c0.29,1.34-1.05,4.97-1.05,4.97s-2.77,0.57-3.15,1.34
		c-0.38,0.76-2.48,4.01-2.48,4.01s-2.2,0.29-3.73,2.67s-6.21,5.92-7.74,7.93c-1.53,2.01-14.62,11.94-27.03,24.65
		c-12.42,12.71-25.79,23.12-28.85,25.98c-3.06,2.87-9.74,6.78-9.74,6.78S676.41,572.64,674.89,563.38z M683.8,641.61
		c-0.25-0.89-2.29-22.16-2.29-22.16s4.46-3.95,6.24-5.73c1.78-1.78,4.2-3.18,5.6-4.2c1.4-1.02,0.25-2.8,0.25-3.18
		c0-0.38,1.4-1.66,2.17-2.17c0.76-0.51,2.29,1.02,3.31,0.51c1.02-0.51,10.7-9.17,18.85-16.18c8.15-7.01,17.83-16.3,24.07-20.89
		c6.24-4.59,16.3-12.61,20.51-17.58c4.2-4.97,7.26-8.92,7.26-8.92s-1.91-0.64,0.38-0.64c2.29,0,3.69-1.53,3.69-1.53l1.53-1.53
		c-1.53,4.71-7.64,16.43-7.64,16.43s-2.67,1.27-4.59,6.11c-1.91,4.84-1.91,7.51-2.17,12.48c-0.25,4.97,0.38,23.56-0.13,25.6
		c-0.51,2.04-1.66,2.29-2.67,2.93c-1.02,0.64-0.89,2.42-0.89,2.42c-3.06,0.76-8.41,5.09-12.48,9.43
		c-4.08,4.33-18.85,13.76-31.46,20.12c-12.61,6.37-22.42,8.66-23.69,9.04s-3.06,1.4-3.06,1.4S684.06,642.5,683.8,641.61z
		 M764.11,629.58c-0.06,0.19-0.89-1.59-0.89-1.59c0.06,2.48-0.96,4.2-0.96,4.2c-4.14,0.76-5.73,2.67-5.73,2.67s-0.57,0-1.21-0.06
		c-0.64-0.06-1.15,2.36-1.72,4.39c-0.57,2.04-3.63,5.99-6.81,11.85c-3.18,5.86-13.82,17.77-20.83,24.9
		c-7.01,7.13-12.16,9.43-12.61,9.81c-0.45,0.38-1.66,0.76-2.23,0.83c-0.57,0.06-0.51,0.45-0.96,1.21c-0.45,0.76-6.11,3.76-6.11,3.76
		s-1.08-1.15-1.27-1.08c-0.19,0.06-0.32,1.78-0.32,1.78l-1.97,0.89c0,0-0.32-1.15-1.15-1.02c-0.83,0.13-2.67,1.34-2.67,1.34
		s-0.06-1.34-0.89-1.08s-0.7,1.34-1.59,2.61c-0.89,1.27-8.66,4.2-8.66,4.2c-0.64-13.18-0.64-27.89-0.51-28.15
		c0.13-0.25,3.69-4.2,4.71-4.71c1.02-0.51,0.89-1.46,0.89-1.46s9.49-2.8,25.66-9.74c16.18-6.94,28.79-15.67,34.07-18.79
		c5.29-3.12,10.38-8.02,14.39-10.19c0.16-0.09,0.31-0.19,0.47-0.28c-0.15,0.47-0.31,1.03-0.4,1.43
		C764.62,628.11,764.17,629.39,764.11,629.58z M765.89,627.22l-0.27-1.63c1.17-0.82,2.21-1.93,3.07-3.05
		c-0.13,0.55-0.43,1.76-0.76,2.39C767.48,625.75,765.89,627.22,765.89,627.22z"/>
	<path d="M576.22,393.86c0.01-0.03,0.02-0.04,0.02-0.04S576.23,393.83,576.22,393.86z"/>
</g>
</svg>
