<?xml version="1.0" encoding="utf-8"?>
<!-- Generator: Adobe Illustrator 24.1.3, SVG Export Plug-In . SVG Version: 6.00 Build 0)  -->
<svg version="1.1" id="圖層_1" xmlns="http://www.w3.org/2000/svg" xmlns:xlink="http://www.w3.org/1999/xlink" x="0px" y="0px"
	 viewBox="0 0 1200 1200" style="enable-background:new 0 0 1200 1200;" xml:space="preserve">
<g>
	<path d="M542.65,540.65c3-2.12,4.93-2.47,5.86-3.55c0.92-1.08,4.32-5.24,5.86-6.32s9.09-4.32,11.87-5.7
		c2.77-1.39,9.25-4.93,15.41-5.39c6.17-0.46,16.18-0.77,17.42-0.92c1.23-0.15,4.01-1.39,7.4,0.46c3.39,1.85,8.79,4.32,11.87,5.24
		c3.08,0.92,5.86,3.7,8.17,4.16c2.31,0.46,5.7,2.16,8.63,2s3.39,1.08,5.24,1.7c1.85,0.62,5.24,0.92,6.47,1.7s5.55,4.16,7.71,7.55
		c2.16,3.39,7.71,15.41,11.1,21.73c3.39,6.32,9.25,13.26,11.56,22.19s2.93,16.49,4.32,21.42c1.39,4.93,1.85,10.79,1.23,14.33
		c-0.62,3.55-0.92,6.17-0.46,7.55c0.46,1.39,1.7,3.54,3.08,8.94c1.39,5.39-0.46,7.55-2.16,10.64c-1.7,3.08-7.24,11.41-10.17,12.02
		c-2.93,0.62-4.78,2.47-5.86,3.7c-1.08,1.23-3.24,3.08-5.7,3.24c-2.47,0.15-6.17,2-7.24,2.31c-1.08,0.31-15.57,0.62-20.5,2.77
		c-4.93,2.16-6.78,4.47-12.18,5.24c-5.39,0.77-12.18,0.62-16.49,1.23c-4.32,0.62-22.04,6.17-33.91,0
		c-11.87-6.17-12.33-12.48-14.03-15.72s-4.62-6.32-6.17-7.55s-5.09,0.15-5.7-1.85s-1.08-3.24-1.08-3.24s-3.85-5.55-8.94-11.56
		s-8.17-9.4-8.48-15.1c-0.31-5.7-1.39-7.55-1.54-10.64c-0.15-3.08,0.46-5.39-0.62-7.86c-1.08-2.47-3.24-3.24-4.16-7.71
		s-0.92-7.24-1.23-9.25c-0.31-2-1.85-8.01-3.39-9.09s-2.31-1.85-1.08-2.62s1.85-0.77,2.16-3.39c0.31-2.62,0.92-7.09,2.16-9.56
		c1.23-2.47,8.32-6.63,11.41-10.33C533.55,549.74,537.41,544.35,542.65,540.65z"/>
</g>
</svg>
