<?xml version="1.0" encoding="utf-8"?>
<!-- Generator: Adobe Illustrator 24.1.3, SVG Export Plug-In . SVG Version: 6.00 Build 0)  -->
<svg version="1.1" id="圖層_1" xmlns="http://www.w3.org/2000/svg" xmlns:xlink="http://www.w3.org/1999/xlink" x="0px" y="0px"
	 viewBox="0 0 1200 1200" style="enable-background:new 0 0 1200 1200;" xml:space="preserve">
<style type="text/css">
	.st0{fill-rule:evenodd;clip-rule:evenodd;}
</style>
<g>
	<path d="M664.68,470.16c5.43,1.59,7.47,3.4,8.27,5.32c0.79,1.92,2.15,8.04,2.15,8.04s5.21,5.43,6.91,6.91
		c1.7,1.47,2.94,4.08,2.94,4.08s-1.36,1.13-0.45,1.81c0.91,0.68,4.98,2.94,6,3.96s3.28,4.64,3.28,4.64l1.02,3.06l2.49,1.02
		c0,0-0.17-1.08,0.79-0.11c0.96,0.96,0.51,0.62,0.96,0.96c0.45,0.34,0.85,0.4,1.02,0.57c0.17,0.17,1.53,2.09,2.21,2.89
		c0.68,0.79,1.25,2.72,1.76,3.34s3.17,3.85,3.17,3.85s4.81,4.36,5.43,5.43c0.62,1.08,1.36,2.94,1.36,2.94s1.81,1.59,2.38,2.38
		c0.57,0.79,0.91,2.49,0.91,2.49s2.32,2.89,3.17,3.51s2.89,4.13,3.28,5.1c0.4,0.96,0.91,2.15,0.51,2.66s-0.79,0.79-0.79,0.79
		l-0.06,2.32c0,0,2.32,1.42,2.38,2.49c0.06,1.08-0.45,4.3-0.45,4.3s1.7,0,1.3,1.3c-0.4,1.3-2.09,2.32-2.09,2.32
		s-1.19,1.76-2.04,1.13s-1.59-0.91-1.59-0.91s-3.79,0.96-5.77-0.34c-1.98-1.3-4.81-3.91-4.81-3.91s-2.32-0.06-3.91-1.42
		c-1.59-1.36-2.94-3.06-2.94-3.06s-5.49-1.3-8.21-3.23c-2.72-1.92-7.3-3.23-7.3-3.23s-1.13,0.91-1.81,1.92
		c-0.68,1.02-3.17,1.59-3.17,1.59s1.76,2.32,2.38,3.96s2.38,6.68,3.4,8.83s4.42,8.15,5.83,9.57c1.42,1.42,1.87,2.43,2.32,3.91
		s2.44,1.9,2.15,3.06c-0.23,0.91-0.79,0.68-0.79,0.68s4.08,6,4.76,7.25c0.68,1.25,3.51,6.68,4.25,8.21s4.53,6.34,5.77,7.25
		s4.47,1.42,5.43,2.94c0.96,1.53,0.4,3.11-0.62,3.34c0,0,5.83,6.74,6.28,7.53c0.45,0.79,2.66,1.3,3.11,2.77
		c0.45,1.47,2.94,3.17,2.94,3.17s1.13-0.68,1.64,0.17s0,1.36,0,1.36s1.59,1.25,1.81,2.15c0.23,0.91,0,2.15,0,2.15s2.49,1.25,3,2.77
		s1.08,3,1.98,3.45c0.91,0.45,2.26,0.79,3.96,3.06c1.7,2.26,2.55,6.4,3.51,7.7c0.96,1.3,1.53,1.3,1.36,1.81
		c-0.17,0.51,0.96,1.08,1.64,2.43c0.68,1.36,0.45,3.4,0.79,4.42c0.34,1.02,1.7,1.81,1.87,3.34c0.17,1.53,0.4,3.68,0.4,3.68
		s2.6,1.36,2.66,2.55c0.06,1.19-0.11,1.25,0.17,1.42c0.28,0.17,0.91,0.91,1.42,1.98c0.51,1.08,0.57,2.49,1.02,2.94
		c0.45,0.45,1.3,1.08,1.76,2.32c0.45,1.25,1.19,4.81,1.59,5.66s0.96,1.98,0.96,1.98s1.47,0.11,1.92,0.68
		c0.45,0.57,1.08,2.55,1.08,2.55s0.74,1.98,1.42,3c0.68,1.02,1.02,1.02,1.76,1.98c0.74,0.96,0.45,1.59,1.64,2.55
		c0,0,2.26,2.15,2.32,2.77c0.06,0.62-1.02,0.79-0.79,0.91c0.23,0.11,1.47,1.59,1.76,1.53c0.28-0.06,0.96-0.4,1.7,0.23
		s3,2.32,3.79,3.34s1.19,2.43,1.36,2.6c0.17,0.17,1.7,1.36,2.77,3.68c1.08,2.32,1.53,3.68,2.89,4.93s3.06,3.85,4.08,4.87
		s0.68,2.49,0.91,2.94c0.23,0.45,5.15,5.15,7.13,7.93s3.68,4.93,5.04,6.74s3.62,4.19,4.19,4.3c0.57,0.11,0.57-0.68,1.08-0.28
		s0.68,0.91,0.68,0.91s-0.45,0.23-0.28,0.85s0.45,1.25,0.34,1.59c-0.11,0.34-0.34,0.68-0.34,0.68l1.19,0.85c0,0,0.28-0.96,1.19-0.51
		c0.91,0.45,0.96,1.08,1.59,1.02c0.62-0.06,1.47,0.11,1.47,0.11s-0.11,0.79-0.51,0.96c-0.4,0.17-0.34,0.57-0.68,1.02
		c0,0,0.4,1.42-0.11,2.15c-0.51,0.74-1.7,2.6-3.06,2.49c0,0-0.51,1.19-1.3,1.08s-0.79-0.11-0.79-0.11s-0.62,1.08-1.59,0
		c0,0-0.68,0.45-0.11,1.25c0,0,0.49,0.15,0.15,0.42c-0.34,0.26-0.91-0.08-1.09-0.42c-0.19-0.34-0.04-1.09-0.04-1.09
		s-0.75-0.08-0.87-0.42c-0.11-0.34-0.08-1.13-0.19-1.32s-0.68-1.51-0.68-1.51s-1.55-0.26-1.85-0.26s-0.42,0.19-0.42,0.19
		s-3.17-3.17-3.55-3.4c-0.38-0.23-0.34-0.34-1.43-1.43c-1.09-1.09-2.87-2.87-3.28-2.83s-0.57,0.57-1.32-0.11
		c-0.75-0.68-3.06-3.43-3.06-3.43s-3.93,0.75-4.94,0.94c-1.02,0.19-3.13,0.26-3.13,0.26s-1.74,1.96-2.53,2.38s-1.51,0.3-2.08,0.57
		c-0.57,0.26-1.81-0.15-2.3-0.42c0,0-0.42,0.49-1.32,0.34c-0.91-0.15-0.83-0.3-0.83-0.3s-1.06,1.36-1.77,1.25s-2.04-1.59-2.49-1.81
		c-0.45-0.23-1.59-1.06-1.62-1.85c-0.04-0.79,0.91-1.96,0.91-1.96s-0.6-1.66-0.75-1.74c-0.15-0.08-0.64,0.79-1.32,0.26
		s-2.34-2.26-2.64-2.26s-0.45,0.98-1.25,0.57s-1.13-0.45-1.77-0.87s-2.76-2.83-3.51-3.43c-0.75-0.6-3.66-2.53-3.66-2.53
		s-1.25,0.57-2.34-0.08c-1.09-0.64-3.02-2.64-3.74-3.13s-1.74-0.83-2.79-1.51c-1.06-0.68-2.3-1.47-2.3-1.47s-0.34,1.7-0.64,2.6
		c-0.3,0.91-0.64,2.3-0.3,2.87c0.34,0.57,1.25,1.32,1.09,1.47c-0.15,0.15-1.02,1.47-1.55,1.25c-0.53-0.23-1.47-0.94-2-1.02
		c-0.53-0.08-1.28,0.08-1.47-0.72c-0.19-0.79,0.15-2.79-0.08-3.09c-0.23-0.3-0.75-1.43-0.91-2.34c-0.15-0.91-0.3-3.02-0.57-3.43
		c-0.26-0.42-1.51-1.43-2.3-1.77c-0.79-0.34-0.38,0.15-1.59-0.83c-1.21-0.98-5.02-5.02-5.51-5.43c-0.49-0.42-2-1.7-2.72-2.26
		c-0.72-0.57-1.92-1.4-1.92-1.4s-1.47,0.04-2.76-0.19c-1.28-0.23-1.92-0.26-3.02-1.21c-1.09-0.94-3.25-4.08-3.66-4.64
		c-0.42-0.57-1.89-2.34-2.53-2.83c-0.64-0.49-5.55-4.19-8.49-6.91c-2.94-2.72-4.53-5.13-5.81-6.42c-1.28-1.28-4.34-4.49-6.27-6.72
		c-1.92-2.23-2.64-3.32-3.28-4.49c-0.64-1.17-1.66-3.77-1.92-3.89c-0.26-0.11-2.19-1.28-2.42-1.74s0.34-1.32,0.19-1.55
		c-0.15-0.23-0.6-0.68-1.13-1.21c-0.53-0.53-0.38-1.43-0.45-1.66s-0.57-1.09-1.36-1.06c-0.79,0.04-0.64,0.79-1.09,0.34
		c-0.45-0.45-2.87-3.32-3.47-4.08c-0.6-0.75-0.68-1.66-1.77-2.68c-1.09-1.02-2.38-2-2.72-2.72s-1.13-1.89-1.62-2.08
		c0,0-0.98,0.45-2-0.26s-2.91-2.23-3.06-3.51c-0.15-1.28,0.19-1.77,0.11-2.53c-0.08-0.75,0.23-1.43-0.19-1.77
		c-0.42-0.34-0.72-0.57-0.72-0.57s0.04,0.57-0.87-0.42c-0.91-0.98-1.13-2.72-1.13-2.72l-2.72-2.72c0,0-0.75,0.08-1.21-0.3
		c-0.45-0.38-3.93-4.15-4.38-4.45c-0.45-0.3-1.51-0.68-1.47-1.17c0.04-0.49,0.38-0.91,0.23-1.06c-0.15-0.15-2.42-4.08-2.83-4.42
		s-1.13-0.53-1.32-1.55c-0.19-1.02-0.15-2.57-0.42-3.43c-0.26-0.87-0.79-2.6-1.32-3.28c-0.53-0.68-2.26-1.66-2.6-2.68
		c-0.34-1.02,0.49-1.92,0.49-1.92s-4.38-5.21-5.13-5.59c-0.75-0.38-2.42-0.91-4-1.21c-1.59-0.3-2.87-0.83-4.53-3.09
		s-3.93-4.23-3.74-10.38c0.19-6.15,0.53-8.53,1.7-10.53c1.17-2,1.47-3.89,2.11-5.06s-0.91-3.09-0.68-3.85
		c0.23-0.75-0.11-1.55-0.11-1.55s-2.3-0.72-3.4-0.38c-1.09,0.34-2.15-0.57-3.4,0.98s0.13,1.57-1.34,2.13
		c-1.47,0.57-2.77,1.08-2.77,1.08s0.11,1.36-1.3,1.64c-1.42,0.28-3.4,0.23-4.7-0.06c-1.3-0.28-2.04-0.45-2.04-0.45
		s-1.76,0.96-2.49,1.92c-0.74,0.96-2.38,3.28-3.23,4.81s-2.09,2.32-4.13,2.89c-2.04,0.57-4.76,0-4.76,0s-4.64,2.6-5.94,3.68
		s-2.77,3-3.74,3.28c-0.96,0.28-1.81,1.02-1.81,1.02s0.34,0.91-0.4,1.19c-0.74,0.28-2.15,1.25-2.15,1.25l-3.45,1.42l-2.04,2.26
		c0,0,1.08,1.08-1.36,2.72l-2.21,1.87c0,0,0.4,0.4-1.02,1.59c0,0-0.51,2.21-1.64,3c-1.13,0.79-4.02,3.11-4.02,3.11s0.4,0.96-0.4,1.3
		c-0.79,0.34-2.94,1.36-2.94,1.36s-1.44,2.03-2.32,2.32c-0.68,0.23-0.85-0.06-0.85-0.06s-2.15,2.49-2.43,2.55
		c-0.28,0.06-2.66,3.11-3.91,3.45c0,0,0.34,1.47-0.85,2.55c-1.19,1.08-5.32,6.34-5.32,6.34s1.19,0.96-0.11,2.26
		c-1.3,1.3-3,2.77-3.23,2.89c-0.23,0.11-1.92,1.92-2.09,2.21c-0.17,0.28,0.34,1.36-0.45,2.26c-0.79,0.91-1.98,2.66-1.98,2.66
		s2.72,1.36,1.13,3.28c-1.59,1.92-3.79,4.81-5.15,5.6c-1.36,0.79-6.4,0.74-6.4,0.74l-6.51,5.38c0,0-0.79,2.04-1.47,2.94
		c-0.68,0.91-2.04,2.26-2.04,2.26s0.68,1.25,0,1.36c-0.68,0.11-2.77-0.85-2.77-0.85s-1.42,1.19-2.38,1.59s-2.72,1.13-3.57,1.08
		c-0.85-0.06-2.26-0.68-2.26-0.68s-0.45,2.04-1.02,2.72c-0.57,0.68,0.45,1.92-0.57,2.72c-1.02,0.79-1.76,1.42-1.76,1.42
		s0,1.7-0.51,2.09s-2.15,0.34-2.15,0.34s-4.64,3.4-6.06,3.91c-1.42,0.51-3.74,0.79-4.81,1.19c-1.08,0.4-3.28,3.17-3.57,3.34
		c-0.28,0.17,1.13,0.34-0.17,2.09c-1.3,1.76-4.53,3.85-6,4.3c-1.47,0.45-3.74,0-4.02,0.28c-0.28,0.28-1.02,2.15-2.04,2.72
		c-1.02,0.57-2.04,2.26-4.19,3.06c-2.15,0.79-9.28-0.57-9.28-0.57s-1.98,3.23-4.42,2.26c-2.43-0.96-8.32-5.15-8.32-5.15
		s-2,1.62-2.83,1.85s-2.42,0-2.42,0s-1.74-0.23-2.57-0.15c0,0-1.43,0.38-2.04,0.68c-0.6,0.3-3.17-0.45-3.02-1.66
		s-0.91-0.45-0.53-1.28c0.38-0.83,0.3,0,1.21,0.15c0.91,0.15,0.75-0.75,0.75-0.75s0.08-0.98,0.15-1.66
		c0.08-0.68-0.98-2.49-1.13-2.79s-1.96-2.11-1.96-2.11s-1.74-0.23-3.32-1.21c-1.59-0.98-3.4-2.49-3.93-3.02
		c-0.53-0.53-4.45-2.19-4.83-2.42c-0.38-0.23-2.49-0.83-3.32-0.91s-3.77,0.75-4.83,1.06s-2.11,1.21-2.79,0.53
		c-0.68-0.68-2.72-0.75-2.72-0.75s-3.4,2.49-4.38,2.26c-0.98-0.23-2.49-0.98-2.87-2.72c-0.38-1.74-4.15-14.87-4.15-14.87L393.2,654
		c0,0-1.59-1.43-2.04-2.49s1.59-3.25,1.06-4.08c-0.53-0.83-0.98-1.89-0.3-2.11s1.59-0.83,1.59-0.83s-1.81-1.66-2.72-3.02
		c-0.91-1.36-1.36-3.62-1.43-4.45c-0.08-0.83-1.66-1.96-1.66-3.32s-1.96-3.62-0.98-5.51c0.98-1.89,0-4.83,0-4.83
		s-0.45-3.32,1.13-4.76c1.59-1.43,3.85-2.19,3.85-2.19s0.91-2.11,1.74-3.25s1.66-1.51,1.66-1.51s-1.43-0.23-1.66-3.02
		c-0.23-2.79-1.81-4.83,2.49-8.23c4.3-3.4,7.4-5.28,9.51-7.25c2.11-1.96,4.45-4.45,2.87-8.45c-1.59-4-4.15-7.93,0.6-11.17
		c4.76-3.25,9.13-4.91,10.57-6.04s2.87-1.81,5.59,0c0,0,3.85-1.28,7.4-2.42s5.21-2.64,6.87-4c1.57-1.98,3.49-5.72,3.49-5.72
		s1.47-13.36,3.74-18s4.25-6.96,4.53-7.47c0.28-0.51,1.25-1.47,3.4-4.3c2.15-2.83,3.79-8.21,7.02-9.17c3.23-0.96,9.11-1.87,9.4-2.04
		c0.28-0.17,2.09-2.55,3.06-2.94c0.96-0.4,1.87-0.4,1.87-0.4s0.04-2.04,1.09-3.4c1.06-1.36,1.74-1.89,1.74-1.89s-2.42-0.6-0.83-3.09
		c1.59-2.49,3.55-3.25,3.55-3.25s-0.68-1.13-0.3-2.11s0.98-2.79,0.98-3.25s-0.45-2.72-0.53-3.55c-0.08-0.83,1.36-2.87,1.36-2.87
		s-0.68-1.59-0.15-2.11c0.53-0.53,1.66-1.96,2.04-2.49c0.38-0.53,1.13-1.13,1.59-2.04s2.42-2.11,2.19-3.09
		c-0.23-0.98-0.15-2.87,0.53-3.85s2.87-1.66,2.87-1.66l2.19-0.53c0,0,0,1.36,1.51,1.21c1.51-0.15,2.11-1.21,2.11-1.21
		s0.68-0.98,0.3-1.21c-0.38-0.23,1.06-0.3,1.89-0.23c0.83,0.08,1.13,0.53,1.13,0.53l0.91-0.15c0,0,0.53-0.83,1.13-0.83
		s1.36,0.45,1.36,0.45l1.3,0.25c0,0,0.57-0.79,1.25-0.79s1.7-0.45,2.26-0.57c0.57-0.11,1.3,0.4,1.64,0.28s1.3-1.3,1.87-1.3
		c0.57,0,1.08,0.51,1.3,0.28c0.23-0.23,0.62-0.17,0.96-0.62s1.19-0.85,1.19-0.85l0.79,0.79l-0.28,0.28c0,0,1.25,0.11,1.53-0.06
		c0.28-0.17,0.91-0.79,1.3-0.96s1.42,0.51,1.7,0.34c0.28-0.17,1.87-1.64,1.87-1.64s0.79,0.57,1.19,0.51c0.4-0.06,1.3-0.51,1.3-0.51
		l1.81-0.34c0,0,0.79-1.47,1.25-1.36c0.45,0.11,0.74,1.19,1.25,1.13c0.51-0.06,2.89,0.17,2.89,0.17s-1.19-0.85-1.08-1.08
		c0.11-0.23,0.28-0.74,0.68-0.57s1.19,0.85,1.19,0.85s1.13-0.34,1.02-0.57c-0.11-0.23-1.42-1.19-0.62-1.08
		c0.79,0.11,1.53,0.74,1.53,0.74s1.13-1.81,1.92-1.92c0.79-0.11,2.66,0.06,2.66,0.06l2.83-1.7c0,0,0.34-1.81,1.7-1.59
		c1.36,0.23,1.81,0.34,2.32-0.17s0.91-1.36,1.3-0.96c0.4,0.4,1.25,1.02,1.25,1.02s0.85-0.85,1.42-0.85c0.57,0,1.19-1.08,1.7-1.02
		s0.62,0.51,1.19,0.62c0.57,0.11,1.02-0.45,0.28-0.62s0.17-0.85,1.19-1.19c1.02-0.34,3.28-0.57,4.36-0.85
		c1.08-0.28,5.89-0.34,7.19-1.08c1.3-0.74,1.92-1.36,3.28-1.36s3.28-0.57,4.76-1.02c1.47-0.45,4.53,0.45,6.57,0.91
		s7.19,1.76,9.34,1.87s6.11,0.57,8.04,0.91c1.92,0.34,4.53,0.68,6.74,1.08c2.21,0.4,4.7,1.76,6.06,2.43
		c1.36,0.68,2.77,1.87,2.77,1.87s-0.28-0.74,1.36,0.23c1.64,0.96,3.06,1.13,3.51,1.13s2.55,0.85,4.76,0.57
		c2.21-0.28,9.06-0.68,11.55-0.34c2.49,0.34,7.25,2.04,9,2.09s3.17,0.79,4.36,1.53c1.19,0.74,4.42,2.15,4.42,2.15l8.04,3.06
		c0,0,0.45,1.25,0.62,0.74c0.17-0.51,0.57-1.25,1.13-1.25c0.57,0,1.3,0.17,1.3,0.17L664.68,470.16z"/>
</g>
</svg>
