<?xml version="1.0" encoding="utf-8"?>
<!-- Generator: Adobe Illustrator 24.1.3, SVG Export Plug-In . SVG Version: 6.00 Build 0)  -->
<svg version="1.1" id="圖層_1" xmlns="http://www.w3.org/2000/svg" xmlns:xlink="http://www.w3.org/1999/xlink" x="0px" y="0px"
	 viewBox="0 0 1200 1200" style="enable-background:new 0 0 1200 1200;" xml:space="preserve">
<style type="text/css">
	.st0{fill-rule:evenodd;clip-rule:evenodd;}
</style>
<g>
	<path d="M645.26,665.44c4.55-8.53,7.96-15.36,7.96-15.36s5.69-12.51,8.53-17.63c2.84-5.12,21.04-19.91,25.59-29.58
		s21.61-36.4,23.32-46.64c1.71-10.24,2.84-25.59,2.84-25.59s5.12-18.77,9.1-26.16c3.98-7.39,14.79-35.26,14.22-41.52
		c-0.57-6.26-3.41-17.06-5.12-18.77c-1.71-1.71-32.99-34.13-32.42-38.68c0.57-4.55,1.14-11.38-1.14-10.81s-2.84-14.22-2.84-14.22
		l-9.67-20.48c0,0,6.83-5.69,7.39-9.1c0.57-3.41,0.57-13.08,0-15.93c-0.57-2.84-3.98-12.51-3.98-12.51l-6.83-3.98
		c0,0,1.71-5.12-1.14-8.53s-3.98-7.96-3.98-7.96s-3.98-8.53-9.1-10.81s-11.38-4.55-11.38-4.55s-4.55-4.55-7.96-5.12
		s-17.06,1.14-17.06,1.14s-11.38-9.67-15.36-13.08c-3.98-3.41-19.34-15.93-23.32-17.06c-3.98-1.14-18.2,0.57-18.2,0.57
		s-5.69-10.24-7.39-10.81c-1.71-0.57-8.53-0.57-14.22,0s-8.53-3.98-13.08-2.84s-16.49,9.1-16.49,9.1c-6.26,6.26-6.26,6.26-6.26,6.26
		s-34.13,48.91-36.4,58.01s-7.39,48.91-6.83,74.51s5.12,52.89,4.55,62.56c-0.57,9.67,1.14,17.63,1.71,31.85s-2.28,40.38,0,59.72
		c0,0-5.69,2.28-3.98,14.79c1.71,12.51,11.94,22.75,11.94,29.58c0,6.83-0.57,18.77,0.57,23.89c1.14,5.12,5.69,15.36,8.53,19.34
		c2.84,3.98,5.12,13.65,4.55,17.63c-0.57,3.98-5.69,13.08-0.57,18.2c5.12,5.12,12.51,5.69,15.36,11.38
		c2.84,5.69-1.14,16.49-2.84,16.49s-6.83-3.98-6.83-3.98s-3.41,3.41-0.57,6.26c2.84,2.84,4.31,10.68,12.27,6.7
		c0,0-0.57,13.28,0,20.11c0.57,6.83,2.14,26.11-0.21,26.58c-2.35,0.47-3.77-3.3-3.77-3.3s2.35,7.06,3.77,10.36s2.66,31.9,1.24,38.02
		c-1.41,6.12-5.01,5.77-5.01,5.77l-3.77,7.06c0,0-3.3,1.41-6.59,0c-3.3-1.41-3.3-5.18-4.71-4.24s-6.12,5.18-3.3,5.65
		c2.83,0.47,3.3-0.94,6.12,1.41c2.83,2.35,1.41,9.42,1.41,9.42s-10.83,10.36-12.24,12.71c-1.41,2.35-10.36,20.25-13.19,29.2
		c-2.83,8.95,0,25.9-1.88,28.73c-1.88,2.83-12.24,10.83-12.24,10.83s-4.71,5.18,4.24,14.6c8.95,9.42,16.01,15.54,18.37,17.42
		s10.83,10.36,16.48,11.3c5.65,0.94,14.6-0.47,14.6-0.47s15.54,12.24,20.72,15.54s17.42,3.3,22.6-1.41
		c5.18-4.71,14.6-6.59,18.37-12.24c3.77-5.65,18.37-22.13,18.37-22.13s8.01-0.47,10.83-3.77s9.89-15.07,12.24-21.19
		c2.35-6.12,12.24-24.02,16.95-24.02c4.71,0,2.35-4.71,2.83-7.06c0.47-2.35,8.01-13.66,8.48-18.84c0.47-5.18-6.12-11.77-10.36-14.6
		c-4.24-2.83-7.53-13.19-6.59-16.48c0.94-3.3,4.24-4.24,4.24-11.3s-0.94-8.96-0.47-18.38c0.47-9.42,1.41-13.19,0-12.71
		c-1.41,0.47-7.53,7.06-7.53,7.06s0,7.53,2.35,4.71c2.35-2.83,1.88-4.71,1.88-4.71s1.41,8.48-2.35,9.89s-5.18-12.71-3.77-20.72
		c1.41-8.01-2.35-7.06-2.35-7.06v2.83c0,0,0,4.71-0.47,9.89s0.94,12.71-1.41,13.19c-2.35,0.47-6.93-20.24-6.93-22.12
		s-0.47-11.3-0.47-11.3l-0.2-5.76c0,0,1.08-14.97,0.52-25.78c-0.57-10.81,3.09-31.29,3.09-33c0-1.71,14.69-14.02,18.1-19.71
		C640.14,666,645.26,665.44,645.26,665.44z"/>
</g>
</svg>
