<?xml version="1.0" encoding="utf-8"?>
<!-- Generator: Adobe Illustrator 24.1.3, SVG Export Plug-In . SVG Version: 6.00 Build 0)  -->
<svg version="1.1" id="圖層_1" xmlns="http://www.w3.org/2000/svg" xmlns:xlink="http://www.w3.org/1999/xlink" x="0px" y="0px"
	 viewBox="0 0 1200 1200" style="enable-background:new 0 0 1200 1200;" xml:space="preserve">
<style type="text/css">
	.st0{fill-rule:evenodd;clip-rule:evenodd;}
</style>
<g>
	<path d="M579.53,333.26l1.5-2.7c0,0,3.89,1.5,5.69,3c1.8,1.5,3.3,4.49,3,7.79c-0.3,3.3-0.3,12.58-0.3,12.58s3.3,4.19,3.3,7.79
		c0,3.59-1.5,13.18-0.6,14.38c0.9,1.2,2.1,3.59,2.1,3.59l-2.4,3c0,0,2.7,1.5,3,4.49c0.3,3-0.9,3-2.4,2.7l1.5,8.39
		c0,0,2.1,2.4,2.4,4.79l8.39,415.3c0,0,1.05,36.4,1.05,37.75s0.75,7.64,0.75,7.64l-6.74,5.69c0,0-7.34-3.74-8.24-4.49
		c-0.9-0.75-3.74-3.15-3.74-3.15l-1.8-31.76c0,0,0.15-6.74-1.35-9.29c-1.5-2.55-4.49-7.49-4.49-7.94c0-0.45-0.75-406.98-0.75-406.98
		s-2.1-2.1-2.85-5.09c-0.75-3-0.15-6.44-0.3-6.89c-0.15-0.45,1.35-3.3,1.2-3.89c-0.15-0.6-0.45-3.74-0.15-5.24
		c0.3-1.5,2.85-5.24,2.85-5.24s1.5-12.43,1.35-16.48c-0.15-4.04,2.1-25.02,2.1-25.91s-0.6-2.1-0.6-2.1l-1.95-2.1L579.53,333.26z"/>
	<path d="M602,403.59l-2.1,2.1h-4.79c0,0-2.7,0.3-5.09,1.5s-8.39,3.6-8.39,3.6s-6.59,3.59-10.49,5.69c-3.89,2.1-6.59,5.39-7.79,8.09
		c-1.2,2.7-8.69,5.09-12.58,8.69c-3.89,3.6-10.49,8.99-13.78,16.78c-3.3,7.79-4.49,14.08-3.89,20.67c0.6,6.59,4.79,11.08,7.49,14.98
		c2.7,3.89,8.69,12.88,10.78,15.58c2.1,2.7,2.4,4.79,2.4,4.79l-2.4-0.6c0,0,0,0,0,3.3c0,3.3,1.2,3.6,2.4,5.69
		c1.2,2.1,0.6,5.09,0.6,8.99s0,6.89,0.9,9.29c0.9,2.4,5.39,6.59,8.09,6.59s5.69-1.2,5.69-1.2s0.9,2.1,3,2.7
		c2.1,0.6,1.2-4.19,1.2-4.19s3.89,0.6,5.99,1.8c2.1,1.2,3.59-2.1,5.39-2.7c1.8-0.6,6.89-0.3,8.09,0c1.2,0.3,8.39,2.1,10.49,2.1
		c2.1,0,10.78,0.3,13.78,0c3-0.3,3.59-1.8,5.69-3c2.1-1.2,10.49-4.19,10.49-4.19s4.79-6.89,6.29-10.19s4.19-11.68,4.19-13.78
		s3.3-1.8,4.49-4.49c1.2-2.7,3-8.09,2.7-9.89c-0.3-1.8-0.6-5.39-0.6-7.19s3.3-1.8,3-4.19c-0.3-2.4-0.9-8.09-0.9-8.09
		s2.1-1.5,1.5-2.7s-1.2-5.99-3.3-7.79c-2.1-1.8-1.2,1.8-1.2,1.8l-1.8-0.9l-1.5-11.68c0,0-0.9-24.27-0.9-25.76
		c0-1.5-5.39-11.38-5.39-11.38c-0.6-4.19-5.39-3.89-5.39-3.89s-3.3-3-5.39-5.69c-2.1-2.7-9.59-8.69-11.68-8.99
		C615.18,395.5,602,403.59,602,403.59"/>
	<path d="M597.21,545.29c4.19-2.7,29.36-11.08,32.65-12.88c3.3-1.8,6.29-0.3,6.29-0.3s0.3-2.4,1.8-1.5s3-1.2,5.39,0.3
		c2.4,1.5,3,3,3.59,5.39c0.6,2.4,2.1,2.4,2.4,3.59c0.3,1.2,0,5.69,0,5.69s1.5,4.79,2.7,5.09c1.2,0.3,1.5-2.1,2.1-0.3l-0.3,4.19
		l-3.3,9.29c0,0,2.4,1.2,2.4,3.89s-4.19,4.49-4.19,4.49l0.9,8.09c0,0,3.59-2.4,5.69-2.1c0,0,4.19-0.9,5.09,1.2
		c0.9,2.1-3,3.89-3,3.89s-2.1,3.59-2.7,5.39s-1.5,6.29-0.9,9.29c0.6,3,1.2,6.29,0.9,7.79c-0.3,1.5-1.5,5.69-1.5,5.69l2.1,4.79
		l-2.4,6.89l1.5,5.39l-2.4,1.8l-1.5-0.6l-0.3,4.19l2.1,3.89l-1.8,4.19l-3.89,4.79l-1.2,4.79l3,1.8c0,0-3.3,2.1-4.79,4.19
		c-1.5,2.1-0.9,3.6-2.1,4.79c-1.2,1.2-7.19,6.29-7.19,6.29l-3.3-2.7l-2.7,3.3l-3.6-0.9c0,0-2.4-2.7-2.7-1.8
		c-0.3,0.9-9.29,6.29-10.78,6.89c-1.5,0.6-6.89,0.3-8.09,0.6c-1.2,0.3-6.89-0.3-6.89-0.3s-8.39-0.6-9.59-0.9
		c-1.2-0.3-6.29-4.49-6.29-4.49s-5.99-5.39-7.79-8.39c-1.8-3-4.49-5.69-5.09-10.49c-0.6-4.79,0.9-8.09,0.9-8.09l-4.19-7.19
		c0,0-2.7-0.6-4.19-2.4c-1.5-1.8-5.09-9.59-8.09-13.18c-3-3.59-4.79-11.98-4.79-11.98s3,3.89,3.89,3.3c0.9-0.6,0.3-6.89,0.9-10.78
		c0.6-3.89,4.79-13.18,6.29-18.87s9.59-13.48,15.58-18.87C579.83,556.07,597.21,545.29,597.21,545.29z"/>
	<path d="M584.77,674.79c1.16-0.61,11.26-4.45,13.36-5.24c2.1-0.79,23.05-6.55,25.14-9.17c2.1-2.62,10.48-4.98,17.02-3.14
		c6.55,1.83,20.95,9.69,23.05,14.67c2.1,4.98,1.31,9.17,1.31,9.17s3.4,0.79,2.1,3.4s-3.67,5.5-3.67,5.5l-6.29,27.5
		c0,0-2.1,10.74-1.31,12.83c0.79,2.1-0.52,3.14-1.31,3.93c-0.79,0.79-1.57,4.19-1.57,4.19s-3.4,3.14-3.14,3.93
		c0.26,0.79,2.62,1.57,1.57,4.19c-1.05,2.62-3.93,8.64-3.93,8.64l2.1,0.52l-1.31,1.83l1.31,1.05l-2.36,1.31l-1.05-1.83l-1.57,2.62
		l1.05,2.62c0,0,3.93-1.31,1.83,0.79c-2.1,2.1-4.71,4.45-4.71,4.45s5.24-1.83,3.4-0.52c-1.83,1.31-8.38,4.45-12.31,7.07
		c-3.93,2.62-13.36,5.76-16.24,6.55c-2.88,0.79-11.26,2.62-12.83,2.36c-1.57-0.26-12.31-2.62-12.31-2.62s-1.57,0.79-3.14,1.05
		c-1.57,0.26-3.93-1.83-3.93-1.83l-2.88-2.1c0,0-1.31,1.83-3.67,0.79c-2.36-1.05-4.45-3.14-5.24-3.14c-0.79,0-2.62-5.5-4.45-6.55
		c-1.83-1.05-0.79-2.1-0.79-2.1s-3.4-4.45-5.76-7.6c-2.36-3.14-2.36-7.07-2.1-7.86c0.26-0.79,1.83-4.45,0.26-7.07
		c-1.57-2.62-4.98-6.29-5.76-7.86c-0.79-1.57-2.1-5.76-2.1-7.86c0-2.1,0-5.5,0-5.5l2.36-2.88c0,0-4.71-5.24-5.5-7.07
		c-0.79-1.83,1.83-5.5,3.93-9.69c2.1-4.19,7.07-10.74,9.95-15.19S573.25,680.81,584.77,674.79z"/>
</g>
</svg>
