<?xml version="1.0" encoding="utf-8"?>
<!-- Generator: Adobe Illustrator 24.1.3, SVG Export Plug-In . SVG Version: 6.00 Build 0)  -->
<svg version="1.1" id="圖層_1" xmlns="http://www.w3.org/2000/svg" xmlns:xlink="http://www.w3.org/1999/xlink" x="0px" y="0px"
	 viewBox="0 0 1200 1200" style="enable-background:new 0 0 1200 1200;" xml:space="preserve">
<style type="text/css">
	.st0{fill-rule:evenodd;clip-rule:evenodd;}
</style>
<g>
	<path d="M491.48,710.82c-2.95-0.68-5.72-4.5-5.72-4.5l-2.23-5.61c0,0-3.78-4.12-3.69-6.09c0.08-1.97-1.11-3.49-0.95-6.07
		c0.16-2.58-2.3-8.82-3.62-10.51c-1.32-1.69-6.41-8.86-7.15-9.1s-2.41-0.29-1.66-1.42c0.75-1.13,1.65-1.02,1.65-1.02
		s0.55-2.07,1.34-3.5l-0.93-1.18c0,0-2.15,1.42-2.78,0.28c-0.63-1.14,2.88-3.62,2.88-3.62s-1.07-3.79-1.15-5.63
		c-0.08-1.84-0.11-2.91-0.5-3.42c-0.4-0.51-1.47-0.48-1.08-2.42c0,0-1.64-0.35-0.93-1.18c0.71-0.83,1.79-2.23,1.79-2.23
		s0.21-4.25,0.09-5.79c-0.12-1.54-0.6-7.7-0.6-7.7s-1.13-0.75-1.44-3.23c-0.31-2.48-0.32-8.74-1.17-11.89
		c-0.84-3.15-1.77-8.15-1.77-8.15s-3.8-1.37-4.43-2.52c-0.63-1.14-1.71-3.56-1.71-3.56l-4.08-4.15l2.47-2.76c0,0-0.19-0.94,1.4-2.73
		c1.59-1.79,3.4-5.39,3.4-5.39s-0.2-3.38-1.5-4c-1.3-0.61-8.22-5.26-10.37-7.66c-2.15-2.4-2.15-2.4-2.15-2.4l-1.48,0.89
		c0,0-1.22-2.59-2.47-4.87c-1.25-2.29-2.06-1.93-0.7-4.36c1.36-2.43,3.11-2.98,4.3-5.28c1.19-2.3,2.26-6.14,2.25-8.58
		c-0.01-2.44,0.68-8.16,0.7-10.9s3.74-7.03,3.74-7.03s-0.41-2.95,1.2-3.67c0,0,1.16-2,2.09-2.19c0,0-0.18-2.31,0.76-2.5
		c0,0-1.03-2.87,0.49-4.06c1.52-1.19,2.63-1.86,2.63-1.86s-0.32-1.18,0.02-2.06c0.33-0.88,1.74-1.16,1.74-1.16s1.14-0.89,1.92-1.71
		c0.79-0.82,1.63-2.09,1.63-2.09s-0.77-1.24,0.39-1.33c1.16-0.09,2.51,0.07,2.51,0.07s0.46-0.97,1.94-0.91c0,0,1.51-0.16,1.9,0.34
		c0.4,0.51,0.26,1.63,0.26,1.63s0.78,0.21,1.5,0.87c0.72,0.66,1.34,2.22,1.34,2.22l3.58,0.66c0,0,1.72-1.97,2-2.39
		c0.28-0.42-0.26-1.63,2.02-1.59c0,0-0.4-0.79,1.22-1.57c1.34-0.64,3.09,0.03,3.09,0.03s1.05-2.05,1.78-2.42s2.63-1.86,3.68-2.08
		c1.06-0.22,3.02-0.32,3.59-0.37c0.58-0.05,1.63,2.6,1.63,2.6s2.95,1.16,4,1.97c1.05,0.81,3.64,5.93,3.93,6.31
		c0.3,0.38,2.88,3.67,3.83,4.35c0.95,0.69,2.12,1.4,1.11,2.19c-1.01,0.79-1.01,0.79-1.01,0.79l-0.65,2.55c0,0,1.29,1.64,0.73,2.49
		c-0.56,0.85-0.99,1.6-0.99,1.6s0.52,0.41,0.19,1.28c-0.33,0.88-0.27,2.26-0.27,2.26s-0.01,1.03-0.19,1.58s1.42,4.41,1.42,4.41
		s2.75,6.63,3.07,7.81s0.91,1.94,1.1,3.22s-1.91,2.52-1.91,2.52s0.77,1.24,1.14,1.97c0.37,0.73-0.06,1.48-0.37,2.13
		c-0.31,0.65-1.13,2.73-1.13,2.73s1.67,1.35,2.72,2.16c1.05,0.81,1.18,2.55,1.18,2.55s0.8-0.02,1.3,0.61s1.27,0.84,1.29,1.64
		c0.02,0.8-1.16,2.95-1.16,2.95s0.39,1.53,0.7,2.72c0.32,1.18-0.72,2.2-0.72,2.2s1.15,2.77,1.33,3.25c0.17,0.48-0.09,1.71-0.09,1.71
		s0.88,0.33,0.74,1.46c-0.14,1.13-0.95,2.18-0.95,2.18s1.58,0.19,1.82,1.02s-0.14,1.13-0.34,1.9c-0.21,0.78-0.77,1.62-0.88,2.53
		c-0.11,0.9-0.33,2.71,0.17,3.34c0.5,0.63,3.04,2.31,3.04,2.31s-0.59,1.07-0.88,0.69c-0.3-0.38-0.58,0.05-1.48-0.06
		c0,0,0.14,1.73-0.3,2.48s-1.88,2.29-2.61,2.66c-0.73,0.37-1.97,1.14-2.4,1.89s0.03,2.64-0.01,3.89c-0.04,1.25-0.42,4.41-0.61,5.99
		c-0.19,1.58-1.47,7.49-1.29,9.8c0.18,2.31,1.71,5.81,1.61,7.52s-0.1,5.6-0.1,5.6s0.12,0.93,0.18,2.31
		c0.06,1.38,1.07,3.45,1.07,3.45s1.04-1.02,1.89-0.46c0.85,0.56,1.47,1.09,1.47,1.09s1.33,0.39,1.7,1.12
		c0.37,0.73,0.78,3.07,0.78,3.07s-0.55,5.54-0.41,6.25c0.14,0.7-1.9,1.49-1.9,1.49s-1.33,2.47-1.66,3.35
		c-0.33,0.88-1.54,4.28-1.93,5.61c-0.39,1.33-0.22,4.67-1,5.49c-0.79,0.82-1.89,3.32-1.89,3.32s-0.17,2.38-0.15,3.19
		c0.02,0.8-0.46,0.97-1.2-0.49l-1.07,1.25c0,0-0.17,2.38-0.16,4.22c0.01,1.83-1.71,5.63-1.72,6.66c-0.01,1.03-1.17,3.98-1.15,4.78
		c0.02,0.8,1.63,2.6,1.54,4.31s-2.32,4.07-3.12,4.09c-0.8,0.02-1.62-0.77-1.62-0.77s-1.14,0.89-1.26,2.83
		c-0.12,1.93-0.12,1.93-0.12,1.93s-1.78-0.44-1.07,2.27c0.7,2.72,0.02,3.66-1.58,5.53S494.97,711.62,491.48,710.82z"/>
	<path d="M771.48,713.41c0,0-0.42-1.34-0.11-2.29s0.49-1.79,0.49-1.79s-1.17,0.39-1.38-0.15c-0.21-0.54-0.46-2.46-0.27-3.83
		s1.41-3.57,1.41-3.57s-0.64-1.08-0.33-2.03c0.31-0.95,0.71-2.84,0.71-2.84s-0.55-1.5-0.66-3.52c-0.11-2.02,2.06-4.61,2.28-5.13
		c0.22-0.52-0.47-0.86-0.11-2.02c0.35-1.16,0.83-1.89,0.58-2.21c-0.26-0.33-1.55-0.9-0.81-1.83c0.74-0.93,2.09-2.17,2.31-2.69
		c0.22-0.52,1.09-1.56,1.01-2.2c-0.08-0.64-0.86-0.56-0.72-1.72s0.97-3.05,1.07-4c0.09-0.95-0.76-2.57-0.01-4.03
		s2.05-3.02,2.45-4.38c0.4-1.37-0.42-1.07-0.32-3.09c0.1-2.01,5.62-19.36,6.2-21.04c0.57-1.68,2.01-3.87,1.94-5.04
		c-0.08-1.17,1.41-4.1,1.77-5.25c0.35-1.16,5.33-14.38,5.73-15.75c0.4-1.37,0.73-4.97,0.57-6.78s-0.57-5.01,0.31-7.1
		c0.88-2.1,1.71-3.45,2.45-4.38c0.74-0.93,1.09-1.56,1.27-2.4c0.18-0.84,0.37-2.75,0.37-2.75s-1.97-1.44-2.22-2.83
		c-0.25-1.39,2.06-4.08,1.94-5.04c-0.12-0.96,1-7.29,1.1-8.78c0.1-1.48,0.19-7.53,0.2-9.65c0.02-2.12,0.22-6.15,0.37-8.91
		c0.15-2.76,0.66-12.29,0.55-15.37c-0.11-3.08-0.45-8.61-1.17-10.33s-1.57-3.34-3.05-7.1s-5.28-8.33-6.17-10.27
		c-0.89-1.94-2.49-6.66-3.31-7.42c-0.81-0.77-2.37-0.6-2.37-0.6s1.26-1.34,1.96-2.06l4.12-3.06c0,0,6.47-0.87,8.2-0.81
		c1.72,0.05,3.62,0.32,4.39,0.77c0.77,0.45,1.98,0.91,1.98,0.91l1.26-1.34l-0.46-1.92c0,0,2.33-0.25,2.93-0.02s1.51,0.05,1.51,0.05
		s-2.35-2.19-2.39-3.58c-0.03-1.38,1.84-4.08,3.57-4.56c1.73-0.48,5.45-1.64,5.96-0.99c0.51,0.65,1.36,2.27,1.36,2.27
		s4.99,1.53,6.8,2.22c1.81,0.69,7.76,5.33,8.49,5.99c0.73,0.66,3.27,1.48,4.25,1.93s14.69,23.8,14.08,25.16
		c-0.61,1.36-1.62,3.03-1.62,3.03s1.79,2.81,2.52,3.47c0.73,0.66,1.87,3.45,1.91,4.3s-0.98,3.58-0.72,3.91
		c0.26,0.33,1.68,0.79,1.92,2.18c0.25,1.39-1.49,2.93-1.49,2.93s-1.78,1.75-1.4,3.04s-0.97,3.05,0.1,3.61
		c1.07,0.56-0.87,1.57-1.31,2.08c-0.44,0.52-1.48,1.87-0.41,2.43c1.07,0.56,0.85,1.09,0.33,1.5c-0.52,0.41-0.83,1.35-0.83,1.35
		s0.81,0.77-0.62,1.89c-1.43,1.12-2.39,2.05-2.39,2.05s1.03,0.24,0.33,1.5s-0.88,2.63-0.76,3.06c0.13,0.43,1.9,3.41,3.41,4.88
		c0.9,0.88,0.2,2.13-0.83,1.89c-1.03-0.24-0.23,1.59-1.74,2.6c0,0,0.11,2.02-1.19,3.04c0,0,0.33,2.03-0.8,2.74l-2.58,4.49l0.96-0.93
		c0,0-3.09,8.93-3.44,10.62s-6.88,20.17-8.72,23.73c-1.84,3.55-6.37,10.1-8.04,13.87c-1.67,3.77-1.67,3.77-1.67,3.77
		s-4.77,8.67-6.21,11.38c-1.44,2.72-1.44,2.72-1.44,2.72s-2.35,3.43-4.06,6.35s-3.97,5.93-4.28,7.41s-0.24,3.18-1.2,4.1
		s-1.79,2.81-2.75,3.74c-0.96,0.93-2.61,3.11-3.48,4.14c-0.87,1.04-3.36,5.1-4.93,7.39c-1.57,2.29-3.53,4.35-5.57,6.84
		c-2.05,2.49-6.56,6.91-7.47,7.63c-0.91,0.72-1.09,2.09-1.83,3.02c-0.74,0.93-1.57,1.76-1.57,1.76s0.5,1.71-0.8,2.74
		c-1.3,1.02-3.38,2.13-3.38,2.13s0.81,1.3-0.19,1.9C774.3,711.1,771.48,713.41,771.48,713.41z"/>
	<path d="M362.24,537.87c2.53-3.54,4.81-10.12,4.81-10.12l5.82-4.81c0,0,12.14-0.76,13.66-1.52c1.52-0.76,5.57-0.51,5.57-1.27
		s-0.25-2.02,0.51-2.53s3.04,0.76,3.04,0.76l1.27,2.02l4.55,1.52l-3.29,3.04l0.76,6.33c0,0,1.52,1.77,1.52,3.04
		s-0.06,10.44-0.06,10.44s3.8,0.57,5.12,1.9c1.33,1.33,1.77,3.61,1.77,3.61c2.78,0.38,2.53-0.51,2.53-0.51l-0.25,4.81v3.29
		c0,0,2.78,2.78,3.29,3.8c0.51,1.01,2.02,2.53,2.02,2.53l-0.25,3.8c0,0,0.51,25.05,1.01,26.06c0.51,1.01,1.52,13.92,1.52,13.92
		l1.27,22.52c0,0,2.02,33.65,1.77,37.44c-0.25,3.8,1.27,21.25,1.27,21.25l1.77,0.25l0.51,1.52l3.04-0.51c0,0-0.76,2.02-1.27,2.78
		c-0.51,0.76-2.02,0.76-2.02,0.76l-0.51,5.31l-2.28,5.06c0,0,0.25,6.07-0.51,6.58c-0.76,0.51-10.37,1.27-12.14,1.01
		c-1.77-0.25-6.58-1.27-6.58-1.27h-4.55l-1.77,1.77c0,0-0.25-4.05,0-5.31c0.25-1.27,1.01-3.29,1.01-5.31s0.25-7.08,0.25-6.33
		c0,0.76,1.52,5.06,1.52,5.06s0.76-3.8,0.76-5.57c0-1.77-0.25-5.82-1.27-7.84s-9.36-25.05-10.12-26.82
		c-0.76-1.77-4.3-6.33-6.58-9.61c-2.28-3.29-5.06-12.14-6.83-16.45s-7.34-20.49-7.34-20.49s-1.52,2.02-1.77,2.78
		c-0.25,0.76-0.51,2.28-0.51,2.28s-1.27-0.25-1.27-1.01c0-0.76,0-3.8,0-3.8s-0.76-0.51-2.02-2.02s-0.76-3.54-1.01-6.58
		c-0.25-3.04-0.51-6.33-0.51-7.08s-1.27-2.53-1.52-4.05c-0.25-1.52-1.01-3.8-1.01-3.8s-1.27,0.76-1.77-1.52s-1.27-4.05-1.27-5.06
		s-2.28-3.8-3.04-4.81c-0.76-1.01-2.53-2.53-3.8-5.57c-1.27-3.04-1.77-6.07-2.28-7.34s0-2.78,0-2.78s-2.78,1.52-2.28-0.51
		s1.77-6.58,2.28-8.6c0.51-2.02,3.29-6.07,5.06-7.34s7.08-2.78,7.08-2.78s0-0.76,2.02-2.28
		C360.98,540.4,362.24,537.87,362.24,537.87z"/>
	<path d="M571.23,534.84c0,0-1.01-12.4-2.02-16.19s-5.06-8.6-1.27-12.14s9.36-3.04,12.9-2.78c3.54,0.25,10.37,4.05,13.16,6.33
		c2.78,2.28,5.82,4.3,5.06,5.57s-3.29,6.07-3.29,6.07s7.84,3.8,10.63,6.83c2.78,3.04,6.58,7.59,6.58,7.59s2.53,1.01,4.3,0.51
		c1.77-0.51,5.31,4.3,6.33,6.07c1.01,1.77,4.05,1.52,5.57,3.54c1.52,2.02-0.25,0.25,1.52,2.02c1.77,1.77,1.52,4.55,1.52,4.55
		s2.02,0.51,3.29,1.27c1.27,0.76,3.8,0,3.54,2.28s-2.02,4.55-2.02,4.55s-2.53,0.25-2.53,2.53s-2.78,6.07-3.29,8.86
		c-0.51,2.78-2.78,8.86-3.54,11.13c-0.76,2.28-0.51,5.06-1.77,9.11c-1.27,4.05-0.76,3.8-2.02,6.07s-3.54,2.28-3.54,2.28
		s-2.02,7.08-2.53,8.6c-0.51,1.52-1.27,2.78-1.77,4.81c-0.51,2.02-3.29,5.82-3.54,7.59c-0.25,1.77-0.76,4.55-0.76,4.55
		s-2.53,17.2-3.29,20.49s-1.77,8.35-2.53,10.63c-0.76,2.28-1.52,6.07-1.77,9.11c-0.25,3.04-1.52,8.1-3.04,11.39
		c-1.52,3.29-3.04,6.83-3.04,9.36c0,2.53-1.01,6.83-1.01,8.6c0,1.77,0.51,4.55,0.51,5.57c0,1.01,1.27,1.27-1.01,3.8
		s-2.78,4.55-4.55,6.33c-1.77,1.77-2.78,1.27-3.54,1.77c-0.76,0.51-1.27-1.77-1.27-1.77s-2.78,0.25-4.3,0.25s-6.58-1.01-7.84-0.76
		s-4.3-0.51-5.06-0.76s-3.29-3.04-4.55-5.06s-1.27-6.07-1.01-8.35s2.53-5.57,2.53-7.34c0-1.77-0.51-11.13-0.51-11.13
		s-0.51-2.02-0.51-3.29s-0.51-8.6-0.25-10.12c0.25-1.52,0.25-7.84,0.25-10.37c0-2.53-0.51-5.82-0.76-10.37
		c-0.25-4.55-0.51-9.11-1.01-14.67s-2.78-45.54-4.3-50.85c-1.52-5.31-2.02-7.08-2.53-8.6c-0.51-1.52-0.25-5.57-0.51-6.83
		c-0.25-1.27,1.77-2.28,1.77-2.28s0-4.55,0-6.33c0-1.77,2.02-5.82,2.78-6.83c0.76-1.01,3.04-2.28,3.04-4.55s0-3.54,0.76-5.82
		C565.91,535.34,571.23,534.84,571.23,534.84z"/>
	<path d="M667.37,530.28c0,0-0.25-3.54,0-4.3c0.25-0.76-1.77-0.76-1.27-1.77c0.51-1.01,0.25-1.77,0-4.81
		c-0.25-3.04-1.27-3.04-2.53-7.34c-1.27-4.3-0.25-5.57,0.25-8.6c0.51-3.04,7.59-4.81,9.36-5.31c1.77-0.51,5.06,0,7.59,3.54
		s3.04,10.37,3.04,10.37s4.05,6.58,6.07,7.08c2.02,0.51,4.55,0.51,4.55,1.77s2.78-3.04,2.78-1.27c0,1.77-1.01,3.8-1.01,3.8l3.8,5.31
		c0,0,7.59,3.8,10.12,5.06s5.31,6.07,7.34,6.33c2.02,0.25,5.06,2.02,4.3,3.04s-1.77,3.54-1.77,3.54s-1.27,18.47-1.52,19.73
		s-1.01,10.63-1.77,13.16c-0.76,2.53-0.25,7.59,0.76,7.34c1.01-0.25,0,1.77-1.01,2.53c-1.01,0.76-1.52,3.04-1.52,4.05
		s-1.77,12.65-1.27,14.42c0.51,1.77,2.02,13.16,2.02,14.93c0,1.77,0,6.58-0.76,9.61c-0.76,3.04-1.52,6.83-2.53,8.1
		s-0.51,8.35-0.51,8.35s1.77-1.52,1.27,0.25c-0.51,1.77-1.52,7.34-3.29,8.86c-1.77,1.52-5.57,6.07-6.83,7.34
		c-1.27,1.27-8.1,18.98-9.11,22.77s-2.78,14.17-5.57,16.95c-2.78,2.78-9.36,5.06-9.36,5.06l-3.04,0.25c0,0,1.52,1.27-0.76,2.02
		s-6.83,0.76-6.83,0.76s0.76-3.04,0.25-5.06c-0.51-2.02-1.77-6.58-3.29-8.6c-1.52-2.02-2.53-1.27-2.78-3.04
		c-0.25-1.77,1.52-2.53,1.77-3.54s0.25-9.11,0.25-9.11s0.51-14.17-0.25-15.94c-0.76-1.77-1.52-2.78-2.53-7.59
		c-1.01-4.81-3.54-16.45-3.54-19.73c0-3.29-1.27-7.08-2.78-14.67c-1.52-7.59-7.08-33.9-7.08-38.71c0-4.81-0.76-32.89-0.76-34.16
		s2.78-5.06,4.05-6.83c1.27-1.77,7.59-9.11,8.35-10.12s-0.76-2.53,0.51-3.04c1.27-0.51,2.02-1.52,3.54-1.27
		C665.6,532.05,667.37,530.28,667.37,530.28z"/>
</g>
</svg>
