<?xml version="1.0" encoding="utf-8"?>
<!-- Generator: Adobe Illustrator 24.1.3, SVG Export Plug-In . SVG Version: 6.00 Build 0)  -->
<svg version="1.1" id="圖層_1" xmlns="http://www.w3.org/2000/svg" xmlns:xlink="http://www.w3.org/1999/xlink" x="0px" y="0px"
	 viewBox="0 0 1200 1200" style="enable-background:new 0 0 1200 1200;" xml:space="preserve">
<style type="text/css">
	.st0{fill-rule:evenodd;clip-rule:evenodd;}
</style>
<g>
	<path d="M690.04,721.16c0.35,1.79,0.56,4.47,2.69,5.91c2.14,1.44,7.29,5.1,9.44,5.9c2.15,0.8,9.4,1.06,11.43,1.48
		c2.03,0.42,8.15,7.15,8.15,7.15s3.43,7.57,4.53,9.76c1.11,2.18,1.3,5.5,1.3,5.5l1.86,2.58c0,0-1.7,2.64-1.08,3.29
		c0.62,0.65-0.97,4.31-0.97,4.31l-0.45,3.94c0,0,1.01,0.53,1.61,2.45c0.6,1.92-0.97,4.31-0.97,4.31s-1.44,2.14-3.23,2.49
		c-1.79,0.35-6.38,0.52-7.77,0.11c-1.39-0.41-3.16-1.33-3.81-0.71c-0.65,0.62,0.34,2.43-1.69,2.01c-2.03-0.42-3.94-0.45-3.94-0.45
		s-2.09,2.76-3.48,2.36c-1.39-0.41-2.56,0.59-3.3-0.44s-1.49-2.06-2.39-1.57c-0.9,0.49-0.06,1.14-1.42,0.87
		c-1.35-0.28-2.43-1.49-2.43-1.49s0.46,2.81-0.98,2.27c-1.43-0.54-1.75-1.98-1.75-1.98s-0.78,0.66-1.63,1.07
		c-0.86,0.41-1.3,1.67-1.97,0.9c-0.66-0.78-1.23-2.14-1.23-2.14s-1.73,1.67-2.39,0.89c-0.66-0.78-1.75-1.56-1.75-1.56
		s-1.44-0.11-2.56,0.8s-1.7-0.03-1.7-0.03s-1.22,1.51-2.06,1.49s-1.85-0.97-1.85-0.97s0.15,1.36-0.86,0.83
		c-1.01-0.53-2.43-1.91-2.43-1.91s0.05,1.95-1.47,1.59c-1.52-0.37-2.78-1.24-2.78-1.24l-1.81,1.41c0,0-1.32-1.98-2.17-1.99
		c-0.85-0.02-3.91,0.52-4.59,0.6c-0.68,0.07-2.44-1.06-3.21-0.82c-0.77,0.24-1.72,1.24-2.47,0.63c-0.75-0.61-2.43-1.49-2.43-1.49
		s-0.87,1.26-1.29,0.83c-0.42-0.43-1.43-0.96-1.43-0.96s-1.53,0.06-2.13,0.39c-0.6,0.33-2.19-1.14-2.19-1.14s-1.04,1.17-1.79,0.56
		c-0.75-0.61-2.61-1.15-2.61-1.15s-1.63,1.07-2.47,0.63c-0.84-0.44-2.96-0.48-3.8-0.92c-0.84-0.44-2.35-1.23-3.55-1
		c-1.19,0.23-4.84-0.17-7.13,0.12c-2.3,0.3-4.18,1.03-5.11,0.76s-2.28-0.55-2.28-0.55s-0.62,1.18-1.3,1.25
		c-0.68,0.07-3.56-0.15-4.5,0c-0.94,0.15-1.94-0.8-1.94-0.8s-0.54,1.86-1.22,1.51c-0.67-0.35-1.68-0.88-1.68-0.88
		s-0.1,1.02-0.7,1.35s-1.19,0.23-1.19,0.23s0.07,0.68-0.7,0.92s-0.77,0.24-0.77,0.24l-1.21,1.08l-1.49-2.06c0,0-0.37,1.95-0.88,1.68
		c-0.5-0.26-1-0.95-1-0.95s-1.47,1.59-2.32,1.57s-1.34-1.13-1.34-1.13s-0.63,2.03-1.48,2.01s-1.16-1.46-1.16-1.46s-0.95,1-1.8,0.99
		s-0.85-0.02-0.85-0.02s-0.62,1.6-1.38,1.42c-0.76-0.18-1.35-0.28-1.35-0.28s-0.2,1.61-0.87,1.26c-0.67-0.35-1.84-1.39-1.84-1.39
		s-1.4,2.27-2.25,2.25c-0.85-0.02-1.59-1.05-1.59-1.05s-1.21,1.08-1.79,0.56c-0.58-0.52-2.27-1.4-2.27-1.4s-1.44-0.11-3.75,0.61
		c-2.3,0.72-3.84,1.2-3.84,1.2l-1.6-0.62l-4.19,1.45c0,0-1.14,1.76-2.25,2.25c-1.11,0.49-3.65,0.02-3.65,0.02l-3.59-3.38
		c0,0-4,0.69-4.85,0.68s-2.09-1.74-2.09-1.74s-2.44-1.06-3.2-1.67c-0.75-0.61-1.39-3.08-0.95-3.92s1.06-2.02,1.06-2.02
		s-4.36-3.14-5.75-5.79c-1.39-2.66-0.37-7.48-0.37-7.48l0.71-1.77c0,0-0.31-1.87-1.7-4.53c-1.39-2.66-4.3-6.53-5.54-8.25
		s0.2-6.53,0.2-6.53s-1.42-1.38-1.64-3s-0.71-3.15-1.79-4.36c-1.08-1.21-1.14-2.74-1.14-2.74s-1.12,0.91-1.79,0.56
		c-0.67-0.35-1.7-4.53-3.84-8.22c-2.14-3.69-6.83-7-8.09-7.87s-3.62-1.68-4.96-2.38c-1.35-0.7-7.39-4.29-7.39-4.29
		s-1.11,0.49-1.95,0.05c-0.84-0.44-1.51-0.79-1.51-0.79s-0.86,0.41-1.7-0.03c-0.84-0.44-2.1-1.31-2.1-1.31s-3.9-0.33-6-1.21
		c-2.11-0.89-16.98-9.31-18.49-10.1c-1.51-0.79-8.37-6.52-10.04-7.82c-1.67-1.3-4.76-4.42-6.94-5.98c-2.18-1.57-6.09-5.97-7.02-6.24
		s-1.27-0.45-2.77-1.66c-1.51-1.22-5.5-5.87-5.98-7.41c-0.48-1.54-4.52-3.65-5.34-4.94c-0.83-1.29-2.85-6.84-2.85-6.84
		s-4.71-6.96-6.88-8.95c-2.17-1.99-3.84-3.3-4.15-5.17c-0.31-1.87-0.51-4.76-0.84-5.36s-2.84-2.77-2.64-3.95
		c0.19-1.18,0.05-2.55,0.05-2.55s-0.22-2.04-0.53-3.49c-0.31-1.45,0.36-5.6,0.36-5.6s-0.86,0.83-2.04,0.22
		c-1.18-0.62-0.95-3.92-1.92-6.57s-0.73-6.38-0.54-7.56s1.45-0.31,1.45-0.31s1.28-4.9,1.56-6.25s-0.24-5.27-0.24-5.27
		s-1.35-0.28-1.31-2.82c0.05-2.55-1.2-13.26-0.5-14.61c0.7-1.35,2.02-3.87,2.21-5.05s0.8-1.94,1.94-4.12
		c1.14-2.19,0.92-3.8,0.77-4.74s-1.32-1.98-1.32-1.98s1.2-0.66,1.57-2.18c0.37-1.52,0.2-6.11,1.21-10.5
		c1.01-4.4,2.72-9.71,4.81-12.48s2.43-3.01,3.58-5.62c1.15-2.61,2.29-4.37,2.9-5.55s1.17-3.88,0.6-5.25
		c-0.57-1.37-1.55-1.33-0.92-5.19c0.48-2.96,1.41-3.11,1.89-5.65c0.47-2.54-1-0.95,1.8-5.48s4.08-4.93,5.28-5.59
		s2.73-0.71,2.73-0.71s-0.02-1.4,1.39-1.84c0.77-0.24,1.12-0.91,1.12-0.91s-0.67-0.35,0.57-3.13c1.24-2.78,2.7-3.52,3.73-4.26
		c1.03-0.75,1.03-0.75,1.03-0.75s0.88-1.68,1.66-2.77c0.78-1.09,2.83-1.73,2.83-1.73s-0.97-2.65-0.67-5.27s3.96-7.57,5.01-9.16
		c1.05-1.59,0.39-2.79,1.92-2.85c1.53-0.06,3.47,0.74,3.47,0.74s3.24-0.87,4.59-0.6c1.35,0.28,1.86,0.54,3.17-1.56
		c1.31-2.1,2.94-2.75,4.22-3.57s0.58-3.98,2.83-6.23c2.25-2.25,0.5,0.26,2.25-2.25c1.74-2.51,1.5-2.86,4.5-4.5
		c3-1.64,3.7-2.56,5.66-3.04c1.96-0.47,3.13,0.57,4.15,0.25s0.46-1.69,1.22-1.93c0.77-0.24,3.15-0.71,4.27-1.2
		c1.11-0.49,0.88-1.68,1.89-1.15c1.01,0.53,1.86,0.54,1.86,0.54s1.64-1.5,2.5-1.91c0.86-0.41,5.54-1.17,6.15-1.93
		c0.61-0.75,0.81-2.79,1.01-4.4c0.2-1.61-1.06-2.48,0.49-3.39c1.54-0.91,2.24-1.83,5.07-3.13c2.82-1.31,6.01-3.71,8.72-3.15
		c2.71,0.56,4.12,2.37,5.29,2.98c1.18,0.62,1.12-0.91,2.82-0.88c1.7,0.03,1.67,1.73,2.6,1.58c0.94-0.15,1.22-1.51,2.83-1.73
		c1.62-0.23,3.79,1.77,3.79,1.77s3.52-2.23,4.4-3.91c0.88-1.68-0.65-1.62,1.41-2.69c2.06-1.07,4.57-3.82,8.14-4.1
		c3.57-0.27,4.64,1.36,4.64,1.36s1.63-1.07,3.4-0.36c1.77,0.71,2.33,2.5,3.6,2.95c1.27,0.45,1.8-0.99,3.66-0.44s2.51,1.74,3.29,1.08
		s-0.06-1.53,2.15-1.66c2.21-0.13,5.42,0.69,7.55,0.31s4.87-1.52,4.87-1.52s1.85-3.96,2.63-4.62s4.36-1.79,7.82-0.62
		c3.46,1.17,7.15,3.53,7.9,4.56s0.31,1.45,0.31,1.45s0.95-1,2.55-0.38c1.6,0.62,2.86,1.5,4.82,1.02s6.11,0.2,5.69-0.24
		c-0.42-0.43-3.6-2.95-1.3-3.25c2.3-0.3,3.63,1.25,4.75,0.34s2.16-2.08,6.48-1.75c4.32,0.33,6.6,0.88,7.44,1.75
		c0.83,0.86,4.75,4.84,5.77,4.94c1.02,0.1,7.63,0.56,9.14,1.35c1.51,0.79,1.89,3.34,3.33,3.46c1.44,0.11,2.89-0.2,4.26-0.77
		c1.37-0.57,0.81-2.36,2.24-1.83c1.43,0.54,3,2.86,4.87,2.97c1.87,0.12,5.19-0.5,5.33,0.86c0.15,1.36,0.35,3.83,1.53,4.44
		c1.18,0.62,6.36,5.04,8.21,6.01c1.85,0.97,3.11,1.41,4.14,1.09c1.02-0.32-0.13-2.21,1.3-1.67c1.43,0.54,2.95,0.9,3.81,0.49
		c0.86-0.41,1.42,1.38,2.16,2.84c0.74,1.46,2.42,2.34,3.95,2.28s2.13-0.39,3.28,1.5s1.12,3.59,1.71,4.11
		c0.58,0.52,2.87,1.07,3.87,2.02s1.04,3.75,2.72,4.63c1.68,0.88,3.47,0.74,4.41,0.17s-0.55-2.64,1.31-2.1
		c1.86,0.54,3.53,1.85,4.71,2.46s2.08,2.16,2.08,2.16s1.37-0.57,3.37,1.33s3.14,4.64,4.71,6.96s2.53,5.82,2.53,5.82
		s2.78,1.24,4.98,1.53c2.2,0.29,5.61,4.01,6.89,3.61c1.28-0.4,2.64-0.55,2.71,0.56c0.06,1.1,1.48,2.49,2.65,3.53
		c1.17,1.04,3,2.86,4.47,6.19c1.47,3.34,1.49,6.99,1.49,6.99s2.17,1.99,4.6,3.9c2.43,1.91,4.41,4.66,5.93,5.46
		c1.51,0.79,1.51,0.79,1.51,0.79l3.02,2.01c0,0,2.15,3.26,2.78,5.74c0.63,2.47-0.16,3.99,0.08,5.18c0.23,1.19,1.38,3.51,1.1,4.86
		c-0.28,1.35,0.17,4.59,0.17,4.59s2.58-1.65,3.4-0.36c0.83,1.29,0.93,4.77,1.93,6.15s0.79,2.99,0.68,4.85
		c-0.12,1.87-0.13,2.71,0.93,4.77c1.07,2.06,1.52,4.87,2.6,6.5c1.07,1.63,2.94,1.75,2.48,3.44s-0.16,3.99,0.51,4.76
		c0.66,0.78,2.15,7.76,4.19,12.47c2.04,4.71,1.24,11.14,1.79,13.36c0.55,2.22,2.72,9.13,2.5,12.01c-0.22,2.88-0.77,5.16-0.77,5.16
		s1.61,0.2,1.59,1.47c-0.02,1.27-1.5,12.28-1.29,14.75c0.21,2.47,0.53,3.49,0.07,5.6c-0.46,2.11-2.27,8.02-2.27,8.02
		s0.77-0.24,0.12,2.63s-1.47,6.08-1.47,6.08s-4.37,11.63-4.73,12.73c-0.36,1.1-3.07,0.54-3.43,2.06c-0.37,1.52-1.06,2.02-0.75,3.89
		c0.31,1.87,0.79,3.41,0.79,3.41s-1.06,2.02-2.1,3.19c-1.04,1.17-3.43,2.06-3.11,3.08c0.32,1.02,0.28,3.15,0.02,3.65
		c-0.26,0.5-2.14,5.73-3.78,7.23c-1.64,1.5-4.17,0.6-4.17,0.6s-1.56,1.75-1.66,2.77s2.3-0.72,0.83,1.29c-1.48,2.01-7.18,7.17-8.99,9
		s-7.3,4.54-7.3,4.54s-2.55-0.05-3.5,0.95c-0.95,1-3.1,2.24-3.1,2.24s-11.88,4.71-13.59,5.1c-1.7,0.39-9.4,3.65-10.6,4.31
		c-1.2,0.66-8.98,3.66-14.2,5.85C701.18,715.42,690.04,721.16,690.04,721.16z"/>
</g>
</svg>
