<?xml version="1.0" encoding="utf-8"?>
<!-- Generator: Adobe Illustrator 24.1.3, SVG Export Plug-In . SVG Version: 6.00 Build 0)  -->
<svg version="1.1" id="圖層_1" xmlns="http://www.w3.org/2000/svg" xmlns:xlink="http://www.w3.org/1999/xlink" x="0px" y="0px"
	 viewBox="0 0 1200 1200" style="enable-background:new 0 0 1200 1200;" xml:space="preserve">
<style type="text/css">
	.st0{fill-rule:evenodd;clip-rule:evenodd;}
</style>
<g>
	<path d="M692.81,822.44c-2.79,0.78-9.48,3.51-9.48,3.51l-5.27,2.11c0,0,0,2.63-1.76,2.98c-1.76,0.35-4.39,2.46-4.39,2.46
		s-10.01-0.53-11.41-0.7c-1.4-0.18-6.32-1.76-6.32-1.76s-4.39,3.51-6.15,3.51c-1.76,0-8.6-2.63-8.6-2.63s-4.39,0-5.62-0.53
		c-1.23-0.53-4.39-2.81-4.39-2.81s-6.67,2.98-11.06,2.98c-4.39,0-5.27-2.11-5.27-2.11s-6.32,1.23-8.08-0.35
		c-1.76-1.58-3.69-2.98-3.69-2.98s-0.7,0.88-2.11-0.53s-2.63-3.34-2.63-3.34s-5.79-1.4-10.36-5.79c-4.57-4.39-8.6-7.02-8.6-7.02
		s-2.11,1.05-4.39-0.53c-2.28-1.58-3.69-2.28-5.97-2.81c-2.28-0.53-2.98-1.4-4.74-2.81c-1.76-1.4-2.11-3.69-4.21-3.69
		c-2.11,0-2.98,2.11-4.74-0.53c-1.76-2.63-0.18-3.51-0.18-3.51s-8.43-6.15-11.76-11.06c-3.34-4.92-7.73-10.71-8.78-12.29
		c-1.05-1.58,1.05-1.58-0.53-3.34c-1.58-1.76-4.92-5.44-5.97-7.9c-1.05-2.46-1.23-3.86-1.23-3.86s-2.11-0.53-3.86-4.04
		c-1.76-3.51-10.18-14.75-11.24-16.5c-1.05-1.76,0.53-1.58-1.23-4.21c-1.76-2.63-4.74-8.6-5.44-9.83c-0.7-1.23,0-1.93-1.05-4.56
		c-1.05-2.63-4.74-13.7-6.32-20.37c-1.58-6.67-2.46-12.82-4.74-18.08c-2.28-5.27-3.34-7.55-4.21-11.24
		c-0.88-3.69-2.81-4.39-4.21-7.2c-1.4-2.81-1.93-5.27-1.4-6.85c0,0-1.93-11.41-2.28-12.82c-0.35-1.4-1.58-3.51-1.58-5.44
		c0-1.93,0.35-4.04-0.18-5.79c-0.53-1.76-2.11-9.66-2.28-15.8c-0.18-6.15-0.88-12.29-1.23-13.7c-0.35-1.4-1.93-24.76-2.28-29.32
		c-0.35-4.57-1.4-11.41-2.28-14.22c-0.88-2.81-0.7-8.08-0.7-8.08s-2.98-2.46-3.16-6.67c-0.18-4.21,0.18-4.57,1.76-5.27
		c0,0-1.05-3.86-0.53-8.43s0.35-4.39,1.58-6.5s1.93-5.27,2.11-6.32c0.18-1.05,2.46-2.98,2.46-2.98s1.23-5.97-1.05-8.78
		s-4.39-3.69-3.16-5.62c1.23-1.93,3.34-4.74,3.16-6.15c-0.18-1.4-0.35-3.51,1.58-5.62c1.93-2.11,3.51-2.11,4.04-5.27
		c0.53-3.16,4.39-8.25,4.39-8.78s-0.7-0.35,0.53-3.16c1.23-2.81,10.01-21.6,12.64-23.88c2.63-2.28,8.08-3.16,8.95-5.97
		c0.88-2.81,0.35-4.04,1.05-4.92c0.7-0.88,4.21-4.74,6.85-9.13s3.34-6.5,4.39-7.2s1.23,1.23,2.98-2.11
		c1.76-3.34,2.28-5.27,3.51-6.67s6.85-7.9,10.89-12.82c4.04-4.92,10.18-10.36,18.26-13.87c8.08-3.51,11.06-2.63,12.82-4.74
		c1.76-2.11,5.79-5.44,7.2-5.79c1.4-0.35,4.04,0.7,6.15,1.23c2.11,0.53,9.66,3.16,10.71,2.81c1.05-0.35,1.23-2.81,2.81-2.63
		c1.58,0.18,3.51,1.58,5.27,0c1.76-1.58,0.88-4.74,3.16-5.27c2.28-0.53,6.32-1.58,9.83-1.93s5.09-0.7,6.5-1.05
		c1.4-0.35,1.4,0,3.51,0.53c2.11,0.53,9.31,0.7,11.41,3.34c2.11,2.63,5.79,5.09,7.37,5.09s4.21-1.76,5.79-2.28
		c1.58-0.53,1.4,3.34,2.98,2.98c1.58-0.35,2.98,0.35,4.56,0.7c1.58,0.35,6.15,3.69,8.08,3.34c1.93-0.35,2.63-0.35,2.63-0.35
		s-0.18-1.05,0.88-1.4c1.05-0.35,1.76,0.7,2.98,1.05c1.23,0.35,1.4-1.4,5.09-0.88s4.39,2.46,6.67,3.69
		c2.28,1.23,1.76,1.58,3.34,1.93c1.58,0.35,2.81,4.21,3.86,6.32s1.4,4.92,1.4,4.92s1.76,4.92,5.27,10.36s5.62,11.41,7.02,12.99
		s3.34,2.11,5.27,5.79c1.93,3.69,4.21,12.11,4.57,15.1s0.18,5.27,0.18,5.27s1.58,1.93,2.46,4.57c0.88,2.63,2.11,4.21,3.16,6.67
		c1.05,2.46,2.28,4.39,2.28,6.67c0,2.28,0.88,8.95,0.7,11.41c-0.18,2.46-1.05,3.34-0.88,5.27c0.18,1.93,0.53,8.43,1.05,8.25
		c0.53-0.18,1.58-2.98,1.93-0.7c0.35,2.28,0.53,3.16-0.18,4.92c-0.7,1.76-0.35,5.97,0.18,8.25s1.76,4.21,1.58,7.55
		c-0.18,3.34-1.4,7.02-1.4,7.02s5.27,2.63,7.73,3.69s3.16,1.76,3.34,3.51c0,0,2.11,0.35,3.16,0.88c1.05,0.53-0.53,0.35-0.53,1.76
		s0.35,4.21-0.7,5.97c-1.05,1.76-3.16,5.27-4.04,7.02c-0.88,1.76-0.18,3.34-0.18,3.34s2.46-0.7,3.69,2.11
		c1.23,2.81,1.58,4.04,1.05,4.74c-0.53,0.7-2.46,0.88-2.46,1.93s-1.05,4.39-1.23,5.62c-0.18,1.23,1.4,3.51,0.7,5.09
		c-0.7,1.58-2.46,4.74-2.46,4.74s-0.88,3.16-0.88,4.74c0,1.58-0.88,3.86-0.88,3.86l-0.18,4.57c0,0,2.46,1.92,2.46,6.5
		c0,4.04-0.7,4.56-1.05,5.97c-0.35,1.4-0.35,7.2-0.53,8.78s-2.28,2.11-2.28,2.11s-0.53,1.93-0.7,2.81s-2.11,1.93-2.11,1.93
		s1.58,1.76,0.7,2.63s-1.4,0.7-1.76,1.58c-0.35,0.88-1.05,2.28-1.93,3.51c-0.88,1.23-2.11,2.28-1.58,2.11
		c0.53-0.18,1.05-0.35,1.76,1.05c0.7,1.4,3.34,4.92,2.46,6.5c-0.88,1.58-2.28,2.28-3.16,3.16c-0.88,0.88-3.86,3.69-6.32,5.27
		s-4.92,2.11-5.79,2.28c-0.88,0.18-1.05,1.23-1.05,1.23s1.23,4.21,0.18,6.5c-1.05,2.28-4.04,4.92-4.39,6.32s-1.58,3.16-1.58,3.69
		s0.7,4.04-0.18,5.79c-0.88,1.76-1.76,2.46-2.28,5.09s-0.18,7.9-0.18,7.9s2.46,3.86,1.4,6.67c-1.05,2.81-1.4,3.16-2.28,5.44
		c-0.88,2.28-2.81,10.89-2.98,12.11c-0.18,1.23,0,5.44,0.35,8.25c0.35,2.81,1.05,5.27,2.28,8.25c1.23,2.98,2.98,3.16,2.46,5.09
		c-0.53,1.93-1.58,2.98-1.4,5.09c0.18,2.11,0.88,1.76,0.35,5.09s-1.4,6.32-0.88,7.2c0.53,0.88,2.63,0.7,2.98,1.4
		c0.35,0.7,1.76,5.44,2.11,6.32c0.35,0.88,2.63,2.11,3.86,3.34c1.23,1.23,1.05,2.46,0.18,5.27c-0.88,2.81,1.58,3.51,1.58,6.15
		c0,2.63-0.35,4.92,0.53,7.2c0.88,2.28,2.63,2.11,2.28,4.39c-0.35,2.28-1.76,2.81-2.63,5.44c-0.88,2.63-1.05,4.56-1.93,5.09
		s-1.58,1.23-1.76,1.76c-0.18,0.53-2.81,3.69-2.81,3.69s-1.76-0.53-2.98-0.53s-3.16-0.35-4.92,1.76c-1.76,2.11-3.34,3.16-4.39,3.51
		s-2.63,0.53-2.63,0.53s-1.23,4.57-0.7,6.85c0.53,2.28,1.93,1.76,1.76,4.04c-0.18,2.28-0.88,4.57-1.05,5.44s1.76,1.23,1.76,1.23
		l1.93,2.98c0,0,1.93-0.35,2.63,0.18c0.7,0.53,2.28,1.58,3.16,2.81c0.88,1.23,0.88,3.69,0.88,5.62
		C695.97,819.8,695.97,821.56,692.81,822.44z"/>
</g>
</svg>
