<?xml version="1.0" encoding="utf-8"?>
<!-- Generator: Adobe Illustrator 24.1.3, SVG Export Plug-In . SVG Version: 6.00 Build 0)  -->
<svg version="1.1" id="圖層_1" xmlns="http://www.w3.org/2000/svg" xmlns:xlink="http://www.w3.org/1999/xlink" x="0px" y="0px"
	 viewBox="0 0 1200 1200" style="enable-background:new 0 0 1200 1200;" xml:space="preserve">
<style type="text/css">
	.st0{fill-rule:evenodd;clip-rule:evenodd;}
</style>
<g>
	<path d="M564.26,820.36c-1.49-2.9-3.09-5.3-2.43-7.73c0.66-2.43,2.43-5.63,2.43-5.63s-0.33-1.99-0.88-4.2
		c-0.55-2.21-1.32-6.51-0.99-8.83c0.33-2.32,0.44-3.09-0.11-6.07c-0.55-2.98-2.21-13.25-2.43-17.22s2.1-12.26,6.07-17.33
		c3.97-5.08,17.11-10.93,17.44-11.26c0.33-0.33,1.99-0.66,2.43-0.88s1.1,0.22,1.1,0.22s5.85-2.43,16.45-1.77s19.21,3.53,26.39,6.96
		s22.86,16.67,23.74,17.67c0.88,0.99,2.1,0.44,2.32,1.21c0.22,0.77,0.77,1.77,1.1,1.99s10.6,12.7,10.71,13.03s9.16,16.12,9.94,18
		c0.77,1.88,1.32,1.66,1.44,2.65s0,1.77,0.11,2.1s1.88,7.51,2.32,11.15c0.44,3.64-0.11,12.26-0.88,15.68
		c-0.77,3.42-0.66,5.63-1.55,6.62c-0.88,0.99-4.31,7.95-10.27,11.7c-5.96,3.75-17.44,10.38-29.92,10.16
		c-11.45-0.2-20.54-3.31-31.91-7.73c0,0-1.77,2.87-2.43,4.53c-0.66,1.66-1.55,4.2-2.32,5.19c0,0,8.77,10.76,11.26,24.07
		c0.99,5.3,0.66,11.26-0.44,15.9c0,0,1.1,0.99,0.77,2.54c-0.33,1.55-0.99,2.54-0.99,2.54l-0.66-0.66c0,0-0.99,3.64-2.65,6.74
		c-1.66,3.09-7.62,12.37-22.3,14.68c-14.68,2.32-26.39,0.44-37.98-2.87c-11.59-3.31-28.15-12.26-45.6-26.61
		c-17.44-14.35-20.09-32.79-20.09-32.79s-0.29,0.37-0.52-1.18c-0.22-1.55-0.37-1.91,0.15-2.36c0,0,0-2.72-0.15-3.17
		s-0.66-0.44-0.59-1.69c0.07-1.25,1.1-3.83,1.03-4.64c-0.07-0.81-0.59-1.4-0.29-2.06s0.74-1.69,0.74-1.69s1.1-4.42,4.2-9.2
		c3.09-4.78,8.83-12.2,20.32-13.62c5.37-0.66,12.95-0.44,14.35-0.29c1.4,0.15,10.01,0.07,15.24,0c5.23-0.07,10.38-0.29,10.97-0.29
		c0.59,0,0.96-0.07,1.4,0s1.77,0.29,1.77,0.29s-0.52-0.59,1.03-0.81c1.55-0.22,2.94,0.15,3.97,0.29c1.03,0.15,6.04,2.58,7.14,3.02
		c1.1,0.44,2.06,1.03,2.65,0.59s0.74-1.55,0.29-2.21C566.69,824.41,565.88,823.52,564.26,820.36z"/>
	<path d="M423.38,687.42c-0.44,1.18-0.59,1.84,0,2.72c0.59,0.88,2.72,3.75,3.9,4.27c1.18,0.52,3.9,0.66,4.78,0.52
		c0.88-0.15,2.28-0.29,3.68-1.77c1.4-1.47,7.29-5.96,16.19-10.82c8.91-4.86,15.75-8.17,24.14-10.53c8.39-2.36,16.19-2.43,16.19-2.43
		s0.37-0.44,1.25-0.52c0.88-0.07,1.4,0.22,1.77,0.07s1.62-0.22,2.58-0.07c0.96,0.15,2.36,0.52,2.8,0.66s0.74,0.52,0.74,0.52
		s3.24,0.59,3.9,0.66c0.66,0.07,0.81-0.44,1.99,0.37c1.18,0.81,1.25,0.66,1.84,1.25c0.59,0.59,1.4,1.32,1.62,1.32
		c0.22,0,1.1,0.81,2.36,2.21c1.25,1.4,5.23,7.07,5.08,13.4c-0.15,6.33-0.22,9.64-3.53,17.59c-3.31,7.95-10.31,17.89-15.02,24.44
		c0,0-0.15,1.55-0.74,1.77s-1.4,0.44-1.4,0.44s-2.58,4.56-5.08,6.62c-2.5,2.06-14.35,17.52-34.6,29.52
		c-20.24,12-25.84,11.78-31.65,12.59c-5.81,0.81-16.93,0.59-22.89-4.12c-5.96-4.71-8.24-9.5-7.95-15.16s0.74-10.45,0.52-12.22
		c-0.22-1.77-0.81-3.02-0.81-4.78c0-1.77-0.07-5.96-0.07-5.96s-1.47-1.91-0.96-4.56c0.52-2.65,1.25-3.17,1.25-3.17
		s-1.62,0.88-2.43,0.59c-0.81-0.29-1.55,1.47-4.56,1.62c-3.02,0.15-14.06-1.18-17.67-2.72c0,0-5.67-0.07-11.56,0.07
		s-10.38,1.1-15.24,0.44c-4.86-0.66-11.26-2.5-19.51-8.69c-8.24-6.18-14.65-19.43-16.34-28.71c-1.69-9.27-1.03-22.16,2.13-32.39
		c0,0,0.22-2.21,0.59-2.8c0.37-0.59,0.81-1.55,1.1-2.43s2.28-5.81,6.04-11.63c3.75-5.81,6.51-11.52,17.61-22.06
		c11.1-10.54,19.93-16.95,36.38-21.7c16.45-4.75,28.76,0.55,34.34,2.65c5.58,2.1,12.7,8.67,16.4,13.69c3.7,5.02,3.15,5.69,3.92,6.79
		c0.77,1.1,0.66,1.71,1.66,3.04c0.99,1.32,0.88,2.26,1.38,3.75c0.5,1.49,2.32,7.73,2.87,11.7s0.77,12.2-0.06,17.39
		c-0.83,5.19-3.48,14.46-5.3,18.83S423.38,687.42,423.38,687.42z"/>
	<path d="M549.61,494.2c-1.32-4.93-5.15-10.53-5.15-10.53s0.07-1.03-0.22-1.55c-0.29-0.52-1.18-0.29-1.18-0.29
		c-6.26-8.17-16.19-8.32-20.9-7.29c-4.71,1.03-7.88,1.69-17.3,8.17c-9.42,6.48-14.06,11.41-20.24,20.68
		c-6.18,9.27-8.83,18.92-9.27,19.58c-0.44,0.66-1.18,0.59-1.99,1.1c-0.81,0.52-2.06,1.25-3.09,1.32s-2.28-1.18-3.17-1.99
		c-0.88-0.81-2.72-1.91-3.09-3.53c0,0-0.72-5.98-1.6-8.96c-0.88-2.98-1.71-5.52-1.99-6.18c-0.28-0.66-0.11-0.99-0.17-1.77
		c-0.06-0.77-0.66-0.88-1.1-1.77c-0.44-0.88-2.71-9.05-10.54-18.88c-7.84-9.83-16.56-16.01-21.97-17.44
		c-5.41-1.44-10.99-2.1-18.66,1.27c-7.67,3.37-11.65,9.05-13.47,10.54c-1.82,1.49-2.37,2.65-3.09,3.26
		c-0.72,0.61-1.55,2.32-2.04,3.92s-0.28,2.15-0.28,2.15s-2.82,5.13-3.15,6.51c-0.33,1.38-2.1,4.8-2.54,6.51
		c-0.44,1.71-0.33,2.04-0.77,2.93c-0.44,0.88-0.77,1.21-0.94,2.26c-0.17,1.05-1.6,6.85-2.04,11.48c-0.44,4.64-0.83,10.71-0.83,10.71
		s-0.61,1.38-0.5,2.15c0.11,0.77,0.11,2.32,0,3.31c-0.11,0.99,0.22,1.82,0.22,1.82s0.17,0.28,0.88,5.74
		c2.33,17.74,10.71,33.57,18.6,41.57s20.37,11.65,27.05,10.65c6.68-0.99,11.26-3.97,13.03-5.35c1.77-1.38,2.71-2.43,3.59-3.2
		c0.88-0.77,1.49-1.6,1.99-1.88c0.5-0.28,0.72-0.77,1.16-1.21c0.44-0.44,3.97-3.31,3.97-3.31s0.66-0.39,1.32-0.55
		c0.66-0.17,0.44-0.61,0.72-0.99c0.16-0.23,0.74-0.61,1.51-1.14c1,0.04,2,0.09,2.3,0.09c0.55,0,0.88-0.22,1.55-0.33
		c0.66-0.11,1.32-0.44,1.88-0.5c0.55-0.06,0.94,0.22,1.27,0.39c0.33,0.17,0.55-0.11,0.77-0.11c0.22,0,0.72-0.06,1.32-0.22
		c0.61-0.17,3.26,0.11,4.69,0.17c1.44,0.06,1.32,0.17,1.77,0.22c0.44,0.06,0.55-0.11,0.94-0.17c0.39-0.06,1.6-0.06,2.1,0
		c0.22,0.02,0.59,0.07,0.94,0.12c0.29,0.5,0.54,0.99,0.93,1.32c0.72,0.61,2.21,2.72,2.21,2.72s0.44,0.15,1.4,1.18
		c0.96,1.03,1.84,3.09,2.36,3.9c0.52,0.81,0.96,2.06,1.55,2.43s1.55,2.43,2.43,3.75c0.88,1.32,2.94,5.01,5.01,6.11
		c6.14,3.29,11.92,4.27,18.99,2.87c7.07-1.4,13.32-4.42,18.18-8.61c4.86-4.2,9.64-10.75,12.95-15.16c3.31-4.42,5.01-8.1,5.01-8.1
		s0.81-0.59,1.25-1.69c0.44-1.1,0.37-2.28,0.37-2.28c6.18-14.43,7.66-24.95,8.54-36.88C553.95,513.34,550.94,499.14,549.61,494.2z
		 M466.16,573.15c-1.71-0.11-3.7-0.28-4.36-0.22s-2.43-0.11-2.43-0.11s-0.83-0.17-1.71-0.28c-0.52-0.07-1.8-0.13-2.78-0.21
		c1.75-1.09,4.46-2.21,6.32-2.55c2.1-0.39,4.2-0.77,6.02-0.17c1.82,0.61,2.82,2.04,3.75,2.87c0.24,0.22,0.44,0.45,0.61,0.69
		C469.9,573.2,467.28,573.22,466.16,573.15z"/>
	<path d="M583.09,394.33c1.25,1.18,3.39,4.49,5.08,6.18c1.69,1.69,3.97,2.8,5.89,3.75c1.91,0.96,6.55,1.47,6.55,1.47l-0.44,0.81
		l-1.47,0.22c0,0-0.96-1.18-1.55-1.1c-0.59,0.07-0.81,0.88-0.88,1.25c-0.07,0.37,0,0.81,0,0.81s-2.28,0.29-3.02,0.52
		c-0.74,0.22-1.4,0.22-1.18,0.74c0.22,0.52,0.52,0.74,0.52,0.74s-1.47,0.22-3.02,1.1c-1.55,0.88-2.58,1.62-2.72,1.4
		s-0.59,0.07-0.66,0.37c-0.07,0.29-0.96,0.74-1.47,1.03s-6.77,4.49-9.2,6.04c-2.43,1.55-5.96,3.39-7.58,4.34
		c-1.62,0.96-3.83,1.77-7.51,5.59s-3.02,10.45-2.21,12.37s5.59,8.17,16.27,12.51c10.67,4.34,30.18,11.7,52.92,10.45
		c22.74-1.25,43.8-7.14,61.17-13.91c17.37-6.77,24-10.6,30.77-15.09c6.77-4.49,10.97-8.1,12.22-11.26c1.25-3.17,1.4-5.45,1.32-6.33
		c-0.07-0.88-1.47-3.97-2.58-4.91c-1.1-0.94-5.02-4.36-10.05-6.4c-5.02-2.04-24.18-6.24-25.01-6.4s-1.44-0.39-2.48-0.61
		s-2.43-0.06-2.98-0.17s-5.3-0.22-5.8-0.44s-0.94-0.28-1.66-0.33c-0.72-0.06-2.04-0.33-2.71-0.28c-0.66,0.06-14.02,0.17-14.57,0.11
		c-0.55-0.06-1.77-0.22-2.32-0.17s-0.5-0.55-1.44-0.22c-0.94,0.33-2.32,0.28-2.71,0.61c-0.39,0.33-0.88,0.61-1.16,0.77
		c-0.28,0.17-3.97,0.88-4.64,0.88s-1.16-0.28-1.16-0.28s-0.39-0.83-0.44-1.66c-0.06-0.83-0.11-0.99-0.06-1.44
		c0.06-0.44-0.33-1.05-0.39-1.99c-0.06-0.94-0.11-1.55-0.22-1.93s-0.44-0.39-0.66-0.94c-0.22-0.55-0.33-0.72,0.17-1.1
		c0.5-0.39,0.83-0.61,1.77-0.94c0.94-0.33,1.44-0.72,1.93-0.88s0.61-0.22,1.49-0.88c0.88-0.66,1.6-0.94,3.48-1.6
		c1.88-0.66,2.65-1.05,4.53-2.43c1.88-1.38,9.61-5.91,15.57-11.1c5.96-5.19,13.08-12.86,18-21.25c4.91-8.39,5.58-11.76,6.96-17.78
		s2.87-12.7,0.11-23.57c-2.76-10.88-10.77-17.72-19.1-24.18c-8.34-6.46-19.62-9.39-28.04-11.65c-3.7-0.99-6.24-1.16-6.74-1.44
		s-0.94-0.17-1.6-0.11s-2.98-0.44-6.07-0.72c-3.09-0.28-30.69-1.66-50.29,5.35c-19.6,7.01-28.71,11.7-42.07,26.61
		c-13.36,14.91-14.74,30.75-14.74,38.42c0,1.71-0.5,1.38,0,2.87s0.5,3.92,1.05,5.74s1.44,4.47,1.6,5.24
		c0.17,0.77,0.22,1.16,0.55,1.82s0,1.05,0.55,1.77c0.55,0.72,1.21,1.32,1.27,1.55c0.06,0.22,2.32,3.53,2.32,3.53
		s0.88,0.61,0.99,1.05s0.17,0.77,0.5,1.05s0.94,0.66,1.05,1.1s0.28,0.88,0.28,0.88s3.92,4.47,7.67,6.79
		c3.75,2.32,9.77,5.47,12.53,6.96s6.74,4.36,11.04,6.9C580.92,393.09,583.09,394.33,583.09,394.33z"/>
	<path d="M587.3,557.14c4.15-2.01,4.34-2.13,4.34-2.13s-0.07-0.81,0.52-0.96c0.59-0.15,1.03-0.37,1.91-0.44
		c0.88-0.07,0.66,0.15,0.66,0.15s8.17-2.94,9.2-3.31c1.03-0.37,0.15-1.25,0.96-1.4s2.43-0.29,2.87-0.44s0.96-0.66,1.69-0.66
		c0.74,0,1.99,0.29,1.99,0.29s0.44-0.52,1.32-0.22c0.88,0.29,1.32,0.74,1.32,0.74s7.58-1.03,17.3,1.47
		c9.72,2.5,16.02,5.39,23.92,16.12c2.06,2.8,5.15,8.02,5.59,14.94s-0.29,11.48-1.77,15.53c-1.47,4.05-3.09,10.16-3.53,11.92
		c-0.44,1.77-0.15,2.65-0.88,5.81c-0.74,3.17-1.4,7.58-1.84,8.83s-0.66,2.21-0.66,3.39s0.74,1.99,0.44,3.02
		c-0.29,1.03-0.66,2.65-1.4,3.83c-0.74,1.18-1.99,3.31-2.21,4.05s0.88,1.23,1.82,0.57c0,0,0.06-0.55,0.39-0.88
		c0.33-0.33,1.32-0.33,1.32-0.33s2.65-1.44,3.42-1.49c0.77-0.06,1.21,0.11,1.21,0.11s0.11-0.39,1.66-0.66
		c1.55-0.28,5.35-0.72,5.35-0.72s0-1.55,1.32-1.82c1.32-0.28,2.87,0.44,5.24-0.22s16.01-5.35,16.84-5.69
		c0.83-0.33,1.05-0.94,1.55-1.1s0.77,0.11,0.77,0.11s2.96-1.12,8.49-1.96c5.52-0.84,9.13-0.18,10.57,0.12s9.37,2.46,12.37,8.89
		c3,6.42,1.98,10.57,2.1,11.65c0.12,1.08-0.18,1.86-0.36,2.28s-0.6,3-1.92,6.48c-1.32,3.48-4.98,9.49-5.46,10.21
		c-0.48,0.72-0.72,1.02-0.78,1.5c-0.06,0.48,0.18,1.44-0.36,2.4c-0.54,0.96-2.94,5.16-3.96,6.6s-2.16,2.46-2.46,2.46
		c-0.3,0-1.02-0.18-1.56,0.54c-0.54,0.72-6.3,4.68-7.87,6.12s-7.02,6.48-7.26,6.72s-0.24,1.02-0.78,1.2
		c-0.54,0.18-2.1,0.6-2.46,1.02s-1.44,2.04-1.8,2.46c-0.36,0.42-0.3,0.9-0.84,0.9c-0.54,0-1.08-0.06-1.5-0.06s-0.96,0.6-1.5,0.78
		c-0.54,0.18-0.78,1.14-1.44,1.5c-0.66,0.36-1.56,0.6-2.1,1.08c-0.54,0.48-6.24,4.5-16.57,9.61c-10.33,5.1-19.21,8.47-31.04,10.21
		c-11.83,1.74-18.9-0.7-22.03-3.72c-3.42-3.3-7.75-10.53-4.38-22.58c2.7-9.67,7.93-16.33,8.23-16.99c0.3-0.66,0.06-1.14,0.66-2.28
		c0.6-1.14,1.62-1.8,1.62-1.8s-0.84-0.78-0.42-1.32c0.42-0.54,0.84-0.84,1.14-1.5c0.3-0.66,0.54-1.26,0.48-2.28
		c-0.06-1.02-0.66-3.48-1.14-4.02c-0.48-0.54-0.48-0.72-0.9-1.26s-0.78-0.6-1.14-0.54c-0.36,0.06-7.87,3.54-17.71,5.46
		c-9.85,1.92-29.9,0.78-43.89-10.75c-13.99-11.53-15.28-25.26-12.2-40.64c0.52-2.58,1.03-4.56,1.03-4.56s-0.44-0.96,0.15-1.47
		s0.59-1.69,2.94-6.48s6.04-11.85,15.75-23.04C569.34,567.3,582.29,559.57,587.3,557.14z"/>
	<path d="M777.18,460.54c9.96-4.98,16.24-5.42,22.4-5.86c1.47-0.1,0.31-1.15,9.32-0.31s14.87,1.47,26.49,5.76
		c11.62,4.29,24.6,10.05,29.73,13.09c5.13,3.04,9.32,7.01,10.47,7.96c1.15,0.94,2.72,1.57,3.45,1.99c0.73,0.42,2.09,0.94,3.35,2.72
		c1.26,1.78,2.72,3.98,2.72,8.69s-0.31,7.12-0.94,8.17c-0.63,1.05-2.3,1.67-2.72,2.09c-0.42,0.42-1.36,2.41-1.36,2.41l-0.21,0.63
		c0,0,1.99,2.09,2.09,4.92c0.1,2.83,0.1,4.4,0.1,6.18c0,1.78,0.1,3.56-0.94,5.13c0,0-0.1,2.3-0.73,3.04s-0.52,1.67-1.05,2.2
		s-1.05,0.73-1.47,1.47c-0.42,0.73-0.63,1.67-1.15,2.2s-0.94,0.52-1.05,0.84c-0.1,0.31,0,0.52-1.47,2.41
		c-1.47,1.88-4.5,5.34-5.44,6.28c-0.94,0.94-6.8,5.65-10.57,8.27c-3.77,2.62-9.74,6.07-12.56,7.22s-3.66,1.47-5.23,2.83
		c-1.57,1.36-3.35,1.57-9.95,3.87c-6.6,2.3-20.49,5.57-34,6.36s-23.79-1.88-24.34-1.88c-0.55,0-1.41,0.24-1.41,0.24
		s-5.18-0.71-6.05-1.02c-0.86-0.31-0.86-0.31-0.86-0.31s-2.98-1.33-5.26-2.43c-2.28-1.1-6.99-3.45-7.77-3.85s-2.51-0.86-3.14-1.26
		s-4.24-3.77-5.5-5.18s-3.06-2.67-3.06-2.67s-0.08-1.81-0.71-2.51c-0.63-0.71-1.26-2.2-1.49-2.91c-0.24-0.71-0.24-0.71-0.24-0.71
		s-0.08-1.33-0.63-3.53c-0.55-2.2-1.1-5.42-0.55-9.42c0,0-0.71-1.65-0.79-3.22c-0.08-1.57-0.39-2.28-0.39-2.28s0.63-0.08,0.86-0.55
		c0,0-0.08-0.63,0.31-1.33c0.39-0.71,0.55-1.1,0.55-1.1l-0.16-1.96c0,0-0.39-0.86-0.31-1.49c0.08-0.63,1.02-3.3,1.57-5.42
		c0.55-2.12,4.55-8.95,4.55-8.95s1.1-3.06,4.55-8.56c3.45-5.5,4.95-6.52,7.93-11.62c2.98-5.1,2.51-3.53,4.71-7.54
		s4.32-8.09,6.75-10.29S770.84,463.71,777.18,460.54z"/>
	<path d="M809.12,621.83c0,0,3.55-3.55,4.84-3.98s2.69-0.22,2.69-0.22s0.65-0.65,1.4,0.54c0.75,1.18,1.29,2.47,1.18,4.19
		c0,0,4.77,0.11,8.71,3.91c3.94,3.8,5.88,6.24,6.6,7.6c0.72,1.36,2.51,5.45,3.3,7.38c0.79,1.94,2.8,7.74,3.01,8.6
		c0.22,0.86-0.5,3.87-0.29,5.45c0.22,1.58,0.93,2.65,1.36,4.01s0.93,3.37,0.93,3.37s0.86,2.29,1.51,7.24s0.14,4.8,0.14,6.02
		c0,1.22,0,1.22,0,1.22s-0.22,0.14-0.36,0.93s-1,0.86-0.72,1.94c0.29,1.08,0.29,1.08,0.29,1.08s0.65-0.07,0.43,0.72
		s-0.65,1.22-0.72,1.72c-0.07,0.5-0.07,0.5-0.07,0.5s-0.07,1.72,0.14,2.51c0.22,0.79,0.22,1.79,0,3.01c-0.22,1.22-0.93,5.31-1,6.17
		c-0.07,0.86-0.57,1.58-0.43,2.37s-0.43,3.08-0.43,3.08s2.58-3.87,4.01-5.81c1.43-1.94,3.01-3.44,4.59-3.87
		c1.58-0.43,3.51-2.87,4.73-4.01c1.22-1.15,3.08-4.16,3.51-4.8c0.43-0.65,9.82-16.7,10.68-18.21c0.86-1.51,3.15-4.52,3.66-5.74
		c0.5-1.22,0.43-2.37,1.51-3.94c1.08-1.58,3.66-5.52,4.52-6.81c0.86-1.29,0.86-1.29,0.86-1.29s0.72-1.72,1.51-2.87
		s2.51-4.01,3.3-5.23c0.79-1.22,1.29-1.43,1.51-1.51s0.79,1.29,0.79,1.29s0.5,2.08,0.5,3.3s0.86,4.37,1.08,4.88
		c0.22,0.5,0.72,1.43,0.57,2.51c-0.14,1.08-0.14,1.08-0.14,1.08s0.65,1.86,0.65,2.72c0,0.86,0.29,2.22,0.57,3.08
		c0.29,0.86,0.29,2.08,0.22,3.01c0,0,0.43,1.65,0.72,3.23c0.29,1.58,0.07,2.22,0.07,2.22s0.65,1.36,0.93,2.94
		c0.29,1.58,0.29,3.3,0.29,3.3s0.93,3.01,0.65,7.96c-0.29,4.95-0.29,12.04-1.65,18.86c-1.36,6.81-4.73,22.73-10.25,33.05
		c-5.52,10.32-10.18,20.58-19.86,28.68c-9.68,8.1-14.27,10.61-15.77,11.69s-5.02,2.01-5.02,2.01s-1.94,1.36-3.94,2.51
		c-2.01,1.15-5.81,1-6.24,1c-0.43,0-2.94,0.57-6.67,0.65c-3.73,0.07-4.73,0.43-5.52,0.5s-1.22-0.14-2.15,0.07s-1.51,0.79-2.37,0.65
		c-0.86-0.14-1.65-0.65-1.43-1.22s0-2.94,0.14-3.58c0.14-0.65,0.86-2.15,0.86-2.15l0.5-1l0.43-0.65c0,0-0.22-0.29-0.07-0.79
		c0.14-0.5,1-2.22,1.22-2.94s0.72-1.43,0.79-1.65c0.07-0.22,0.72-0.86,0.79-1.15c0.07-0.29-0.07-0.43,0.14-0.72
		c0.22-0.29,0.57-0.86,0.72-1.36c0.14-0.5,0-0.79,0.29-1.08c0.29-0.29,0.5-0.72,0.5-0.72s0.22-0.65,0.5-0.93
		c0.29-0.29,1-0.65,1.15-0.86c0.14-0.22,0.86-0.86,0.93-1.65c0.07-0.79,1.15-2.58,1.36-4.44s0.79-2.72-0.79-5.16
		c0,0-3.87,4.37-5.09,5.52c-1.22,1.15-7.53,6.31-9.75,8.24c-2.22,1.94-4.88,3.15-5.31,3.3c-0.43,0.14-1.22,0.29-2.01,0.93
		c-0.79,0.65-1.08,1-1.72,1.15s-1-0.14-1.51,0.43s-1.08,0.22-1.94,0.65c-0.86,0.43-1.79,0.72-2.72,1.08
		c-0.93,0.36-3.94,0.07-4.59,0.36c-0.65,0.29-0.29,1-1.22,0.86c-0.93-0.14-1.43-0.22-2.08-0.07s-1.86,0.29-2.72,0.14
		c-0.86-0.14-2.44-0.72-3.08-0.72c-0.65,0-2.22,0.07-2.44,0c-0.22-0.07-1.36-0.14-3.01-0.07c-1.65,0.07-4.09-0.79-5.45-0.79
		s-3.66-1.36-4.09-1.36c-0.43,0-0.72,0.36-1.22,0.22c-0.5-0.14-2.22-0.86-2.94-1.08s-1.43-0.36-2.29-1.36
		c-0.86-1-2.44-4.37-3.8-6.38c-1.36-2.01-1.36-2.37-2.15-3.44c-0.79-1.08-1.15-2.37-1.58-3.15c-0.43-0.79-1.08-2.08-1.58-3.08
		c-0.5-1-0.43-2.51-0.43-2.51s-0.65-2.08-0.72-2.44c-0.07-0.36,0.57-1.36,0.57-1.36s-0.14-0.93-0.22-1.94c-0.07-1,0-2.08-0.57-3.66
		c-0.57-1.58-0.29-3.51-0.43-4.16c-0.14-0.65-0.57-0.72-0.43-1.72c0.14-1-0.43-2.29-0.36-3.44c0.07-1.15,0.72-2.94,0.72-2.94
		l-0.5-1.94c0,0-1.08-0.36-0.93-1.58c0.14-1.22,0.93-2.58,0.93-2.58s0.57-4.52,0.43-5.38c-0.14-0.86-0.72-1.22-0.29-2.08
		c0.43-0.86,0.65-1.29,0.72-2.08c0.07-0.79-0.29-1.51-0.07-2.29c0.22-0.79,0.79-2.87,0.79-2.87s-0.72-0.57-0.36-1.51
		s1.43-2.22,1.43-2.22s0.43-2.58,0.72-4.45c0.29-1.86-0.43,0.07,1.15-4.66s4.45-11.54,4.73-12.9s0.43-2.37,1.15-3.37
		c0.72-1,1.94-4.01,1.94-4.01s-0.5-0.65-0.22-0.93c0.29-0.29,2.37-3.15,2.37-3.15s-0.5-0.43,0-1c0.5-0.57,0.72-1.08,1-1.72
		c0.29-0.65,1.36-1.58,1.36-1.58s0.93-1.51,1.22-2.37c0.29-0.86,1.58-1.72,1.72-2.51c0.14-0.79,0.57-1.58,1.15-1.36
		c0,0,2.44-3.08,3.58-4.8s6.38-7.53,8.03-9.18c1.65-1.65,5.74-4.88,6.6-5.59c0.86-0.72,3.01-2.37,3.66-2.87
		c0.65-0.5,2.22-1.86,2.51-2.15c0.29-0.29,2.08-1.08,2.44-1.36c0.36-0.29,1.43-1.15,1.43-1.15l1.65-1l0.5-0.29l1-0.72l1.22-0.22
		c0,0-0.29-0.07,0.5-0.57c0.79-0.5,3.66-1.43,5.02-1.79S807.08,622.34,809.12,621.83z"/>
</g>
</svg>
