<?xml version="1.0" encoding="utf-8"?>
<!-- Generator: Adobe Illustrator 24.1.3, SVG Export Plug-In . SVG Version: 6.00 Build 0)  -->
<svg version="1.1" id="圖層_1" xmlns="http://www.w3.org/2000/svg" xmlns:xlink="http://www.w3.org/1999/xlink" x="0px" y="0px"
	 viewBox="0 0 1200 1200" style="enable-background:new 0 0 1200 1200;" xml:space="preserve">
<style type="text/css">
	.st0{fill-rule:evenodd;clip-rule:evenodd;}
</style>
<g>
	<path class="st0" d="M677.73,611.58c3.88-0.83,11.61-1.83,15,2.22c0,0,2.87-0.52,5.48,0.52s5.74,3.26,6.65,5.09l-1.3,1.17
		c0,0,0.26,0.26-2.74-2.09c-3-2.35-8.35-1.96-8.35-1.96s-1.57-1.17-4.7-2.22c-3.13-1.04-11.48-0.91-12.26-0.13
		c-0.78,0.78-0.91,1.83-0.91,1.83s1.04-0.39,1.7,0.91c0.65,1.3-1.17,3.39-1.17,3.39s-3.52,0.78-4.83,0.26
		c-1.3-0.52-2.22-0.39-1.96-4.04s-0.13-7.56-0.13-8.35c0-0.78-1.57-3.78-3-6.91c-1.43-3.13-6.65-12.13-8.87-14.48
		s-7.17-6.39-8.87-7.3s-5.35-2.74-9.91-1.96c-4.56,0.78-9.91,3-14.22,6.52c-4.3,3.52-12.65,12.26-14.87,14.74s-2.22,2.48-2.22,2.48
		s-1.96,2.09-5.09,2.61c-3.13,0.52-3.13,0.52-3.13,0.52s-4.17,0.91-5.87,0.39c-1.7-0.52-9.26-3.13-14.22-5.87
		s-14.09-7.83-17.09-9.65c-3-1.83-7.43-2.74-9.91-3.26c-2.48-0.52-7.96-1.17-11.35,1.3c-3.39,2.48-7.96,8.09-7.96,8.09
		s-0.26,4.39-0.39,6c-0.13,1.57-1.83,1.17-1.83,1.17s-1.57,3.78-1.96,4.56c-0.39,0.78-5.22,5.35-6.39,6
		c-1.17,0.65-6.26,0.91-6.65,1.17c-0.39,0.26,0.26,1.57,0.39,2.35c0.13,0.78-5.48,4.83-7.7,5.22c-2.22,0.39-5.22,1.57-7.04-0.13
		c-1.83-1.7-4.96-5.87-4.96-5.87l4.04-0.13c0,0,0.65,2.48,1.96,3.52c1.3,1.04,2.09,2.22,2.74,1.3s3.78-3.52,5.61-5.61
		c1.83-2.09,2.61-2.09,3.13-2.09c0.52,0,3.26-0.52,4.83-0.91c1.57-0.39,2.35-0.78,3-1.3c0.65-0.52,3.78-4.96,4.3-6.13
		c0.52-1.17,0.91-3.78,1.3-4.43c0.39-0.65,1.43-0.39,1.43-0.39s0-2.61,0.39-4.17c0.39-1.57,6.52-7.17,10.56-9.26
		c4.04-2.09,9.22-3.14,21.26-0.39c4.56,1.04,15,7.17,21.52,10.56c6.52,3.39,12,7.56,13.69,7.7c1.7,0.13,3.39,0.26,4.7-0.52
		s7.7-8.74,13.17-14.48c5.48-5.74,9.52-7.04,11.22-8.48c1.7-1.43,9.91-1.3,13.83-1.43s9.26-1.43,11.61-0.65
		c2.35,0.78,7.35,4.25,10.04,8.48c1.83,2.87,3.52,6,6.26,9.26s5.57,8.59,6,11.61c0.26,1.83,0.52,5.87,0.52,5.87l1.43,0.52
		C673.69,614.32,674.08,612.37,677.73,611.58z"/>
</g>
</svg>
