<?xml version="1.0" encoding="utf-8"?>
<!-- Generator: Adobe Illustrator 24.1.3, SVG Export Plug-In . SVG Version: 6.00 Build 0)  -->
<svg version="1.1" id="圖層_1" xmlns="http://www.w3.org/2000/svg" xmlns:xlink="http://www.w3.org/1999/xlink" x="0px" y="0px"
	 viewBox="0 0 1200 1200" style="enable-background:new 0 0 1200 1200;" xml:space="preserve">
<style type="text/css">
	.st0{fill-rule:evenodd;clip-rule:evenodd;}
</style>
<g>
	<path class="st0" d="M556.93,541.79c-0.04-6.1,0.93-8.36,4.59-13.63c3.66-5.27,12.34-14.5,30.16-17.53
		c3.9-0.66,16.28,2.77,25.94,11.71s22.33,26.9,23.85,46.05c1.52,19.15,1.91,113.25,1.37,114.81c-0.54,1.56-1.35,3.52-4,4.57
		c-2.65,1.05-16.64,2.29-18.69,1.36s-3.77-3.46-4.31-6.69c-0.54-3.23-0.97-102.68-0.8-104.72c0.17-2.04-0.42-4.09-1.07-4.94
		c-0.65-0.85-2.39-2.4-3.7-1.6c0,0-4.13,3.9-9.11,6.92c-4.99,3.02-10.83,4.4-18.75,1.79c-7.92-2.61-14.14-8.03-18.16-12.07
		c-4.02-4.03-4.02-4.03-4.02-4.03s-1.6-2.61-2.38-4.9C557.08,556.61,556.93,541.79,556.93,541.79z"/>
</g>
</svg>
