<?xml version="1.0" encoding="utf-8"?>
<!-- Generator: Adobe Illustrator 24.1.3, SVG Export Plug-In . SVG Version: 6.00 Build 0)  -->
<svg version="1.1" id="圖層_1" xmlns="http://www.w3.org/2000/svg" xmlns:xlink="http://www.w3.org/1999/xlink" x="0px" y="0px"
	 viewBox="0 0 1200 1200" style="enable-background:new 0 0 1200 1200;" xml:space="preserve">
<style type="text/css">
	.st0{fill-rule:evenodd;clip-rule:evenodd;}
</style>
<g>
	<path class="st0" d="M176.94,379.79l-4.82-2.55c0,0,0.99-16.88,0.43-26.82s-1.84-22.13,7.8-26.39c9.65-4.26,37.6-10.36,37.6-10.36
		s18.11-7.9,58.22-19.06c40.11-11.16,66.21-15.89,93.65-18.35c27.43-2.46,30.27-2.84,42.94-3.41c12.68-0.57,55.24-0.38,66.02,0.19
		c10.78,0.57,18.73,2.27,20.05,2.84c1.32,0.57,4.35,3.03,10.41,1.32c6.05-1.7,18.54-7.57,31.59-9.27
		c13.05-1.7,29.86-2.18,39.35,0.38c4.92,1.32,6.05,0.95,8.89-2.08s4.92-4.35,28.38-9.84c23.46-5.49,52.4-15.13,103.48-20.05
		s66.4-3.97,108.97-1.32c42.57,2.65,83.24,3.22,88.73,5.11c5.49,1.89,9.46,6.43,13.24,22.32c3.78,15.89,7.95,31.03,7.95,31.03
		l-0.95,1.51c0,0,22.7,92.7,38.59,176.13c15.89,83.43,34.81,224.56,34.81,224.56s1.51-0.76,3.03,1.7
		c1.51,2.46,11.73,57.89,12.49,83.05s-3.22,56.57-17.22,85.7c-14,29.13-46.73,83.43-53.73,92.7s-12.11,8.7-16.08,7.95
		s-4.35-0.57-5.11-4.54s-3.78-21.95-1.7-27.43c2.08-5.49,26.49-24.78,38.97-39.92c12.49-15.13,29.7-40.48,33.86-74.73
		c4.16-34.24-4.16-79.27-5.68-93.83c-1.51-14.57-1.14-26.11-0.57-27.43c0.57-1.32,2.27-2.08,2.27-2.08s-8.89-91.75-26.67-180.48
		s-54.3-203.56-55.81-205.64c-1.51-2.08-4.92-3.03-5.49-8.32c-0.57-5.3,2.27-7.38,4.73-12.49c2.46-5.11-2.08-22.51-2.08-22.51
		s-3.78,1.14-9.46,0.95c-5.68-0.19-13.81-0.57-19.86,1.7c-6.05,2.27-12.3,6.43-13.43,6.24c-1.14-0.19-1.14-5.3-1.14-5.3
		s-4.73,8.13-6.81,8.32s-9.84,0-9.84,0s-7.57,18.73-36.51,30.46c-28.94,11.73-64.51,13.43-109.91,15.7
		c-45.4,2.27-61.86,0.76-79.08-6.24c-17.22-7-18.92-10.03-18.92-10.03s-0.95,4.54-3.78,3.22c0,0,7.95,4.73,11.16,8.32
		s3.03,6.43,3.03,6.43s3.97,1.7,5.49,8.7c1.51,7-4.35,17.78-11.16,20.24s-12.68,4.35-18.54-2.46c-5.86-6.81-10.59-19.86-11.16-23.84
		c-0.57-3.97,0.38-6.43,6.62-7c6.24-0.57,15.13-0.95,15.13-0.95s-3.97-1.14-7-9.08c-3.03-7.95,0.19-9.65,0.76-10.22
		c0,0-3.78-2.27-5.11-5.86c-1.32-3.59-1.32-4.35-1.32-4.35s-7.19-1.51-22.51-3.97c-15.32-2.46-18.16-3.59-33.11-1.14
		c-14.95,2.46-32.35,13.62-37.84,15.32c0,0,0.38,5.86-2.27,10.97c0,0,4.92,1.32,3.41,6.81c-1.51,5.49-4.54,7.95-9.08,10.78
		s-8.89,2.27-7.38,7c0,0,2.46-1.7,5.49,0.57c0,0,2.46-1.51,3.41-2.84c0.95-1.32,2.08,1.14,1.89,2.84c0,0,8.32-2.46,12.68-3.03
		c4.35-0.57,7.76,1.7,7.19,9.27c-0.57,7.57-4.35,14.95-10.59,21.19c-6.24,6.24-13.81,5.68-18.73,1.89
		c-4.92-3.78-8.7-8.51-8.32-12.49c0.38-3.97,1.89-6.05,1.89-6.05s-0.95-2.27-0.38-4.73c0.57-2.46,1.32-2.27,0-4.35
		c-1.32-2.08-1.89-4.35-0.95-6.43c0,0-9.65,8.89-24.03,12.49c-14.38,3.59-77,13.62-99.32,17.03s-38.03,4.35-61.3-0.57
		c-23.27-4.92-37.46-12.68-41.43-14.95c-3.97-2.27-7-0.76-11.16-0.38s-8.13-2.46-8.13-2.46s0.38,1.89-2.08,1.89
		c-2.46,0-10.78-3.03-18.54-2.46c-7.76,0.57-11.73,1.32-18.92,2.84c-7.19,1.51-8.51,1.89-9.46,0.95c-0.95-0.95-1.51-0.95-1.51-0.95
		s-2.08,7.38,3.78,17.4s14.57,19.86,51.65,39.73c37.08,19.86,73.97,41.24,134.32,66.59S545,536.39,545,536.39s0.76-2.84,1.89-3.41
		c1.14-0.57,48.81,14,81.73,26.3s71.77,21.94,115.39,20.09c43.62-1.85,46.91-6.58,55.96-7s26.13,1.23,29.63,9.26
		c3.5,8.02,0.21,10.49-19.13,11.11s-90.74,2.47-127.77-3.7c-37.04-6.17-87.24-22.02-112.13-31.07c-24.9-9.05-27.37-10.7-28.39-11.73
		c-1.03-1.03,0.41-3.5,0.41-3.5s-52.06-18.52-100.2-37.86s-153.7-68.1-188.47-82.92c-34.77-14.81-72.84-30.86-73.86-32.1
		c-1.03-1.23-0.21-3.5-0.21-3.5l-3.29-4.32L176.94,379.79z"/>
</g>
</svg>
