<svg xmlns="http://www.w3.org/2000/svg" viewBox="0 0 262.67 295.35"><g id="圖層_2" data-name="圖層 2"><g id="圖層_1-2" data-name="圖層 1"><path d="M17.78,69.55A85.77,85.77,0,0,1,30,57.29c5.73-4.91,11.45-2.45,15.54-9.81S63.56,27,68.47,23,84,9.06,88.09,6.6,105.25.88,110.16.06s45.78,6.54,54,9S200.9,29.49,203.36,32s4.08,6.54,5.72,6.54,1.63,2.45,4.09,4.08,5.72,9,8.17,9.81,9,6.54,12.26,9,5.73,11.44,8.18,14.71,4.09,3.27,5.72,6.54a55.46,55.46,0,0,0,5.72,9c2.46,3.27,4.91,18.81,5.73,24.53a103.52,103.52,0,0,0,3.27,15.53c1.63,5.73-1.64,14.72-2.46,22.89s-4.9,16.35-5.72,22.08-4.09,9-4.09,13.08.82,9-1.63,13.08-4.91,4.9-7.36,12.26-8.17,15.53-9.81,18-6.54,11.45-8.17,14.72-5.73,5.72-10.63,9.81-7.36,5.72-10.63,9-6.54,4.91-9.81,7.36-4.09,3.27-6.54,4.09-4.09,0-6.54,1.63-2.45.82-4.9,3.27-2.46,2.46-6.54,4.91-3.27,4.09-7.36,4.9-5.72,3.27-9,2.46-7.36-4.09-7.36-4.09-4.91,1.63-8.18,0c0,0,2.46,3.27-1.63,3.27s-7.36-4.09-9.81-5.72-6.54.81-9.81-2.46a11.33,11.33,0,0,1-3.27-7.35,27.07,27.07,0,0,1-4.91,1.63c-3.27.82-4.9,0-6.54-1.63s-3.27-3.28-5.72-4.09-6.54-4.09-6.54-4.09.82-4.91-1.64-4.91-5.72,2.46-7.35.82-3.27-4.9-4.09-5.72-3.27,0-4.91-1.64L66,255.94s-9-1.63-12.26-8.17A11.67,11.67,0,0,1,48,246.13c-2.45-1.63-2.45-3.27-3.27-3.27s-6.54,1.64-6.54,1.64a46.06,46.06,0,0,1-.82-5.72,8.4,8.4,0,0,0-.82-3.27,3,3,0,0,0,1.64-2.46c0-1.63-1.64-3.27-3.27-4.08s-.82-2.46-2.45-2.46-.82-2.45-.82-3.27-2.45-2.45-3.27-2.45,1.63-2.45,0-2.45-4.09.82-4.91,0-1.63-.82-1.63-3.27,0-5.72-.82-5.72-3.27.81-4.09-1.64a14.42,14.42,0,0,1-.81-4.09s-2.46,0-.82-1.63L17,200.35s-1.63-2.45,0-4.08,2.46-1.64,2.46-2.46,1.63-3.27.81-4.9-1.63-.82-1.63-.82a4.27,4.27,0,0,1,.82-4.09c1.63-1.63,3.27-1.63,3.27-2.45s.81-2.45-1.64-3.27-3.27-4.09-3.27-4.09-1.63,3.27-2.45,1.64-1.64-2.45-2.45-2.45a1.57,1.57,0,0,1-.82-2.46c.82-.81,1.63-2.45.82-3.27s-2.46,0-2.46-2.45-.81-4.09,0-4.9,2.46-.82,1.64-2.46-3.27-1.63-3.27-3.27S8,150.49,8,148.85V146.4s-3.27-3.27-2.45-4.91,1.63-1.63,1.63-1.63,1.64-8.18,1.64-10.63S7.15,127.6,8,126l.82-1.63s0-3.27-1.64-4.91-4.08-3.27-3.27-5.72.82-7.36.82-8.18-3.27-1.63-4.09-4.09a9,9,0,0,1,0-6.54c.82-1.63,2.46-4.08,2.46-5.72V86.72s4.08-.82,5.72-2.45,3.27-9,4.9-10.63Z"/></g></g></svg>