<svg xmlns="http://www.w3.org/2000/svg" viewBox="0 0 177.8 175.38"><g id="圖層_2" data-name="圖層 2"><g id="圖層_1-2" data-name="圖層 1"><path d="M50.25,9.64c3.44-1.72,11.58-3.26,16.14-5.47A51.78,51.78,0,0,1,83.7,0c4.69-.13,23.17,2.08,32.67,8.2s15.36,5.2,19.27,9.5,9.24,7.94,12.49,13S160.5,44.39,164.8,48.17s9.24,4.55,9.89,12-.39,17.45,1.17,22.52,3.12,8.07.65,14.45a21.62,21.62,0,0,1-6.38,9.24s-1,5.34-2.08,6.51-2,4.17-3.52,5-2.34,3.12-2.34,3.12,1.43,6.77-1,8.07-4.17,4.95-5.21,6.77-5.46,7.55-8.33,11.46-10.93,13.27-18.87,16.27-22.39,8.2-24.21,9.89-2,1.69-4.69,1.56-6.12,0-9.24-.39-6-.78-6.77-.39c0,0-1,1.43-2.21,1.17l-1.18-.26s-.78.65-1.43-.78a3.89,3.89,0,0,0-2.47-2.47c-1.3-.52-6.77-1.69-10.41-3.52s-11.85-8.46-14.84-9.89-6.9-2.86-6.9-2.86-1.3,2.21-4.3-1.43-4.81-5.6-6.38-6-1.17-.65-1.56-1.69-4.29-3.26-7.94-13.28-3.51-12.11-4.55-13,.39-1.56,0-2.86-1.7-2.87-2.48-5.73-.13-4.42-.65-5.47-2.47-4.29-5.6-4.81l-3.12-.52s-1.82.78-2.47-1.83S5,95.42,3.51,94,.39,91.51.39,89.3,0,82,0,80.19,1.43,79,2,77.85A11.23,11.23,0,0,0,3.38,71C3,67.17,1.3,66.13,2.73,62.23a43.28,43.28,0,0,1,7.42-12.11c2.48-2.6,4.17-4.29,4.3-6s.78-.65,2.21-2.34.91-3.51,5.34-9.37,9-11.2,13.28-14.84,6.5-3.52,9.11-4S45.82,11.85,50.25,9.64Z"/></g></g></svg>