<svg xmlns="http://www.w3.org/2000/svg" viewBox="0 0 100.08 117.77"><defs><style>.cls-1{fill-rule:evenodd;}</style></defs><g id="圖層_2" data-name="圖層 2"><g id="圖層_1-2" data-name="圖層 1"><path class="cls-1" d="M74.49,10.05h-.23a1,1,0,0,0,.12.47h.11V11h-.11l.11.24h-.11v.35h-.12v.23h-.12v.47H74V13h-.12l-.12.47h-.12l-.11,1.16a5.36,5.36,0,0,0-.35,1.17H73l-.11.47-.24.12v.35h-.11a1.21,1.21,0,0,0-.35.58h-.24l-.58,1.05H71.1v.35c-.28.17-.32.37-.7.47-.14.66-.55.69-.58,1.52l-.47.12-.11.35H69c-.19.31-.47.3-.58.7h-.24c-.17.26-.27.17-.46.35l-1.06,1.17h-.23v.11l-.58.47v.23h-.24l-.93,1.17h-.23v.12l-.36.23v.24H64a1.21,1.21,0,0,0-.35.58c-.3.07-.2.06-.35.23h-.12V27H63l-.11.35h-.24l-.58,1.17h-.24v.35c-.37.22-.35.36-.58.7l-.23.12v.23l-.59.47-.11.46-.24.12v.47l-.23.12v.23h-.12v.35h-.12v.23l-.23.12v.23l-.23.24v.23h-.12v.23H59v.24l-.23.11v.36H58.6v.23l-.23.12L58,35.52h-.23c.13.13,0,0,.23.11a3.3,3.3,0,0,1-.35,1.06v.46h-.12v.24h-.11l-.24.7h-.12v.23H57l-.24.7h-.11l-.12.35-.23.12c-.12.25.09.46.11.58l-.23.12v.23l-1,.71v.23l-.24.12-.11.35h-.12l-.12.46-.35.24-.11.58-.35.24-.12.46-.23.12-.12.35h-.12l-.11.58-.36.24v.35l-.35.23-.11.47-.24.12v.23h-.11c-.11.16-.09.21-.12.47h-.23l-.12.35h-.12l-.11.7-.35.23v.24l-.24.11-.23.7-.35.24-.35,1.05h-.24a4.24,4.24,0,0,0-.23,1.17h.12a2.79,2.79,0,0,1,1.28-.94v-.23h.24c.24-.41.68-.54.81-1.05h.24l.11-.59h.24v-.23h.23c.08-.34.13-.38.47-.47l.12-.58.35-.24V47.2l.23-.12.12-.46h.11l.24-.7.23-.12v-.35l.23-.12.12-.47.23-.11v-.24H55l.12-.46h.12v-.47l.23-.12v-.23h.12v-.7h.11v-.24h.12l.12-.35h.23v1.29h-.23c-.06.59-.39.75-.59,1.17v.35l-.23.11v.24l-.24.11-.35,1.06H54.4v.23l-.35.23-.24.7H53.7l-.12.35-.23.12-.12.47-.23.12a1.37,1.37,0,0,0-.47.93h-.35c-.2.89-1,.84-1.17,1.52h-.23c-.25.39-.57.44-.94.7l-.23.35h-.24c-.11.1-.19.27,0,.35v.12h-.23v.12c-.3.21-.22-.13-.35.35l-.58.11-.12.47h-.24v.23h-.23l-.12.35-.35.24v.35l-.23.11V55l-.23.12v.35l-.24.11v.24l-.35.23v.23H46a.39.39,0,0,0,0,.47h-.24v.12l-.35.23v.35h-.12c-.19.25-.37.35-.46.7h-.24v.24h-.23l-.23,1H44c-.1.41.15.32.23.47s0,0-.11.11v.12h.11c0,.19-.11.21-.11.23l.11.7a1,1,0,0,0,.82-.23v-.12h.58l.24-.46h.35v-.12c.37-.2.57-.11.7-.58.32-.09.26,0,.35-.36l.35-.11V59h.23l.12-.23h.24l.11-.24h.24l.11-.23h.24v-.12a1.74,1.74,0,0,1,.81-.46v-.24c.6-.16.61-.66,1.29-.82v-.23h.23c.24-.27.47-.54.7-.82l.47-.11.94-1.06c.27-.25.32,0,.46-.46h.24v-.24h.35a4,4,0,0,1,1.4-1.16l.12-.24h.23l.58-.7H57l.11-.23h.36l.11-.24a1.26,1.26,0,0,1,.82-.46v.11l-.35.24v.11h-.23v.12c-.18.16-.16.06-.24.35-.53.07-.29.1-.58.35v.12h-.24v.23H56.5c-.24.41-.68.54-.82,1a4.47,4.47,0,0,0-.93.47v.23h-.24a3.86,3.86,0,0,1-1.63,1.41v.23h-.24V56h-.23l-.58.7h-.24l-.11.35h-.12c-.2.24-.22.38-.58.47v.24h-.24c-.18.28-.13.07-.35.23l-.82.93h-.23l-.12.24a3.73,3.73,0,0,1-1.17.93v.24h-.23v.23c-.51.13-.61.55-1.17.7-.08.29-.06.19-.23.35v.12H46l-.36.47-.23.11v.47h-.47V63H44.7c-.24.35-.14.07-.35.24s-.24.57-.23,1.05H44v.12a3.26,3.26,0,0,1,1.75.46l.12.24h.47l.11.23h.24l.11.23H47v.12h.23v.12h.23v.11c.32.2.23-.1.35.35l.36.12v.12h.23v.12h.35L49,67l.82.46,1.87-.11a10.17,10.17,0,0,0,2.8-.47h.71v-.12l1.86-.11v-.12h.12v.12h.35l.12.23h1.75v-.12H60v.12c.19,0,.2-.11.23-.12h1.4V66.6l1.29.11V66.6h.81v-.12H64v-.12h.58l.12-.23c.19-.06.21.11.23.11.47.1.62-.23,1,0l.24.36h.23v.11l.47.12V67a1.82,1.82,0,0,0,.93-.12v-.12h1a1.73,1.73,0,0,1-.58,1.17l-.23.12v.7s-.08,0-.12.23l-.47.12v.12l-1,.58V70h-.12c-.13.24.11.48.12.59h-.12l-.11.35a4.18,4.18,0,0,0-1.29.35l-1.52.12v.11H63v.12l-.35-.12-.11.7-.35.12v.35l-.94.23-.12.24c-.37.13-.39-.21-.46-.24l-.82.12-.12.59.47.35v.11c.17.11.36,0,.47.12v.23h.23v.24h.7v.11h.12v.35c.53.13.68.51,1.28.59v.23c.14.07.2.21.24.24h.35l.23.35c.39.26.55,0,.7.58.55.06.65.31,1.29.35v.35a2.36,2.36,0,0,1,1.05.59l.12.23.46.12v.11l3.39.24v.11h.59v.12H72v.12H73v.11h.82v.12l1.87.12v.11h.23V80H77v.12h.46v.11h.24v.12h.7v.12h.7v.12h.58v.11h.59v.12h.46V81l1.17.11v.12h.35v.12h.24v.11h.7v.12h.35v.12h.7l.12.23h.35l.11.23,1.64.35v.12h.23v.12l1.29.23v.12h.23v.12h.47v.11H89v.12h.47v.12h.46v.11h.36v.12h.23v.12H91V84h.35v.12h.35v.12H92v.11l2.22.35a24.26,24.26,0,0,0,5.84,1.41v.81H100v-.11h-.58v-.12h-.47v-.12c-.22,0-.15.06-.23.12l-1.17-.12v-.11h-.35v-.12l-1-.12v-.11c-.27-.08-.33.14-.47.11v-.11a7.19,7.19,0,0,1-.94-.24v-.11h-.23v-.12H94v-.12h-.35v-.11l-.81-.12v-.12l-1.29-.12v-.11H91.2v-.12l-.47-.12v-.11l-.7-.12v-.12h-.35v-.11h-.35v-.12H89V84h-.47v-.11l-1.17-.24v-.11h-.23v-.12h-.35V83.3l-.7-.11v-.12L85.24,83v-.12H85v-.11l-1.64-.24v-.11l-.7-.12v-.12h-.23V82h-.59V81.9H81.5v-.12h-.58v-.11h-.7v-.12h-.35v-.12h-.35v-.11h-.35V81.2l-3.63-.47v-.11l-.93-.12v-.12c-.14,0-.3.2-.58.12v-.12h-.59v-.12H72.16v-.11h-.35V80H71.1v-.12l-1.4-.11v-.12H68.42v-.12H68v-.11c-.59-.17-.87.38-1.17.35v-.12l-.7-.12v-.11c-.29-.21-.24-.29-.7-.35-.08-.33,0-.27-.35-.35v-.24c-.37-.09-.43-.26-.82-.35v-.23l-.35-.12v-.12h-.23v-.11h-.24l-.23-.35h-.23L62.81,77h-.35l-.35-.46-.47-.12-.12-.23a2.73,2.73,0,0,0-.93-.36v-.23l-.7-.12-.24-.35-.35.12v-.12h-.23V75h-.35l-1-.35-.12.23h-.23l-.12.35-2.57,1.05-.12.24-.46.11-.24.35-.35.12v.12c-.43.29-.89.22-1.05.81l-.7.24-.12.35h-.11c-.22.62.47,1.63.58,2.1h.23v.59l.35.11v.35h.12V82l.24.11.23.82h.23c.1.41.36.64.47,1h.23c.15.09.14.45.24.59h.11a1.66,1.66,0,0,1,.47.82h.24a2.14,2.14,0,0,0,.11.46h-.11v.35l.23.12a2.42,2.42,0,0,1,.35.82H56c.14.09.14.44.24.58l.58.47v.35h.23v.23l.47.35c.27.39,0,.54.59.7.08.4.25.46.35.82h.23v.24H59c.16.31.32.62.47.93h.23l.12.35c.67,0,1.41.12,2.22.12h1.52v.12h.12c.25,0,.23-.12.23-.12h1.29s0-.17.23-.12l.12.24.7-.12v.12a3.63,3.63,0,0,0,1.4-.12v.58a6,6,0,0,0-1.29.24H64.8v.11c-.21,0-.55-.22-.94-.11v.11l-3.27-.11v.23h.23l.12.47c.68.14.5.37.82.82l.35.23.12.23.7.12.11.23h.35v.12l.47.12v.11h.35l.12.24h.58v.11h.24v.12l1.28.35v.23c.92,0,1.25.46,1.87.71l.82.11v.12l.47.12V98h.35v.12h.35v.12h.35v.11H71v.12h.58v.12h.24v.11l1.51.24c-.09.37-.13.34-.58.35-.27-.22-.79-.11-1.17-.24V99h-.7v-.12h-.23v-.12l-.7-.11v-.12H69.7v-.12h-.58v-.11l-.47-.12V98H68.3v-.11l-.47-.12v-.12h-.35v-.11L67,97.44v-.12l-.82-.11v-.12L65.5,97v-.12L65,96.74v-.12h-.35V96.5h-.23v-.11h-.36L64,96.15h-.24V96h-.23v-.12H63V95.8l-.46-.11v-.12h-.35l-.12-.23h-.24v-.12l-.58-.12V95c-.22-.17-.27-.15-.35-.47h-.23v-.24l-.47-.35-.12-.35h-.23v-.23c-.32-.19-.29-.32-.82-.35-.32-.29-.88-.12-1.4-.23v-.12l-.35.12a5.81,5.81,0,0,0-.94-.24v.12h.12v.12a3.49,3.49,0,0,1,.82.35l.23.35h.24l.23.23h.23v.12h.24v.11h.23l.12.24h.46l.24.35.58.12.24.35h.35l.11.23h.24v.12l.58.11.12.24.58.11.24.35.35.12v.23h.35c.08.33,0,.27.35.35.23.28.28.08.58.24v.12c.17.1.2.08.47.11v.24l.58.11v.24a4.1,4.1,0,0,1,1.29.7l.58.11.12.24h.35v.11h.23l.24.36h.35l.23.35h.23l.24.23.82.23.23.35h.23l.12.24h.23l.12.23h.47l.23.35h.35v.12h.24l.11.23c.43.24.53-.13.7.47a4,4,0,0,1,1.76.82h.35v.11l.46.12v.12h.24v.11h.35l.12.24h.23v.11l.35.12v.24a2.26,2.26,0,0,1,1.17.23v.12h.35v.11h.35v.12h.23v.12h.24V105h.23v.12l.23-.12v.12h.47v.12h.47v.11l.47.12v.12l.58.11v.12h.7V106h.23l.12.23.94.12v.12H84v.11h.46v.12H85l.11.23h2.34a.34.34,0,0,1,.35-.11v.11h.12c.22,0,.23-.11.23-.11.27-.06.32.06.47.11V107h-.12v.12l-.7.23-.12-.12a2.52,2.52,0,0,1-2,0l-1.4-.11V107h-.24v-.12l-.93-.11v-.12H82.9v-.12l-1.16-.11v-.12l-.47-.12v-.12l-.7-.11v-.12h-.24v-.12l-1-.23v-.12h-.23v-.11h-.47v-.12l-.47-.12v-.11h-.7v-.12h-.23v-.12h-.47l-.11-.23H76v-.12l-.47-.11v-.12h-.23l-.12-.24h-.35l-.11-.23h-.24l-.11-.23h-.24l-.23-.24h-.24v-.11h-.23v-.12h-.23l-.12-.23h-.35v-.12h-.23l-.12-.23h-.23v-.12h-.35v-.12h-.24l-.23-.35a3.21,3.21,0,0,0-1.17-.35v-.23c-.26,0-.31,0-.47-.12v-.12h-.23l-.12-.23-.47-.12-.11-.23h-.35l-.24-.35-.35-.12v-.11l-.58-.12-.12-.23H66.9v-.12h-.24v-.12h-.23L66.2,99H66l-.11-.24h-.24v-.11h-.23v-.12H65l-.12-.23h-.23L64.45,98h-.24v-.11H64v-.12h-.24v-.12h-.23v-.11l-.7-.24v-.11c-.25-.07-.46.26-.82.11l-.12-.23h-.35l-.23-.35-.47-.12-.11-.23a2.24,2.24,0,0,0-.82-.35V95.8c-.72-.17-1-.82-1.75-.93v-.23a1,1,0,0,1-.82-.36v-.11H57l-.12-.24-.47-.11-.11-.24-1.05-.35V93l-1.29-.47-.23-.35h-.47v-.12H53V92h-.36v-.12l-3-.35L47.5,90.9,47,91V90.9h-.35v-.12h-.82v-.12H44.35v-.11h-.23v-.12l-.24.12v-.12H42.71v-.12H42.6v.12l-.94.12-.11.23h-.24L41.2,91H41v.12l-1.17.23v.12h-.23v.12h-.47v.11h-.23v.12h-.47V92h-.23v.11h-.47v.12a1.85,1.85,0,0,1-.82.12v.23l-1,.24V93h-.23c-.09.32,0,.26-.35.35-.14.13,0,.05-.24.12a8.18,8.18,0,0,0,0,2h.24l.11.35s-.38-.06-.23.12.22-.13.35.35l-.35.12.12.35h-.12v.47H35v.23h-.11v.7h-.12c-.06.2,0,.42.12.47v.11h-.24v.12c-.09.09-.23,0-.23.23s.19,0,.12.12l-.24.12v.58h-.11v.47h-.12c-.08.26.15.34.12.47l-.24.11c0,.15.22.22.12.47l-.24.12-.11.82-.24.11v.35h-.11l-.12.47h-.12L33,104H32.9v.24h-.12l-.11.58h-.12l.12.23-.24.12v.35l-.23.12v.23L32,106v.35h-.12v.23l-.24.12-.11.58h-.24c-.08.4-.26.54-.35.94h-.23v.58h-.23c-.16.43-.32.86-.47,1.29h-.12v.23l-.23.12-.12.58-.23.12v.23h-.12v.35H29V112h-.11v.7l-.24.12v.47h-.11v.35h-.12V114h-.12v.47h-.11v.23h-.12l-.12.94h-.11l-.24,1.16h-.11v.24h-.12v.23l-.23.12-.12.35h-.47l.12-1.29h.11v-.23h.12l.24-1.4h.11v-.24h.12V114h.12v-.35h.11v-.47h.12v-.47h.12v-.23H28v-.35h.12v-.23h.12v-.35h.11v-.24h.12v-.47l.23-.11.12-.7.23-.12v-.35h.12l.12-.47h.11l.12-.46.24-.12v-.35h.11V108l.24-.11.46-1.29h.24l.35-1,.23-.12V105h.12v-.23h.11v-.35h.12l.24-.7h.11c.16-.66.31-1.33.47-2h-.12a1.17,1.17,0,0,1-1.05.47,1.23,1.23,0,0,1-.12-.47,6.79,6.79,0,0,0,.71-1.63h.11c.07-.28-.21-.38-.23-.59l.23-.11a1.65,1.65,0,0,0,.12-.82c-.52,0-.52-.25-.82-.35s-.33.15-.47.11v-.11h-.23v-.12c-.31-.11-.69.06-.93-.12s-.19-.52-.24-.58-.3.2-.58.12a.28.28,0,0,0-.35-.12,9.31,9.31,0,0,1-3.27.23v-.11l-.24.11v-.11H23.9s0-.15-.23-.12a.2.2,0,0,1-.23.12v-.12h-.59v-.12h-.58v-.11h-.82L21.33,97h.47c.27.24,1.41.14,1.87.24v.11c.1,0,.3-.19.58-.11v.11h2.22v.12h.12v-.12h.7v-.11c.29-.08.27.06.35.11h.12v-.11l.23.11v-.11c.47-.15.87-.19,1.29-.36-.1-.22-.27-.58-.35-.81L28.81,95l-.35-.12.12-.23-.24.11v-.23L28,94.28v-.11h-.23l-.35-.47h-.23l-.12-.23c-.27-.2-.21.12-.35-.35a2.45,2.45,0,0,1-.94-.7l-.11-.24h-.24V92h-.23a1,1,0,0,0-.23-.47h-.12L24.72,91l-.35-.23L24.14,90h.23v.35h.23a4.13,4.13,0,0,0,.36.82h.23l.23.23.12.47c.22.3.41,0,.58.59.52.06.62.33.94.58v.12h.35l.35.46.35-.11v.11c.13.14.05,0,.12.24.25.05.33.07.46.23l.59-.12v-.11a.86.86,0,0,0,.23-.35H29v-.12h.12c.08-.18-.12-.23-.12-.23l.12-.35h-.58v-.12c.13-.13,0,0,.11-.23H29l.24-.36c-.16-.09-.14-.08-.24-.23-.35,0-.22.13-.58,0v-.12c-.16,0,.05.09-.12.12h-.11v-.12h-.47V91.6a.29.29,0,0,0-.35.11c-.2,0-.2-.1-.23-.11h-.59v-.24a1.47,1.47,0,0,1-.47-.11v.23H26v-.12l-.35-.11V90.9c-.19-.15-.32-.64-.59-.35V90c-.7-.2-.21-.22-.47-.7L24.25,89c-.24-.35-.18-.47-.58-.7V89c.27.18.32.53.35.93H23.9v-.23h-.11l-.12-.59L23.44,89v-.35h-.12l-.12-.59h-.11a2.13,2.13,0,0,1-1.29.12c-1.2-.34-3.22.07-4-.7h-.12v-.94a2.19,2.19,0,0,0,.82-.58c.46.17.79,0,1.4,0h.47v.12h1.52l1,.23.12-.35.23.12V86c.13-.13.05,0,.12-.23h-.12v-.71c-.53-1.75.28-3,.47-4.67H24l.12-.58.23-.12v-.23h.12c.11-.16.08-.21.11-.47H25c.07-.28,0-.22.23-.35v-.12l.23.12-.11-.35.93-.12v-.23c-.55-.33-.14-.34-.82-.47a1,1,0,0,0-.23-.47h-.12L25,76.53l-.24-.12-.12-.94-.23-.11v-.24h-.12v-.23h-.11v-.82H24v-.23H23.9v-.47h-.11l-.12-1.05h-.12v-.23h-.11v-.35h-.12v-.59H23.2l.12-.23H23.2l-.11-1.29H23v-.46h-.12v-.36h-.11l-.12-1.4H22.5V67h-.12V66.6h-.11V65.19s-.15,0-.12-.23h.12V63h.11l.12-1.28h.12v-.47h.12l.11-.47H23a1,1,0,0,0,.23-.46.91.91,0,0,0,.47-.24v-.11l.47-.12V59.7a1,1,0,0,1,.46-.23v-.24l2.93-.11v.11h.58l.12.24h.23l.12.23.46.12.12.23h.35v.12l.24.12v.23l.23.12v.23l.47.35c.23.39-.2.39.46.58.08.35.13.39.47.47l.12.47h.23c.12.5.46.65.59,1.17.4.1.3.24.7.35v.47a1.32,1.32,0,0,0,1.28-.24l.24-.35h.23l.23-.35h.24l.23-.35h.23l.24-.35.47-.12v-.11l.46-.35c.36-.36.61-.9,1.17-1.06.26-1,1.27-.72,1.52-1.63h.35V59.7c.13-.13.05,0,.12-.23h.35c.14-.25.26-.26.35-.59H41c.23-.4.37-.34.7-.58l.12-.23.35-.24v-.11h.23V57.6a.87.87,0,0,1,.47-.23v-.24h.23c.17-.29.37-.32.47-.7h.24V56.2H44a1.44,1.44,0,0,1,.47-.59v-.35c.34-.08.38-.13.46-.47h.24c.24-.39.51-.31.82-.58l.58-.7v-.23h.12V53l.23-.11.12-.47.23-.12v-.23L47.5,52v-.23h.12c.11-.16.08-.21.12-.47H48v-.35h.24l.11-.35h.12v-.23h.12v-.24l.35-.23v-.35l.23-.12v-.35h.12l.11-.47.24-.11v-.35h.11a1.08,1.08,0,0,0,.12-.59h.23l.12-.35h.12V47l.23-.12V46.5l.24-.12v-.23h.11c.11-.16.08-.21.12-.47h.23a1.32,1.32,0,0,1,.35-.82h.12v-.23l.23-.12v-.35l.47-.35v-.35l.23-.11v-.71s.08,0,.12-.23h.35v-.12h.12l.12-.7.23.12a4.3,4.3,0,0,0,.47-1.29h.23l.12-.35h.11v-.35l.24-.11v-.24h.11v-.23l.36-.23.23-1.06h.12v-.23l.23-.12v-.58h.12a2.9,2.9,0,0,0,.23-1.17h.47v-.12l.35.12v-.12c.5-.34.5-1.11.82-1.63l.23-.12.12-.58.23-.12V33h.12l.11-.47h.12v-.35l.47-.35v-.35c.17-.37.47-.58.58-1.05H60l.11-.47h.24l.11-.47h.12V29l.23.12.12-.47h.23l.12-.46h.23v-.35c.57-.34.7-1.1,1.41-1.29.15-.7.75-.84.93-1.52h.23v-.23h.24v-.23h.35V24.3c.32-.08.26,0,.35-.35h.23v-.23h.24c.14-.25.26-.26.35-.59.32-.08.26,0,.35-.35h.23v-.23h.23c.14-.51.51-.51.82-.82L69,20.1h.24V20h.11c.23-.27-.12-.21.35-.35.1-.4.24-.3.35-.7h.24l.11-.35.24-.12v-.23l.58-.47v-.35l.24-.12.11-.47h.24a.91.91,0,0,1,.23-.46h.12V16l.46-.35.12-.59L73,15V14.6l.24-.11v-.35h.11v-.35h.12v-.35h.12v-.59h.11V11.57l.24-.12v-.58H74v-.24h.11v-.7h.12V9.46h.12c0-.16,0,0-.12-.11l.23-1.17h.12v-.7l.23-.12-.11-.23h.11V6.78H75V6.66c-.07-.1-.17,0-.12-.12H75V6.31h.12V6h.11V5.61a4.75,4.75,0,0,0,.35-2.34h-.11c-.07-.25.15-.35.11-.47l-.23-.11V2.34l-.23-.12V1.87H75a1.35,1.35,0,0,1-.35-.58,1,1,0,0,1-.47-.24V.93h-.23L73.79.7h-.23V.58c-.86-.31-1.86.65-2.69.71V.93A5.15,5.15,0,0,1,73.67,0V.12H74l.11.23h.24c.23.27.46.55.7.82h.11v.35l.24.12V2h.11l.12.46h-.12v.12h.12v.35l.23.12v.23H76v.94h-.12v.23h-.11v.7h-.12l-.12.47h-.11l-.12.7.12.12-.24.11v.35h-.11v.35H75v.24h-.12C74.73,8.33,74.61,9.19,74.49,10.05Zm-32,48.6h.12v-.12h.23l.35-.46h.24c.13-.13,0,0,.23-.12v.12h-.23v1.16H43.3l-.12.71H43c-.16,1-.31,1.94-.47,2.92h-.12c-.18.25-.37.34-.46.7-.35.09-.29.19-.7.23-.05.43-.1.5-.47.59v.23c-.4.09-.54.27-.94.35v.23l-.23.12.12.35s-.08,0-.12.23a1.47,1.47,0,0,0-1.05,1.17h-.35v.24h-.47v.23c-.37,0-.29,0-.47.23h-.11V68c-.06.08-.16.07-.24.23h-.23c-.17.59-.42.31-.59.58v.24h-.23v.23h-.23v.24h-.24v.23h-.11l-.47.58-.35.12v.23h-.23v.24a1.07,1.07,0,0,0-.71.58H33v-.23c-.24-.07-.1,0-.24-.12h-.11l-.12-.82h-.12v-.58h-.11c0-.4,0-.38.35-.47,0-.23.11-.23.11-.23v-.59h.12l-.12-.35h.12v-.7c.12-.3.37-.34.47-.81h.23c.13-.47.49-.57.7-.94h.24v-.23h.11l.24-.35h.23l.58-.7h.35v-.12l.24-.12v-.23l.23-.24h.24l.11-.23h.24v-.12l.46-.35v-.35a.91.91,0,0,0,.47-.23v-.12h.23l.24-.35h.23c.24-.27.47-.54.7-.82h.24l.46-.58h.24V60.4c.36-.22.57-.24.7-.7l.7-.23c.14-.48.24-.24.47-.59h.23Zm0,6.31A2.29,2.29,0,0,1,42.6,66s-.17,0-.12.35h.12v.12h-.12v.23h.12l-.12.24c0,.24.12.23.12.23.1.39-.1.66-.12.93v.7h.12v.47h-.12a.33.33,0,0,0,.12.35l-.12.47-.7.12-.12.23H41.2v.12l-.71.23v.12l-.58.11v.12h-.47v.12h-.23v.12H39l-.47.58h-.35v.12h-.24l-.11.23h-.24l-.35.58c-.35.24-.29-.2-.46.35h-.24v.24c-.42.11-.25.21-.82.23v.35c-.13.1,0,0-.11.12l-.59.12v.23l-.58.12a1.7,1.7,0,0,0-.59-1.29v-.82l.36-.11.11-.24h.24l.58-.7h.23l.59-.7h.11v-.23c.32-.08.27-.16.59-.24V70.1L37,70l.47-.58.35-.12.11-.35h.24c.12-.45.26-.35.58-.58l.82-.94h.23v-.23a.86.86,0,0,0,.7-.7l.47-.12v-.23h.24v-.24h.23l.47-.58.35-.12V65Zm3,2.8H45.4l-.12-.93h-.11l-.12-.94-.23-.11v-.35h.11v.35h.12v-.24l.58.12v.23l1.06.59L47,67h.35l.11.23h.24l.11.23.36.12v.12l.35.11v.12a1.06,1.06,0,0,0-.24.23h-.58v.12l-.47.12v.11l-.58.12v-.12h-.12a2.19,2.19,0,0,1-.94.24Zm-6.43-2.1h.12v.12l-.12.23H39Zm-8.18,2.8c-.13.14-.05,0-.11.24h-.12a1.23,1.23,0,0,1,.12-.47h.46c0,.11-.22.26-.11.47h.11v.11h-.35Zm13.09,0,.12.59H44v.12h-.12v-.71ZM29.86,74.07v.47h-.11a1.07,1.07,0,0,1-.12-.47Zm-.35.24v.35h-.12v-.35Zm-.7,1.87c-.07.23,0,.1-.12.23v.12h-.11v-.35Zm-2.1.58h.11v-.12h.12v.24C26.71,76.81,26.84,76.89,26.71,76.76Zm18.22,4.32h.12V81h.23l.12-.24.47-.11.12-.24h.23v-.12h.23v-.11h.47l.12-.24a2.82,2.82,0,0,1,1.4-.23l.93.7v.12a3.62,3.62,0,0,1,.59-.24.82.82,0,0,0,.7.82l.12.35h.11l.12.35.23.12v.23l.24.12v.23l.23.12V83l.23.12c.22.31-.12.21.35.35.1.41.31.52.47.82l.12.46.23.12.12.47h.12l.11.35.24.12V86l.23.12v.23h.12c.2.4-.19.3.35.47.07.23,0,.1.11.23v.12l.24-.12v.12c.28.07.25.12.47.23v.24c.33.08.38.12.46.46h.24c.06.47.24.53.46.82h.12v.35l.35.12c.29.22.36.62.7.82v.35h.24c.14.08.14.44.23.58l.23.12c.2.29.18.5.47.7v.11a6.55,6.55,0,0,1-1.17-.23H56v-.12H55.1v.12H55v-.12h-.23l-.12-.23H54.4v-.12h-.35v-.11H53.7v-.12L53,90.9v-.12h-.24l-.12-.23-.7-.24v-.23a3.22,3.22,0,0,1-1.16-.35l-.12-.24-1-.35-.24-.35H49v-.11h-.23l-.12-.24h-.35L48,88l-.58-.12-.12-.23a2.54,2.54,0,0,0-.93-.36c-.17-.64-.2-.24-.59-.46l-.12-.24H45.4v-.11c-.15-.11-.2-.1-.47-.12l.12-.23-.35-.24V84.59h.12l-.12-.35.12-.24H44.7v-.11h.12v-.12H44.7v-.12h.12v-.11l-.12-.24h.12v-.58h.11V82.6l-.23-.12.12-.58H44.7a1,1,0,0,1-.12-.47C45.06,81.29,44.71,81.35,44.93,81.08Zm-.58,6.78-.12-.23a2.4,2.4,0,0,1,.94.11v.12l.58.12v.11H46l.11.24,1.4.46.12.24h.23l.24.23h.23v.12h.24v.11h.23l.12.24h.23v.11h.23V90l.82.24.12.23h.23v.12l.35.11a4.37,4.37,0,0,1-2-.11v-.12h-.47v-.12H47.27V90.2h-.82v-.12h-.23V90h-1a6.56,6.56,0,0,0-1.87-.47L43.18,89h.24l.11-.7.47-.12C44.13,87.73,44.2,88.05,44.35,87.86ZM91,92.3h-.35v-.12c-.14-.13-.05,0-.12-.23a1.23,1.23,0,0,1,.47-.12V92h.11Zm-59.82-.24v.12h-.47v-.12Zm-.59.24v.23l-.58.12v-.23Zm-.93.82v.23h-.12v-.23Zm-.47,2.1V95.1l.35.12v.35L29,95.45C29.11,95.22,29,95.35,29.16,95.22Zm-12.38.7h.46V96h-.46Zm1.4.35h.23v.12C18.18,96.32,18.31,96.4,18.18,96.27Zm1.05.23h.35v.12h-.35Zm.35.12.7.12v.11C19.81,96.86,19.78,96.91,19.58,96.62Zm1.64.23v.24C21,97.06,21,97,21,97c-.21-.07-.16,0-.23.12s-.14-.1-.23-.24ZM33,100.36l-.12.7h-.12a1.84,1.84,0,0,1,.12-.7Zm12.15,1h.35v.24h-.35ZM.54,112.16H.89v.12c.3.25.19.44.11.81a1.23,1.23,0,0,1-.58.12c-.07.05,0,.19-.23.12v-.12H.07c-.14-.22,0-.5,0-.7l.47-.12Z"/></g></g></svg>