<svg xmlns="http://www.w3.org/2000/svg" viewBox="0 0 180.44 162.98"><g id="圖層_2" data-name="圖層 2"><g id="圖層_1-2" data-name="圖層 1"><path d="M24.23,10.26a7.92,7.92,0,0,1,5.91-4.7c1.74-.34,6.61-2.6,7.65-3.82S43.36,0,48.05,0s21.39,2.26,23.3,3,10.26.69,12.52,0S89.61,1,91.7.87s8.17,1.39,11,1.74,10.61-.87,15.13-.18,4.87,3,8.52,3.31a58.69,58.69,0,0,0,9-.18s-3-2.6.52-2.08,5.39.87,7,.69,1.39-1.74,4.87-2.26a11.21,11.21,0,0,1,9.39,3.83,63.86,63.86,0,0,0,8.86,8.34c1.57,1.05,3.31,0,3,1.4S167,18.26,165.07,19s-2.26,1.39-2.43,3.13a25.57,25.57,0,0,1-1,4.35s3,4.52,6.26,6.09,4.69,6.95,3.65,9.73.69,9.74,1.21,13,3.83,7.83,5.74,13.57,3,19.47.7,22.25-3.83,4.35-4,6.61.87,7.13-1.22,11.83A91.66,91.66,0,0,1,163.33,128c-4.86,6.26-8.52,8.69-10.43,13.21s-2.78,8.7-8.34,10.09-7,.17-9.74,2.09-1.22,4.52-8,5.56-12.52-1.57-15.13.17-4.87,2.09-8.69,2.44-7.83-1.74-11.65-.18-7.48,1.74-11.48,1.57-16-2.78-21.73-6.43-7.31-6.44-7.31-6.44-6.43,2.09-11.65-.52-7.47-6.78-10.26-7.48-9.39.35-12.17.52-5.56,1.74-7.3,1.4-1.91-2.09-2.09-4.87.7-3.83-.69-5.39S4.06,132,3.54,128.67s.69-14.25-.87-15.47a7.27,7.27,0,0,1-2.44-7.31c.87-3.12,4.52-6.43,4.18-8.52s-1.92-2.78-2.79-5.56-.17-6.26.7-9S8.75,71.81,8.4,69s-.69-4.87-2.08-6.43a6.47,6.47,0,0,1-1.57-5.74C5.27,55,6.67,52,6.67,49.73s-.18-2.26,1-6.78.87-9.39,3.65-13.22S18.49,24.34,24.23,10.26Z"/></g></g></svg>