<svg xmlns="http://www.w3.org/2000/svg" viewBox="0 0 200.11 215.37"><g id="圖層_2" data-name="圖層 2"><g id="圖層_1-2" data-name="圖層 1"><path d="M37.4,58.6c2.23-2.1,1.67-4.05,3.21-5s6.28-1.81,7.81-3.49,9.91-8.51,12.28-11,3.07-4.47,5.59-7.54,7.53-2.51,8.65-3.77,1.12-2.51,2-4.32-.42-1.68,1-2.65,2.79,1.39,2.93,2.93,1.26,2.09,2.65.55,3.77-3.9,6.42-4.32,7.54-.14,10.33-.56,5.16,1.26,5.86-.42-3.49-5.16-1.67-7.12S108,11,108.3,13.1s.83,6,.83,6,6.42,0,7.26-.42,3.07-3.91,6-5.58,5.44-.56,7.4-1.95,5.16-5.87,7-6.56,1.53,3.35,0,5.58-3.91,3.77-3.63,5,2.23,1.82,3.91,1.68,8.79-3.77,11.16-5.17,4.33-2.93,5.44-1.95,2.93,4.05,3.35,3.91,1-2.37,2.79-4.61,5.59-3.63,6.56-5S168.45,1,170.68.4s3.91-.7,3.91.7S172.08,4,171.8,5.42A7.47,7.47,0,0,1,168,9.75c-1.81.84-2.09,3.91-2.09,3.91s3.35.42,1.11,3.35-4.05,3.77-4.46,5.3-.42,4.61-1.12,6.56-1.68,4.75-1,6,4.47,2.79,5.59,1.4,2.79-1,2.09,1.39,1.12,2.52,1.81,6.84,2.1,6.56,5.59,5.72,5.58-2.09,6.83-1.39.7,3.91.14,5.44-1.81,4.61-1.25,8,.28,7.11.7,9.07,6.28,5,7.81,6.56.56,3.91,2.23,6.14,1.12,7.12,4.47,11.44,4.47,5,2.93,9.35-4.6,5.45-4.32,10.33-2.38,13-1,15.08,2.79,9.35,2.09,11.86-2.79,4.6-3.63,7.26-3.77,5.44-5,7.25-2.37,5.17-3.49,8.1a78.38,78.38,0,0,1-6.56,11.58c-1.67,2.37-2.23,5.86-8.09,9.35s-18.85,6.7-28.9,13-11.72,9.91-22.6,12.84-15.78,5.72-22.89,2.51S79.54,211,75.36,211s-9.77.14-14.24-2.23S35.44,195,33.77,194.26s-.28,1.11-2,.41a1.9,1.9,0,0,1-1.25-2.23s-4.47-7-6.84-9.35-5.44-3.35-7.68-7.4-4.6-12.14-5.72-13.81S7.25,159.5,7.39,157a11.88,11.88,0,0,0-1.68-6.84c-1.25-2.23-4.32-3.07-4.18-5.44s-1-15.35-1.26-20-.7-4.46.84-7.39,2.09-7.82,4.33-11.45S8,102.42,8.23,98.37s.14-5.86,1-7.53,10.47-10.47,14-17,6.84-9.07,9.07-11.3A27.67,27.67,0,0,1,37.4,58.6Z"/></g></g></svg>