<svg xmlns="http://www.w3.org/2000/svg" viewBox="0 0 254.27 216.6"><g id="圖層_2" data-name="圖層 2"><g id="圖層_1-2" data-name="圖層 1"><path d="M54.58,34.38c5-3.89,13-12,17.39-15.12s8.49-6,11.8-7.24,11.8-3.11,14.49-3.94,12-3.1,14.7-4.55S123.52.22,128.08,0s27.12,2.9,31.26,3.52,11.38-.62,15.94,1.24,14.91,7.87,17.6,11,8.07,8.49,10.56,8.7,9.11.62,12.62,4.14,6.22,10.56,8.49,15.73,3.11,11.18,9.73,17.81,9.32,9.73,11.8,20.7,7,12.22,7.66,21.53,2.28,34.58-6.83,46-11.59,23.39-30.43,36.43-27.12,22.57-55.9,27.33S78.8,218,56,201.25s-35-33.54-38.51-40.17S3.44,124.85,1.58,120.71s-2.69-8.49,1-13,9.74-15.12,11.18-21.33,5.39-13.66,8.91-17.18S34.29,58,36.36,53.63,48.78,38.93,54.58,34.38Z"/></g></g></svg>