<svg xmlns="http://www.w3.org/2000/svg" viewBox="0 0 280.95 330.42"><g id="圖層_2" data-name="圖層 2"><g id="圖層_1-2" data-name="圖層 1"><path d="M61.39,54.65c17.83-11.5,29.8-15.52,48.31-15.87s42,3,45,2.82,13.4-7.93,16-10,5.65-3,4.76-4.23a4.63,4.63,0,0,0-5.29-1.76c-2.29.88-6.52,2.11-7.93,3.88s-1.94,5.29-2.65,3.87-2.64-5.81-1.41-7.93,5.47-1.59,7.23-2.82,4.94-3.53,6-5.29,3.52-3.18,4.76-3.18.18,4.41,1.23,4.41,6-3,7.94-6.35,1.59-4.76,1.59-5.46,3,1.23,1.93,4.23c0,0,7.23-6.17,11.64-7.93s8.11-.18,10.76-1.24,4.76-2.82,7-.88,4.94,4.94,6,4.94a2.69,2.69,0,0,1,1.76.7s-2.47,5.47-2.47,7.76.36,11.64,1.24,13.23,1.94,2.82,3.52,1.94,3.18-3.36,4.41-5.47,1.41-1.06.35,3,.71,6-1.41,8.11-2.64,4.58-1.23,4.58,0,2.65-3.53,2.65-3.52-1.59-7.05-4.41-7.41,3.35-7.94,5.82-1.52,15.4,6.88,23.8c2.29,2.3,23.63,10.94,40.38,33.33s31.78,86,13,123.43c-15,29.92-25.76,38.06-32.91,47.36,0,0,8.88-4.5,11-5.73a164.21,164.21,0,0,1-46.62,32.18c-28.74,13.23-36.21,8.54-50.85,11.19s-40,10.22-40,10.22.89,3-1.58,4.59-.53,4.94-2.82,4.76-5.29.71-6-1.06-.7-2.47-1.59-2.64-4.76.35-6.17,1.41,1.59,3,0,3.52-2.47.53-4.93-.7-5.65-5.29-9.17-5.82-4.77-2.47-8.29-3.35a43,43,0,0,1-10.58-4.58c-3.35-1.94-6-4.94-10.05-9.7s-6.17-9-10.58-11.46-9-6.18-7.23-6.71,9,4.24,17.1,15.52c0,0,4.94.35,7.58,2.65s4.06,3.7,4.06,3.17-7-7.23-6.7-9.7,6.35-.53,6.35-.53-6.17-5.46-6.17-8.64a26.6,26.6,0,0,1-3.18,4.24C51.33,296.05,51,292,52,288.12a50.83,50.83,0,0,0,1.41-7.76S29.82,264.31,14.66,231s-16.58-59.42-13-89.22S21.71,80.22,61.39,54.65Z"/></g></g></svg>