<svg xmlns="http://www.w3.org/2000/svg" viewBox="0 0 178.15 187.72"><g id="圖層_2" data-name="圖層 2"><g id="圖層_1-2" data-name="圖層 1"><path d="M176.76,114.05c-2.93-4.1-1.47-7-4.69-18.46s-19-18.75-19-18.75S144.24,66,142.77,62.77a78.5,78.5,0,0,0-8.5-14.35c-4.68-6.45-12.3-7-15.82-7.92S97.36,29.08,93.25,24.39,82.41,20,82.41,20s5.28-7.91,3.52-8.2S73.33,7.69,70.11,7.4,52.23,1.83,48.72.36s-14.94,1.76-20.22,5-9.08,11.72-9.67,17.88-2.78,7-7.32,16.41A215.39,215.39,0,0,0,.67,69.51C-1.09,76.54,1,80.35,3,87.39s.59,11.72,2.64,22.26,8.2,16.7,12,25.49,17.58,26.67,24,29.3,19.92,14.65,29,19.05,24.62,5,34.87,3.52,23.73-1.76,32.23-5.28,14.36-12.3,16.41-17,14.36-15,17-20.51,2.64-15.24,4.4-17.58S179.69,118.15,176.76,114.05Zm-67.29,14.16c.58,1.95-1,6.06-2.15,6.25s-7.62-1.76-8.79,0-6.45,6.06-7.23,6.84a10.76,10.76,0,0,0-1.56,2.54,62.3,62.3,0,0,1-7.62-3.52c-2.54-1.56-6.84-5.47-9-7.23s-5.28-3.51-5.47-6.44-1.37-7-2.74-8.4-3.32-3.13-3.51-3.71.19-4.3-.59-4.69-1.17-2.15-1.17-2.15,1.76-2,.78-2.93-1.95-1.56-2.15-3.13.39-3.9-.59-5.07S55,95.2,54.38,94.42s-.19-3.52-1.17-4.5S51.45,88,52,87.19s2.15-2.15,1.37-2.73a19.06,19.06,0,0,1-2-2,13,13,0,0,1-1.76-4.88,8.54,8.54,0,0,0-1.56-4.1c-.78-1,0-3.13-1-3.52s-.79-2-.79-3.32-.19-1.76.79-2.34,2.73-.2,2.73-2.15-.59-2.35,0-2.54,2.93-.2,2-2.15a15.4,15.4,0,0,0,4.89.19c2-.39,4.49-2.53,5.66-2.14a34.15,34.15,0,0,1,7,4.68c.79,1,4.5,5.28,5.67,5.86s9.18,5.47,9.18,5.47l7.23,8.6s2.93,12.69,6.25,18.36,6.64,11.33,8.59,12.7,3.91,6.44,4.1,8.4S108.88,126.26,109.47,128.21Z"/></g></g></svg>