<svg xmlns="http://www.w3.org/2000/svg" viewBox="0 0 170.82 205.51"><g id="圖層_2" data-name="圖層 2"><g id="圖層_1-2" data-name="圖層 1"><path d="M141.34,26.08c12.46,11.78,23.87,37.67,23.87,37.67s5.22,6,5.59,24.24-4.85,30.21-6,35.43-7.08,8.58-8.57,11.19-1.49,9.32-3.36,11.56S141,164.07,141,164.07s.74,6.71,0,9-4.1,2.24-4.1,2.24l-1.12,15.66s-3.73,3-6,4.85S104.05,206.21,88,205.46s-22.37-3.73-22.37-4.84-.75-13.43-.75-13.43-8.21-9.32-13-10.81-14.17-2.62-19.4-7.84-19-27.59-20.51-32.81S7.46,121.55,8.2,117.08a63.71,63.71,0,0,0,.38-11.19s-6.72-12.31-6-24.24S-5.22,60.39,5.22,48.46s28.72-33.94,36.92-38S58.92,1.84,61.16.35s8.58,2.24,8.58,2.24S68.62.73,88.38,1.84,120.83,6.69,141.34,26.08Z"/></g></g></svg>