<svg xmlns="http://www.w3.org/2000/svg" viewBox="0 0 286.29 369.62"><g id="圖層_2" data-name="圖層 2"><g id="圖層_1-2" data-name="圖層 1"><path d="M50.48,20.05c.32-.33,2,.33,2.62.33a3.34,3.34,0,0,1,1.31.33,1.47,1.47,0,0,0,1-1.32c0-1-.33-1.31,0-1.31s2,.66,2.62,0,2.62-1,2.95-2,2.3-.65,2.63-1,2.95-.33,2.95-.33,3.93-2,4.92-2.29,5.9-1.32,6.56-2S82,9.88,82.62,9.23A9.9,9.9,0,0,1,85.9,7.59c1-.33,4.92-.66,5.9-1s3.94-.33,4.59-.65S101,4,102,3.32A23.34,23.34,0,0,1,107.22,1a5.35,5.35,0,0,1,2,1s2.63-1,3.28-.66a16.6,16.6,0,0,1,2.3,2s5.57-.65,6.56-1a22.68,22.68,0,0,1,5.25-.66c1.64,0,5.9.33,6.23.66l.65.65a3.46,3.46,0,0,1,2-1c1,0,11.48,1,12.14,1.31a15.12,15.12,0,0,0,3.93,0,9.57,9.57,0,0,1,3.28-1c1.31,0,2.62.33,3.28.33A10,10,0,0,0,161,2.34c1-.33,3.61.33,3.94.33s2.29.32,2.95,0,3.93,0,4.59,0h1.64s.66-2.3,2-2.63,4.26,1.31,4.59,1.64a13.57,13.57,0,0,0,4.26,1c1,0,8.86.32,10.5.65s4.92.66,5.9,1.31a16.75,16.75,0,0,0,3.94,1.64,22.29,22.29,0,0,1,2.62,1,38.88,38.88,0,0,1,4.59.65,4.55,4.55,0,0,1,1.64,1s2.63-.33,3.94.33a6.63,6.63,0,0,0,2.62,1,1.79,1.79,0,0,1,1.64.66,5.54,5.54,0,0,1,1,1.31,2.05,2.05,0,0,1,2-.33c1.32.33,3.28,1,3.28,1l1.64-1.64c.33-.32,2.63.66,3.61,1.32s2.62,0,2.95.32.33,2,.33,2.3-.33,2.62-.33,2.62S242,21,242.67,22.34s3.28,2.3,4.92,3a27.81,27.81,0,0,1,6.23,4.59c1.31,1.31,4.26,1.64,4.59,2.62s-.33,3.94-.33,3.94a10.92,10.92,0,0,0,3.61.65c2,0,3.61-.32,4.26.66a25.24,25.24,0,0,0,2.3,2.62s4.26,5.58,5.24,6.56,4.27,3.94,4.92,5.58,1.32,4.26,2.3,4.59,2,.66,2.3,2,2,2,2,3.28a37.32,37.32,0,0,1-.65,4.59v3.28c0,1.31,0,3.28-.33,3.61s-1.31,2.29-.66,3,1,2.62,1.32,2.62,1.64,2.3,1,2.3A6.47,6.47,0,0,0,283,83c-.33.33-.66,2.29-.33,2.62a7.42,7.42,0,0,1,1,4.27,24.74,24.74,0,0,0-.33,4.59,8.38,8.38,0,0,0,.66,3.61c.66,1.31,0,3.6,0,4.59s-.66,2.62,0,3,1.31,0,1.64.65a8.34,8.34,0,0,1,.66,2.3c0,.33-.33,1.64-.33,2s-.66.33-1.64.65-2.3,0-2.3,1-1,1-1.31,1-1,2.3-.33,3,2,2,2,3.28,0,2-.33,2.3a4.57,4.57,0,0,0-.65,1.31,18.08,18.08,0,0,1,.32,2.62c0,1,.33,2,.33,3.61s.66,2.3,0,3-1,1-1,1.32.65,3.28.65,3.93c0,14.2-2.88,29.19-2,44.06a67.72,67.72,0,0,1,.16,9.55c-.6,7.08-3.26,12.92-2,19.92.53,2.91-.32,5-.3,7.87,0,1.73,1.22,3.08,1.22,4.86a7.16,7.16,0,0,1-.33,2.62,7.15,7.15,0,0,0,0,2.62c0,.66.66,1.64,0,2.3a2,2,0,0,1-1.31.66,12.3,12.3,0,0,1,.33,2.62c0,1.31-1,2-1,2.62s.65,2-.33,2.63l-1,.65s1.32,2.63.66,3.61c-3.05,4.59-3.87,10.56-6,15.64q-3.88,9.19-6.9,18.72c-1.67,5.26-5,12.26-3.15,17.79.33,1,.66,3.93.33,4.59a6.47,6.47,0,0,1-1.31,2.62,25,25,0,0,0-2.3,2.95s1.64,8.2,1,10.5a46.06,46.06,0,0,1-2.29,5.25,21.83,21.83,0,0,1-1,2.29s2.63.33,2.63,2a7.89,7.89,0,0,0,1,3.94c.66,1.31.33,2.29-.33,3.6a17.43,17.43,0,0,1-2.62,3.28s1.31,3-1.31,4.6S241,345.72,241,345.72s-4.27,4.59-7.22,5.25-15.41,2.95-18.69,3.28-4.92,1.31-7.22,2.29-6.89,3.28-8.53,3.94-2,1.64-3.6,1-5.58-.65-5.91-.65a36.74,36.74,0,0,0-3.93,2.62c-2,1.31-19.35,4.92-22.63,4.92a80,80,0,0,0-10.5.66c-1.31.32-2,1-3.93.32s-6.23-2-7.55-2.29-7.87,0-7.87,0l-2.95-4.59s-3,.65-3.61.33a4.13,4.13,0,0,1-1-.66s-2.3,1.64-3.61,1.64a4.76,4.76,0,0,1-2-.33s0,3-1.64,2.62c-1.31-.32-2.62-3.93-2.62-3.93l-2-4.26s-3.93-2.63-4.59-2.63a6.73,6.73,0,0,1-2-.65s-6.56-7.22-7.21-8.2a6.65,6.65,0,0,0-1.64-1.64l-3.61-2.3a37.52,37.52,0,0,0-3.28-2.62,7.74,7.74,0,0,1-3-2,43.9,43.9,0,0,0-2.95-3.94c-.66-.65-1-.65-1-1.64a3.5,3.5,0,0,1,.33-2c.33-.66-.33-1.64-.65-2a8.34,8.34,0,0,0-2.3-.66L80,325.39v-1.64l-2-1C73.1,314,66.46,307.3,60.12,299.39a248.77,248.77,0,0,1-32.31-52.51c-2.93-6.46-3.14-12.7-5.54-19.23-.06-.17-4.59-12.47-4.92-14.1a4.46,4.46,0,0,1,0-2.3A20.89,20.89,0,0,1,16,208a29.76,29.76,0,0,1-.33-5.24c0-1.31-.33-2.63-.33-3.61a10.27,10.27,0,0,1,.66-2.3c0-.32,0-1.64-.33-2a2,2,0,0,1-1-2.3c.33-1.64.33-3.61,1-3.61s1.64.33,1.64-.33A9.68,9.68,0,0,0,16,186s-.66-4.26-1-5.9,0-2.95,0-4.92-.33-3.94-.33-4.92v-1.64a3.75,3.75,0,0,0-1.31-2A4.45,4.45,0,0,1,11.78,164c-.33-1-1.32-1.64-1.64-2.95a22.25,22.25,0,0,1-.66-4.92c0-1.64-1-3.61-1-4.27s-1-1.64-1-2.29A6.59,6.59,0,0,1,7.84,148s-.65-1-1-1.64a.72.72,0,0,1,.33-1,2.72,2.72,0,0,1-1-2.29c0-1.64-.65-3.61-.65-4.59a10.43,10.43,0,0,0-1-3c-1-3.12-1-6.71-2-10C1.24,121,.84,115.82.43,111.09a118.2,118.2,0,0,1,1-28.25C3.32,70.55,6.62,54.14,15.71,45A9.23,9.23,0,0,1,18,43.66a13.32,13.32,0,0,1,3.28-3.28c2-1.31,9.51-6.88,10.49-7.87s2.63-2,3.61-2.95,5.25-4.26,5.25-4.26-.33-1.64.65-2.3a22.89,22.89,0,0,1,3.28-1.31c.66-.33,1-.66,1.64-1s2.3.32,2.63,0A5.44,5.44,0,0,1,50.48,20.05Z"/></g></g></svg>