<svg xmlns="http://www.w3.org/2000/svg" viewBox="0 0 252 251.54"><g id="圖層_2" data-name="圖層 2"><g id="圖層_1-2" data-name="圖層 1"><path d="M67.75,15.17C74.72,11.83,136,0,136,0s41.26,8.19,43.69,8.8,7,4.85,9.71,7.28,57.68,52.33,58.89,53.85,2.69,9.55,3.6,15.92-4.25,28.52-4.25,37.62.31,47.63-3,54.3a45.85,45.85,0,0,1-12.14,15.48c-4.55,3.64-39.13,36.7-39.13,37.31s-34.28,18.51-41.26,20.63-30.94-6.07-39.13-6.67-53.83-10.76-64.14-18-25.64-36-31.71-40.3S11,179.59,8.89,176,2.52,152.9.7,145.31.92,91.92,3.23,85.78c4.92-13.1,35-42.6,38.31-46.24S67.75,15.17,67.75,15.17Z"/></g></g></svg>