<svg xmlns="http://www.w3.org/2000/svg" viewBox="0 0 237.8 240.59"><g id="圖層_2" data-name="圖層 2"><g id="圖層_1-2" data-name="圖層 1"><path d="M39.44,37.52s4.49.35,6.22-1,14.88-12.8,18.68-15.57,21.11-6.23,21.11-6.23S114.16,1.89,120,.86s18.33.34,20.41-.35,13.84-1,18,1.38,11.76,2.42,15.91,4.85,10.73,13.14,13.84,13.49a20.52,20.52,0,0,1,9.34,3.8c2.07,1.73,4.5,3.81,4.5,3.81s5.53,2.42,8.64,6.92,11.77,23.17,12.8,25.94a22.36,22.36,0,0,1,1,6.58s7.61,9,8.65,15.56,2.42,27.68,2.77,33.56,2.42,18.68,1.73,25.25-10.38,29.41-14.19,34.59-4.15,14.88-7.61,19.38l-3.46,4.49S200.64,211.88,197.53,214s-19.72,8-22.83,10-4.15,2.08-4.15,2.08-17,6.23-21.45,6.57-15.57,14.88-49.47,3.81-39.78-14.88-42.9-16.26S47.05,214,42.9,210.49s-9-6.22-11.77-10.38-3.8-4.15-7.61-8.64-7.61-11.42-9.34-13.84S6.23,166.9,3.81,159A103.63,103.63,0,0,1,0,134.39a26.57,26.57,0,0,1,2.08-10.73c1-2.76,0-4.49,1.73-5.88S8.3,115,8.65,112.25,7.26,106,8,103.94s.69-3.8,2.76-10S17.64,79,21.1,74.19,14.53,61.05,39.44,37.52Z"/></g></g></svg>