<svg xmlns="http://www.w3.org/2000/svg" viewBox="0 0 297.32 285.09"><g id="圖層_2" data-name="圖層 2"><g id="圖層_1-2" data-name="圖層 1"><path d="M44.91,39.41C49.35,34.71,57.7,31.06,59.27,29s7.83-6.52,9.91-7.57S78.84,16.7,82,14.62,98.68,8.87,98.68,8.87s16.7-6,18.27-6.26S129,.78,129,.78,144.61,0,147,0s24,4.18,27.93,5a50.38,50.38,0,0,0,10.18.52c1.83,0,1.83,1.83,3.13,2.09s6.53,0,8.88.78,14.09,7.05,21.4,10.44,15.66,8.62,17.75,11l2.08,2.35s3.14,5.22,6.53,7.31,10.44,9.66,11,12.27-.78,9.39,1.31,9.66,3.39-1.83,5-1.05,9.65,8.35,12.52,11,3.4,5,3.14,6-2.61,2.61-1.31,4.43,5,3.92,5.48,6.27.52,8.09,1.83,11.22,3.91,3.66,4.44,5.74,2.61,6,2.87,8.09,2.08,7.31,3.65,12.53,0,9.92.52,12.53,2.35,5,1.57,7.83-2.87,4.44-2.61,7,3.39,2.61,3.13,7-.52,17.49-1.3,22.19-2.61,6.53-3.4,8.35-1.3,5.48-3.13,8.62-2.09,6.78-3.39,10.17-2.61,3.14-3.4,4.44-1,4.44-3.39,5.22-3.39-2.09-4.44,0-3.13,9.14-4.43,11.75S258.93,243,255.28,246.91s-11.75,14.09-17.49,16.7-7.83,2.61-9.39,3.66-1.05,4.43-4.44,2.87-5.22-3.13-7.83-2.09-3.39,2.61-5.48,3.39-5.22-1-6.79.79-5.74,2.87-7.57,2.87-18.79,2.61-29.75,4.43-15.4,1.05-19.32,1.31-7,3.65-11,4.18-17.49-1.83-22.71-3.66-9.65-3.91-11.22-2.87-3.91,1-6,.52-19.84-5-22.19-6.52-2.35-4.7-4.17-4.44-2.61,1.83-2.87.52-1-2.87-2.09-2.35-3.66,0-5-1.56-3.92-6.53-6.79-7.31S49.35,256,48,254s-1.56-1.05-3.13-2.61-2.87-3.66-4.44-5.22-4.43-4.44-6.26-4.44-3.39-3.13-4.18-5-5.22-1.83-7.3-3.65-6.53-6-8.36-11-2.87-8.61-2.61-12a46.4,46.4,0,0,0,0-6.53s-2.87-4.17-3.13-6.26,1.31-4.7.26-6.27-1.3-3.13-.26-4.69,2.61-2.61,1.31-4.7-2.61-2.35-4.18-3.39S2.89,174.61,2.89,171s0-7.05.78-8.36,2.35-2.87,2.09-4.43S4.72,155,3.67,155s-2.35-3.14-1.3-5.49S5,143.81,3.67,142s-3.91-1.57-3.65-3.4,2.61-5,3.65-3.39,3.92,5,4.18,3.13-.78-5.74-2.61-7.05-3.66-2.34-3.66-2.34-.52-4.44.27-6.79,4.69-5.22,5.22-7.31,0-4.17-.79-5a2.42,2.42,0,0,1-.52-3.13c.78-1,4.7-3.13,5-4.7s-.26-6.26-.52-8.35,2.35-3.65,2.61-6-.79-5,1.3-7.31,3.4.78,4.44-1.31a11.15,11.15,0,0,0,1-7c-.52-2.09-2.08-1.31.79-4.44s6.26-7.83,10.18-12.53,7-8.61,8.87-9.92S44.91,39.41,44.91,39.41Z"/></g></g></svg>