<svg xmlns="http://www.w3.org/2000/svg" viewBox="0 0 275.57 233.24"><g id="圖層_2" data-name="圖層 2"><g id="圖層_1-2" data-name="圖層 1"><path d="M70.55,30.38C85.25,18,121.76.84,134.75.05s45.69,7.88,53.18,9.06,19.69.79,26.39,5.12S238,39,245.83,45.35s24,26,27.57,37.42,1.57,21.26,2,28-3.15,39.78-5.12,50.42S258,184,261.58,193.05s-4.33,22.06-11,24.42S207.23,236,189.11,232.83s-37.81-3.94-47.66-5.9-12.61-6.7-26-11-26.78-6.31-34.66-5.12-13,3.94-19.3,3.54-11-2.36-15.75-4.73S24.47,181.24,15,174.15-1.92,156,.44,140.67s6.7-37,15.76-47.27S32.34,76.86,35.89,70.16,52.83,45.35,70.55,30.38Z"/></g></g></svg>