<svg xmlns="http://www.w3.org/2000/svg" viewBox="0 0 139.03 134.34"><g id="圖層_2" data-name="圖層 2"><g id="圖層_1-2" data-name="圖層 1"><path d="M29.2,7.68C33.33,5.8,39.21.62,45.29.13S60.55.62,67,1.45s25.61,1.64,33,6.4,15.26,4.59,19.86,9.85S126.87,38.38,130.15,42s8.7,10.34,8.87,15.76-.82,15.1-3,18.55-3.45,3.77-3.28,7.06S134.26,93,131,98.79s-5.25,14.93-11.65,18-13.95,12.64-25.77,14.61-11.17,4.93-19.7.82-15.76-6.73-22.33-6.73-11.82.5-16.41-7.88-8.54-9.19-15.76-14.93-11.6-11-12-20.85c-.17-4.27-2.3-7.72-4.76-13s-4.44-14.12.16-21.83S8.84,37.07,9,29.52,14.1,14.58,29.2,7.68Z"/></g></g></svg>