<svg xmlns="http://www.w3.org/2000/svg" viewBox="0 0 308.88 290.53"><g id="圖層_2" data-name="圖層 2"><g id="圖層_1-2" data-name="圖層 1"><path d="M226,19.32c9.78,2.54,15.54,11.19,21.95,15.39s9.62,11,12.9,14.33S270,62,277,66.71s7.1,7.24,8.33,10.84,1.86,10.08,4.93,14.39,10.38,20,12.5,25.63-2.63,12.52-.31,17.23,6.71,18.54,6.45,22.95-2.7,16-3.17,21.34-5.14,18.15-7.44,22.81-4.68,12.78-6.44,18-10.39,11.62-15.15,18.46-9.78,8.73-17.33,16.24-18,13.19-27.94,19.44-47.09,12.77-56.21,15.16-8.17,1-20.56.07-16.42-3.89-18.8-5.15-8.17,1-15-1.25-11.58-4.81-19.08-10.12-14-6.07-21.13-9.86-9.19-3.54-19.22-12.6-19.7-16.6-22.57-21.87S25.06,212,21.71,202.74,14.52,180.2,10.9,175.33,1.55,159.94,2,154.56-.46,138,.06,129.17,1.24,104.64,3.75,99A222.18,222.18,0,0,1,19.43,71.73c5.7-8.21,7.26-12.47,16.44-18.31s13.27-6.35,16.66-9.9,6.52-12.07,15.7-17.9S75.37,20,86.39,14.9s15-8.12,25.72-8.84S132.59.06,140.55,0s19.21,3.22,28.12,1.8,9.67-1.84,17,1S212.13,15.74,226,19.32Z"/></g></g></svg>