<svg xmlns="http://www.w3.org/2000/svg" viewBox="0 0 289.28 283.03"><g id="圖層_2" data-name="圖層 2"><g id="圖層_1-2" data-name="圖層 1"><path d="M103.43,9.91S105.71,3.58,115,1.3s22.65-1.76,26.17,3.16c0,0,1.75-2.81,7.55-3.69s25.12-.7,29.68,3.52,4.92,5.79,4.92,5.79A15.18,15.18,0,0,1,195.64,8c7.37,1.76,21.78,8.08,23.71,11.77A47.34,47.34,0,0,1,222.51,28s9-1.76,15.28,1.4,15.1,14.41,16.86,20,.88,8.43.88,8.43,4.74-.53,9.13,4.74,13.18,22.66,13.18,27.05-.36,5.27-.71,6.14-3.33,6.68-3.33,6.68,6.67-.88,10.53,8.43,5.1,20,4.57,23.36a17.54,17.54,0,0,1-2.81,7.38c-1,1.4-3.86,2.46-3.86,2.46a17.68,17.68,0,0,1,2.81,7c.7,4.22,4,4.39,4.21,6s-.17,14-7.37,20.9-8.26,9.14-12.48,9.14a15.66,15.66,0,0,1,4.22,11.77c-.35,7.55-3.16,16.33-8.25,21.6s-11.07,8.78-13.35,8.78a30.2,30.2,0,0,1-4.39-.35,10.56,10.56,0,0,1-.53,8.43c-2.28,4.22-9,10-13,12.65s-7.55,4.56-9.83,4.21a30.76,30.76,0,0,1-5.63-1.75s.53,4.74-1.58,7.37-10.18,8.61-12.12,9.49-5.44,3.33-11.41,6.14-13.35,1.23-15.63-.35-1.94-1.75-3.52,1.06-3,4.74-8.78,6-14-.88-16-1.76-4.57-4.74-4.57-4.74a5.78,5.78,0,0,1-2.11,3.51c-1.75,1.23-11.59,3.34-13.52,3.69s-14.93.35-18.79-1.58l-3.87-1.93-4.21-8.61s-.53,3-5.62,3-12.12-1.41-17-4.22-11.24-2.46-14.4-8.08-3.34-9.13-3.34-9.13-4.92,2.28-11.59-1.41S36.51,240.7,34.93,236.13a25.64,25.64,0,0,1-1.41-8.61s-4.92,1.23-10.71-4.74a39.83,39.83,0,0,1-9.31-16.33c-.53-2.46-.18-5.8-1.41-7.91S9.63,193.1,11,191A16.81,16.81,0,0,0,13,185.37s-7.9-4-9.31-11.06-2.28-14.06-1.58-18.1,1.58-7.37,6.15-10.36c0,0-4-1.4-6.15-9.13s-3.51-11.94.35-20.9,9.31-12.12,14.76-13.35c0,0-4.4-2.11-3.17-12.47S22.1,71,26,68.57a16,16,0,0,1,7-2.63s-3-7,.35-12.65,8.08-10.54,12.3-12.65,13-4.21,15.63-3.51,4.92,1,4.92,1-.7-4.56-.18-6,1.41-.35,1.41-.35-1.23-1.05,3-5.44S82.88,17.63,89.2,18s9.66,1.93,9.66,1.93S98.33,14.65,103.43,9.91Z"/></g></g></svg>