<svg xmlns="http://www.w3.org/2000/svg" viewBox="0 0 139.97 140.53"><g id="圖層_2" data-name="圖層 2"><g id="圖層_1-2" data-name="圖層 1"><path d="M47.78,3.72c1.59-.29,3.38,1.89,5.27,1.69s8.44-.89,8.64-1.19S65.86.44,68,.05s3.38,1.88,4.27,2.48a15.24,15.24,0,0,0,5.36,1.59c1.3,0,5.07.3,5.07.3s2.58-2.39,4.87-2A6.18,6.18,0,0,1,92,5.31C92.58,6.5,93.08,7.7,93.58,8s7.55,3.58,8.84,3.38,3.48-1.19,5.07-.1a9,9,0,0,1,2.88,4.37c.29,1,.59,2.09.59,2.09s4.67,4.17,6,5.36,3.78,0,5.07.6,2.38.79,2.58,3.18.3,5.76.8,6.26,2.68,4.76,3.28,5.56,5.06,1,6,3.18.39,3.87,0,5.76-1.1,2.68-.6,3.68a42.1,42.1,0,0,1,1.59,6.35c.1.8,4.37,2.69,4.37,5.17s-1.49,4-2,5.36a32,32,0,0,0-1.19,7.16c.1,1.19-.4,2.48,0,3s2.19,2.88,2,4.86-1.79,3.18-2.68,4.18a10.3,10.3,0,0,0-2.59,4.17c-.79,2.28-2.38,5.36-2.28,6.26s1.89,3.18.49,5.16a14.38,14.38,0,0,1-4.37,3.88,20.34,20.34,0,0,0-4.67,4.37c-1.29,1.79-2.58,3.87-2.68,5.16s0,3.18-2.08,4.37-4,1.3-5,2-4.87,2.78-5.76,3.68a32,32,0,0,0-3.88,4.67c-.89,1.49-2.18,2.48-4.86,2.38a19.18,19.18,0,0,0-6.46.89,55.93,55.93,0,0,0-6.46,2.49c-.79.49-1.39,2.28-3.67,2.58s-4.57-.5-5.86-.79-5.67-.1-7.46-.1-4.07,1.39-5.66,1.78a5.4,5.4,0,0,1-3.77-.29c-1.29-.5-4.57-3.28-5.86-3.38s-6.66-2-7.65-1.79a6.15,6.15,0,0,1-2.29.4,16.61,16.61,0,0,1-3.87-1.39c-.8-.4-2.58-2.69-3.38-3.38s-4.77-4.27-6.06-4.57a43.65,43.65,0,0,1-5.46-1.79,9,9,0,0,1-3.28-3.87,15.52,15.52,0,0,1-.7-3.28,42.28,42.28,0,0,0-4.76-5.17c-1.79-1.39-5.77-3.57-6.26-5.06s0-4.17-.2-4.87a54.15,54.15,0,0,0-2.49-6.56c-.59-.89-4.37-5-4.57-7.65s.8-4,.7-5.26-.1-8.05-.5-8.74S0,71,0,69.19a12.5,12.5,0,0,1,.6-4.27c.39-1.1,2-2.19,2.28-3.18s1.59-5.57,1.49-7.35-.79-4-.69-5.47A6.59,6.59,0,0,1,5,45.05C5.86,43.86,8,43,8.74,42a42.46,42.46,0,0,0,3.88-6.56c.49-1.39,0-4.27.29-5.46s1.49-1.69,2.39-2.68,3.38-1,4.57-1.79A52.31,52.31,0,0,0,26,19.42c.3-.6.59-3.58,1.39-4.57a8.73,8.73,0,0,1,3.38-2.19c.69-.2,4.66.3,5.46-.1s6.26-3.08,7-3.67S44.9,5.21,45.4,4.72A4.43,4.43,0,0,1,47.78,3.72Z"/></g></g></svg>