<svg xmlns="http://www.w3.org/2000/svg" viewBox="0 0 264.94 254.1"><g id="圖層_2" data-name="圖層 2"><g id="圖層_1-2" data-name="圖層 1"><path d="M41.56,38.13C44.13,34.7,52.7,27,58.69,23.56S88.68,9,91.25,8.14,99,4.71,100.68,4.71s3.43,1.72,3.43,1.72a34.71,34.71,0,0,0,6-1.72c1.72-.85,2.58-1.71,4.29-2.57S120,.86,121.67.86h7.71c2.57,0,8.57,1.71,9.43.85A5,5,0,0,1,143.09,0c2.57,0,11.14,2.57,14.57,2.57h3.43S167.94,6,170.51,6s35.13,11.14,40.27,12.85,13.71,6.86,16.28,10.28,8.57,10.28,10.29,13.71a20.15,20.15,0,0,1,1.71,9.43c0,2.57-2.57,5.14-2.57,5.14a2.63,2.63,0,0,1,1.71.86c.86.85,5.14,1.71,6,1.71s3.43,3.43,5.14,4.28,5.14,4.29,6.86,8.57,5.14,11.14,6,12.85,3.42,10.29,2.57,17.14-2.57,11.14-3.43,12-.86,3.42-.86,3.42a33.83,33.83,0,0,0,1.72,5.15c.85,1.71.85,8.56-1.72,15.42s-3.43,22.28-5.14,29.13-5.14,16.28-6.85,18.85-1.72,5.14-2.57,7.71l-.86,2.57s-41.13,44.56-50.56,48-12.85,5.14-18,6-20.56,4.28-24,2.57a22.76,22.76,0,0,0-10.28-2.57c-3.43,0-23.14-.86-28.28-3.43s-18.85-8.57-22.28-9.43-6.85-4.28-9.42-5.14S66,225.35,60.84,223.64,49.7,218.5,48,215.07s-4.28-12-4.28-13.71-.86-1.71-2.57-2.57-6,0-8.57-1.72-11.14-6.85-13.71-10.28A61,61,0,0,1,12,173.94c-1.72-4.28-.86-6-2.57-7.71s-4.29-2.57-5.15-4.29,0-4.28,0-4.28l-1.71-5.14L1.71,150a12.56,12.56,0,0,1-.85-5.14V137.1c0-1.72-.86-3.43-.86-6.86s1.71-22.28,3.43-24,1.71-3.43,2.57-5.14.85-4.29,1.71-7.71,0-5.14.86-7.72,2.57-3.42,3.43-5.14-.86-5.14.85-7.71,4.29-4.28,5.14-6,1.72-1.71,3.43-5.14,2.57-8.57,4.29-9.42a6.59,6.59,0,0,1,2.57-.86A6.55,6.55,0,0,0,30,47.13c0-2.57,2.57-3.43,3.43-4.29s1.71,0,3.42-.85A27.82,27.82,0,0,0,41.56,38.13Z"/></g></g></svg>