<svg xmlns="http://www.w3.org/2000/svg" viewBox="0 0 174.38 166.18"><g id="圖層_2" data-name="圖層 2"><g id="圖層_1-2" data-name="圖層 1"><path d="M5.05,7c.46-2.74,8.77-4.25,10.63-4s10.1-.53,10.1-.53S30,1.12,31.63,1.39s6.11,1.33,7.7,1.86S47.57,4,47.57,4A1.77,1.77,0,0,1,50,3.51c1.59.8,9.83,1.33,10.36,1.33s6.91-1.33,8.77-1.06,9.84,1.86,11.16.8S87.17.32,89.3.86s2.92,1.59,4.52.53S97.27-.47,98.6.32s5.05,2.4,5.05,2.4,19.67,1.59,22.59.53,4.52-4,6.38-2.93c0,0,4.25,2.13,5.85,1.6s7.18-.53,9.83-.27,9.57,1.6,9.57,1.6,8.77,1.06,9.57,1.06,2.39,6.38,2.39,10.1,4.52,31.1,4,38.27.8,13,.53,19.14-4,36.14-3.19,40.4S173,124.44,172.75,126s-2.12,7.7-2.12,7.7,2.66,4,2.12,6.65-2.39,7.17-2.39,9.57-2.12,12-2.12,12-9.84,1.06-13.82,1.86-13,0-19.41-.54-21.26-2.39-27.37-1.86-6.91.54-6.91.54-5.58,2.39-9.3,2.39S80.8,163,74.68,163.24s-12.49,1.6-17,.8-8.77-1.59-10.36-1.33-3.19,3.72-8.77,3.46-11.17-.53-14.09-1.06-10.19-.61-13-1.87C9,162.18,9.57,159,9,157.4S6.64,151,6.91,146.77s-1.59-9-1.59-13.29,1.32-29.5.79-31.63S4,97.07,3.19,85.37s0-37.47-.53-41.19S0,27.43,0,22.91.53,12.28,1.06,11,4.52,10.16,5.05,7Z"/></g></g></svg>