<svg xmlns="http://www.w3.org/2000/svg" viewBox="0 0 358.68 361.42"><g id="圖層_2" data-name="圖層 2"><g id="圖層_1-2" data-name="圖層 1"><path d="M8.62,23.76c4.18,0,16.92-2.46,20.62-3.7s18.46-3.69,21.54-2.77,4.31,1.24,4.31,1.24,21.85-7.39,27.39-7.7,16.31,2.46,19.38,1.23,12.93,1.23,12.93,1.23S141,13,144.64,10.83s6.77-5.23,10.77-5.54S166.8,6.83,169,5.6s12-3.08,16.31-4.31,14.16-2.15,15.08,0,2.46,1.85,9.54.62S232-.25,235.42,1.6s7.39,2.46,8,3.69,3.07,3.39,5.23,2.77,5.23-1.23,6.46-2.46,4.31-2.46,8.62-2.77,20-2.15,23.08-2.15,1.84,2.15,1.84,2.15,7.39-.31,11.39-.31S302.82,5,302.82,5s7.38,2.46,10.77,2.46,4.62-.93,5.23,1.54.31,10.46,1.54,15.08,1.54,13.84,2.15,23.69-2.77,31.39-.3,38.47l2.46,7.08s3.38,32.31,5.23,39.08,6.16,42.16,8.31,48.62,7.08,52,9.23,64.32,6.16,42.78,6.46,50.78,1.23,18.77,1.23,18.77,2.16-1.85,3.08,2.15.31,12.93-.31,14.78-3.07,4.61-4,4.92-4-1.54-6.15.61a11.08,11.08,0,0,0-2.77,4.31s-9.85,2.16-12,1.54-5.54-3.08-7.08-1.54-4,12.62-5.23,14.77-2.16,5.54-4.31,4.93-6.16-2.77-8-2.77-5.54-1.54-7.08-2.16a40.67,40.67,0,0,0-7.08-1.84c-.92,0-11.38,2.46-16,1.54s-52.32-4.62-58.16-3.7-13.54,1.24-13.54,1.24,2.46,2.15-3.39,3.07-21.54-.61-21.54-.61-.31.92-7.39,1.84-34.46-.3-34.46-.3.92,2.15-1.85,2.77-25.23-3.7-28.93-3.39S91.4,353.66,88.63,354s-8,2.46-9.85,2.77-.92-2.15-.92-2.15-14.16-2.16-18.77-2.46-12.62.61-16-.62a26.54,26.54,0,0,1-6.47-3.69s-6.15.31-8,.31-1.23-1.85-1.23-1.85a33.9,33.9,0,0,1-8.31-4c-3.38-2.46-6.77-2.77-7.08-7.69a68.6,68.6,0,0,1,.62-11.39S7.39,322,5.85,320.73s-.62-3.39-.92-4.31S1.54,311.19.31,309s2.46-6.15,2.46-10.46A28.47,28.47,0,0,1,6.16,286c1.84-3.38,7.69-11.69,8.31-13.23s5.84-41.55,5.54-46.47-2.47-21.85-.93-30.77,2.46-37.24,2.46-42.16-1.53-10.77-1.84-20,2.15-31.08.92-35.39-4.31-5.54-4.92-10.15-.93-9.85-2.16-13.54-2.15-9.85-3.38-14.47S8.93,50.53,7.39,45.91,5.23,38.53,3.08,33.6s-4.62-5.53-1.85-6.77S5.54,23.76,8.62,23.76Z"/></g></g></svg>