<svg xmlns="http://www.w3.org/2000/svg" viewBox="0 0 260.84 305.61"><g id="圖層_2" data-name="圖層 2"><g id="圖層_1-2" data-name="圖層 1"><path d="M19.75,12.88c1.22-2.45,7.14-5.31,7.14-5.31S33,4.11,33.21,3.49a8.73,8.73,0,0,1,4.7-1.43,12.34,12.34,0,0,0,6.73-1c1.84-1,6.94-1.63,8-.2s3.26,3.88,3.26,3.88a68.92,68.92,0,0,1,8.77.2c2.25.41,7.76.21,10,.82s19.59,6.73,22,6.53,8.57-.62,10.61.2,3.06,3.47,3.06,3.47a83.17,83.17,0,0,0,8.57.41c1.83-.21,3.87-1.43,6.93-1.43S162,21,165.63,20.84l3.67-.21s5.92-.2,8,.61,6.53,2.66,6.53,2.66a14.6,14.6,0,0,1,6.53-1.64c3.06.21,5.51,1.64,6.73,2s2.24,2,4.9.82a15.56,15.56,0,0,1,7.14-1.22c2.24,0,3.26-.21,5.91-1.64s4.29-2.24,4.9-.4a9.69,9.69,0,0,0,2.45,3.46s9.39-.4,11.83.41,8.37,3.68,9.39,5.1,3.06,8.57,4.08,9.8,2,1.63,1.22,3.26-2,8.16-2,8.16.62,4.08,1,5.72-1,6.52-1.22,9.18-1,7.34-.82,10.4,1.84,3.88,1.84,6.12a47.87,47.87,0,0,1-.41,7.55,37.61,37.61,0,0,1-1.43,6.74,19.08,19.08,0,0,1-2,3.26s.41,2.24-.81,3.47c.2.81,1.83.61,2.65,4.69s2.24,8.16,2.86,8.57,2,1,1.42,4.08,1,4.69,1.23,6.73-.41,8.17-1.43,9.8-2.45,4.69-2.45,4.69a7.63,7.63,0,0,1,2.65-.2c1,.2-.2,3.46.21,5.71s3.06,5.71,3.06,8.36-1,4.9-.82,6.94-.41,9.59-.41,10.61-2,8.37-1.83,9.59-1.63,1.43-2.86,2.24-9.18,4.49-9.18,4.49,7.35-.81,9.18-.61,4.08-.41,5.1,2.25,1.23,10.4,1.23,10.4,3.06-.2,3.67,1.63.61,19.59,1.43,23.06l.81,3.47s0,6.12.82,9a20.78,20.78,0,0,1,0,9.38c-.61,2.86-1,10.61-1,10.61a111.12,111.12,0,0,1,.61,11.83c-.2,3.68,0,8.78-1.22,11.63s-6.33,13.67-11,16.94-5.92,4.89-9,4.89-7.14-.81-10.2,0-7.34,0-13.26-.2-17.75-.61-19-.82-22.44-3.67-24.68-3.06-5.51,2.25-8.16,2.25-8.57-.61-11-.41-8.78-.41-11.43-.61-4.69-1.23-7.14.2-4.28,2-6.53,1.43a51.32,51.32,0,0,0-6.94-1c-1.63-.2-5.71-1-9.18-.41s-13.46,1.63-13.46,1.63-46.11.62-50.81-.2-18.36-1-20.6-1-5.31-1.43-8-1-5.92,2-7.35.41-1.42-2.65-2.24-5.51-2.45-4.69-2.45-7.14a18.63,18.63,0,0,0-1.63-8c-1.23-2.45-.61-3.67-2.25-6.53S-.45,272,.16,268.73s3.26-13.05,3.67-16.93,1.84-15.51,2.25-22.44,3.06-12.45,4.69-18.57,2.86-10.61,3.67-12,2.86-1.22,3.47-1,3.47-1,3.47-1L15.26,193s-.21-4.9-.41-7.76-1.84-6.12-1.43-10.4,2.25-15.3,2-18.77a43.68,43.68,0,0,0-.61-5.51l2.86-2.24a16.67,16.67,0,0,0-4.29-3.88l-2.24-1.23a20.81,20.81,0,0,1-.61-4.89c0-2.65-1.64-5.1-2.25-9s.21-5.3.82-11.22,1.43-8.16,2.85-10,3.68-2,5.1-4.08A64,64,0,0,1,22.81,98S14.24,91,12.61,89.39s-3.88-5.51-4.9-6.94S4.45,80,4.65,78.78a37.26,37.26,0,0,1,2-5.3c.82-2,.2-5.51,1.43-8.37a40.17,40.17,0,0,0,2.85-12c.21-4.08-1-7.34.62-10S14,40.63,14,37.36s1-9,1.84-14.28A31.17,31.17,0,0,1,19.75,12.88Z"/></g></g></svg>