<svg xmlns="http://www.w3.org/2000/svg" viewBox="0 0 184.13 161.4"><g id="圖層_2" data-name="圖層 2"><g id="圖層_1-2" data-name="圖層 1"><path d="M181.94,147.92c-1.15-1.15-2-6-2.59-8.49s1.73-5.17,1.73-5.17-.44-3.88-.58-7.48c-.05-1.15-.24-5.21-.49-10.18-.74-.79-.49-1.39-.08-1.78-.24-4.74-.5-10-.72-14.42l-.58-.35a2.94,2.94,0,0,1-1-3A2.3,2.3,0,0,1,179,95.7c-.13-2.53-.2-4.18-.2-4.28,0-.43-.87-2.15-1.3-3.73s1.3-2.88.86-4.17-.28-7-.57-9.35-1.29-7-1.29-7a3.83,3.83,0,0,1-3.6-4.6c.29-1.72,5-.72,5-.72s.42-2,.88-4.29c-.25-.59-.47-1.13-.59-1.46-.21-.57.38-.75,1-.79.32-1.63.6-3.15.7-4,0-.23,0-.55.06-1a5.78,5.78,0,0,1-1.07-2.07,1.39,1.39,0,0,1,1.14-1.53V44.2a1.13,1.13,0,0,1-.85-.64c-.49-.89.29-1.57.84-1.91,0-1.44,0-2.83,0-4a3,3,0,0,1-1.11-1.53c-.24-.89.48-1.51,1.15-1.88.15-2.32,1-13.22.72-15.8s.86-10.64.86-10.64l-7.19-2.3L162.68,4.6S153.48,2,151.75,3.45s-5.17-.86-8.34-.58S124.15,2,124.15,2s-25.59-.29-29-.57S44.8,0,41.35,0,19.79,0,17.2.57,12,3.45,9.73,5.17c0,0-3.31,1.59-4.17,1.87S2.83,9.49,2.11,10.35,1,12.22.24,13.22s.29,2,1.44,2.88a19.8,19.8,0,0,1,2.87,3.31,35.75,35.75,0,0,1,1.87,8.33C6.85,31.62,9,56.21,8.72,58.51c-.22,1.77.67,7.91,1,11.81.73.34,1.49.89,1.49,1.7a3.31,3.31,0,0,1-1.52,2.22c-.1,3,.24,8.13.37,11,0,.42,0,1.14,0,2.09.52,1.38,1,3.67.57,3.81a2.79,2.79,0,0,1-.66.06c-.09,2.81-.21,6.22-.35,9.57a1.8,1.8,0,0,1,.44,2.15c-.08.13-.16.24-.23.34.35.31.6.72.37,1.1a12.42,12.42,0,0,1-.77,1c-.17,4.19-.33,7.67-.38,8.73-.07,1.42.15,7.65.36,14.29,1,1,1.52,1.74,1.08,2.95A5.86,5.86,0,0,1,9.51,133c.16,5.81.26,11.16.08,13-.44,4.45-3.45,7-2.59,7.33s10.35,2.3,12.93,2.73,26.74,3.45,31.34,3.59,13.8.43,15.24.29,12.36-.57,13.94-.43A15.23,15.23,0,0,1,86.2,161c1.87,1,9.2-.15,14.38-.43a43.62,43.62,0,0,0,10.92-2.45s13.08.72,14.81,1.3,14.8-1.73,17.39-1.59a75.14,75.14,0,0,0,11.36-1,77.46,77.46,0,0,1,12.79-.43c2.16.28,15,2.15,15,2.15s-.29-1.29-.57-2.44,1.58-4.6,1.86-5.46S183.09,149.07,181.94,147.92Z"/></g></g></svg>