<svg xmlns="http://www.w3.org/2000/svg" viewBox="0 0 227.61 402.82"><g id="圖層_2" data-name="圖層 2"><g id="圖層_1-2" data-name="圖層 1"><path d="M34.4,11.61S44,11.3,46.19,11.3s16.74.62,23.57.62,37.52-.31,42.17-.62,18,.31,27-1.86S164,8.2,168.69,7.58s22.95.62,25.74-.93S214.27.14,219.86.14s4.34-.31,5.58,0-1.24,6.51,0,9.92,2.17,20.78,2.17,25.12-5.89,83.43-6.2,89.63-.62,22-1.55,30.39-9,64.2-9,66.37.31,72.57,0,80-7.44,32.56-8.06,41.56.62,50.86.62,53-.31,4.34-.31,5.27-7.44.93-9.61,1.24-14,0-21.4,0-29.77-2.48-35.67-2.17A108.34,108.34,0,0,1,114.1,399c-5.89-1.24-19.22-3.1-26.67-3.72s-23.88-2.17-33.18-2.17-31-.31-34.73-.62S9.9,391.83,8,391.21s-6.2-4-7.13-5.27S-1.26,385,3.08,366.4,11.45,309,13,297.55s4-53.65,7.76-61.41,16.12-62.33,16.12-65.74-1.55-31.33-2.17-38.77-.31-10.54-.93-17.68.31-19.84.31-19.84.31-47.76.93-54.59-2.17-18.91-1.86-22.33S32.23,11.61,34.4,11.61Z"/></g></g></svg>