<svg xmlns="http://www.w3.org/2000/svg" viewBox="0 0 126.88 420.11"><g id="圖層_2" data-name="圖層 2"><g id="圖層_1-2" data-name="圖層 1"><path d="M0,4.4S12,2.8,19.59,4s24,3.19,24,3.19S50,0,54.36,0,67.14,8.39,67.14,8.39s23.58-2,28-2.4,6-1.19,6-1.19.8-3.2,3.2-3.2,4.39,2.8,4.39,2.8,8.8-.4,10.79-.4,2.8,2.79,2.8,5.59a84.29,84.29,0,0,1-.8,10.39c-.4,2.4-3.2,5.2-2.8,8.39s3.2,10.79,3.2,10.79L121.49,50s4,4.4,3.6,8.79-2.8,5.2-2.8,5.2,3.6,6,2.4,8.79-2.4,3.2-2.4,3.2,3.6,2,4.4,4-1.2,5.2-1.2,5.2l-4,2s-1.6,13.18-1.2,16.78c0,0,2.8.4.4,4,0,0-2.4,13.58-1.6,16.78s1.6,16.39,2,19.18a32.8,32.8,0,0,1-.4,7.6s4.8,3.59,0,9.19c0,0-1.6,21.58-1.6,22.78s1.2,2,1.6,4.79a79.57,79.57,0,0,1,0,10l-1.6,2s1.6,28,1.2,32.77-2.79,18.78-2.39,20.38a81.42,81.42,0,0,1,.79,10.79c0,2.8-.4,50-.4,54s-4,10.79-2.79,14.78,3.59,21.18,4.79,26.38-1.6,33.57-1.2,37.56-.8,16.79-.8,18.78-4.79,2.4-6.39,3.6S66.74,415.6,64,416.4s-9.19,2.8-12.79,3.2-20.78-.8-23.58-.4-9.19,1.2-12.79.8-10-2.8-10-2.8a74.13,74.13,0,0,1-.4-10c0-7.59,0-8-1.2-12.79A35.4,35.4,0,0,1,2.8,380c.8-4.4,2.8-12,3.2-16s.4-8,.4-8,.8-58.74.4-63.14-.4-9.59-.4-9.59-1.6,4-2-3.6S4,268.94,4,267.35s2.4-.8,2.4-.8-1.2-24-2-27.58-.83-.84-2-14.78c-.4-4.8,2-4.8,2-4.8s.4-28.77-.4-31.57S2.8,183,2.8,175.43s1.2-10,1.2-10l.4-8a13.33,13.33,0,0,1-1.6-7.59c.4-4.4.4-7.6.4-13.19s.4-14.39.4-22,1.2-29.17.8-35.57S1.21,68.33,2,59.94,3.2,40.76,2.8,35.57s-4-6.8-2.39-12.79c0,0,2.79-2,1.2-7.59A44.08,44.08,0,0,1,0,4.4Z"/></g></g></svg>