<svg xmlns="http://www.w3.org/2000/svg" viewBox="0 0 911.21 632.45"><g id="圖層_2" data-name="圖層 2"><g id="圖層_1-2" data-name="圖層 1"><path d="M209.66,17.77s4.31-2.42,5.2-2.54a19.64,19.64,0,0,1,3.17.12s4.06-1.9,4.44-1.9,1.65.13,1.65.13l1.15-1a26.2,26.2,0,0,0,4.31-1.39l1.14-.64,2.54-1.14,5.84,1s31.47.5,34.51.63,17.13-.63,17.13-.63a8.38,8.38,0,0,0,3.43,1l1.27-.13s6.72.89,9,1.15a55.08,55.08,0,0,1,5.46,1s10.78,1,13.83.89,9.77-1,10.78-.89,3.43.38,3.43.38,4.57-.89,5.2-.89,4.82-.25,5.2-.25c0,0,18.28-1.27,19.17-1.52s4.31.63,4.31.63,2.28-.89,2.67-1,5.07-.13,7-.26,13.58.76,13.58.76a51.91,51.91,0,0,1,9.14-1.52,43.87,43.87,0,0,1,7.36.13s-.64-.76,1.39-.64a37.26,37.26,0,0,1,4.45.64s16.75,0,22.08.12,17-.5,17-.5l22.84,2.66a49.29,49.29,0,0,1,6.6-.38c4.06,0,39,1.52,39,1.52l14.59.13,1.65,1.27,3.55-.89c.51-.13,18.53,3,21.57,4.57s10.16,3.17,14.09,4.44,7.61,2.41,7.61,2.41.26-.89,1.65-.89a29.28,29.28,0,0,1,4.32.64s1-.51,1.39-.64,10.79-2.28,10.79-2.28,5.84,1.9,8.75,1.78,23.73,1.52,23.73,1.52,1.91-1.9,2.92-1,3.94.77,4.44.77,4.45-.77,5-.64,4.57.38,4.57.38h8.5l26.4-3.93s19.29,4.95,20.68,5.33a5.17,5.17,0,0,1,2.16,1.14s8.63-2.79,10.79-4.06a71.74,71.74,0,0,0,5.83-4.19l-1-1.78a10.58,10.58,0,0,0-2.16-2.28c-.89-.51,3-.25,4.06-.89s2.92-3,3.3-3.17,3-1.9,3-1.9,0-1,2.15-2.54S744.9,2,746.43,1.4s1.14,1.14,2.15.76S750.36,0,750.36,0s1.27,4.06,1.52,5.08,2.92,4.31,2.92,4.31,7.11-2,8.76-2.66S773,6.09,773,6.09a7.58,7.58,0,0,1,1.14-.76,9.75,9.75,0,0,1,2.41-.25s12,6.59,13.32,7.36S800.23,15,800.23,15s2.66,2.29,5.46,4.45,26.77,18.52,30.45,20.93,11.8,8.12,11.8,8.12l1.65-.38.64.89a50.34,50.34,0,0,1,5.83-2.28l4.32-.51.63,1.4,1.4-.89h1.65s.25-1,2-1.27a15.55,15.55,0,0,0,2.92-.38c1.27-.38,2.66-.89,2.66-.89l1.78.89,14.72-1.27-.89,1.65L889.94,49s2.67.76,3.43,2a7.12,7.12,0,0,1,.89,2.67l-.26,3.8a16,16,0,0,1,2,2.8,38.38,38.38,0,0,1,.12,5.2s.76,1.14,1.14,1.65a6.26,6.26,0,0,1,.51,2.15,23,23,0,0,1,1.65,2.54,5.29,5.29,0,0,1,.13,2.79,7.45,7.45,0,0,1,.51,2.67,7.42,7.42,0,0,1-.89,2.28L898.7,83s1.52-.25,1.27.63-1.14,3-1,3.56a28.88,28.88,0,0,1-.76,4.95,31.67,31.67,0,0,0-.63,5.83c0,2.16-2.54,6.22-2.54,6.22l.63,8.25-3.8,12.69-.51,12.69s-1.9,3.93-1.78,5.45,2.29,2.16,2.29,2.16a38.24,38.24,0,0,1,4.19-.25,11.78,11.78,0,0,1,1.77,1.65s-.13,2.79-.51,6.22.38,2.79-1.14,8.88-1.27,9.26-1.27,9.26a46.12,46.12,0,0,1-3.93,5.33c-1.4,1.4-2.54,5.46-2.54,5.46s4.32-1.4,5-1.27-.13,3.81-.13,5.07-1,2-.88,5.72,5.07,29,5.2,29.56,0,8.35,1.14,9.9c.76,1,.38.51.38,2a35.87,35.87,0,0,0,1.27,7.49c.63,2,6.09,53.29,6.09,55.7s2.28,25.13,2.16,25.89,1.9,24.36,2.28,31.6a129.13,129.13,0,0,1,.26,12.94c-.13,1.52-7,56.47-7,56.47l-7.87,57.74-4.57,12.56a23.6,23.6,0,0,0-1.78,3.17c0,.38,2.42,5.46,2.92,6.85s1.27,23.73,1.27,23.73,3.68,33.5,3.17,33.76-6.72,14-6.72,14-3.43.38-3.43,0-.63-1.4-1.27-.89a7.53,7.53,0,0,1-1.52.89l-3.17-.26s-11.8,23.35-13.83,26.4-8.25,9.89-9.14,11.29a3.91,3.91,0,0,0-.63,2.67s-1-.77-4.45-1L818.5,632.07a49,49,0,0,0-9.39-1c-4.82,0-14.84.76-15.23.76s-6.59-1.65-7.61-1.52-2.92.63-2.92.63-1.65,1.65-2.54,1.53a4.27,4.27,0,0,1-1.77-.89,9.52,9.52,0,0,1-.89.38c-.38.13-2-1.65-3.43-1.27s-2.28-.13-.5-.76a7.12,7.12,0,0,0,2.41-1.27,5,5,0,0,1,2.53-1.9l2-.89,2.29.25s3.93-2.41,4.57-3.93,2.54-2.92.76-3.17-4.82,2-4.82,2-2.54-.51-3.94.76-2.15,1.9-2.15,1.9-1.4.13-2.67.13a22.14,22.14,0,0,1-3.55-.51s-1.78,1.78-2.79,1.65a2.5,2.5,0,0,1-1.4-.51,1.75,1.75,0,0,1-1.65.76c-1.27,0-3-1.39-5-1.52a6.57,6.57,0,0,0-3.42.76,6.22,6.22,0,0,0-3.43-.63c-1.78.25-1.78,1.14-2.67.63a19.33,19.33,0,0,0-2.15-1s0,1.39-1.27,1.27a6.38,6.38,0,0,1-2-.51s.12.89-1.52,1-2-.88-2.92-.63-1.27.76-2,.89-2.67.25-4.32.51a29.07,29.07,0,0,1-4.69,0A4.37,4.37,0,0,1,727,624.2c-1.14-1.4-2.79-2.41-3.43-2.41s-4.69-1-6.85-1.4-7.23-2-7.23-2l-7.87,6.22s-13.7.76-14.21.63-20.68-2.79-20.68-2.79-8.63-10.53-9.27-10.15-6.6,9.64-7.36,10.79-5-.64-8.63,0-5.71.88-8.37-.13a66.59,66.59,0,0,0-9.14-2s-2.54,1.78-6.34-.38-6.09-2.92-7-2.79-3.56-3.05-4.95-2.92-2.54-1.4-2.54-1.4S591,612.14,589.46,612s-6.48-1-7.74-1.27-2.8-1.52-4.7-1.4-2.92.64-4.19.26-2.28-1-2.79-.89-1-1.4-1.78-1.14a13.85,13.85,0,0,1-2.79.25,30.46,30.46,0,0,0-3.3.63c-1.39.38-3,1.27-4.31,1.15a14.92,14.92,0,0,0-3.3.25s-27.28-1.9-31.6-2.79-8.75-3.05-9.51-3.05-6.73,2-10.41,2.92a71,71,0,0,1-7.49,1.14c-1.14.26-15-.89-17.38-.63s-4.32.76-5.58.63a14,14,0,0,1-3.56-.89,20.14,20.14,0,0,0-3.55-.88c-.38,0-8.88,3.68-8.88,3.68L399,604.15l-4.57-3.93h-8.89s-24.36-7.11-25.37-7.75-6.73-4.56-9.39-4.56a40.94,40.94,0,0,0-6.1.63l1.78,1.14a5.43,5.43,0,0,0-4.31,3.81,36.68,36.68,0,0,1-5.21,8.63c-.38.38-8.12,2.41-8.12,2.41s-2.54-1.4-3.42-1.78-4.44.13-4.44.13-1.78-2.28-2.16-2.28-.38-.26-2.92,1.52-9.9-.25-11.42,0-4.82,4.06-5.71,4.44-36.93,8.76-36.93,8.76-17.13,2-18.14,1.65l-2.29-.89a3.09,3.09,0,0,1-1.65,1.9c-1.27.51-2.79,0-3.8-.25a17.43,17.43,0,0,1-3.56-2.29s-3.68.76-4.06.51-3.55-6.47-3.93-6.85a1.72,1.72,0,0,1-1.53.32,2.76,2.76,0,0,1-1.39-1.4,1.39,1.39,0,0,1-1.71.13,7.19,7.19,0,0,1-1.65-2.1,1.38,1.38,0,0,1-1.46.51,3,3,0,0,1-1.27-.95s-.45,1.39-1.27,1.2a4.65,4.65,0,0,1-1.46-.63,1.89,1.89,0,0,1-2,1,17.25,17.25,0,0,1-2.92-1.33,2.36,2.36,0,0,1-1.52,1.84,31.52,31.52,0,0,1-5.71,1,9.56,9.56,0,0,1-2.29-1.07s0,1.52-2.28,2.15a4.75,4.75,0,0,1-3.62-.31,3.08,3.08,0,0,1-2.28,2.09,6.77,6.77,0,0,1-3.68-.64s.19,1.4-1.46,1.4a4.91,4.91,0,0,1-2.79-.89s0,1.08-2.22,1.59a6,6,0,0,1-3.75-.26s-.12,1-2.15,1.15a2.7,2.7,0,0,1-2.67-1.08s.64,1-1.2,1.27a4.12,4.12,0,0,1-2.86-.38,1,1,0,0,1-1.08,1.14,6.74,6.74,0,0,1-2.6-.95s0,1.27-1.71,1.27a10,10,0,0,1-3.3-.64s-1,1.33-2,1.14-3.3-.69-3.3-.69-2.6,1.71-4.06,1.71-2.28.63-3.42-.07-1.78-1.14-1.78-1.14-.7,1.34-1.71,1.53a14.08,14.08,0,0,1-4.64.12,17.6,17.6,0,0,0-2.41-.7c-.25.07-1.07-.12-1.27-.06s.13.7-.82.83-2.35.5-2.66.5a3.5,3.5,0,0,1-2.73.45c-2.29-.26-5.78.7-6.35-.07a9.42,9.42,0,0,1-.7-1s-.44,1.2-1.33.7a1.91,1.91,0,0,1-1-1.08s.31.76-1.27.38a26.74,26.74,0,0,1-3.37-1.46c-.31,0-.82.38-1.26.19a17.82,17.82,0,0,1-2.22-2.16,3.43,3.43,0,0,1-3.18-.19,4.58,4.58,0,0,1-1.65-2.28,1.7,1.7,0,0,1-1.84-.13c-.82-.7-.89-1.2-.89-1.2a3.34,3.34,0,0,1-2.22.06,9.57,9.57,0,0,1-2.15-2.09s-6-3.11-7.81-3.68a13.24,13.24,0,0,0-7.48-.77c-3.75.64-6.6,1.91-6.79,1.72s-1.14-.57-1.59-1.27a1.3,1.3,0,0,1-.25-1.14s-.19.12-1.4-.19-2.66-2.41-3.3-2.67a12,12,0,0,0-1.46-.44l-1.39-2.48a30.34,30.34,0,0,1,2.66-3.11c.89-.76,1.46-.57,1.46-.76s-1.46-.57.06-2.09,2.16-1.78,3.37-3a10.11,10.11,0,0,1,2.92-2.29,7.72,7.72,0,0,1,1.65-.57s-.32-1.33-1-1.46-.89.7-1.84,0a2.5,2.5,0,0,0-2.16-.63c-.82.06-.69.89-1.52,0a22.81,22.81,0,0,0-2.22-2.22c-.51-.38-.63.69-.76,2s-1,3.18-1.71,3.49-8.7,3-10.41,4.83-6,6.21-7.36,7.55-6,5.14-6.54,6.34a22.48,22.48,0,0,0-.88,2.79l-.7.32a1.64,1.64,0,0,0-.83-1.08c-.63-.25-7.23-2-8.94-2.54a81,81,0,0,0-8.5-1.33s.76-2,.44-2.28-.7-3.18-.7-3.18L27.88,594l9.52-14,2.41-8.25L38.29,555a69.32,69.32,0,0,0-5.52-4.57,10.86,10.86,0,0,1-2.16-1.65s1.33-1.58,2.47-3.3,1.21-2.72,2.1-3.36,2.66.13,2.53.32a24.6,24.6,0,0,1,.07-2.92.66.66,0,0,1-1-.38c-.25-.83-1.71-6.66-1.9-7.87s-2-2.6-2.09-4.06-.39-3.49-.39-3.49L31,521.41s.44-8.63-.25-11-1-3.87-1.08-4.19-1.21-13.58-1.21-13.58l-.25-16.43s-2,4.57-2.6,6.41a8.47,8.47,0,0,1-2.73,3.42,2,2,0,0,1,.06-1.39c.32-.57.95-1.27,1-1.46s0-2,0-2a30.92,30.92,0,0,0,1.71-4.06c.89-2.54.95-7.17,1.27-8.37s1.9-4.13,1.71-4.19-2.09-4.57-2-5.08S28,458,27.82,457.84s-1.34-1.59-1.34-1.59,1.34-2.34,1.08-3.3,1.21-1,1.21-1a6.67,6.67,0,0,1-.64-2.67c.13-1,1.59-.63,1.78-1.14a3.35,3.35,0,0,0-.25-2.22c-.32-.38-.51-2.6-.13-2.92s-.38-2.85-.38-2.85l-8.63-14.6s-.38,1.46-1.21.45-.69-2.6-.95-3.68-1.14-3.11-1.46-3.17.89-4.7,1.27-5.59,5-13.32,5-13.32-.69-9.84-1.2-11.61-1.33-4.95-2.48-5.78a7.68,7.68,0,0,1-2.6-3.55c-.44-1.33-.06-4.38-.44-4.82a6.29,6.29,0,0,1-1.08-2.79,5.08,5.08,0,0,0-1.14-2.35,8.19,8.19,0,0,0-.19,1.9s1,1.08.89,1.84-.32.89-.32.89a8.91,8.91,0,0,1,.44,4.32c-.38,2.28-1.39,2.28-1.33,2.72s1.65-.31,1,.38a10,10,0,0,0-.89,1.08,3.69,3.69,0,0,1-.7,2.1l-.7.82s.76,1.4.13,1.46a2.47,2.47,0,0,0-1.27.76s.89.64.51,1.14c0,0,2.47.89,3,1.65s0,1.15,0,1.15a1.74,1.74,0,0,0-1-1c-.7-.25-.7,1.08-1.4.51a8.64,8.64,0,0,1-1.33-1.46,7.35,7.35,0,0,1-2.28-.13c-.51-.25-.51-1.58-.38-1.71s-.89-.45-.13-1c0,0,.57-1.07.7-1.39a.88.88,0,0,1,.5-.45s.32-8.43.13-9-1.52-2.09-.89-3.23l1-1.71a8.55,8.55,0,0,1-.38-1.84c-.19-1.4-.63-2.61-.25-3.43s1.21-1.21.89-1.65a14.87,14.87,0,0,1-.89-2.35c-.44-1.14-4.19-7-4.19-7s-2.66-3.36-2.66-4.95,1-2.54.89-3.24-.07-1.65-.07-1.65l2.67-10.4s.06-3.43-.38-3.81-.07-1.52-.07-2.66a16.53,16.53,0,0,0-.44-5,3.39,3.39,0,0,1,.7-3.37c.38-.57.25-.38-1.27-2.28a1.63,1.63,0,0,1-1.33.32,2.81,2.81,0,0,1-1.53-.89s1.78-13.83,2-14.41,11.67-21.76,12.18-22.33,1.27.06,1.46-1.78-.06-5.64-.38-5.83-2.41-1.78-3.17-1.84-1.78,1.9-2,1.71.19-.32-2-1.9-9.2-10-9.45-10,1.39-2.54,1.39-2.54L.91,243.64s1.15-4.57,1.78-7.23,1.65-2.22,1.65-2-1.39-3.24-.25-3.24h.25s.64-8.63,1.33-9.64c0,0,3.75-2.54,3.87-2.8s3.62-6.59,3.62-6.59-2.09-.64-2.27-1.73a.94.94,0,0,1,0-.49c.51-1.4-2,.38-2.67-.13a28.4,28.4,0,0,1,1.34-2.86c.19-.12-1.46-1-1.46-1a20.91,20.91,0,0,0,.38-3.3l-.06-1s.31-1.46.69-1.53,1.08.7,1.08.7l.32,1.78A28.77,28.77,0,0,1,13,199.23c.57-.45,6.09-1.08,6.41-1.4s4.32-2.16,4.32-2.16l1.2-8.31S20.08,173,19.82,172.58s-3-9.46-3-9.46a18.09,18.09,0,0,0,.38-3.3c-.19-.12-1.65-2.47-1.65-2.47l.89-3.3-1-1.71-.51-2.6-2.28-1.84s.19-1,.25-1.84-.38-3.94-.63-3.94-1.59.57-1.84.26,1-1.59,1.39-2a5.94,5.94,0,0,0,.83-2.09l4.25-3.68,1.33-10.79s2.6-1.21,3.43-.38a10.65,10.65,0,0,1-.06-3,39.34,39.34,0,0,1,6.09-6.73c1.52-1,6-6.41,6-6.41L34.86,99s-.64-10.72.06-12.05,3-3.37,3.24-3.87-.13-3.87,0-4.7,1.39-1.08,1.71-1-.13-1.34.57-1.4a10.33,10.33,0,0,1,1.46,0s.51-1.08,1-1.21a11.22,11.22,0,0,1,1.46-.19,25.12,25.12,0,0,1,2.73-2c.76-.38,1.08.07,1.4-.76a9.59,9.59,0,0,0,0-3l2.15-1.72.07-4,.44-.57a13.31,13.31,0,0,0,1.65-3.11c.57-1.65,1.4-2.86,1.71-3.75s1.34-5.2,1.53-6.21.24-4.75-.69-6a1.34,1.34,0,0,0-.2-.21c-1.14-1,.7-.76,1.14-.64,0,0,.26-.82,1.9-1.46a18.16,18.16,0,0,1,3.24-.88l4.76-3.56.57-1,1.71-.19a4.59,4.59,0,0,1,3.24-2.41,37.3,37.3,0,0,1,6.53-.57S92,27.16,98.5,25.32s20.62-6.48,20.62-6.48l73.53-4.75A17.83,17.83,0,0,0,200,17c3.81.38,9.52.26,9.52.26Z"/></g></g></svg>