<svg xmlns="http://www.w3.org/2000/svg" viewBox="0 0 334.09 279.55"><g id="圖層_2" data-name="圖層 2"><g id="圖層_1-2" data-name="圖層 1"><path d="M328,18.76c4.45,5.44,4.68,6.14,2.73,8.37s-5.11,6.56-4,8.94a110.78,110.78,0,0,1,5.44,17.86c1.1,5.73-2.25,21.22-.2,27.5s2.32,18.85,2,23.73-2.77,39.51-1.41,43.69-5.05,17.31-3.25,24,.31,25.55.31,25.55-4,73.14-4.56,76.21-7.91,2.66-11,2.52A47.53,47.53,0,0,0,300.9,279c-5.27,1.4-47.7,0-54.37-.56s-13.34-1.11-20.47-3.07-30.87-8.09-39-6.14-31.32,4.61-39.2,5-21.86-5-27.59-5-1.7,1.82-4.13,4.89-11.73,2.65-14.83,2.51-21.86-5-30.42-6.7-20.18-5.72-25-5.16S35,261.65,33.09,261.65s-8.35.14-9.75-1.82-3.87-11.86-6.46-14S4.42,234.57,3.06,230.38,1,197,1.34,188.78s-1.65-46.06-.4-49.27-.33-9.22.89-11.31-.87-5-1.55-7.12.3-3.77.33-6S.19,111.45,0,107.4s.86-9.07,1.88-13S0,79.2.52,76.13s3.7-7.39,3.7-7.39-.37-7,.4-10.47S3.74,39.14,7.1,37.75,9.3,34,9.3,34,2,31.33,5.16,24.76,12.36,7,18.29,8.85s21,13,26.71,15.22,14.46,5.72,18.08,2.79,9.72-11.17,11.44-14.1S85,11.08,90.8,8.85,109,7.18,110.65,5.36s8.41-3.49,11.49-2.23,29.34-.14,33.38.55S227.37.47,235.24.05s25.74,1.68,29,3.63S273,9.41,275.43,7.45s4.17-7.12,7-5.44S291,5.92,294.31,5.64s7.17-1.4,12.65-1,12.12,3.21,15.42,5.16S328,18.76,328,18.76Z"/></g></g></svg>