<svg xmlns="http://www.w3.org/2000/svg" viewBox="0 0 104.08 157.54"><g id="圖層_2" data-name="圖層 2"><g id="圖層_1-2" data-name="圖層 1"><path d="M27.35,9a7.2,7.2,0,0,1,2.51-1.4s-.56-1.12,1.68-1.68A25,25,0,0,0,36,4.22S35.45,1.43,38.8.31s4.47,1.12,5,1.67a8.29,8.29,0,0,1,1.11,1.68s3.07-2,5.87-1.4l2.79.56S57,3.94,58.07,5.61a22.82,22.82,0,0,0,5.58,5,48.27,48.27,0,0,1,5.59,3.91c.56.56,7.26,3.35,8.38,3.91S81,19,81,18.46s1.12-.56,1.67-2.23,1.12-2.8,2.24-2.8,3.35,1.12,4.47,1.68,3.91,2.79,4.46,5a36.23,36.23,0,0,1,1.12,6.14,31.33,31.33,0,0,0,.56,3.91s3.35,7.82,5.59,9.5,3.54,6.87,2.79,8.37l-1.12,2.24s-4.47,16.19-7.26,23.46-11.17,22.9-18.43,32.95S50.25,144.13,45.78,148s-10.61,8.38-14,8.94-7.82,1.11-11.73-.56S5.57,144.13,2.77,136.31-.58,105,.54,97.21,10.59,65.94,11.71,61.47s-.56-8.94-1.12-12.29-2.79-6.7-1.11-8.94,3.35-5,3.35-5a2.93,2.93,0,0,1,.56-2.8c1.11-1.11,2.79-2.23,3.35-2.79S19,28.51,19,30.19c0,0,1.12-2.79,2.24-3.35a9.78,9.78,0,0,1,3.35-.56s-1.12-1.68,0-2.79a22.38,22.38,0,0,0,2.23-2.8V14C26.79,12.32,26.51,9.8,27.35,9Z"/></g></g></svg>