<svg xmlns="http://www.w3.org/2000/svg" viewBox="0 0 701.55 217.13"><defs><style>.cls-1{fill-rule:evenodd;}</style></defs><g id="圖層_2" data-name="圖層 2"><g id="圖層_1-2" data-name="圖層 1"><path class="cls-1" d="M464.22.58V1a1.88,1.88,0,0,0,1.16.29c.17-.17,0-.06.29-.15V1h.15V.44c.18-.28,1.29-.17,1.74-.15a7,7,0,0,0,1.89,1.31l.43-.15s.06.19.3.15V1.45h.58l.14-.29c.52-.22,1.27.3,1.31.29l.15-.29.87-.14.29-.44.87.15V.58h.15V.73H475V.87h1.31l.29.44h1.31V1.16h.73V1h.58V.87h.43V.73c.4-.29.27-.33.87-.44V.15h.15V.29c.49.12.63.37.73.87h.29c.14.56.42.46.58,1,.69-.05.67-.19,1.16-.44V1.6H484V1.45h.58V1.31h1V1.16l.73-.14c.09,0,.14.46.72.29V1.16h.3V1c.44-.12.46.21.72.29V1.16l.44.15v.14h1.16l.73-.14v.14l.58.15v.14c.49.15.48-.26.58-.29.32-.09.49.25.73.29.62.11.91-.3,1.3-.29V1.6h.73v.14h.29v.15c.35.12.55-.13.73-.15v.15h.29l.14.29.73.15v.14l1,.15a.37.37,0,0,1,.43-.15l.15.29a.39.39,0,0,0,.44-.14,3.71,3.71,0,0,0,.58.14v.29h1.45V3.2h.29v.14H501V3.2h.14L501,2.62h1.45c.14.26.2.22.29.58h1v.14H504v.15a.23.23,0,0,0,.29-.15l.73.15c.38-.86.59-.57,1.45-.87l-.15-.44c.27-.05.9-.34,1.31-.15l.29.44h.29l.15.29h.29v.15h.58V2.76h.15v.15h1V2.76a1.63,1.63,0,0,1,1.31-.14v.29c.18.09.22.24.29.29h.29v.14l.88.15v.14h.29v.15h.58v.14l.58.15v.14c.4.19.43,0,.73.3h.14v1h-.14v.15h-.44v.14h.29V6.1a3.54,3.54,0,0,1,.44.44h1.74c.17-.17,0-.06.29-.15l-.14-.29c.18-.23.74-.26,1-.43l.29-.44h.58v.15c.29.16.76-.09.88-.15V5.09h.14v.14h1V5.09h.73V4.94h.58V4.8l4.79-.15.15-.44,1.31.3V4.8h.43l-.14-.59c.47.06.42.14.72.3v.14c.19,0,.29-.29.29-.29.58-.18,1.27.34,1.75.44-.08.29,0,.12-.15.29l.15.43c.17-.09.2-.23.29-.29h.29L533,4.8l.73-.15.14-.29a1.73,1.73,0,0,1,1.75-.58v.14l.43.15c-.11.15-.18.14-.29.29a3.58,3.58,0,0,1,1.6.29V4.8h.73v.14h.43v.15h.29l1,1.16h.44v.14c.29-.08.12,0,.29-.14h.14c.49-.64-.44-1.09.88-1.16a1.42,1.42,0,0,0,.87.43V6c-.4.1-.33,0-.44.43l.73.15.14-.44H543V5.52l.29-.14V5.09c.08-.11.29-.12.44-.29a1.93,1.93,0,0,1,.87.43v.15l.72.14a.24.24,0,0,1,.3-.14l.29.43a3.85,3.85,0,0,0,1.3.73l.44,1.31h.15c.2.26.39.3.58.58h-.58v.14h-.44V9h.14v.15h.73c.14-.19.32-.15.44-.29l.14-.44h2a1.84,1.84,0,0,0,1,.44,2.28,2.28,0,0,0,.44.58c-.16.8-.42.79-.44,1.89l1.17,1h.87v.15c.66.18.79-.26,1.31,0,.34.24.68.48,1,.73.12.2-.08.6.15.72l.73-.14.14.29h.29v.43h.15v.15h.72c.52-.9,2.7-.32,3.49-.15.08.69.46.71.73,1.17H562V16c.61.52.2.6,1.45.58.42-.36.72-.06,1,.14v.15h.58l.15.44h.14l.44.58h.29l.14.29.58.43v.29l.44.29c0,.14-.27.51-.15.88h.15l.29.87H568v-.29h.43c.15.71.26.54.73.87l.29.44c.19.07-.06-.11.15-.15l.58.15a3.71,3.71,0,0,0,.43.87,2.31,2.31,0,0,1,1.17.29l.72-.15v.15c.29.16.34.2.44.58h-.15v-.15h-.58v.3h.73l.14-.3c.45-.18,1,.1,1.31.15a5.15,5.15,0,0,0,.58.58l-.14.58H575c.26-.23.9,0,1.46,0,.09.18.23.2.29.29v.29l.43.29v1.46h.15l.14.58h.15v.29l.44.29v.29l.29.15c.2.33.14.76.29,1.16h.14v.58h.15v.29H579l-.72,3.2,1,.43h.44l.14.3.59.14c.16.56.28.32.58.73h.14v1.16h.15v.29h.14v.44h.15v.58l.29.14v.29h.14l-.14,1.17h.14V40h.15l.15,1.45h.14l.15.87h.14v.29H583v.58h.14v.3h.15l-.15.87c.16.08.24.26.29.29h.29v.14c.21,0-.06-.13.15-.14l.58.14v.29c.45.24.26.28,1,.29.21-.62.06-.76,1.31-.72v-.15a5.28,5.28,0,0,1,1.59.58l.15.44.29.15v.29l.29.14v.15h.73a1.44,1.44,0,0,1,1.16-.29v.14h.29v.15h.29v.14h.29l.15.44.29.14v.29l.43.29v.15h.44v.15h.29V48h.29l.15.29.87.15c.22.75.39.44,1,.72v.15l.58.14v.15h.29l.43.58h.88v.15l.58.14v.15l1.45.29.44.58h.29l.14.29h.29v.15l.58.14v.15h.44v.14l.87.15.15.29a1.92,1.92,0,0,0,1,.14c.16-.16,0-.06.29-.14l.29-.58h.29c.06-.08-.28-.33-.15-.59h.15c.2-.27.18-.33.58-.43.11-.44.09-.38.58-.44.43.46.64,0,1.16.29l.44.58h.29v.15l.58.15V52h.44v.15h.43v.14H610v.15h.43v.14h.3v.15H611v.14h.29l.14.29h.29v.15l.58.43.3.59c.26.19.67,0,1,.14v.15h.29v.14l1.17.15v.14l2.32.15v-.44H617v-.14h.14a2.63,2.63,0,0,1,2-1.17v.15c-.41.1-.33,0-.44.44l.44.14v-.14c.13-.16.09,0,.14-.3h-.14v-.14h.58v-.15h.58v-.14h.29v-.15a4.12,4.12,0,0,1,2.32.58l.29.44h.44c.39.24.78.48,1.16.73v.29l.29.14.44.58h.29l.15.3.58.14v.15l.87.72v.44h-.15v.14h.15c.14,1.08-.06,1.17.58,1.75v.14l.44.15v.58h.14v.44a7.92,7.92,0,0,0,.73,1.3h.58c.15.44.29.88.44,1.31l.29.15V64h.14l-.14.87.14,1.89.29.14v.3l.29.14v.15l1.75.29v.14c.51.4,0,.18.29.58l.29.15a1.85,1.85,0,0,0,1.45.87l.29.87h-.14a1.29,1.29,0,0,0-.29.73l.87.14v.15h1.89v.15l.72.14.3.44h.14l.15.72.43.29v.29l.29.15v.29l1,.87.15.44.43.14-.14.73h.43v-.14h.15V76h.72c.31.46.6.3,1,.58l.29.44H644l.29.87.29.15v.43h.14v.29h.15v.29l.29.15.15.72h.14v.3h.15v1.88h.14v.3h.15v.29H646V83h.15c.13.2.1.25.14.58a1.62,1.62,0,0,0-.58,1.6h.15l-.15.72h.15v.29H646l-.14.44-.29.15a2.48,2.48,0,0,1,.14.58c.29.25.12.34.29.58l.29.14.44.59c.17.11.61.11.73.29.48.74-.21,1.7.72,2.32.17.17,0,.06.29.15l.15,1.16.29.14v.44h.14v.29h.15l.15.73.29.14v.29l.72.59c.36.5.32,1,1,1.16v.14l.87-.29.15.29c.2,0-.06-.11.14-.14h.73l.14.72h.15v.15h.58v.15l.29.14v.29l1.31.87v.44c-.2.26.07,1.21,0,1.89l-.15.29h.15v.58h-.15l-.14.87c-.82.1-.47.36-.87.58h-.29c0,.82.19.54.43,1v.29h.15c.15.55-.66.78-.29,1.31.18.59.4.35.72.73h.15v.43h-.15c-.13.27.1.45.15.58l1.16.15.15.44a2.16,2.16,0,0,0,1,.43v-.29c.74-.06.79-.18,1.31.29l.15.29.72.15.3.43h.29v.15H662c.2-.38.26-.25.29-.87h-.15v-.15h.15a1.68,1.68,0,0,0-.15-1l-.58.15v-.15h-.14V107c-.35-.39.26-1.64.43-2l.44-.14v-.15a2.15,2.15,0,0,1,.87-.58v.15l1,.14v.15h.73v.14h1.16v.15h.29v.14h.44v.15h.43v.14l.44.15c.1.4,0,.32.43.43V106c.27.14.31-.25.73,0l.15.29h.29l.29.44,1.3.43.88,1.46.87.14v.15h.29l.29.43,1.31-.14v.14h.87c.09,0,0,.19.44.29a3.72,3.72,0,0,0,.29,1.17l.43-.15v.15l.87.14v-.29a2.83,2.83,0,0,1,1.75,0l.14.29.59.15v.14c.19,0,.72-.28,1.16-.14v.14h.43v.15h.3v.14l.58.15v.14H683l.14.29h.29l.15.29a4.77,4.77,0,0,0,1.45,1.17v.43c.36.21.41.46.87.58a1.22,1.22,0,0,0,.3.59h.14l.15.43.29.15V116h.14l.15.58h.14V117h.15v.29h.14v.29l.44.29-.15.87h-.14l.14.73a1.07,1.07,0,0,1,.29.29h.59v.14h1.16v.15h.29v.14h.73v.15l.43.29v.29l.87.73.44-.15v-.14h.29v-.15l1.16.15.15.43h.14v.58l.73.15c.09-.4.19-.33.29-.73h.29c-.13.31-.71,1.44-.58,1.89h.15V124h.14v.87l.87.59v1.16h.15l.14.58h.15V128h.14a.91.91,0,0,1-.14.73h-.15l.15,1.16-.29.15v.72h-.15a1.46,1.46,0,0,0-.14.73c.35.3.24.5.87.58.44-.49.67-.07,1.31-.29v-.15h.29v-.14h.58v-.15h.15v.15h.58l.14.58h-.14l-.15,1c-.46.12-.42.17-.43.72.5.44,0,1.21-.3,1.75-.69-.15-1.26-.18-1.45.58-.52.13-.5.42-.87.58H696v.15a1.2,1.2,0,0,1-.73.29l-.14.43c-.6,0-.73-.14-1.17,0l-.29,1.31h-.14v.29h-.15a5.42,5.42,0,0,0,.15,2.33h.14V143h.15c.09.26.06.38.14.58h.15v.15c1.71-.34,2.52.25,3.78.72l1.16.15.15.29h.29v.15l.29-.15a.37.37,0,0,0,.43.15v-.15l.44-.15v.15a1.57,1.57,0,0,1,.87,1.6c-.2.17-.22.26-.29.58a1.1,1.1,0,0,0-.58.29v.15l-.58.14L700,148h-.29v.15h-.29a1.69,1.69,0,0,0-.87,1.45h-.44c-.51,1.06-.72,2.21-2,2.47v.29h-.15l-.87,1-.44.14v.3l-1.3,1.16v.29h-.15v.29H693V156h-.15v.29h-.14l-.15.29h-.29L692,157l-.58.15v.14l-1.31.15-.15-.29c-.39-.16-.74.1-1,.14l-.88,1.46h-.29l-.14.29-.58.14v.15h-.44v.14h-.14v-.14l-2.33-.15c-.1-.17-.23-.2-.29-.29v-.29l-.29-.14V158l-.87-1c-.32-.15-.59.18-.73.15V157l-.58-.14-.29-.44h-.29l-.44-.58-1.74-.58-.15-.29h-.29l-.14-.29h-.29v-.15h-.44v-.14H677v-.15h-.29l-.44-.58-.87-.15-.58-.72h-.29l-.15-.29-.72-.15-.15-.43-.29-.15c-.13-.2-.1-.58-.29-.73h-.29l-.15-.29h-.58v-.14h-.43v-.15c-.57-.16-.82.28-1.46,0v-.14h-.29l-.14-.29h-.44v-.15h-.29v-.14h-.29l-.15-.29h-.29v-.15h-.29l-.29-.29h-.29l-.73-.87h-.29l-.14-.29h-.15l-.14-.58-1.16-1-1-.15v.15h-.73v-.15l-1.31-.29v.15h-.43l-.15.29h-.43v.14h-.29v.15h-.73v.14h-.15l-.14.88h-.15v.29l-.29.14v.29l-.29.15-.14.58-.29.14-.15.59h-.15l-.14.43-.29.15v.29l-.58.43a3.85,3.85,0,0,0-.44,1.46h.29a1,1,0,0,1-.29.72h-.14v.29h-.15v.3h-.14v.43h-.15v.44h-.15l-.14,1.45h-.15l-.14,1H655v.43h-.14c-.15.63-.29,1.26-.44,1.89h-.14v.29h-.15l-.14,1.75h-.15v.29l-.44.29v.29l-.43.29v.15h-.29l-.87,1.16h-.29l-.73.87h-.29l-.44.58h-.29l-1.74,2h-.44l-1.31,1.45-.58.15-.14.29-.44.14-.44.58h-.29L642,172.37v.29l-.29.14v.3l-.29.14a3.36,3.36,0,0,0-1,1.6h-.29l-.14.44h-.15v.29l-.43.29-.15.58h-.14l-.15,1.16a.23.23,0,0,1,.15.29l-.29.15v.29l-.44.29-.15.72-.29.15v.29h-.14c-.2.53.27,1.23.29,1.89h-.15c-.09-.19-.23-.2-.29-.29v-.29l-.29-.15v-.43h-.14v.29c-.59.41-.42.79-.29,1.45l-.44.29v.15H636v.14l-.29.15v.29l-.72.58-.15.58-.43.29-.15,1.46a.25.25,0,0,1,.15.29h-.15v.58h-.15v1H634v.59h-.15v.43l-.29.15v.29l-.43.14v.15l-.44.29v.29l-.43.29V191h-.15v.44h-.15v.72h-.14l-.15.59-.43.29v.43l-.44.29V194l-.29.15-.14.58h-.15l-.14,1.89h-.15l-.15.44.15,1.59h-.15c-.25.38-.35.29-.43.88.75.44.32.59.58,1.45a3.86,3.86,0,0,1,.29,1.31l-.87.72-.15.3-1,.14v.15a2.82,2.82,0,0,0-.73,1.45v.87l-1,.87v.29h-.14l-.29.44c-.54.37-.75,0-.88.87-.42.49.19,1.05,0,1.75H625l-.15,1.89h-.14l-.15.43-.72.58v.29l-.29.15-.59.73h-.29v.14l-.87.15v-.15l-.73-.14v.14h-.29l-.14.29-.58.15-.73.87H619v.14h-.29V216l-.87.29v.15H617v.14l-.44-.14v.14h-.73v.15h-.43v.14h-.44V217h-.44v.14h-.14V217a1.78,1.78,0,0,0-.73.14V217h-.43v-.15h-.73v-.14H612v-.15l-2.18.15v.14h-.14v-.14H609v-.15h-.73v-.14l-1.74-.15v-.15l-.58.3v.14h-.58v.15l-1.46-.15-.29.15v-.15l-.29.15-1.89-1.31v-.29l-.29-.15v-.14h-.43v-.15l-.44-.14-.14-.29-.88-.15v-.15l-.29-.14v-.29c-.14-.17-.56-.18-.72-.29l-1-1.16-1.45-.44-.29-.29h-.3L595,211l-.58-.15-.29-.43-.58-.15v-.14c-.46-.17-.7.2-1,.14v-.14H592V210h-.87v-.14h-.3v-.15l-.43-.15v-.29h-.15V209l-.43-.29v-.14h-.29l-.58-.73h-.15l-.15-.73-.43-.29v-.29l-.29-.14v-.58h-.15v-1h-.14v-.44h-.15v-.29h-.14v-.58h-.15v-.29H587a1.1,1.1,0,0,1-.29-.58l-.59-.15v1.31h.15v.58h.14a1.8,1.8,0,0,1-.14,1.6,1.93,1.93,0,0,1-.87,1.16H585v.15l-.58.14v.15h-.29l-.58.87-.73.15v.14h-.29v.15h-.73V209h-.58l-.29.44c-.4.18-.9-.1-1.16-.15-.15-.41-.08-.62-.44-.87v-.14l-1-.15-.15-.29a2.13,2.13,0,0,0-1.31-.14v.14l-.58.15v.14l-1.89-.29-.43-.73-2.18-.58-.15-.29-.87-.29-.15-.29-.72-.14v-.15h-.29v-.15l-.88-.14v-.15l-1.3.29-2.18-.72-.15-.29h-.29v-.15l-1.16-.14v-.15l-.88-.29v-.14l-.58-.15L561,201.73h-.73v.14h-.43c-.15-.41-.08-.63-.44-.87a2.18,2.18,0,0,0-1.6-.29v.14l-.58.15v.15h-.43v.14h-1a10.89,10.89,0,0,0-2-2h-.43v-.15H553V199l-.73-.15v-.15h-.44v-.14h-.29l-.14-.29h-.29v-.15l-1.46-.14-.14-.29c-.39-.27-.26.15-.44-.44-.45-.4-.49-1.28-.72-1.89-.18-.09-.22-.24-.29-.29h-.29v-.14h-.44v-.15h-.29v-.14h-.29l-.29-.44h-.15v-.29l-.29-.29h-.29l-.29-.44h-.29l-.29-.43-.44-.15L544,192l-.58-.15v-.14h-1.17v-.15l-.72-.14-.15-.29h-.29V191h-.29v-.14l-1-.15v-.14l-.73-.15-.14-.29-.58-.15v-.14c-.4-.35-.05,0-.29-.44h-.15v-.58h-.14l-1-1.16-.58-.15-.15-.29h-.29l-.72-.87-.88-.14-.14-.3h-.29v-.14l-1.17.14v-.14h-.29l-.14-.29-1.31-.44v-.14h-.29l-.29-.44h-.29l-.58-.73H529a4.18,4.18,0,0,0-1-.58,1.32,1.32,0,0,0-.29-.58h-.15l-.14-1.31c-.4-.1-.33,0-.44-.43a6.56,6.56,0,0,1-.87-3.64h.15l.14-1c-.19-.54-.39-1.07-.58-1.6l-.29-.15-.15-.58-.29-.14v-.29H525l-.15-.59h-.14v-.43h-.15v-.44h-.14l-.29-.87-.88-.14-.87.72-.14.29h-.29l-.15.29h-.29l-.15.29-.58.15v.14l-.87.15v.15h-.29v.14h-.44l-.14.29h-.29l-.44.58H518v.15h-.29v.14l-.87.29v.15h-.58V175h-1.17v.15h-.58V175l-1.6.15v.15l-.58.14v-.14a9.52,9.52,0,0,0-.87-.59l-1.45-.14v-.15h-.44v-.14l-1.16.14v-.14H507v-.15h-.3V174h-.58v-.15h-.72v-.14h-.29l-.29-.44h-.3l-.14-.29H504v-.15l-1.75.15v-.15h-.58v-.14l-.58-.15v-.14c-.39-.15-.71,0-1-.15l-.29-.43-.58-.15v-.14l-.29-.15v-.29h-.14v-.29l-.29-.15v-.29l-.88-.29-.14-.58-.29-.14V169h-.15v-.44c-.12-.18-.54-.17-.72-.29v-.15l-.44-.14-.15-.29-.87-.15-.14-.43-.29-.15v-.29l-.44-.29v-.15h-.29l-.58-.72-.73-.15-.29-.58c-.47-.33-1.36,0-2-.14-.2,0,.06-.15-.15-.15s-.41.31-.73.15l-.14-.44h-.15a1.77,1.77,0,0,0-1.59-.73c-.22.26-.4.28-.88.29l-.43-.72h-.29v-.15a1,1,0,0,0-.73-.29l-.29-1-.44-.29v-.14c-.5-.29-.64.21-.87-.58a2.66,2.66,0,0,1-1.31-.88l-.14-.29h-.44l-.29-.43-.43-.15v-.29c.35-.37.08-1.48,0-1.89l-.44-.14v-.15h-.44l-.14-.29c.13-.08.55-.46.43-.73h-.14l-.15-.58-.29-.14-.14-.58-.29-.15v-.44l-.58-.43v-.15h-.44v-.14h-.29v-.15h-.29l-.15-.29h-.72v-.14c-.52-.4-.05-.15-.29-.58l-.3-.15v-.29l-.29-.15-.14-.43h-.15l-.14-.44a2.7,2.7,0,0,0-1.31-.14s0,.14-.29.14l-.73-.14v.14a1.12,1.12,0,0,1-.87.29v.29h.29v.44c-.36.24-.32.54-.58.87a3.36,3.36,0,0,1-1.31.58v-.14c.23-.2.25-.32.29-.73h-.14c-.25.29-.34.12-.58.29l-.44.58h-.15v.29h-.14v.58l-.29.15v.15h-.29l-.15.29h-.29l-.14.29h-.15l-.14.72h-.15v.29l-.44.3-.14.72-.29.15v.29l-.44.29v1.16h-.14a2.86,2.86,0,0,0,.14,1.31c.12.44-.09.7-.14,1-.18.09-.22.24-.29.29l-1.17.43c-.19.39-.38.78-.58,1.17l-.43.14-.29.29v.29l-.44.29c-.16.29,0,.82-.29,1l-1.16.29V165l-.29.14v.44l-.59.29-.14.43h-.58a1,1,0,0,0-.73.88l-1,.29a2.28,2.28,0,0,0-.29,1.45h-.58a2.26,2.26,0,0,1-1.31,1,1.74,1.74,0,0,0-1.74-.44v.15l-.73.14-1.6-.14v.14l-.58.15V170l-1.16.15-.15.29-1.3.14v.15l-.58.15v.14h-.3l-.29.44h-1v.14h-.44v.15h-.87v.14h-1v.15h-.58v.14l-.58.15v.14l-1.16.15L442,173h-.73v-.15a.39.39,0,0,0-.43.15l-1-.15V173h-.73v.15h-.29v.14h-.87v.15h-1a3.88,3.88,0,0,1-1.6,0v-.15l-1.74-.14v.14H433v.15h-.29v.14h-.29l-.44.58a3,3,0,0,0-.43,1.46,2.28,2.28,0,0,0-1.46.29l-.29.43-.72.15a.26.26,0,0,0-.3-.15v.15h-.29l-.14.29-1.31.43c-.54.15-.88-.2-1.16-.29h-1.16V177c-.57.12-.75-.43-1.17-.15-.26.23-.12.29-.29.59h-.14v.29l-1.46,1.74h-.29v.15l-.58.14v.15h-.58v.14h-.44v.15h-.43v.14h-.44v.15h-.43v.14h-1v.15h-1.31v.14l-1.89-.29-.73.87v.73l-.43.15v.14h-.73l-.29.87-1,.29-.43.73h-1.75v.15l-.43-.15v-.14h-.58l-.15.43a19.77,19.77,0,0,1-3.63.29,4.8,4.8,0,0,1-1.31,1.31l-1,.15v.14l-.43.29v.29h-.15v.44l-1,.87-.14.44h-.29v.14h-.44a1.3,1.3,0,0,1-.58.87v.15c-.31.19-.75,0-1,.15l-.29.58-.87.14v.15h-.29v.14c-.29.05-.18-.07-.29-.14l-.44-.15v-.14h-.29v-.15h-.87a1.23,1.23,0,0,1-1.31.58v-.14h-.72v.14H392l-.43.58-.73.15v.14h-.29a3.75,3.75,0,0,0-1,.88l-.29.14v.58h-.14V194h-.15c-.19.23-.07.19-.43.29v.15c-.23.12-.89-.1-1-.15v-.14l-1.6.14v.15h-.29l-.29.44H385l-.29.29h-.29v.14h-.29l-.15.29h-.29v.15h-.44v.14h-.43v.15h-.15v-.15h-.29v-.14h-1.45v.14h-.29l-.44.58h-.43v.15h-.29v.15h-1v.14h-1.31v.15a6.91,6.91,0,0,1-2.32-.29v-.15l-1.17-.15v-.14l-2.9.44v.14h-.3v.15h-1.88v.14h-.3l-.14.29-1.6.29h-.87l-.29.44h-.29v.14h-.44v.15h-.43v.14h-.44v.15h-.44V199h-.58v.14h-.29l-.73.87-.87.29-.14.29-.73.15-.14.29a4.68,4.68,0,0,1-2.18.29l-.15.44-1.16.72-1.46.15a.23.23,0,0,0-.29-.15v.15l-.58.14c-.14.59-.46.51-.72.88v.29l-.3.14-.14.44h-.29v.14h-1v.15l-.87.14a4.43,4.43,0,0,1-.44-.87c-.29-.08-.12,0-.29-.14-.62.16-.42.48-1.16.58-.26-.47-.54-.58-.58-1.31h.14l-.14-.44-.58-.14v-.15h-.73l-.14-.29-3.06.15v-.15h-.58l-.14-.29h-.29v-.14h-1.31v-.15h-.73v-.14h-1v.14a5.68,5.68,0,0,1-1.59-.29c-.75-.19-1.07.47-1.46.44v-.15l-2.76-.29-.15.29h-.29v.15a5.7,5.7,0,0,1-2.76-.29v-.15h-3.19v-.14h-.3V201h-.58v-.15h-.29v-.14h-.43v-.15c-.25-.05-.26.14-.29.15H323.1v-.15l-.59-.14-.29-.44h-1l-.15-.29h-.29v-.14h-.29v-.15l-.87-.14v-.15l-2.47.29-.15.29-.58.15-.15.29h-1v.14h-.44v.15h-.29v.14h-.44v.15h-.14l-.15.44h-.14v.29l-.87.72h-.73V202h-.29v-.15a.87.87,0,0,0-1,.15h-.14v.43h-.15l-.14.44-3.06.29c-.08.15-.25.24-.29.29v.29h-.14a1.86,1.86,0,0,0,.29,1.45,5.55,5.55,0,0,0,2.61,2.18l-.14.44h-.15c-.16-.16,0-.06-.29-.14V208c-.33,0-.38,0-.58.14v.15h-.29v.14l-.43-.14v.14h-.3v.15h-2v.14l-1.89-.14v-.15l-.58-.14v.14h-.73c-.2.06.06.14-.14.15v-.15H302v.15l-1.16.14v.15h-.15v-.15l-2,.15v-.15l-.44.15v-.15h-1.16v-.14c-.3-.09-.45.19-.58.14l-.29-.43h-.73v-.15h-.43l-.15-.29h-.44v-.14h-.72v-.15h-.87v-.15l-.59.15a.4.4,0,0,0-.43-.15v.15l-.58.15v-.3l-.44.3v-.3c-1.2,0-2.27-.23-3.05-.14V207l-1.16-.15V207h-.73v-.15l-2.18-.14.14-.15-.14-.29c-.36.21-.22.37-.29.44h-.15v-.15l-.43.15v-.15h-1.31v.15h-.15v-.15c-.26-.06-.23.13-.29.15h-.72v.14h-.44V207h-.58l-.15.29h-.29l-.29.44h-.29v.14c-.18.14-.28.1-.43.29-.3-.08-.13,0-.29-.14s-.2-.1-.3-.44l-.43.15v-.15H276a.38.38,0,0,1-.44.15v-.15l-1-.15v.15h-.43v.15h-.29v.14H273V208l-.29-.15V208l-1.59.14V208h-.15c-.17.11.06.18-.15.14V208c-.37-.08-.43.14-.43.14h-1.16V208h-1.89v.14L267,208v.14l-1.75-.14v-.15L265,208v-.15h-.14V208h-.15v-.15a6.27,6.27,0,0,1-2.18.15v-.15h-1.31v-.14l-1.45-.15-.15-.29h-.29v-.15h-.72V207h-.29v-.15h-.88v-.14H257v-.15h-.58v-.14h-1v.14l-1.75-.14a.84.84,0,0,0-.29-.29c-.18-.39,0-.83-.29-1.17v.29c-.49.6.25,1.11-1,1.17v-.15h-.44v-.14h-.15v.43a10.61,10.61,0,0,0-2,.58c-.13.5-.3.38-.44.88h-.43l-.15-2-.43.15.14.43H248c-.17.25-.1.2-.44.29a3.14,3.14,0,0,0-.29-1.45c-.19-.07.05-.07-.15-.15h-.58v-.14h-.29v-.15l-1-.14v-.15h-.88v-.14h-.43l-.15-.29h-.43v-.15a.22.22,0,0,0-.29.15h-.15v-.15h-.44l-.14-.29-.58-.14v-.15l-.58-.14v-.15h-.44l-.29-.44h-.29l-.15-.29-.58-.14v-.15l-1.6.15v-.15h-.29V202l-1.31-.44-.14-.29c-.34-.15-.71.12-.87.15l-.15-.29-.58-.15-.29-.44-.58-.14v-.15h-.29l-.29-.43-.58-.15-.15-.29H232l-.29-.43h-.58l-.44-.73h-.58v-.15h-.29l-.15-.29-1-.14v-.15c-.37-.27-.43-.5-1-.58-.37.62-.93.34-1.6.58a3.09,3.09,0,0,0-.29.73l-.58.14v.15h-.87l-.15-.29h-.58v-.15h-.44l-.43-.58h-.15v-.29h-.14v-.29h-.15v-.29h-.14c-.29-.49-.42-.85-1-1a5.75,5.75,0,0,0-2.91-.43c-.18.05-1.06.33-1.45.14l-.44-.58h-1v-.14h-.15v.14H215v-.14h-.44v-.15l-.29-.15V194c-.17-.2-.47-.16-.73-.29v-.14l-1-.15v-.14h-1v-.15h-.29l-.29-.43h-.29v-.15l-5.09-.14v-.15l-1.45-.44V192l-3.64.14v.15l-.73.15-.43.58H199l-.15.29h-.29v.14l-.58.15v.14l-2,.58-.29.44-.59.15V195l-.58-.14V195h-1.16v.15l-1.6.14-1.6-.14v.14H189v.15h-.44v.14l-.58.15v.14h-2a2.54,2.54,0,0,1-1.89,1.75c-.42-.36-1.39,0-2-.15v-.14l-.43.14v-.14h-.29v-.15l-2-.14-.14.29h-1v.14h-.29v.15l-.73-.15-1.45.15v-.15h-.44v-.14c-1-.31-1.34.53-2.18.29v-.15h-.43v-.14l-2-.29-.43-.59h-.58v-.14l-.88-.29v-.15h-.29v-.14H168v-.15h-.29v-.14h-.43v-.15H167v-.14l-1.74.14v.15l-.58.14-.58-.14v.14h-.73v-.14h-.58v.14h-.44v.15l-1.16.14v.15h-.29v.14h-.44v.15H160v.14l-.87.15-.15.29h-.29v.15h-.29v.14l-.87.15-.15.29-1.16.14V198h-.58v.14l-.73-.14c-.29,0-.29.14-.29.14l-2.32-.14v-.15h-.44v-.14c-.19,0-.24.23-.58.14v-.14h-.87v.14a3,3,0,0,1-1.46-.29,5.88,5.88,0,0,0-3.19.58l-.15.29h-.58v.15a7.47,7.47,0,0,1-3.2.29v-.15h-.73v-.14h-.58v-.15H140v-.14h-.58v-.15H139V198l-1.16-.15v-.14h-.29l-.14-.29h-.29v-.15l-.88-.14-.14-.29-.58-.15-.15-.29-.87-.15-.15-.29-.58-.14-.14-.29h-.29v-.15l-.44-.14v-.29l-1-.73-.29-.44h-.43l-.15-.29h-.29l-.15-.29h-.29l-1-1.16h-.44v-.15h-.29v-.14h-.29l-.29-.44h-.29v-.14h-.87V191l-.59-.14v-.15h-.58v-.14H125v-.15h-.87l-1.16-.58v-.29h-.15l-.14-.29h-1.17v-.15h-.29l-.72-.87h-.29l-.73-.87v-.29l-.29-.15-.15-.43h-.14v-.29l-.29-.3v-.29h-.15v-.29h-.14V185l-.29-.14v-.29h-.15v-.29h-.14l-.15-.88-.73-.58v-.14h-.43l-.44-.58-1.74-.44v-.29c-.4-.09-.33-.19-.73-.29v-.29l-.73-.58-.14-.44h-.29l-.15-.29h-.14c-.29-.41-.12-.71-.58-1v-.14h-.59v-.15h-.29V178H110v-.15h-.29v-.14l-1-.15v-.14c-.38-.07-1.15.35-1.74.14v-.14l-.58-.15v-.15h-.58V177h-.29v-.15l-1.17.15a1.31,1.31,0,0,1,.15-.58h-.29c-.3-.31-.84-.3-1.45-.29v.14h-.15v.44a3.43,3.43,0,0,1,1.45.29c-.62.06-.65.3-1.16.44v.29l-.43.14V178h-.3v.14h-.58v.15h-.29l-.29.43h-.29l-1,1.17h-.29l-.14.29-1.16.14-.44.58h-.87l-.15.29h-.29v.15l-.73.14v.15c-.33.05-.64-.46-1.16-.29v.14h-.29v.15l-.73.15V182l-.87.29v.15h-.43v.14c-.2,0-.88-.3-1.31-.14v.14h-.29l-.15.29h-.29l-.87.73v.58c-.19.32-.64.28-1.16.29-.41.38-.88.09-1.46.29v.15H86.2l-.29.43h-.29l-.15.29-.73.15v.14h-.29V186a2.8,2.8,0,0,0-1.16-.15c-.15.07-.06.42-.58.3V186h-.44v-.15h-.72v-.14h-.29v-.15h-.73v-.14l-.87-.15c-.29.58-.57,1.16-1.31,1.31l-.15.44a3.15,3.15,0,0,0-1.16.29v.14l-2.61-.14v.14h-.3l-.14.29h-.73v.15a6.91,6.91,0,0,1-2.47.14v-.14l-.58-.15v-.14l-1.89-.29v-.15H68l-.14-.29h-.3l-.14-.29H65.56v-.14l-.73.14v-.14l-.58-.15v-.14c-.39-.11-.91.34-1.16.43h-.58v.15h-.29v.14l-1.17.15-.14.29h-.29v.14h-.15v-.14a2.55,2.55,0,0,0-1.6-.29v.14l-1.74-.14v.14l-2.18.15v-.15l-.87-.29v-.14h-.29l-.29-.44H51.9a19.09,19.09,0,0,0-3.49,0,3.59,3.59,0,0,0-.87-.73h-.29v-.14L47,185.3V185l-.73-.58v-.14h-.44v-.15c-.6-.2-1.23.05-1.74-.29l-1.16-1.31-1.6-.58v-.14H41l-.29-.44h-.29l-.15-.29-1.45-.29a1.34,1.34,0,0,0-.58-.87v-.15H37.07v-.14l-.72-.15v-.29c-.18-.14-.16-.33-.29-.44h-.29l-.29-.58H35v-.29c-.4-.23-.26-.36-.87-.43v.14h-1l-.29-.44h-.58V177H31.7v.14L31,177c-.32.08-.62.35-1,.44l-.14.43h-.15v.29h-.14c-.34.92.38,1.18-.58,1.75-.28.29-.11,0-.44.14v.15h-.29v.14h-.58v-.14h-.58a3.51,3.51,0,0,1-1.31-1.6l-.87.29-.3-.44H22.25v.15l-.73-.15v-.14h-.87v-.15h-.44V178h-.43l-.15-.29h-.29l-.14-.29h-.29v-.15h-.44v-.15H18V177h-.29v-.15h-.29l-.43-.58H15.85v-.14h-.72V176l-.87.15V176L13,175.86v-.15l-1-.14-.73-.88-.58-.14-.29-.44H10l-.14-.29H9.61v-.14H9.17l-.73-.88-.87-.14L7,171.93l-.44-.14-.14-.29-2.91.14-1.74-1.31-.29-.43H.89v-.15H.74v-2.32H.59V167H.45v-.87H.3l-.14-.58H0c-.1-.37.42-1,.44-1.31s-.31-.87-.15-1.31H.45v-.29l.29-.14v-.88H.89L1,161h.15v-.43h.14c.25-.77-.19-1.3.44-1.75v-.14h.58v-.15c.57-.23.68.1.87-.58.47-.44.34-1.87.73-2.47l.43-.29.15-.73.87-.72v-.3l.29-.29v-.29h.15v-.29l.29-.14v-.29h.14v-.29l.29-.15.29-.44.59-.14.14-.44h.15a2.21,2.21,0,0,0,.14-1c-.75-.66-.58-2.1-.29-3.2a.38.38,0,0,0,.15-.44H7.57v-.72H7.43v-2.77H7.28v-1h.15v-.29h.14c.17-.57-.54-1.14-.29-2h.15v-1h.14v-.29h.15a4.75,4.75,0,0,0-.15-2l-.44-.15v-.14H6.7c-.2-.14,0-.36-.15-.58l-.29-.15a2.33,2.33,0,0,1-.58-1.31H5.39L5.54,132l-.44-.15v-1.16c-.26-.14-.23-.2-.58-.29a5.72,5.72,0,0,0-.44-1.17H3.94c.09-1.21.19-2.42.29-3.63H4.08l-.14-.87-.29-.15-.15-.72c.17-.17.06,0,.15-.29.77-.22.6-.63.87-1.31h.14v-.44h.15v-.43l.44-.29.14-.59.29-.14a1.41,1.41,0,0,0,.29-.87c-.24-.24-.28-.68-.43-1H5.39v-.87H5.25v-.73H5.1V116c-.09-.31-.5-.9-.29-1.46H5a2.13,2.13,0,0,0,.44-1.59H5.25c0-.29.14-.29.14-.29v-.73H5.25c0-.29.14-.29.14-.29v-.73H5.25l.14-1.16H5.25v-.58H5.1c-.15-.51.12-1,.15-1.31V107s-.19-.06-.15-.29h.15v-.58h.14l.15-1.6.29-.15.14-.73.58-.43V103h.29v-.14l.44-.29v-.29h.15v-.44h.14v-1h.15v-.58h.14V99.7H8v-.44h.14l.15-.87h.14V98.1L8.73,98v-.29h.15v-.44H9c.25-.46.32-.73.88-.87l.14-.73h.15c.26-.3.28-.09.43-.58-.42-.28-.51-.83-.87-1.16l-1-.73v-.29l-.58-.44v-.29L7.86,92v-.29l-.58-.44L7,90H6.84v-.29H6.7l-.29-.87H6.26l-.14-1.16H6l-.14-.58H5.68v-.44l-.29-.14v-.3H5.25v-.29H5.1V85H5v-.29l-.29-.14v-.44H4.52l-.15-.58H4.23v-.73H4.08l-.14-.58H3.79v-.44H3.65c-.41-1.25.61-2.11.87-2.76l.14-1.45L5,77.46l.15-1.74H5l-.14-1.31H4.66v-.87H4.52v-.29L4.08,73v-.29H3.94V71.51H3.79c.1-1,.2-1.94.29-2.91h.15v-1H4.08l-.43-1.45L3.94,66v-.29h.14V65.4h.15V64.24H4.08l.15-.87h.14v-.73h.15v-.29L5,62.06v-.58l1-.87v-.44h.15v-.29h.14v-.29l.58-.44v-.43l.29-.15v-.29L7.57,58v-.73l1.16-.72L8.88,56l.43-.29v-.43h.15v-.29h.15v-1l.58-.44v-.29h.14V52.9h.15v-.58h.14v-.87h.15v-.29h.14l.15-1.6,1-.29L11.93,49a5.6,5.6,0,0,1,2.18-.87l.15-.44h.29c.23-.53.36-.6,1.16-.58v.14c.31.18.73-.13.87-.14l1.75.14.14.44h.15v1l.29.14-.15.44h.15c.37.49.24,0,.72.29l.15.29,1.45.29v.15a1.48,1.48,0,0,0,.73.14l.43-.73.73-.14.73-.87.58-.15.29-.43L25.3,48l.29-.44h.29l.29-.29h.29v-.14h.29v-.15h.3V46.8l.58-.15.14-.29,1.17-.29v-.14l.29-.15c.18-.34-.05-.73.14-1h.15l.14-.29h.44l.29-.43h.29v-.15c.27.08.79.52,1,.44v-.15c.59-.15.5-.46.87-.72h.29v-.15L33.3,43l.14-.29.87-.29.15-.29h.29V42H35v-.14h.44v-.15h.29v-.14h.29l.29-.44h.43V41l1.31-.14v-.15h.29v-.14l.44-.15a1.93,1.93,0,0,1,.43-.87h.15v-.29l.44-.29c.2-.32,0-.37,0-.58l.58-.44v-.14h.29l.14-.29h.29l.15-.29.43.14.15-.29h.29v-.14l.73.14.14-.29a8.1,8.1,0,0,1,1.17-.44v-.14c.24-.06.25.14.29.14h1.45c.1-.18.23-.19.29-.29v-.29l.44-.29v-.72l.29-.15a1.79,1.79,0,0,0,.43-.87l.44-.15a4.46,4.46,0,0,1,.14-1,16.15,16.15,0,0,0,2.62.29c.28-.46.45-.44.87-.73l.15-.29h.29l.14-.29h.44l.14-.29h.3V31.1l.72-.14.87-1,.88-.29.14-.29.87-.29.15-.29H57v-.15h.3v-.14l.87-.29v-.15l.72-.15.29-.43.88-.29.29-.44c.13,0,.27.25.58.15v-.15h.29V26.6h1.6v-.15l.29-.14V26l.29-.15c.51-.52.29-.43,1.31-.44v-.58c.48-.16.71,0,.87-.58.36.08.78.51,1.31.29l.14-.29h.29v.29c.82-.1.47-.35.88-.58l2.76-.44c.09-.39.19-.33.29-.72h.29v-.29a2.12,2.12,0,0,0,1.31-.44l.29-.43h.29v-.15h.29v-.15l.29.15v-.15c.25-.09.38-.06.58-.14v-.44l1.6-.14.44-.58.58-.15.43-.58c.52-.34,1.15-.09,1.75-.29v-.15h.43l.29-.43L83,18v-.14h.29l.29-.44h.29V17.3c.3-.09.59.34,1,.14L86.05,16l1.16-.15.3-.43h.43v-.15l.58-.15V15H89v-.15h.29v-.14h.29L90,14.1h.29V14l.58-.43.14-.29h.58v-.15H92v-.15a4.5,4.5,0,0,1,1.6,0V12.5h.14v-.15h.88a3.41,3.41,0,0,0,1.3.29,4.86,4.86,0,0,0,.59-1.16,16.16,16.16,0,0,1,1.89-.29l.14.44a10.2,10.2,0,0,0,2,.58v.29l1.3.87v.29l.29.29h.3l.14.29.73.15v.14a1.1,1.1,0,0,0,.58.29,7.48,7.48,0,0,0,.73,1.6H105a1.53,1.53,0,0,1,.14-.58,2.5,2.5,0,0,1-.87-.87v-.44h-.15l-.14-.29h-.29l-.15-.43c.77.19,1,.76,1.89.87l.15-.44c.49.12.62.37.72.87l.59.15v.15h.58v.14a1.09,1.09,0,0,0,.72.29v.29h-.29v.29h-.14l.14.44a4.4,4.4,0,0,0,1.31.58v.29c.46.19.88.33,1,.87.29.09.12,0,.29.15.35-.08.32-.15.58-.29v.14c.45.31.07.18.29.58l.29.15v.29h.15a.23.23,0,0,1-.15.29c0,.34.08.38.15.58h.14v-.72l.44.14c-.32.91.64,1.48.87,2.33-1,.56-.15,1.5.15,2l-.3.44h.15c.27.41.9.48,1.16.87l.15.73.87.58c.48.66.14,1.22,1.16,1.45v.44c.19.11.17.1.29.29a2.61,2.61,0,0,1,1-.15,1.2,1.2,0,0,1,1.31-.72.83.83,0,0,0,.58.29v.29a3.08,3.08,0,0,1,.87.58l2.18-.73.15.29h1.16v.15h.73v.14l1.45-.14v.14l.58.15.29.43h.29v.15c.6.2.58-.35,1-.29v.14c.41.1.71,0,1,.15l.14.29h.29v.15c.42.08.32-.25.44-.3l1.89-.14.58.87c.38.2.85,0,1.16.15l.44.58h1.31v.14l.87.15V32l.87.29v.15h.29l.15.29h.29v.15H139V33l.88.15a.41.41,0,0,1,.43-.15v.15h.44v.14h.14c.38-.19,1.07,0,1.46-.14l.29-.44h2.18l.14.44,1.46.43v-.14c-.17-.17-.06,0-.15-.29a1.07,1.07,0,0,1,.73.29v.14l.87.15v.14h.29V34h.44v.14l.87.29v.15c.17,0,.38-.28.73-.15v.15h.29l.72.87.73.15.44.58.58.14.14.44.44.29.14.44.44.14.14.58.59.44V39l1,.73.29,1,.29.15.15.58.44.29,1,1.16c-.08.3,0,.13-.14.29v.15h-.15v-.15h-.14v.59a1.09,1.09,0,0,1,.29.43H158a2.86,2.86,0,0,1,.29-1.16,1.56,1.56,0,0,0,.73-.15v-.14l.73.14.14.44c.34,0,.38-.12.58-.15v.15l.59.15v.14a1.63,1.63,0,0,0,.72.44,3.12,3.12,0,0,0,.29,1.16l.44-.15c-.12-.29-.27-.87,0-1.16v-.14h.43c.12.14.07.24.3.29l.58-.15V44l.58.14v.15h.87l.15.29h1.16l.87.72v.3l.87.72c.29-.08.13,0,.29-.14a.63.63,0,0,0,.29-.29,1.94,1.94,0,0,1-1-.73h.43c.35.39.42.08.87.29.12,0,0,.19.44.29v.58c1.72.06,2,1.12,3.63,1.31v-.15c-.16-.16-.05,0-.14-.29a2.6,2.6,0,0,0,1.16-.72h.29c.1,0,.18.49.73.29.1,0,.14-.47.73-.29v.14l.72.15.15-.29h.29v-.15h.87v-.14h.44v-.15h.43v-.14h.44l.43-.59h.44V45.2H181v-.15h.87v-.14h.29l.14-.29a4.15,4.15,0,0,1,2.18-.15l1,.73.15.29h.58c.65.22,1.13-.1,1.89.15v.14l1.45.29v.15H190v.14l1,.15v.14h.73v.15H192v.14h.29l.15.29c.39.19,1.21,0,1.31,0l.58.73h.72v.15a2.38,2.38,0,0,0,1.31.14.36.36,0,0,1,.44-.14v.14h.29l.29.44h.29v.14h.44V49h.43v.14h.58v.15h.73v.14h.29v.15l.87.14.15.3h.29v.14l1.45.15v-.15h.15l.43.58h.29l.15.29.58.15.58.73a4,4,0,0,0,1.46.43c.1.4,0,.33.43.44v.14l1.89.15.58.72h.73v.15h.44v.15h1v.14h.58v.15l.73-.15v.15h.73s0,.18.29.14v-.14l1.45-.15.58.87.73.15v.14H217l.15.29.72.15.73,1h.87V57h.29l1,1.16.87.3.29.43h.29l.15.29.58.44.14.58.44.29v.29l.29.15v.29l.73.87H225v.14h.29v.15l.88.14.29.44h.29l.14.29c.34.24.26-.15.44.44.44.1.32.23.43.29h.59v.14h.43v.15a1.36,1.36,0,0,0,.73.14l.29-2.47a4.51,4.51,0,0,1,2.32-1l.3.43h.14v.29h.15v.29h.14v.44H233c.25.46-.11.09.29.44v.14h.29v.15h.29v.14h.43v.15h.44v.14h.44l.14.29.87.29.44.58h.29l.15.3h.14v.29h.15v.29l.43.14.44.58h.29l.58.88h.44l1.16,1c.23.36,0,.84.15,1.31H241v.29l.29.15.15.58.43.29v.29l.73.58v.15H243v.14c.3.16.35,0,.58.29.29-.08.12,0,.29-.14H244v-.44a.58.58,0,0,1-.29-.29h.15c1-1.06,1.53.32,2.76-.15v-.14h.29l.29-.44h.29v-.14h.29l.29-.29h.29l.73-.87.44-.3v-.87l.14-.14a2,2,0,0,1,1-.29l.29.58.29.14v.29l.29.15v.29l.29.15.15.58h.14v.29h.15c.17.59-.54.89-.29,1.6h.14l.15.58L253,73l-.14.43H253v.15h.73v-.15l.73-.14.14-.29.44-.15v-.14h.43v-.15c.31-.24.38-.19.44-.72a4.33,4.33,0,0,1,2-.15l-.14.44H258v.14h1l.29.44h.29l.15.29c.31.27.55.28,1.16.29V73l.44-.15.58-.72.73-.15.29-.43h.29l.72-.88.73-.14v-.15l.44-.14c.09-.47.48-.89.29-1.6h-.15V67.15c.14-.5.33-1.22.44-1.75a4.28,4.28,0,0,1,1.16-.29l.15.44a9.89,9.89,0,0,1,1,.43h.58v-.14c.19,0,.26.27.59.14l.14-.29h.29v-.14l1.31.14c.21-.34.44-.24.58-.43l.15-.73.29-.15v-.72h.14v-.29l.44-.29.14-.59.44-.29v-.29l.44-.14.58-.73h.29l.14-.29h.15l.14-.44H275v-.43l.29-.15v-.14h.29l.15-.29h.72v-.15h.73V59l.58-.15v-.14h1.31a10.53,10.53,0,0,1,3.2-.44l.14.44h-.14v.14h.29v-.14c.38-.13.44.37.58.43h.72l.15-.43h-1.16v-.15h.29a1.13,1.13,0,0,1,1.16-.44.38.38,0,0,0,.44.15v-.15H285l.43-.58,2-.14a1.53,1.53,0,0,1,.29-.29c-.18-.21-.4-.23-.58-.44.26-.23.13-.28.29-.58h.14v-.29h.15v-.44l1.16-.72V54.5h.73v-.14H290l.14-.29.88-.3v-.14l1.3.14.29-.72H293V52.9h.29l.15-.29.58-.14v-.15l.43-.29v-.14h-.14l.14-.88a9.45,9.45,0,0,1,.59-.87c.22-.16.33,0,.58-.29.64.12.86.44,1.45.58a2.14,2.14,0,0,1,1.16-.87c.83-.26,1.88.45,2.33.14a2.5,2.5,0,0,0,1-.72l.14-.29.58-.15V48.4a1.34,1.34,0,0,1,1-.44c.25.23,1,.16,1.45.15l.15-.59.87-.29v-.14h.58l.44-.58c.16-.12.62-.12.72-.29v-.29c.66-.17.85-.68,1.31-.88l1.6-.14v.14l.44.15v-.15a3.65,3.65,0,0,1,1.16-.29l-.15-.43h.15c.22-.4.38-.44,1-.44l.14.29,1.31.15V44h.73l.14-.29h1.75V43.6l.58-.14.72-.88.44-.14v-.29a3.69,3.69,0,0,1,2-.29V42h.58v.15h.29l.14.29a1.76,1.76,0,0,0,1.17.43v-.58a1.77,1.77,0,0,1,1.3-.43c0,.47-.13.42-.29.72.51.06.88.35,1.17.15h.14l-.14-.73.43-.29.15-.73h1.6v.15H328v.15c.28.06.19-.09.29-.15l.58.15v.14h.58v.15h.29v.14l1.16.15V42l.44.29v.29c.49.56,1-.38,1,1.17a2.15,2.15,0,0,1,.29,1.3,8.67,8.67,0,0,0,2,.29l.15-.43h.29l-.29.87h.43v-.29h.15v.44h.29l.14.43.88.29v-.14c.34-.09.27,0,.43-.29h.15v-.44h.14a.92.92,0,0,0-.14-.73h-.15v-.29h-.14c-.14-.5.23-.44.29-.58v-1.6l1,.15v.14h.14v-.14l.87.29.15.44h.14l.15.72,1,.87v.29H341v.44h.15c.21.63-.15,1,.29,1.45.29.34.34.1.72.29l.15.3h.87c.17-.17,0-.06.29-.15l.29-.44h.15v-.29H344v-.87h.15v-.14H344a1.83,1.83,0,0,1,.29-1.46v-.14l.73-.15.29-.43h.44V43.6l.87-.73v-.43a1,1,0,0,1,.44-.73v-.14h.29l.14-.29.58-.15V41c.53-.23.83.05,1.17-.43.3-.33.1-.72.29-1.16h.14V39.1l.58-.44.15-1.31.29-.14v-.44h.14c.19-.59-.21-1.12-.29-1.45s.24-.65,0-1.31c-.19.06-.24.21-.58.14V34h-.58v.14h-.87V34h-.44v-.15l-1.3.15-.3-.44-2.18.44a1.07,1.07,0,0,1-.87.87,2.05,2.05,0,0,1-1.6.44v-.15h-.43l-.15-.29a2.5,2.5,0,0,0-1.16-.58V34h-.29c-.11.4,0,.32-.44.43-.43.5-.69.28-1.45.44V35c-.19,0-.24-.24-.58-.15V35h-.44v.14a.36.36,0,0,1-.43-.14l-1.6.14c-.15-.43-.29-.87-.44-1.31h-.29v-.14h-.73l-.43-.58h-.44V33c-.56-.23-.62.06-1-.43h-.14V32a1.52,1.52,0,0,0-1.16-1,3.78,3.78,0,0,1,0-1.89v-.58h.14V28.2h.15v-.88l.58-.29v-.87h-.15a1.75,1.75,0,0,1,.15-1,2.18,2.18,0,0,0,1.31-.29v-.14h.72l.15-.15a1.32,1.32,0,0,0,.14-.72h-.14v-.15h.14v-.44h.15v-.43c.19-.27.54,0,.87-.15l.15-.29,1.74-.29.15,1.16a9.43,9.43,0,0,1,.72.73h1.6v.15h.44l.29.43.73-.14v.14l1,.15v-.15a1.84,1.84,0,0,1,1-.14v.14H343v.15h.43v.14h1.31s0,.15.29.15l.15-.15V25h.43v.14c.58.18.88-.2,1.17,0a1.41,1.41,0,0,1,1,1.31l.44.15.29,1.45.29.15c.27.37-.16.27.44.43v.15h.87v-.15c.3,0,.29.15.29.15h.87l.15.29,1.3-.29v.14l1.75.29.14-.29h.29v-.14h1.75v-.15H357v-.14h.29l.14-.29h.3v-.15l1,.29v.15a13.73,13.73,0,0,0,1.46-.44V27.9s-.5.09-.29-.14H360c.09-.18.24-.21.29-.29l.15-.58,1-.58v-.15h.73V26h.44v.43l1-.14a1.13,1.13,0,0,1,1-.88V25H365l-.14.43H365c.31.57.69.61,1.6.59.26-.45.71-.64,1-1h1.16v.29c.67.07.73.42,1.31.58l-.15-.58h-.72l-.15-.58a3,3,0,0,1,1.16.14v-.29h.44V25h.15v-.15h.43v-.14h.15v-.44h.14v.29h.44v-.14h.14v-.15a.58.58,0,0,1-.29-.29,2.31,2.31,0,0,1,1.31-.29v-.15c.24-.14,1.46.36,1.6.44v-.14l.44-.3V23.4l.72-.15v-.14l.58-.15v-.14h.73v-.15h.44v-.14h1v-.15h.29l.15-.29h.29V22l.58-.15v-.14l1.6-.15s0,.29.15.15v-.3h.14v-.58c.2-.33.75-.3,1.31-.29.16-.16,0-.06.29-.14v.29h.29v.14h.15v-.14h1.45v-.15h.44v-.14h1a4.56,4.56,0,0,1,2.18-.29v.14h.29v.15h.58v.14h.73l.15.15-.15-.44a8.81,8.81,0,0,0,3.34-.72l2.47-.15v-.15h.3l.29-.43h.29l.14-.29h1l.14-.29h.3V18a.35.35,0,0,1,.43.15l1.31-.15v-.14H401v-.15h.43v-.14H402v-.15h.73V17.3H403v-.15h.58V17l1.31-.14v-.15h.29v-.14h.29l.15-.29h.29v-.15h.29V16h.58v-.15h.29V15.7l1.6.14V15.7H409l.44-.59h.43V15h.29l.15-.29,1-.15.15-.72.29-.15c.27-.4.17-.59.73-.73.59-.66,1,.06,1.74-.14v-.15h.58c.19.31.5.3.58.44v.58h.15c.41.51.16,0,.58.29l.29.44a3.54,3.54,0,0,0,2.47.29v-.29c.66-.12.77-.43,1.31-.58v-.29l.44-.29v-.3l.29-.29c.28-.21.14.15.43-.29.07,0,.55.13.58.15v.14l.44.29.15.44h.29v.15H424v.14h.29l.29.44h.73v.14l1,.15v-.15h.44V14.1h.15v.14h.58V14.1l.87-.29a1.1,1.1,0,0,1,.87-.88,3.94,3.94,0,0,1,2.62-.29v.15l1.45-.15,1.16.15.15-.29H435l.59-.73H436l.29-.43.44-.15.14-.73H437v-.29h.14V9.74h.15V9.16l.29-.15c.27-.41.18-.58.73-.73a2.39,2.39,0,0,1,1.45-.14c.11,0,.06.33.29.29V8.28L441,8c.09-.29,0-.12.15-.29V7.56h.43l.15-.29h.44V7.12h.29l.14-.29h.29l.15-.29h.72V6.39h1.6l.15-.29c.08,0,.53.26.87.15a9.16,9.16,0,0,1,1-.44l.29-.87.73-.14v.14h.43v.15H450V4.94l.88.15V4.94h.29l.43-.58h.58l.15-.29c.64-.39,1.19-.19,1.31-1.16l.72-.15.15-.29,1-.14V2.18h.29V2h1.31V1.89h.43l.15-.29h.58V1.45h.43V1.31h.44V1.16h.58V1H460l.15-.29L461,.44V.29h1V.15L463.2,0A2.38,2.38,0,0,0,464.22.58Zm64.24,4.51v.14c-.35-.09-.28,0-.44-.29Zm-15.26.29h.14v.14h-.14v.15h-.15l-.15-.44C513.19,5.32,513,5.21,513.2,5.38Zm-48,3.92v.29h-.14V9.3Zm-365.81,3v.15H99v-.29Zm.58.73h-.14v-.15H100v.15h.44v.15l.44.29v.29C100.27,13.74,100.19,13.53,100,13.08ZM424.1,14c-.29-.09-.12,0-.29-.14C424.1,13.89,423.94,13.79,424.1,14ZM101.89,15h-.14v-.15l-.29-.14v-.29l.43.14Zm455.34-.44v.15h-.29V15l-.43.14a1.31,1.31,0,0,1-.15-.58Zm-450.54,2c.29.09.12,0,.29.14h-.14v.15h-.3c-.13-.06-.08-.42-.43-.29v.14c-.63,0-.49-.09-.87-.29V16A4.84,4.84,0,0,1,106.69,16.57Zm-19.62-.15v.15h-.44v-.29Zm1.45.29V17c-.24,0-.29-.14-.29-.14-.16,0-.28.3-.58.14v-.14c-.24-.17-.2-.09-.29-.44Zm-.58.88v.29H87.8l-.29-.58ZM108,18c-.09.29,0,.13-.15.29v.15h-.14l-.29-.87Zm459.55,1.31v.29h-.14v-.14h-.15v-.15ZM383,21.51h.15v.15l-.44.14v-.44C383,21.45,382.81,21.34,383,21.51Zm78,.73c-.29-.09-.13,0-.29-.15C461,22.18,460.85,22.07,461,22.24Zm107.69,0v.14h-.43v-.29Zm-189.08.29v.29h-.43v-.29Zm191,.43v.29a1.66,1.66,0,0,1-.72-.14v-.29ZM71.52,23.4v-.15c-.17-.12,0,0-.15-.14l.44-.15.14.44Zm499.81.29v.15c-.34-.1-.27-.05-.44-.3Zm-499.67.44a2.18,2.18,0,0,1-.72-.44A.87.87,0,0,1,71.66,24.13Zm388.2,0s-.05,0-.29-.29C459.6,23.87,460,24,459.86,24.13ZM73,24.42v.43h-.14l-.15-.43Zm267,.43v.29h.3c-.09.29,0,.13-.15.29s0,.07-.29.15v-.15h-.15v-.58Zm27,.44a4.41,4.41,0,0,1-1.31,0V25l1.16-.15Zm195.91-.44v.29h-.29v-.29Zm-9.45.58h-.14l-.15-.43h.29Zm-210.59-.14v.29l-.43-.15-.15.44-.58.15c-.17-.17,0-.07-.29-.15a2.71,2.71,0,0,0,.29-.73Zm-2.18.73v-.15h-.14v-.44a1.65,1.65,0,0,0,.72.15v.29A1.35,1.35,0,0,0,340.68,26Zm22.38,0v.29h-.14v-.15h-.15V26Zm59.15,0v.43h-.14V26Zm144.61.58a1.1,1.1,0,0,1-.43-.58A1,1,0,0,1,566.82,26.6Zm-146.49-.44v.29H420v-.29Zm-80.67,1.31h-.14v-.15H340v.29C339.66,27.53,339.83,27.63,339.66,27.47Zm-235.44.14v.59h-.15v.14h-.14v-.73Zm236.46,1.31v-.14c-.35-.09-.32-.16-.58-.29a1.33,1.33,0,0,1,.29-.73,5.76,5.76,0,0,0,1.16-.15v.15h.15v.58c-.42.11-.48.16-.58.58Zm-236,.15v.14l-.73-.14c.12-.17,0,0,.14-.15.36-.51.33,0,.73-.29v-.14H105l.14.58Zm-1.46.87v.29l-1,.15v-.59A4.08,4.08,0,0,0,103.2,29.94Zm247.22.29v.44h-.15a2.71,2.71,0,0,1-.29-.73Zm-249,.73c-.09.35-.16.32-.29.58H101a1.86,1.86,0,0,1,.15-.73ZM134,32v.29h-.43V32Zm212.63.59v.14c-.47,0-.32.22-.58-.14Zm-212,.58h-.14V33h.44v.29C134.59,33.19,134.76,33.3,134.59,33.14ZM148,35l-.15.72-1.45-1.16.14-.87Zm1.3.72v.44l-.43-.15-.15-.58C149,35.55,149,35.62,149.27,35.75Zm355.2,0h.15v.15h.15V36h-.3Zm-394.58.44v.29h-.29v-.29Zm-1,.14v.15c-.47,0-.32.22-.58-.15Zm1.31.59v.29h-.29v-.29ZM461,38.37h-.15v-.15h-.14v-.14H461Zm-312,.14c.25.3.36.13.58.29l.15.3h.14v.29H150v.29a9.12,9.12,0,0,0,2.47,1.16l.15.58h-.44V42h.15c.1.41.26.42.43.73h.29s-.22-.36-.14-.58h.14V42c1.17.13,1.28,1.1,2,1.6v.29l-1-.14-.29-.44h-.44L153.2,43a2.33,2.33,0,0,0-1.31,0c-.1-.18-.23-.2-.29-.29v-.29c-.26-.37-.57-.25-.73-.87h-.14l.14-.73h-.14v-.29a4.56,4.56,0,0,1-1.17-.58v-.44h-.14v-.14l-.58.14a1.35,1.35,0,0,1-.15.58h-.14c0,.21.13.25.14.58l-.87-.72h-.29v-.15h.73c-.17-.7-.5-.58-.59-1.31Zm-8,.29h.14v.3L140.7,39v-.29C141,38.75,140.82,38.64,141,38.8Zm8.14.44h-.29V38.8H149V39C149.15,39.12,149,39,149.13,39.24Zm-7.12,0c.07.32.09.41.29.58v.44c-.17-.13,0,0-.15-.15a1.13,1.13,0,0,1-.43-.87Zm4.36.58-.73-.14v-.29A1.2,1.2,0,0,1,146.37,39.82ZM353.18,40l.44-.15v.44l-.44.14ZM146.8,41c-.08-.29,0-.12-.14-.29v-.14l.43.14a1.09,1.09,0,0,0-.29-.43V40l.44.14a7.8,7.8,0,0,0,.29,1A1.9,1.9,0,0,1,146.8,41Zm7,1.75V43c-.17-.12,0,0-.15-.15s0,0-.14-.14Zm3.49,2.32-.58-.29v.29c-.29-.08-.13,0-.3-.14-.19-.53-.38-1.07-.58-1.6C156.72,43.41,157,44.33,157.27,45.05ZM123.4,43.6h.15l-.15.29h.15v.29c-.15.11-.14.18-.29.29a2.79,2.79,0,0,1-.15-1C123.4,43.54,123.24,43.44,123.4,43.6Zm215.25-.14h.14a2.36,2.36,0,0,1,.29.72h-.14v-.29h-.29Zm-210,.58c.12.16,0,0,.14.14-.11.43-.23.36-.29.87h-.15v-.72s-.1,0-.14-.29Zm-8.29.29v.43h-.14v-.43Zm35,.14v-.14l.43.29v.14h-.29C155.44,44.47,155.54,44.64,155.38,44.47Zm183.7.15c.09-.29,0-.13.15-.29.13.33.18.79.43,1-.11.4,0,.34-.43.44C339.12,45.36,338.74,45,339.08,44.62Zm-188.93.29c.08.29,0,.12.14.29v.14H150a.63.63,0,0,0-.29-.29v-.29Zm.87,0v.29h-.15v-.29Zm4.79,0H156a1.53,1.53,0,0,1,.14.58h-.29Zm1.89,1a2.25,2.25,0,0,1,.15-.88l.43-.14c.15.43.29.87.44,1.31-.35-.09-.32-.16-.58-.29v.29h-.29C157.76,45.93,157.87,46.09,157.7,45.93ZM114,45.34v.3h-.29v-.3Zm-17.3.44h-.14v-.14c-.17-.13,0,0-.15-.15h.29Zm60.75-.29v.44H157v-.44Zm-54.64.29h.14c.13.16,0,0,.15.15v.14h-.29Zm21.07.15H124l-.14.29H124v.14h.44v.58h-.14v.15h-.44a3.8,3.8,0,0,0-.29-1.31C123.84,45.87,123.67,45.76,123.84,45.93Zm32.41-.15v.29h-.15v-.29Zm-27.47.29h-.14v-.14h.43v.72h-.29Zm211.32,0v.58H340a1.83,1.83,0,0,1-.14-.72Zm-219,.15c.16-.17,0-.07.29-.15.16.42.07.62.43.87a3.1,3.1,0,0,1-.43,1.17,1.53,1.53,0,0,1-.58.14A7.86,7.86,0,0,1,121.08,46.22Zm34.44,0,.15.29H156v.14c.31.09.41-.08.58-.14l.15.43h.14v.29H157c.27.34.6.54.72,1a2,2,0,0,1,.29,1.16c-.42-.11-.43-.23-.58-.58h-.14l.14.58h-.14v.44h.14V50c.47-.38.23.25.58.14v-.29h.15V50h.14v.43h.15c-.09.29,0,.13-.15.29v.15l-.58-.15V51c-.56-.07-.4-.18-.87-.29.11.49.34.67.44,1.17h.43V52h.15v.44h-.29v-.15l-1.31-1.16v-.29a2.64,2.64,0,0,0-.87-1.17v-.29c.59.14.81.47,1.45.59v-.3H157l-.15-.58h-.14v-.43h-.15v-.44L156,48l-.15-.44-1.16-.87v-.29Zm-32.41.58h.15c-.11.39,0,.33-.44.43l-.14-.87C123.07,46.47,123,46.4,123.11,46.8Zm41.71-.44v.29h-.14v-.29Zm-53.48.44v.29h-.29V46.8ZM110.18,48v.15c-.14,0-.31-.3-.58-.15v.15h-.15l.15-.73-.15-.15h.15l.14-.29h.44v.29h.58v.44A1.44,1.44,0,0,0,110.18,48Zm8.28-.58s0,0-.29-.29C118.21,47.12,118.57,47.24,118.46,47.38Zm41.28-.29.14.87H160v.29c-.17-.12,0,0-.15-.14l-.43-.15v-.87Zm-57.85,2.32c-.12.17,0,0-.14.15,0-.27-.15-.29-.15-.29V48l-.29-.14v-.15H101v-.15h.15v-.14a8.8,8.8,0,0,0,1,.58C102.2,48.58,102.2,49.12,101.89,49.41Zm231.67-2v.14h.14v.15c-.43-.05-.39,0-.58-.29Zm-236.9.29.29.15v-.15h.15c-.17.24-.09.2-.44.29Zm1.16.29h-.14v-.14c-.16-.13,0,0-.15-.15h.29Zm58.87-.14c.16.16.05,0,.14.29h-.14Zm-56.54,1.59H100l-.29-.72h.15a1.33,1.33,0,0,1,.29-.73C100.35,48.21,100.18,49,100.15,49.41Zm322.79-1.3c.13.06-.28.28-.29.29l.15-.29ZM109.6,49.7h-.15a.63.63,0,0,0-.29-.29v-.29l.44-.14v-.15h.29c.1-.07.11-.3.29-.43,0-.06,0-.26.14-.15v.29h.15c-.12.44-.27.5-.73.58ZM124.71,49v.29l-.73-.15v-.29Zm204.34,0h.15v-.15c.47.06.42.13.73.29v.29l-.44.15v-.15h-.29Zm-174.4.43a1.21,1.21,0,0,1-.44-.29h-.14V49h.44Zm-56.53-.29-.15.44.15.14h-.44V50h.58a2.64,2.64,0,0,0-.29.72c-.46.13-.43.17-.44.73l-.72-.58v-.29c.69-.16.72-.73,0-.88v-.43A6,6,0,0,0,98.12,49.12Zm211.6,0v.29h-.29v-.29Zm-201.14,2-.29.87h.14v.15c-.16.12,0,0-.14.14a3.19,3.19,0,0,1-1.16-.14,1.77,1.77,0,0,1,.43-1l.29-.15v-.29l.29-.14v-.29h.15V50l.29-.15c.27-.38-.16-.27.44-.44v.29l.29.15c.1.41-.25.33-.29.44V51Zm11.19-1.6v.58c-.29-.09-.13,0-.29-.14h-.15l.15-.44Zm3.2.87V49.7h.14a1,1,0,0,0,.73.88v.29l-.73-.15C123,50.43,123.13,50.6,123,50.43Zm32.12-.14-.29-.15c-.13-.16,0,0-.15-.14v-.15l.44.15Zm-51.6.58s0,0-.29-.29C103.24,50.61,103.6,50.73,103.49,50.87Zm15.7,0c-.09.29,0,.12-.15.29v.14h-.29l.15-.43Zm298.08.43c-.29-.08-.12,0-.29-.14C417.27,51.25,417.11,51.14,417.27,51.3Zm-311.6.15c.13.16,0,0,.15.14-.13.17,0,0-.15.15v.15h-.14c-.16-.38-.23,0-.44,0v-.15H105l.14-.29Zm90.84.44v-.15c-.17-.12,0,0-.15-.15a1.88,1.88,0,0,1,.73-.14v.44Zm-79.36,3c.15-.73.29-1.46.44-2.18h.15v-.29h.14v-.58H118v-.3h.14l-.14.88.29.14v.87H118l-.15.44h-.14v.44h-.15v.43h.15v.15h.43v.43C117.51,55.34,117.55,55.17,117.15,54.94Zm2.47-3.2c.13.16,0,0,.15.15v.58h-.15c-.16.16,0,.06-.29.14a2.78,2.78,0,0,1-.29-.72Zm36.63.29v.29h-.15l-.14-.43ZM104.8,52H105l.14.87a.81.81,0,0,0-.29.58h-.29s0-.56-.15-.29v.15h-.43l.58-.73h.29Zm51.74.29a1.37,1.37,0,0,1,.58-.14c.07.64.39.81.87,1a1.31,1.31,0,0,0,.15-.58h.29c.08.7.28.57.73.87.1.07.09.2.29.29v.3h-.88l.15.29h-.29c-.15-.54-.47-.49-.73-.88h-.43C157.13,52.88,156.8,52.76,156.54,52.32Zm40.55.15v.43c-.6.16-.16.13-.44.44l-.29-.15v.15h-.43v-.15c-.17-.16-.07,0-.15-.29.12,0,.58-.31.87-.14v.14h.15v-.43Zm-91.56,1.3c-.13-.16,0,0-.15-.14,0-.66.21-.62.44-1h.58c-.08.6-.3.51-.44,1Zm495.3-.72v.14l-.43.29-.15-.43ZM119,54.21h.15c.19-.48-.09-.53.29-.87v-.15h.14l.15,1.17c-.19.15-.22.29-.44.43v.15l-.43-.15Zm1.75-.87h.14c.13-.17,0,0,.15-.15l.29.88h-.15v.29h-.29C120.9,54.19,120.65,53.58,120.79,53.34Zm-20.49,0v.58H100v-.58Zm57.84,0c.16.16.06,0,.14.29h-.14Zm-24.42,1h.15l.14.43h-.29Zm-32.41.58h-.14c-.13.16,0,0-.15.14l-.14-.43.43-.15Zm2.47-.29v.29h-.43v-.29Zm54.94.29c-.09.29,0,.12-.15.29v.14h-.14v-.14l-.29-.15v-.43C158.49,54.74,158.46,54.8,158.72,54.94Zm37.93-.29a1.51,1.51,0,0,0,.15.58l-.44-.29v-.29Zm-76.59.43c-.09.29,0,.13-.14.29v.15h-.15v-.58Zm-15.26.15c.09.27-.08.2-.14.29v.14h-.15l.15-.43Zm275.85.43v-.14l-.29-.15v-.14a1.36,1.36,0,0,0,1.45.14c-.14.26-.21.23-.29.58h-.29v.3l-.87-.15v-.44Zm-171.21,0c.14.25-.14.44-.14.44-.08.34.16.39.14.58h-.14c-.13.16,0,0-.15.15-.12-.17,0,0-.14-.15a2.92,2.92,0,0,1,.29-1ZM395.91,56a2.61,2.61,0,0,1,.29-.29v.15h.14a3,3,0,0,1-.43.44l.14.43c0,.06-.21.12-.29.29h-.14v.15h-.15v-.73c-.35.09-.32.15-.58.29,0,.48,0,.66.29.87v.15c-.43-.11-.36-.24-.87-.29v-.73h-.15v-.14l-.87.72a1,1,0,0,0-.43-.43v-.44c.29,0,.26-.14.29-.14l.14.14h1v.15h.44c-.1-.19-.24-.21-.29-.29a2.43,2.43,0,0,0,.14-.59C395.12,55.71,395.58,56.08,395.91,56Zm2.32-.29c.06.47.14.43.29.73a1.12,1.12,0,0,0-.58.44h-.14c-.17-.25.06-.42-.29-.73V56l.29.15v-.44Zm.73,0v.15h-.14V56h-.15l-.15-.29Zm-296.48.88v.14h-.3l-.29-.73C102.17,56.12,102.24,56.34,102.48,56.54Zm4.36-.44H107a1.82,1.82,0,0,1,.15.73h.14v-.44h.15l-.15.87A.58.58,0,0,1,107,57h-.14a2.71,2.71,0,0,0,.29.73c-.26-.14-.23-.21-.59-.29C106.6,56.64,106.79,56.86,106.84,56.1Zm292.27,0v.29H399V56.1Zm-238.5,1.31v-.15l-.15.15c-.74,0-.72-.33-1.16-.58v-.44h.15c.23-.25.76.25,1,.44V57h.59v.15h.14v.58A1.57,1.57,0,0,1,160.61,57.41Zm232-.15h-.15l.15.29-.44.15v.14c-.58-.2-1-.7-1.6-.87a1.53,1.53,0,0,0-.14.58l-.59-.43a1.66,1.66,0,0,1,.15-.58c.29-.09.13,0,.29-.15a4.6,4.6,0,0,1,1,.15v.29c.34.09.27,0,.43.29.53-.06.62-.12.73-.58h.29A1.66,1.66,0,0,1,392.57,57.26Zm-234.29-.43V57c-.49,0-.54-.1-.72-.43A2.78,2.78,0,0,1,158.28,56.83Zm279.78-.15V57h-.15v-.29Zm-295.47.87h-.15c-.16.17,0,.07-.29.15v-.15H142c.09-.35.15-.32.29-.58h.29Zm60.75-.14c-.17-.13,0,0-.15-.15h.15c.12-.16,0,0,.14-.14l.15.43C203.34,57.47,203.5,57.57,203.34,57.41Zm175,2.18v-.44c.07-.13.68-.14.29-.29l-.14-.43.29-.15.14.15c0-.71.14-1.17.73-1.31v.43h-.14a1,1,0,0,0,.43.29c.22.15.53-.12.87-.29a1.35,1.35,0,0,1,.15.58c.29-.08.12,0,.29-.14a1.53,1.53,0,0,1,.58.14s.06.5-.14.3v-.15h-.15v.29l-.29-.14v-.15l-.73.15v-.3l-.43-.14v.14l-.87.15v.29h-.15l.44,1.31.58.43c-.09.29,0,.13-.15.3s0,.06-.29.14a1.53,1.53,0,0,1-.14-.58c-.4-.11-.34,0-.44-.44A1.75,1.75,0,0,1,378.32,59.59ZM105,58.13V58l-.44-.15v-.58h.15v.44h.14v.14h.58v.29Zm-6.11.44c-.64,0-.79,0-1-.44-.16-.16-.06,0-.14-.29a1.09,1.09,0,0,0,.29-.43h1l.14,1C98.84,58.51,99,58.4,98.84,58.57Zm104.06-1v.29c-.16-.12,0,0-.14-.14,0,0-.57,0-.29-.15h.14v-.14Zm1.46.29h-.15V57.7c-.16-.13,0,0-.14-.15h.29Zm190,.29v.15c-.25.12-.36-.08-.44-.15Zm-297.07.3v.29H97.1v-.29Zm100.43.14v.58h-.15c-.13-.44-.14-.13,0-.58Zm-95.34.15v.14l-.73.15v-.29Zm178.47.58v-.15h-.14V59l.43-.15.15.44Zm-83-.15H198c.13-.16,0,0,.15-.14v.29C197.82,59.21,198,59.32,197.82,59.15ZM382,59v.14h-.15v.73h-.14v-.15h-.15l.29-.72Zm7.26,0v.29h-.29V59Zm-197.94.58h.14c.13-.17,0,0,.15-.15v.29C191.28,59.65,191.44,59.75,191.28,59.59Zm184.86-.15h.29a4,4,0,0,0-.14,1h-.44C375.87,59.7,375.9,59.89,376.14,59.44Zm2,.58c-.09.29,0,.13-.15.29v.15h-.14V60ZM361,60.17l-.15.29h.29v.29h-.29l-.14-.58Zm-261,.58c-.08.29,0,.13-.14.29s0,0-.15.15l-.14-.58Zm247.8,0H348v-.14h.43V61h-.14v.15h-.44Zm-246.49.44v.14l-.72-.14V60.9A2.78,2.78,0,0,1,101.31,61.19ZM196.22,61v.15c-.26.12-.37-.09-.44-.15Zm193.29.44c0-.07.27,0,.29-.29-.13-.16-.11.05-.14-.15h.44v.44a.66.66,0,0,0-.44.58,2.79,2.79,0,0,0-1.16-.15l-.15-.43h.15v-.15l.29.15v-.15h.29l.14.44h.29ZM184.3,61.33h.14c.13-.16,0,0,.15-.14v.29C184.3,61.39,184.46,61.5,184.3,61.33Zm3.2.58h.14v.44h.15v.14c-.36-.08-.32-.15-.58-.29v-1C187.54,61.48,187.32,61.5,187.5,61.91Zm170.62-.43.44-.15v-.14l.58.14v.15h.43v.14l.44-.14.15.58-.88.14v.29l-.58-.14c-.08-.29,0-.13-.14-.29v-.15h-.44Zm.44-.15h.29l-.15.58h-.14Zm-3.93.29c-.14.53-.43.53-.72.87h-.29l.14-.72ZM341.7,63.08h.14c0-.21-.12.06-.14-.15a.74.74,0,0,1,.29-.73v-.14c.35.09.32.15.58.29-.05.88-.24.51-.58,1h-.29Zm24.71-1,.29.14c.2,0,0,0,.14-.14a2.09,2.09,0,0,1,.73.14,5.23,5.23,0,0,0,.14,1l-1.3-.43Zm-23.55.43H343V62.2h.14v.44S342.59,62.63,342.86,62.49Zm-154.64,0v.44h-.14l-.15-.44Zm157.26.3v.14h-.15v.15h-.14v-.44Zm11.19.87h-.15a2.71,2.71,0,0,0-.29-.73,1.13,1.13,0,0,0,.44-.29c.19.15.21.3.43.44v.29h-.43Zm-16.42-.87v1h-.15v.29s-.35-.25-.58-.14l-.29.43-.73.15v.14c-.43,0-.4,0-.58-.29h-.15v-.14h.15c.09-.35.15-.32.29-.58h.29v-.29l.73.14C339.36,63,339.64,62.82,340.25,62.79Zm13.37.43c-.09.35-.16.32-.29.58h-.15c.09-.35.15-.32.29-.58Zm2.32.87-.14.15h.14c-.06.47-.13.42-.29.73a1.9,1.9,0,0,1-.73-.15,2.2,2.2,0,0,1,.15-.87l-.15-.15h.44l-.15-.29h.15v-.14l.44.14Zm33.28,1V65h-.14c-.38-.69.54-.86-.29-1.46v-.14c.32,0,.39,0,.58.14v.15h.14c.18.11,0,0,.15.14h.14c.05.07-.21.32-.14.58h.14c.07.26-.13.25-.14.29l.14.44ZM366,63.66h.29l.15.14c0,.16-.15.29-.15.29a.8.8,0,0,0,.29.44V65h-.14l-.15-.73a1.53,1.53,0,0,1-.58.14C365.74,63.91,365.81,64,366,63.66Zm1,.43v.29h-.15L366.7,64Zm-14,0c-.08.29,0,.13-.14.29v.15h-.15v-.44Zm14.54.15v.43h-.15v-.43Zm-15.41.14h.15v.44h-.15c-.06.12-.26.33-.14.58h.14v.44H352c-.14-.51-.38-.55-.44-1.17C352,64.62,352,64.66,352.16,64.38Zm44.33.15v.58h-.58l-.15-.73A1.82,1.82,0,0,1,396.49,64.53ZM194,64.53V65h-.15v-.44Zm150.13.29c.08,0,.16-.49.58-.29v.14H345a1.14,1.14,0,0,1-.43.59l-.15.43c.17.2.12-.13.29.15l-1.31.29.44-1.31Zm42.29,0v.58c-.56.07-.4.18-.87.29V66l-.44-.14v-.15h-.43v-.14h-.29a1.59,1.59,0,0,0,.14-.58l.58.14v-.29Zm10.9.44h-.14v-.15l.43.15.15-.15v.15h.14l-.29.43h-.29Zm-129.64,0a2.19,2.19,0,0,1,.73.29v.14h-.29v-.14h-.44ZM193,66h.14s0-.51.15-.29v.15c.26-.16.19-.1.29-.44h.15l-.15.44.58.43v.44h.15v.44h-.15v-.3a1.53,1.53,0,0,1-.58-.14l-.14.44h.29v.14l-.88.15Zm200.71-.14h.14c-.08.29,0,.12-.14.29v.14h-.29v-.14h.29Zm-108.57.43v.44c.09.18.07,0,.15.14-.27-.18-.25-.14-.29-.58Zm-93.88.29c.16-.12,0,0,.14-.14h.15l-.15.73h-.29A1.4,1.4,0,0,1,191.28,66.56ZM592,66.42h.14v.14h.15v.15H592Zm-251,.73c.51-.15.92.09,1.31-.59.49.06.47,0,.58.44h-.29v.44c.29.08.13,0,.29.14l-.58-.14v.14H342v.15l-1.31.14A3.18,3.18,0,0,1,341,67.15ZM201.45,67a1.21,1.21,0,0,0,.44-.29c.43.05.39,0,.58.29h.14v.15h-.14l-.15.43-.87-.14Zm150.28,0h.14c-.28.44-.41.14-.58.73H351v-.44h.44v-.44C351.73,66.94,351.56,66.83,351.73,67Zm-41.28.73h-.87v-.15l.44-.14v-.15h.29l.14-.29h.15v.15h.87V67c.2,0,0,0,.14.15h.15V67h.14v.15h.88V67h.14v.15h.15V67a.23.23,0,0,1,.29.15l.58-.15.14.29c.31.1.42-.09.59-.14.12.43.64.65.58,1l-.15.15.44.14v-.29h.14v.29c-.18.12-.08.2-.29.29V68.6h-.14V69c.29.09.12,0,.29.15h.14l-.14.29-.87.15.14.87h-.29l-.14-.87h.29c.08-.29,0-.13.14-.29V69c-.14.17-1.14,0-1.6.15-.18-.45,0-.58-.58-.73V68C312.14,67.91,310.79,67.42,310.45,67.73Zm-109.87-.44h.14c.13.16,0,0,.15.15v.14h-.29Zm-6,.44v.43h-.15l-.14-.72C194.48,67.55,194.47,67.61,194.62,67.73Zm149.11-.15c-.29-.09-.12,0-.29-.14C343.73,67.52,343.57,67.42,343.73,67.58Zm-122.81.29h-.14v-.14c-.17-.13,0,0-.15-.15h.29ZM201,67.73v.14h-.14V68h-.15l-.14-.29Zm139.24,0c-.09.29,0,.12-.15.29v.29H340v-.58Zm-138.95.14c.13.06-.28.29-.29.29l.15-.29Zm430.34.44h-.14v-.15h.43v.29C631.64,68.37,631.81,68.47,631.64,68.31Zm-423.8,0a1.83,1.83,0,0,0-.14.72h-.15c-.08-.5-.14-.27,0-.72Zm130.81,0v.29h-.58v-.29Zm-147.08.58v-.44c.44.27.11.23.29.44l.29-.15v.15h.14l-.14.44h.43l.15-.3.58.15.15.44-.15.14.58-.14a1.91,1.91,0,0,1-.58.43v.15c.27.09.21-.09.29-.15h.15v.44H193l-.15.43-.29.15-.43-.73h.29v.29c.29-.08.12,0,.29-.14h.14a1,1,0,0,1-.14-.58l-.44-.15v.29h-.14l-.15-.87h-.29C191.62,68.89,191.73,69.05,191.57,68.89Zm10,.73h-.14v-.88h-.15v-.29h.15v.29h.29Zm5.53-1.17v.44c-.11.17-.15-.15-.15-.15h-.14l.14-.29Zm128.62.15a1.53,1.53,0,0,0,.58.14v.15h.15V69l-.73.15Zm296.34.29v.29h-.15l-.14-.44Zm-241.55,0v.44h-.14v-.44Zm242.13,0h.15V69H633v.15h-.29ZM120.79,69h.14c.13.17,0,0,.15.15v.15h-.29Zm69.18.15.29-.15v.3h.29c.07.55.18.4.29.87h.44l.14.43h-.58l.14.73h.3v.29h-.44v.58l.87-.14v.43h.15v.15l.58-.15v-.14h.87v-.15c.23,0,.25.28.29.29H194v.58c-.17.13,0,0-.15.15h-.29c.14.58.4.6.44,1.31h-.29c.15.06.05.44.14.58H194v.14l.43-.14-.14.43.14.15h-.14c-.09.29,0,.13-.15.29-.1-.4-.19-.33-.29-.73l-.58-.14V75l-.58.15v.14h-.44v-.43c-.2-.07-.24-.2-.58-.15a.25.25,0,0,1-.29.15V74.7h-.29v-.29h-.29c-.2-.2.25-.14.29-.14v-.15H191l.15-.43-.44-.15c-.13.44-.14.13,0,.58-.44,0-.29-.29-.43.15h-.15c0-.29.15-.29.15-.29V73.1h.14v-.29c0-.06.21-.12.29-.29l-.29-.14c-.12-.17,0,0-.14-.15a1.52,1.52,0,0,1-.29.29V73h-.15v.29h-.14v.29l-.29.15c-.1.27.07.34.14.43v.44h-.14v-.15c-.17.12,0,0-.15.15h-.14v.14h.14v.15a1.18,1.18,0,0,1-.44-1h.3v-.14h-.44V73h.14v-.29H189l-.15-.87-.29-.15v-.87h.15v-.15h.14v.58h.44c.07.32.09.42.29.59s0,0,.15.14c.12-.16,0,0,.14-.14,0-.5,0-.47-.43-.59A4.86,4.86,0,0,1,190,69.18Zm120.77.15v.14c-.08,0-.6.09-.43-.14h.14v-.15Zm115.69.14h-.15v-.14h.44v.29C426.43,69.53,426.59,69.64,426.43,69.47Zm-88.51.15h.15v.14h-.15v.15h-.15l-.14-.44C337.92,69.56,337.75,69.45,337.92,69.62Zm-21.51,0v.14h.15c-.09.29,0,.13-.15.29v.15l-.44-.15v-.43Zm23.11,0c.29.27,0,.15.14.43l.29.15v.72c-.3,0-.14,0-.29-.14h-.14v.14c-.51,0-.71-.28-.87-.58h-.15V70.2c.26.14.23.2.58.29C339.12,69.7,339.19,70,339.52,69.62Zm87.78,0h.15l-.15.43H427v-.29C427.3,69.67,427.14,69.78,427.3,69.62Zm205.36.14a1,1,0,0,1,.44.44l-.44-.15Zm-436.44.44h-.15v-.15h-.43v-.14C196.07,70,196,69.92,196.22,70.2Zm119,.29v.29H315v-.29Zm-1,.14v.29h-.15v-.29Zm320,.29s0,0-.29-.29C634,70.67,634.37,70.78,634.26,70.92Zm-432.67.15v.29h-.14l-.15-.44Zm-2.9.14c-.29-.08-.13,0-.29-.14C198.69,71.16,198.52,71.05,198.69,71.21Zm125.57.15v.44h-.15v-.44Zm311.16.29c.29.09.13,0,.29.15h-.14v.14c-.26-.14-.23-.21-.58-.29v-.29C635.33,71.45,635.26,71.4,635.42,71.65Zm-298.81-.14c.17.29-.17.42-.14.58h.14v.14h-.14c-.09.29,0,.13-.15.29v.15h-.14a3.94,3.94,0,0,0,.29-1.16Zm-139.52.14h.29v.29l.29-.14v-.15h.15L198,73h.29l-.14.43h.14v.3h.15v.72c.16.13,0,0,.14.15h.58v.29c-.53-.13-.39,0-.87.29v-.29H198l.29-.44-.43-.29a.22.22,0,0,1,.14-.29l-.14-.87h-.15l.15-.29h-.3C197.49,72,197.32,72.05,197.09,71.65Zm4.36.15c-.11.43-.24.35-.29.87l-.87-.15v.29c-.29.09-.13,0-.29.15h-.59v-.15h.29v-.29c.3.09.13,0,.3.15a.85.85,0,0,0,.29-.58c.35.09.32.15.58.29a1.71,1.71,0,0,0,.14-.73Zm111.76.14V71.8c.19-.09.05.07.15.14s.19-.14.29-.29c.36.29.06.36.73.44-.14.26-.21.22-.3.58h-.29V73a4.76,4.76,0,0,0-1.45-.44v-.43Zm12.07-.29a4.56,4.56,0,0,1,.14,1l-.44-.15-.14-.87Zm-9,.73v.43h.15v.29l-.29-.14v.14l-.44.15a1,1,0,0,0-.43-.29,2.83,2.83,0,0,1,0-1.16A7.27,7.27,0,0,1,316.26,72.38Zm25-.44a2.22,2.22,0,0,1-.14.87l-.29.15v-.15h-.15a2.05,2.05,0,0,1,.29-1Zm-95,.58-.87-.14v-.15a2.64,2.64,0,0,1,1-.14Zm.58,0h-.14v-.14c-.17-.13,0,0-.15-.15h.29Zm73.69-.14h.14v-.15h.15a1.9,1.9,0,0,0,.73.73v.29a1.26,1.26,0,0,1,.72.29v.15c.53.2.43-.41.88-.3l.14.3.29-.15c.17,0,.4.29.73.15l.14-.3c.31-.19.22.07.44-.29.63,0,.49.09.87.29v.15h-.87c-.06.2-.21.25-.15.58h.15v.73h-.15c-.16.17,0,.13-.29,0V74.7h-.29l-.43-.72c-.5-.28-.64.18-1-.15h-.15c-.3.44.26.36-.43.58v.15h-.15v-.15c-.44,0-.59,0-.72-.29v-.43l-1-.3v.3c-.29-.09-.13,0-.29-.15h-.15V73.1s.57,0,.29-.14h-.14v-.15a1.81,1.81,0,0,1,.72.15l.15-.44C320.48,72.44,320.64,72.54,320.48,72.38Zm-9,.14c-.29-.08-.13,0-.29-.14C311.47,72.46,311.3,72.36,311.47,72.52Zm22.23.15v-.15h.15v.58l-.73.15v-.58ZM202,72.67c.12.16,0,0,.15.14v.29a1.59,1.59,0,0,0-.59-.14v-.29Zm-9.74.29c-.09.35,0,.27-.29.43s0,0-.14.15V73.1H192C192.17,72.94,192,73.05,192.29,73Zm8.29,0c.11.43.23.36.29.87l-1-.14-.15-.44C200.14,73.14,200.06,73,200.58,73Zm139.81.14a2,2,0,0,1-.14.73h-.44A2.25,2.25,0,0,0,340,73Zm-145,0h.15c.12.17,0,0,.15.15v.14h-.3Zm115,0h.43c-.08.64-.22.39-.29,1a1.53,1.53,0,0,0-.58-.14C310,73.37,310.08,73.5,310.31,73.1Zm9.59.15h.29v.14H320v.15C319.88,73.37,320,73.54,319.9,73.25Zm11,0a4,4,0,0,1,.15,1h-.58V74h-.15v.58h-.14l-.15-.44h.15v-.43c.19.11.17.1.29.29h.14v-.73Zm-11.77.14v.3H319v-.3Zm131.53.15v.29h-.14v-.29Zm-232.54.29c.56,0,.61,0,.73.44.16.12,0,0,.14.14l-.87.29v-.14H218c0,.53,0,.78-.29,1-.09.29,0,.13-.15.3-.13-.5-.31-.38-.43-.88.16-.16.06,0,.14-.29h.29v-.29h.29V74C218.16,73.89,218,74,218.16,73.83Zm95,.15v.29l-.43-.15C312.94,73.69,312.75,74,313.21,74Zm26.45-.15c-.07.61-.2.47-.43.87h-.15v-.29a1.82,1.82,0,0,0,.44-.58Zm-126.87.29c.11.19.09.17.29.29v.44h-.15V75h-.14v-.14l-.44-.15v-.58Zm238.49.29v.29h-.14v-.29Zm-210.74.15h.15c.14.26.21.22.29.58.16.16.06,0,.15.29l-.73.87h-.29a2.14,2.14,0,0,1,.14-.73c-.29-.08-.12,0-.29-.14h-.14c-.3.53.32.72-.29,1.16.12.19.1.18.29.29V77c.23.2.12-.27.14-.29h.15V77c.16.12,0,0,.14.14H240v.44a2.56,2.56,0,0,1-1-.15v-.58h.43c0-.85-.15-.88-.72-1.16v-.44c.43-.11.35-.23.87-.29v.29l.87-.14Zm-14.24.14h.15l.14.58h-.29Zm-26.74.44c-.09.29,0,.12-.15.29v.14c-.27.1-.2-.08-.29-.14H199l.14-.44Zm9.3-.15H209l.14.44h-.29Zm-13.37.88a.8.8,0,0,1-.58-.3c-.16-.16-.06,0-.15-.29.17-.12,0,0,.15-.14h.29c.17.12-.15.14-.15.14l.15.44C195.49,75.81,195.32,75.7,195.49,75.87Zm-5.81-.44c-.29-.09-.13,0-.29-.15C189.68,75.37,189.51,75.26,189.68,75.43Zm80.8.58h-.14c-.09-.27.08-.21.14-.29v-.15l.44.3V76c.37.17.76-.1,1-.14v.29C271.53,76.23,270.83,76.34,270.48,76Zm45.78-.14h.15v.43h-.15l-.29-.58C316.26,75.81,316.1,75.7,316.26,75.87ZM216,77.61h.15v-.29l.29-.15v-.43h.14a1.59,1.59,0,0,0-.14-.73h.14c.13-.16,0,0,.15-.14a.87.87,0,0,0,.44.72c-.09.66-.26.42-.3,1.16h-.29v.59h-.43Zm110.75-.29c0-.74,0-1,.43-1.31v-.14c.36.08.32.15.59.29a2.37,2.37,0,0,1-.29,1.45h-.59C326.79,77.32,326.89,77.48,326.73,77.32ZM95.35,76v.29h-.29V76Zm112.35.15c.09.27-.09.2-.15.29v.14h-.14l.14-.43Zm-119.18.29v.43h-.14v-.43Zm111.77.43h-.15v-.14c-.16-.13,0,0-.14-.15h.29ZM87.21,76.74h.15c.12.16,0,0,.15.14,0,.38.08.39-.15.58v-.14h-.15v.14c-.19.07,0-.06-.14-.14l-.29.14v-.29l.43-.14Zm10.18.14.14.73-.43-.15L97,76.88Zm121.5.29c.12.17,0,0,.14.15v.58l-.72-.44v-.29Zm1.74,0v.15c-.25.12-.36-.08-.43-.15Zm-15.4.29c.12.19.1.18.29.29v.44h-.15V77.9h-.72v-.44Zm34.15.29v.3h-.29v-.3Zm51.89,0a1,1,0,0,0,.43.44c-.21.7-.14.15-.58.44l-.29.43h-.14a3.36,3.36,0,0,0-.15-.58h.15l.14-.73Zm12.64.15c.09.27-.08.21-.14.29v.15h-.15v-.15h-.14c-.21-.23.26-.12.29-.14V77.9Zm-86.62.15v.29h-.14v-.29ZM98.7,78.19l.14.44H98.7v.29h-.29l-.15-.73Zm140.39,1H239v.29h-.15v-.73C238.87,78.84,239.13,79.07,239.09,79.21Zm-25.29-.29v.14c-.25.13-.36-.08-.43-.14Zm-15.4.29h.14c.17-.16,0-.06.29-.15a2.13,2.13,0,0,0,.44.73c-.05.31,0,.28-.15.44v-.15H199v.15a4.15,4.15,0,0,0-.58-.15Zm7.41,0v.14H206l-.14.29H206v.29c-.42-.1-.48-.15-.58-.58Zm7.12.43.15-.29c.16-.12,0,0,.14-.14h.15v.43Zm3.92,0c.17.13,0,0,.15.15a1,1,0,0,0-.44.44h-.29l.15-1C216.81,79.32,216.75,79.24,216.85,79.64Zm116.27-.43v.29h-.29v-.29Zm-120.63.14c-.08.36-.15.32-.29.58h-.14c.09-.35.15-.31.29-.58Zm-8.42.29c.08.64.21.39.29,1h-.44a4.6,4.6,0,0,0-.15-1Zm11.77.73h-.15v-.58h-.14v-.15H216l.15.44h-.29Zm-.73-.29H215c-.13.16,0,0-.15.15v-.3C215.11,80,215,79.91,215.11,80.08Zm59.3-.15v.15h-.15c-.09.29,0,.13-.14.29l-.15-.44Zm-61.33.3c-.17.12,0,0-.15.14,0,0-.56,0-.29-.14h.15v-.15C213.08,80.17,212.91,80.06,213.08,80.23Zm118.15,0v-.15h.15l-.15.73c-.29-.09-.12,0-.29-.15h-.14v-.43Zm-39.24,1v.15c-.28.15-.75-.08-.87-.15V81.1h-.43V81l-.88.29V81.1h-.29V81h-.29v-.14l-.43.14v-.14c.51-.25,1.45-.83,2.18-.44l.29.44c.36.26.28-.16.43.43Zm-79.93-.87V81h.14c-.08.29,0,.13-.14.29v.15h-.44C211.6,80.75,211.54,80.51,212.06,80.37Zm87.93,1v-.15h-.15c0-.22.4-.35.44-.43v-.44l.58.44v.43Zm-92.87-.73v-.14h.43a2.51,2.51,0,0,1-1,.43v-.43A4.46,4.46,0,0,1,207.12,80.66Zm86.76.15H294c0,.81-.24.69-.73,1l-.14.29h-.44v.15a1.72,1.72,0,0,1-.73.29v.29h-.43V82.7l.43-.15c.12-.53.37-.63.58-1h.3L293,81C293.49,81,293.55,81.19,293.88,80.81Zm-96.36.72v-.14h-.14v-.15c.63,0,.49.09.87.29v.15H198v-.29Zm18.61-.14c-.29-.09-.13,0-.29-.15C216.13,81.33,216,81.22,216.13,81.39Zm95.48-.15V82h-.14c-.1-.4-.2-.33-.29-.73Zm15.85,1.17c.21-.29-.09-.77-.59-.88v-.14l1.75.29v-.15a1.57,1.57,0,0,1,.58-.29,1.08,1.08,0,0,0,.44.58c-.05.44,0,.4-.3.59v.14c-.5-.26-.74-.57-1.16-.14h-.58l.15.29h-.29Zm313.19-1v.14h.15a1.82,1.82,0,0,1-.15.73c-.29.09-.12,0-.29.15h-.14c-.1-.51-.19-.53,0-1Zm-341.1.29v.43h-.14v.15h-.15v-.73ZM260,83v.29h.14a4.39,4.39,0,0,0-.14.58c-.47-.13-.59-.39-1-.58v-.73C259.49,82.66,259.56,82.88,260,83Zm43-.15c.09.29,0,.13.14.29v.15c-.34-.1-.27,0-.43-.29,0,0-.57,0-.29-.15h.14V82.7Zm4.21,0v.29H307v-.29Zm-8,.58h-.15V83h.15a7.38,7.38,0,0,1,.58,1.16h-.58Zm-102.75-.29.14.29c.28.06.18-.37.58-.29l.15.29c.28.06.19-.43.58-.29v.15a3.19,3.19,0,0,1,1.16.14v.44c-.11.2-.76.23-1,.58H198v.15a1.94,1.94,0,0,0,1.74-.73h.15l-.15.73h-.14v.14h.14c0,.21-.12-.06-.14.15a3.71,3.71,0,0,1,.14.58H199s0,.19-.29.14v-.14c-.48-.15-.75-.12-1-.44h-.15v-.43c-1.07,0-.72-.34-1.3-.73v-.29h-.15l-.14,1c-.29-.09-.13,0-.29-.15h-.15V84h-.44c-.08-.29,0-.12-.14-.29v-.14l.73.29a2.71,2.71,0,0,0,.29-.73Zm94.32,0v.29h-.14v-.29Zm35.17,0v.58h-.14v.15h-.15a1.71,1.71,0,0,1-.14-.73ZM90,83.71s0,0-.29-.29C89.72,83.46,90.08,83.57,90,83.71Zm216.69,1.6.15-1.6H307c.14.36,0,1.06.15,1.46s.45.35.58.87c1,0,.52-.18.87-.73.06-.09.2-.1.29-.29H309v.44l.29.14v.88l-.58-.15v.15H308s0-.2-.29-.15v.15H307A4,4,0,0,0,306.67,85.31ZM90.12,83.86v.29H90v-.29Zm169.46.58h-.14c-.13.16,0,0-.15.15v-.3C259.58,84.38,259.42,84.27,259.58,84.44Zm44.48,0a5.36,5.36,0,0,1,.29,1c-.29.09-.13,0-.29.14a2.3,2.3,0,0,1-.73-1.31A1.9,1.9,0,0,1,304.06,84.44Zm-103.19.44c.34-.35.5-.18,1-.15.08.29,0,.13.14.29v.29l-.87-.43-.15.29h-.29C200.81,84.88,200.7,85,200.87,84.88Zm8.28.14h.15v.87h-.15l.15.44a1.31,1.31,0,0,0-.58.15.6.6,0,0,0-.29-.3l.43-1.3C209.15,85,209,84.86,209.15,85Zm-26.3.15v.14H183v.44h.15v.58H183v-.15h-.43V86c-.44-.12-.5-.27-.59-.73Zm9,.87v-.15h-.15V86l-.43-.15c-.13-.16,0,0-.15-.14V85.6l.15.15h.14V85.6l.73.15V86Zm1.16.14v.15a.58.58,0,0,0-.29.29h-.15l.15-.44-.15-.14Zm16.28.44h-.15c-.12.16,0,0-.14.15v-.29C209.3,86.56,209.13,86.45,209.3,86.62Zm.43,0h.15v.44l-.58-.15.14-.43C209.73,86.56,209.57,86.45,209.73,86.62Zm72.38,4.8v-.15h-.29v-.14l-.58.14v-.14l-.87-.15v-.14h-.15v-.73l.29-.15v-.14h.29l.15-.29h.29l.29-.44h.29l.15-.29h.29v-.14c.29-.17.32,0,.58-.3a3,3,0,0,1,1,.15c.08.37.32,1.12,0,1.45,0,.61,0,.86-.29,1.17l-.29.14v.44h-.14c-.09.29,0,.12-.15.29l-.14-.44A1.46,1.46,0,0,1,282.11,91.42ZM180.52,89h-.14V88.8h.14c.09-.29,0-.12.15-.29l.14.44h.29v-.44h.29l-.14.44h.14v.29h.15l-.15,1h-.14c-.13.17,0,0-.15.15l-.14-.29h-.15c.23-.48.08-.53,0-1C180.52,89,180.69,89.11,180.52,89Zm4.65-.15h.15v.73h-.15v.14c-.35.13-.3-.23-.43-.29h-.3v-.29C184.93,89.07,185,89.1,185.17,88.8Zm96.5,4.36h.15v.15c.24.16.2.08.29.43H282v-.29h-.3Zm19.62.73h.15V94h.15v.15h-.3Zm-16.56,3.34v.15h-.15V96.07A.86.86,0,0,1,284.73,97.23Zm20.78.44v.14L306,98v.87l-1-.58v-.58Zm-1.74.43v.44h-.29V98.1Zm2,1.31h-.14v-.15h-.15v-.14h.29Zm145.34.73h.14v.14h.15v.15h-.29Zm188.79,5.08c0-1.66.54-.42,1.45-.87v-.14l.44-.29.14-.44.58-.15.44-.72.87-.15.29-.43h.44v-.15h.14c.12.15.18.14.29.29.6.17.18.06.44.44l.29.14v.58l.44.29v.44h.14c.3.73.08,1,.73,1.45v.15l.87-.15v.15h.29l.15.29c.33.14.56-.14.72-.15l.15.3h.29v.14l.58.44c.23.37-.16.27.29.58a1.53,1.53,0,0,1-.14.58c-.22.08-.29.06-.58.14v.15c-.21,0,.05-.11-.15-.15-.73-.11-1-.16-1.31.3-1.35,0-2.15,0-2.61-.88l-1,.15v.14l-1.45-.14-1.17-1V106l-1.74-.15C640.15,105.49,640.13,105.39,639.93,105.22Zm-453.74,0c-.13.17,0,0-.15.15v-.15c-.24-.33.24-.68.44-1C186.73,104.51,186.46,105,186.19,105.22ZM292,106.53v.29h-.14v-.29Zm362.47,1.75v-.15h.44c-.09.29,0,.13-.15.29v.15h-.43C654.4,108.28,654.3,108.44,654.46,108.28Zm5.23,1.16v.14h.15l-.15.29c-.32,0-.39,0-.58-.14v-.15h-.29v-.14Zm6.4.14V110h-.15v-.44Zm-17.15,1.89c-.29-.08-.13,0-.29-.14C648.94,111.41,648.77,111.31,648.94,111.47Zm-127.61,1.31c-.08.29,0,.13-.14.29v.15a1,1,0,0,0-.58-.15v-.29Zm143.31.44h-.15v-.15h-.15l.15-.29C664.7,113,664.88,112.94,664.64,113.22Zm-143.16.29v.29h-.15l-.14-.44ZM693.27,123v.15l-.44.15V123Zm-1.17,3.64v.29H692l-.15-.44ZM686.58,128v.15h.15v.43c-.42-.1-.49-.15-.58-.58Zm-2.32,1.89v-.14h.14c.09-.29,0-.13.15-.3l.14.44Zm4.36,2c-.17-.13,0,0-.15-.15h.15v-.15h.14l.15.44C688.62,132,688.78,132.13,688.62,132Zm6.83,1c-.09.29,0,.13-.15.29v.15h-.14v-.58Zm1.45.15c-.29-.09-.13,0-.29-.15C696.9,133.07,696.73,133,696.9,133.13Zm-36,6.25c-.17-.13,0,0-.15-.15h.15v-.14H661l.15.43C660.86,139.44,661,139.54,660.86,139.38Zm20,.29v-.15h.44c-.09.29,0,.13-.15.29V140h-.43C680.86,139.67,680.75,139.83,680.91,139.67Zm-7.41.72c-.16-.12,0,0-.14-.14l.43-.15v.44C673.5,140.45,673.67,140.56,673.5,140.39Zm9.45,0h.14a1.4,1.4,0,0,1,.15.59H683ZM678,142h.14v-.14h.15V142l.29.15v.14h-.15v.15H678Zm1,3.06h-.14v-.15c-.17-.12,0,0-.15-.15H679Zm4.8,0v.29h-.15v-.29Zm-5.52.58v.29H678v-.29Zm6.39.14v.15c-.16.12,0,0-.14.14-.08,0-.61.09-.44-.14h.15v-.15Zm-9.3.15v.29h-.15v-.29Zm-5.52,1.31h-.15v.14h-.14l-.15-.44.44-.14Zm-209.29.29c-.29-.09-.12,0-.29-.15C460.58,147.46,460.42,147.35,460.58,147.52Zm224.4.87c-.39-.11-.33,0-.43-.44C684.94,148.06,684.88,148,685,148.39Zm-137.49,3.05v.15h.15V152h-.15v-.14c-.31.21-.33.05-.72,0v-.44Zm-90.1,1H457V152C457.35,152.13,457.28,152.06,457.39,152.46Zm198.23.72V153h.44v.14l-.58.44a1.35,1.35,0,0,1-.15-.58Zm-126,.73v.15h-.15v.14c-.34-.09-.27,0-.43-.29Zm-61,.87h.14c.11.31-.16.34-.29.44v.14h-.14C468.37,155,468.44,155,468.58,154.78Zm41.13,3.35v.29h-.15v-.29Zm-58.57.87v-.15H451v-.14l.44-.15.14.44Zm4.36.72v.44h-.15v-.44Zm177.31,9H633v.58l-.29.14-.14.73-.59.14v-.58h.59A5.47,5.47,0,0,0,632.81,168.74Zm-53.92,3.92V173h-.15v-.29Zm-39.24,1-.15.87-.44-.15.15-.72Zm-437.9,2.9c-.29-.08-.13,0-.29-.14C101.75,176.53,101.58,176.42,101.75,176.58Zm534.54,1.89-.29.44h-.14l.29-.44Zm-68.74,1.17v.29h-.14v-.29Zm36.63,11.48h.14l.15.43h-.29Zm-274.4,7.12v.14h-.44v-.14s-.56,0-.29-.15h.15V198C329.55,198,329.52,198.1,329.78,198.24ZM625.25,202v.29H625V202Zm-.44.87H625l.14.58h-.29Zm-4.5,1v.43h-.15v.15a1.52,1.52,0,0,0-.72-.15v-.58Zm-368.87.29v.29h-.29v-.29Zm364.36.87v.44h-.14v.14h-.15a1.53,1.53,0,0,1-.14-.58Zm-373.8.29a2.62,2.62,0,0,1,1,1.45h-.15V207c-.29-.08-.13,0-.29-.15-.49-.12-.45-.27-.44-.87H242ZM614.49,209l-.14.44h-.44v-.15l-.43-.14a1.53,1.53,0,0,1,.14-.58l.73.14C614.44,209,614.33,208.83,614.49,209Z"/></g></g></svg>