<svg xmlns="http://www.w3.org/2000/svg" viewBox="0 0 110.25 144.78"><g id="圖層_2" data-name="圖層 2"><g id="圖層_1-2" data-name="圖層 1"><path d="M110.13,107s0-.81.07-1.43-.78-.77-.78-.77.1-.56.14-1-.77-.71-.73-1.14-.51-1.25-.53-1.55a16.1,16.1,0,0,0-.53-1.73,101.55,101.55,0,0,0-3.22-13c-3-9.36-6.42-19.74-8.61-27.4a10.53,10.53,0,0,1-.24-1.42,2,2,0,0,0-.23-.86c0-.15-.29-1.16-.34-1.49s-.19-.29-.32-.41a39.16,39.16,0,0,1-1-5c-.38-3.77-.29-8.55-1.66-14.27,0,0,0-.1,0-.13A2.15,2.15,0,0,0,92,34.06c0-.12.37-.38.39-.67s.23-1,.3-1.28a7.18,7.18,0,0,1,.63-1.51c.18-.26.25-1.18.45-1.49a1.9,1.9,0,0,0,.18-.86c0-.16.25-1.18.35-1.5s-.28-.5-.13-.93a.65.65,0,0,0-.13-.7,2.44,2.44,0,0,0,.25-.8,3.72,3.72,0,0,0-.4-1.15c-.09-.25.19-1.81.11-2.25s-.61-.6-.61-.6a1.19,1.19,0,0,0-.19-.63,4.55,4.55,0,0,0-.77-2.93,2.65,2.65,0,0,0-1.13-.5c-.17-.07-.23-.47-.85-1s-.93-.34-.93-.34,0-.32-.07-.67-2.22-2.09-2.81-2.65-1-.33-1-.33.11-.18-.1-.48-.77-.3-1.66-.8-2.6-1.61-2.81-1.67a2.64,2.64,0,0,1-.84-.61c-.11-.14-.79-.58-1-.89s-.48-.14-.75-.36-.29-.64-.78-.92a5,5,0,0,0-1.73-.36c-.13,0,.12-.18,0-.49s-.87-.32-.87-.32-.07-.3-1.06-.66A10.88,10.88,0,0,0,72,3.1c-.45-.06-.33-.48-1-.89S70.13,2,70.13,2s-1.47-.65-1.6-.74-.76-.17-.89-.26A3.27,3.27,0,0,0,66.35.32c-.6-.09-.65.4-1.27.36a13.6,13.6,0,0,0-1.53,0L62.88.55s.16-.3-.33-.48S62,.1,61.37.29a2.26,2.26,0,0,0-1,.93s-1-.09-1.39-.07-.58.31-1,.47-.41.4-.41.4l-1,.28a1.64,1.64,0,0,0-.83.51.8.8,0,0,1-.57.22c0-.23-.43,0-.65,0a2.64,2.64,0,0,1-1.12-.13c-.67-.16-.13.52-.13.52a8,8,0,0,1-.9-.16c-.27-.08-.32,0-.46-.2s-.19-.25-.54-.3-.16.29-.34.32-.41-.22-.43-.4-.94-.24-1.32-.37a1,1,0,0,0-1.06.41c-.3.3-.37.85-.52.95a2.79,2.79,0,0,1-.57.22l-.43.22L46.47,4c-.24-.14-.63,0-1,.07a2.75,2.75,0,0,1-1,0c-.42-.12-.55.26-.95.56a3.86,3.86,0,0,1-1.76.63,4.77,4.77,0,0,0-1.27.36c-.34.08-1-.13-1.1-.42S38.7,5,38.7,5l.17-.4a1.06,1.06,0,0,0-.73-.32c-.41,0-.48.33-.92.4s-.82.18-.82.18a.88.88,0,0,0-1,.18A.57.57,0,0,0,35,4.7a4,4,0,0,0-1.22-.37,2.53,2.53,0,0,0-1,.59l-.48-.61a4.61,4.61,0,0,0-1.06-.57c-.48-.14-1,.4-1,.4a1.87,1.87,0,0,0-.93-.34c-.41,0-.8.69-.8.69a4,4,0,0,0-.52.11c-.34.08-.42.49-.42.49l-.44.07a4.65,4.65,0,0,1-.68-.43c-.28-.22-.61,0-.66-.12a.61.61,0,0,0-.32-.35c-.15,0-1.47-.17-1.47-.17a7.94,7.94,0,0,0-1.12-.22c-.35-.06-.46.5-1.07.6s-.93.5-1.22.61a.79.79,0,0,1-.49.06s.18-.5.06-.68a3.11,3.11,0,0,0-.61-.75,3.12,3.12,0,0,0-1,.19,4.31,4.31,0,0,0-1-.25c-.43,0-.83.51-.83.51l-.82.41a1.62,1.62,0,0,0-.71-.38c-.4-.08-.4.53-.4.53l-.38.1a2.21,2.21,0,0,0-.66-.49,2.58,2.58,0,0,0-.91-.16A.74.74,0,0,0,12.18,4c-.29.11-.79.26-1.28.45a.91.91,0,0,0-.65.86,1.27,1.27,0,0,1-.43.83,3.09,3.09,0,0,0-1,.14A3.74,3.74,0,0,0,8.1,7s-.88.63-1.12.86-.2.92-.2.92a7.66,7.66,0,0,0-1.19.79c-.49.43-.23.51-.34,1.07a2.32,2.32,0,0,0,.11,1.13,4.93,4.93,0,0,0-1.09.8.8.8,0,0,0-.09.73s-.18,0-.38.34.1.38.15.64a3.61,3.61,0,0,1-.14,1.09c0,.15-.17,1-.17,1a3.62,3.62,0,0,1,.34.76c.06.26.13.69.13.69l-.18.26s0,.53,0,.66a2.6,2.6,0,0,0,.38.61S4.06,20.48,4,20.69s.25.42.33.62a3.35,3.35,0,0,1-.12,1.13.66.66,0,0,0,0,.14c-.08.26-.14.54-.2.81l-.28.26c-.17.15,0,.35.08.56s0,.14-.05.22C2.58,30.7-.4,42.64.05,46.08S3.63,80,4.23,84.3s-3,21.64-2.39,30.3,3.58,12.1,4.33,14.19A27.21,27.21,0,0,0,15,140.43c5.37,4,7,2.54,17.91,3.88s10.3-.45,26.58-2.09a79.27,79.27,0,0,0,14.63-2.9,5.77,5.77,0,0,0,2.23-.07c1.16-.36,3.65,0,4.26-.12a4.61,4.61,0,0,0,1.27-.61,8.91,8.91,0,0,0,2.32-.72c.78-.47,1.65-.26,2.51-.42s11.11-7.21,11.52-7.67a40.73,40.73,0,0,1,3.42-2.31,6.19,6.19,0,0,0,2.47-1.52,12.51,12.51,0,0,0,2-3.86c.55-1.63,2-3.73,2.08-4.84a15.26,15.26,0,0,1,.24-1.69c.06-.25.12-.5.17-.74s.06-.29.08-.44.9-2.14,1.23-2.89A10.47,10.47,0,0,0,110.13,107Z"/></g></g></svg>