<svg xmlns="http://www.w3.org/2000/svg" viewBox="0 0 344.2 230.74"><g id="圖層_2" data-name="圖層 2"><g id="圖層_1-2" data-name="圖層 1"><path d="M87.75,13.59C119.29.25,152.89-3.15,204.24,2.86S273.17,25,285.58,33.71s17.33,14.63,24.59,23.7,12.32,13.45,14.64,17.88c1.67,3.19.05,5.68,4.31,12.2s10.21,14.92,11.8,23.39,5.27,37.27,1.92,50.15-15.88,40.26-33,49.64S275,222.83,267.27,224.83s-17.09,4.77-27.48,3-22.59-7.05-28.54-5.82-10.61,3.81-16.53,3.06-8.39-3.68-8.39-3.68-8.11,4.1-21.45,5.5-20.51,5-26.69,3.44a77.16,77.16,0,0,1-13.77-5.48,21.78,21.78,0,0,1-15.57-.09c-8.26-3.28-10.25-2.65-10.25-2.65s-.95,2.49-10.7,1.43c0,0-16.61,8.33-34.36,4.78s-28.89-9-35.75-18.19A83.61,83.61,0,0,1,5.12,183.34C3.75,177.65,0,146.47.06,140.54S-.43,128.66.81,125s1.57-8.15,2.71-14.2S7.46,84.58,19.2,66.42,52.45,28.51,87.75,13.59Z"/></g></g></svg>