<svg xmlns="http://www.w3.org/2000/svg" viewBox="0 0 528.16 591"><defs><style>.cls-1{fill-rule:evenodd;}</style></defs><g id="圖層_2" data-name="圖層 2"><g id="圖層_1-2" data-name="圖層 1"><path class="cls-1" d="M499.27,62.65c1.88,0,5.33.5,6.26,1.39,3.49.93,5.49,4,7.66,6.27l1.39.69v1.4l1.4.69v1.39l1.39.7.69,2.09h.7v1.39h.7l.69,2.78h.7c.46,2.09.93,4.18,1.39,6.27h.7v3.48h.69v4.87h.7v9H525v12.53h-.69c-.69,2.44-.08,17,0,17.41v20.88H525c.76,2.7-.88,8.68-1.39,10.44v5.57h-.69l-.7,3.48h.7v1.39h.69c.23,2.32.47,4.64.7,7H525V190h.7c1.37,4.85-1.15,12.83-2.09,16-.14.48-.69,6.26-.69,6.26a1.21,1.21,0,0,1,.69,1.4h-.69l.69,23h-.69v7.65h-.7v4.88h-.7v4.17q-2.77,10.1-5.56,20.19c-.81,2.86.95,4.8,1.39,6.27-.23,2.32-.47,4.64-.7,7h.7v7h.69v2.78h.7v2.09h.7v2.09h.69q.35,9.39.7,18.79h.69l-.69,23h.69v7h.7v4.87h.7v3.48h.69v3.48h.7c.91,3.13-.08,11.78-.7,13.92q-1,7.67-2.09,15.32c-.69,2.32-1.39,4.64-2.08,7h.69c2.23,2.17,3.25-.09,3.48,4.87,1.57,1.8.66,8,.7,11.14.06,4.92,1.39,9.72,0,14.62v6.26h-.7v2.09c-.17.46-2.16,4.36-2.09,4.87h.7v4.18h.7l.69,6.27h.7v2.08H525V458h.7q-.35,5.91-.7,11.83h.7v7h.7v4.87h.69V488h.7c.87,3.09-.1,11.14-.7,13.23v4.87h-.69v2.09h-.7v3.48H525q.71,5.57,1.4,11.14h.69l-.69,4.18h.69c.32,1.8-.69,2.08-.69,2.08v9.05h-.7V543H525v4.17h-.69q-.71,5.93-1.39,11.84v6.26h-.7V568h-.7v2.08h-.69l-1.39,4.18h-.7v1.39h-.7l-.69,2.79-3.48,2.78-1.4,2.09h-2.08v.7H509v.69l-6.26,1.39v.7l-6.27.7v-.7h-.69v.7h-8.36v.69h-7v.7h-8.35v.69h-7c-5.58,0-13,.56-17.4-.69H439.4v-.7h-2.09v-.69l-7,.69-.69,1.39h-4.18v.7L415,591c-5-1.42-13.29-.69-19.49-.7h-6.27c-4.82-1.36-12.79-.69-18.79-.7h-6.27v-.69h-3.48v-.7H358v-.69h-2.79v-.7h-2.78v-.7H350.3v-.69h-9.74v-.7h-4.18V584H324.55l-10.45-.7v.7H312v.69l-8.36.7v.69H291.83v.7H289v.7H287v.69h-9a1.87,1.87,0,0,1-2.09.7v-.7l-4.18.7-1.39-2.09h-1.39v-.7c-5.61-2.1-8.87,3.11-14.62,1.4v-.7h-2.79v-.7h-2.78v-.69h-2.09v-.7h-2.09c-.51-.22-.29-1.57-1.39-1.39l-.7,1.39h-4.17v.7h-4.88v.69H222.22c-6,1.67-22.65,1.47-27.85,0-5.49-1.54-12.91,1.26-17.4,0H133.81v-.69H131v-.7h-2.09V584h-2.79v-.7H115.71v-.7h-4.17V582h-3.48v-.7h-3.49v-.69h-1.39l-.69-1.4c-1.59-.64-2.68.57-3.48.7H87.87l-39-1.39v-.7H46.8v-.69H42.62v-.7H39.84v-.7H37.75c-1-.64,0-1.79-.7-2.78L35,572.2l-1.39-2.09H32.18c-.23-1.85-.47-3.71-.7-5.56l-1.39-.7.7-2.79h-.7v-1.39L28.7,559v-2.79h.69c.47-3,.93-6,1.4-9.05l1.39-.69v-.7h-.7A5.54,5.54,0,0,0,30.09,543h-.7v-1.4L28,540.88v-.7l-1.39-.69V536.7h-.7v-4.18h.7q-.34-3.82-.7-7.65h-.69v-3.48L23.13,520v-7h-.7v-16.7h.7c.15-.54.7-6.27.7-6.27h-.7q-.35-7.65-.7-15.31h.7v-1.4h.7c.72-2.42-2.74-5.47-1.4-9.74h.7v-2.09h.7l.69-9h.7c1.7-6.1-4.12-8.77-2.09-16h.7V425.32h.69v-4.17h.7v-3.48l2.78-1.4c.43-.68,1-4.59,1.39-5.57-2.39-1.38-2-2.16-3.48-4.17l-2.78-2.09-1.39-4.18-1.39-.69q-.36-2.79-.7-5.57c-3-9.42-2.09-23.84-2.09-36.2Q18.25,348.41,19,339l2.09-1.4c.41-1.16-.66-1.25-.69-1.39v-9.05H21V323h.7v-7.65h.69V314h.7l2.09-6.27.69-10.44h-.69q1-6.27,2.09-12.53H28v-2.09h.7v-2.09h.69v-2.78h.7v-4.18h.7v-1.39l2.78-2.09v-3.48h.7v-1.39l1.39-.7c.23-1.62.46-3.25.7-4.87C27.08,254,25.78,240.56,22.43,229q.36-6.27.7-12.53h-.7V215.1h-.69V213H21v-1.39h-.69v-2.09h-.7l-.7-2.79h-.69v-2.08h-.7c-.23-1.63-.46-3.25-.7-4.88h-.69v-1.39h-.7v-4.18h-.69v-2.78h-.7v-4.18h-.7v-5.57h-.69v-9H12v-4.18H11.3v-2.79h-.7v-3.48H9.9l-.69-2.78h-.7v-2.09H7.82v-2.09h-.7v-2.09h-.7v-2.78H5.73c-.24-2.78-.47-5.57-.7-8.35h-.7c-.64-2,.17-3.36-.69-4.88l-1.39-.69V123.21c-.56-1.93-2.87-9.79-2.09-12.53H.85V107.2h.7v-2.09h.7v-4.17h.69V98.85h.7V96.76h.69V94H5V92.58h.7V87h.69l.7-2.78C9,83.35,9.41,82.47,12,82.14V80.75H9.9C9.73,78,8.05,68.6,9.21,65.43H9.9l.7-2.78h.7L12,59.17l2.09-1.39.7-2.09h.69V54.3l1.39-.7V52.21l6.27-5.57V45.25h.7l.69-2.79h.7V40.37h.69V38.29h.7v-1.4c.88-1.68,2.2-2.68,2.78-4.87l12.53-6.26,1.4-2.09h1.39V23H46.1v-.69h2.09v-.7h1.39v-.7h2.09v-.69h2.09v-.7h2.09v-.7L60,18.1v-.7h1.4v-.69H64.2l1.39-2.09c1.91-.85,5.32,1.11,6.27,1.39h9V10.44c3.3-.31,11.3-3,14.62-2.09,2.62.73,9.18,3.74,12.53,2.79v-.7h3.48V9.75c2.22-.66,5.78.36,7,.69h7.65V9.75h7.66v-.7h10.44v-.7H147v.7h2.09v.7l6.26,2.08v.7h1.39v.7l34.11-.7v.7l1.39-.7,13.93.7c4.45,1.27,10.27,2.19,14.61,3.48h6.27v.69c1,.13-.26-.46.7-.69h2.78l.7-1.4,4.17-1.39v-.69c2.09-.51,5.07,2.31,8.36,1.39v-.7h3.48v-.69h1.39v-.7h13.92c2.52-.72,7.72-2.6,11.84-1.39v.69h3.48v.7l7.65.7v.69H287v.7H289v.69h1.4l.69,1.4h1.39l.7,1.39h1.39v.69c3.76,1.26,4.42-3.54,9.05-2.08,2,.61,3.42,2.23,5.57,2.78v1.39l1.39.7c.28.37.59,4.46,1.4,2.09,2.11.68,3-.16,5.56-.7V21.58l2.09-.7,2.79-3.48h.69V16l2.09-.7V16c1.19.37,3.11,1.18,4.87.7V16H335v-.7h4.17v-.69H342v-.7h1.39v-.69h2.09v-.7l6.26-.7v-.69h2.79v-.7H358V9.75h3.48v-.7h4.18v-.7l22.27-2.09V5.57H390l.7-1.39,3.48-.7v-.7l11.13-1.39h7L413,0H422V.7h5.57v.69h4.87v.7h6.27v.69h9.74v.7h2.79v.7h2.09v.69h2.78v.7h3.48v.69h4.87V7l2.79.7.69,1.39h1.4v.7l2.78.69.7,1.39L477,15.31v1.4l2.09,1.39v1.39l2.79,2.09V23l1.39.7v1.39l2.09,1.39v1.39l1.39.7v1.39h.69l1.4,4.18h.69l.7,4.18h.7v2.78h.69V52.21h-.69q-.36,5.22-.7,10.44h.7c2.6-2.52,6.84.53,8.35,1.39Zm-92.58-48c-1.39-.42-.6.09-1.4-.7C406.68,14.34,405.89,13.83,406.69,14.62ZM234.05,23v1.39h-.7V23ZM115.71,26.45c-1.39-.42-.6.1-1.39-.69C115.71,26.17,114.92,25.66,115.71,26.45Zm235.29.7c-1.39-.42-.6.09-1.39-.7C351,26.87,350.2,26.36,351,27.15Zm-51.51,4.17h-.7l-.7-2.08C299.26,30,299.06,29.66,299.49,31.32Zm-13.23,3.49h-.7v-.7h-.69v-.7h1.39Zm37.59-1.4c.62.29-1.34,1.37-1.39,1.4l.69-1.4Zm-33.41,1.4,2.08.69v.7h-2.08Zm39,4.17h.69v-.69h.7v1.39C329.42,39.26,330.21,39.77,329.42,39Zm34.11,0c-1.39-.42-.6.1-1.39-.69C363.52,38.7,362.73,38.19,363.53,39Zm-31.33.7v1.39h-.69V39.68ZM328,41.77c-1.39-.42-.6.09-1.4-.7C328,41.49,327.23,41,328,41.77ZM85.08,43.85v.7c-1.64-.45-1.3-.19-2.08-1.39Zm225.54,2.79c-1.39-.42-.6.1-1.39-.7C310.62,46.36,309.83,45.85,310.62,46.64Zm4.88.7V48h-2.79V46.64Zm-101.64,0h.7l.7,2.08h-1.4Zm81.45,1.39h-.7V48h-.69v-.69h1.39Zm69.61-.7c-1.39-.42-.6.1-1.39-.69C364.92,47.75,364.13,47.24,364.92,48Zm-111.38.7c-1.39-.42-.6.09-1.39-.7C253.54,48.45,252.75,47.93,253.54,48.73Zm6.27,2.09c-1.39-.42-.6.09-1.4-.7C259.8,50.54,259,50,259.81,50.82Zm-157.32.69V52.9h-.7V51.51Zm137.83,4.18c-1.65-.45-1.31-.2-2.09-1.39A5.37,5.37,0,0,1,240.32,55.69Zm84.92-1.39v1.39h-.69V54.3Zm93.28.69v1.39h-.7V55ZM251.45,61.26c-1.39-.42-.6.09-1.39-.7C251.45,61,250.66,60.46,251.45,61.26Zm62,0h-.7V62H312V60.56C313.4,61,312.61,60.46,313.41,61.26ZM373.27,71c-1.17-.79-1-.42-1.39-2.09A5.19,5.19,0,0,1,373.27,71Zm-97.45,0h-.7v-.69h-.69v-.7h1.39Zm37.59.7c-1.17-.8-1-.42-1.39-2.09A5.3,5.3,0,0,1,313.41,71.7Zm32.71-1.39c-1.39-.42-.59.09-1.39-.7C346.12,70,345.33,69.51,346.12,70.31ZM223.61,73.09v1.39h-1.39V73.09Zm173.33,1.39v1.4h-.7v-1.4Zm36.2,1.4V78h-.7l-.69-2.78Zm-95.37,0v1.39h-.69V75.88Zm-247.12.69h.7v.7H92V78H90.65Zm291,1.39v1.4h-.7V78Zm5.57,1.4c-1.39-.42-.6.09-1.4-.7C387.19,79.08,386.4,78.56,387.2,79.36Zm-62.65,0v1.39h-.7V79.36Zm30.62.69c-1.39-.42-.6.1-1.39-.69C355.17,79.78,354.38,79.26,355.17,80.05Zm-17.4,0h.7v.7h.69v.69h-1.39Zm80.75,0v1.39h-.7V80.05ZM225,82.84v1.39h-.69V82.84Zm146.18.69-.69,1.4H369.1v-.7c1.39-.42.6.1,1.39-.7Zm-68.91,1.4v1.39h-.7V84.93ZM369.1,87c-1.39-.42-.6.1-1.4-.69C369.09,86.74,368.3,86.22,369.1,87Zm20.18-.69v1.39h-.69V86.32Zm-5.57,2.09c-1.39-.42-.59.09-1.39-.7C383.71,88.13,382.92,87.61,383.71,88.41ZM238.23,90.49V89.8l2.09-.7v1.39ZM397.64,89.1v2.09h-.7l-.7-2.09Zm-217.89.7v1.39h-.69V89.8Zm81.45,0v1.39h-.7V89.8Zm100.94,1.39c-1.39-.42-.6.1-1.4-.7C362.13,90.91,361.34,90.4,362.14,91.19Zm-20.19,0v1.39h-.7V91.19Zm-70.31.7H273l.7,2.08h-1.39Zm77.27.69h.7v.7h.69V94h-1.39Zm70.31.7c-1.39-.42-.6.1-1.4-.7C419.21,93,418.42,92.49,419.22,93.28ZM372.58,94v1.4h-1.4V94Zm11.13,0v1.4h-1.39V94Zm-178.2,4.18c-1.39-.42-.6.1-1.39-.69C205.51,97.87,204.72,97.36,205.51,98.15Zm227.63.7v1.39h-.7l-.69-2.09Zm-155.23,2.09v1.39h-.7v-1.39Zm51.51,0c.44,1.29-.41,1-.7,1.39V103H328l.69-2.08ZM390,102.33h-.7V103s-2.7-.09-1.39-.69h.7v-.7C390,102.05,389.19,101.54,390,102.33Zm16.71,0h.69v-.7h.7V103C406.69,102.61,407.48,103.12,406.69,102.33Zm-79.36,2.09c-.81-.42-1.67-.54-2.09-1.4h.7v-.69A5.23,5.23,0,0,1,327.33,104.42Zm4.18-1.4h-.7v.7h-.7v-1.39C331.5,102.75,330.71,102.23,331.51,103Zm105.11.7v1.39h-.7v-1.39Zm-18.1,3.48v1.39h-.7V107.2Zm20.19.7H438v.69h-.7V107.2C438.7,107.62,437.91,107.1,438.71,107.9Zm-90.5,0v1.39h-.69V107.9Zm13.93,1.39c-1.39-.42-.6.1-1.4-.7C362.13,109,361.34,108.5,362.14,109.29Zm26.45,1.39h-.7V110h-.69v-.7h1.39Zm-106.51,1.39h-.69v.7h-.7v-1.39C282.08,111.8,281.29,111.28,282.08,112.07Zm115.56,0c-1.39-.42-.6.1-1.4-.69C397.63,111.8,396.84,111.28,397.64,112.07Zm-18.8,1.4h-.69v-.7h-.7v-.7h1.39Zm44.55,0s-.21.1-1.39-1.4C422.19,112.24,423.9,112.79,423.39,113.47Zm18.1-.7v1.39h-.69v-1.39Zm-213,.7v1.39h-.69v-1.39Zm16,0v1.39h-.69v-1.39Zm-9.05.69v1.39h-.69v-1.39Zm125.3,1.39v.7h-1.39l-.7-2.09Zm62,0H422v-.69h-.7v-.7h1.4Zm-194.22,0h.7v-.69h.69v1.39C228.48,115.83,229.28,116.35,228.48,115.55Zm114.16,0V117H342v-1.4Zm-96.76.7v.7l-2.08.69v-1.39Zm188,0h.7v.7h.7v.69h-1.4Zm-107.2.7v1.39h-.69V117Zm97.46,1.39h-.7v-.7h-.69V117h1.39Zm-142-.7v.7L280,119v-1.39Zm93.28.7v1.39h-.69l-.7-2.09Zm61.95.69s-.21.11-1.39-1.39C436.11,117.81,437.83,118.36,437.31,119ZM189.5,119c.62.29-1.34,1.37-1.39,1.4l.69-1.4Zm219.27,0v1.4h-.69V119Zm-126,.7v1.39h-.7v-1.39Zm109.29.7v-.7h.69v2.09h-1.39C391.79,120.43,391.28,121.22,392.07,120.43ZM243.8,121.82s-.22.1-1.4-1.39C242.59,120.6,244.31,121.14,243.8,121.82Zm178.2,0h-.7v-.7h-.69v-.69H422Zm18.8,0h-.7v-.7h-.7v-.69h1.4Zm-34.81,0c-1.39-.42-.6.1-1.39-.7C406,121.54,405.2,121,406,121.82Zm43.85.7v-1.4h.7v2.79h-1.39C449.57,122.52,449.05,123.31,449.84,122.52Zm-22.27,0v1.39h-.7v-1.39Zm8.35,0v1.39h-.69v-1.39ZM273,123.21v1.39h-.69v-1.39Zm10.44.7h-.69v.69h-.7v-1.39C283.47,123.63,282.68,123.11,283.47,123.91Zm7,0v1.39h-.7v-1.39Zm148.27.69H438v.7s-2.71-.1-1.39-.7h.69v-.69C438.7,124.33,437.91,123.81,438.71,124.6Zm-68.92,0h.7v.7h.69v.7h-1.39Zm15.32,0h.69v.7h.7v.7h-1.39Zm30.63,0V126H415v-1.4Zm-130.18.7c.63.29-1.34,1.36-1.39,1.39l.7-1.39Zm135.74,0v2.09h-1.39V125.3Zm-9,1.39v2.09h-.7a6.71,6.71,0,0,1-.7-2.78Zm-2.79,0v1.39h-1.39v-1.39Zm9,.7c-1.39-.42-.6.09-1.39-.7C418.52,127.11,417.73,126.6,418.52,127.39Zm-31.32,1.39s-.22.11-1.4-1.39C386,127.56,387.71,128.1,387.2,128.78Zm27.84-.7-.7,1.4H413v-.7c1.39-.42.6.1,1.39-.7Zm-245.73.7v1.39h-.69v-1.39Zm176.12,0v1.39h-.7v-1.39Zm-160.8.7v1.39h-.7v-1.39Zm149.66,1.39h-.7v-.7h-.69v-.69h1.39Zm13.92.69h-.69v-.69h-.7v-.7h1.39Zm45.25-1.39v1.39h-.7v-1.39Zm15.31,0v1.39h-1.39v-1.39Zm-269.39.7v1.39h-.7v-1.39Zm297.24,0v1.39c-1.39.42-.6-.1-1.39.7h-.7l.7-2.09Zm-36.2.69v2.09h-.69v-2.09Zm12.53.7h-.69v1.39h-.7v-2.09S414.23,131.6,413,132.26Zm-289.58,0v1.39h-.7v-1.39Zm204.66,0c.62.29-1.35,1.36-1.4,1.39l.7-1.39Zm94,.7v.69c-2.08-.23-1.91-.06-2.78-1.39A6.71,6.71,0,0,0,422,133Zm73.79-.7v1.39h-.7v-1.39Zm-99.55.7v1.39h-.69V133Zm-66.82,2.09c-1.39-.42-.6.09-1.39-.7C329.42,134.77,328.62,134.25,329.42,135.05Zm46.64,0h-.7v1.39h-.69v-2.09S377.34,134.38,376.06,135.05Zm23-.7v2.09h-.7v-2.09Zm-123.21,2.09h-.7v-.7h-.69v-.69h1.39Zm119-.7h.7v-.69h.69v1.39C394.85,136,395.65,136.53,394.85,135.74Zm32.72,0c-1.39-.42-.6.1-1.39-.69C427.57,135.46,426.78,135,427.57,135.74Zm9.74,0c-1.38-.42-.59.1-1.39-.69C437.31,135.46,436.52,135,437.31,135.74Zm-154.53.7v1.39h-.7v-1.39Zm52.9,0h.7v.69h.7v.7h-1.4Zm-75.87.69h.69v.7h.7v.7h-1.39Zm5.57,0v1.4h-.7v-1.4Zm61.25,0v1.4h-.69v-1.4Zm32.72,1.4v2.08h-2.09l.7-2.08Zm34.81.69v1.39h-.7v-1.39Zm37.59,0v1.39h-.7v-1.39ZM288.35,142a5.32,5.32,0,0,1-2.09-1.4C287.91,141.06,287.56,140.81,288.35,142Zm7-1.4V142h-.7v-1.4Zm105.81,2.79h-.7v-.7h-.69V142h1.39Zm-123.91,1.39c-1.39-.42-.6.1-1.39-.7C277.21,144.51,276.42,144,277.21,144.79Zm-6.27.7h-.69v.69h-.7v-1.39C270.94,145.21,270.15,144.69,270.94,145.49Zm20.89-.7v1.39h-.7v-1.39Zm174.72.7c-1.39-.42-.6.09-1.39-.7C466.55,145.21,465.76,144.69,466.55,145.49Zm-183.77,2.78h-.7l-.69-2.09C282.56,147,282.36,146.61,282.78,148.27Zm-21.58-.69c-1.39-.42-.6.09-1.39-.7C261.2,147.3,260.41,146.78,261.2,147.58ZM424.78,149c-1.38-.42-.59.09-1.39-.7C424.78,148.69,424,148.17,424.78,149Zm-14.61,0v1.39h-.7V149ZM429,151.06c-1.39-.42-.6.09-1.39-.7C429,150.78,428.17,150.26,429,151.06Zm-147.57,2.08a4.62,4.62,0,0,1-2.09-2.08h1.39Zm-18.1,0s-.22.11-1.39-1.39C262.08,151.92,263.8,152.47,263.29,153.14Zm137.13,0v1.4h-.69v-1.4Zm16.71,0c.44,1.29-.41,1-.7,1.4v.69h-.69l.69-2.09Zm-252,.7v1.39h-.7v-1.39Zm121.12.7h-.7v1.39h-.69v-2.09S287.54,153.87,286.26,154.54Zm134.35-.7v1.39h-1.39v-1.39Zm-93.28,2.09h.7v-.7h.69v1.39C327.33,156.21,328.12,156.72,327.33,155.93Zm11.83-.7v.7l-2.08.69.69-1.39Zm45.25,0v1.39h-.7v-1.39Zm-252.69.7v1.39H131v-1.39ZM319,158h-.7v-.7h-.7v-.7H319Zm21.58-1.4v.7l-2.09.7.69-1.4ZM325.24,158v1.39h-.69V158Zm86.32.69c-1.39-.42-.6.1-1.39-.69C411.56,158.44,410.77,157.92,411.56,158.71Zm18.1,0c-1.39-.42-.6.1-1.39-.69C429.66,158.44,428.86,157.92,429.66,158.71Zm3.48-.69v1.39h-.7V158Zm-6.27,2.09s-.21.1-1.39-1.4C425.67,158.88,427.39,159.43,426.87,160.11Zm-149,2.08h-.7l-.7-2.08,2.09-.7.7,2.09C277.91,161.92,278.7,161.4,277.91,162.19Zm-116.25-.69c-1.39-.42-.6.09-1.4-.7C161.65,161.22,160.86,160.7,161.66,161.5Zm134.34.69v1.4h-.69v-1.4Zm13.23.7c-1.39-.42-.6.1-1.39-.7C309.23,162.61,308.44,162.1,309.23,162.89Zm7.66.7c.44,1.29-.41,1-.7,1.39v.69h-.69V165h-.7c-1-1.09,1.29-.58,1.39-.7v-.69Zm105.11.69v1.39h-.7l-.69-2.08Zm-159.41,0v2.09h-.69v-2.09Zm58.47.7h.7v-.7h.7v1.39C321.07,165.26,321.86,165.77,321.06,165Zm30.63-.7h.7v.7h.7v.69h-1.4Zm-31.32,1.39v1.4h-.7v-1.4Zm36.2,1.4s-.22.1-1.4-1.4C355.36,165.84,357.08,166.39,356.57,167.07Zm-13.23-.7v2.78c-1.39-.41-.6.1-1.39-.69h-.7l.7-2.09Zm78.66,0v1.39h-.7v-1.39Zm-199.09.7v1.39h-.69v-1.39Zm130.18,0v1.39h-.7v-1.39Zm-66.13.69v1.39h-.7v-1.39Zm98.15,2.09h-.7v-.7h-.7v-.69h1.4Zm-38.29.7h-.7v-.7H344v-.7C346.12,169.39,346,169.22,346.82,170.55Zm-16,0c-1.39-.42-.6.09-1.39-.7C330.81,170.27,330,169.75,330.81,170.55Zm105.81,2.09c-1.39-.42-.6.09-1.39-.7C436.62,172.36,435.83,171.84,436.62,172.64Zm29.24,2.78v1.39h-.7v-1.39ZM345.43,179.6,343.34,181l-.7-2.09a5.21,5.21,0,0,0,1.4-2.09h.69L344,178.9C345.43,179.32,344.64,178.8,345.43,179.6Zm73.79-2.79v1.39h-.7v-1.39Zm15.31,0h.7v.7h.69v.69h-1.39Zm-104.42.7c.44,1.29-.4,1-.69,1.39v.7h-.7l.7-2.09Zm-144.79,2.78c-1.39-.42-.6.1-1.39-.69C185.32,180,184.53,179.5,185.32,180.29Zm170.55,2.09v.7c-.38-.05-2.88.4-2.09-.7h.7v-.7ZM429,184.47c-1.39-.42-.6.1-1.39-.7C429,184.19,428.17,183.68,429,184.47Zm-131.56.7c.62.28-1.34,1.36-1.4,1.39l.7-1.39Zm29.23,0v2.08c-.52.84-.69-.69-.69-.69h-.7l.7-1.39Zm139.23,1.39V188h-.7v-1.39Zm-184.47.69v1.4h-.7v-1.4Zm40.37.7v1.39h-.7V188ZM300.18,190s-.21.1-1.39-1.39C299,188.81,300.69,189.36,300.18,190Zm-7-.7v1.39h-.7v-1.39Zm83.53,2.09c-1.39-.42-.6.1-1.39-.7C376.75,191.15,376,190.64,376.75,191.43Zm5.57,2.78s-.21.11-1.39-1.39C381.12,193,382.83,193.54,382.32,194.21Zm34.81-1.39v1.39h-.7v-1.39Zm-112.08,1.39c-1.39-.41-.6.1-1.39-.69C305.05,193.94,304.26,193.42,305.05,194.21ZM287,195.61c-1.39-.42-.6.09-1.4-.7C287,195.33,286.16,194.81,287,195.61Zm16.7-.7h.7l.69,2.09h-1.39Zm149,1.39s-.22.11-1.39-1.39C451.42,195.08,453.14,195.63,452.63,196.3Zm-150.36-.69V197h-.7v-1.39ZM449.84,197c-1.38-.42-.59.1-1.39-.7C449.84,196.72,449.05,196.21,449.84,197Zm-84.92.7c-1.39-.42-.6.09-1.39-.7C364.92,197.42,364.13,196.9,364.92,197.7Zm22.28,0h-.7v.69h-.7V197C387.19,197.42,386.4,196.9,387.2,197.7Zm-71.7,0v1.39h-.7V197.7Zm72.39,1.39v1.39h-.69v-1.39Zm-87,2.78h-.7v-.69h-.69v-.7h1.39Zm9.05,0c-1.39-.42-.6.1-1.4-.69C309.92,201.59,309.13,201.08,309.93,201.87Zm50.81,0c-1.39-.42-.6.1-1.39-.69C360.74,201.59,360,201.08,360.74,201.87ZM461,205.35v1.39h-.69v-1.39Zm-189.34,1.39v1.4h-.7v-1.4Zm64,1.4v1.39h-1.39v-1.39Zm-98.15,4.17h.7v-.69h.69V213C237.53,212.59,238.32,213.11,237.53,212.31Zm130.17.7v1.39H367V213Zm71.7,2.78H438v-.69h2.79v1.39C439.41,216.07,440.2,216.59,439.4,215.79Zm4.88-.69H445v.69h.7v.7h-1.39Zm-41.07,2.09c-1.39-.42-.6.09-1.4-.7C403.2,216.91,402.41,216.39,403.21,217.19Zm-9.75,2.08v1.4h-.7v-1.4Zm-182.38,1.4c-1.39-.42-.6.09-1.39-.7C211.08,220.39,210.29,219.87,211.08,220.67Zm190.73.69h-.69v-.69h-.7V220h1.39Zm-226.23,9v1.39h-1.39v-1.39Zm230.41.7h.7v.69h.69v.7H406Zm39,1.39c-1.39-.42-.6.1-1.39-.7C445,232.22,444.18,231.71,445,232.5Zm-76.57,1.39v1.4h-.7v-1.4Zm10.44,0v1.4h-1.39v-1.4Zm34.81,1.4c.44,1.29-.41,1-.7,1.39v.69h-.69l.69-2.08Zm4.87,0v1.39h-.7v-1.39Zm-95.37,2.78c.63.29-1.34,1.36-1.39,1.39l.7-1.39Zm57.08,7c-1.39-.42-.6.1-1.39-.7C380.23,244.75,379.44,244.24,380.23,245Zm-57.08.7V245h.7v.7h.7v.69l-2.09.7C322.88,245.73,322.36,246.52,323.15,245.73Zm100.94.69c-1.39-.42-.6.1-1.39-.69C424.09,246.15,423.3,245.63,424.09,246.42Zm-233.2,0v1.4h-.69v-1.4Zm160.8.7H351v.7h-.7v-1.4C351.69,246.84,350.9,246.33,351.69,247.12Zm-27.84.7v1.39h-.7v-1.39Zm84.23,2.78h-.7v-.7h-.69v-.69h1.39Zm-34.11.7c-1.39-.42-.6.09-1.39-.7C374,251,373.18,250.5,374,251.3Zm-13.92,4.87v1.39h-.7v-1.39Zm-284,.69v1.4h-.69v-1.4Zm209.53,1.4h-.69V259s-2.71-.09-1.4-.69h.7v-.7C285.56,258,284.77,257.46,285.56,258.26Zm52.21,6.26s-.21.11-1.39-1.39C336.56,263.3,338.28,263.85,337.77,264.52Zm-2.09-.69v1.39H335v-1.39Zm57.78,4.87v1.39h-.7V268.7Zm-31.32,3.48v1.39h-.7v-1.39Zm-102.33,1.39V275h-.7v-1.39Zm22.27.7v1.39h-.69v-1.39Zm24.37,1.39v1.39h-.7v-1.39Zm82.83,2.78h-.69v-.69h-.7v-.7h1.39Zm2.09,2.79v1.39h-.69v-1.39Zm4.18,3.48v1.39h-.7v-1.39ZM250.06,286.1h.7v.7h.69v.69h-1.39Zm88.41,2.79h-.7l-.69-2.09C338.25,287.59,338,287.22,338.47,288.89ZM335,291.67c-1.39-.42-.6.1-1.4-.7C335,291.39,334.19,290.88,335,291.67Zm8.35,1.39h-.7v-.69H342v-.7h1.39Zm-62.65,0v2.09H280v-2.09Zm-1.39,3.48h-.7v-.69h-.69v-.7h1.39Zm-84.23-.69v1.39h-.7v-1.39ZM413,300v1.4h-.69V300Zm-234.59.7v1.39h-.69v-1.39Zm215.1,0h.7v.7h.69v.69h-1.39Zm10.44,2.09h-.69v-.7h-.7v-.69h1.39Zm-42.46,2.09h-.7v.69h-.69V304.2C361.44,304.62,360.65,304.1,361.44,304.9Zm55.69.69h-.7v-.69h-.69v-.7h1.39Zm-36.2-.69v1.39h-.7V304.9Zm-16,7v1.39h-.7v-1.39Zm-59.87,2.78c-1.39-.42-.6.1-1.39-.69C305.05,314.36,304.26,313.85,305.05,314.64Zm72.4,2.79v2.78h-1.39v-2.78Zm-25.76,2.08v1.4H351v-1.4Zm11.14,2.09V323h-.69V321.6ZM323.15,323c-1.39-.41-.6.1-1.39-.69C323.15,322.72,322.36,322.2,323.15,323Zm112.77,1.4v1.39h-1.39v-1.39Zm-112.07,2.09h.7v-.7h.69v1.39C323.85,326.75,324.64,327.27,323.85,326.48ZM364.22,330v1.39h-.69V330Zm6.27.69c-1.39-.42-.6.1-1.39-.69C370.49,330.37,369.7,329.86,370.49,330.65Zm17.4,0h.7v.7h.69V332h-1.39Zm-258.26.7v1.39h-.69v-1.39Zm206.05,4.87v1.39H335v-1.39ZM369.1,339v1.39h-.7V339ZM312,341.09h.69v-.69h.7v1.39C312,341.37,312.81,341.89,312,341.09Zm55.68,0v1.4H367v-1.4ZM358,344.57h.69v-.69h.7v1.39C358,344.85,358.75,345.37,358,344.57Zm9.05-.69v1.39h-.7v-1.39Zm6.26,1.39v1.39h-.69v-1.39Zm-19.49,2.78v1.4h-.69v-1.4Zm-4.87,2.09h-.7v.7h-.69v-1.39C348.91,349.87,348.12,349.35,348.91,350.14Zm-61.26.7v1.39H287v-1.39Zm-48.73,2.78V355h-.69v-1.4Zm52.91,0h.69v.7h.7v.7h-1.39Zm16.7,0c.63.29-1.34,1.37-1.39,1.4l.7-1.4Zm79.36,1.4c-1.39-.42-.6.09-1.39-.7C387.89,354.74,387.1,354.22,387.89,355Zm-32,3.48c.44,1.29-.41,1-.7,1.39v.69h-.69l.69-2.08ZM328,362v1.39h-.7V362Zm115.55,1.39h.7v-.7H445v1.4C443.58,363.65,444.37,364.16,443.58,363.37Zm-94,0v1.39h-.7v-1.39Zm-141.32.7v1.39h-.69v-1.39Zm185.17.69h.7v-.69h.69v1.39C393.46,365,394.25,365.55,393.46,364.76ZM342,366.15v1.4h-1.39v-1.4Zm-6.27,1.4h.7v-.7h.7v1.39C335.69,367.82,336.48,368.34,335.68,367.55Zm-10.44,0h.7v.69h.69v.7h-1.39Zm89.8,2.08V371h-.7v-1.4Zm-41.77,2.09c-1.39-.42-.6.1-1.39-.69C373.27,371.45,372.48,370.93,373.27,371.72Zm20.19.7v1.39h-.7v-1.39Zm-50.12,1.39v1.39h-.7v-1.39Zm0,2.79c-1.39-.42-.6.09-1.39-.7C343.34,376.32,342.55,375.8,343.34,376.6ZM376.06,378h-.7v-.7h-.69v-.69h1.39Zm-3.48,0c-1.39-.42-.6.09-1.4-.7C372.57,377.71,371.78,377.19,372.58,378Zm-13.93,2.09c-1.39-.42-.59.09-1.39-.7C358.65,379.8,357.86,379.28,358.65,380.08ZM422,383.56V385h-.7v-1.39ZM394.16,387c-1.39-.42-.6.09-1.4-.7C394.15,386.76,393.36,386.24,394.16,387Zm21.58,0v1.39H415V387Zm-89.11,4.17v1.4h-.69v-1.4Zm30.63,0v1.4h-1.39v-1.4ZM253.54,393.3v1.39h-.69V393.3Zm147.58,2.09v1.39h-.7v-1.39ZM445,404.44h-.69v-.7h-.7v-.69H445Zm-58.47,1.39c-1.39-.42-.6.1-1.39-.69C386.5,405.55,385.71,405,386.5,405.83Zm27.15,7.66H413l-.69-2.79C413.19,411.51,413.35,412,413.65,413.49Zm.69,2.09h-.69v-.7H413v-.69h1.39Zm-6.26,4.87v2.09h-.7a6.73,6.73,0,0,1-.69-2.79Zm-12.53,7.66a2.81,2.81,0,0,1-1.39-1.39h-1.4V426l2.79.7Zm66.82,18.79v1.39h-.69V446.9Zm-274.26,6.27v1.39h-.7v-1.39Zm208.83,10.44c-1.39-.42-.6.1-1.39-.7C396.94,463.33,396.15,462.82,396.94,463.61Zm9.05,0c-1.39-.42-.6.1-1.39-.7C406,463.33,405.2,462.82,406,463.61Zm-205.35,3.48c-1.39-.42-.6.1-1.39-.7C200.64,466.81,199.84,466.3,200.64,467.09ZM248,470.57c-1.39-.42-.6.1-1.39-.7C248,470.29,247.18,469.78,248,470.57Zm-52.9,5.57c-1.39-.42-.6.1-1.39-.7C195.07,475.86,194.28,475.35,195.07,476.14Zm271.48,15.31v1.4h-.69v-1.4Zm-176.81,4.18V497H289v-1.39Zm14.62,2.78h-.7v-.69H303V497h1.39Zm162.89,36.9s-.22.1-1.39-1.39C466,534.08,467.76,534.63,467.25,535.31ZM484,543v1.39h-.69V543Z"/></g></g></svg>