<svg xmlns="http://www.w3.org/2000/svg" viewBox="0 0 418.26 149.19"><g id="圖層_2" data-name="圖層 2"><g id="圖層_1-2" data-name="圖層 1"><path d="M.35,57.6C.67,49.76,3.76,47.69,5,44.54a34.88,34.88,0,0,0,1.65-7.67s5.7.36,12.32.19,22-3,34-4.47,42.69-2.15,51.66-2.47,11.88-6.88,20.74-5.29,30.06.27,33.86.51,12.39,1.37,20.9,1.32,14.17,3.39,18.81,1.92,58.18-8.08,66.82-10S292.64,9.09,302.33,9s29.42,1.27,37.41.31,22.85-1.65,28.33-4.82S377.5,3.86,379.9.64s9.86,6.49,15.4,11.83,23,28.16,23,38.57-2.57,31.39-14.61,43.25-37.83,27.41-65,32.16S228.32,140.34,206.77,140s-97.26,11.19-124.85,8.87-45.83-6.41-53.64-10.42S9.63,120,4.79,110.56-.51,78.24.35,57.6Z"/></g></g></svg>