<svg xmlns="http://www.w3.org/2000/svg" viewBox="0 0 559.74 235.07"><g id="圖層_2" data-name="圖層 2"><g id="圖層_1-2" data-name="圖層 1"><path d="M17.4,146.49c-8.34-13.73-9.23-26.36-10-30.06s-3.95-6.06-4.74-11.33-.27-20,.26-24.78S6.33,61.86,4.75,57.11,5.27,41,2.9,36.55,0,25.48,0,20.21s1.05-10,1.32-12.66S1.05,1.75,2.37.7s4.22-.8,5.8,0,.53.52.53,3.42S6.33,6.76,6.33,6.76s2.63-1.58,3.42,4,.53,14,1.59,17.4,6.59,8.18,8.7,12.4,0,9.75,6.59,12.91,13.56-.69,24.52,3.69c5.27,2.11,8.43,2.64,11.86,2.38s6.33-.79,8.17,1.58,4,.53,8.44,1.85,8.7,3.16,12.39,4,19.77,1.58,27.68,3.43,17.67,4.22,20.57,4.22,10.28-1.85,13.44,0,5.28,2.9,9.23,2.9,10.55-2.38,14.24-1.59,9.75,2.64,13.44,2.9,15,.53,18.46,2.11,10,4,14,4a36.08,36.08,0,0,1,11.34,2.37c2.9,1,9.75,1,13.44,2.11s5.8-.79,13.45,1.58c0,0,14-1.58,20.56,1.58,0,0,11.44-1,17.14,1.85,2.11,1,5-1.85,8.7-.79,0,0,5.54-2.38,10.55-1.85s29.26.79,33.21.53,7.12-3.69,14.24-3.16,10.55.52,11.87.26,10-3.16,15.29-3.43,10.81-1,11.86-1,4.22-3.43,11.34-4,19-3.42,22.41-3.69,11.07-1.32,13.71-2.63,2.1-2.9,8.7-2.9,5.53-1.85,13.18-1.32,17.13,1.58,22.41,1.58,8.43-3.16,14.5,1.32,15,15.55,17.13,19.51,3.17,14.76,4.75,15.55,9.75,7.65,12.92,10,8.44,10.28,11.34,11.86,1.31,4,.79,5.8,1.58,4.22,1.84,5.8-1.58,5.28-3.69,7.39-5.27,4.21-8.44,4.48-6.06-2.11-10.81,1-8.17,10-12.65,15-5.27,10.55-11.07,14-4,7.12-20.57,14.77-37.17,13.71-39.54,15-4.75,4-10.55,4.49-5.8,1.58-10,2.9-11.33,1.84-14,2.63-1.32,3.43-14.5,4.22-32.17,3.16-34.27,3.16-16.88,3.17-28.74,3.43-18.72.79-26.37.79-12.65-1.84-16.6-2.37-29.27-4.22-32.7-5-14,.53-17.92-1.05-12.4-1.59-16.35-3.43-7.65-1.06-12.13-1.06-22.41-1.05-27.94-2.63-10.81-4.48-14-5-8.43-.26-13.71-1.06-7.64-3.16-10.54-3.42a104.64,104.64,0,0,1-11.87-2.38c-4.48-1.05-10-1.84-14.76-3.16s-14.76-3.69-34-11.86-28.21-9.49-34.27-14-9.49-6.06-14.5-9.22S26.36,161.25,17.4,146.49Z"/></g></g></svg>