<svg xmlns="http://www.w3.org/2000/svg" viewBox="0 0 349.64 330.64"><g id="圖層_2" data-name="圖層 2"><g id="圖層_1-2" data-name="圖層 1"><path d="M273.46.11c1.71-.62,5.74,1.58,5.74,1.58l4.55,5.55s4.55,1,5.54,1,4.95,6.92,5.94,8.11,2,7.72,2,7.72-.2,11.28.59,12.67,2,2.77,1.79,4.15-.8,5.55-.4,6.73,2.57,8.32,2.38,12.08-.6,6.73.39,9.3,2.57,4.16,2.57,11.48-2,21.18-1,24.54,2.38,8.12,2,12.87,1.19,18.4.4,22.36-2.57,11.48-2,14.25a20.37,20.37,0,0,0,1.78,4.95s.2,2.38-1.58,3c0,0-.2,7.92.2,10.88s-.4,6.93,0,8.52,2,1.18,1.38,5.93-.39,15.84-.79,18.21a5.3,5.3,0,0,1-1.78,3.37s-.4,4,.79,5.34,2.18,5.74,2,10.29-1.19,11.09-1,12.87,1.19,5.54.59,9.7-1.38,12.27-1.58,15.63.2,8.71-.4,9.5-1.38,1.59-2.37,7.92S299,301,295.63,306.89s-8.51,15.84-10.69,19.2-2.77,3.76-4.75,4.55v-1.78s-6.14-1-7.13-1.18-1.58-1-2.37-2.38-2.38-2.77-2.38-4.35a13.33,13.33,0,0,1,1-4,19.49,19.49,0,0,1-1.18-4c-.2-1.58,1.38-8.91,2-12.47s1-13.66,2-16.63,4.75-6.33,4.95-9.3.6-13.85,0-18.41-2.17-12.46-2.17-19.19,1.38-12.87,2-16.43-1.38-12.27-1.18-18.8,1.18-13.46,1.18-17.62-.19-8.31.2-12.47,2.38-6.13,2-8.51-3-3.17-3.36-6.93.39-4.94,1-5.74-1.19-10.49-1-13.46-1.39-11.28-.79-17a101.18,101.18,0,0,0,.79-11.28c0-3.17,0-15.83.19-19.59s1.19-6.93.2-10.1-3.36-2.17-3.56-12.27-.2-11.48.79-15-.2-10.09,0-13.06,1.59-5,1.59-8.71,0-4.75-.8-6.73-2.37-3.56-2.37-6.73.2-9.7.2-11.28-1.19-1.39-1.19-1.39S271.28.9,273.46.11Z"/><path d="M49.81,20.5c2.57-1,8.9-1,10.68-.6s4.56.6,4.95,2a5.48,5.48,0,0,1,.2,2.38,3.82,3.82,0,0,1,1.58,1A11,11,0,0,1,68.81,28a14.25,14.25,0,0,0-1.59,4.15c-.39,2.18-.2,3.17-1.78,5.74a16.72,16.72,0,0,0-2.18,5.35c-.39,1.38-3.56,3.17-3.56,3.17s-.39,7.12-.59,9.5-1.39,2.77-1.39,2.77,2.18,3.36,2,5.93S58.51,69,59.5,71s3.57,4,4.16,5.94,3,4.75,4.55,6.53,1.39,5.34,1.39,7.72.79,8.7,2,10.49.59,5.93,1.38,7.91,4,8.51,4.36,10.69,1.58,3,2.77,6.14a48,48,0,0,0,3.16,7.32c1,1.58,5.55,8.51,7.72,13.46A98.15,98.15,0,0,1,95.33,159c.59,2.18,1,3.76,1,3.76s4,5.94,5.34,8.71,3.17,4.75,3.37,7.33-.4,12.47-.4,14.84.4,7.92-1,8.91-4.55,4.75-4.75,5.94-.59,4.94-2.57,5.73A24.27,24.27,0,0,1,92,215.45c-.79.2-3.76-1.19-6.73-7.32s-4.94-11.68-5.74-13.66-8.9-16.23-10.09-18.4-5-9.5-6.53-11.88-3.56-8.11-4.75-10.09-3.76-7.33-4.55-9.11-.4-3.17-1.59-4a5.64,5.64,0,0,1-2.77-4.15c-.39-2.38-.59-4.56-.79-5.55s-3.56-5.93-4.35-8.31-2-7.52-2-7.52-1.39-2.18-2-6.93-2.18-5.74-3.17-10.09S35.56,88,34.57,85.81,30,71,30.21,66.61,32,60.28,32.39,56.32,31,48.21,33,43.65A113.72,113.72,0,0,1,40.5,29.8C41.69,28.22,49.81,20.5,49.81,20.5Z"/><path d="M220.42,65.23a23.86,23.86,0,0,1,5.93-1.59c.8,0,6.73,6.93,6.73,6.93s2.18,3.76,4,4.55,3.17,4.16,3.17,4.16-.79,8.71-1.39,10.89-1.58,4.55-.79,7.12,2,6.53,2.77,8.91,3.37,15,3.17,19-1.39,7.72-1,9.9,1.58,4.75,1.58,7.71-1,5.15-.79,7.72a123,123,0,0,1,.2,15.05c-.4,4.15-.79,11.08-2,13.85s-6.53,6.53-5.94,8.71-2.17,12.27-2,17.22-1.58,31.86-1.58,36.81a45.6,45.6,0,0,1-2.38,15.64c-2,5.74-6.92,22.56-6.92,22.56a10.93,10.93,0,0,1-.6,8.51c-1.78,3.76-2,4.16-3.36,3.37a9.08,9.08,0,0,1-2.57-2.77,39.45,39.45,0,0,1-4.56-1.79c-1-.59-2.57.4-4,0s-4.15-4.15-4.15-4.15.59-7.52.39-10.29,2.78-11.29,3-19,1.78-42.16,2.58-47.9,2.37-18.21,2.17-23.16,0-20.19,1-25.14,2.58-11.67,2.58-11.67,0-15.24,1-18.41,2.77-7.13,3-9.7.4-5.34.4-5.34-2.18,0-2.18-2,1.78-6.53,2.58-8.71-.2-5.34-1.19-6.73S217.84,90,218,87.59s2-12.27,2.18-14.64S220.42,65.23,220.42,65.23Z"/><path d="M311.07,43.46s3.36-1.78,4.35-2.38a3,3,0,0,1,2.37,0s2.38-3.17,4.95-4,5.74,1.59,7.13,2.38,4,4,4,4A56.83,56.83,0,0,1,334.42,54c-.2,5.93-1,14.84-1.78,17.22s-2,2.77-2,4.94,1,6.93.79,7.72-1.78,5-1.78,5,2,4.16,0,10.29-2.77,9.7-4,11.28-3.16,2.78-3.36,3.57.79,3.36,1.58,5,2.18,3.36,2.38,5.54,2.17,18.4,3.16,23,3.17,14.45,4.36,19,1.58,13.06,1.58,13.06a34.68,34.68,0,0,1,2.38,10.29c.39,5.74,1.58,15.64,1.58,15.64s7.12,10.88,8.91,21.18,1.38,24.93,1.18,29.49a69.64,69.64,0,0,1-1,10.68c-.59,3-2.77,4.56-3,5.74a12,12,0,0,1-1,2.78s-8.31-.4-9.3-1.19-7.72-5.35-7.72-5.35-2.57-.19-3-1-5.34-10.29-5.93-11.67-1-11.68-1.59-15.24-1.78-8.91-2.37-14.25-.6-16.23-1.39-18.61a52.72,52.72,0,0,1-3.56-14.45c-.59-7.12-2.57-33.45-4.16-46.11S303,121,303.74,117.88s-.39-6.93-.39-10.3,1.38-21.17,2.17-27.11,2.77-10.89,3.17-13.26S311.07,43.46,311.07,43.46Z"/><path d="M222.3,29.8l5-.89,4.75-8.31s4.46,1.18,6.54,1.48,2.07-.3,2.82.15.29,1.93.29,1.93A79.09,79.09,0,0,1,247.38,31c1.19,1.93,6.09,8.61,7.28,11.72s2.08,3.27,2.22,5,.3,8.17.3,8.17,4.16,2.22,5.2,6.53A25.19,25.19,0,0,1,263,73.29c-.59,3.12-.3,11.73-.3,11.73s3.12,2.52,3.42,4.45S267.27,97,267.27,97s1.93.9,1.93,4.16,0,12.17.45,12.92,2.37,2.22,2.23,4.89,2.37,8.47,3.26,13.22,2.67,15.58,2.53,21.22-2.23,16.48-2.23,16.93,4.45,8.31,5.34,16.77a151.81,151.81,0,0,0,3.12,17.52s3.41,2.37,3.86,4.89a62.66,62.66,0,0,1,.59,6.83s1.93,4.46,3.42,7,1.63,5.94,1.48,8.76-.29,3.71-.89,3.71-4.75.59-7.87-.3-14.25-8.76-15.29-12.32-.44-5.19-.44-5.19-1.49-.45-3-3.72-8.61-19.29-10-24.34-.59-8.61-.89-13.51,1.19-8.61.3-11.58-3.12-6.68-4.3-11.28-3.57-18.85-3.57-23.3.89-11.73-.29-14.11-4-10.24-4.46-15.58.6-10.1-.29-11.43-3.42-10-3.42-16.18a20.64,20.64,0,0,1,2.38-10.1l1.18-.44a3.45,3.45,0,0,1-.74-3.27s-1.19,1.49-5.49-2.67-6.83-6.38-7.42-11.58c0,0-2.67-4.45-4-7.27A50.47,50.47,0,0,1,222.3,29.8Z"/><path d="M2.9,75.37a51.1,51.1,0,0,0,2.82-4.45c.44-1,3.12-1.93,3.56-2.67s.59-1.49,1.34-1.93,3.56.74,4.9,1.78,7.42,8.31,7.57,9.05.59,3.42.59,3.42,1.19,4.15,2.08,5,2.82,2.82,3,3.57,5,11.28,6.08,13.51,1,7.57,1.34,9,4.3,4.75,4.75,6.38.59,8.91.89,9.65,6.23,9.35,7.42,13.07,0,3.11,1.93,6.08,8.17,18.26,9.21,23.75,2.52,18.56,2.07,20.78a32.49,32.49,0,0,0-.44,5.2s2.52,2.52,3,4.9.29,6.38.59,8.46,1.48,2.52,1.93,5.64,3,15,4.31,25.09A197,197,0,0,1,73.26,263c0,1.79-1.78,4.16-1.78,4.16s-1.78-.3-2.38.3-4.15,8.76-5.49,9.2-8.46.45-8.46.45-1.93,1.78-2.82,1.78a2.07,2.07,0,0,1-1.93-1.64c0-.74-.3-3.11-.3-3.11s-3.56.44-4.75-.45-1.48-5.19-1.93-6.38-8.76-38.15-9.2-42-1.49-18-2.08-22-1.34-11-2.82-15.59-2.82-29.83-3-35.33-.3-7.72-1.48-10.09a176.86,176.86,0,0,1-6.39-19c-.89-3.86-1.18-10.39-1.93-12.32s-1.18-.74-1.78-3.86-1.18-7.72-1.18-7.72-5.05-7.13-8-9.35S.67,86.8.37,85.76s.45-4.15.3-4.6S-.67,78.34.52,77.3,2.9,75.37,2.9,75.37Z"/><path d="M129.17,21.29a4.63,4.63,0,0,1,.6-2.77c.79-1.19,4.75-4.36,5.93-5.54a1.92,1.92,0,0,1,2.58,0l.59,1.58s9.7,3.17,11.68,5,14.84,11.87,17.42,18a46.75,46.75,0,0,1,3.16,11.87,16,16,0,0,1,2.38,5c.39,2.18,3,21.18,3.56,24s1,7.52,1.58,8.91a38.89,38.89,0,0,1,2.18,11.68c0,4.55-.2,15.24-1,17.81s-1.78,5-1.78,5a13.94,13.94,0,0,1-1,7.12,52.64,52.64,0,0,1-4.35,7.92c-.4.59-.2,4.95-.8,6.93a28.35,28.35,0,0,0-1.18,7.12c0,2.18,1.38,2.18.39,5.74s-2.17,5.35-3.36,8.91-5,17.81-6.93,23.15a66.44,66.44,0,0,0-4,15.84,30.3,30.3,0,0,1-2.17,9.3,18.6,18.6,0,0,0-1,4.75,21.51,21.51,0,0,0-.8,4.16c0,1.38-4.15,3.16-4.94,2.77s-4.36-2.38-4.36-2.38a13,13,0,0,1-5,.4,33.35,33.35,0,0,1-5.93-2.18,27.35,27.35,0,0,1-3.37-.2c-1.19-.19-3.76-4-4.35-6.13s-1.19-4.55-1.19-4.55,3.36-4,5.54-17.62,5.35-27.51,7.13-32.66,4.15-11.08,4.15-11.67-1.38-1.19,0-6.93,3.57-14.05,4.36-17.81,3.36-16.63,3.16-18.41,1-13.46.6-16,.2-3.57-.4-5.35.4-11.48-.2-14.64-2-9.9-2.57-10.49-2.18-2.38-2-4-.79-4-2.37-6.34-5.94-7.12-6.53-8.51S131,34.55,129.77,33s-4-5.74-5.15-6.73a6.35,6.35,0,0,1-2-3.76c0-.8,3.17-2.77,3.37-3s1.58.79,1.58.79l1.58,1.58"/><path d="M169,20.87a2.83,2.83,0,0,1,1.29-2.67s5-1.3,7.42-1.69,7.35.71,8.68.69a4.6,4.6,0,0,1,2.67,1.29s1.63,9.81,2.2,12.28,1.48,5.11,1.94,6.88.49,10.79,1.18,15.74,3.29,22.27,4.06,27,.31,10.7,1.79,15.82,4.45,22.16,5.11,25.34,2.25,10.33,1.78,14.49-.87,22.68-.87,22.68-.88,7.27.51,12.12l1.39,4.85A11.73,11.73,0,0,1,208,182c-1,3.9-3.82,12.88-4.11,18.46s-.87,15-.28,19.21-6.37,28.15-7,31.16a52.83,52.83,0,0,1-2,6.93,8,8,0,0,1-4.07.23l-2.93-.76a1.72,1.72,0,0,1-1.77,0l-2.67-1.3s-2.92.13-2.85-1.38,1-12.93.77-16.12.29-5.14,1.44-11.61.26-14.61,1.62-18.79,7.1-12.84,6.76-18.5-1.72-16.44-1-19.37.47-5.5.25-8.24-.39-3.27.84-4c0,0-1.24-.16-1.62-2.11S187,142.36,186,139.72s-2.27-18.47-3-21a41.83,41.83,0,0,1-1.86-7.06c-.3-2.56-1.65-4.32-1.69-7.86s.13-10.27-1.25-14.68-3.34-18.54-4-22.16-2.3-13.87-2.17-17.77a63.71,63.71,0,0,0-.41-11c-.48-3.09.35-7.53-.48-9.91S169,20.87,169,20.87Z"/><path d="M111.76,38.31a23.61,23.61,0,0,1,3.56-2.18s6.33-.79,8.31,0l2,.79a16.49,16.49,0,0,0,3.56,1.59,3.8,3.8,0,0,1,2.77,4.15c-.19,2.18-3.16,10.89-4,14.26s-2.38,9.89-2.58,12.27-.2,14.25-.39,17.61a74.78,74.78,0,0,0,.79,13.06c.59,4,0,6.93-.4,10.69s-.39,12.27-.39,17,0,6.73-.6,8.71a11.67,11.67,0,0,0-.79,4c0,1.39.79,7.92,1.39,12.47a97.27,97.27,0,0,1,.79,12.07c0,3.17,2.18,10.3,3.36,13.86s5,11.28,5.94,13.66,5.54,10.68,5.94,12.07a10,10,0,0,1,.2,3.17s-4.56-.4-6.14-.4-4.55,1.19-6.53.2-3.56-2-3.56-2a14.51,14.51,0,0,1-5-.2c-2.38-.59-4.36-2.18-5.35-2.57A12.32,12.32,0,0,1,112,200s-4-15.24-4.55-19.39,0-16.43-.2-20a108.83,108.83,0,0,0-1.38-12.87c-.79-4.35-3.37-7.52-3.37-11.48s0-14.64-.39-18.21,0-7.72,0-11.08-1.19-12.87.2-18.8,4.15-12.67,4.94-15.64,0-11.08,1.39-17.42,2.77-9.3,3-11.48S111.76,38.31,111.76,38.31Z"/><path d="M88.1,21.19c1-4.69,3.86-5.34,3.57-8.61s1.48-4.75,3.26-6.23,3.86-1.49,3.86-.6a46,46,0,0,0,2.08,8c.89,2.37,1.78,10.39,2.38,14s1.78,5.05.89,9.2a24.53,24.53,0,0,1-2.38,6.83c-.3.6.3,6.53.3,13.07s-.6,11.57-.89,16.92,2.08,9.2.89,14.25-.6,13.66-.3,18.11,1.19,16.63,3.86,21.67a39.81,39.81,0,0,1,4.16,10.69c.59,2.67,3.26,5.64,3.86,11.58a54.81,54.81,0,0,1-.3,11.87s1.09,1.79,1.09,6.73.79,12.67.79,15.44.4,9.9.59,12.87,1.78,35.82,1.59,37.6-.2,4.16-1.39,4.75-4.35.6-4.35.6a32.7,32.7,0,0,1-4.16,1.58c-1.58.4-5-.79-5.94-1.58a3.32,3.32,0,0,0-2.57-.4s-.79,1.78-1.19-2-2.37-38.4-2.57-41.76-2.77-29.89-2.77-32.66.2-6.73-.79-9.1-2-16.83-2.18-21.38-2-11.87-2.77-15.63-2-6.73-2.38-10.69-1.58-14.25-1-19a120.08,120.08,0,0,0,.4-14.06c0-2.77-1.58-3.56-.79-12.27s3.16-16.43,3.56-18.8a50.48,50.48,0,0,0,.4-10.29C86.72,27.13,87.11,25.94,88.1,21.19Z"/></g></g></svg>