<svg xmlns="http://www.w3.org/2000/svg" viewBox="0 0 172.05 388.92"><g id="圖層_2" data-name="圖層 2"><g id="圖層_1-2" data-name="圖層 1"><path d="M26.46,42s3.51-.31,4.21,1.71-.09,3-.09,3,2.86,1.73,1.61,4.65c0,0,2.33,2.13,1.61,4s2.06,2,1.88,4.1l-.18,2.1s2.72.64,1.73,3l-1,2.38s3.8,1.17,3.16,3.88-1,2.18-1,2.18,2.6,2.27,2.49,3.89,2.34,3.49,2.16,4.91l-.37,2.85s2.18,1,1.53,3.09l-.65,2s2,.44,2,3.82l0,3.39a6.84,6.84,0,0,1,1.59,2.61,5.41,5.41,0,0,1-.17,2.1,3.45,3.45,0,0,1,1.47,3.57c-.58,2.24,2.54,3.41,2.43,5l-.23,3.25a3,3,0,0,1,1.73,3l-.21,4.6a2.27,2.27,0,0,1,1.93,2.28c0,2-.14,4.8-.14,4.8s3.89,2.72,2.25,7.14a8.34,8.34,0,0,1,2.12,6.74,8,8,0,0,1,1.76,5.05,12.06,12.06,0,0,1-1.29,4.75,6.58,6.58,0,0,1,2.76,4.7c.11,2.9-.89,3.93-.89,3.93A5.89,5.89,0,0,1,63,164.72a4,4,0,0,1-1.57,3.95s3.36,3.13,3,4.83-2.32,3.75-2.32,3.75,2.45,1.18,2.55,3.42a9,9,0,0,1-1.56,4.62s2.24.57,2.21,3.75-1.3,4.08-1.3,4.08,1.77.52,2.75,3.35-.08,4.33-.08,4.33a5.84,5.84,0,0,1,2.09,4.7c0,3.18-1,4.41-1,4.41a12.61,12.61,0,0,1,1.81,3.9c.5,2.09-.82,4.81-.82,4.81A8,8,0,0,1,71.31,223a4.07,4.07,0,0,1-1.3,4.07s1.86,2.75,1.75,5.05a7.74,7.74,0,0,1-1.16,3.81,6.13,6.13,0,0,1,1.94,3.62,5.16,5.16,0,0,1-1.3,4.08s1.43.86,2,3.83a6.77,6.77,0,0,1-1.15,5.15,6.39,6.39,0,0,1,2.42,3.69,8.76,8.76,0,0,1-.76,4.34,10.73,10.73,0,0,1,1.64,6c-.3,3.05-1.05,2.85-1.05,2.85a14.72,14.72,0,0,1,1.43,6.07c-.16,2.78-1.51,3.47-1.51,3.47a7.77,7.77,0,0,1,2.3,5.32,9.48,9.48,0,0,1-1.22,5s1.39,2.69,0,4.53c0,0,.89,1.27.59,4.32a11.5,11.5,0,0,1-1.82,5.17,10.3,10.3,0,0,1,.33,4.86,20.09,20.09,0,0,0-.06,5.69,16.13,16.13,0,0,1,2,5.65,9.33,9.33,0,0,1-1.41,5.7,9.27,9.27,0,0,1,.59,4.32,9,9,0,0,1-.89,3.94,8.54,8.54,0,0,1,.81,4.92c-.37,2.85-1.24,3.61-1.24,3.61a5.31,5.31,0,0,1,.6,4.32,7.28,7.28,0,0,1-2.25,3.95,6.52,6.52,0,0,1,2.37,5.51c-.43,3.32-3,4.91-3.57,6s1,4.86-.59,6.77a16,16,0,0,0-2,2.74l-1.52,2.79s2.92,1.25,1.85,2.07-5.39,1.43-7.2,2.73-2.79,3.69-4.29,3.31a17.7,17.7,0,0,1-2.85-1.05A40.79,40.79,0,0,1,51,384c-2.55,1.79-2.56,1.12-6.25,3.53S41,386.4,39,386s-3.66-.77-4.46.19-1.58,3.27-3.82,2.69A31.38,31.38,0,0,1,22.16,385a6.39,6.39,0,0,1-2.77-4.7,16.74,16.74,0,0,0-4,.93c-.94.56-1.83-.72-1.83-.72a6.23,6.23,0,0,1-3.86,0c-1.83-.72-4.26-5.09-6.36-5.26s-1.38-2.69-1.6-4-1.61-4-1.09-5.06,2.61-2.27,1.78-4-2.89-3.75-2.36-4.84,2.38-3.54,1.89-5S.39,349.79.78,348.3a21.06,21.06,0,0,1,2-4.08s-2-5-1.57-6.48a6.21,6.21,0,0,1,2-2.73A35.18,35.18,0,0,1,2,330.9c-.08-.88,2-2.73,2-2.73s1-3.73.48-5.15l-1.06-3s3.26.91,2.57-.44a68.34,68.34,0,0,1-2.2-7.61s2-2.73,1.71-3.54a36.43,36.43,0,0,1-.86-9c.31-2.38.47-5.83,0-7a11.22,11.22,0,0,1-.12-4.26c.11-1.62.89-4.61,1-6.23s-.38-3,.07-5,1-3.73,1-3.73-.76-.87-.45-3.24a27.08,27.08,0,0,0,.21-4.61,17.65,17.65,0,0,1,0-3.18,9.51,9.51,0,0,1,1.38-3.19,10.51,10.51,0,0,1-1.61-4,7.2,7.2,0,0,1,1.1-4s-2.33-2.13-1.4-4a10.77,10.77,0,0,1,2.12-3,28.35,28.35,0,0,1-.61-5c-.1-2.91.23-3.25,0-3.85A6.5,6.5,0,0,1,6.61,231a7.08,7.08,0,0,1,1.64-3.75,10.11,10.11,0,0,1-1.2-4.11c0-2,.91-2.58,1.44-3.67s-1.72-2.34-1.21-4.78,2-4.09,1.76-4.69-2.25-1.94-1.68-4.17,1.43-5,1.43-5-2.59-.91-2.95-3.27,2.54-1.8,2.52-3.83S7,192.38,5.88,190.5s1.79-2.66,2.18-4.15-2.67-2.47-2.89-3.75,1.86-2.46,2.58-4.3-1-1.47-2.42-3.69,1.65-3.06,1.91-4.28-1.44-1.54-2.41-3,1.44-3.67,2.24-4.62S4,160.36,3.77,158.4s3.47-3,3.26-3.63-2.13-2.88-2.62-4.29,2-3.88,2-3.88a22.72,22.72,0,0,0-1.81-3.9c-1-1.68,2.17-4.83,2.17-4.83s-2.47-2.54-2.15-4.24,2.46-3.34,2.46-3.34-2.38-1-2.48-3.22,2-4.56,2-4.56S4,122.07,4.21,120s.49-3.79.49-3.79S2,114.39,3.37,112.34a36.91,36.91,0,0,1,3.12-4s-2.64-.44-2.13-2.88A12.94,12.94,0,0,1,6.6,100.8S4,99.21,4.25,97.32s1.59-2.6,1.58-3.27S4.65,92,4.63,89.94a8.55,8.55,0,0,1,1.3-4.08,6.57,6.57,0,0,1-.73-4,13.81,13.81,0,0,1,2-4.56,7.92,7.92,0,0,1,1-6.23s-1-5.53.72-7.72,1-2.86,1.82-5.17.89-4.61,1.94-6.79,4-3.43,5.89-4.54,3.09-2.2,4.76-3.24A18.16,18.16,0,0,1,26.46,42Z"/><path d="M147.56,285.06s-.67,4.11-.93,4.85-2.39,1.56-2.39,1.56l1.1,2.55a11,11,0,0,1-3.41.28V294a26.09,26.09,0,0,1-4.61-.74,2.3,2.3,0,0,1-1.74-2.45,23.2,23.2,0,0,1-4,.4c-1.42-.07-2-2.64-2.29-3.57a21.51,21.51,0,0,1-.32-3.93s-2.13-.42-2.68-.61.1-2.13-1-3.44a5.6,5.6,0,0,1-1-3.44,10,10,0,0,0-2.37-1.53,1.78,1.78,0,0,1-.89-1.46c-.36,1.15-.7,2.29-.91,3.12-.64,2.47-1.78,6.11-2.66,8.4s-1.67,4.9-1.67,4.9l-.69.49a39,39,0,0,1,1.15-4.26,71.07,71.07,0,0,0,2.62-8.61c.23-1.36,1.07-4.44,1.74-6.8-.66-.64-1.78-1.74-2.73-2.73-1.44-1.53,1.18-4.67,1.18-4.67s-2.37-2.46-3.75-3.86,1.29-3.17,1.29-3.17-1.81-1.35-4.09-3.15S114,248,114,248a8.46,8.46,0,0,0-2.27-2.12c-2-1.5-.47-4.09-.47-4.09s.28.1-2.15-1.56c-2.21-1.5-1.37-6.21-1.19-7.07-.13.08-.63,0-2.44-1.4-2.56-1.91-.11-5.58.32-6.18-.16.14-.63.29-2-.79-1.79-1.43.66-5.87.66-5.87s-.87.74-2.74-1.66,1.87-7.62,1.87-7.62a20.28,20.28,0,0,1-2.82-2.93c-1.14-1.52,2-5.93,2-5.93a13.92,13.92,0,0,1-1.84-1.86c-1.1-1.31,1-4.3,1-4.3s-.92-.62-2-1.49,1.1-2.63,1.1-2.63a6.41,6.41,0,0,0-1.37-3.25c-1.29-1.68,1.23-3.92,1.23-3.92l-1.17-.81c-2.34-1.63-.18-5.23-.18-5.23-2.31-1.41-.46-4.71-.46-4.71-2.16-1.25-1.12-4-1.12-4-1.66-1.18.26-5.59.26-5.59-2.19-1.78-.4-5.51-.4-5.51-1-.75-.25-3.81-.25-3.81-2.34-1.31.31-5.78.31-5.78-2.12-1.34.07-5,.07-5a4.92,4.92,0,0,1-2.37-2.46c-1.07-2,.81-5.41.81-5.41s-.67-.43-1.46-2.67,3.14-7.71,3.14-7.71c-2.61-2,.7-6.89.7-6.89a32.37,32.37,0,0,1-2.54-4.07c-.92-1.86,1.45-4.88,1.45-4.88l.58-2.9a15.55,15.55,0,0,0-2.52-2.31C94,102.15,94,95.07,94,95.07c-2.25-1-.81-8.55-.81-8.55-2.61-3.26.81-10.88.81-10.88-2.15-1.87.45-6.46.45-6.46a13.05,13.05,0,0,1-1.09-3.78c-.45-2.63,1.28-5.87,1.28-5.87l-.89-1c-2.18-2.51,1.48-4.35,1.48-4.35A14.66,14.66,0,0,1,93.92,52C93.24,50.58,95.77,48,95.77,48A12.89,12.89,0,0,1,94,44.83a2.81,2.81,0,0,1,0-2,57.4,57.4,0,0,0-5.87,1c-3.76.93-7.1,1.85-8.63,2.3s-6.81.16-10.93.54-5.29,1-5.29,1l-1-.63c1.87-1,14.49-2.09,15.69-2s3-.47,5.12-1.69,5.37-.79,9.29-1.38a8.22,8.22,0,0,0,2.52-.9,17.14,17.14,0,0,1,2.47-2.92,34.7,34.7,0,0,0-2-4.62,5.47,5.47,0,0,1,.5-5.41s-.93-4.86-2.5-6-1.48-.81-1.78-2a4,4,0,0,1,.17-2.32l.84-.33a19.24,19.24,0,0,0-.17,2.32c.06.43,1.35.56,1.78,1.12A30.56,30.56,0,0,1,96,26c0-1.06.06-5.28.41-6s1.27-5.56,4.16-6.44a54.47,54.47,0,0,0,8.74-3.83c2.64-1.38,5.22-2.57,6.56-3.76s4.6-4.12,6.09-4.85,4.43-1.49,5.54-.8,2,.88,3,1.54,2.61-1.29,4-1.12,4.24,0,7.05.85,2.8,2.4,3,2.59,4.86.31,8.52,2.28,4.48,6.28,4.91,6.84,1.85,0,2.53.14,1.93-1.1,4,.21.39,2.51.66,2.91,1.94,1.9,2.37,2.46-.45,2.54.12,4.18a3.48,3.48,0,0,0,1.57,2.08v2.08l1.52.41,1.26,1.15s-1.36.05-1.86,0-1.41,2.31-1.6,4.1-.61,6.62,0,8.69,0,5.57-.21,8.2-.21,4,.46,5A14.55,14.55,0,0,1,170.06,62c-.26,2.6-2.62,3.45-2.38,4.57s-2.06,3.32-2,4.68,1.34,3,1.36,5.12-2.2,4-2.2,4a21.11,21.11,0,0,1,2.69,5.47c1.06,3.25-1,3.36-1,3.36a44.34,44.34,0,0,1,1.39,4.4c.57,2.26-1.22,2.68-1.22,2.68a14.55,14.55,0,0,1,.84,3c.27,1.64-1.37,6.45-1.5,7.13a31.56,31.56,0,0,0,.95,6.32,9.85,9.85,0,0,1,0,5.38c-.44,1.61-2.06,7.26-2.06,7.26s1.4,4.09,1.82,6.2a33.1,33.1,0,0,1,.27,5.87,44.16,44.16,0,0,1,.16,8.64,24.31,24.31,0,0,1-1.12,5.71c-.57,1.67,0,3.93,0,6.09a4.29,4.29,0,0,0,1.64,3.35l-1.43,5.72s-.07,5.66.58,6.81a5.56,5.56,0,0,1,1,3c-.1.9-2.35,4.78-2.35,4.78s1.84,1.87,1.89,3.54-3.87,5.6-3.87,5.6,2.85,2.84,3.43,4.17-1.49,5.59-1.49,5.59c.85,2,.12,4.8-.78,6.55a3,3,0,0,1-2.64,1.69s3.84,3.58,4.29,4.67-.5.86-1.34,1.5-1.41,3.86-1.6,4.41.49.69,1,1.15.27,1-.45,1.92a10.59,10.59,0,0,0-1.28,2.56s1.69,1.71,1.8,2.89-2.31,3.14-2.31,3.14a6.73,6.73,0,0,1,1.73,5.54c-.34,3.71-3.37,3.82-3.28,4.16s1.39.78,1,4-2.18,2.46-2.18,2.46-1.44,2.41-1.26,2.78a11.37,11.37,0,0,1,1.16,2.67c.36,1.36-1.78,1.87-1.78,1.87s-1,2-.67,2.87a6.41,6.41,0,0,1-.14,3.16c-.19.86-1.59,1.32-1.59,1.32l.66,3.84a11.88,11.88,0,0,1-.85,2.5c-.41.58-1.93,1.72-2.25,2.33s.24,1.43.08,2.51-1.47,1.57-1.47,1.57a20.65,20.65,0,0,1,0,3c-.14,1-1.78,2.49-1.78,2.49a5.64,5.64,0,0,1,.63,2.08C150.27,283.19,147.56,285.06,147.56,285.06Z"/></g></g></svg>