<svg xmlns="http://www.w3.org/2000/svg" viewBox="0 0 309.04 577.92"><g id="圖層_2" data-name="圖層 2"><g id="圖層_1-2" data-name="圖層 1"><path d="M230.06,544.3c-1.2-2-1.37-6.39-1.37-6.39l3.78-2.34.93-2-2.77-.41-.21-3.27s-5.24-8.67-6.13-11.7-1.89-23.37-2.06-30.16,1.85-56.92,1.85-56.92S228,420,228.65,416.94s7.23-46.52,8-51,5-12.93,5-12.93a2.41,2.41,0,0,0,2.89,1.51c2.11-.56,1.42-2.61,1.6-3.17s-2.51-3.74-1.63-4.58,6.51-2.56,6.51-2.56-.12.37.92,1.31c1.74,1.57,4.44.46,5.77-2.18a3.28,3.28,0,0,0-2.41-5,3.32,3.32,0,0,0-3.1,1.78l-4.08,1a140.78,140.78,0,0,0,6.47-12.86c3.42-7.7,1-15.91,1-15.91s4.6-4.27,7.4-5.74S279,297.22,279,297.22s0,.71,2.71-.18a4.39,4.39,0,0,0,2.87-5.93c-1.06-2.17-4.12-1.18-5.95-.23a3.28,3.28,0,0,0-1.79,2.81s-4.33,2.42-6.3,3.85-9,3.4-10.63,4-9,2-9,2c-1-1.24-2.84-3.64-2.84-3.64l1.13-1.68,1.29-.21c2.64-.43,1.65-4,1.65-4l12.29-15.22,2-.29c2-.28,2.33-1.92.61-4.91s-5.12-3.84-7.21-2.35.36,4.7.36,4.7l-1.17,1.17a5.54,5.54,0,0,1-1.64-1.64,4.53,4.53,0,0,0-5.86-.81c-2.28,1.43-.45,3.74-.45,3.74l-1.18,2.48-8.52,14.88-2.57-2.53-.67-2.76S247,252.78,248,248.39s6.18-14.9,8.57-20,14.91-26.55,18.15-29.1,11.39-3.18,17-3.07a78.86,78.86,0,0,1,8.59.54c2.32,3.68,5.4,3.62,7.37,1.89s2.47-8.91-2.11-10.24-5.71,2.3-5.71,2.3-12.82-.43-19.44.56-9.48,3.57-9.48,3.57-1.19.24-.92-1.62,3.79-4.32,4.13-4.42.23-2.37.23-2.37l-1.7-.43,2.3-3.77a9.79,9.79,0,0,1,3-.3c1.6.09,2.91-2.15,2.75-4.24a6.46,6.46,0,0,0-1-3.15,6.89,6.89,0,0,0,1.8-.87c.79-.57,2.34-4.88-.84-7.09s-5.67-1.77-7.64,0,1.82,4.64,1.82,4.95-3,3.66-9.42,11.23-27.14,46.48-27.14,46.48,1.18-7.37,1.6-9.69S245,199.26,245,199.26s3.72-.17,4.79-3.61-2.77-4.84-2.77-4.84l1.94-8.16s1.33.62,3.32-1.51.79-7.1-3.48-8.43-6.16,1.75-6.16,1.75l-1.5-1.39a5.65,5.65,0,0,1,.32-2.34c.47-1.49,6.92-13.34,6.92-13.34,6.46-.12,6.19-10.71,2.27-12.85a7.52,7.52,0,0,0-7.17-.2,10.73,10.73,0,0,0-1-3.36s1.93-.32,2.43-4.55-3.21-6.71-3.21-6.71l2.32-9.37s2.64-4.88,3.74-6.78-.23-5.47.15-6.68,2.48-2.39,3.79-4.63a2.09,2.09,0,0,0-.74-3.19,9.38,9.38,0,0,1,2.82-2.18c1.26-.42,2.63-.91,6.72-5.85s-.72-10.11-3.91-11-4.38,2.61-4.38,2.61c-.07-2.37-3.25-5.91-3.25-5.91a6.92,6.92,0,0,1,2.51.79c1.12.65,2.9-1.14,4.73-3.73s2.37-7.61-2.72-13.18-10.43-2.85-10.43-2.85.42-.68.64-3.67-.94-4.17-3.88-7.84-7.94-1.66-7.94-1.66-.31-6.21-3.85-7.93a7.17,7.17,0,0,0-6.58.19A15.5,15.5,0,0,0,211,35.21c-6.07,1.16-6.43,4.93-6.43,4.93s-6.4.24-8.19,2.74c-3.67,5.09-2.43,8.42-.78,7.71S198,52.14,198,52.14a8.77,8.77,0,0,0-3.41,5.06s-.15-1.48-3.43,1.17a5.23,5.23,0,0,0-1.54,6.25l-3.74,10L176.2,95.72s5.07-11.67,4.79-13.39-1.44-7.79-1.44-7.79a11.26,11.26,0,0,0,6.18-8.06c1.3-6.12-2.59-6.72-2.59-6.72,2.17-2.38,6.1-5.85,6.1-5.85,5.8.38,2.37-8.23,2.37-8.23l1.62-8.47L199.86,33s3.33.43,4.57-2.24.07-6.1-3.8-8.73-5.75-1.18-5.75-1.18a12.84,12.84,0,0,0-3.82-3.44c-5.33-2.69-11.36-1.5-8.54-2.05S189.37,13,187,7.54s-8-9.63-14.71-6.43-5.76,11.26-5.76,11.26a7.28,7.28,0,0,0-4.29.7s-3.24-5.3-7-6.27a10.57,10.57,0,0,0-11.54,5c-2.86,4.62-.28,10.72-.28,10.72a3.25,3.25,0,0,0-2.25,1.34,8.44,8.44,0,0,0-10.16-6,11.65,11.65,0,0,0-8.79,9.89c-.71,4.88,3.17,4.87,3.17,4.87l-2,9.76a13,13,0,0,0-3.41,1.79c-2.31,1.53-3.17,4.93-1.66,6.62s2.09-.16,2.09-.16l1.21,2-.16,7.69s-6.61-10.82-8.8-18.85,1.13-21.26,1.13-21.26.73-.38,2,.64,8.48-.41,9.16-6.52S119.58,4,110.82,3.35A12.62,12.62,0,0,0,98.57,9.93c-2.69-2.47-7.33-.66-12.06,3.37S84.3,23,86.31,25.06s5-.28,5-.28l4.55,6.32S94.16,30,89.77,32.26s-5.72,9.84-5.72,9.84l-1.2-4.66s3.47-5.23,2-8.35-6.66-3.5-11-2-8,5.45-8.24,10.07,2.8,8,5.14,7.72,4.75-2.8,4.75-2.8c1.69,1.75,5.06,10.55,5.06,10.55s-3.59-.91-8.45,2.26-2.27,9.89-2.27,9.89A9,9,0,0,0,65,67.15l-1.61-7.23s3.52-2.16,4.09-4.63-4-8.18-7-8.92a9.47,9.47,0,0,0-10.3,5.56c-1.88,4.71.92,6.2,1.12,6.87s-.49,16-1,22.92-.66,26.3-.66,26.3l-6.18-9.58a6.2,6.2,0,0,0,2.09-1.79c.62-1-1.28-3.76-3.63-6s-7.4-.78-10.85,2.43-2.28,6.32.48,10.24,5.78,3,6.44,3.85l5.3,6.54c-.76,3.43,3.59,4.18,3.59,4.18l3.8,5.47s1.45,8.1,2.64,12.14-.64,19.68-.67,22.73,2.95,9.17,4.48,12.1,2.79,15.55,4.21,21.8,5.24,42,6,49.29,7.51,77.88,7.51,77.88-6.09-52.06-6.71-55.92-8-55.71-8.73-59.3-4.57-26.51-5.76-30.55-5.77-16.78-7.25-21.83-4.12-17.19-4.12-17.19a13.94,13.94,0,0,1,2-3.36c1.62-2.25-1-6.73-3.27-7.14s-6.57-.52-8.78,4.6,3,6.13,3,6.13a11.64,11.64,0,0,0,1,5.52c1.36,3.48,5.69,17.07,9.45,25.58s4.23,12.94,4.21,16.91S51.74,198.29,52.7,205s11.67,63.58,13.42,77.58S72.61,351,72.61,351s-5-12.74-7.57-19.34-20.73-59.07-20.73-59.07,1.8-.36,1.24-3a5.25,5.25,0,0,0-7-3.55,4.38,4.38,0,0,0-2.05,6.55c1.33,1.63,4.37,1.66,4.37,1.66s11,33.87,15.61,45.09,12.4,34.76,12.4,34.76a11.37,11.37,0,0,0-2.13,6.82c.16,3.88,3.12,13.52,3.12,13.52s-4.29-4.4-4.85-5a14,14,0,0,0-4.24-2.09c-.47,0-7.95-2.48-16.08-9.75s-16.14-6.11-24.36-6.69A60.28,60.28,0,0,0,8.48,351l-.93-.26c-3.25-.86-4.63-.83-6.8,1.7s.81,3.77,3.08,3.87a3.62,3.62,0,0,0,3.24-2.05,12,12,0,0,1,6.2-1.74c3.32.13,14.1,1.35,19.58,2.9s14.39,8.77,21.6,13.62,20.42,29.62,23,34.55,9.87,25.71,9.87,25.71l-1.63,1.33L83.59,429s-3.81,1.42-1.72,2.07S86,434.67,86,434.67l.2,7.7s-5.14-3.13-6.67-.7,2.38,3.65,5.32,5,6,4.78,6.47,5.23-.15,13.72.57,22.2-1.07,26-1.07,26l1.43,11.61-2.65,4.06,2.07,6.61L85.44,527l-1.76-2.69s-2.36-.28-2.34.64a19.49,19.49,0,0,0,1.66,5c.33.41-4.94,2.12-4.52,2.72s2.71-.84,4.48-.14,2.63,2.35,4.11,5,2.07,4.16,2.55,5.07-.59,2.88-.59,2.88-3.47-.17-4,.58.06,5.22.06,7.66-2.34,5.54-3.82,7.84-.82,5.55-1,6.57,1.37,6.39,1.67,7.4,2.91.45,3.29.72a10.23,10.23,0,0,0,2.85,1.66c1.25.39,3-.89,6.12-3s7.65-3.43,9.66-4.49,7.65-.51,8.31-.16,3,.78,4,1.73,3.12-1.17,3.72-1.14,5.62-.38,8.77.29a6.72,6.72,0,0,0,6.38-2.29c.58-.89,6.34-1.69,6.34-1.69l5.88-1.22,4.31.88a8.18,8.18,0,0,0,3.15.22c1.75-.22,9-1.79,9-1.79l5.2,1.93,5.54-.11,3.33,2.57s6.84-1.84,7.63-1.9,3,2.15,3.33,2.56,8-1.77,8-1.77l11-2.84,4.81.27s3.58-1.17,4.66-2.21-.35-4.24-.09-5.08,5.2-3,5.81-4.91l1.91-6.13c.13-.42,3.31-.81,3.31-.81S231.25,546.36,230.06,544.3ZM61.77,370.54c5.24.87,10.58,14.62,10.58,14.62C69.63,380.64,61.77,370.54,61.77,370.54Zm13.91,12.29c-.63-1.42-4.05-11.05-4.8-14a46.35,46.35,0,0,1-.81-8.21c3.07,5.85,8,26.35,8,26.35A40.45,40.45,0,0,1,75.68,382.83Zm160.52-69.5c0-.46.38-11.5,1.18-15.54,0,0,2.88,3,2.41,3s-2.8,5.55-2.67,7.12A19.64,19.64,0,0,1,236.2,313.33Zm-1.87,15.32,2.67-7.58s-.18,5-.21,5.59S234.33,328.65,234.33,328.65Zm12.79-21.4s2.93,3.36,2.9,4.43l-5.26,2.18S246.41,308.56,247.12,307.25ZM244,332.11c-1.33,3.26-4.21,9.08-4.21,9.08l-.88-4.55,1.65-5.3,2.35-7.52,6.79-4.61C250,321.6,245.28,328.85,244,332.11Zm8-26.7s6.31-.63,8-1.64a26.42,26.42,0,0,1,4.72-1.89s-7.53,4.08-9,5c-1.69,1-1.77,1.74-1.77,1.74Zm-29.21,115.2a60.34,60.34,0,0,1,.9-8.28c.76-3.89,3.6-14.47,4-14.81,0,0-1,9.63-1.73,13.38A64.89,64.89,0,0,1,222.77,420.61Z"/></g></g></svg>