<svg xmlns="http://www.w3.org/2000/svg" viewBox="0 0 339.27 317.61"><g id="圖層_2" data-name="圖層 2"><g id="圖層_1-2" data-name="圖層 1"><path d="M23.21,78.34c5.34-10.68,26.12-24.25,28-26.11s5.6-5.6,7.46-5.6,11.19-7.46,14.92-9.33,13.06-7.46,13.06-7.46,0-1.86,5.6-3.73,11.19-3.73,14.92-3.73,24.25-3.73,26.11-5.59,7.46-1.87,13.06-5.6,7.46-3.73,11.19-3.73H165s3.73-3.73,7.46-3.73,11.19,1.87,13.06,0S198.55,0,202.28,0s9.32,5.6,13.05,5.6h3.73s18.66,5.59,22.39,7.46,24.24,5.59,29.84,11.19,20.52,22.38,26.11,26.11,11.19,3.73,13.06,9.33,1.87,16.79,5.6,18.65,1.86,7.46,3.73,11.19,0,18.65,0,18.65,3.73,5.6,5.59,9.33,0,11.19,1.87,13.06L331,134.3v1.86a2.59,2.59,0,0,1,3.73,0,5.79,5.79,0,0,1,1.86,3.73,1.83,1.83,0,0,1,1.87,1.87v28a2.59,2.59,0,0,1,0,3.73c-1.87,1.86-3.73,3.73-3.73,5.59s-7.46,18.66-7.46,22.39,0,9.32-1.87,11.19a26.93,26.93,0,0,1-5.59,3.73l-7.46,7.46a5.81,5.81,0,0,1-3.74,1.86s0,5.6-1.86,7.47l-5.6,5.59a1.83,1.83,0,0,0,1.87,1.87s5.59-1.87,3.73,1.86-9.33,11.19-11.19,13.06-7.46,11.19-9.33,13.06-13,11.19-14.92,13-11.19,7.46-13.06,9.33-5.59,5.59-7.46,5.59-7.46,3.73-7.46,3.73L235.85,304c-3.73,1.86-18.65,3.73-22.38,5.59s-20.52,5.6-24.25,5.6S165,319,151.91,317.09s-20.51-1.86-20.51-3.73-9.33-3.73-11.2-3.73-9.32-3.73-11.19-3.73S96,300.3,84.77,292.84s-13.06-11.19-14.93-13c0,0-5.59,1.86-7.46-3.73S51.19,263,53.06,261.13s0-3.73,0-5.59-1.87-3.73-3.73-5.6-3.74-5.59-3.74-7.46v-1.86l-3.73-3.73H40s-1.87,5.59,0,7.46v5.59s-7.46,1.87-9.33,0-3.73-7.46-5.59-9.32-3.73,0-3.73-3.73-5.6-14.93-7.46-18.66-3.73-13-5.6-18.65-1.87-9.32-3.73-14.92S.83,166,.83,158.55-1,138,.83,132.43s3.73-7.46,5.59-9.32,1.87-9.33,1.87-9.33v-7.46c0-5.6,5.6-14.92,7.46-18.65S21.35,82.07,23.21,78.34Z"/></g></g></svg>