<svg xmlns="http://www.w3.org/2000/svg" viewBox="0 0 163.28 549.31"><g id="圖層_2" data-name="圖層 2"><g id="圖層_1-2" data-name="圖層 1"><path d="M7.59.22c2.11-.66,4.9.2,11.75,2.31s17.11,9,27.8,18.36S64.76,40.7,69.45,45.81,84.06,64.63,88.71,72.07s4.37,10.23,12.14,25.78,8.82,22.57,12.16,31.38S123.53,148,123.53,148a19.8,19.8,0,0,1,7.87,3.53c2.54,1.91,1.57,3.76,5.14,6.51s4.8,5.46,3.56,9.52-1,3-.6,7.35,6,3.72,9.94,5.78,5.21,8.61,9.18,15.11,4.24,17.23,4.57,25.06a68.12,68.12,0,0,1-2.13,21c-1.89,8.14-2,15.72-3.54,22s-1.84,11.41-3.06,14.3A50.39,50.39,0,0,0,151,288.67c-.9,4.54,1.21,10.65,1.42,18.12s4.28,15.49,3.47,21.54-2.63,9.53-4.49,15.91-.92,11.89-1.7,16.78-2.83,7.66-5.55,16.24-1.34,9.9-5.16,14.39-6.51,11.32-7.78,17.13-3.53,7.88-5.45,11-4.72,15.79-10.14,25-7.39,8.5-8.94,10.34a43.67,43.67,0,0,0-5.07,9.13c-1.7,3.82-5.26,7.26-6.58,9.22s-9.7,19.67-11.64,23.95-6.21,7.95-8.26,11.3-9.14,15.24-12,19-7.1,5.12-8.9,8-10.1,9.74-13.06,12-11,1.32-12.63,1.06-5.82-.69-7.67-1.66-1-2-.64-3.28.89-4,2-4.86,5.15-.85,6.22-1.76,2.65-4.5,3.39-6.48,4.26-3.65,6.77-6.76,8.17-6,8.45-8.84,3.85-6.23,5.32-10.17,6.51-11.33,7.79-17.72S69.74,471.18,70.34,470s1.43-7.79,2.47-13.73,6.8-8.51,7.32-11.19,0-4.44-.76-9.82S83.68,423.1,87.91,415s9.08-17.93,8.81-22.49,2.79-18.86,3.11-24,6.16-18,6.74-24.16.37-14.23-1.41-18.7,2.13-14.79,2-19,.09-11.44-.85-17.53.67-11.43.22-18.44a12.94,12.94,0,0,1,5.09-10.88s-1.46-2.83-4.75-8.37.77-16.68.77-16.68c-4-4.16-1.73-7.39-4-10.93s-8-18-12.12-26.95.55-11.19.75-15.51,1.39-12.23,1.37-17.84,7.41-9.67,7.41-9.67c-.54-2.34,3.07-8.11,3.07-8.11a86.14,86.14,0,0,0-2.45-13.35c-2-7.51-7.62-30.49-14.29-42.52s-14.9-28.4-30-47.46S19.42,10.82,16.88,9.49s-8-.38-9.35.42S2.6,11.45,1.91,11.09.21,8.14,0,6.85C0,6.85,5.48.88,7.59.22Z"/></g></g></svg>