<svg xmlns="http://www.w3.org/2000/svg" viewBox="0 0 310.36 893.7"><g id="圖層_2" data-name="圖層 2"><g id="圖層_1-2" data-name="圖層 1"><path d="M120.72,7.35c-9.46,1.85-18.8,4.59-28.06,7.32L93,12.56c-10.37-.31-25.62,10-34.21,14.27C30.93,40.74,3.1,62.39,1.17,123.45.75,136.75,1,153,1.59,171.23.8,171.9-.1,172.89,0,173.89a10.34,10.34,0,0,0,1.81,3.5c.05,1.4.11,2.81.17,4.24A8.08,8.08,0,0,0,.2,186.06,8.72,8.72,0,0,0,2.45,192c0,.27,0,.54,0,.81A4.47,4.47,0,0,0,1,195.92c-.12,1.45.94,2.77,1.84,3.63,0,.67.07,1.33.11,2a6.33,6.33,0,0,0-1.57,2.29c-.48,1.43,1.14,1,1.73.84v.24a8.68,8.68,0,0,0-1.35,3c0,.8,1.19,1.33,1.59,1.49v.18l-2.18,2a2,2,0,0,1,1.16,2.9c-.93,2.05,1.36,3.91,1.53,4q.39,6.68.81,13.52a2.85,2.85,0,0,0-1,.8c-.76,1,.3,1.27,1.12,1.34l0,.61a2.23,2.23,0,0,0-1.35.75c-.81.93.39,1.3,1.49,1.45q.45,7.19.93,14.53a4.41,4.41,0,0,0-1.46,1c-.62.74.12,1.17.93,1.43a5.75,5.75,0,0,0-1.12,1.08c-1.16,1.55,1.55,1.93,1,3.09-.39.79.45,1.66,1.27,2.2q.57,8.37,1.16,16.86a3.07,3.07,0,0,0-.69.65c-1.16,1.55.19.78-.78,2.52-.73,1.31.74,1.85,1.84,2.12.13,1.88.27,3.76.4,5.64-.57.31-1.46.91-1.46,1.7s.94,1.44,1.72,1.94c.15,2.15.3,4.31.46,6.46a1.59,1.59,0,0,0-.25,2.43.72.72,0,0,0,.44.26q.25,3.69.53,7.36c-.61.29-2.42,1.26-1.94,2.23.32.63,1.32.86,2.16.94.1,1.29.19,2.57.28,3.86-.91.61-2.21,1.27-1.47,2.16a2.09,2.09,0,0,0,1.67.64q.29,4,.58,8l-.51-.51s-1.16,1.74-.2,2.52a2.88,2.88,0,0,0,.88.42c.66,9.22,1.32,18.42,2,27.55-1,.35-3.54,1.33-3.23,2.56.24,1,2.17,1.79,3.57,2.27.06.92.13,1.85.19,2.78-.88.41-2.61,1.32-2,1.91a6.09,6.09,0,0,0,2.23,1l.21,3.07c-1.22.77-3,2.08-2.64,2.86s1.9,1,2.91,1.11q.57,8.28,1.11,16.42c-1.2.82-2.85,2.15-2.08,2.76a5.56,5.56,0,0,0,2.31.73q.24,3.57.46,7.09l-.07-.09s-2.32,1.55-1.16,2.52a3.1,3.1,0,0,0,1.42.56c.05.65.09,1.3.13,1.95.28,4.39.52,8.7.76,13-1.53.76-2.09.85-1.92,1.52.11.43,1.15.91,2.07,1.26q.21,4,.39,7.9c-1.08,1.8-1.26,1.88.14,2.94.06,1.16.1,2.29.15,3.44-1,.56-4.07,1.34-2.75,2.82a23.55,23.55,0,0,0,3,2.59c0,.94.07,1.85.1,2.77-1.85.58-3.91,1.41-3.47,2.18s2.28,1.7,3.64,2.28q.24,7,.4,13.79c-1.87.4-4.84,1.29-3.84,2.28,1.35,1.36,2.51,2.9,2.31,3.48s-1.73,2.51-1.16,3.87,2.9,2.51,2.9,2.51l.05.09c0,1.58,0,3.14.06,4.7a38.19,38.19,0,0,0-2,4.29c-.3,1.19,1.34,2.37,2.12,2.86v.56c-.95.8-3.32,2.92-3.47,4.31-.13,1.15,2,1.37,3.5,1.39,0,.44,0,.88,0,1.32-.62.74-1.19,1.65-1,2.32a1.64,1.64,0,0,0,1,1c0,.36,0,.71,0,1.06-.75.41-1.48.9-1.39,1.19s.77.44,1.39.51v.71c-1,.59-2.13,1.47-1.77,2.07a4.28,4.28,0,0,0,1.76,1.16c0,4.18-.06,8.3-.11,12.39-1.09.44-2.54,1.09-1.65,2.48a3.24,3.24,0,0,0,1.6,1.31c0,3.16-.1,6.29-.16,9.41-1.87.41-4.76,1.28-4,2.62.58,1,2.29,1.6,3.85,2q-.16,6.9-.37,13.7c-1.27,1.52-2.43,3.22-2.13,3.83a3.78,3.78,0,0,0,2,1.26q-.17,4.85-.34,9.64c-1.42,1.57-2.67,3-1.63,4.36A5.62,5.62,0,0,0,18.05,568c-.32,8.25-.68,16.45-1,24.66-1.28.76-3.45,2.36-2.7,3.26.53.64,1.59,1.74,2.43,2.61-.06,1.4-.13,2.8-.19,4.21a3.35,3.35,0,0,0-1.27.72c-.94.93-.12,2.49,1,4.17-.33,7.17-.66,14.37-1,21.64a5.08,5.08,0,0,0-1.61,1.05c-.52.69-.57,1.53,1.46,2.52q-.12,2.74-.24,5.52c-1,.54-2,1.2-2.19,1.81-.28,1,.92,2.87,2,3.75,0,.17,0,.34,0,.51-3.1,75.75.77,127.15,10.82,156.52s17.78,39.43,20.87,43.68,2.7,1.54,4.64,2.32,6.18,10,9.27,12.75,8.12,9.28,12,13.53,3.09-.39,7.73,3.09,7.35,4.25,9.66,4.64,13.14,8.11,13.15,8.12c3.83,9.58,18.59,1.31,25.15,1a14.11,14.11,0,0,1,5.76.5c1.23.47,2.31,1.26,3.55,1.69a12.88,12.88,0,0,0,4.16.45c18.9-.06,39.21,2.76,57.22-3.24,7-2.32,9.28-3.87,13.92-5.41s6.57-1.16,12-2.32,7.73-3.48,13.14-7.73,13.91-11.21,17.39-13.14,7-6.57,10-16.62,13.14-20.1,15.46-27,10-24.35,11.59-37.11c.11-.88.25-1.84.4-2.87,1.18-.62,2.84-1.69,3.08-2.92a35.16,35.16,0,0,0,0-6.57s1.93-2.13,1.16-3.1c-.27-.34-.86-1.22-1.51-2.21.6-3,1.25-6.19,1.89-9.38,1.53-.26,2.52-.42,2.52-1a2.13,2.13,0,0,0-.58-1.35,3.86,3.86,0,0,0,1-2.51,6.16,6.16,0,0,0-1.5-2.26c.81-4.18,1.58-8.26,2.2-12,2-1.53,4.38-2.71,3.93-3.89-.53-1.43-1.74-7.69-2.37-8.42.18-2.2.43-5.12.73-8.6,2.22-1.27,4.51-2.78,4.16-4.81a57,57,0,0,1-.2-9.67l1.74-3.47s-2.09-2.87-3.85-5.36c.24-3.2.47-6.52.7-9.91,1-.35,2.45-1.23,1.22-3.29L306,675q.22-3.48.44-7a3.79,3.79,0,0,0,1.23-1.7,3.11,3.11,0,0,0-1-2c.26-4.58.5-9.19.69-13.75,1.25-1,3-2.64,2.46-3.52L309,645.6s.77-3.78-1.35-4.37c.21-7,.3-13.78.23-19.9,1.07-1,1.91-1.81,1.5-3.17a5.12,5.12,0,0,0-1.63-2.26c0-.48,0-.95-.05-1.42,1.2-.42,2.69-1.21,2.46-2.51s-1.59-2.82-2.72-4c0-.58,0-1.16-.05-1.76,1.29-.34,3-1,3-2.2s-1.74-3.08-3.13-4.44c0-.81,0-1.64-.05-2.48,1.22-.78,2.63-1.92,2.41-2.94-.19-.85-1.36-2-2.51-3,0-1,0-1.94,0-2.93,1.08-.67,2.15-1.62,2.15-2.75a13.55,13.55,0,0,0-1.16-4.83s2.13-3.48.77-4.64a9.14,9.14,0,0,0-1.87-1.13c0-6.35-.05-12.94-.06-19.57,1.2-.69,2.31-1.67,2.13-2.88a47.05,47.05,0,0,1-.2-7s2.13-4.84,1-6c-.75-.76-2.06-3.6-2.9-5.52,0-4.75,0-9.38,0-13.83.76-1.11,1.73-2.9,1-4a12.39,12.39,0,0,1-1-1.9c0-1.45,0-2.86,0-4.25.77-.52,1.6-1.24,1.6-2s-.8-1.74-1.63-2.81c0-2.39-.05-4.67-.08-6.82a10.06,10.06,0,0,0,1.13-3.51,9.48,9.48,0,0,0-1.26-3.79c0-.9,0-1.77-.07-2.6.79-.66,1.79-1.62,1.91-2.31.19-1.16-.39-6.18-1-7-.24-.32-.91-1.5-1.61-2.77-.06-1.2-.1-2.52-.13-3.95,1.64-.18,3.75-.57,3.87-1.39.19-1.36-2.13-7-2.9-7.35s1.93-1.35.77-3.28a29.69,29.69,0,0,0-1.86-2.69c0-.79,0-1.59,0-2.41,1.37-1,3.33-2.77,2.82-4.18a28.24,28.24,0,0,0-2.77-4.54q0-3.34.06-6.83c.9-.95,1.62-2,1.55-2.73-.2-1.94-.39-3.48-.39-3.48s3.09-.58,1.55-2.32a14.22,14.22,0,0,0-2.61-2.28c.19-22.24.29-45.86-.87-59.75-.93-11.07-1.91-29.12-3-49,.77-1,1.55-2.34,1.45-3.34a8.23,8.23,0,0,0-1.81-3.18c-1.22-22.06-2.57-45.68-4.13-64.24,1.38-.93,2.94-2.34,1.5-3.31a10.5,10.5,0,0,0-1.87-1c-.26-2.94-.53-5.73-.81-8.34,1.49-.88,3-2,2.48-3.25a9.32,9.32,0,0,0-3.18-3c-.69-5.76-1.48-11.54-2.33-17.22,1.06-1,1.93-2.46-.55-3.63-4-25.94-8.9-48.94-9.78-55.41-1.16-8.5-5.41-31.3-6.57-36.72s-1.93-12.75-2.71-15.84-5.8-13.14-9.27-20.49-5-20.09-10.44-29.37S224.56,18.33,205.62,7.12c-16.27-9.63-40-7.45-58.11-5.15a3.57,3.57,0,0,1,1.36,1c-2.59,2-5.78,2-9,2.13A117.24,117.24,0,0,0,120.72,7.35Z"/></g></g></svg>