<svg xmlns="http://www.w3.org/2000/svg" viewBox="0 0 404.73 748.04"><g id="圖層_2" data-name="圖層 2"><g id="圖層_1-2" data-name="圖層 1"><path d="M169.7,17.32a54.16,54.16,0,0,1,3.21-8c1.58-3.15,3.62-6.29,6.77-7.84A18,18,0,0,1,186.85.14a114.8,114.8,0,0,1,21.92,1C232,4.57,250.35,18.76,267.84,33.53c23.33,19.68,43.47,43.16,61,68.11,40.81,58.23,73.63,129.68,75.76,213.7.54,21.5-.32,42.38-.63,52.23s-6.07,38.94-9.88,52.05-7.3,34.65-23.59,73.52-48.73,97.74-76.31,137.23-72.94,65.47-102.76,85.57S115.13,750,93.92,747.82s-43.3-1.76-56.58-9S9.51,716,2.33,706.32s1.78-50.42,33.19-66.45S67.18,622.66,95.78,611s57.89-29.43,67.92-38.38,43.35-45,60.42-69.15S267.16,450,283,420s30-64.38,32.47-91.4,4.94-60.57-15.21-112.71c-10.46-27.07-22.84-54-40.33-77.28a166.88,166.88,0,0,0-24-26c-11.53-10-21.48-22.22-31.95-33.36-4.13-4.39-8.3-8.82-11.41-14-3.41-5.66-5.52-12.13-9.67-17.27-5.1-6.34-13.36-10.92-14.78-18.94a20.57,20.57,0,0,1,.67-8.53Q169.19,18.91,169.7,17.32Z"/></g></g></svg>