<svg xmlns="http://www.w3.org/2000/svg" viewBox="0 0 221.18 823.48"><g id="圖層_2" data-name="圖層 2"><g id="圖層_1-2" data-name="圖層 1"><path d="M210.91,587.85l.83-2.76s6.08,1.11,8.56-1.93-1.1-6.91-1.1-6.91-2.21-8.56-1.66-10.49,2.49-7.46,1.38-11.61-7.18-6.9-7.18-6.9,3.59-1.94,4.42-3.87-.83-1.93-.55-5.52-1.38-9.67-1.38-9.67,2.76-2.21,3.31-4.42.28-9.39-.83-12.43-6.07-3.59-6.07-3.59,3.31-.56,3.59-2.49,1.65-5,1.38-8-4.14-4.7-4.14-4.7a6.47,6.47,0,0,1,2.76-3c2.21-1.39,1.1-5,1.1-9.95s-6.9-7.73-6.9-7.73,5.8.55,6.9,0,1.11-3.59,1.11-5.25,3-7.46.55-10.22-9.12-3.32-9.12-3.32l5.8-1.1s1.94-.28,2.21-3.32-2.48-11.32-2.76-12.7-5.8-2.77-5.8-2.77,5-3.31,5.25-6.07.83-8.57-.28-11.61-5-3.86-5-3.86l2.76-.55c1.39-.28,2.21-3.32,1.39-5.25s-5-4.7-5.25-5.8,4.69-5,4.69-5-2.48-4.14-2.48-5,2.48-8.84,1.93-10.5-3.87-3.86-3.87-3.86,1.11-3,1.38-4.15-1.38-6.9-.27-9.94.83-13-.83-15.19-9.39-1.66-9.39-1.66l.27-1.38s6.63-.55,9.4-1.66.27-4.14,0-5,.82-2.76.82-5.53-3.59-3.59-3.59-3.59,2.49-1.65,2.77-3-1.94-3.86-1.94-3.86,1.38-1.94.55-6.08-5.24-5-5.24-5,1.65-.56,3.59-3.59.27-5.25-.83-6.63-1.38-6.63-1.38-6.63,3-2.49,2.76-5-3.59-2.49-3.59-2.49,2.21-4.42,1.38-6.35-3-8.57-3-8.57S198.76,257.2,199,252s-2.21-11-2.21-11a8.09,8.09,0,0,0,2.77-2.49c1.1-1.66-1.66-4.42-2.21-6.63s1.65-4.14,1.93-8.29-3.31-4.14-3.31-4.14a8.85,8.85,0,0,0,.82-4.42c-.27-2.21.83-6.08.28-10.22a4.35,4.35,0,0,0-4.14-4.14,6.8,6.8,0,0,0,2.21-2.49c.55-1.38,0-3.32-.56-9.12s-4.69-7.45-4.69-7.45a24.16,24.16,0,0,0,2.76-6.63c1.11-4.15,0-9.4-1.1-13.82s-4.42-4.14-4.42-4.14,1.65-1.38,1.65-9.94S185,135.66,185,135.66a6,6,0,0,0-3.87-7.73s.28-3,1.38-4.42,3.87-.83,3.59-3.87-4.69-3.59-5.25-6.08-1.1-8.29-1.93-12.43S175,97.26,175,97.26s3.32-1.93,3.87-3.59-.55-6.9-2.76-13S172,76.27,172,76.27s-.27-5.52-.55-10.5S169.75,60,167,56.38s-7.18-.55-7.18-.55-.55-2.76.55-3.87,3.32-2.76,1.94-9.67a11.1,11.1,0,0,0-7.19-8.56s-3.86-1.66-5-4.14-2.48-3.32-4.14-5-7.74-8-11.6-8.56-6.36,3-6.36,3l.56-2.21a3.17,3.17,0,0,0-.56-3.31c-1.38-1.39,1.11-3.6,1.11-3.6l-4.7,1.11s-2.21-2.49-4.14-3S115.89,10,115.89,10s-.28-3-2.21-4.14A23.66,23.66,0,0,1,109.26,2c-1.11-3.86-5.53-.83-5.53-.83,4.7-2.48,3.87,1.39,3.6,3s-2.77,2.21-3.87,2.21-3.32-.55-6.08-.83S89.65,8,89.65,8c5.8-.83,8.56,1.38,8.56,1.38L97.1,11.91l-5,.83c-7.18-5-13-1.11-16,2.21s-2.49,6.35-2.49,6.35l-3.31-.55c.83,1.38.55,3.31-2.49,5.52s-3.59,4.42-7.73,10.22-2.76,7.74-2.76,7.74a26.15,26.15,0,0,1-2.49,1.38c-1.66.83-2.76,3-4.14,5s-2.21,7.73-2.21,10.77,4.42,8.57,4.42,8.57-2.77,1.1-5,1.93-1.66,3-3.32,6.35-3.31,5-3.31,8.29,1.1,4.42.55,7.18-5.25,5-6.91,8.84.83,11.88.83,11.88a26.28,26.28,0,0,0-5.8,5c-2.21,2.76-2.21,14.37-2.21,16.58s3.59,2.48,3.59,2.48A51.25,51.25,0,0,0,26.94,144c-1.38,2.21-1.1,4.69-1.38,11.6s2.76,6.63,2.76,6.63l-.27,5.52a35.62,35.62,0,0,0-3.32,4.7c-2.48,3.87.55,8.29.55,8.29a19.34,19.34,0,0,0-5.8,4.14c-3,3-2.48,7.73-1.65,13s5.52,4.42,5.52,4.42a21,21,0,0,0-4.42,6.08c-1.66,3.59,1.38,10.22.83,12.43S19.21,231,19.21,231c-2.49.55-5.25,4.42-5.25,9.95s2.21,5.24,2.21,6.62a13.24,13.24,0,0,1-2.49,6.36c-1.38,1.66-1.38,7.46-.83,11.05s2.21,4.14,2.21,4.14-1.1,1.11-2.48,2.76-1.11,6.36,0,9.12,5.52,6.35,5.52,6.35a9,9,0,0,0-4.69,2.77c-2.49,2.48-1.66,6.62-1.39,10.22s3.87,5,3.87,5-4.14-.28-3.31,1.66-.56,7.18-.56,9.94,1.39,2.49,1.39,2.49-1.11,1.38-2.21,3-1.66,5-2.21,11.05S11.47,339,11.47,339s-2.76,1.66-3,3.87S7.6,351.4,7.05,355s3.59,3.87,3.59,3.87-3,2.48-3.86,8.84,3.59,7.73,3.59,7.73a8,8,0,0,0-3,4.42,25.44,25.44,0,0,0-.55,11,28,28,0,0,0,2.48,5.52,7.59,7.59,0,0,0-3.86,2.21c-1.94,1.94,0,3.87,1.1,9.12S8.16,416,6.22,418s-1.38,8.56-.82,11.88,3.31,3,3.31,3a5.31,5.31,0,0,1-1.93,1.93c-1.38.83-1.94,1.66-2.77,8S7.33,450,7.33,450s-2.49,1.39-3,3.32-.55,5.25-.83,8.84,3.32,6.63,3.32,6.63a12.37,12.37,0,0,0-3.59,5.52C1.8,478.19,2.36,484.27,4,487s5,1.66,4.42,3-4.69,1.38-5.24,3,.27,7.18,1.1,10.49,3.87,5.25,3.31,7.19-5.24,6.07-5.52,9.39,4.42,2.21,4.42,2.21l1.1,4.14s-2.2,3.59-3.86,5.8-.55,7.18.27,11.6,3.32,2.49,3.32,2.49v4.7s-3.59,0-3.87,2.21.28,4.14,0,7.45a9.93,9.93,0,0,0,1.38,5.8l-2.48,5c-2.49,5-2.21,5.8,0,8.84s5.24,8.28,5.24,8.28a7.13,7.13,0,0,0-3.31,2.77c-1.1,1.93.83,5,1.38,8.28.89,5.34,1.21,6.49,1.32,6.68-.33.22-4.41,3.08-5.74,5.2s-1.93,5.53,0,10.22a26.88,26.88,0,0,0,3.87,6.91A17.63,17.63,0,0,0,1,634.81c-1.39,3.6,3.86,2.21,3.86,3.87s-1.65,5.8-1.1,8.84,4.14,3,4.14,3-3,1.38-3.59,4.14A39.94,39.94,0,0,0,4,669.07c1.11,5.52,4.42.83,4.42.83A11,11,0,0,1,9,675.7C8.43,679,6.5,681,6.5,686.19S8.16,692,8.16,692a20.18,20.18,0,0,0-1.66,4.15c-.83,2.76,1.93,5.25,3,7.46s.83,10.77.83,10.77-1.66-.28-2.21,2.49,0,6.9.83,12.15,3,5,3,5v5.8c0,4.7,4.42,13.26,4.42,13.26-1.93,2.49,1.39,5,1.39,5-2.21,6.36,3.31,16,3.31,16s-.83,1.1,1.11,5.8,13.81,20.44,13.81,20.44l.27,1.93c.28,1.94,1.38,1.38,3.87,3.87s5.25,8.84,9.39,10.77,8,1.38,12.16.28,9.94-5.8,9.94-5.8c2.76,5.52,9.67,5.8,9.67,5.8,3.59,2.76,5.8,1.66,9.67,3.31s12.7,0,16.85.28,8.28-1.93,11.32-2.21,5,1.66,7.19,1.66,7.73-1.38,9.66-1.11,1.94,3.59,1.94,3.59,7.46.56,8.28.56,7.74.27,10.22.27,8.84-3.87,10.5-4.69-2.21-5-2.21-5a10.13,10.13,0,0,0,6.63-1.1,17.18,17.18,0,0,1,5,.27c2.49.56,6.36-2.48,8.84-3.31s6.91-3.87,6.91-3.87a33.17,33.17,0,0,0,3.87-4.69c1.38-2.21,4.69-5.8,5.8-9.4s4.42-6.9,7.73-11-3.31-6.08-3.31-6.08,5-1.66,6.35-4.14,1.38-9.4,1.38-13,2.21-3.59,2.21-6.08-4.42-4.14-4.42-4.14,4.7-.55,4.7-2.76-1.11-9.39-1.11-9.39a15.68,15.68,0,0,0,1.38-4.42c.28-2.21-3.31-3.87-4.14-3.59s0-2.21,0-2.21,3-.28,3.87-2.49-1.66-5-.83-6.63a14.71,14.71,0,0,0,2.21-6.08c.55-3.59-5-2.48-5-2.48l.55-3.32a6.84,6.84,0,0,0,4.42-1.93c1.93-1.93-2.49-7.18-2.49-7.18s2.76-5.8,2.76-8.57-3.31-6.9-3.31-6.9,3.31-1.94,3.59-2.76-1.93-2.21-3-3.6,1.94-5,2.49-8.56-6.08-8-6.08-8a49.8,49.8,0,0,0,3.59-8c1.11-3.59-.55-8-.55-8s2.21-1.11,2.76-5.25-6.9-3.87-6.9-3.87,3.86-4.14,5-5.52-.55-7.46-1.11-8.84,2.21-3.32,3.59-4.7-3.59-3-3.59-3l.83-2.48s3.59-1.94,3.87-4.15-2.76-2.76-2.76-2.76l-.28-3s4.42-1.65,4.42-3.59S210.91,587.85,210.91,587.85ZM18.66,711.1c.61-.81.08-.41.79-.74C18.84,711.17,19.37,710.78,18.66,711.1Zm8.4-163.75-.33.92-.92-.34c.11-.31.22-.62.34-.92ZM25.52,309l-.92-.34c.11-.3.22-.61.34-.92l.91.34Zm-.64-13.79.46.17c.09.95-.69,1.05-1,1.21ZM22.74,528c.06-.15.11-.31.17-.46l.92.34c-.62.81-.09.42-.8.75.06-.15.11-.31.17-.46Zm.09-179.35c1.12.82,1,.5.87,1.89l-1.37-.51C22.5,349.59,22.67,349.13,22.83,348.67ZM23,434.25c-.62.82-.08.42-.8.75C22.81,434.19,22.28,434.58,23,434.25Zm-2.22,53.94.46.17c.06-.16.12-.31.17-.46l1.84.68c-.06.15-.12.3-.17.45l.46.17L23,490.58c-.92-.58-1.2-.77-1.5-1.6C20.72,488.37,21.11,488.9,20.78,488.19Zm2.89,130.39-2-.22,1.42-1,.46.17c-.06.15-.11.3-.17.46l.46.17C23.78,618.27,23.73,618.42,23.67,618.58Zm1.12-91.89-.91-.34c.05-.15.11-.3.17-.45l.46.17c0-.16.11-.31.17-.46l.45.17C25,526.08,24.91,526.39,24.79,526.69ZM26,584l-.46-.17c0-.52,0-1,.05-1.55l.92.34Zm.48-19.64c-.81-.61-.42-.08-.74-.8l-.46-.17,1-1.2.92.34C27,563.13,26.74,563.74,26.51,564.35Zm142,20.7.91.34c-.05.16-.11.31-.17.46l-.91-.34C168.4,585.36,168.46,585.21,168.52,585.05Zm-2.19,10.15c.06-.16.11-.31.17-.46l1.54,0c-.61.81-.08.42-.79.75-.06.15-.12.3-.17.45l-.46-.17.17-.45Zm.4-12.37s-.7,1.76-.8.75c.06-.16.12-.31.17-.46l-1.37-.51.51-1.38.91.34c-.11.31-.22.61-.34.92Zm-.45,13.91c-.06.16-.11.31-.17.46l.46.17c-.06.15-.11.31-.17.46l-.92-.34C166.1,596.68,165.56,597.07,166.28,596.74Zm.89-142c-.61.81-.08.41-.79.74C167,454.65,166.46,455.05,167.17,454.72Zm-1.34-344.66.91.34c-.11.3-.22.61-.34.91l-.91-.34C165.6,110.67,165.71,110.36,165.83,110.06Zm.08,455.26c-.23.61-.46,1.22-.68,1.83l-.46-.17.51-1.37c-.06-.69-.28.06-.29-.63Zm-3.15-112.76-.46-.17.51-1.38,1.2,1-.51,1.38C162.69,452.74,163.09,453.28,162.76,452.56Zm.23,50.15c-.62.81-.09.41-.8.74C162.8,502.64,162.27,503,163,502.71Zm.57-98.87c-.17.46-.34.92-.5,1.38l-.46-.17c-.06.15-.12.3-.17.46-1,.37-.07-1-.12-1.09l-.46-.17c.61-.81.08-.42.8-.75,0-.15.11-.3.17-.46C163.07,403.31,163.31,403.58,163.56,403.84Zm-1.32-2-.46-.17c.06-.15.11-.31.17-.46a2.27,2.27,0,0,1-.7-2.34l1.84.67C162.8,400.26,162.52,401,162.24,401.79Zm-.94-4.52.46.17c-.06.15-.11.31-.17.46l.46.17c-.06.15-.11.3-.17.46L160.5,398Zm-1.41,91.25c-.12.31-.23.61-.34.92l-1.38-.51.51-1.37Zm-5-17.49c.06-.15.12-.31.17-.46l-.45-.17c.16-.46.33-.92.5-1.38l-.45-.16.17-.46a11.29,11.29,0,0,1,.86,1.88l2,.22c-.06.15-.12.31-.17.46l.46.17-.51,1.38Zm1.24,19.23c.09.94-.69,1.05-1,1.2l.51-1.37Zm1.52-180.38-.17.45-1.67-1.13.51-1.38,1.21,1C157.46,309.81,157.31,309.16,157.64,309.88Zm1,55.12-.51,1.37-1.38-.51c.06-1,.21-.37-.12-1.08.06-.16.11-.31.17-.46l-1.38-.51c.12-.31.23-.61.34-.92C157.32,363.68,157.33,364.19,158.64,365Zm-1.35,17.75c-.62.81-.09.42-.8.75C157.1,382.68,156.57,383.08,157.29,382.75Zm.83,107.73c-.61.81-.08.42-.8.75C157.94,490.41,157.41,490.81,158.12,490.48Zm-1-36.86c.62-.82.08-.42.8-.75.06-.15.11-.31.17-.46l.46.17c-.06.15-.12.31-.17.46l.46.17c-.06.15-.12.3-.17.46Zm2.41,1.93c-.61.82-.08.42-.79.75C159.38,455.49,158.85,455.88,159.56,455.55ZM159,422l-.91-.34.33-.91.92.34C159.18,421.34,159.07,421.65,159,422Zm-.55-183.23s0,.16-1.26.58C157.3,239.21,158.08,238.21,158.4,238.72ZM156.52,91.49l1.55.05c-.23.62-.45,1.23-.68,1.84-.81-.61-.42-.08-.75-.8S156.45,92.51,156.52,91.49Zm-.32,153.19.91.34c-.11.31-.22.61-.34.92l-.91-.34C156,245.29,156.08,245,156.2,244.68Zm-6.4-46.17c-.06.16-.11.31-.17.46l.46.17c-.06.16-.11.31-.17.46l-.92-.34C149.62,198.45,149.09,198.84,149.8,198.51Zm-.29,23.36c-.06,1-.21.37.12,1.09-.06.15-.12.3-.17.46l-1.38-.51c.06-.15.11-.31.17-.46l-.46-.17c.06-.15.12-.31.17-.46Zm-2.31-53a3,3,0,0,1,.53,2.81l-1.2-1c0-.52,0-1,.05-1.55l.45.17C147.09,169.18,147.15,169,147.2,168.87Zm-3.53-72.22.92.34-.51,1.37-.92-.34Zm-.86,312.55,1.38.51c-.06.16-.12.31-.17.46l.45.17-.17.46-1.54-.05C142.78,410.23,142.79,409.72,142.81,409.2Zm1,213.12c-.61.81-.08.42-.79.75C143.6,622.25,143.07,622.65,143.78,622.32Zm-1,1.21.91.33-.33.92-.92-.34C142.59,624.14,142.7,623.83,142.82,623.53Zm0,1.54c1.12.81,1,.5.86,1.89l-1.37-.51Zm-1.38-238.81.46.17c-.06.15-.12.3-.17.45l.46.17c-.06.16-.12.31-.17.46l-1.09.12Zm.16,309.8c-.06.15-.12.3-.17.46l.46.17c-.06.15-.12.3-.17.46l-.92-.34C141.36,696,140.83,696.39,141.55,696.06Zm-2.5-657.44c-.05.16-.11.31-.17.46l-1.54,0C138.15,38.45,137.85,38.5,139.05,38.62Zm.73,397.1c-.11.31-.22.61-.34.92l-.91-.34.33-.92Zm-6.9,55.33c.06-.15.11-.3.17-.46l.92.34c-.62.82-.09.42-.8.75.06-.15.11-.31.17-.46Zm-.17-99.66c-.06.15-.11.31-.17.46l-.46-.17c-.06.15-.11.31-.17.46l-.46-.17c.12-.31.23-.61.34-.92Zm-.35-27.25c.11-.3.22-.61.34-.91l.91.34c-.05.15-.11.3-.17.45l-.46-.17c0,.16-.11.31-.17.46Zm.36,41.33.46.17c-.06.15-.12.31-.17.46l.46.17c-.06.15-.12.31-.17.46l-1.09.12Zm.24,2.18c.34-.35.57,1.21.57,1.25l-.74-.8C132.84,408,132.9,407.8,133,407.65Zm.53-21.19c.06-.15.11-.3.17-.46l2.29.85c0,.16-.11.31-.17.46Zm3.52-56,.92.34c-.12.3-.23.61-.34.91l-.92-.34Zm-.18-175.8c.62-.81.09-.42.8-.75C137,154.68,137.55,154.28,136.83,154.61Zm0,228.4-.46-.17-.17.46-.46-.17c-.35-1.25.81-.71-.24-2.17l.17-.46A4.85,4.85,0,0,1,136.85,383Zm-1.36-10.41c0-.15.11-.3.17-.46l-.46-.17c.05-.15.11-.3.17-.46l.91.34C135.67,372.67,136.2,372.27,135.49,372.6Zm.14-42.7-.91-.34c.11-.31.22-.61.34-.92l.91.34C135.86,329.29,135.75,329.59,135.63,329.9Zm.27,58.5c-.61.81-.08.42-.8.75C135.72,388.33,135.19,388.73,135.9,388.4Zm.86,11.79s0,.16-1.26.58C135.66,400.68,136.44,399.68,136.76,400.19Zm-.18,24.44.92.34c-.06.15-.11.31-.17.46l-.46-.17c-.05.15-.11.31-.17.46l-.46-.17C136.36,425.24,136.47,424.94,136.58,424.63Zm.78,19.06.91.34-.33.92-.92-.34C137.13,444.3,137.24,444,137.36,443.69Zm-.62-372c.35.48.69,1,1,1.43-.06.15-.11.31-.17.46l-1-1.43C136.63,72,136.68,71.82,136.74,71.66Zm-1.06,80.44c.06-.16.11-.31.17-.46.81.61.42.08.75.8l.45.17c-.16.45-.33.91-.5,1.37l-1.38-.51.17-.46c-.32-.71-.2-.06-.12-1.08Zm-1.38-14.59.91.34c-.61.81-.08.41-.8.74.06-.15.12-.3.17-.46l-.45-.17C134.18,137.81,134.24,137.66,134.3,137.51Zm.07,140.82c-.06.15-.12.3-.17.45l.46.17c-.06.16-.12.31-.17.46l-.92-.34C134.18,278.26,133.65,278.66,134.37,278.33Zm-1,83.06c-.59.44-.72,0-1.25.58l.46.17c-.06.15-.12.31-.17.46l-1.84-.68,1.43-1ZM129,401.48c.05-.15.11-.3.17-.46l.46.17c-.12.31-.23.61-.34.92l-.92-.34c.06-.15.11-.3.17-.46Zm-.23-12.08.17-.45c.34-.35.57,1.21.58,1.25Zm.31-19.17c.06-.16.12-.31.17-.46l.92.34c-.06.15-.11.3-.17.46Zm1.07,19.68c.81.62.42.09.75.8l.45.17c-.05.15-.11.31-.17.46l-1.37-.51C129.9,390.53,130,390.22,130.13,389.91Zm1.14-25.65a7.09,7.09,0,0,1-2.92-.56c.11-.3.22-.61.34-.91l2.75,1C131.38,364,131.33,364.11,131.27,364.26Zm.93-33.55-.46-.17-1,1.21-4.42-2.15c.82-1.17,1.31-1,2.22-1.79,1,.7.82.45,1,1.43,1.65-.55.73-1.17,3.26-.36C132.66,329.49,132.43,330.1,132.2,330.71Zm-5,164.49c-.61.81-.08.42-.79.75C127,495.13,126.46,495.53,127.17,495.2ZM126,474.42l.51-1.37.46.17C127.05,474.16,126.27,474.27,126,474.42Zm.16-52.6-.92-.34c.44-.71.88-1.42,1.31-2.13l.46.17c.61-.81.08-.42.8-.74l-.17.45.46.17A9.53,9.53,0,0,0,126.15,421.82ZM124.64,354a7,7,0,0,0-1.91-3.31c.12-.31.23-.61.34-.92,1.17.82,1,1.31,1.79,2.22-.11.31-.23.62-.34.92l.92.34C124.82,354.06,125.35,353.66,124.64,354Zm.18,290c0,.15-.11.3-.17.46l-.92-.34c.06-.16.12-.31.17-.46Zm-1.89-499.73c-.17.45-.33.91-.5,1.37-1.67-1.23-.58-1.27-1.62-2.68.11-.31.23-.61.34-.92l1.38.51c-.62.81-.09.42-.8.75-.06.15-.12.3-.17.46Zm-.06,11.44.46.17c-.06.16-.11.31-.17.46l.46.17c-.06.16-.11.31-.17.46l-1.09.12Zm-.28,37.44.45.17-.84,2.3-.92-.34C121.71,194.56,122.15,193.85,122.59,193.14Zm.56,11.16c.06-.15.12-.3.17-.46l1.38.51c-.12.31-.23.62-.34.92l-2-.22C123,204.24,122.44,204.63,123.15,204.3Zm3.67,201.6.51-1.38.46.17c0,.52,0,1-.05,1.55Zm.53-59.25-.17.46-.46-.17.51-1.38.92.34C127.54,346.72,128.07,346.32,127.35,346.65Zm.74-13.28-.46-.17c-.71.32-.06.19-1.08.12a4.78,4.78,0,0,1,.22-2l1.37.51c0,.15-.11.31-.17.46C128.3,333,128.17,332.35,128.09,333.37Zm2.68-53.77c0-.15.11-.3.17-.46l.46.17c0-.15.11-.3.16-.46l.46.17c-.11.31-.22.62-.34.92Zm.58,1.26c-.12.3-.23.61-.34.92l-.92-.34c.11-.31.22-.62.34-.92ZM130.81,240c.06-.15.12-.31.17-.46l1.38.51c-.06.15-.11.3-.17.46Zm1-35.1-.92-.34.17-.45.92.33C131.91,204.59,131.86,204.74,131.8,204.89Zm-.53,21.19c-.06.15-.12.3-.17.45l-1.38-.5c.06-.16.11-.31.17-.46Zm-1.05,70.53.91.33c0,.16-.11.31-.17.46l-.46-.17-.17.46-.45-.17C130,297.22,130.1,296.91,130.22,296.61Zm2.1-165,.46.17c0,.52,0,1-.05,1.55l-.92-.34Zm-1.47,16.67.92.34c-.61.81-.08.41-.8.74.06-.15.11-.3.17-.46l-.46-.16C130.74,148.53,130.8,148.38,130.85,148.23Zm-.46,61.88c0,.15-.11.3-.17.46l.46.17c-.06.15-.11.3-.17.46l-.92-.34C130.21,210,129.68,210.44,130.39,210.11ZM129.9,53.49c-.61.82-.08.42-.79.75C129.72,53.43,129.19,53.82,129.9,53.49Zm.49,256.74c.43.54-.63.29-.63.29,0,.15-.11.3-.17.46-.25-.27-.49-.54-.74-.8.05-.15.11-.31.17-.46Zm-2.72-106.86c.16-.08.94-1.08,1.26-.58C128.93,202.79,128.94,203,127.67,203.37ZM127,113.44l.92.34c.61-.81.08-.42.79-.75-.61.81-.08.42-.79.75-.62.81-.09.42-.8.75.06-.16.11-.31.17-.46l-.46-.17C126.92,113.75,127,113.59,127,113.44Zm.47,114.37c-.62.81-.09.42-.8.75C127.31,227.74,126.78,228.14,127.5,227.81Zm-.28,51.52-1.38-.51.51-1.37C127.47,278.26,127.35,277.94,127.22,279.33Zm-2.19-128,.91.34-.33.91-.92-.34C124.8,151.9,124.91,151.59,125,151.29Zm-.42-15.8c0,.15-.11.31-.17.46l-.46-.17c0,.15-.11.3-.17.46l-.45-.17.33-.92Zm-2.22-22.2c.34-.6.46.38.63-.29l-.29-.63.92.34-1,2.75-.92-.34C121.94,114.51,122.17,113.9,122.39,113.29ZM121,117l.92.34c-.61.81-.08.42-.8.75-.05.15-.11.3-.17.45l-.45-.16C120.7,117.88,120.87,117.42,121,117ZM120.27,174l.91.34c-.05.16-.11.31-.17.46l-.91-.34C120.15,174.34,120.21,174.19,120.27,174Zm-.9-58.21c-.23.61-.45,1.22-.68,1.84l-.92-.34.51-1.38.46.17c.06-.15.11-.31.17-.46Zm-1.72,62.46c.62-.81.08-.42.8-.75C117.84,178.35,118.37,178,117.65,178.28Zm.58,225.48-.75-.79.17-.46C118,402.17,118.22,403.72,118.23,403.76Zm.68-364.24c-.12.3-.23.61-.34.92l-.92-.34c.11-.31.23-.62.34-.92Zm-1.85-14.76.92.34-.17.46-.92-.34C117,25.06,117,24.91,117.06,24.76Zm-1.94,651.1.92.34c-.06.15-.11.3-.17.46l-.46-.17c-.06.15-.11.3-.17.46l-.46-.17C114.9,676.47,115,676.16,115.12,675.86Zm-1.71.41.91.34c-.11.3-.22.61-.34.91l-.91-.34C113.18,676.88,113.29,676.57,113.41,676.27ZM110.22,455l1.37.51c0,.16-.11.31-.17.46l-1.54-.05C110,455.65,110.11,455.34,110.22,455Zm2.56,221.53-.51,1.37-.46-.17c-.06.16-.11.31-.17.46-1,0-.55-.51-.75-.8l-.46-.17,1-1.2Zm-2.56,40.77,1.2,1-.51,1.38-.91-.34c.06-1,.21-.37-.12-1.09C110,717.94,110.1,717.63,110.22,717.33Zm-1.76-222.27c-.82-.62-.42-.09-.75-.8l-.46-.17c.06-.16.11-.31.17-.46l1.37.51Zm.71,68.57s0,.17-1.26.58C108.07,564.13,108.85,563.13,109.17,563.63Zm-.77,119.13c-.62.81-.08.42-.8.75C108.22,682.69,107.68,683.09,108.4,682.76Zm-.1-59c.62-.82.08-.42.8-.75C108.48,623.86,109,623.47,108.3,623.8Zm.52,88.84c-.61.81-.08.42-.8.75C108.64,712.57,108.11,713,108.82,712.64Zm-.13,8.81.92.34c-.06.16-.12.31-.17.46l-.92-.34C108.58,721.76,108.63,721.61,108.69,721.45Zm0-9.9c.06-.15.12-.3.17-.46l.92.34c-.06.15-.11.31-.17.46Zm.87-122.22c-.11.31-.22.61-.34.92l-.91-.34c.05-.15.11-.31.17-.46l.46.17.16-.46ZM108.28,81l.91.34c-.61.82-.08.42-.79.75,0-.15.11-.31.17-.46l-.46-.17Zm.16,409.93c-.62.81-.09.42-.8.74C108.25,490.81,107.72,491.21,108.44,490.88Zm-.68-122.27c-.05.15-.11.3-.17.46l-.92-.34c.06-.16.12-.31.17-.46Zm-.26-20.44-.51,1.38-.92-.34.51-1.38Zm-5.82,55.21c-.06.15-.11.31-.17.46l.46.17c-.06.15-.11.31-.17.46l-.92-.34C101.5,403.32,101,403.71,101.68,403.38Zm-.49-32.51.51-1.38.46.17c0,.52,0,1,0,1.55Zm.16,47.51,1.38.51-.17.46-1.38-.51C101.24,418.69,101.29,418.53,101.35,418.38Zm.17,99.66.46.17c0,.52,0,1,0,1.55l-.92-.34Zm0-77.68c.12-.3.23-.61.34-.92l.92.34c-.11.31-.23.62-.34.92Zm3.43-53c-.06.15-.12.3-.17.45l-.92-.33c.61-.82.08-.42.8-.75-.06.15-.12.3-.17.46Zm-.37-17.35-.75-.8,1-1.2.46.17Zm0,32.34.46.17c-.12.24-.43,2-1,1.21.06-.15.12-.3.17-.46l-.45-.17Zm.4,35.61-.51,1.37-.46-.16c0-.52,0-1,0-1.55Zm-1.19,3.21-.51,1.38-.92-.34c.32-.41.65-.81,1-1.21ZM103,455l.46.17c-.06.16-.12.31-.17.46l.46.17c-.06.15-.12.31-.17.46l-1.38-.51Zm-.3,271.57c0-.15.11-.31.17-.46l2.92.56c-.62.81-.09.42-.8.75-.06.15-.11.3-.17.46l-2.92-.56C102.46,726.45,101.93,726.85,102.65,726.52Zm-.78-119.18c.62-.81.08-.42.8-.75C102.05,607.41,102.59,607,101.87,607.34Zm3,99.13c.06-.15.12-.3.17-.45l.46.16.17-.45.46.17-.34.91ZM106.09,53c-.62.81-.08.42-.8.75C105.9,53,105.37,53.36,106.09,53Zm-.68,226.06.45.17c-.17.46-.34.91-.5,1.37l-.92-.34Zm-1.51,70.36,1.37.51c.43.54-.63.29-.63.29s-.11.3-.17.45l-.74-.79C103.78,349.75,103.84,349.6,103.9,349.45Zm-.79,14.83.45.17.17-.46.46.17c-.11.3-.22.61-.34.92l-.91-.34C103,364.58,103.05,364.43,103.11,364.28Zm.35,3.26c0,.15-.11.3-.17.46l.46.17c0,.15-.11.3-.17.46l-1.54-.05c-.33-.71.07-.2-.75-.8.11-.31.23-.61.34-.92ZM100,59.64l1.38.51c.42.54-.63.29-.63.29-.06.15-.11.3-.17.46l-.75-.8C99.88,60,99.94,59.79,100,59.64ZM97.45,428.93c0-.15.11-.3.17-.46l.91.34c-.61.82-.08.42-.79.75l.17-.46Zm-1.83-10.58.51-1.38,1.38.51L97.12,420l-.92-.34c.12-.31.23-.61.34-.92ZM88.16,724.81c.69-1.74.61-1.95,2.22-1.78.06-.16.11-.31.17-.46l.46.17c-.06.15-.12.3-.17.46l.46.17c-.29.76-.57,1.52-.85,2.29l-2-.22c.06-.15.12-.31.17-.46ZM85.44,670.1c.06-.15.12-.31.17-.46l-.46-.17A4.76,4.76,0,0,0,84,671.14l-.92-.34c.19-1,.37-1.95.56-2.93l.92.34c.11-.3.22-.61.34-.91,1,.69.81.44,1,1.42l.46.17.51-1.37c.49-.49.17.22.63-.29l.92.34c-1,1.8-1.55,1.24-2.57,2.7l.92.34c.06-.16.11-.31.17-.46,1.26-.47.63-.82,2.34-.7l-.51,1.38-.45-.17c-.06.15-.12.3-.17.46l-1.38-.51-.34.91-.92-.33C85.63,670.17,85.77,670.81,85.44,670.1Zm-.85,2.29-.33.92-.92-.34c.11-.31.22-.61.34-.92Zm-.73-10.7.46.17c-.13.24-.44,2-1,1.21.06-.16.11-.31.17-.46l-.46-.17Zm-.66-32.05c0-.16.11-.31.17-.46l.46.17c0-.15.11-.31.17-.46l.45.17c-.11.3-.22.61-.34.92ZM88,185.06c-.06.15-.11.3-.17.46l.46.17c-.06.15-.11.3-.17.46l-1.83-.68.33-.92Zm-1.16-16.6c.11-.3.22-.61.34-.91l.91.33c-.11.31-.22.62-.34.92Zm5.6,285.22-.46-.17c-.06.16-.12.31-.17.46-.58.09-.16-.92-.58-1.25l-.17.46-1.55-.05c.62-.82.09-.42.8-.75.06-.16.12-.31.17-.46l-1.37-.51c0-.52,0-1,0-1.55l.45.17c.06-.15.12-.3.17-.46a4,4,0,0,1,2.71,2.57l-.8.75C92,453.72,92.21,452.62,92.47,453.68Zm.26,206.6c-.62.81-.09.41-.8.74C92.54,660.21,92,660.61,92.73,660.28ZM88.6,634.76l-1.37-.5c.61-.82.08-.42.79-.75.06-.16.12-.31.17-.46l1.38.51Zm.12,25.08c-.06.15-.12.3-.17.46l-.92-.34c.06-.16.11-.31.17-.46Zm1.66-299.23s0,.17-1.26.58C89.28,361.11,90.06,360.11,90.38,360.61Zm-.46-100.28c.16-.09.94-1.09,1.26-.58C91.18,259.75,91.19,259.91,89.92,260.33Zm-2.43-6.12.51-1.37,1.37.5C88.56,254.46,88.88,254.35,87.49,254.21Zm-.42-29.88c.61-.81.08-.42.79-.75C87.25,224.4,87.78,224,87.07,224.33ZM88,454.62l.92.34c-.33.4-.65.8-1,1.21C86.73,455.15,87.36,456.05,88,454.62Zm.63,75.85.92.34-.17.45-.92-.34Zm1.53,172.12c-.11.31-.22.61-.34.92l-.91-.34c.11-.31.22-.61.34-.92Zm-1.36-34.4c.16-.08.94-1.08,1.26-.57C90,667.62,90,667.78,88.75,668.19Zm1-2.75c0,.15-.11.31-.17.46l-.46-.17c.12-.3.23-.61.34-.92l.92.34c-.06.16-.11.31-.17.46Zm-1-208.93,1-1.21,2.13,1.31L91.4,458l-.46-.17c-.06.16-.11.31-.17.46C89.64,457.49,90,457.27,88.82,456.51Zm2.32-129,.51-1.37.46.17c0,.51,0,1,0,1.54Zm-.42-29.87.8-.75.92.34c-.06.15-.12.3-.17.46Zm1.21-23-.91-.34.33-.92.92.34C92.16,274,92.05,274.32,91.93,274.63Zm.18-48.43-.46-.17c-.05.15-.11.3-.17.46a10.42,10.42,0,0,0-3.5-1.82c.62-.81.09-.42.8-.75l.17-.45,1.38.5c0-.15.11-.3.17-.45a5.05,5.05,0,0,1,1.66,1.13C92.15,225.17,92.13,225.68,92.11,226.2ZM86.4,454.57c-.11.31-.22.61-.34.92l-.91-.34c.11-.31.22-.61.34-.92ZM86,457l1.38.51c-.11.31-.23.61-.34.92L85.67,458C85.79,457.65,85.9,457.34,86,457Zm-.79,177,.17-.46,1.55,0c-.62.81-.09.42-.8.74-.06.16-.11.31-.17.46l-.46-.17.17-.45Zm.7,40.41.92.34-.34.91-.92-.34Zm1.18,6.69,1.83.68a1.92,1.92,0,0,0,.58,1.25c-.11.31-.23.62-.34.92-1-.06-.37-.21-1.09.12A5.05,5.05,0,0,1,86.42,683C86.64,682.36,86.87,681.75,87.1,681.14Zm3.3,8c0-.15.11-.31.17-.46l.91.34c0,.15-.11.3-.17.46Zm.34-24.9c.06-.16.11-.31.17-.46l1.38.51c-.06.15-.12.3-.17.45Zm1.21,1c.81.62.42.09.74.8l.46.17c-.05.15-.11.31-.17.46l-1.37-.51C91.72,665.81,91.83,665.51,92,665.2ZM93,450.76l-.92-.34c.11-.3.22-.61.34-.91l.91.33Zm0-32.34c0,.15-.11.31-.17.46l-.46-.17c.06-.15.12-.31.17-.46l-.46-.17c.06-.15.12-.31.17-.46l1.55.05C93.18,418.49,93.71,418.09,93,418.42Zm5.87-156.88c-.06.16-.12.31-.17.46l-1.09.12.51-1.37.46.17c-.06.15-.12.3-.17.45Zm-3,144.9.51-1.37a5.73,5.73,0,0,0,2.12,1.3c-.11.31-.23.61-.34.92l-2-.22.17-.46Zm0-24-.75-.8c.12-.31.23-.61.34-.92l.46.17.17-.46c.32.71.2.07.12,1.09l.46.17.51-1.38-.92-.34.51-1.37.46.17c0,.51,0,1,0,1.54l.92.34-.51,1.38-.46-.17c-.19,1-.37,1.95-.56,2.92l-.46-.17-.17.46-1.21-1Zm-1.24-33.31c.62-.82.08-.42.8-.75C94.8,349.21,95.34,348.82,94.62,349.15Zm2.44-180-.92-.34c.06-.15.12-.3.17-.45l.92.33C97.17,168.8,97.12,169,97.06,169.1Zm.26,6.36c.05-.16.11-.31.17-.46l.46.17c-.12.3-.23.61-.34.91l-.92-.33c.06-.16.11-.31.17-.46Zm-.42,8.18c-.12.31-.23.62-.34.92l-.92-.34c.11-.3.23-.61.34-.92Zm.32,57-.06,1.55-1.08.12c-.06.15-.12.3-.17.45a3.48,3.48,0,0,0-1.67-1.13c.12-.31.23-.61.34-.92C96,240.81,95.85,240.43,97.22,240.6Zm0,101.67c0-.16.11-.31.17-.46l-.46-.17.17-.46.91.34C97.35,342.33,97.88,341.94,97.17,342.27ZM98,378c-.06.15-.12.31-.17.46l-.92-.34c.06-.15.11-.31.17-.46Zm.35-34.81.51-1.37c1.12.81,1,.49.87,1.88Zm.8-62.8-.46-.17c0,.16-.11.31-.17.46l-.45-.17.33-.91.92.33C99.29,280.13,99.23,280.28,99.17,280.43ZM97.33,165.55c.06-.15.11-.3.17-.46l.92.34c-.62.82-.09.42-.8.75.06-.15.11-.3.17-.46Zm.24-21.81-.91-.34c0-.15.11-.3.17-.46l.91.34C97.69,143.44,97.63,143.59,97.57,143.74Zm.8,23.24c-.12.31-.23.61-.34.92a5.15,5.15,0,0,0-2-.22A8.81,8.81,0,0,1,96,165C97.18,165.9,96.81,166.2,98.37,167ZM96,143.69l-.46-.17c-.06.15-.11.31-.17.46l-.46-.17c0-.51,0-1,0-1.54.81.61.42.08.75.79l.46.17ZM95,224.12c-.61.82-.08.42-.79.75-.06.16-.12.31-.17.46l-.46-.17.51-1.37Zm-1.21-15.05.17-.45c.34-.35.57,1.21.58,1.25Zm.89-17.92c-.11.31-.22.62-.34.92-.81-.61-.42-.08-.75-.8l-.45-.17c.05-.15.11-.3.17-.46Zm-1-7.15c.11-.3.22-.61.34-.91l.91.33c-.11.31-.22.62-.34.92Zm.43,20,.46.17c-.7,1-.45.81-1.43,1Zm-.64,48.26.46.17.17-.46.46.17c0,.51,0,1,0,1.54-.81-.61-.42-.08-.75-.79l-.46-.17C93.32,252.54,93.38,252.39,93.43,252.24Zm1,41c-.61.81-.08.42-.8.75C94.24,293.21,93.71,293.61,94.42,293.28Zm-1,30.91.68-1.83c.81.61.42.08.75.8l.45.17-.79.74-.46-.17c-.06.16-.12.31-.17.46Zm2.3,14.93c-.06.16-.11.31-.17.46l-.46-.17c0,.16-.11.31-.17.46l-.75-.8C95,338.62,95.14,338.05,95.72,339.12ZM94.92,440l.92.34c-.06.15-.11.31-.17.46l-.46-.17c-.06.15-.11.31-.17.46l-.46-.17C94.7,440.6,94.81,440.3,94.92,440Zm3.51-22.17,1.42-1,.46.17-.51,1.38Zm.68-250c.16-.08.94-1.08,1.26-.58C100.37,167.2,100.39,167.37,99.11,167.78Zm-1-111.45,1.37.51c-.16.46-.33.91-.5,1.37C97.84,57.4,98,57.72,98.09,56.33Zm.19,3.72.92.34c-.06.15-.12.3-.17.46l-.46-.17c-.06.15-.12.3-.17.46L97.94,61C98.05,60.66,98.16,60.35,98.28,60.05Zm.24,2.17c-.62.82-.09.42-.8.75C98.33,62.16,97.8,62.55,98.52,62.22Zm-1.91-3.31.92.34c-.06.15-.11.31-.17.46l-.92-.34C96.5,59.22,96.56,59.06,96.61,58.91ZM95.8,93.55l.92.34c-.62.81-.09.41-.8.74-.06.16-.12.31-.17.46l-.46-.17Zm-1.31,26.11.45.17c.06-.16.12-.31.17-.46l2.13,1.3s-.73,1.76-.8.75c.06-.15.11-.3.17-.46l-.46-.17c-.11.31-.22.62-.34.92-1.19-.1-.9-.19-1.71.41l-.92-.34A6,6,0,0,0,94.49,119.66Zm-1.92,6.59.92.34c-.06.15-.12.3-.17.46l-.46-.17c-.06.15-.11.3-.17.46l-.46-.17C92.34,126.86,92.46,126.55,92.57,126.25Zm.06,88.67c.06-.15.12-.31.17-.46l.46.17c-.11.31-.23.61-.34.92l-.92-.34c.06-.15.12-.31.17-.46Zm-1.41-32.85.92.34-.34.91-.92-.34C91,182.68,91.11,182.37,91.22,182.07Zm-.68,1.83,1.38.51-.17.46-1.55-.05C90.32,184.51,90.43,184.21,90.54,183.9Zm-.36-17.34-.51,1.38.46.16c-.06.16-.11.31-.17.46a5.39,5.39,0,0,1-1.67-1.13l1.43-1ZM88.36,156c0,.51,0,1,0,1.54l-.92-.34.51-1.37ZM86.58,43.73l.92.34c-.06.15-.11.3-.17.46l-.92-.34C86.47,44,86.53,43.88,86.58,43.73Zm-.1,3.09.92.34c-.11.31-.23.61-.34.92l-.92-.34C86.26,47.43,86.37,47.13,86.48,46.82ZM84.9,38.41l.92.34c-.12.31-.23.61-.34.92l-.92-.34C84.67,39,84.78,38.72,84.9,38.41Zm0,292-.17.45-.92-.34c.62-.81.09-.41.8-.74,0,.15-.11.3-.17.46Zm-.94-142.71.92.34c-.06.15-.11.31-.17.46l-.46-.17c-.06.15-.11.3-.17.46l-.46-.17C83.7,188.32,83.81,188,83.92,187.71Zm-.55,417.48.46.17c.06-.15.11-.3.17-.46l2.12,1.31c-.42,1.85.1,1.49-.1,3.09l-1.83-.68c.61-.81.08-.41.8-.74l.17-.46-1.84-.68.17-.46C83.17,605.57,83.29,606.21,83.37,605.19Zm-.55-245.28.46.16c.09.95-.69,1.06-1,1.21Zm-1.18,41.27c-.62.82-.09.42-.8.75C81.45,401.12,80.92,401.51,81.64,401.18Zm-1-41c.61-.81.08-.41.79-.74C80.83,360.21,81.36,359.81,80.65,360.14Zm-.27-296.8.91.33c-.11.31-.22.62-.34.92L80,64.25C80.15,64,80.26,63.64,80.38,63.34Zm-1,74.7.92.34c-.06.16-.11.31-.17.46l-.92-.34C79.23,138.35,79.29,138.2,79.34,138ZM80,552.32c-.61.81-.08.41-.8.74l-.17.46-.46-.17a8.45,8.45,0,0,1-.06-2.63l.45.17c-.11.3-.22.61-.34.92Zm-1.71-123.7.92.34c-.06.15-.12.3-.17.46l-.92-.34Zm0,180.43,1.09-.12c0-.51,0-1,.05-1.54l.75.79c-.06.16-.11.31-.17.46l1.09-.12c-.06.16-.12.31-.17.46l1.37.51a4.76,4.76,0,0,0-1.13,1.67A8.41,8.41,0,0,1,78,610Zm3.38,24.72c-.81,1.11-.49,1-1.88.86l.5-1.37Zm-1.35-20.32c.61-.81.08-.42.8-.75C80.5,613.52,81,613.12,80.32,613.45Zm-.58-1.26c-.06.16-.11.31-.17.46l-1.55,0,.51-1.37c.82.61.42.08.75.79ZM78.39,630c.61-.82.08-.42.8-.75,0,.51,0,1,0,1.54l-1.55,0C78.21,629.88,77.67,630.27,78.39,630ZM77,611.18c.05-.16.11-.31.17-.46l-.46-.17c0-.16.11-.31.17-.46l.92.34C77.17,611.24,77.7,610.85,77,611.18Zm-1.42,53.18c-.06.15-.11.31-.17.46-1-.7-.81-.45-1-1.43l-.45-.17c0-.15.11-.3.17-.45a2,2,0,0,0,1.25-.58l1.38.51-.51,1.37-1.38-.51C75.15,664.27,74.75,663.76,75.57,664.36Zm-4-54.13a2,2,0,0,0,1.26-.58l1.83.68-1.47,2.58-1.55,0c0-.51,0-1,0-1.55C71.4,610.6,71.52,611.25,71.6,610.23ZM65.78,451.12c-.11-1.25-.53-1.9-.36-3.27l.92.34c-.12.31-.23.62-.34.92l1.83.68-1,1.21Zm.06,112.65c-.12.31-.23.61-.34.92l-.92-.34c.06-.15.11-.31.17-.46l.46.17c.06-.15.11-.31.17-.46Zm-2.32-81.16c.06-.15.11-.31.17-.46l.92.34c-.62.81-.09.42-.8.75,0-.15.11-.31.17-.46ZM61.64,235.27c1,.06.37.21,1.09-.12l.46.17c-.48,1.38-.72,2.57-1.94,2.41,0-.71-.09-.76-.58-1.26Zm0-46.43.34-.91.92.33c-.06.16-.11.31-.17.46l-.46-.17c-.06.16-.11.31-.17.46Zm4.06,60.95-.51,1.38c-1.12-.82-1-.5-.87-1.89Zm-1.28-65.65c.62-.82.09-.42.8-.75C64.57,184.2,65.1,183.81,64.38,184.14ZM68.44,183l1.38.51-.51,1.38-1.21-1C68.22,183.64,68.33,183.34,68.44,183Zm-.32-9c0-.15.11-.3.17-.45l.46.17c0-.16.11-.31.16-.46l.46.17c-.11.3-.22.61-.34.91Zm.29,38.7.92.34c-.12.31-.23.61-.34.92l-.92-.34C68.18,213.35,68.3,213.05,68.41,212.74Zm6,2.21-.17.45-2.12-1.3.51-1.38,1.49,1.6c0,.15-.11.3-.17.46ZM73,576.85l-1.38-.51a10.33,10.33,0,0,1,1.76-2l.46.17c0,.16-.11.31-.17.46l.46.17A3.41,3.41,0,0,0,73,576.85Zm.93,28.5c-.62.81-.09.42-.8.75-.06.15-.11.3-.17.46l-.46-.17c0-.52,0-1,0-1.55ZM68.39,370.73c-.06.16-.12.31-.17.46l-1.38-.51.8-.74.46.17-.17.45Zm2.22,98.34c.62-.82.08-.42.8-.75C70.8,469.13,71.33,468.74,70.61,469.07Zm.79,85.29c0,.51,0,1-.05,1.54l-.91-.34c.17-.45.34-.91.5-1.37Zm-.51-174.88-.8.75-1.38-.51c.12-.31.23-.61.34-.92l1.38.51c.06-.15.11-.31.17-.46l.92.34c-.06.15-.12.31-.17.46Zm-1.58,29.66-1.38-.51c.81-1.12.5-1,1.89-.87Zm.29.63c-.12.3-.23.61-.34.92l-.92-.34c.11-.31.23-.62.34-.92Zm-.41-25.7c0,.15-.11.3-.17.46l-1.54,0,.8-.75Zm-.85-11.79c-.06.15-.12.31-.17.46l-1.09.12.51-1.38.46.17c-.06.15-.11.31-.17.46Zm-1.41,5.21.92.34c-.06.16-.12.31-.17.46l-.46-.17c-.06.16-.11.31-.17.46l-.46-.17C66.7,378.11,66.82,377.8,66.93,377.49Zm.68,36.24.46.17c.06-.16.11-.31.17-.46l-.46-.17.51-1.38.46.17c.06-.15.11-.3.17-.46l1.37.51L70,413l-.92-.34c-.3,1.56.21,1.74-1.31,2.12-.11.31-.23.62-.34.92l-.46-.17C67.16,415,67.39,414.34,67.61,413.73Zm-.92-.34-.91-.34c0-.15.11-.31.17-.46l.45.17c.06-.15.12-.31.17-.46l.46.17C66.92,412.78,66.81,413.08,66.69,413.39Zm3.22,53.33-1,1.21-.92-.34A3.31,3.31,0,0,1,69.91,466.72Zm.78,95.2c0,.15-.11.3-.17.46l.92.34c0,.15-.11.3-.17.45l-1.37-.5S70.57,560.91,70.69,561.92Zm.57-151,.17-.46.92.34-.17.45Zm1,1.42c-.06.15-.11.31-.17.46l.46.17c-.06.15-.12.31-.17.46l-.92-.34C72.12,412.27,71.58,412.66,72.3,412.33Zm.82,3.43c-.12.31-.23.61-.34.92l-.92-.34c.11-.31.23-.61.34-.92Zm-.79,28.91c-.61.82-.08.42-.8.75C72.15,444.61,71.62,445,72.33,444.67ZM74,378l.17-.45-.46-.17c.06-.16.11-.31.17-.46l.92.34C74.21,378.1,74.75,377.71,74,378Zm.12-37-.46-.17-.17.46-1.38-.51c.23-.61.46-1.22.68-1.83l1.84.68Zm-1.11,34-.67,1.84-.46-.17c0-.16.11-.31.17-.46l-.75-.8.51-1.38Zm-2-48.19c.61-.81.08-.42.8-.75C71.23,326.94,71.76,326.54,71.05,326.87Zm.39-2.46c-1-.06-.37-.21-1.09.12a6.2,6.2,0,0,1-2.12-1.31c.11-.3.22-.61.34-.92,1.76.87,1.46,1.17,3.21,1.19C71.66,323.8,71.55,324.1,71.44,324.41Zm-2.89-30.27s.68-1.75.8-.75l-.17.46.92.34c-.06.15-.12.31-.17.46ZM69.64,256l-.92-.34.34-.91L70,255C69.86,255.34,69.75,255.65,69.64,256Zm-.55,69.16-.5,1.37-2.93-.56c.23-.61.46-1.22.68-1.83ZM66,312.47c0-.15.11-.31.17-.46l1.37.51c.43.55-.63.29-.63.29s-.11.31-.17.46C66.44,313,66.19,312.74,66,312.47Zm1.67-22.85c-.82-.61-.42-.08-.75-.8l-.46-.17.17-.45,1.37.5Zm-.74-34.68c0,.15-.11.3-.17.45L66,254.6c0-.16.11-.31.17-.46l1.37.51C67.94,255.19,66.88,254.94,66.88,254.94Zm-.25,31.71c-.11.31-.23.61-.34.92l-.92-.34c.12-.31.23-.61.34-.92Zm-1.43,1s0,.16-1.25.58C64.1,288.18,64.88,287.18,65.2,287.69ZM64.07,427.54s0,.17-1.26.58C63,428,63.75,427,64.07,427.54Zm0-134,.51-1.38,1.55.06c-.06,1-.21.37.12,1.08-.06.16-.11.31-.17.46Zm.79,33.14.91.34c0,.15-.11.31-.17.46l-.91-.34C64.75,327,64.81,326.82,64.87,326.67ZM66,382.88l.92.34-.51,1.38-.46-.17-.17.45-.46-.16Zm-.3,47.34,1.38.51c-.11.31-.23.61-.34.92l-1.38-.51C65.46,430.83,65.57,430.53,65.68,430.22Zm1,7.15c-.06.16-.11.31-.17.46l-.92-.34c.06-.15.12-.3.17-.46Zm-.08,45.34,1.55.05c-.33.4-.65.8-1,1.21l-.92-.34C66.38,483.32,66.5,483,66.61,482.71Zm.71,92.56.92.34L67.73,577l-.92-.34ZM68.06,562c.06-.16.11-.31.17-.46l.46.17c.06-.15.11-.31.17-.46l.46.17c-.12.3-.23.61-.34.92Zm2.69,12.46.92.34a4.07,4.07,0,0,1-2.23,1.79c0,.15-.11.3-.16.46l-.46-.17C69.67,575.64,70,576,70.75,574.45Zm3.29,56c.34-.34.57,1.22.58,1.26l-.75-.8C73.93,630.73,74,630.58,74,630.42Zm2.16,9.67c.62-.82.09-.42.8-.75C76.39,640.15,76.92,639.76,76.2,640.09ZM77,631l-2.29-.85c.69-1,.86-.83,1.6-1.49.81.61.41.08.74.8l.46.17ZM76.9,242c.61-.81.08-.42.8-.74C77.08,242,77.62,241.62,76.9,242Zm.74-89.42c-.62.82-.09.42-.8.75C77.45,152.47,76.92,152.86,77.64,152.53ZM76.34,345c-.06.16-.11.31-.17.46l.46.17c-.06.16-.11.31-.17.46l-.92-.34C76.16,344.93,75.63,345.32,76.34,345Zm.56,259.37c-.06.16-.11.31-.17.46.32.71.2.07.12,1.09a4.8,4.8,0,0,1-2-.22l.51-1.38Zm-2.59-440,.92.34c-.62.81-.08.42-.8.75.06-.15.11-.31.17-.46l-.46-.17C74.2,164.65,74.26,164.49,74.31,164.34ZM73.17,65.89l.92.34-.17.46L73,66.35C73.06,66.19,73.12,66,73.17,65.89Zm-1.3,102.24,1.37.51c-.11.31-.22.61-.34.92l-1.37-.51C71.64,168.74,71.75,168.44,71.87,168.13Zm-.53,35.27.92.34-.17.45-.92-.34C71.23,203.7,71.29,203.55,71.34,203.4Zm-.71,107.67a3.89,3.89,0,0,0,.41,1.72c-.11.31-.22.61-.34.92l-.46-.17c.12-.31.23-.61.34-.92l-.91-.34c.17-.46.33-.92.5-1.37ZM70,212.79l-.91-.34c0-.15.11-.3.17-.46l.91.34C70.07,212.48,70,212.64,70,212.79Zm-.07-40.7c0,.15-.11.31-.17.46a5.05,5.05,0,0,1-1.66-1.14l.8-.75c.24.27.49.54.74.8,0,.15-.11.31-.17.46ZM68,167.23l1.37.51-.79.75-.46-.17c-.06.15-.12.31-.17.46l-.46-.17ZM66.55,193.8c1,.69.83.86,1.49,1.6-.11.3-.22.61-.34.91a4.74,4.74,0,0,1-2-.22c.07-.66.15-1.33.22-2l.46.17C66.43,194.11,66.49,194,66.55,193.8Zm-1-77.56c.61-.81.08-.42.79-.75C65.69,116.31,66.22,115.91,65.51,116.24Zm-.15-19.35.92.34c-.23.61-.46,1.22-.68,1.84l-1.38-.51Zm-1.77,88c-.06.16-.12.31-.17.46l-.75-.8.17-.45,1.38.51C64.64,185.14,63.59,184.88,63.59,184.88ZM61.12,70.29l.91.34c-.11.31-.22.61-.34.92l-.91-.34C60.89,70.9,61,70.6,61.12,70.29ZM61,77.56l.46.17c.06-.15.12-.3.17-.46l1.38.51c-.06.16-.11.31-.17.46l-2.34.7C60.7,78.48,60.87,78,61,77.56Zm-.54,193.26,1.37.51c-.16.46-.33.92-.5,1.38l-.92-.34c.06-1,.21-.37-.12-1.09Zm-2-194.73c.06-.16.12-.31.17-.46l1.21,1-.34.91-1.84-.68C58.27,76,57.74,76.42,58.45,76.09Zm-3,611.6.51-1.37a3.85,3.85,0,0,0,1.71-.41l.46.17-.84,2.29-.46-.17c-.29.77-.57,1.53-.85,2.3l-.46-.17.39-2.47ZM56.91,376.4c.61-.82.08-.42.8-.75C57.09,376.46,57.62,376.07,56.91,376.4Zm2.35,351.81-.51,1.37c-.69-1.14.1-1-1.32-2.05,0-.16.11-.31.17-.46A5.05,5.05,0,0,1,59.26,728.21ZM58.44,86,59,84.61l.46.17c0,.52,0,1,0,1.55ZM58.19,732.5c-.61.82-.08.42-.79.75C58,732.44,57.48,732.83,58.19,732.5Zm-1.44-27.12.92.34-.34.91-.92-.33C56.53,706,56.64,705.68,56.75,705.38Zm2.83,41.72c-.06.15-.12.3-.17.45a7.22,7.22,0,0,1-2.92-.55l.51-1.38ZM58,191.66c-.61.82-.08.42-.8.75C57.77,191.6,57.24,192,58,191.66Zm-1.23,119,.92.34-.51,1.38.46.17c-.06.15-.12.3-.17.46l-.92-.34A4.8,4.8,0,0,1,56.72,310.62Zm-.32,5.1.46.17c-.06.15-.11.3-.17.46l.46.17c-.06.15-.11.3-.17.46l-1.09.12Zm-.62-147.8c0,.51,0,1-.05,1.54l-.92-.33.51-1.38Zm-2.55-31.19c.06-.15.12-.3.17-.46a3.45,3.45,0,0,1-2-.22l.51-1.37,2.75,1-.17.45.46.17-.68,1.84-.92-.34C53.42,136.8,53.56,137.45,53.23,136.73Zm-.76,257.32.17-.46.91.34c-.61.81-.08.42-.79.75.05-.16.11-.31.16-.46Zm.63-48.26c-.05.15-.11.3-.17.46l-.91-.34c.61-.82.08-.42.79-.75l-.16.46ZM52.39,139l-.92-.34c.06-.16.11-.31.17-.46l.92.34C52.5,138.72,52.44,138.87,52.39,139Zm0,242.48.46.17-.51,1.38-.92-.34Zm2.4-126.35c0-.15.11-.3.17-.46l.46.17-.17.46.45.17c0,.15-.11.31-.17.46L54,255.91C54.62,255.1,54.09,255.49,54.81,255.16ZM54.24,119.9l.92.34c-.11.3-.22.61-.34.91l-.91-.33Zm-.43,4s0,.16-1.26.58C52.7,124.4,53.48,123.4,53.81,123.91ZM52.06,130l.92.34-.51,1.38-.92-.34Zm-.39,2.46c-.62.82-.08.42-.8.75C51.49,132.44,51,132.83,51.67,132.5Zm-.52,335.63c-.12.3-.23.61-.34.91l-.92-.33c.11-.31.22-.62.34-.92Zm-1.21-1-.46-.17a5.79,5.79,0,0,1,.39-2.46l.92.34C50.5,465.63,50.22,466.39,49.94,467.16Zm-.62-310c-.06.15-.11.3-.17.46l-.75-.8c.06-.16.12-.31.17-.46l1.38.51C50.37,157.44,49.32,157.19,49.32,157.19Zm-8.78,408.7,1.55.05c-.11.31-.23.61-.34.92l-1.37-.51Zm-.11-1.09c.61-.81.08-.41.79-.74C40.61,564.87,41.14,564.47,40.43,564.8Zm1.08-.12,1-1.2-.92-.34c.12-.31.23-.61.34-.92,1,.69.83.86,1.5,1.6-.12.3-.23.61-.34.91ZM41,508.19l-.91-.34c.11-.31.22-.61.34-.92L42,507Zm.9,20.14-.51,1.38L40,529.2l.51-1.38Zm-1.33-78.19.46.17-.12-1.08.46.17c0-.16.11-.31.16-.46l.46.17-.51,1.37c.82.62.42.08.75.8.71-.33.2.08.8-.75l.46.17a10,10,0,0,1-1.82,3.5c-1.73-.85-1.76-1.42-1.44-3.14C39.85,450.24,40,450.89,40.59,450.14Zm4.14,5.71c.12-.31.23-.61.34-.92l.92.34c-.11.31-.22.61-.34.92ZM45.4,564c-.61.81-.08.42-.8.74C45.22,564,44.69,564.37,45.4,564Zm.33-215.24-.51,1.37-1.37-.5,1.42-1Zm0-118.38c0-.52,0-1,0-1.55l.91.34-.51,1.38ZM42.45,469.08l1.37.51c0,.15-.11.31-.17.46L42.11,470C42.22,469.69,42.34,469.39,42.45,469.08ZM42,467.37c.06-.16.11-.31.17-.46.34-.34.57,1.21.58,1.25ZM41.23,416l.51-1.38,1.84.68c-.07,1-.21.37.12,1.09-.06.15-.12.3-.17.45Zm1.67,1.13c-.62.82-.08.42-.8.75C42.71,417,42.18,417.43,42.9,417.1Zm.58-84.78-1.37-.51.51-1.37L44,331ZM44.77,225.9l-.46-.17c-.06.15-.11.31-.17.46l-.46-.17a4.8,4.8,0,0,1,.22-2l1.38.51Zm-2.94,71.4-.17.46c-.25-.27-.49-.54-.74-.8l2.85-2.08.46.17C43.52,296.93,43.18,297,41.83,297.3Zm0,191.88c.61-.82.08-.42.79-.75C42,489.24,42.51,488.85,41.8,489.18Zm2.37,93.7,1.38.5c-.37,1.55-.08,1.5.07,2.64l-.46-.17c-.06.15-.11.3-.17.46l-1.84-.68c0,.15-.11.3-.17.46l-.45-.17C43.47,584.29,43.36,584.41,44.17,582.88Zm1.91,17.39s0,.17-1.25.58C45,600.77,45.76,599.77,46.08,600.27Zm-.37-31.43,1.48-2.58.91.34-1.47,2.58Zm1.8-270-.46-.17c.06-.15.11-.3.17-.46l1.38.51c-.12.31-.23.62-.34.92C47.44,299.06,47.84,299.59,47.51,298.87Zm1.15-197.72c0,.15-.11.3-.17.46l.46.17c-.05.15-.11.3-.17.45l-.91-.33C48.48,101.08,48,101.48,48.66,101.15ZM48.2,225.08l-.75-.8c.06-.15.12-.3.17-.45C48,223.48,48.19,225,48.2,225.08Zm-1.48-73.55.46.17c0-.15.11-.31.17-.46l.46.17c0,.52,0,1-.05,1.55-.82-.62-.42-.09-.75-.8l-.46-.17C46.61,151.84,46.66,151.68,46.72,151.53Zm-.27,41.62.92.34c-.06.15-.11.3-.17.46l-.92-.34C46.34,193.45,46.39,193.3,46.45,193.15Zm.32,33-.5,1.38-.92-.34.51-1.38Zm-1.9-65.36.92.33c-.06.16-.11.31-.17.46l-.46-.17c-.06.16-.11.31-.17.46l-.46-.17C44.65,161.37,44.76,161.06,44.87,160.76Zm0,46.42c-.28.77-.56,1.53-.85,2.29l-.45-.17c-.06.16-.12.31-.17.46l-.46-.17,1-2.75Zm-1.86-95.07.91.34c-.11.3-.22.61-.34.91l-.91-.34C42.82,112.72,42.93,112.41,43.05,112.11Zm-.67,92.05,1.38.51c-.12.3-.23.61-.34.91l-1.38-.5C42.15,204.77,42.27,204.46,42.38,204.16Zm1.38,38.57.46.17c-.74.66-.93.47-1.6,1.5a6.2,6.2,0,0,1-2.12-1.31c.22-.61.45-1.22.68-1.83l-.92-.34.51-1.38C42.43,240.33,43.47,241.33,43.76,242.73Zm-4.21-18.24.46.17c.06-.15.12-.3.17-.46l.46.17c-.11.31-.23.61-.34.92l-.92-.34C39.44,224.8,39.5,224.65,39.55,224.49Zm.12,1.09,1.84.68c-.06.15-.11.3-.17.46l-.46-.17c-.81.58-.51.53-1.72.41Zm-.59,32.63.92.34c.11-.31.22-.61.34-.92l1.2,1L41,260c.71-.33.2.07.8-.75l.46.17c-.06,1-.21.37.12,1.09a5.05,5.05,0,0,1-1.14,1.66c-1-.49-1.22-.49-1.66-1.14,0-.15.11-.3.17-.45l-.46-.17-.46-.17c.06-.16.11-.31.17-.46l-.46-.17ZM40.48,277c-.07.67-.15,1.34-.22,2l-1.37-.51c.22-.62.45-1.23.67-1.84Zm-3.79-2.44.92.34c-.06,1-.21.37.12,1.08-.06.16-.11.31-.17.46l-1.21-1C36.47,275.15,36.58,274.84,36.69,274.54Zm1.12,94.27.17-.46.92.34.51-1.37.46.17c.05-.16.11-.31.16-.46l.75.8a10.53,10.53,0,0,1-1.13,1.66l.45.17c-.17.46-.34.92-.5,1.38l-.46-.17c-.06.15-.12.3-.17.46l-1.38-.51c.11-.31.23-.61.34-.92l-2.12-1.31c.11-.3.22-.61.34-.91A12.2,12.2,0,0,1,37.81,368.81ZM36.9,506.66l-.92-.34c.06-.15.11-.3.17-.46l.46.17.17-.46.46.17C37.12,506.05,37,506.35,36.9,506.66ZM38,567.05c-.61.81-.08.42-.8.75C37.85,567,37.32,567.38,38,567.05Zm-.91-148.43.51-1.38.46.17c0,.52,0,1-.05,1.55Zm-.24-2.18c.62-.81.09-.41.8-.74C37.07,416.51,37.6,416.11,36.88,416.44Zm.71,16.43.92.34L38,434.58l-.46-.16C37.56,433.9,37.57,433.38,37.59,432.87Zm.54-7.1c.06-.15.11-.31.17-.46l-.46-.17.8-.75.46.17C39,424.8,38.66,426.56,38.13,425.77Zm.8-24.73-1.37-.51.33-.92,1.38.51C39.16,400.42,39,400.73,38.93,401Zm-.26-6.36c.62-.81.09-.42.8-.75C38.86,394.75,39.39,394.35,38.67,394.68ZM36.09,293.09c-.61.81-.08.42-.8.74C35.91,293,35.37,293.42,36.09,293.09ZM31.17,668.8c-.06.15-.11.31-.17.46l-.46-.17c.06-.15.11-.31.17-.46l-.46-.17c.06-.15.12-.3.17-.46l1.55,0C31.35,668.87,31.89,668.47,31.17,668.8Zm.69-250-1.21-1c.06-.15.11-.31.17-.46l-.46-.17.17-.46,1.67,1.14C32.08,418.14,32,418.45,31.86,418.76Zm-.26-6.36c.61-.81.08-.41.8-.74C31.78,412.47,32.31,412.07,31.6,412.4Zm3,77.78.16-.45.92.33c0,.16-.11.31-.17.46Zm.94,256.91c.62-.81.09-.42.8-.75C35.78,747.16,36.31,746.76,35.59,747.09Zm.94-19.47s.68-1.75.8-.74c0,.15-.11.3-.17.45l.92.34-.8.75Zm.7,2.35.51-1.38.46.17C38.29,729.71,37.51,729.81,37.23,730Zm.61-242.78-.46-.17.51-1.37-.46-.17c.06-.16.11-.31.17-.46l1.37.51A4.8,4.8,0,0,0,37.84,487.19Zm.38-16.54,1.31-2.13,1.37.51C40.09,470.36,39.77,470.81,38.22,470.65Zm1.21,77.1a4.93,4.93,0,0,1,1.26-.58l.51-1.37c.48-.5.16.22.63-.29l.45.17c-.05.15-.11.3-.17.45l.46.17-.51,1.38.46.17c-.05.15-.11.31-.17.46Zm1.2,125.07c.06-.15.12-.3.17-.46l-.46-.17.51-1.37.46.17c-.05.15-.11.3-.17.46l.46.17C41.48,671.85,41.17,673.61,40.63,672.82Zm1.2-89.25-.46-.17c0-.51,0-1,.05-1.54l.92.34Zm1.53,48-.91-.34c.11-.3.22-.61.34-.91l.91.34C43.59,631,43.48,631.29,43.36,631.59Zm-.13-29.25c.61-.81.08-.42.8-.74C43.41,602.41,44,602,43.23,602.34Zm2.24,2.4-1.37-.51c.11-.31.22-.61.34-.92.81.62.42.08.74.8l.46.17C45.59,604.43,45.53,604.58,45.47,604.74Zm.34-.92c.12-.31.23-.61.34-.92l.92.34c-.11.31-.23.61-.34.92Zm2.52,12.93c-1-.07-.37-.21-1.08.11l-.46-.16,1.42-1,.46.17C48.56,616.13,48.45,616.44,48.33,616.75Zm.93-386.06.91.34c-.61.81-.08.42-.79.75,0-.16.11-.31.17-.46l-.46-.17C49.14,231,49.2,230.84,49.26,230.69Zm2,386.61-2-.22.51-1.37,1.84.68C51.48,616.69,51.37,617,51.26,617.3Zm.61-152.55.46.17c.06-.16.12-.31.17-.46l.46.17-.39,2.46-.92-.34C51.73,466.08,51.8,465.41,51.87,464.75ZM53,645.06l-.92-.34c0-.15.11-.31.17-.46l.92.34C53.1,644.75,53,644.91,53,645.06Zm.4-198.52-.91-.34c.61-.82.08-.42.79-.75l-.17.46.46.17C53.51,446.23,53.45,446.38,53.39,446.54Zm-.11-187.25c.11-.3.23-.61.34-.92l.92.34c-.12.31-.23.61-.34.92Zm1,135.44c.62-.82.08-.42.8-.75C54.48,394.79,55,394.4,54.3,394.73Zm.8,237.55,1.38.51c-.06.16-.11.31-.17.46l.46.17-.17.46-.46-.17c-.06.15-.11.31-.17.46l-1.21-1C54.88,632.9,55,632.59,55.1,632.28Zm.63,99.84.92.33-.51,1.38-.92-.34ZM57,759.7l-1.37-.51c.11-.3.22-.61.34-.92l1.37.51C57.23,759.09,57.12,759.39,57,759.7Zm1-8.48-.46-.17-.17.46-.74-.79c.78-.46,1-1,1.54,0Zm1.55,0-.92-.34L59,750c-.81-.62-.42-.08-.75-.8s-.2-.07-.12-1.09l.46.17c-.11.31-.23.61-.34.92l1.67,1.14C59.82,750.66,59.71,751,59.6,751.27Zm2-338.2L60.05,413c.12-.31.23-.61.34-.92l1.38.51C61.71,412.76,61.65,412.91,61.6,413.07Zm.1-3.09c-.39-.58.63-.29.63-.29l-.12-1.09.91.34-.5,1.38Zm1.09,76c.73-1.41.91-1.19,1.77-1.95l.91.34-.84,2.29-1.55-.05c.06-.15.11-.31.17-.46Zm4.39,184.13-.17.46-.46-.17c.06-.15.12-.3.17-.45l-.46-.17c.06-.16.12-.31.17-.46l1.55,0C67.37,670.19,67.9,669.8,67.18,670.12ZM65.4,667.9c.61-.81.08-.42.8-.75,0-.15.11-.3.17-.46.24.27.49.54.74.8l.12,1.09C65.68,668.49,66.64,668.88,65.4,667.9ZM68.94,616l-2.75-1c0-.15.11-.3.17-.46l-.46-.17-.51,1.38c-1-.69-.83-.86-1.5-1.6l2.28-3.33.91.34c.62-.81.09-.41.8-.74.06-.16.12-.31.17-.46l1.38.51a8.53,8.53,0,0,0-1.19,3.21l1.38.51Zm1.22-8.93c.21.86-1,1.51-1.94,2.41l-.46-.17c-.05.15-.11.3-.17.46l-.46-.17,1.65-3,1.55,0C70.27,606.78,70.21,606.93,70.16,607.09Zm1.42-1c-.61.81-.08.42-.79.75C71.4,606,70.87,606.38,71.58,606.05Zm0,9.9c-.06.15-.11.31-.17.46l-.46-.17.51-1.38L71,614.7l1-1.21,1.38.51c-.06.15-.12.3-.17.46l.46.17c-.7,1-.86.83-1.6,1.49Zm2,156.67-.92-.34c.11-.31.22-.61.34-.92l.91.34Zm1.59-63.55-1.37-.51c.11-.3.22-.61.34-.92l1.37.51C75.43,708.46,75.32,708.77,75.2,709.07Zm-1.11-42.13.51-1.37,1.84.68-.51,1.37Zm3.29,41.89-1.09.12.51-1.37.46.17c-.06.15-.12.3-.17.45l.46.17C77.49,708.53,77.43,708.68,77.38,708.83ZM77.29,702c-.06.15-.11.31-.17.46l-.46-.17a7.26,7.26,0,0,1,.56-2.92l1.38.51C78.25,701.39,78.78,701.41,77.29,702Zm1-36.64c0-.52,0-1,.05-1.55l.92.34-.51,1.38Zm1.09-.12c1,.06.37.21,1.09-.12,1,.69.83.86,1.49,1.6,0,.15-.11.3-.17.46l-.74-.8c-.12.3-.23.61-.34.91l.91.34c0,.52,0,1-.05,1.55l1.33,2c-.11.31-.23.62-.34.92l-.92-.34c0-1.54.27-.48-1.2-1,0-.16.11-.31.17-.46l-.46-.17.51-1.38-.46-.17c0-.15.11-.3.17-.46l-.46-.17-.51,1.38-.46-.17A12.57,12.57,0,0,1,79.41,665.26Zm2.09,7c-.11.31-.22.61-.34.92l-.91-.34c.11-.31.22-.61.34-.92Zm-2.33,14.78c0-.15.11-.3.17-.46l.91.34c-.61.82-.08.42-.79.75.05-.15.11-.31.17-.46Zm1.29,45.85-.91-.34c.11-.31.22-.61.34-.92l.91.34C80.69,732.31,80.58,732.61,80.46,732.92Zm2.43-32-.45-.17c-.06.16-.12.31-.17.46l-.46-.17c.11-.3.22-.61.34-.91l.91.34C83,700.66,83,700.81,82.89,701Zm-2.32-19.1c1.43-.78,1.51.17,2.64-.07.3-.07.76-.84,1.42-1,0,.15-.11.31-.17.46l.46.17C83.79,683.71,82.17,683.33,80.57,681.86Zm3.75,42c.05-.15.11-.3.17-.46l-.46-.17c0-.15.11-.3.17-.45l.91.33C84.5,724,85,723.58,84.32,723.91Zm1.2-37.1-.46-.17-.17.46-.46-.17c.12-.3.23-.61.34-.91l.92.33C85.63,686.51,85.58,686.66,85.52,686.81ZM86,701.06c.94-.09,1.05.69,1.2,1l.46.17c-.06.16-.11.31-.17.46a5.05,5.05,0,0,1-1.66-1.14C85.87,701.37,85.93,701.22,86,701.06Zm.06,26.62c1.46-.5,1.38-1.13,3.43-.81l-1.81,3.5c-1.32-.67-1.25-.51-1.5-1.6C85.85,728.06,86,728.7,86.05,727.68Zm1.23,19.23c-.71.32-.06.2-1.08.12l0-1.55,1.83.68C87.47,747,88,746.58,87.28,746.91Zm3.29,17.9-.92-.34.51-1.37.46.17C90.6,763.78,90.59,764.3,90.57,764.81Zm.77-33.09-3.22-1.18.51-1.38,3,1.65Zm1.43,13-.92-.34.51-1.38.46.17C92.8,743.74,92.79,744.25,92.77,744.77ZM93,727.14l-.92-.34c.12-.31.23-.62.34-.92l.92.34C93.26,726.52,93.14,726.83,93,727.14Zm.28-275.75.8-.75.46.17c-.12.24-.43,2-1,1.21.06-.15.12-.31.17-.46Zm.81,37.32.91.34c-.11.3-.22.61-.34.92l-.91-.34C93.89,489.32,94,489,94.12,488.71ZM94.81,453c.11-.31.23-.62.34-.92l1.38.51c-.12.3-.23.61-.34.92Zm1.28,41.66c-.7,1-.45.82-1.43,1A3.87,3.87,0,0,1,96.09,494.65ZM95.8,694.27l-.92-.34c.62-.82.09-.42.8-.75-.06.15-.11.3-.17.46l.46.17C95.91,694,95.86,694.11,95.8,694.27Zm0-66.24c.62-.81.09-.41.8-.74C96,628.1,96.5,627.7,95.78,628ZM94.62,449.27l.51-1.38.46.17c.06-.15.11-.31.17-.46l1.37.51C96.31,449.31,96.08,449.45,94.62,449.27Zm2.55,331.54c.61-.81.08-.42.8-.75C97.35,780.88,97.89,780.48,97.17,780.81Zm1.56-95.89-1.37-.51c.11-.3.22-.61.34-.92,1,.07.37.21,1.08-.11l.46.16Zm.68-264.13.46.17c.06-.15.12-.3.17-.45l.46.16c-.11.31-.23.62-.34.92l-.92-.34C99.3,421.1,99.36,421,99.41,420.79Zm.83,17.52.92.34c-.12.3-.23.61-.34.91l-.92-.34Zm.43,82,1.84.67c-.06.16-.12.31-.17.46l-.46-.17a2,2,0,0,1-1.26.58C100.64,521.37,100.65,520.85,100.67,520.34Zm5.66,211.72-.45-.17a2.29,2.29,0,0,1-2.35.69c-.11.31-.22.61-.34.92l-1.37-.51.51-1.37-.92-.34.39-2.47.46.17c0-.15.11-.3.17-.46l1.37.51c0,.16-.11.31-.17.46l-.46-.17-.84,2.3a3.73,3.73,0,0,0,2.34-.7l1.83.68C106.45,731.75,106.39,731.9,106.33,732.06Zm.18-162.64c.61-.81.08-.41.79-.74C106.69,569.49,107.22,569.09,106.51,569.42ZM107,724.5l.8-.75.46.17-.17.46.46.17-.17.45Zm1.57,4.22c1.12.82,1,.5.87,1.89l-1.38-.51Zm.53,2.81.46.17c0,.51,0,1,0,1.54l-.92-.34Zm2.5,8.74-2-1.76c.06-.15.12-.31.17-.46l-.45-.17.16-.46,1.84.68c-.11,1.2-.19.91.41,1.72Zm.51-25.36-.46-.17c.06-.15.12-.3.17-.46l-1-1.42c0-.16.11-.31.17-.46l1.66,1.14Zm.78-4.92-2-.22c.22-.62.45-1.23.68-1.84l.91.34c-.11.31-.22.61-.34.92l.92.34C113,709.68,113,709.83,112.93,710Zm-.21-7.9c0,.15-.11.3-.17.46l-.91-.34c.61-.82.08-.42.79-.75-.05.15-.11.3-.17.46Zm.12,1.08c-.61.82-.08.42-.8.75C112.66,703.11,112.13,703.5,112.84,703.17Zm.35-10.82a3.7,3.7,0,0,1-1-1.42c-.82-.62-.42-.09-.75-.8,1.17,0,2.28.17,3.26-.36l.92.34c-.06.15-.12.31-.17.46a4.8,4.8,0,0,1-2-.22c-.06,1-.21.37.12,1.09C113.42,691.74,113.31,692.05,113.19,692.35Zm1.38,24.5.33-.92.92.34c-.11.31-.22.61-.34.92Zm2,14.3-.92-.34c.61-.81.08-.42.8-.75-.06.16-.12.31-.17.46l.46.17Zm-.19-27.71-1.37-.5.51-1.38,1.37.51Zm.11-65.14c.61-.81.08-.42.79-.75C116.68,638.37,117.21,638,116.5,638.3Zm.69,64.4c.62-.82.08-.42.8-.75C117.37,702.76,117.91,702.37,117.19,702.7Zm.19-96.4.51-1.38.92.34-.51,1.38Zm1.31,12,.92.33c-.11.31-.23.62-.34.92l-.92-.34C118.47,618.87,118.58,618.56,118.69,618.26Zm.22,98.11c.62-.81.09-.42.8-.75C119.1,716.44,119.63,716,118.91,716.37Zm1-73.16c0-.16.11-.31.17-.46l-.46-.17c0-.15.11-.31.17-.46l.91.34C120.08,643.27,120.61,642.88,119.9,643.21Zm.09-241.4c.06-.15.12-.31.17-.46l-.46-.17c.06-.15.12-.3.17-.46l.92.34C120.18,401.88,120.71,401.48,120,401.81Zm.08-207.51c.62-.81.08-.42.8-.75C120.26,194.37,120.79,194,120.07,194.3Zm-.54-7,.16-.46-.45-.17c.05-.15.11-.31.17-.46a8.73,8.73,0,0,1,2.63-.07c-.11.31-.23.61-.34.92A5.6,5.6,0,0,0,119.53,187.32Zm2,56.55.92.34c-.12.3-.23.61-.34.91l-.92-.34ZM123,641.76l-.92-.34c.06-.15.11-.3.17-.46l.92.34C123.15,641.46,123.09,641.61,123,641.76Zm.77,43a4.74,4.74,0,0,1,2,.22c-.22.61-.45,1.22-.68,1.83l-1.37-.51c0-.15.11-.3.17-.46C123.61,685.18,123.73,685.83,123.81,684.81Zm2.77,5.19L125,690c0-.51,0-1,0-1.54l1.84.68C126.8,689.39,126.69,689.7,126.58,690Zm1.13-177.92a4.74,4.74,0,0,1-2-.22c.16-.46.33-.91.5-1.37l1.38.51-.17.45.46.17C127.82,511.78,127.77,511.93,127.71,512.08Zm.34,175.34c.62-.81.09-.42.8-.75C128.24,687.49,128.77,687.09,128.05,687.42Zm1-6.93-.91-.34c.61-.81.08-.42.79-.75-.05.15-.11.31-.17.46l.46.17C129.17,680.18,129.11,680.34,129.05,680.49ZM129.13,497l-1.84-.67c.12-.31.23-.62.34-.92l2.47.39Zm2.13-8.59-.91-.34c.61-.81.08-.42.8-.75-.06.15-.12.31-.17.46l.45.17C131.38,488.06,131.32,488.22,131.26,488.37ZM131.12,469l-.92-.34c.11-.3.23-.61.34-.92l.92.34C131.35,468.41,131.23,468.71,131.12,469Zm1.26-24.56-.92-.34c.62-.82.09-.42.8-.75-.06.15-.11.31-.17.46l.46.17C132.49,444.15,132.44,444.3,132.38,444.46Zm1.73,290c-.44-.68-.88-1.37-1.33-2,.06-.15.12-.31.17-.46l1.33,2.06Zm.44-204.24.46.17c.05-.16.11-.31.17-.46.81.61.41.08.74.79l.46.17-.51,1.38-1.37-.51C134.51,531.29,134.53,530.77,134.55,530.26Zm.54,55c0-.16.11-.31.17-.46.34-.34.57,1.21.57,1.26Zm2,182.2-1.37-.51c.06-.16.11-.31.17-.46l1.37.51C137.18,767.1,137.12,767.25,137.06,767.41Zm.76-185.36-.46-.17-.17.46a3.5,3.5,0,0,0-1.66-1.14c.61-.82.08-.42.79-.75.06-.15.12-.31.17-.46l1.38.51C137.85,581,137.84,581.53,137.82,582.05Zm-.13-15.17c.62-.82.08-.42.8-.75C137.88,566.94,138.41,566.55,137.69,566.88Zm1.66-113.07L138,453.3c.3-.36,1.24-.67,1.14-1.66l-.46-.17c.12-.31.23-.61.34-.92l1.21,1C139.35,453,139.42,452.21,139.35,453.81Zm1.19,259.08c.17-.45.34-.91.5-1.37l1.38.51C141.61,713.14,141.93,713,140.54,712.89Zm2.5-15.23c.7-1,.45-.82,1.43-1A3.87,3.87,0,0,1,143,697.66Zm1.06-18.39.51-1.37,1.38.51C145.18,679.53,145.49,679.41,144.1,679.27Zm1.12-43.91c.05-.15.11-.3.17-.45l-.46-.17.8-.75.46.17C146.06,634.39,145.75,636.16,145.22,635.36ZM145.57,138c.12-.31.23-.62.34-.92l.92.34c-.11.3-.22.61-.34.92Zm1.24,481.76.91.34-.33.91-.92-.34C146.58,620.4,146.69,620.09,146.81,619.79Zm.85,111.9-.91-.34.33-.91.92.34C147.89,731.08,147.78,731.39,147.66,731.69ZM148.92,607c.06-.15.12-.3.17-.46l-.46-.17c.06-.15.12-.3.17-.46l.92.34C149.11,607.08,149.64,606.68,148.92,607Zm.61-366.88-.91-.34c-.12.31-.23.61-.34.92l-.92-.34.51-1.38,2,.22C149.76,239.52,149.65,239.83,149.53,240.13Zm1-15.29c-.05.16-.11.31-.17.46l-.45-.17c.17-.46.34-.91.5-1.37l.92.34C150.68,224.91,151.21,224.51,150.49,224.84Zm1.19-3.21c-1.5-.9-1.45-1.2-3.21-1.19a4.75,4.75,0,0,1,.22-2l2.29.85c-.11.3-.22.61-.34.92l1.38.5C151.91,221,151.79,221.33,151.68,221.63Zm.52,50.78,6.47.82-1.93,2.42c-1-.07-.37-.21-1.09.12-1-.5-1.18-.51-1.66-1.14l.16-.46-1.37-.51c.06-.15.11-.3.17-.46C152.13,272.59,152.53,273.12,152.2,272.41Zm2.2,18c-.61.81-.08.42-.8.74,0,.16-.11.31-.17.46l-.46-.17.51-1.37Zm-1.75,54.1c.16-.46.33-.92.5-1.38l2.13,1.31c-.23.61-.45,1.22-.68,1.84l-.46-.17c.06-.16.11-.31.17-.46l-1.38-.51.17-.46Zm2.07,2.85c-.06.16-.11.31-.17.46l.46.17c-.06.15-.11.31-.17.46l-.92-.34C154.54,347.32,154,347.71,154.72,347.38Zm3.84,163.07c-.06.16-.12.31-.17.46L157,510.4c-.06.16-.11.31-.17.46l-.46-.17c.06-.15.12-.3.17-.46-1.84-1-1.25-1.2-2.24-2.39,1-2.2,1.64-1.61,2.73-3.16l1.84.68c-.06.15-.12.3-.17.46l1.54.05.12,1.08.92.34-.51,1.38-1.37-.51c-.07,1-.21.37.11,1.09l-.5,1.37Zm1.55,14.14.46.17c.06-.16.11-.31.17-.46.32.71.2.06.12,1.08.32.71.19.07.12,1.09l-1.55-.05Zm-.44,242.31c.06-.15.12-.3.17-.46l.92.34c-.61.82-.08.42-.8.75.06-.15.12-.31.17-.46Zm1.45,3.14-.92-.34.17-.45.46.16L161,769l.46.17Zm0-4.18-.92-.33.85-2.3.46.17Zm.32-343.52-1.38-.51.51-1.37,1.38.51Zm.54,107.1c0-.51,0-1,0-1.54.82.61.42.08.75.8l.46.16c-.06.16-.11.31-.17.46l-.46-.17c-.05.16-.11.31-.17.46Zm1.39,52.66-.92-.34.51-1.37.46.17C163.38,581.07,163.37,581.59,163.35,582.1Zm.67-15.92-.92-.33c.07-1,.21-.38-.12-1.09l.17-.46.92.34C164.05,565.15,164,565.67,164,566.18Zm-1.08-23.86c.81-1.12.49-1,1.88-.87-.17.46-.34.92-.5,1.38Zm3.24,57.51c-.06.16-.11.31-.17.46l-1.38-.51.68-1.83,1.84.68-.51,1.37Zm1.35,144.42-.92-.34.68-1.83-.92-.34.51-1.38,1.55,0C168.06,742.24,167.91,742.43,167.53,744.25Zm3.54-89.94a5.83,5.83,0,0,1-2.47-.39c.23-.61.45-1.22.68-1.84l1.84.68C171.1,653.28,171.08,653.79,171.07,654.31ZM173.4,177l.92.34-.17.45-.46-.16-.17.45-.46-.17C173.18,177.61,173.29,177.3,173.4,177Zm1.2,373.28c-.82-.62-.42-.08-.75-.8l-.46-.17c.06-.15.11-.3.17-.46l1.38.51C174.82,549.67,174.71,550,174.6,550.28ZM174.94,163l-1.38-.51c.12-.31.23-.62.34-.92.82.61.42.08.75.8l.46.17C175.05,162.66,175,162.81,174.94,163Zm7.79,189,.46.17-.17.45.46.17-.17.46-1.09.12Zm-.2,68.23.92.34c-.12.31-.23.61-.34.92l-.92-.34C182.3,420.85,182.42,420.55,182.53,420.24Zm-.12,22.9c.81.61.41.08.74.8l.46.17c-.05.15-.11.3-.17.46l-1.37-.51C182.18,443.75,182.29,443.45,182.41,443.14Zm-.91,13.74-.92-.34c.11-.3.22-.61.34-.91l.91.34ZM182,757.41c0-.15.11-.3.17-.46l.91.34c0,.15-.11.31-.17.46Zm1,31.14c.61-.82.08-.42.79-.75C183.14,788.61,183.67,788.22,183,788.55Zm.24-346.16-.46-.17a3.72,3.72,0,0,0-.4-1.71c.11-.31.22-.61.34-.92l1.2,1C183.66,441.17,183.43,441.78,183.2,442.39Zm.06-87.58c-.61.81-.08.42-.8.75,0-.52,0-1,0-1.55l1.55.05C183.44,354.87,184,354.48,183.26,354.81Zm1.66,287.41c.61-.81.08-.42.8-.74C185.1,642.29,185.64,641.89,184.92,642.22Zm.68-164c.06-.16.11-.31.17-.46l-.46-.17c.62-.82.08-.42.8-.75-.06.15-.11.31-.17.46l.46.17S185.67,479.23,185.6,478.22Zm2.58,163.64-1.54-.05.33-.91,1.38.51Zm0-19.8-.91-.34c.61-.82.08-.42.8-.75l-.17.46.45.17C188.32,621.75,188.26,621.91,188.2,622.06Zm1.34,54.2c.06-.15.11-.3.17-.46l-.46-.17c.62-.81.08-.41.8-.74l-.17.45.46.17S189.61,677.27,189.54,676.26Zm1.4,42.76-.46-.17c0-.52,0-1,.05-1.55l.92.34Zm2.42-22-1.21-1c-.3,0-.61,1-1.26.58l-.12-1.09-.91-.34c.06-1,.21-.37-.12-1.09,0-.15.11-.3.17-.45.66.74.47.91,1.49,1.59-.05.15-.11.31-.17.46.84.69,1.3-.11,1.72-.41l.46.17C193.39,695.94,193.37,696.45,193.36,697Zm10.57,46.14.17-.45-.46-.17c.06-.16.11-.31.17-.46l.92.34C204.11,743.18,204.64,742.79,203.93,743.11Z"/></g></g></svg>