<svg xmlns="http://www.w3.org/2000/svg" viewBox="0 0 134.04 704.14"><g id="圖層_2" data-name="圖層 2"><g id="圖層_1-2" data-name="圖層 1"><path d="M59.22,698.37c-7.67,3.2-17.3,12.72-24-3.09s-8.61-47-5.32-60.57S38.93,501.29,38.94,485s.88-115.73,0-127.14-11-87-17.63-124.07S9.92,174.67,9,144.91s-5.66-61-4.86-70.07S.39,45,0,33.23C-.42,19.93,10.45-.39,25.46,0,30.28.13,32.8,0,37,2.67a59,59,0,0,1,11,9.22c8.12,8.61,17.23,17.7,19.81,26.5s40.9,103.68,43.7,141.28S123,280.52,125.68,288.52s2.68,31.33,2,48.72,7.58,103.5,6.15,129.91-18,122.65-24.62,145.63-12.74,49.8-24.06,64S66.88,695.17,59.22,698.37Z"/></g></g></svg>