<svg xmlns="http://www.w3.org/2000/svg" viewBox="0 0 222.83 802.11"><g id="圖層_2" data-name="圖層 2"><g id="圖層_1-2" data-name="圖層 1"><path d="M187.38,793.47s-2.59,6-4.49,6.88-23,3-26,.72-4.12-4-4.6-5.91-7.72-9.11-10.95-13.18S125.67,741.32,121,734.52s-4.52-24.13-5.6-28.94-12.39-53.23-13.48-63.2-8.27-32.19-7.65-37.67,1-8,1-8-2.33-.59-5.3-11.22S82.3,555,79.75,545.91,64.54,502,60.76,490.4s-2.92-20.53-6.16-29.77-11.3-34.71-12.32-42.45a15.31,15.31,0,0,1,1.09-7.11s-.5-.39-4.93-10.15-9.51-34.72-10.91-45.33.81-16.07.81-16.07A81.13,81.13,0,0,0,22,318.77c-5.05-11-5.89-26-6.15-31.34a21.9,21.9,0,0,1,1.88-9.69s-2.18-2.87-5.06-26.54S7.4,216.14,4.63,205.27,4.39,176.07,2,161.1s-3-27.72.41-48.17,7-42.29,17.1-63.18S50.84,14.6,55.31,9.29,72.78,3.63,72.78,3.63C83,1.29,94-.53,104.52.14S125.38,3.71,135.4,7c8.11,2.7,16.45,4.53,24.39,7.85,14,5.87,24.32,15.8,29.93,30C201.19,74,200.26,89.17,202,94.11s6.44,16.46,6.85,24.73-2.29,52.69-1.16,64.68-.09,47.23-1.45,55.72-5.62,12-5.62,12,2.8,14.47,1.91,26.51-2.87,14.09-2.87,14.09,3.24,14.41,2.14,23.1-.9,29.12-1,37S199,394.21,202,410s5.71,58.83,6.78,70.38,8.29,81.87,7.72,93,4.22,68,4.58,81-1.42,25.14.91,48,.28,31.22-9.37,48.45-10.89,26.61-14.48,31.81S187.38,793.47,187.38,793.47Z"/></g></g></svg>