<svg xmlns="http://www.w3.org/2000/svg" viewBox="0 0 210.33 346.68"><g id="圖層_2" data-name="圖層 2"><g id="圖層_1-2" data-name="圖層 1"><path d="M19.12,87.65c-.33-.56-.34-10.15-1.87-14.33s-1.4-5.81-2.1-6.39-1.69-2-1.62-2.81,4.07-.38,5.69.1a110,110,0,0,1,11.08,4.3c2.66,1.34,5,4.18,6.71,6.17S42,80,42,80s6.06.11,8.22.75,5.73,2.16,8.12,2.12,5-.2,6.4,3,4.46,16.49,5.17,21.73-3.39,52.62-1.38,65,2.29,33.26,2.78,53.7,2.65,35.88-7.87,65.73-13.94,41.22-17,47.67-7.6,8.18-10,6.16-2.62-6.83-1.78-13.09.46-20.82-3.52-29.07-8.47-14.6-15.41-27.64S6.58,237.74,4.12,231.34A70.41,70.41,0,0,1,0,207.59c.19-7.39,6-53.33,6.47-61.67S9.16,115.06,8,110.35s-4.68-11.16-4.65-14,4.34-3.93,5.52-5a29.88,29.88,0,0,1,5.23-3.48C15.86,87,19.12,87.65,19.12,87.65Z"/><path d="M122.25,27.3c1-.92,5.41-5.95,5.81-8.81S128,7.12,127.81,4.64A11.21,11.21,0,0,1,128.52,0a18.44,18.44,0,0,1,5.83.79c3.24,1,6,.66,7.59,4.29s.56,12.09,2.88,15.47,5.84,8.06,5.84,8.06,7.05-.81,10.27,2.75,6.14,8.89,4.21,15.12-1.89,30.07-1.6,38.44,3.35,51,5.43,62.58,6.34,38.09,8,43.5,5.48,17.63,6.16,25.75.31,18,3.84,27.29,10.84,29.65,14.47,37.61,7.89,15,8.74,18.31-1.34,3.24-3.58,3.69-5.57-1.74-7.42-4.14-6.12-9.17-12-15.85-10.94-16.08-15.34-21.2-31.8-29.69-36.24-34.26S114.73,203.64,113,197s-12.53-31.63-14-53.49,1.87-51.86,2.62-69.23,1.38-25.85,1.83-31.86.68-9,4-11.48,8.66-2.66,11.08-3A32.12,32.12,0,0,0,122.25,27.3Z"/></g></g></svg>