<svg xmlns="http://www.w3.org/2000/svg" viewBox="0 0 394.22 357.84"><g id="圖層_2" data-name="圖層 2"><g id="圖層_1-2" data-name="圖層 1"><path d="M372.15,274.88c.06,3.83,4.4,18.37,5,22.86s1.58,12.28,2,13.32-.61,1-2.24,1.22-10.77.82-12.25,1.72-7.08,2.2-7.78,2.79-1.65,1.36-2.15,1.06-2.46-1.54-2.82-1.88-1.21-5.2-1.92-8.26S348.7,288,346.83,277.8s-5.81-25.22-7.31-30.61c-.55-2-2.37-3.1-2.37-5.11s.91-16.25,1.09-22.09a90.47,90.47,0,0,0-.91-13.32,2.58,2.58,0,0,1-2.37-2.92,30.55,30.55,0,0,1,2.37-9.13c1.28-3.1,2.56-19,5.66-22.63l1.46-12.23a8.2,8.2,0,0,1-1.82-4.38c0-2.19,1.27-5.3,2.19-8.76A97,97,0,0,0,346.46,136c.36-2.56,1.64-4.75,2.74-7.48a55.87,55.87,0,0,0,2-6.76s-2.73-.55-2.19-4.38-.18-10.59,1.1-14.78,4.38-9.86,7.3-11.5c0,0,1.64-10.59,3.83-13,0,0,2-9.49,6-14.42s10.4-13,11.5-14.42,2.19-3.84,4.92-6.76,6.21-4.38,6.94-5.65,2.92,1.82,2.74,3.46,1.28,2.56.73,7.12a66.09,66.09,0,0,1-1.46,8s-.18,6-2,8.22c0,0,1.1,8.58-.55,13s-2.92,5.84-2.92,5.84v4.93s2.38,2.92,2,4.56-.55,3.1-1.64,3.65a14.41,14.41,0,0,1-2.92.91s-.37,3.65-4.2,8.22c0,0-.37,5.65-2.37,8.76a28.33,28.33,0,0,1-2.92,4s.36,7.12-.73,11.32a37.74,37.74,0,0,1,.54,15.33c-1.46,8.4-2,11.32-3.28,13.51s-3.11,2.37-4.38,1.28c0,0-3.29,15-3.65,21.9s-1.65,24.46-.73,29,1.64,15.7,2.37,18.07,2.19,2.92,2.55,6.21,0,4.56-1.09,4.93a1.6,1.6,0,0,1-1.64-.18S372.07,269.94,372.15,274.88Z"/><path d="M176.37,336.68c-1.45-.13-3.29-1.84-3.29-1.84a14.29,14.29,0,0,1-.73-4.1c-.09-2.36.43-64.29.52-67.88s.89-32.31,1.16-36.18,1-66.8,1-71.8.37-3.41,1.55-22.48,3.54-52.19,2.59-57.19.83-50.6,1.55-54.57,2.27-11.48,3-14.27A16.57,16.57,0,0,1,186,1.57s2.39,2.05,3.34,2.06,3.71-.41,5,0,10.64,1.75,12.27,1.6,3.83-.9,5.22-.05,2.93,8.34,3,10.7,1.14,7.81.58,8.42l-2.85,3.05S208,140.41,208,144.45s.72,34.06-1.19,39-2.29,60.45-2.51,64.55.41,36.75,0,40.9-.35,20.53-.55,22.71.52,8.2.49,11.06-.88,12.33-.94,13.06-.48,2-1.38,2.23-11.84.2-15.93,0A85.56,85.56,0,0,1,176.37,336.68Z"/><path d="M56.67,319.81c.47,3,2.32,5.09,3.47,5.55s10.64,1.85,12.5,2.31,7.86-1.62,7.86-1.62.46-7.4,1.16-10.87-1.85-24.05-2.55-37.47-7.17-80.26-7.63-85.58-6.48-46-6.25-49.74,1.62-3.7,1.62-3.7,1.85.23,2.08-2.54a10.71,10.71,0,0,0-.92-5.78c-.46-.7-3.93-5.79-4.4-6.71s-2.08-21-2.54-22a22.11,22.11,0,0,1-1.16-7.63c.23-2.31-5.32-40.94-5.09-41.63A27.57,27.57,0,0,1,57.37,49s-.23-4.86-.46-6a33.85,33.85,0,0,0-2.32-4.86,9.94,9.94,0,0,0-.23-3.47c-.46-1.15-2.31-4.16-3.7-4.62s-8.33,2.08-9.95,3-8.79,5.08-9,5.55,1.62,11.56,1.62,14.57.47,23.36-.23,25.91,3.93,47.88,4.86,53.2,3.47,23.59,3.47,26.83-1.39,8.79-.93,12.49a24.12,24.12,0,0,0,3,7.86s3.24,16.89,3.7,21.75,3.24,39.32,4.16,52.27S53.21,293,53.9,298.3s1.39,11.33,1.39,13.64A50.75,50.75,0,0,0,56.67,319.81Z"/><path d="M325.68,47.53c-3.76,1.13-12,4.57-12.84,4.89s-3.41,6.46-4.93,8.58-1.12,8.7-1.37,11.4,3.23,10.59,3.07,14.78,2.08,48.89,2.88,57.15-.05,59.21-.05,59.21a55.29,55.29,0,0,0-3.61,6.13l-.71,1.81s1,4.3,1.48,5.82,3.1,1.92,3.47,4.61-1.74,55.7-1.75,61.62-2.17,30.11-1.32,32.68,4,3.49,5.51,3.63,16.55-.33,19.29-.47,7.44-2.11,7.75-2.94,1.77-12.38,2.11-16.87,1.51-17.85,1.88-21.09,2.39-8.12,1.52-11.31-1.63-4.29-2-8.61.49-55.66.08-65.52-4.31-67.64-4.46-73.65-3.6-40.85-4-42.91-1.68-2.89-1.41-5,1.1-1.77,1.39-3.23,1.13-7.06.41-8.53-4-4.73-4-4.73-.45-3.55-1.15-4.4a35.52,35.52,0,0,0-4-3.1Z"/><path d="M291.33,318.53c3.43.14,4.25-.68,5.39-.2a20,20,0,0,0,3.77.79,29.2,29.2,0,0,0,2.42-5.08c.48-1.81-2.87-13.23-2.72-15a6.68,6.68,0,0,1,1.77-3.45s.86-17.67,1-19.47-.05-8.18.11-9,3.25-2.31,3.73-3.79,1.43-5.73.28-7.19-6.27-7.81-5.95-9.12-1.05-33.85-1.26-39.58-.34-48.74-.34-48.74a31.59,31.59,0,0,0,3.4-5.09c.65-1.64-.7-55-1.53-56.09S292.7,91.82,289.92,92s-9-2.07-9.49-1.57-3.43,24.23-4.05,30.12-3.78,21-3.76,24.23.28,16.19-.51,20.94-.69,17.51-.67,20.78-2.57,6.56-2.38,10,.35,4.25-.29,5.24-2.94.67-2.61,2,3.15,6.36,4,8.48,1.29,21.42,2,26.32-.72,14.56-.48,25.19,3.15,30.4,2.71,36.78.07,10.14.89,11.28,7.9,6.49,10.19,7.46S291.33,318.53,291.33,318.53Z"/><path d="M131.39,319.46c1.39.35,13.88-.35,14.22-1.39s4.17-13.53,4.51-16.3-1.73-65.93-1-72.52S157.41,147,157.41,147s4.86,0,6.24-3.12,5.21-22.9,5.56-27.76,0-10.41-1.74-11.45a4.41,4.41,0,0,0-3.12-.69s4.16-10.76,5.9-17.35,1.38-12.14,2.77-14.92-.34-9.37-.34-9.37,1.73-.69,2.08-4.16-3.82-5.55-3.82-5.55A60.22,60.22,0,0,0,173,40.85c.35-5.9-3.81-8.33-4.16-12.49s.35-8-1-7.63-2.43,3.12-4.51,5.55a14.35,14.35,0,0,0-2.78,5.2S152.9,38.77,150.82,44s-4.17,14.92-4.17,14.92-4.85,2.43-4.51,5.21.7,5.2.7,5.2-4.17,1-3.82,4.51.69,18.74,2.43,20.82a6.6,6.6,0,0,1,1.73,3.82,16.57,16.57,0,0,0-2.42,5.89l-1,4.17s.35,11.1.35,12.14-1.39,2.78-1.73,7.29-5.9,51.69-6.25,55.16-3.47,76-3.47,87.44,2.43,44.41,2.08,45.8A5,5,0,0,0,131.39,319.46Z"/><path d="M229.31,150a5.4,5.4,0,0,1-2.7-4.38c-.05-2.28.48-12.58,1.31-14s2-3.66,1.83-5-1.86-14.8-2.67-18.89-2.19-6.17-.63-7.53,3.05-2.49,3.05-2.49-2.2-3.17-2.34-5.23a49.18,49.18,0,0,1,.3-6.14,4.52,4.52,0,0,1-1.41-3.84c.12-2.7,3-5.5,2.77-7.87a24,24,0,0,1,.1-7.47c.5-1.8,2.73-8.38,3-9s4-13.14,3.94-14.9l0-1.76s-.48-2.46-.77-3.58,3.27-.64,4.24,1.26,3.38,6.92,4.15,7.49,5.18,1.4,5.21,4.93c0,0,4.53,2.38,5.31,4.71s.28,14.39.62,17.79l.34,3.4-.46,5.32s4.36,1.56,1.88,7.54-3.87,9.91-3.87,9.91.43,6.2,1,7.71,3.06-3.74,4.34-3.21,3.23,12.12,2.93,15.25.45,11-.86,12.92a10.39,10.39,0,0,1-4,3.08s-.49,7.81-.76,8.45,1,3.15-.33,5.62.06,5.29-2.45,6.5c0,0,1.86,8.79,2.84,12.45s3,12,1.35,14.84a43.79,43.79,0,0,0-2.65,5.16s.78,43.91,1.42,47.19,2.3,24,3.16,30.37,6,35.05,6.24,37.41-.06,11-.6,12.28-19.43.94-21.88,1.42a18.91,18.91,0,0,1-4.86.24s-3.68-17.06-4.7-21.24-7.63-73.82-8.28-77.09,2.88-9.33,2.88-9.33,1.92-43.79,1.63-47.92A116.62,116.62,0,0,1,229.31,150Z"/><path d="M4.9,301.45c-.1-1.87-4.85-40.2-4.9-43.62s1.91-6.61,1.54-9.88,5.13-118.61,5.58-123.4,6.06-20.78,6.62-23.71S19,92.3,19,92.3s-4,5.31-3.36,8.44c0,0,8.12,3.5,10.11,4.5a25.67,25.67,0,0,1,4.85,3.87s.68,18.8,1.51,22.24S28.91,169.13,29,176s-2.41,54.26-2.91,60.61-1.67,19.51-2.81,26.15.6,36.81-.1,39.42-2,15.47-6.5,14.87S4.9,301.45,4.9,301.45Z"/><path d="M82.27,67.41c-.49-6,2.89-13.66,2.89-13.66a25.11,25.11,0,0,1-1.3-12.26,81.52,81.52,0,0,0,.4-15.67c-.18-3.57,1-22.35,1.44-23.28S93.91,0,97.79,0a54.13,54.13,0,0,1,9.78,1.35l2.9,23.11A4.83,4.83,0,0,1,115,29.4a102.35,102.35,0,0,1-1.33,12.89s1.48,18.92,2.28,23.57,3.31,114.66,3.63,116.36,2.49,1.23,1.6,10.08-2.26,84.42-2.56,87.37S113,338,111,345.19s-11.89,13.09-13.6,12.63-12.13-6.77-13.4-12,3.67-45.79,5.29-64.73,1.93-19.56,2.82-29.19-.89-58.49-.92-64.7,1-14.59.84-21.26-4-69.34-4.68-73.53S80.8,86,80.93,80.3A107.48,107.48,0,0,1,82.27,67.41Z"/></g></g></svg>