<svg xmlns="http://www.w3.org/2000/svg" viewBox="0 0 244.03 551.16"><g id="圖層_2" data-name="圖層 2"><g id="圖層_1-2" data-name="圖層 1"><path d="M158.08,413.3c.3,2.11,4.22,2.11,6.33.9s10-6.94,10-6.94a20.7,20.7,0,0,0-.91-5.73c-.9-2.71-.3-9.95-2.11-14.78s-6-20.51-6-23.23,0-7.24-.6-9.35-1.21-6.64-1.81-8.75-.91-8.75-3-13.57-6.34-29.87-7.84-33.79-2.42-14.48-3.93-18.71a134.45,134.45,0,0,1-4.22-13.87c-1.51-6-5.73-24.44-7.54-29.57s-2.72-10.26-3.32-17.5-1.81-17.19-2.72-22.62-9.95-70.9-11.46-76S114,87.18,114,85.37s-3.31-4.82-3.31-4.82-6-.3-7.85-.61a8.51,8.51,0,0,0-3.62.31l-3,6s7.84,76,8.74,81.45,6,64,7.55,69.69,1.81,13,4.22,19.61,26.85,109.81,28.66,115.54,8.14,30.47,8.75,33.19S158.08,413.3,158.08,413.3Z"/><path d="M151.44,347.53c0,1.51,2.72,3.32,3.32,2.11s4.22-.6,5.73-2.11,4.23-5.13,4.23-5.13a69,69,0,0,0-4.83-12.67c-3-5.73-27.76-64.25-29.57-69.08S124,235.31,121,228.07,104.08,183.12,103.48,178s0-9.05-.91-10.86-1.81-7.54-2.71-10.86S96.54,146,95.33,143s-11.77-55.51-13-59.74S78.13,63.35,77.53,60,75.72,45,74.21,43.14s-6.33-4.83-6.33-4.83A66.64,66.64,0,0,1,60.94,41c-1.51.3-3,3.32-3.32,4.22s6,30.47,6.94,33.19l.9,2.71s2.72,24.54,3.12,27.55,2.41,7.65,2.82,10.46l.4,2.82s4.83,17.29,5.43,19.91l.6,2.61S92.92,194,94.32,198s16.3,53.1,17.3,55.31,7.24,21.12,8.25,23.33,9.25,22.12,10.66,24.33,5.22,13.28,6.83,16.29,5,12.27,6.44,15.89S151.44,347.53,151.44,347.53Z"/><path d="M9.65,170.75c-.9-1.51,1.21-5.73,1.21-5.73s4.53-6,5.43-6.64,2.41.3,3.32,1.51S38,186.74,41,191s37.41,56.72,41.33,63.35S100.76,280,103.48,286s6.33,14.48,9,21.12S124,330.64,126.7,336.67s21.42,45.86,24.74,54.3,9.66,32.28,10.86,56.72-3,63.65-3,67.88-2.42,9.65-3.32,9.35a21.32,21.32,0,0,1-3.32-2.11s-2.11,1.2-3-1.81-3-3.62-3.32-4.53.31-23.23.31-27.75,2.41-38.92-1.51-55.51-3.92-32-21.72-68.18S90.8,296,88.09,291.42s-38-63.05-41.93-67.27S9.65,170.75,9.65,170.75Z"/><path d="M157.17,513.15c.31,5.13,0,8.75,2.72,9.36s5.13,0,5.73-1.81,7.24-16.9,7.84-29.57-.9-71.5-.9-87.49S156,328.83,127.61,276,65.77,174.37,56.41,163.81,26.55,125.5,23.83,122.18s-6.63-10.26-8.75-12.37-3-4.52-3.92-4.83-3.92-1.81-5.73,1.51-3.92,5.43-4.37,6.34A4.16,4.16,0,0,1,0,114.18L1.21,118s18.25,21.87,22,26.24,35.9,48.42,38.16,50.68,33.19,49.63,38.77,60.34,16.89,27.9,30.16,55.36,25.19,71.49,26.7,77.83,3,40.73,3.47,45.85,1.21,44.35,1.06,52.35S157.17,513.15,157.17,513.15Z"/><path d="M16.59,96.84c-2.41-.91-7.84-1.21-8.14-3.32s0-6.64,1.81-9,6.94-4.53,8.14-3.92.91,3.62.91,3.62,4.82,3,6.94,6,4.22,6.94,4.22,6.94,10.86,5.73,12.37,7.24,27.75,35.3,31.07,40.73,42.54,75.42,45.25,84.77S158.38,364.12,162,379.81s3.92,87.49,4.83,101.37-2.72,49.17-3.92,50.38-5.13.9-6.64.6-4.53-2.41-4.22-3.32,2.71-38.92,1.81-54.3-1.21-76-4.23-91.41S119.77,274.83,118,270s-3.93-13.57-5.13-16-4.53-13.27-5.43-15.68-.91-7.85-4.53-12.68S75.72,174.37,72.7,169.54s-13-19.61-16.29-23.23-12.06-14.18-15.08-17.8-14.48-20.21-16-22.92-4.52-6.94-4.52-6.94Z"/><path d="M230.08,495.33c1.75,5.25,2.82,6.07,4.55,8.25s6.59,2.5,6.59,2.5a86.88,86.88,0,0,0,2.72-9.31c.68-3.56-2.71-22.64-4.39-26.65s-26.38-108.63-33.35-125S173,264,166.63,253.9s-14.78-31.73-16.22-35.39-1.58-6.14-2.88-5.77-9.77-.35-10.52,2,1.22,4.85,1.17,6.68a55.84,55.84,0,0,0,1.09,11.88c1.1,5.44,18,35.73,24.12,48.59s28.63,58.67,30.33,64.22,10,31.11,10,31.11-2.19.19-1.34,3.74,13.64,55.16,15.27,59.47,2.45,12.76,4.86,17.83S230.08,495.33,230.08,495.33Z"/><path d="M159.59,140.88c-1.21-2.41-2.72-4.82-2.42-6s3.93-3.92,5.43-3.32,5.74-.6,6.94,0S177.69,153,177.69,153s9.65,22,10.26,26.55,5.43,57,5.73,59.13.3,6,.6,11.46,1.21,28.06.91,36.5-4.83,65.77-3.93,73.61,11.17,90.51,15.09,104.08,16.89,81.76,17.49,83.26-9.05-.3-10.86-.9-1.81-3.32-1.81-5.13-6.63-32.88-7.84-37.71-3.62-28.05-5.13-34.69-4.82-19.31-6-27.45-9.66-74.82-10.56-79,2.41-72.1,2.41-76.93-1.81-41-2.11-44.95.91-5.73.3-7.84-3-30.17-3.62-34.7,0-12.37-1.51-16.29-6-14.48-7.54-18.4S159.59,140.88,159.59,140.88Z"/><path d="M187.34,527.63c0,1.21,2.42,3.32,2.42,3.32s2.71,2.11,4.22,2.11,4.83-1.5,4.83-1.5l4.52-1.81s-.9-7.85-1.21-11.47-2.71-41-3.31-45.55a78.27,78.27,0,0,1-.61-14.48c.3-4.23-5.13-78.14-5.43-83s-5.43-44.65-6.33-50.68-2.42-55.51-3-63.06-1.81-22.32-3.32-26.84-4.22-15.09-4.83-17.8a18.55,18.55,0,0,0-2.11-5.13s-3-.3-3.62.6-6.33-.9-6.33-.9a3.92,3.92,0,0,1,.3,3.62c-.91,1.81,6.64,38.61,6.94,45.25s2.41,46.46,3,59.73.91,22.53.91,23.73V348a30.76,30.76,0,0,1,1.21,5v4.63l1.4,7.24s-.2,8.85.41,11.66a130.38,130.38,0,0,1,1.81,14.48c0,2.42-.2,8.65.4,11.47s1.21,13.07,1.81,16.89,3.42,51.89,3.42,54.71,1.61,39,2.41,41.83S187.34,527.63,187.34,527.63Z"/><path d="M56.72,421.14c-1.21,1.81,2.11,4.83,3.62,6.64s6.33,14.78,7.54,17.19,11.46,16.9,12.67,20.22,22.32,54.6,24.13,58.52,9.35,21.72,10.86,23.53S153,551.16,153,551.16c2.11,0,3.62-2.71,4.83-3.62s3-6.93,3.32-8.14-3.93-2.72-9.36-2.11-21.11,2.11-21.11,2.11,2.71-2.11,2.41-3.62-4.22-2.72-4.22-2.72a20.6,20.6,0,0,0-3.93-4.22s-1.81-4.22-4.22-8.45S113.73,505,113.73,505s-.3-12.37-2.11-20.82-7.84-29.56-8.75-32.28S96.54,440.75,95,439.54s-20.52-16-22-17.19-4.83-4.22-6.34-4.22S57.92,419.33,56.72,421.14ZM90.5,452.21c1.81,2.12,4.53,6.34,6,7.85l1.51,1.51s1.2,10.56,1.5,13.27,2.12,13.58,2.12,13.58S90.2,459.45,89,457s-7.54-13.57-7.54-13.57S88.69,450.1,90.5,452.21Z"/><path d="M97.74.3c1.51-.6,6-.3,7.85.91S107.7,3.62,107.4,6a50.34,50.34,0,0,1-1.81,7.85C105,15.69,93.82,55.51,93.52,56.72S78.44,156,78.44,160.49,89.3,226,92,234.1s28.06,104.08,29.26,108.3,12.67,51.59,12.67,57.93,3.93,18.4,4.53,23.53S142.39,448,143,453.72s.3,16,.9,21.42,4.83,39.52,4.53,41.63a12.06,12.06,0,0,1-2.72,6.34c-1.51,1.51-3.32,3.62-5.13,3.62s-5.13-5.13-5.73-6.34-6.94-63.05-6.94-64.25-3.32-25.95-3.32-29.57-4.82-34.69-5.43-36.5S108.6,337,106.79,331.85s-18.1-69.39-19.3-73.92-5.43-22-6-24.13-4.22-19.91-4.52-25-9.05-41.63-9.05-45.85,0-10.26,1.51-14.79,4.22-30.77,4.82-35.29,5.13-38.62,5.43-40.43,1.81-1.2,1.51-3.62,0-3.92.6-7.84,6.34-23.53,6.64-28.06S94.12,8.15,94.73,6A29.2,29.2,0,0,1,97.74.3Z"/></g></g></svg>