<svg xmlns="http://www.w3.org/2000/svg" viewBox="0 0 172.22 163.01"><g id="圖層_2" data-name="圖層 2"><g id="圖層_1-2" data-name="圖層 1"><path d="M35.65,16.46c.07-.09.13-.19.2-.29,2.94-4.09,8.46-5.49,9.87-6.9S47.16,6.39,50,6.39,60.1,3.52,61.54,3.52s2.88,2.87,2.88,2.87S73.05,5,75.93,3.52A34.34,34.34,0,0,1,88.88.64c4.31,0,17.26-1.44,20.13,0s7.2,0,11.51,2.88A134.91,134.91,0,0,0,132,10.71c2.88,1.44,4.32,4.31,5.76,5.75s0,2.88,2.87,2.88,4.32,1.44,5.76,2.88,2.68,4.28,3.94,4.91a4.83,4.83,0,0,1,2.54,3c.47,1.42.16,4.91.79,5.7s4.59,3.8,5.39,5.38,1.26,4.6,2.53,5.71A6.32,6.32,0,0,1,164,51.2c.32,2.06,0,4.12.64,6a22.7,22.7,0,0,0,3,5.86c1.42,2.06,3.8,5.86,4.11,8.23s.48,10.14.48,11.72a15.21,15.21,0,0,1-.63,4.6c-.64,2.85-1.43,7.12-2.38,8.23s-2.22,5.55-2.53,7.13-.16,7.6-1.43,9.82-3.48,5.07-3.17,6.65,1.43,3.33.16,4.28-4,3.32-5.22,3.8-4.91,3.8-6.66,5.86-4,6.17-7.91,8.55-13,5.7-14.89,8.08-1.58,3.64-3.64,3.64a31.67,31.67,0,0,0-8.24.47c-3.48.79-10.29,2.38-11.24,4s-1.59,2.54-4.12,2.54-4.28,0-7.29-.16a38.41,38.41,0,0,0-7.76.16c-1.42.31-1.42,1-3.16,1.1s-3.33-.63-4.28-.15-1.11,1.9-3,1.26a52.4,52.4,0,0,0-5.38-1.26,30.54,30.54,0,0,0-8.87-3.33c-4.91-.95-8.71,0-11.09-2.22s-6.33-4-9.18-5.22-3.8-5.39-7.61-6.18-8.39.16-9.81-2.37l-1.43-2.54a24.45,24.45,0,0,0-4.75-8.23,45.11,45.11,0,0,0-7.13-6.34c-2.53-2.06-7-5.54-7.92-10.29A81.65,81.65,0,0,1,.07,98.08c0-7-.63-17,1.9-21.54s5.86-6,5.86-8.39-1.9-7.6,0-15.21,7.46-13.14,10.93-17.1c2.22-2.53,3-5.23,3.8-7.6A4.57,4.57,0,0,1,26,24.91c.8,0,1.11-2.06,1.11-2.06A13,13,0,0,0,30,22.06,20.8,20.8,0,0,0,35.65,16.46Z"/></g></g></svg>