<svg xmlns="http://www.w3.org/2000/svg" viewBox="0 0 356.14 354.12"><g id="圖層_2" data-name="圖層 2"><g id="圖層_1-2" data-name="圖層 1"><path d="M205.38,277s-2.37-.65-3.23-5.1,1.15-84.3,1.25-88.95,2.17-35.5,2.73-37.63,2.33-7.28,2.43-10.47,6.61-65.69,7.12-68.42,3.54-4.45,5.11-4.7,17.34-1.57,18.2-1.52,3.44,1.67,5,1.42.91,2.12.76,3.23-12.63,122.53-12.68,124.86-4,23.92-4,28.32-5.4,49.46-5.61,51.43.16,10.62.16,10.62-5.87,5.86-7.84,5.66-6.68-2.37-7.69-2.78-2.22-3.24-2.22-3.24Z"/><path d="M150.92,283.7s-1.21,2.83-2.22,3.23-5.72,2.58-7.69,2.79-7.84-5.67-7.84-5.67.36-8.65.16-10.62-5.61-47-5.61-51.43-3.94-26-4-28.32S111.19,69.94,111,68.83s-.81-3.49.76-3.24,4.15-1.37,5-1.42,16.63,1.27,18.2,1.52,4.6,2,5.11,4.71,7,65.23,7.12,68.42,1.87,8.34,2.43,10.47,2.63,33,2.73,37.62,2.11,84.5,1.25,89-3.23,5.11-3.23,5.11Z"/><path d="M294.47,37.85s8.3.62,10.76.62,16.91,2.15,16.91,2.15l8.61,8s-2.46,45.5-3.69,59-8.61,60.87-8.61,62.41a5.83,5.83,0,0,1-1.23,3.07s.62,9.53-1.23,16.91-22.75,105.76-22.75,107.29.31,2.77-.92,2.77-24-4.3-24-4.3a34.9,34.9,0,0,1-3.38-3.38c-.61-.93-.92-2.46-1.23-4.92s17.52-110.68,18.14-115,5.53-46.12,5.53-47.35S294.47,37.85,294.47,37.85Z"/><path d="M83.71,74.5s8.28-.78,10.71-1.19,17-.7,17-.7l9.82,6.45s5.17,45.27,6.22,58.81,1.67,61.46,1.93,63a5.83,5.83,0,0,1-.7,3.24s2.2,9.29,1.61,16.87-4.78,50.06-4.52,51.58.76,2.67-.45,2.88-24.36-.24-24.36-.24a35,35,0,0,1-3.9-2.77c-.76-.81-1.32-2.27-2-4.65s-1.2-54-1.31-58.38-2.24-46.39-2.45-47.6S83.71,74.5,83.71,74.5Z"/><path d="M118.06,46.76s8.28-.78,10.71-1.19,17-.7,17-.7l9.82,6.44s5.17,45.28,6.22,58.82,1.67,61.45,1.93,63a5.91,5.91,0,0,1-.7,3.23s2.19,9.3,1.61,16.88-4.78,50.06-4.52,51.57.76,2.68-.45,2.88-24.36-.24-24.36-.24a33.66,33.66,0,0,1-3.9-2.77c-.76-.8-1.32-2.27-2-4.64s-1.2-54-1.31-58.38-2.25-46.39-2.45-47.6S118.06,46.76,118.06,46.76Z"/><path d="M180.15,73.18s8.29-.78,10.71-1.19,17-.7,17-.7l9.82,6.45s5.17,45.27,6.22,58.81,1.67,61.45,1.93,63a5.83,5.83,0,0,1-.7,3.24s2.2,9.29,1.61,16.87-4.78,50.06-4.52,51.57.76,2.68-.45,2.89-24.36-.24-24.36-.24a35,35,0,0,1-3.9-2.77c-.76-.81-1.32-2.28-2-4.65s-1.2-54-1.31-58.38-2.24-46.39-2.45-47.6S180.15,73.18,180.15,73.18Z"/><path d="M224.23,72.55s8.29-.77,10.71-1.18,17-.71,17-.71l9.82,6.45S267,122.38,268,135.92s1.67,61.46,1.93,63a5.83,5.83,0,0,1-.7,3.24s2.2,9.29,1.61,16.88-4.77,50.05-4.52,51.57.77,2.67-.45,2.88-24.36-.24-24.36-.24a35,35,0,0,1-3.9-2.77c-.76-.81-1.32-2.27-2-4.65s-1.2-54-1.31-58.38S232,161,231.83,159.82,224.23,72.55,224.23,72.55Z"/><path d="M251.49,73.18s8.28-.78,10.71-1.19,17-.7,17-.7l9.82,6.45s5.17,45.27,6.22,58.81,1.67,61.45,1.93,63a5.93,5.93,0,0,1-.7,3.24s2.2,9.29,1.61,16.87-4.78,50.06-4.52,51.57.76,2.68-.45,2.89-24.36-.24-24.36-.24a35,35,0,0,1-3.9-2.77c-.76-.81-1.32-2.28-2-4.65s-1.2-54-1.31-58.38-2.24-46.39-2.45-47.6S251.49,73.18,251.49,73.18Z"/><path d="M45.42,269.81s23,3.5,24.19,3.54a50.46,50.46,0,0,0,6.5-1.33s5.34-32.43,6.06-35.8,1.61-21.48-1.09-23.71-6.8-8.83-8.46-14.42-8.31-67.63-8.83-70.72a116.07,116.07,0,0,0-3-13C59.7,110.94,57.75,85,57.48,83.8s-3.33-1.64-4.26-1.36-1.87.86-6.48.71-9.52-.61-9.52-.61-.44,4.29-.85,7.36,1.49,11.43,1.69,14.82,0,8.92.57,11.09,2.73,10.85,2.25,16.37.1,6.46.1,6.46,4.87,59.52,5.69,62.93,7.15,16.84,8,18.1A7.73,7.73,0,0,0,53,224.23c-.08,2.76-7.33,27.45-6.82,30.85a74.39,74.39,0,0,1,.3,9.85l-1.32,3Z"/><path d="M168.23,56.91s10.6.75,12.87,1.13,13.25,1.14,14.39,3.41,2.27,10.22,2.65,15.14l.38,4.93s.38,21.2-.76,27.25l-1.14,6.06s-5.3,18.93-6.05,21.2c0,0-9.85,18.18-11.74,25.37s-15.14,45-15.52,51.11,7.19,34.83,6.06,35.59-6.06.75-9.09,1.13-6.06,1.52-5.68-1.51,1.52-51.87,1.89-56.41,3-28.78,3.41-31.8,6.82-30.67,6.82-31.81-1.14-7.19,0-10.22,1.13-8.71,1.13-11.36-.76-28.39-.76-35.58A81.94,81.94,0,0,1,168.23,56.91Z"/><path d="M287.14,0S297.74.76,300,1.14s13.25,1.13,14.39,3.4,2.27,10.22,2.65,15.15l.38,4.92s.37,21.2-.76,27.26l-1.14,6.05s-5.3,18.93-6.06,21.21c0,0-9.84,18.17-11.73,25.36s-15.15,45.05-15.52,51.11,7.19,34.83,6,35.59-6,.75-9.08,1.13-6.06,1.52-5.68-1.51,1.51-51.87,1.89-56.41,3-28.77,3.41-31.8,6.81-30.67,6.81-31.8-1.13-7.2,0-10.23,1.14-8.7,1.14-11.35S286,20.82,286,13.63A82.09,82.09,0,0,1,287.14,0Z"/><path d="M13.66,161.27s10.6.76,12.87,1.14,13.25,1.14,14.39,3.41S43.19,176,43.57,181l.38,4.92s.38,21.2-.76,27.26l-1.13,6.06s-5.3,18.93-6.06,21.2c0,0-9.85,18.17-11.74,25.36S9.12,310.82,8.74,316.87s7.19,34.83,6.06,35.59-6.06.76-9.09,1.14S-.35,355.11,0,352.08s1.52-51.86,1.9-56.41,3-28.77,3.4-31.8,6.82-30.66,6.82-31.8-1.14-7.19,0-10.22,1.13-8.71,1.13-11.36-.75-28.39-.75-35.59A82.79,82.79,0,0,1,13.66,161.27Z"/><path d="M202.77,105c.41,7,0,136.9,0,136.9s-.38,3.77.63,5.31-.69,4.65-2.33,4.84-8.88-1.44-11-1.6-9.5.29-9.5.29-2.51-.12-3.16-2.12,1.23-98.46,1-100.5,2.89-35.19,3.11-36.87,1.76-86.91,1.76-86.91,6.38-5.73,8.37-6.38,7.61,1.17,9,2.67C200.68,20.6,202.36,98,202.77,105Z"/><path d="M133.82,237.58c-.23-6.06,2.52-118.21,2.52-118.21s.4-3.25-.45-4.6.69-4,2.11-4.14,7.64,1.41,9.44,1.59,8.22-.08,8.22-.08,2.16.15,2.68,1.89-2.86,85-2.69,86.76-3.15,30.33-3.37,31.79-3.11,75-3.11,75-5.61,4.83-7.35,5.35-6.54-1.15-7.74-2.46C134.08,310.48,134.05,243.63,133.82,237.58Z"/><path d="M264.85,63.24c1.53.17,9.13,1.74,10.43,2.61s5.87,3.7,6.09,7-8.91,37.6-9.35,42.39-9.78,35.43-10.65,38-4.57,11.95-4.57,11.95l3.48,10.44c.44,1.3,9.78,12.83,10.87,16.09s10.87,23.91,11.09,25.86,2.61,2.18,1.52,3.7-14.35,7.83-15.22,8.26-7,.87-7.82,1.31-6.31,2.39-7.83,1.73-13-38.26-14.56-41.08-5.44-33.26-5.22-35.65,11.52-21.09,12.82-28,9.79-38.91,10.22-43.69A62.89,62.89,0,0,1,259,70.41C260.06,67.59,262.89,63,264.85,63.24Z"/><path d="M337,82.07c1.53.17,9.13,1.73,10.43,2.6s5.87,3.7,6.09,7-8.91,37.61-9.35,42.39-9.78,35.43-10.65,38-4.56,12-4.56,12l3.48,10.43c.43,1.31,9.78,12.83,10.86,16.09s10.87,23.91,11.09,25.87,2.61,2.17,1.52,3.7-14.34,7.82-15.21,8.26-7,.87-7.83,1.3-6.3,2.39-7.83,1.74-13-38.26-14.56-41.09-5.44-33.26-5.22-35.65,11.52-21.08,12.83-28,9.78-38.91,10.21-43.7a62.79,62.79,0,0,1,2.83-13.69C332.17,86.41,335,81.85,337,82.07Z"/></g></g></svg>