<svg xmlns="http://www.w3.org/2000/svg" viewBox="0 0 346.32 384.06"><g id="圖層_2" data-name="圖層 2"><g id="圖層_1-2" data-name="圖層 1"><path d="M334.6,50.3A39.51,39.51,0,0,1,327,48.15l-1.12,9.77-12,87L307.47,184s-.39-14.2-.43-17.67-1.07-30.69-1.76-37.92-3.65-43.86-4.49-49.15-1.24-19.5-1.64-21.18a41.54,41.54,0,0,0-2-5.16,6.78,6.78,0,0,1-2.8.73c-1.35,0-3.26-3.06-3.26-3.06l-2.43,2.22a13.4,13.4,0,0,0-5.09-.72c-2.28.28-9,1.87-9,1.87s.25-5.81-.13-7.3-3-.6-3-.6S265,45,263.21,44.61s-7.21-.66-7.92-.18.14,1.13.13,2.68-.64,10.48-.64,10.48-2.57-5.27-2.92-6.58-1.51-4.44-2.34-4.91-4.36.53-4.36.53-1.89-4.39-4.83-4.8A6,6,0,0,0,235.65,43a20.14,20.14,0,0,0,1.06,3.92c.87,2.39,4,16.84,4.23,18.74s5.11,26,6.64,30.59,4.74,21.38,4.69,22.54-1,24.59-1,24.59c-1.6-5.2-10-23.62-10-23.62s-2.75-20.85-3.34-24.06-.2-14.23-.6-17.45-4.07-25.32-4-28,.39-6.21-.39-7.85-1.65-4-1.65-4a8.89,8.89,0,0,1-3.16,1c-1.16,0-6.12.36-7.07.48s-3.12-1.93-3,.56a57.45,57.45,0,0,0,1,9.89c.71,2.61,1.77,25.41,1.77,25.41l-13-23.06a81,81,0,0,0-1.66-10.39c-1.17-4.87-3.94-16.47-4.34-18.15a26,26,0,0,0-3.07-6.18C198,17,197.08,19,197.08,19a3.9,3.9,0,0,0-1.89-2.85,20.31,20.31,0,0,1-3.34-2.09,3.74,3.74,0,0,1-1.17,1.49c-.88.68-3.85,1.63-5.32,2.19s-4.6,1.72-4.6,1.72l-1.33-1.38-4.7,2.51,7.63,13.51s-2.83,2.08-3.87,3S173.91,39,173.91,39s-2.58-13.17-2.76-16.23-1.71-2.87-3.91-3.57-6.52.23-8.44.27-4.92,2.33-4.92,2.33-1.22-5.24-1.95-8-2.7-11-4.21-12.39S141.6.2,139.68.24s-5.67-.65-6,.15.18,1.52.68,2.42.53,4.37.53,4.37l-3.39.61L132,11.2l-1.79-3.63-1.33.16c-1.33.16-8.29,3.14-8.29,3.14a8.33,8.33,0,0,0-.22,2.91c.19,1.52,2.35,9.73,2.35,9.73a26.7,26.7,0,0,1-4.55.56c-3.25.21-1.5.38-1.17,1.49s3.52,19.22,3.52,19.22l-14.21,1.94s-5-13.84-8-21.56-7-18.2-7-18.2L88.56,4.39a18.26,18.26,0,0,0-3.13,1.15c-.71.48-6,1.32-8.92,2.64s-4.44,0-4.06,1.46,3.33,6.72,4.84,9.62,10.2,26.68,16.52,45.17.13,5.76,9.25,39.31,14.22,57.79,14.22,57.79-13.69-31.46-16.47-36.9S85.75,93,82,85.91,57.18,37.52,57.18,37.52s-7.41-14.89-8.4-16.69-4.12-2.19-5.83-2S38.1,21.75,36,22.2a36.42,36.42,0,0,0-7.45,2.07c-3.49,1.39-2.26,2-3.66,3.14S23.08,28,22.62,29s-.26,2.54.77,6.27,6.82,14.76,6.82,14.76a32.67,32.67,0,0,0-5.84,2.65c-1.59,1.16-2.71,4.57-2.71,4.57S17.81,51,16.17,48.71,8.82,39,6.69,35.81s-3.52-2.07-3.52-2.07c-1.83-2.28-2.11-1.47-2.61-.83A2.4,2.4,0,0,0,.55,36c1,1.43,6.9,12.25,8.7,14.34s4,4.71,4,4.71,1,1.8,1.51,2.9,4.79,9.23,4.79,9.23l-2,1.21a4.44,4.44,0,0,0-.17,3.29c.61,1.86,7.15,15.89,23.84,48.32,9.11,17.69,17.46,35.75,25.93,53.74,4.26,9.07,8.55,18.12,13,27.1q3.33,6.75,6.78,13.45c1.85,3.58,4.87,7.23,6,11.08a16.68,16.68,0,0,1,.47,2.42,36.8,36.8,0,0,1-.33,8.45c-2.49,21.5-3.27,43.29-4.88,64.9,0,1.07.76,6.8.33,9s-.61,6.27-1,6.85.59.77,1.45,1a30.16,30.16,0,0,0,4.3,1.3A22.8,22.8,0,0,0,98,322c1.72.52,6.09-.74,7.14-1.12s4.52-1,5.22-1.36a.67.67,0,0,0,.14-.11c.37,3.51,1.61,14.09,1.43,15.84-.2,2,0,10.14.1,10.61s3-.12,4.69.4c1.24.41,5,4.49,5.43,4.4s3.71-1.89,3.71-1.89,2.71-7.61,2.69-9.49c0-1.1-.33-6.5-.63-10.86,1.67-.32,4.26-1.1,5.12-1.16,1.15-.07,3.73-.43,4.38-.58a13.22,13.22,0,0,0,1.88-.72l7.32-.35a57.34,57.34,0,0,0,.85,8.05c.77,2.39,2.78,6.49,2.75,7.49s-.55,40.16-.55,40.16a2.54,2.54,0,0,0,2,2.7c.59.22,2.65-.85,2.65-.85s4.25-4.63,4.35-5.25,1.47-25.76,1.38-26.79-.29-2.19-.29-2.19,1.2-2.84.71-3.8a13.46,13.46,0,0,1-1.44-4.51c0-.23,0-1.45,0-3.27.62.77,1.16,1.36,1.16,1.36l2.8-.55,2.46,1.91.91-.41a19.7,19.7,0,0,0,3.11-2.78s2.22-.35,2.87-.52c0,0,1.34-.93,1.41-1.57s-.15-4.26-.47-7.16l1.7.08a16,16,0,0,1,2.8-1c.36.07-.23-.68-.21-1a25.17,25.17,0,0,1,1.07-3.74c.16-.15.82-.95,1.45-1a34.06,34.06,0,0,0,4.17-1.52c-.05.29-.09.52-.12.64-.52,2.29-2,13.75-2,13.75s5.27-.54,6.86-.65,4.87,1.26,7,1.67,6.68.86,7,.48a7.19,7.19,0,0,0,.6-1.29,35,35,0,0,0,4-1.35c.48-.34.71-.64.49-1.61,0,0-.93-18.48-1.77-34.13h.92s3.12,3.3,3.71,3.77a16,16,0,0,0,3.58,1.25l1,9c.26,1.9,1.55,2.51,1.79,2.41s4.35,0,4.35,0,6.46,3.85,7.18,4.82a19.94,19.94,0,0,0,2.32,3,5.88,5.88,0,0,0,2.08-.11s.36-6.45.74-13.37c1.13.73,2,1.28,2.26,1.53,1.31,1.11,5.63,8.5,7.31,8.29,1.38-.17-.8-17.33-1.65-23.66,1.06-.26,2-.54,2.39-.69s.74-.22,1.28-.35c.16,2.67.12,6.28.65,7.25a11.94,11.94,0,0,0,2.11,3,18.38,18.38,0,0,0,3.95,1.87c1.29.4,6.53.26,6.53.26s3.13,3.31,3.71,3.78a21.22,21.22,0,0,0,4.17,1.41c.91.25,4.53-.06,4.9-.72a34.86,34.86,0,0,1,1.9-3c.47-.59,1.14-1,1.18-1.47s-1.75-13.43-2.65-25.53c-.25-3.48-.36-6.28-.39-8.7a22.33,22.33,0,0,0,3.31-.86c.7-.37,1.5-2.24,1.5-2.24s1-.46,2-1c.13,15.21.28,28.06.46,29.18.46,2.84,1.62,35.83,2.06,37.58s0,4.93.23,5.26,7.4,4.82,8.2,6,1.62,5.35,1.84,5.19,3.59-7.44,5.64-12.78.33-17.83.55-22.26c.06-1.29-.12-10.34-.42-22.52l.19.06c1.72.52,6.09-.74,7.14-1.12s4.52-1,5.22-1.36S311,288,311,288s3.51-1.53,3.63-2.31.18-26.22-.16-27.84.31-4.13.35-5.41-.68-1.26-1.2-2.24c-.16-.3-.46-4.26-.8-9.77,2.33,0,4.67,0,7,0,8.31-16.16,7.34-43.15,10.23-61.11,2.51-15.58,5.67-31.21,7.28-46.92,1.41-13.66,7.09-67.9,7.86-74.16s1.11-6.69,1.11-6.69S337.73,50.69,334.6,50.3ZM274.36,94.68c1.87,9,4.69,44.5,4.69,44.5-.73-2.8-5.11-18.06-5.11-18.06C274.71,114.86,274.36,94.68,274.36,94.68Zm-86,194.82c0-1.35,0-2.6,0-3.69l.29.86C188.75,286.73,188.63,287.79,188.41,289.5Z"/></g></g></svg>