<svg xmlns="http://www.w3.org/2000/svg" viewBox="0 0 119.15 812.2"><g id="圖層_2" data-name="圖層 2"><g id="圖層_1-2" data-name="圖層 1"><path d="M10.11,783.17c1.49,5,2,14.36,5,15.35S32.4,805,36.36,807s8.92,6.43,21.8,4.95,31.2-7.43,33.68-10.9,3-14.36,5-23.78,9.42-30.71,10.41-39.62,3.46-25.76,4.45-32.69,4-17.34,2.48-17.84-3-4-3-4,5.45-83.22,7.43-102-2-69.84-1.49-89.66-5.45-36.16-4.95-46.56,1-29.22,1-33.19-5,4-4.46,2-2.47-33.19-3-46.57S95.8,284.36,94.81,269,80.94,53,79.46,39.17s-2-25.26-3-27.74-4,0-4,0,0-7.43-2-9.41S63.11.53,61.13,0s-5,4-6.93,4.46S49.74,3,50.23,7s1,6.94,1,6.94-4.45,1.48-6.44,2-3,6.93-3,11.89-4,330.88-10.4,365.56-10.9,87.18-14.86,105.5S8.13,628.62,6.15,646.46s-2.48,26.74-3,28.72-2-6.93-3,12.39,2,48.54,1.49,57.95S10.11,783.17,10.11,783.17Z"/></g></g></svg>