<svg xmlns="http://www.w3.org/2000/svg" viewBox="0 0 948.11 425.41"><g id="圖層_2" data-name="圖層 2"><g id="圖層_1-2" data-name="圖層 1"><path d="M14.42,142.53c9.32-4.3,20.73-10.36,24.8-14.07s9.26-5.55,15.92-10.36,24.07-7,24.07-7a197.23,197.23,0,0,0,23.32-6.66,83.37,83.37,0,0,1,25.17-5.18c5.93-.37,34.06,7.77,41.1,7s13.32-6.66,27.76,6.29,12.22,20.37,11.11,25.55S198,149.2,191.75,152.16s-18.88,7.77-18.88,7.77-5.55,9.63-4.44,19.62-.37,30,4.44,38.13,28.88,38.14,35.91,52.94,26.65,64.79,27.77,77.75-5.19,27.77-6.67,33.69S224,395,224,395l-9.26,1.11s-.74,2.22-4.81,3.33-13.33-.37-20,.37-15.55,0-18.88,2.22-5.19,1.11-15.92.37-23.7-3.7-34.06-2.22-19.62,0-22.21-1.11S88.09,385,80.69,367.25s-13.33-41.09-13-72.19-3-46.65-10.74-70-8.51-30.73-16.29-40.35S30,171,28.86,171.41a32.23,32.23,0,0,1-8.15,1.48,14.92,14.92,0,0,1-8.14-2.22c-2.22-1.48-4.82-4.82-8.15-8.89s-6.29-8.88-3-11.84S4.79,147,14.42,142.53Z"/><path d="M305.4,38.13c8.15-10.47,24.44-17.4,34.8-23S387.22,0,396.85,0s22.21.37,37.76,11.85S469,35.91,470.52,44.8s0,16.28-5.18,21.84-18.51,13.33-23,14.81-5.92,1.85-5.92,1.85-2.59,15.92-2.59,21.47,9.25,25.17,11.47,51.09,2.6,42.2,13.33,73.3,22.59,67,16.66,97.37-8.14,50.35-39.61,72.56-41.09,23.69-46.28,25.17-29.24,1.11-33.69,1.11-10.36-1.48-11.47-1.48-6.3-1.11-10.37-.37-1.85,2.22-5.92-1.85-11.85-8.14-17.4-35.91-5.56-61.82-3.33-73.67,8.88-31.1,22.58-55.16,23-35.54,30.36-59.61,8.88-39.24,4.44-54.42-20.73-37.76-21.84-38.13-12.59,1.11-17.77,0-5.19-1.48-11.48-2.22-11.85,2.22-20.36-7.41S287.26,77,292.08,64.42,297.63,48.13,305.4,38.13Z"/><path d="M541.23,142.16c8.14-7,18.51-11.11,22.58-15.18a54.33,54.33,0,0,1,12.59-9.62c3.7-1.85,13-4.08,22.21-4.45s35.54-5.18,47-4.44,24.06-1.11,47,7.41,32.57,18.88,33.69,28.87-2.6,16.66-11.48,21.85-25.18,6.66-25.18,6.66S687.46,191,688.2,198.8s-2.22,27.77,5.93,50,21.47,59.61,20.73,75.9-5.55,53.31-12.22,64.41-8.14,14.07-13.7,17.4-14.8,7-19.25,7.41a35.27,35.27,0,0,1-10-1.11s-.37,3.7-5.56,1.11-22.58-8.15-25.91-9.63-21.47-.74-25.18-1.48-5.92,1.11-8.88-.37a21.25,21.25,0,0,0-6.29-1.85s-2.6,5.18-10.37,3-18.14-7-23.69-11.11-19.62-14.8-20.37-31.09-3-17.77,5.56-50.72,18.88-62.2,24.06-85.15,4.81-36.28-6.66-46.65c0,0-3,0-7.78-.37s-6.66.37-9.62-1.11-5.56-.37-6.67-6.29,0-8.15-.74-15.18,3.34-9.63,5.19-11.11A22.54,22.54,0,0,1,541.23,142.16Z"/><path d="M784.09,75.89c-5.1,2.73-4.81,8.52-4.44,11.11s4.81,1.11,7,2.59,2.59,3.33,6.66,3.7,5.93,3.71,8.15,8.89,4.07,17.4.37,28.87S790,160.3,786.31,171.41s-2.59,1.11-8.89,61.45-12.95,82.56-2.59,107,13.33,25.55,13.33,25.55-.37,4.81,6.66,14.07,13,11.47,14.81,15.18,3.33,9.62,6.3,9.62,13,0,18.51-1.11,24.06-4.81,31.09-7.77,6.3-14.07,16.66-25.18,16.66-12.59,18.89-22.95S910,325.42,897,285.8s-26.28-61.45-26.28-82.55-.37-24.07,11.1-36.28,24.81-20,31.1-24.07a96.9,96.9,0,0,1,12.22-6.66s8.51,6.29,13.33,4.81,10-4.07,9.62-9.62,1.11-9.26-26.28-31.47-36.28-21.1-44.06-23.33-15.18-4.44-21.84-6.29S832.59,68.12,827,68.86s-7.77,1.85-12.95,1.48S805.56,64.42,784.09,75.89Z"/></g></g></svg>