<svg xmlns="http://www.w3.org/2000/svg" viewBox="0 0 408.24 306.3"><g id="圖層_2" data-name="圖層 2"><g id="圖層_1-2" data-name="圖層 1"><path d="M323.57,18.9s10.86,1.63,14.94,1.94,18.67,3.29,18.67,3.29,9.9,7.35,10.46,8.08,3.24,15.17,3.24,15.17,13.9,48.46,21.85,74.23,15.85,71.93,15.5,78-.31,14.07-.31,14.07-9.69,7.85-12,10.38S389,230.5,389,230.5l-5.4,1.47s-4.18-2.93-5.53-4.19-10.58-69.07-13.91-81.88-9.07-32.2-14.49-42.24S330.17,48.4,330.17,48.4s-5.34-17.4-6.29-20.13S323.57,18.9,323.57,18.9Z"/><path d="M132.1,0c2.66.62,12.28,4.27,12.28,4.27s3.76,15,3.92,21.47,2.12,88.84,2.36,96.17,2.67,57.24,3.76,62.11,4,43.29,4,43.29l.56,15.51s-13.63,9.25-16,9.25a59.11,59.11,0,0,0-6.43.59l-7.14-7.12s2-27.63,1.51-44.66-5.92-78.55-6.44-91.26-.88-61.29-1.79-71.15-2.1-34.6-2.1-34.6Z"/><path d="M195.63,31.07c.61-.92,14.61-11,18.26-13.09a32.07,32.07,0,0,1,9.13-3,133,133,0,0,0,2.13,14.3c1.22,4.87,3.65,28.91,5.17,35.61s3.05,26.17,4.26,32,4.87,42.91,7,51.73,6.7,35.31,8.53,43.22,3.65,27.09,4.26,31-6.09,14.61-6.09,14.61l-8.22,6.7s-7.61-5.18-9.13-5.18-8.52-.91-8.82-2.13-1.22-8.52-1.83-15.21-3-37.44-4.87-44.74S203.85,98,203.24,92.54s-5.48-43.82-6.39-45.34-2.74-5.48-2.74-6.7S195.63,31.07,195.63,31.07Z"/><path d="M225.61,4c0-.91-.31-1.83.61-2.13S232.3.63,232.3.63L254.83,12.2s13.08,37.43,17.65,46.26,14.61,39.87,17.65,46.87,16.74,39.87,19.48,46.56,9.43,40.78,10.95,43.22,4,3,3.05,5.48-2.74,17.95-3.35,18.87-13.09,17.95-13.09,17.95L295.3,243.8s-2.43-7.3-3.34-9.43-.61-9.44-1.83-13.7-22.52-94.34-27.7-102.56S236,46.89,233.52,40.81s-5.17-14.31-6.69-17.66S225.61,4,225.61,4Z"/><path d="M182.24,31.13c-1.17.31-27.16,5.62-27.16,5.62s-.8,32.64-2.42,38.42-7,80.56-8,84,1.67,13.41,3,15.91,6.28,16.59,7.14,19.83.57,9.29.57,9.29,1,.06,3.8,2.46,5,5.61,7.26,7.21,3.8,2.45,4.7,3.47,5.43-2.06,7.06-1.87,3.94,1.8,3.55.32-2.46-6.9-2.18-8.23a14.4,14.4,0,0,1,1.86-3.65,62.47,62.47,0,0,0-.61-7.07c-.39-1.48.25-8.57.25-8.57s-2.67-6.53-2.77-8.08-.22-10.34-.22-10.34,5.56-115.75,5.29-119.14-1.07-7.59-1.16-9.14S182.24,31.13,182.24,31.13Z"/><path d="M76.71,46.38a3.71,3.71,0,0,1,2.2,0l1.3.64,3.1-.64s3.11.9,3.5.9a4.58,4.58,0,0,0,1.42-.78l.13,1.56a28.24,28.24,0,0,1,3,1.68,22.19,22.19,0,0,0,3.23,1.55s.52,2.08.78,2.85,2.46,4.4,2.59,6.22-.52,6.47-.52,8.28.39,6.08.26,7.38a37.68,37.68,0,0,0,.26,4.27,22.2,22.2,0,0,1,.26,3.37,74.67,74.67,0,0,0,0,7.63c.13,1.43-.13,7.12-.13,7.12s-.91,4.27-.52,6.47-1.29,6-1.29,7.12.52,16.06.26,18.26-.65,16.18-.39,18.89.9,17.74,1.42,18.65a17.64,17.64,0,0,1,1,5.56v3.76s.39,3,.39,3.49V187c0,1.17.77,3.24.64,3.89s-1.42,4-1.42,5.3-.52,3.63-.13,3.76a3.24,3.24,0,0,1,1.29,2.46c-.13.9-2.84,6.73-2.84,6.73s.38,1.55,0,1.94S95,213,95,213s-.26,3.37-.26,4a4.48,4.48,0,0,0,1.3,2.46,2.77,2.77,0,0,1,1.29,1.95,18.09,18.09,0,0,0,1.17,3.49s2.46,1.55,2.85,2.85,0,2.46.38,2.72a7.46,7.46,0,0,1,1.43,3.36c.13,1.17-1.94,4-1.94,4a30.61,30.61,0,0,0-4.79,1.68,3.86,3.86,0,0,1-3.37.13c-.52-.39-3.62-3.37-4.53-5.44s-3.37-4.4-3.62-5.7-1.3-5.69-1.3-5.69-1.94-4.92-2.2-6.21-1.94-3-2.85-3.63-2.46-1.29-2.46-2.33-1.16-1.94-1.16-3.23a23.2,23.2,0,0,0-.13-4.28,16.72,16.72,0,0,1-.13-3.49c0-.65-.91-2.07-.65-2.85a4.77,4.77,0,0,1-.39-2.33c.26-.78,0-2.2.13-3.36s-.38-3-.26-5,0-8.29,0-8.29-3.23-32.49-3.36-33.52a10.66,10.66,0,0,0-.78-2.46S68,140,68.69,138.93s.12-2.2.25-3.63.52-2.2.65-3.23-.39-3.11-.13-4.66a52.12,52.12,0,0,0,.13-6.47c0-2-.65-16.06,0-19.16a41.38,41.38,0,0,0,1.3-8.55c0-2.84-.65-6.21-.13-8.41s.51-3,.64-3.37-.9-4.27-.13-6.86-.25-5.69.65-6.34.26-2.72.26-2.72a2.51,2.51,0,0,1,.13-2.59,10.29,10.29,0,0,0,1.42-3.62,34,34,0,0,0,1-4.27,10.87,10.87,0,0,0-.26-2.72s.65.78.91-.13a2.18,2.18,0,0,0-.26-1.68,6.26,6.26,0,0,0,1-1.56A6.85,6.85,0,0,0,76.71,46.38Z"/><path d="M27.72,23.72a19,19,0,0,1,3-1l3.23.9L35.87,23l5.31.51a28.75,28.75,0,0,0,4.27.91,18.18,18.18,0,0,1,2.85.39,27.4,27.4,0,0,1,1.94,4.79c.52,2.07,1.3,3.23,1.3,4.27v2.59l.64,2.85-.13,2.46s1.3,2.33,1.17,2.71a3.77,3.77,0,0,0-.91,3.24c.26,2.33,0,12-.13,13.85a25.73,25.73,0,0,0,.39,4.79l-.39,6.47a32.35,32.35,0,0,0,.52,5,17.38,17.38,0,0,1,.39,3.75l-.78,1.82s.13.64.52,1.94a12,12,0,0,1,.26,3.36,18.94,18.94,0,0,0,.52,3.37,7.44,7.44,0,0,1,0,4.14c-.39,1.68-.78,3.88-.78,3.88a15.29,15.29,0,0,0-.39,3.11c.13.65-.51,13.59-.26,15.15s-.64,4.27-.25,5.69,1,2.2.64,3.24-1.29,1.81-1.42,3a33.81,33.81,0,0,0,.13,3.75c0,.91-1,3.24-.65,4.14a28.51,28.51,0,0,1,.91,3l-1.3,3a42.83,42.83,0,0,0-.9,4.27c-.13,1.29-.65,3.23-.65,4.53s.26,4.14.26,4.14l-.39,3.5,1.94.51a18.1,18.1,0,0,1-.13,4.53c-.39,2.33-2.33,6.09-2.07,8.81s.39,4.4-.26,6.6a25.62,25.62,0,0,1-1.42,3.75,33.42,33.42,0,0,1,1,6.86c-.13,2.2-.26,3.24-1.55,4.53a29.55,29.55,0,0,0-3,4s-1,4-.77,6a15.84,15.84,0,0,1-.52,7.51,28.57,28.57,0,0,0-1.43,7.25C40,224.1,38.2,235.75,38.59,236s2.46,5.44,2.46,5.44-.13,5.44-.13,7.25a21,21,0,0,1-1.55,6c-.52,1.43-1.68,4.27-1.68,4.27a74.81,74.81,0,0,1,.13,7.9c-.26,1.42-.91,2.59-.52,4.14a7,7,0,0,1-.52,4c-.26.51-1.42,1.42-1,1.94s.65,1-.13,1.94-2.45,1.16-2.45,1.94a11.44,11.44,0,0,1-.39,2.2s1.29,1.17.77,1.94-1.29.39-1.29,1.3a28,28,0,0,0-.13,3.1,33.35,33.35,0,0,1,.39,3.89c.13,1.94,1.55,2.46.65,3.49s-1.95,1.17-1.95,1.56a15.11,15.11,0,0,1-.26,2.59A8.69,8.69,0,0,1,29,305a28.14,28.14,0,0,1-4.14,1.29S22,304,20.34,303.84s-8.67-2.33-8.67-2.33l-6-4.53s-1.55-.39-1.94-1.42-1.29-3-1.29-3S-.24,288.44,0,287.92s3-3.11,3.1-6.86A79.64,79.64,0,0,1,4,271.61c.13-.13,1.42,0,1.42-1S3.9,268.5,3.9,268.5a44.79,44.79,0,0,1,1-7c.77-3,1.68-10.61,1.68-10.61l2.2-11.78a18.9,18.9,0,0,1-.13-4.27,50.27,50.27,0,0,0,0-6.35s-.39-6.86.39-7.89a20.29,20.29,0,0,0,1.29-1.94s-.9.26-.39-1.94,1.56-9.2,2.08-12.17,1.16-8.29,1.29-9.58-.78-3.76-.39-4.79a9.67,9.67,0,0,1,1.17-2.07s-.39-1.94.13-2.46a8.56,8.56,0,0,0,1-1.43l-.26-6.6,1.17-3.75a54.8,54.8,0,0,0,.9-5.7c.26-2.72.26-7.76.39-8.67s-.52-4.92-.39-7.77.52-6.73.52-7.5-.9-2.33.26-3.5,1.17-.91,1.17-1.16-.78-2.33-.52-3.76-.65-3.75-.65-5.43.52-13.86,1.17-16.83-.26-8.68.13-11.13a66,66,0,0,1,1.16-6.61c.26-.51-.52-1.81-.52-3.62s-.26-6.09-.13-6.73-1-19.55-1-22-.52-5.31-.26-7.12-.52-2.33-.26-3.88a55.11,55.11,0,0,0,.52-5.57c0-.77-.39-5.56-.39-5.56l-.65-5.57s-.77,0-.26-2.07a38.46,38.46,0,0,0,.78-4.53s2.59-1.43,4.53-2.46a15.54,15.54,0,0,1,4-1.42Z"/><path d="M289.1,26.4c.78-.19,2.53-.77,3.3.39s3.11,3.88,3.11,3.88,3.11-.19,4.27.59,1.36,2.13,1.94,2.33a7.11,7.11,0,0,1,4.08,2.13,17.67,17.67,0,0,0,3.89,3.5,28.73,28.73,0,0,1,2.52,2.33L314,43.3a2.76,2.76,0,0,1,1.94,1.35,67.75,67.75,0,0,1,1.94,7c.58,2.14,0,4.66,1,5.44S320,59.22,320.56,61s-.58,4.28,0,5.25.58,5.82,1.36,7.76l.77,2,2.53-1.36,1,.77s-.68.39-1.26.68a2.69,2.69,0,0,0-1.17,1.65,5.34,5.34,0,0,0-.39,3.11c.3,1.16.88,1.75.88,2.33v1.36a3.94,3.94,0,0,1,1.07,2.62,16.6,16.6,0,0,1-.1,3l.78,2.23c.09.29-.68,1.56-.49,3s.1,7.67.68,10.39,2.43,11.07,2.43,14.27-.2,12.14-.2,12.14,1.17,23.69,1.75,24.85,1,2.23,1,2.23l-.58,2.14L332,182.22l1.07,2.82-.87,2.81a32.28,32.28,0,0,1-.29,4.18,8.12,8.12,0,0,1-1.17,3.1l.2,2.72s.58,21.46.29,23.4a43.86,43.86,0,0,1-1.36,5.24L326,231.25l-5.54,1.55s-7.86.68-9.9,1.07-6.6,1.26-7.67,1.55a15.07,15.07,0,0,0-2.91.68c-1,.49-1.27-.19-1.36-.68s-.49-1.26-.49-1.55-.09-2.43-.09-2.43l1.16-2.91a11.09,11.09,0,0,1,.1-3,15.32,15.32,0,0,0,.39-2.42,2.81,2.81,0,0,1-1.36-.68c-.39-.49.58-1,1-1.07a1.67,1.67,0,0,1,.87.09s0-5.43.1-6.79.87-8.06.87-8.06a3.1,3.1,0,0,1-1-2.52c.1-1.65.29-3.5.39-4.28s.39-3.2.39-3.2l.29-1.75s.19-6,.29-7.18.68-1.36.58-2.33a3.51,3.51,0,0,0-.77-1.75,4.89,4.89,0,0,0,.19-2.52c-.29-1.26-1.36-10-1.36-10s-1.16-4.08-.78-4.86-.77-.58-.68-1.26-.09-1.07,0-1.75-1.06-1.35-.87-2.52-.39-2.23,0-3.69.78-1.26.78-2-.49-1.65-.39-2.43.1-.77.19-2,.2-3.21.2-3.21-.39-3.69-.39-4.27-.78-3.4-.58-4.37-.2-3.2.09-4.27.3-2.14.68-3.2-.19-1-.29-2.33a12.2,12.2,0,0,1,.2-2.43c0-.58-.88-1.17-.88-1.94s0-1.65.1-3a6.67,6.67,0,0,0-.78-4c-.68-1-1-1.75-.48-2.53a4.43,4.43,0,0,0,.87-2.81,40.42,40.42,0,0,0-.39-4.18,18.66,18.66,0,0,1-.09-3.49,12.39,12.39,0,0,0-.39-3.11L295,94.65s-.2.2-.59-1.45a4.08,4.08,0,0,1-.09-2.33s.38.29.68.09,0-2.91,0-2.91l.19-3.88s-.78-5.73-1-7.57.29-3.21-.78-4.76a9.45,9.45,0,0,1-1.65-4.37,23.59,23.59,0,0,0-.68-3.11l-.77-4.07.29-2.24-.39-3.69a23.44,23.44,0,0,0-.29-3.1,13,13,0,0,1-.78-3,63.38,63.38,0,0,0-1.55-7.87,16.67,16.67,0,0,0-1.07-2.62,5.89,5.89,0,0,1-.87-3.4c0-1.16.09-3.59.09-5s1.65-3,1.65-3Z"/></g></g></svg>