<svg xmlns="http://www.w3.org/2000/svg" viewBox="0 0 716.88 343.12"><g id="圖層_2" data-name="圖層 2"><g id="圖層_1-2" data-name="圖層 1"><path d="M132.92,76.93c5.57-2.39,10-5.17,12.33-6s11.15-7.16,15.12-8.75a133.28,133.28,0,0,1,19.11-5.58c4.77-.79,18.3-2.38,19.89-4S261.05,37.14,268.22,34s27.06-13.53,36.21-15.52,28.65.8,34.22-.79,31.44-6,41.39-7.17,23.47.4,32.63,0,45.76-2,52.13-1.19,13.13,1.19,16.71.8,2.79-5.18,8-4.78S494.64.92,497.83.13s9.55,2.38,15.52,2.78,12.73-.79,15.12-.79-3.58,2,4.77,4.77,11.14,4,15.12,6.37a14.62,14.62,0,0,1,5.58,6.37l-2.79,7.56s-3.18,6.36,1.19,6a23.46,23.46,0,0,1,13.53,3.18c4,2.39,6,6,10,6s12.74,3.18,16.72,8S609.65,62.6,609.65,62.6s10.34,4,15.91,8.76,6.77,6,10.35,7.16,12.34,6.77,17.91,11.54,10.74,9.15,17.11,10,13.53,4.77,17.11,7.56,6,10,8.36,14.72,6,19.5,7.16,22.29,4.77,3.18,5.57,10.34-.8,13.53,1.59,18.31,8,8.75,5.57,11.14-10.34,8.76-11.14,11.94-9.15,25.07-9.95,29.05-1.19,9.95-2.38,13.53.79,8.75-2,8.36a14,14,0,0,1-4.78-1.6,21.07,21.07,0,0,1-4,11.15c-4,5.57-3.58,8.35-5.57,12.73s-4.38,6-6,2.79-5.57,3.18-8.36.39-6.76,3.59-6.76,3.59,4,4,1.59,4.77a8.32,8.32,0,0,1-8.36-1.19,19.89,19.89,0,0,0-6.36-3.19s-3.19,8-8,10.35-18.31.8-24.67,3.18-15.52,4.38-20.7,4-10.74-1.19-7.16-5.57,8.76-12.73,8.76-12.73l13.53-15.12s-8,4.77-11.15,8.75-4.37,7.56-9.55,12.73-8.75,2.39-8.75,2.39,5.17,2.79,0,7.17a30.94,30.94,0,0,1-10.35,5.83s1.86,1.86-2.39,3.45-8.75-2.39-8.75-2.39-6.37.53-11.14,3.19-15.92,12.73-57.31,12.2-51.46,0-58.09,2.39-31.57,4-37.41,3.45-8.49-2.13-11.67-.53-5.57,5.57-9.29,3.44-7.69-5-10.88-2.91-3.44,3.45-7.69,4.51-6.9,3.71-14.33,3.71-26.52,2.65-26.52,2.65a3.61,3.61,0,0,1-3.45,2.39c-2.92.27-2.66-2.12-2.66-2.12s-6.89,1.59-17.24,2.92-28.92.79-34.49,2.65-21.75,4.24-26,5.31-6.89.53-9,1.06-1.59-1.06-3.45-1.86-9.81-.8-9.81-.8-8.49,1.06-13.8.53-13.79-3.18-17.77-4-9.55-3.18-13.8-4.24-8.22-.8-14.85-1.59-15.39-1.59-22-4-12.2-3.71-20.16-8.49-12.47-9.82-14.06-12.47-2.92-8.75-3.72-11.67-1.86-10.35-3.18-12.21S76.41,273,75.88,274s-3.71,3.18-6.63,6.1-5,2.39-6.64,5.57-4.77,3.72-6.63,1.86l-2.92-2.92s-6.1.8-10.08,1.06-7.16-4-10.08-4.77-5.83,5.3-6.36,0,1.59-8,.53-10.61-1.86-5-2.92-6.1-2.92,2.38-4.78-1.6-.26-6.63-2.65-9-3.71-1.59-4-7.16-.8-16.18.27-19.9,3.18-15.38,3.18-15.38-1.33-6.64-2.65-9-6.11-4-6.64-8.23.53-13.26.53-13.26-3.18,1.06-4.77-3.19-.8-9.81-1.59-16.44S.27,153.86,0,151s8.22.26,9.81-1.86,4.78-6.9,10.61-13.8,8-8,12.74-12.73,18.3-18.84,21.22-21.22,9.82-2.92,12.2-6.37,5.58-5,8-6.9,6.1-2.39,8.76-3.45,6.63-2.92,9-5.3,7.43-4.25,11.14-4.25,9.29,3.45,14.33,2.12S129.73,73.22,132.92,76.93Z"/></g></g></svg>