<svg xmlns="http://www.w3.org/2000/svg" viewBox="0 0 223.26 554.44"><defs><style>.cls-1{fill-rule:evenodd;}</style></defs><g id="圖層_2" data-name="圖層 2"><g id="圖層_1-2" data-name="圖層 1"><path class="cls-1" d="M86.32,536.39c-1.56-1-2.19-.82-3.92-2.35l-5.1.39L76.12,534l-2,1.17L73,534.82l-2.35,2.36-1.18-.4-.78.79-4.32-.39-.79.78-.39-.39-2,1.18-.39-.4-2.75,2.75c-1.77.94-5.8,1.89-7.45,5.1l.39.39c-.61,1.32-1.7,1.91-1.57,3.14l.78.79-.39,1.17.79.79c.05.82-.52,1.07-1.18,2l-1.18-1.18c-2.14.56-3.63-.24-5.88,1.18-2.11-1.75-3.49-1.2-5.5-2.35-1.32.82-1.4.38-2.74,1.17a4.61,4.61,0,0,0-2.36-.78l-.39.39c-1.45-.31-2.87-1.37-4.32-2l-.39.39c-2.32-1.21-.35-2.81-2.35-3.92l-.4.39-.78-.78-1.18.39L20.8,546.2l-2,.39-1.17-1.17-1.18.39-1.18-1.18-.39.39c-4.25-2.16-4.75-7.17-5.49-9.41l-.79-.79.39-.39-4.7-5.49.39-.4-1.18-2,.39-2.74-.78-.79.39-2.75-.78-.78.39-1.18-.79-.78.4-1.18L1.57,515.2,2,514l-.78-.79.39-.39-1.18-2,.39-2.75L0,506.57l.78-.78-.39-1.18L2,502.26l-.39-.4,1.18-2-.4-.39,1.18-2-.39-1.18,1.18-2-.4-.39.79-1.57-.39-1.18.78-.79-.39-1.17.78-.79-.39-.39L6.28,487l-.39-.39,1.17-1.18L6.67,485l.79-.78-.4-.4,2-2.74-.39-.4.79-.78L9,479.5l1.57-2.36-.39-.39,1.18-1.18-.39-.39,7.45-8.24-.39-.39L22,461.84l-.39-.39,1.57-3.14-.78-.79.39-.39a14.69,14.69,0,0,1,.39-3.53l-.39-.39,1.57-1.57c1.89-.19.91-2.31,3.14-3.14l2.74.39,1.18-1.17.39.39c3.13-1.63,2.84-8.14,5.1-9.81l.4.39c1.42-.94,3.44-5.75,3.92-7.06l-.39-.39,1.57-1.57-.4-.4,1.18-1.17-.39-.4,1.57-1.57-.39-.39,3.13-3.14-.39-.39,1.57-3.14-.39-1.17.78-.79-.39-.39c1.28-2.87,6.63-5.36,7.06-6.28l-.39-1.18.79-.78-.4-.39,1.18-1.18-.39-.39.78-.79-.39-.39,1.18-1.18-.39-.39,1.17-1.18-.39-.39,1.57-1.57-.39-.39c1.33-2.43,3.16-1.47,4.71-3.14.06-.57-.7-.42,0-.79l1.17.4c1.29-.57.05-1.46,2-2l1.17.39.79-.79,2.74.4.79-.79,1.18.39.78-.78.39.39,10.6-5.89.78.79,5.89-5.1.39.39.78-.78.4.39,2.74-2,.4.39,3.92-3.92.39.39c2.22-1.24,5-4.69,5.89-5.89-.12-.77-.11,0,0-.78l-1.18-1.18.79-.78c-.54-1.82-.68-5.23.78-7.07.89,0,.16.16,1.18-.39l2.35,1.57a8.9,8.9,0,0,1,5.1-1.18l1.18.4.78-.79,1.18.39,2-1.17,1.18.39,3.53-4.32.39.39.79-.78.39.39.79-.78.39.39.78-.79,1.18.4,2.35-2.36.4.4c1.57-1,1.38-2.14,1.57-3.14l-.4-.4,1.18-1.17-.39-.4,2.35-2.35c.66-2.75,1.31-5.49,2-8.24L144,335.1l1.18.4,5.1-5.1,2,.39L153,330l.39.4c1.73-.59.33-1.16,2.35-.79l.39-.39,1.18,1.18,4.71,2.35.78-.78c-2.42-2.38-5-4.68-5.49-7.07q.39-2.75.79-5.49l-2.75-2.75.39-.39-1.18-2,.4-2-2.36-4.71.4-.39-.4-3.54,1.18-1.17-.39-.39,2.35-2.36-.39-2,3.92-6.28c.16-.42-.49-.52.4-2l-2.75-2c-.68-.4-.27.59-.79,0l.4-.4c-.92-1.17-1.83-2.35-2.75-3.53l.39-2-2.74-4.31a4.21,4.21,0,0,0,.39-2l2.74-2,.4.39a1.56,1.56,0,0,0,.78-1.57l2.36-1.56,4.7,2.35.4-.39c2.75,1.32,2.34,3.69,3.92,5.49l1.57-.78.39.39,2.75-2.75c-.11-.78-.11,0,0-.78l-2.35-2.36.39-1.17-2-2,.39-.39-1.57-2.35c-2.26,1-4.15,1.57-6.28,2.35-.66-.91-.39-1.18-.39-1.18l-3.53-3.53.39-.39c-.24-1.3,0-1.78-.79-3.14l-.78.79c-2.79-1.93-3.92-3.86-6.67-6.67a7.48,7.48,0,0,0,.39-2.75l2-1.18.4.39,2-2,.39.39c2.51-1.28,2-3.12,4.71-1.56,1.69.09,2.73,3.15,3.92,4.7,3-1.09,3.36-.24,6.67-3.53l-.78-1.57.39-1.17-1.18-2,.4-.39L164,239c-1.37.8-1,.77-2.35,0l-.39.4c-.81-.24-2.27-2.82-2.36-3.14l.39-1.18-2-2-2.75,2.74-2-.39-.39.39-.78-.78-.4.39c-2.36-1.11-3-4.78-3.92-6.28,1.55-2.21,3-3,5.49-5.49l2,.39.4-.39.78.79.39-.4c2.7,1.21,2.5,4.43,5.5,3.93.77.11,0,.1.78,0-2.41-2.47-3-5.42-1.57-7.85l-.78-.79a6.19,6.19,0,0,1-5.89-.39l.39-.39-1.17-1.18.39-.39a4.58,4.58,0,0,0-.78-2.35c-3.06,2.23-4.74,1.8-7.85-1.57.23-1.12.28-.78-.39-2l.78-.78c-2-3.31,1.48-4.9,4.32-7.46,2,.63,4.17,1,6.27,2.36l.79-1.57-4.32-4.32-2.35.79-.79-.79c-1.38-.35-3.33-.14-4.7-2.35l.39-.39-2-2L142,195c-1.17-.33-1.95-1.29-3.14-2.36.13-3.52-2.81-3.51,1.18-7.45l.39.39,1.18-1.18.39.4.39-.4c.7.22,1.26-.07,1.57,0l3.14,1.57c.11-.77.11,0,0-.78l.39-.39-2.35-3.14a5.41,5.41,0,0,1-5.89-1.18,8,8,0,0,0-.78-3.14l-.39.39c-2.14-.54-2.74.3-5.11-2l.4-.39-1.18-1.18.78-.78a4.62,4.62,0,0,1-.78-3.93L133,168l-1.17-1.17.39-.4-.79-.78.4-.39c-1-2-2.69-1.61-3.93-2.36L126,164c-1.91-1.56-2.91-1.43-5.1-3.53.73-3.19-1.57-2.34,2-5.89.9,0,.16.16,1.18-.39l2,1.18a34.61,34.61,0,0,1,3.93-.79L128.31,153c-2,.62-3.37.55-5.5-1.57a25.18,25.18,0,0,1-3.92,2.36c-2.42-.71-2.46-.13-5.1-2.75.62-2.39,0-3.67,2.35-6.28a6.63,6.63,0,0,1,2.36.79l.39-.39,1.57,1.57a4,4,0,0,0,1.18-2l-.4-.39,2.36-2.35-.39-.4.39-.39-1.18-1.17c-.71.34-.07-.33-.78,0l-2,2-.39-.4c-1.21.1-3.17-.72-4.31-1.17l-1.18-1.18-1.57.79-1.18-.4-.78.79c-2.59.38-4-1.74-5.5-3.93.86-1.4.27-1.64.4-2l2.35-2.35-.39-.39.39-.4.39.4.79-.79c.27-.07,2.92.62,3.14,0l-.4-.39.4-.39-.79-.79.39-.39-.78-.79.39-.39-.39-.39-1.18.39-.78-.78a4.51,4.51,0,0,1-3.14.78c-1.52,2.25-1.16,3.41-3.53,5.89-1.7-.45-2,.11-3.93-1.57.15-1.49-.88-4.12,0-5.5.2-.3,3.66-1.84,3.93-2.35l-.4-1.18.79-1.57-.39-.39-1.18,1.18-2.35-1.57-.4.39a5.89,5.89,0,0,1-2.35-3.14l-.39.39-.4-.39c-1.46.24-.35,1.18-2.35.79-1.52.06-.21-.17-1.57-.79-2-.9-1.66-1.23-2.35-3.14L91,111.84l.39.4L93,110.67l-.78-.79c-1.45,1-2,1.26-3.53.39a5.64,5.64,0,0,1-3.93-2.35l.39-.39-1.56-.79c-2.74,2-4.27,2.18-7.07-.78,0-.9.16-.16-.39-1.18.46-1.7-.26-1.67,1.18-3.53a4.67,4.67,0,0,0-3.14-1.57l-.39.39L72.59,98.9c.24-2.12-.55-4.15-2.36-6.28-1.32.11-1.12-.46-2.35-.79l-.39.4-.79-.79-1.57.79c-2.34.52-2.73.39-5.1-2,.29-4.65-6.7-3.12-6.67-5.1L53,84l1.18-1.18-.39-.39c.63-1.59,1.27-1.08,1.17-2.75l-.39.39a.79.79,0,0,1-.39-1.18l-2.36-1.56a4.64,4.64,0,0,1-1.57,0l-1.57,2.35-.39-.39c-1.6.31-1.85.36-3.53-1.18l.79-1.57-.4-.39,2-2c.9,0,.16.15,1.18-.4l.79.79,1.57-2.36-.4-.39-.39.39L48.65,71h-.78l.78-.79c-.42-.66-2,.1-2.35,0l-3.92-3.14-.4.4c-2.27-.78-2.43-.16-4.7-2.36a7.63,7.63,0,0,0-.4-2.74l.4-.4-.4-.39-.39.39-2-2-1.18.39-.78-.78-.4.39c-.28-.24-.38-1.14-1.17-2l.78-.79a3.78,3.78,0,0,1,0-2.35c-.64-.25-5.51-2.71-5.88-4.32l.78-1.57-2.75-2.74.4-.39-.4-.4-1.17.4-2-2-.4.4-1.17-1.18-.4.39-3.14-4.71.79-1.57c-1.74-1-2.07-.16-3.92-1.57.29-.81,1-3.24.78-3.92L11,29.45l.39-.4L9.81,27.48l.39-1.17L7.85,21.6l.39-.39-2.75-2,.4-.39c-.16-2.23,1.78-1.44-.4-4.31l.79-.79a6.08,6.08,0,0,1,0-1.57L5.1,11l.39-.39c-.27-2.48,1-2-1.57-4.71A4.65,4.65,0,0,0,5.1,3.16l-.39-.4C5.32,1.2,8.31,0,9,0c1.48-.14,1.21.55,2.36.78l.39-.39C13.12.59,13.44.66,14.91,2c-1.06,4.08,1,2.14,2,5.1l-.39,3.53,1.57,1.57-.39,1.18,1.17,1.18-.39.39,1.18,1.18-.39.39,1.57,2.35-.4.39c1.05.77,4.09,0,5.1,2.75l-.39,2,1.18,1.18-.39.39.78,1.57.39-.39.4,1.18,1.17-.4.4.4-.4.39,1.57.78-.39.4.39.39.4-.39,3.92,3.92-.39.39,1.57,1.57.39-.39,4.31,4.32.4-.4L42,40l.4-.39c1,1.31,2.09,2.61,3.14,3.92l.39-.39,2.35,2.35.39-.39,5.11,5.1c.15.09.62-.41,1.17.39.41.6,1.34,3.34,2.36,3.93l.39-.39,1.18,1.17.39-.39L62,57.7l.4-.4,3.14,2.36.39-.39c.89,0,.16.15,1.18-.4l2,2,.39-.4L71,62.8c-.53.58,0-.13-.79,0-1.06.17.6,1.33.79,1.57l.39-.4,4.71,3.14.39-.39,2,2,.4-.39,1.57,1.57.39-.39L82,70.65l.39-.4,3.14,2.36.39-.4.78.79.4-.39,2.74,2,.4-.39,2.35,2.35,6.67-.39,3.53,3.53c-.13,1.68.8,2.15,1.57,3.92L104,84l1.18,1.17-.4.4,2.75,2.74.39-.39,2.75,2.75.39-.4,2.36,2.36.39-.39,2,2,.39-.39,1.57,1.56.39-.39,2,2.75-.79.78,8.63,7.07.4-.4,6.67,6.67.39-.39c1.08.55,1.48,1.19,2.35,1.57l1.18-1.18,3.14,3.93-.39,1.18,1.17,1.17-.39.39.79.79-.4.39,4.71,4.71.39-.39,3.54,4.31c-1,1.68-.48,1.94,1.17,3.54l.4-.4,3.13,2.36-.39.39.79.78-.4.4,1.18,1.17-.39.4,2,2-.39.39,4.31,3.53a6.64,6.64,0,0,1,3.54-1.18l1.17.4c.16-.05,1.66-1.06,2-1.18l4.31,2.75c-1.9,2.38-.69,3.62-2,5.88l.78.79c-1,1.45-1.26,2-.39,3.53.26,2.33,5.09,5.58,6.28,8.63l-.39.39,1.17,2-.39.4,1.57,1.57-.39.39,1.57,1.57-.39.39,4.7,5.49-.39.4.79.78-.4.39,1.18,1.18-.39.39,1.18,2-.4.4,1.18,1.17-.39.4,2,2-.39.39,1.18,1.18-.4.39,1.18,1.18-.39.39,1.18,1.18-.4.39.79.78-.39,1.18,1.17,1.18-.39.39L197,196.6l-.39.39,1.18,1.18-.4.39,1.18,1.18-.39.39,1.18,1.18-.4.39,1.18,1.17-.39.4.78.78-.39.39,2,2.75-.39.39.78.79-.39.39,1.18,1.18-.39.39,1.17,1.18-.39.39,1.57,3.14-.39.39.78.79-.39.39.79.78-.4,1.18.79.78-.39,1.18.78.79v1.57l.79.78-.4.39.79.79-.39.39.78.78-.39.4,3.92,4.71-.78,2.35,2,2c-.39,1.7-.79,3.4-1.18,5.1l.79.79-.4.39.79.78-.39,1.18.78.79-.39.39.78.78v1.57l.79.79-.79,3.14.79.78-.39.39.78.79-.39.39,1.18,1.18c.52,1.38.26,2.75,1.17,4.31l-.78.79c1.79,2.63,1.88,4.86,2,7.45l-.39,1.18.78.79-.39,1.17,1.57,3.14-.39,2,.78.79-.39.39.78,1.57-.39,1.18.79.78-.4,4.32c.13,2.74.27,5.49.4,8.24l-.79.78.39,2.75-.39.39.79.79-.4,2,.79.78-.39,2,.78.78-.39.39c.16,1.85-.24,3.68.78,5.5l-.78.78c.34,1.62-.52,2.3-.79,3.92l.4,2.75-.4.39,1.57,2.36-.39,1.17,1.18,2-.39,2,.78.78-.39,2.75.39.39-.78.79.39,1.17-.79.79.4,1.18-.79.78.39,2-.78.79.39,5.1-1.18.39c-.14,1.46,1.34.51,1.18,2l-.78.79.39,1.17-1.57,3.14.39.4-.78,1.56.39,1.18-.79.79.4,1.17-.79.79.39,2-.78.78.39,1.18-.78,1.57.39.39a4.37,4.37,0,0,1-.79,2.36,3,3,0,0,0-1.56,0l.39.39c-.22.72.07,1.22,0,1.57l-.79.78.4.4-.79.78.39.39a6.19,6.19,0,0,1-.78,3.14l.78.79-.78,1.57.39.39-.78.78.39.4-.79.78.4.39a4.6,4.6,0,0,1-.79,2.36c1.11,2.08.28.69,0,2.35l.39,1.18-.78.78.39.4-.78.78.39,2-.79.79.4,1.18-.79.78.39,2.75-.39,1.17.79.79-.4,1.18.4.39q-1.38,1.76-2.75,3.53l.39.39-.78.79.39,2c-.92,1.44-1.83,2.88-2.75,4.31l.79.79a4,4,0,0,0-2.36,2.35l.4.4-1.18,1.17.39.4-.78.78.39.39-.79.79.4.39-.79.78.39.4-1.57,1.57.4.39-1.18,2,.39.39-3.14,4.71.4.39-.79.79.39.39-2.74,3.53.39.39L195,429.27l.39.4-2,2,.39.39-1.57,1.57.4.39-1.57,1.57.39.39-3.14,3.14.39,1.18L173,463l-3.14,3.14.39.39c-1.44,2.67-4,4-6.67,6.67-2.07,2.07-5,4.64-5.1,6.67,1-.56.29-.39,1.18-.39L153.42,485l-.39-.39-5.89,5.88-.39-.39-2,2-.4-.39-4.71,4.71-.39-.39-2.35,2.35-.39-.39-3.14,3.14-.4-.39-5.49,5.49c-1,.52-3.38,1.66-4.31,2.75l.39.39-.39.39-.4-.39-3.92,3.92.39.39-6.67,5.89-11,5.49L95,530.9A41.73,41.73,0,0,0,86.32,536.39ZM157,481.46l-.39-.39c.35-1,1.21-.76,1.57-.79Zm13-333.13-.79-.78.79-.78.78.78Z"/></g></g></svg>