<svg xmlns="http://www.w3.org/2000/svg" viewBox="0 0 151.69 480.76"><g id="圖層_2" data-name="圖層 2"><g id="圖層_1-2" data-name="圖層 1"><path d="M4.87,456.33S.73,454.81.15,452.27a4.58,4.58,0,0,1,.67-3.95S.38,444.4,2,445.81s4.88,3.8,4.88,3.8S4.55,447,8.79,439.14,19.42,424,34.06,421.58s53-3.75,61.39-5,22.4.28,28.72,3.54,12.56,10.1,12.56,10.1-.58-2.55,1.38-2.77,2.14-3.38,2.14-3.38a23.15,23.15,0,0,0,3.41,3.24c1.3.82,2.77,1.38,2,2.68a25.64,25.64,0,0,0-1.55,3,13,13,0,0,1-.38,5.23,9.36,9.36,0,0,1-4.29,5.66,32.77,32.77,0,0,1-2.26,8.77c-1.78,4-.95,9.6-12.66,16.05s-28.23,5.51-42.08,8.42-31.85,4.32-45.72,3.22-15.07-1.49-21.88-6.87-8.74-11-8.26-15.77Z"/><path d="M14.25,389.18c-.23-.89-2-.89-3.41-3.24s-3-4.46-1-5.36a18.8,18.8,0,0,1,5.09-1.16s-.54-4.34,2.36-11.25,13.24-13.5,23.44-15.81,41.74-5,51.3-5.16,24.88.39,33.45,4.7,11.2,16.89,12.43,18.4,6.23,2.83,9.13,2.84,4.83,1.58,4.62,3.64-.14,4.28-2.4,6.13-3.18,2.73-4.74,1.74.92-3.78.92-3.78-2.22.06-3.59-.08,1.53,2.78-2.1,4.5-.66,1-.66,1,0,4.7-3.92,10.27-7.62,9.76-24.18,13.52S46.24,417,38.74,414.44,19.37,408.79,14.25,389.18Z"/><path d="M3.36,307.15c-.8-1.78,4.56-3.87,4.21-4.93s-1.35-3.78-1.09-5.13S9,292.82,9,292.82s-1-4.7,3.57-11.65,8.52-12.49,30-14.54,55.56-6.8,65.88-5,20.33,11.47,21.71,17.23,1.66,7.91,1.66,7.91,2.1-4.22,3-2.36.28,5.68.28,5.68,4.4-1.66,3,4.66-4.88,11.82-7.28,11.9-6.24-2.5-6.24-2.5,1.28,11.91-12.54,17.17-45.46,3.33-67.33,3.9-29-2.26-32.64-8.17c0,0,.24.19-.49,3.13S8,322.81,6.71,321.43A27.16,27.16,0,0,1,3,316.19a4.23,4.23,0,0,1-.06-3.94S5.8,312.54,3.36,307.15Z"/><path d="M13.38,235.43c-3.93-3.12-3.35-5.26-3.35-5.26s3.42,1.11,3.54-.62,1-2.12,1-2.12l3,.65a18.77,18.77,0,0,0-2.13-3.86c-1-1.16-.45-2.87.74-4.31S18.48,218.76,20,213s2.32-17.52,33.52-23.41,49.36-6.58,58.78-7,17.69,3,22.37,7.9,7.56,7.3,9.38,9.39.63,3.54.63,3.54l2.69-1.12s3.53,2.65,3.38,4.82-1.84,4.45-3.91,5.84-3.48,9.14-13.47,17.83-19.32,13.92-46,18.38A150.32,150.32,0,0,1,30.83,248C22.23,246.09,13.38,235.43,13.38,235.43Z"/><path d="M10,118.19,8.83,114.4s1.38-7.6,1.54-9.13a33.46,33.46,0,0,0-.78-6,3.17,3.17,0,0,1,.3-2.46c.73-.92,6.55-3.35,9.17-4.57s12.41-7,14.91-8.42a37.85,37.85,0,0,0,7.7-6.49c1.7-1.95,3.61-7.78,3.53-9.19s-2.52-19.69-.69-26.93,4.33-12.46,7.25-16.14l2.92-3.68s4.81-4,6.66-7.46,3.3-4.73,3.49-7.43A10.6,10.6,0,0,1,66.61,1.6l1.92,2.87s-.16-2.82.44-3.39S70.45,3,71.88,2.33,74,1.92,73.34.49,75.91,1,75.62,2.9a44.1,44.1,0,0,1-1.06,4.56s2-.66,4.86-1.4,6.07,1.22,5.69,2.27,1.21,3.2,1.21,3.2,7.71,6,8.57,9S99.5,32.92,100,35.28s2.69,13.82,3,19.47,4.64,19.87,5.49,23,10.26,25.07,10.26,25.07,2.81.43,2.62,3.12a6.3,6.3,0,0,1-1.16,3.73s4.23,4.7,5.12,6.6,8.47,8.22,9.23,10.47,2.61,8.06.4,11.41-8.59,9.53-9.66,9.73-2.87-2.42-2.87-2.42l-2.82,4.5a17.73,17.73,0,0,1-6.1,3.72,13.54,13.54,0,0,1-6,.19s-.7-4.6-2.75-7.12-5.72-6-6.49-7.7a48.25,48.25,0,0,1-1.83-6.39s-1.7,1.95-6.2,3.47-7.54.63-9-.12-1.78-3.81-1.78-3.81l-2.16,1.59a12.58,12.58,0,0,1-2.07,7.35,78.05,78.05,0,0,1-6.49,9.7c-2.92,3.68-5.35,6.55-5.35,6.55s-5.66.91-8,2L53,160.47s-2.06-1.94-3.56-3.27a40.47,40.47,0,0,1-3.76-4.33,41.88,41.88,0,0,1-4.74,1.64c-.59,0-1.27-.86-1-2.15s-2.4-2.64-1.21-3.2,3.46-1.91,3-2.86.08-2.93.13-4.69-1.57-2.75-.37-3.89,3.64-4,3.64-4a3.58,3.58,0,0,1,1-3.38l3.14-3.21a5.25,5.25,0,0,1,0-3.76,18,18,0,0,0,.51-5.74A26.42,26.42,0,0,1,51,113.53c.49-.81-1.48-1.92-1.48-1.92s-3.45,1.91-5.45,2-6.84.87-6.84.87A10.44,10.44,0,0,1,33,117c-2.13.42-3-.31-3-.31s-1,1.62-3.55,1.08l-2.57-.54s-1.13,2.55-3.1,1.44-1.28-.27-1.28-.27a2.94,2.94,0,0,1-2.58-.54c-1-1-2,.66-3.3.39A16.42,16.42,0,0,0,10,118.19Z"/></g></g></svg>