<svg xmlns="http://www.w3.org/2000/svg" viewBox="0 0 165.3 699.56"><g id="圖層_2" data-name="圖層 2"><g id="圖層_1-2" data-name="圖層 1"><path d="M.19,153.49c.21-9.64-.34-15.3-.15-19.67s6.63-18,6.63-18-5-3.43-5-11.69S7.31,87.22,7.47,86.32s-1-11,.09-16.23.31-8.31,2.78-12a40.05,40.05,0,0,0,4.06-9.32s-1-11.73,4-18.42,6.29-6.19,6.29-6.19S24,14.11,31,9.25,46,1.87,49.44,1.91s-.2-3.16,6-1.36A64.07,64.07,0,0,0,67.67,2.71l23.67,6S95.85-.49,105,6.49s12.07,10.59,12.07,10.59-1.65-6,6.07-.07,7.87,5,12.14,6.37,6.12,1.23,5.94,6.61-7.83,12.08-7.83,12.08a26.51,26.51,0,0,1,3.25,11.66c.11,6.36.72,16.83-.93,21.15A31.51,31.51,0,0,0,134,84.13s5,3.14,2.89,8.38-4,12.36-3.9,13.21,1.94,6.94.77,10.59-2.15,6.71-2.13,7.72,2.78-.72,4.49,14.08,5.75,45.6,7.75,53.84,3.4,27.57,3.82,39.67-3.57,23.72-1,31.87,6.63,19.4,6.82,32.84.13,21.41.22,29.51-1.79,40.83-.56,52.51,1.15,40.23,3.18,58,6.22,29.89,7.17,38.86,2.83,37.95,1.06,48.94-4.13,14.54-4.13,14.54A124.41,124.41,0,0,1,164,555.83c1,8.53-2.55,3.15-4,23.65s-5.07,29.9-3.4,37.9,6.57,21.86.64,31.32-4.9,17-11.66,27.59-19.14,14.84-23.93,13.84-15.46.22-16.67.84-10.16,10.12-20.43,8.37-11.38-8.08-17.4-10.48-7.05,6.88-14.23-1.13-8.48-15.49-11.62-18S27,665.52,25.31,657.52s.2-17.41.2-17.41S24,632,21.87,629.67s-3.16-3.57-2.81-7.82,1-13.05,1.6-15.89-4.45-3.51-1.7-10,4.1-10.05,4.1-10.05-3.12-7-1.11-11.85-1-15.78,2-19.58-.93-7,2.86-15.21a98.33,98.33,0,0,0,5.64-15.94s-1.51-11.64,2-17.84a101.62,101.62,0,0,1,5.45-8.8,149.56,149.56,0,0,1-.64-16.27c.29-6.56.08-18.26.08-18.26a9.38,9.38,0,0,1-6.78-8.22c-.77-6.83-1.47-15.13-1.47-15.13s-2.51,4.42-5.48-8.27a67.77,67.77,0,0,1-1.09-9.83,81.72,81.72,0,0,1-5.64-12.16c-2.31-6.45-4.87-14.6-5.74-20.26s-3.83-8.82-4.7-10.71S9,373.14,10.81,371s.07-8-.81-13.64S3.8,346.28,5.45,342a63.07,63.07,0,0,1,3.12-7s-3.69-.44-3.16-3.57,4.89-60.13,1.75-69.21-4.1-32.09-5.54-41.43S-.11,166.57.19,153.49Z"/></g></g></svg>