<svg xmlns="http://www.w3.org/2000/svg" viewBox="0 0 194.55 495.82"><g id="圖層_2" data-name="圖層 2"><g id="圖層_1-2" data-name="圖層 1"><path d="M155.38,37.24c-4.06,1.85-8.18,7.51-8.18,7.51s-1.17-6-3.54-8.2-8.11-3-13.81,2.27a10.72,10.72,0,0,0-3.29,11.42c-3.32,2.77-3.83,4.61-3.83,4.61C118.43,52,116,53.56,116,53.56c-3.46-4.93-6.24-5.13-6.28-6a45.76,45.76,0,0,0-2.53-8.78c-1.29-3-5.76-5.84-5.76-5.84a26.76,26.76,0,0,0-1-6.09c-.8-2.21-5.43-8-5.43-8a22,22,0,0,0,3.13-4.66c.85-2-.05-4.41-2.58-9.64S89-.84,84.82,1.28s-5.49,7.55-5.57,10.93S82.47,21,82.47,21c-6.1,4.13-6.23,8.2-6.19,10.62s2.06,7.94,6.81,11.24a10.16,10.16,0,0,0,9.65,1c2.32,14.67.2,20.32.2,20.32-1.37-1.23-5.06.86-6.54,4.14s-3.55,8.23-4,12.93,1.8,6.3,3.19,6.4,2.27-3,3.41-2.59,1.31,1.92,2,5.08,1.22,6.86,2.17,10.1a18.78,18.78,0,0,1,.28,7.16,10.76,10.76,0,0,0-7.1-3.52,9.89,9.89,0,0,0-7.13,2.71C76.82,100.4,76,92,74.74,86.93A41.55,41.55,0,0,1,74,75.38a23,23,0,0,0,3.18-.25c1.2-.24,1.47-1.72,1.91-4.86s-1.7-4.58-3.52-6.22-3.88-1.35-6.78-.6-4.51,3-4.65,7.08,4.1,7.23,4.1,7.23l.42,3.09c.42,3.09.62,13.63,2.35,20.21a74.41,74.41,0,0,0,3.2,10,21.37,21.37,0,0,0-.85,2c-1.64,4.35,1,8.78,3.84,10.7s7.68-2.12,7.68-2.12l2.64,5.83a14,14,0,0,0-3.8,3.48c-1.78,2.34-6.81,13.85-6.81,13.85s-5.54,8.25-7.16,12.05-2.1,11.18-2.47,14.06-3.14,22.65-4.06,25,.51,4.82.93,6.35-1.86,4.17-2.78,6.46-2.9,15.64-4.1,21a41.12,41.12,0,0,0-.71,11.28c0,2,.35,4.92.35,4.92s-2.28,6.17-3.47,9.95a106,106,0,0,0-2.07,11c-7.62,4.66-13.23,8.21-15.28,9.73-10,7.44-21.58,17.56-21.58,17.56s7.58-2.9,35.58-18.63c-.2,1.43-.36,2.62-.47,3.4-.56,4.09,1.12,3.14,1.9,4.92a8.84,8.84,0,0,1,.29,5.61c-.41,2,1.84,3.62,1.84,3.62l-.37,1.32c-5,.6-8.81,5.21-9.85,8.47s-.33,5.29-.17,6.75-1.06,2.83-.93,5.42,4.36,5.74,4.36,5.74-.53,1.41-1.18,3.78a149.17,149.17,0,0,1-5.93,15.79,40.88,40.88,0,0,0-3,12.36l-10.33,7.63a18.74,18.74,0,0,0-4.42,3.17,14.31,14.31,0,0,0-4.43,6.28c-.44,1.58,2.53,2.12,2.53,2.12s-8.3,15.14-10.32,19.4S1.15,405.3.16,407.86s2.93,4.78,5.3,5.44,4.75,3.3,7.15,2.83,7.92,2.61,7.92,2.61,4.4,4.62,5.55,3.52,4.29-7.32,4.29-7.32c-.15,2.09,2.75,2.89,4.16,3.42s4.65-.41,6.23,0,3.14.45,4.37-2.47,5.15-14,6-15.2,7.57.82,7.57.82-5.16,15.58-4.32,16.66,5.75-.81,6.35-.93,1.81,1.63,2,3.53,2,2.66,4,2.81A14,14,0,0,1,71,424.77l1.71-2.08c1.71-2.08,1-7.23,1-7.23A75.85,75.85,0,0,1,78,425c1,3.41-.55,6.08-1,9.22s-1.42,7.69-1.76,9.44,3,2.09,5.77,1.17,9.55,3.91,9.55,3.91a3.52,3.52,0,0,0,.28,2.06c.5,1.28,2.27.49,3.88-.2s3.42.95,3.42.95.33,9.58.37,12-3.49,9.53-3.9,11.54a21.77,21.77,0,0,0-.38,6c.21.77-.4,4-1.08,5.94s-2.21,2.36-2,3.56,4.66,3.13,4.66,3.13,2.14-2.1,2.37-.9,1,2.11,1.39.1,2.28-14.39,2.28-14.39,1.88-3.73,3-6.13,2-8.66,1.84-11.25-.71-8.7-.29-12.27.94-10.08.94-10.08l2.34,1.78a36.64,36.64,0,0,0-.17,8.31c.52,3.26,1.18,6,1.29,8.15s.15,11.24,0,13.33.23,9.41.2,12.1-.69,10.15-.69,10.15l.19,1.9c.18,1.89,2.65,1.16,2.65,1.16l2-2s2.2.75,3.28-.08a20.52,20.52,0,0,1,2.26-1.5s.37,2.23.59,3,1.39.1,2-.71,2.52-14.75,2.55-17.43a91.58,91.58,0,0,0-1.21-10l2.94-5c2.94-5,1.27-7.16.76-10.42s-2.9-9-3-11.87-2.32-13.12-2.54-13.89,0-7.78,0-7.78a26.49,26.49,0,0,0,3.22-1.38c1.17-.67,5.22.59,5.22.59l1.43,2.52c.85,1.51,1.63-1.81,1.63-1.81s5.34,1.19,6.16.28-2.64-17.59-4.82-26.13-5.61-24.8-6.35-33.93-2-22.82-2-22.82a54.38,54.38,0,0,0,4.88-4.32c1.8-1.91,3-8.37,3.45-11.94s3.4-14.37,3.22-16.26-.88-8.61-.88-8.61,3.19-1.81,4.29-2.21,3.6-.7,5.14-1.13,2.59-3.25,3-5.69-2.57-6.1-2.57-6.1a14.86,14.86,0,0,0,3.29-1.64c1.25-.93-.59-3,1.28-3.61s-.23-1.2.44-3.14.6-5.22-.77-4.89a22.58,22.58,0,0,1-4.05.3,57.38,57.38,0,0,0,1.22-6.47c.15-2.08.55-6.08.46-7.81s1.07-2.82,1.26-4-2.14-4.56-2.35-5.33,1.06-2.83,1.31-4.74-2.29-2.48-1.95-4.23-.23-4.31-.27-5.17,1.31-3.18.4-4a31.11,31.11,0,0,1-2.89-3.92s19.64-11.57,21.73-13,27.55-19.17,27.55-19.17.08-1.82-1-1.41-23.35,10.12-27,12-21.89,13.08-21.89,13.08a26.37,26.37,0,0,1,1.31-4.74c.77-1.77-.45-3.52.06-5.37s1.9-1.74,4.06-3.41,2-4,3.17-7.34,3.57-7.8,3.92-9.55-1-3,.42-3.57,4.71-5.78,6.52-7.69,2.75-5.33,4.48-8.54-2.64-4.27-4.86-7-11.12-12.57-11.12-12.57c-.11-2.16,3.06-12.62,3.06-12.62a8.54,8.54,0,0,0,4.05-.3c2-.71,3.49-4.42,5.87-6.88A15.39,15.39,0,0,0,169.42,111c-.46-4-5.22-2.15-5.22-2.15l3.72-6.77a17.32,17.32,0,0,0,4.29-.65c1.87-.62,3.24-2.51,3.59-5.81s-1.89-6.48-7.11-8.63-10,2.77-10,2.77L160,86.56c7.76-5.5,2.6-11.46,2.6-11.46,1.14-1.53,1.91-4.86,3-9.94s-1.93-2.23-1.93-2.23a20.17,20.17,0,0,1,.35-3.31,6.51,6.51,0,0,0-.8-3.76c7.3-5.92,8.77-7.64,5.7-13.45A10.72,10.72,0,0,0,155.38,37.24Zm-46,381.12c-.61,3.24.49,17.71.49,17.71s-2.8-2.19-3.25-2.6c0,0,1.08-.83.76-5.31s1.57-16.43,1.57-16.43l1.64,1.73A35.59,35.59,0,0,0,109.36,418.36Zm47.35-356c-.33,1.18-2.45,6.55-2.45,6.55a6.05,6.05,0,0,0-7.39.19,15.45,15.45,0,0,1,.32-2.68c.31-1.51,2-3.16,1.94-6.27,0,0,2,4.38,6.76.17A2.08,2.08,0,0,1,156.71,62.41Z"/></g></g></svg>