<svg xmlns="http://www.w3.org/2000/svg" viewBox="0 0 182.26 165.36"><g id="圖層_2" data-name="圖層 2"><g id="圖層_1-2" data-name="圖層 1"><path d="M180.76,89.78a4.31,4.31,0,0,1-2,.3,48.57,48.57,0,0,0,.81-9.09c.2-3,1-6.79.2-7.59a14.8,14.8,0,0,1-3.4-5.39c-.6-2.2-1.79-5.4-1.79-5.4a2.29,2.29,0,0,0,2.19-1.8c.4-1.79-2.39-1.39-2.39-1.39,0-1.6-1-7.19-1-7.19a2.13,2.13,0,0,0,1.59-.8c.6-.8-2.19-1.6-3.19-3.6s-3.8-8-6-12.38-8.59-8.79-8.59-8.79a8.49,8.49,0,0,1-1.4-2.8c-.8-2.2-3.8-3.19-3.8-3.19a29.86,29.86,0,0,0-1.59-3.6c-.8-1.4-1.4,1.4-1.4,1.4s-3.6-1.2-5.2-1.8-6.39-4.59-8.19-5.39a29.24,29.24,0,0,0-6.79-1.4c-1.6-.2-4-4-5.79-5s-5.19,0-8.39,0-13.38-2.79-13.38-2.79S91.07.49,89.07.09s-1.79.6-3.19,1.4a26,26,0,0,1-8.19,1.8c-2,0-8.59,1.79-9.79,3s-5.59,2.4-6,1.6-2,0-2,0a3.49,3.49,0,0,1-.4,2.2,34.12,34.12,0,0,1-4,3.19s-.2-1.19-.4-2.19-1.4-.6-1.4-.6l-1,4.79a8.35,8.35,0,0,0-5.19,2.4c-2.6,2.4-12.79,6.79-14.79,9a73.6,73.6,0,0,0-5,6.39c-1,1.4-4.77,3.41-6.19,5.19-1.6,2-.4,3-1.6,4.8s-1.6-2.4-2.4-3.4-3-3-4.19-2.2S11.77,43.64,12,47s-1.4,7.79-1.6,11S6,63.41,4.58,64.61s-.8,4.79-1.8,7.19S1.18,76.39.39,82.39s-.2,8.79.39,10.18,2.4,1.8,2.8,3.8-.4,4,0,7.19,3.6,11.59,3.6,11.59a13.94,13.94,0,0,1,1.19,4c.6,3,5.8,10.59,5.8,10.59L18,134.52c3.8,4.8,8,10.39,10.59,11.59s2.8,5.39,4.39,7.39a5.48,5.48,0,0,0,3.2,2.19,4.51,4.51,0,0,1,2.8,1.6c1.59,1.6,3,2.6,5,2.8s8,4,10,5,2.39-1,4-1.6,7,.8,9.59.8,10.19-3.79,10.19-3.79l2.59.4,2.2.2c2.2.2,10.79-1.2,13.58-.4s8.39.6,12-.4,2.8-2.2,2.8-2.2a8.88,8.88,0,0,1,3.19-.6c1.8,0,9.19-2.2,11.79-2.79a23.74,23.74,0,0,0,5.39-2.2s2.8,0,3,.8,2.79,1.2,5.19.6,3-3,1.2-3.2a3.53,3.53,0,0,1-2.6-1.8c3.6-1.2,8.59-7.19,11.79-9s7.39-6.59,9.58-9.18,5.4-7.39,6-7.79,2.19-.2,2.39-1.8,1-3.2,3.4-6.79,5.79-16,7.19-22.38C184,90,182.36,89,180.76,89.78Z"/></g></g></svg>