<svg xmlns="http://www.w3.org/2000/svg" viewBox="0 0 370.42 777.83"><g id="圖層_2" data-name="圖層 2"><g id="圖層_1-2" data-name="圖層 1"><path d="M332.18,662.35s11.46,3.49,11.46.5S369,204,370,155.69s-.25-86.44-.75-93.91-1-9-1-9-1.37-.64-2.5,8.47c-2,16.19-4.48,31.64-5,44.59s-29.14,546-29.14,550A36.29,36.29,0,0,0,332.18,662.35Z"/><path d="M18.82,748.22s10.58,5.6,11.15,2.66,153.77-637.2,163-684.65c5.12-26.41,5.78-37.7,6.71-45.13s.73-9,.73-9-1.22-.89-4.06,7.84c-5,15.52-10.41,30.21-13.37,42.83S20.32,737.85,19.56,741.76A36,36,0,0,0,18.82,748.22Z"/><path d="M0,774.59s11.16,5.35,11.63,2.3S144.51,112.7,152.07,63.33c4.21-27.48,4.44-39.16,5.1-46.88s.39-9.31.39-9.31-1.3-.88-3.87,8.26c-4.57,16.23-9.53,31.61-12.07,44.76S1.14,763.82.51,767.89A37.78,37.78,0,0,0,0,774.59Z"/><path d="M176.74,678.29c0,2.49-2.49,4.49.5,5.48s6.48,2.49,8.47,2.49,3.49,5,5-12.45,93.66-562,99.14-591.85,9-77.22,8.47-81.21-4.48,8.47-8,22.42-4,14.45-13.95,70.75S176.74,678.29,176.74,678.29Z"/><path d="M108,676.7c-.23,2.53-2.9,4.32,0,5.6s6.21,3.11,8.2,3.29,3,5.36,6.11-12.15S267.68,113,275.91,83.28,292,5.92,291.88,1.84s-5.25,8.16-10,22-5.31,14.26-20.45,70.35S108,676.7,108,676.7Z"/><path d="M92.05,685.76s6,3.49,9,3.49a8.94,8.94,0,0,0,5-1.49S277.87,51.07,279.37,42.1s4.48-39.85,4.48-39.85-1-4-3.48,3-13.95,29.89-21.43,63.27S92.55,679.29,92.55,680.78,92.05,685.76,92.05,685.76Z"/><path d="M63.65,717.65s6,3,8.47,3c0,0,1.5.5,4.49-8S260.94,64,262.93,57.55s2.49-30.89,3-31.89-2.49,1-2.49,1S255.46,45.09,251,61,64.15,709.68,63.65,712.67A13.32,13.32,0,0,0,63.65,717.65Z"/><path d="M52.69,714.16s4.49,3,6.48,2,2,1,5.48-11S244,73,249,58.54s10-49.32,10-49.32-2.49-4.48-3-2,.5,2-1.49,7.47S236.52,48.58,230.55,72,65.15,655.37,61.66,665.84s-16.44,42.84-16.44,42.84l3-.5s11.46-28.39,14.45-37.36c0,0-9.47,33.88-10.47,36.86S52.69,714.16,52.69,714.16Z"/></g></g></svg>