<svg xmlns="http://www.w3.org/2000/svg" viewBox="0 0 91.71 615.39"><g id="圖層_2" data-name="圖層 2"><g id="圖層_1-2" data-name="圖層 1"><path d="M89.33,4.07s1.11-1.93,1.94-1.38.28,2.22,0,3.88S89.05,21,87.94,22.09a29.53,29.53,0,0,0-3.32,5.54c-.56,1.11-1.94,11.08-2.77,13s-7.21,19.4-6.65,20.51,0,8.31-.83,10l-.84,1.66s-2.21,5.54-3.32,6.37a27.8,27.8,0,0,0-3.33,3.88s1.39,2.77,0,4.71A5.14,5.14,0,0,1,64.11,90l-2.77,5.54S59.12,137.09,59.12,139s-.27,10.53.56,10.81,2.22-1.11,2.77.55-1.39,3.88-1.39,3.88a3.91,3.91,0,0,0-2.77,1.11,33.65,33.65,0,0,0-3.6,9.42c-.28,2.5-3,14.69-3.33,17.74a24,24,0,0,1-.83,5c-.27,1.1-7.76,14.13-7.76,15.51s-2.21,20-2.21,21.9v1.94s-.28,9.42-.83,13.57-3,35.48-3.33,38.52-1.11,30.76-1.94,32.43-2.77,11.91-3.05,13.85c0,0-4.43,12.2-5,15.8s-6.09,10.81-6.37,12.74-1.94,3.88-1.94,5.82v4.16l3.33-.28s-.56-3,.55-3,1.11,2.21.83,4.71l-.28,2.49s-1.38,1.66-2.49,3.05a11,11,0,0,0-1.66,3.6l.55,37.41s1.67,0,3,5.27,2.22,25.21,1.94,29.65A65.68,65.68,0,0,0,25,463c1.11,4.71,2.49,23.83,2.49,29.65s.56,15.52.28,19.4-4.71,15.52-4.71,17.73,1.66,10.53,1.66,10.53,2.22,0,2.22,3.33-.83,8.87.55,11.36,5,6.37,5.55,8.31.83,8.59.83,8.59,8.86,25.5,10.8,29.1.56,13.86.56,13.86H41.94c-.83,0-1.94-2.22-1.94-2.22s-1.38,2.77-2.21,2.77-.56-3-.84-5.54l-.27-2.49s-4.71-9.7-6.38-15-5.26-8.87-5-12.47,0-6.65-1.67-14.69-7.76-23.83-9.42-29.65a42.72,42.72,0,0,1-1.94-13.3c0-4.16,1.39-4.71,2.77-3.32s1.94.83,2.77-.84,3.05-5,3.61-6.65,2.77-20.78,2.49-25.77-3.6-21.34-4.43-27.16-.56-9.42-1.11-10.53-3.05-1.38-3.05-2.21,2.49-.83,2.49-.83a56.52,56.52,0,0,0,.28-11.37,143.3,143.3,0,0,0-2.77-15.79C14.23,413.1,14,416.42,13.4,407s.28-39.63.83-44.89,1.39-18.29,1.11-23.28S14,315,14,315s-2.77-.56-2.21-2.22a2.18,2.18,0,0,1,1.94-1.66,119.56,119.56,0,0,0-.83-14.41c-.84-5-1.11-5.54-1.94-11.09S8.69,268.72,7,264,3.15,243,2.59,239.07.92,225.29.1,221.61c-.56-2.49,1.38-.83,1.94,1.39s.28-6.38.28-10,1.94-21.61,2.77-25.49S7,176.16,7.86,172.28s3.05-9.69,3.32-13.3.83-8,2.5-11.36,3.6-11.64,3.6-16.07-2.49-5.27-2.22-8.59-.27-56.81-.27-60.41V58.94a182,182,0,0,0,.27-20.23C14.51,30.12,13.4,8,13.4,3.8s1.11-4.44,1.66-3,.83,1.11,1.11,8.31S17,48.69,17,52.57s1.67,16.9,1.67,24.11v7.2s-.84,27.44-1.11,30.49,1.11,7.76,1.11,7.76,2.77,3,3.32.27.83-1.11-.55,4.44-2.22,10.25-2.77,13.85S17,151.22,17,155.1s-4.15,11.09-4.71,14.14,1.39,6.92.28,9.42S7,190.57,6.75,195,4,221.06,5.36,229.92s4.71,34.37,6.1,36.86,2.22,1.94,2.49,4.43.84,21.07,1.67,25.22,3.05,10,3.32,15.8,0,16.62,0,20.23-1.38,7.2-.55,8.59,2.77-1.67,3.88-3.6,4.15-9.7,4.71-11.09,2.77-15.24,3.6-18,1.94-36.86,1.94-40.18v-3.33s2.5-18.29,3.33-22.45,3-34.91,3.88-39.07l.83-4.16a71.23,71.23,0,0,1,1.66-8.59l.83-2.49s1.39,3.33,5-11.36,3.05-18,5-21.62,1.66-4.43,2.77-15,.55-25.5,1.38-28.82A112.63,112.63,0,0,0,59.4,92.2c.28-7.76-.83-15.24-.28-20.51S62.17,46.2,63,41.49l.84-4.72s.55-11.08,1.1-15.51S66.05,6.85,66.05,4.63a4.27,4.27,0,0,1,3-.83c1.66.27,1.11.83.83,3.6l-.28,2.77s-1.38,20-1.94,24.11-3.32,15.8-3.32,19.4S62.45,72,62.45,75.29s-.55,8.32.28,8.87,1.66.28,4.15-5.54,5.82-18.57,7.21-24.11,7.48-24.39,8-27.16,4.44-6.93,4.72-8.87S89.33,4.07,89.33,4.07Z"/></g></g></svg>