<svg id="圖層_1" data-name="圖層 1" xmlns="http://www.w3.org/2000/svg" viewBox="0 0 213.16 52.93"><title>pic</title><path d="M23.57,18.19c.89-.25.76-.56,1.61-.54a6.49,6.49,0,0,0,2.45-.17c.22-.24,2.07-.9,2.25-1.08a3.19,3.19,0,0,0,.42-.6s.22.37.52.12,1.13-.31,1.47-.64S36,13.62,36.6,13.15s2.54-.89,3.43-1.56,5.53-1.86,6.72-2.25,3-.59,3.83-.91,6.58-.81,7.23-1.07A65.77,65.77,0,0,1,65,6.48c1.23-.07,2.23.08,3.36-.08s5.29-.19,6-.22,2.54.11,3.06,0,5.66.34,6.59.28A31.81,31.81,0,0,0,88,6.28a8.75,8.75,0,0,0,1.46-.5,29.17,29.17,0,0,1,3.83-1.87A13.19,13.19,0,0,1,95,3.52c.51-.13,1-.18.85.09s.26.29.37.31.37,0,.13.24-.54.33-.84.58,0,.22-1.08.67a8.68,8.68,0,0,0-1.82,1c-.27.18-.53.47-.36.51a4.12,4.12,0,0,0,1.19.06,14.12,14.12,0,0,1,1.64-.26,18.17,18.17,0,0,0,2.65-.29A6,6,0,0,0,100,5.78a5.37,5.37,0,0,0,1.25-1.23c.19-.29.49-.44.6-.35s.57-.09.82-.15,1.52-.56,1.8-.68.47-.48,1.09-.76a8.3,8.3,0,0,0,2.05-.76c.78-.52,1.6-.73,2-1S110.5,0,110.78,0s.39.56.59.56.48,0,0,.29-.77.42-.75.63a.75.75,0,0,0,.5.55,2,2,0,0,0,1.15.06,5.32,5.32,0,0,1,1.63-.16c.54,0,1.8-.56,3-.76s1.4-.44,2-.23a5.79,5.79,0,0,0,2.54-.07c.8-.18,1.19-.34,1.06-.14a5,5,0,0,1-.75.78c-.35.31-.44.54-.31.51a8.18,8.18,0,0,1,3.1.15c.89.4,1.34.79,1.68.71s.72.06,1-.29-.09.48-.72.92.76,1.62,1.35,1.84a7.86,7.86,0,0,0,1.6.37c.31,0,1.93.39,2.18.49a8.2,8.2,0,0,0,1.28.3c.59.12.74,0,.95.2a1.26,1.26,0,0,0,.56.26c.15,0,.78-.52,1-.24a6.36,6.36,0,0,1,.34.83c.07.14.78.32,1.17.49s.83.18,1.42.41.84.2,1.12.44.62.09.8.33.9.42.31.44-1.24,0-1.3.13,0,.25-.25.27-2-.31-2.8-.38a7.74,7.74,0,0,1-1.48-.17,4.09,4.09,0,0,0-1.38-.06c-.55,0-.06,0-1-.05s-2.92.09-3.25-.07a2,2,0,0,0-1.43-.21c-.78.11-2,.26-2.7.39s-1,.4-1.36.41a.54.54,0,0,1-.42-.17,5.59,5.59,0,0,0-1.62-.08,30.66,30.66,0,0,0-4,.72,2.58,2.58,0,0,0-.55.4l2.67.32c.94.12,3.09.29,4.52.37s4.31.55,5.63.52,7.8.54,8.43.66a6.79,6.79,0,0,0,2.33.45c1-.09,5.15.88,6.17,1a12.37,12.37,0,0,0,2.62.13,5.43,5.43,0,0,1,1.91.1,12.7,12.7,0,0,1,1.7.51,10.58,10.58,0,0,1,2.21.83,4.35,4.35,0,0,0,1.27.45,2.38,2.38,0,0,1,.85-.82c.46-.19-.09-.75.28-.66a1.23,1.23,0,0,1,.74.47,1.8,1.8,0,0,0,.94.38,1,1,0,0,1,.68.61,9.69,9.69,0,0,0,.8,1.28c.24.27.81.59.87.86a2.44,2.44,0,0,1,0,.67s3.32.87,4.11,1.12l2.59.8s4.79,1.52,5.14,1.5a16.75,16.75,0,0,0,1.74-.3,19.15,19.15,0,0,1,2.83-.1,16,16,0,0,0,5-1.13,9.7,9.7,0,0,1,1.73-1.11,59.14,59.14,0,0,0,6.28-4c.93-.83,6.3-5,6.68-5.41s.54-1.21.73-1.25.23.1.13.29-.22.57-.22.57L200,8.72c.56-.41,2.89-2.21,3.34-2.52s.59-.74,1.58-1,1.38-.66,1.3-.22a3.13,3.13,0,0,0-.07.43,2.24,2.24,0,0,1-.32.7.77.77,0,0,0-.36.51c-.05.25-.08.57-.14.75s.38.12.38.12.13-.26.24-.08a.76.76,0,0,1,.13.34l-.3.32-.21.27a.33.33,0,0,1,.37.26c.11.31-.05.18,0,.48s.64-.49.64-.49.15.5.2.77a2.63,2.63,0,0,1,.1.87c0,.42-.22.57-.32.8s.06.48-.09.81-.62,2.43-.86,2.87-.53.55-.39,1,.13.89.19,1.06-.22.32-.4.36-.34.07-.46.55-.19.93,0,.82a1.09,1.09,0,0,0,.25-.33s-.28.68-.53,1.17-2,2.56-2.46,3.13-.59.53-.9.87-.52.52-.51.64.14.42.11.58-.4.48-.55.6-.32-.08-.55.35-.43.71-.47.84-.5.36-.5.36a3.26,3.26,0,0,1,1.17-.28c.28.08.3.38.4.5a6.15,6.15,0,0,0,1.71.23c.28,0,.51-.28.77-.06a.92.92,0,0,0,.71.23c.16,0,.2-.4.44-.17s.57.2.79.38a1.27,1.27,0,0,1,.41.49c.12.23.26.07.32.21s.23,0,.61.32a2.44,2.44,0,0,0,.83.52c.21.08.23-.12.75.32s1.06.87,1.06.87l.47.26s.19-.3.29,0a1.62,1.62,0,0,1,.06.58s.57-.37.67,0a1.53,1.53,0,0,0,.3.74c.19.2.32-.06.37.3s.06.63.06.63.17-.45.44-.22.54.25.5.55,0,.67,0,.67.08-.59.3-.23.48.49.63.8.08.44.26.59.09-.49.25-.18a1.35,1.35,0,0,1,.14.87c0,.3-.25.44-.13.76a.54.54,0,0,1,0,.62c-.14.28-.16.28-.16.28a3.28,3.28,0,0,0-.93.48c-.18.21-.35.28-.41.55s-.06.29-.06.29l.72-.21a1.44,1.44,0,0,1-.56.69,3.58,3.58,0,0,1-1,.57c-.36.08-.24.16-.64.26s-.83.05-1.15.13-.64.42-.89.48-.49,0-1,.1-2.49.23-2.74.24-.24,0-.24,0a1.67,1.67,0,0,1-.82.15,11.25,11.25,0,0,1-2.11.09l-2.08-.54c-.58-.14-1.35-.56-1.6-.56A17.56,17.56,0,0,1,195,40a4.6,4.6,0,0,0-.9-.28,5.76,5.76,0,0,1-1.24,0c-.25-.09-.79-.06-1.24-.2a3.42,3.42,0,0,0-1-.2c-.61,0-.78-.1-1.14-.15a5.61,5.61,0,0,1-1.19-.11,9.51,9.51,0,0,0-1.66-.22c-.49-.06-.65-.29-1.1-.11s.27.26-.58.21-1.17-.19-1.53,0a3.34,3.34,0,0,0-.59.31c-.23.13-.38.27-.54.12s-.32-.39-.51-.32-.06.32-.29.18-.27-.22-.57-.22a5,5,0,0,0-.82.1l-.67.11a4.57,4.57,0,0,1-.48.08c-.09,0-.1-.13-.33-.16s-.2.12-.58,0-.87-.18-1.18-.29a1.76,1.76,0,0,0-.75-.18c-.39,0-1.34-.28-1.71-.33s-.27-.25-1.18-.3-1.11-.1-2-.19-5.2.17-5.66.14a.73.73,0,0,0-.63.21,5.07,5.07,0,0,0,1.27.4c.47,0,1.17,0,1.63,0s.5.17.28.16a1.9,1.9,0,0,0-.78.11c-.29.11-.61.09-.64.4a1,1,0,0,1-.57.83c-.39.24-.65.66-.89.77a2.36,2.36,0,0,1-.74.25,4.1,4.1,0,0,0-1,.33s.68,0,.47.17-.3.5-.56.69-.11.15-.64.3-.48.18-.59.4.37.48-.32.56-1.85.94-1.88,1.3a2.58,2.58,0,0,0,.18,1.2c.15.25.27.38.4.64a.94.94,0,0,0,.5.55c.25.13.26.18.18.25s-.13,0-.16.14-.24.36,0,.38.79.08.47.12-.79.22-.78.3.25.21.27.39.75-.13.52.08-.52.7-1,.71-1,.06-1.73.06-1.52-.11-2.39-.07-1,.07-1.49.07-3.77-.53-4.47-.61-2.52-1-3.34-1.17a11.22,11.22,0,0,1-2.13-.34,1.48,1.48,0,0,0-1-.29.83.83,0,0,1-.71,0,3.54,3.54,0,0,1-.51-.31s-2.21-.77-2.88-.91a12.15,12.15,0,0,1-1.84-.57c-.51-.21-.73-.48-1.08-.44s-.4.24-.82.3a3.64,3.64,0,0,0-.82.15,3,3,0,0,1-1,.23c-.25,0-5.59.37-6,.42a2.45,2.45,0,0,0-.87.19,8.43,8.43,0,0,1-1.87.05,5.38,5.38,0,0,0-1.49.07c-.53.11-.9,0-1.3.08s-.38.21-.68.21a2.25,2.25,0,0,0-.87.15,13.92,13.92,0,0,1-1.4.26c-.22,0-2.41.55-2.8.53a4.24,4.24,0,0,0-1.35.17c-.4.13-.44.06-.68.21a.24.24,0,0,0,0,.43,1.93,1.93,0,0,0,.57.07c.16,0,.32.16.52.13s.47-.21.38,0-.1.23-.1.23a.64.64,0,0,0-.49.17l-.45.41s.18.27,0,.38-.74.39-.74.39a2.6,2.6,0,0,0,.41.46c.21.16.64.58.87.71s.43.34.36.59-.14.66-.37.65-.56.37-.88.29-.77.14-1.14-.1-.37-.53-.74-.56a8.37,8.37,0,0,0-1.58,0c-.59.08-1,.53-1.26.42a9.82,9.82,0,0,0-1-.15c-.61-.13-.48,0-.71-.18s0-.2-.37-.21a4.93,4.93,0,0,0-.82.11c-.17,0-.16.21-.59.25s-.55.14-.63.12-.14.2-.44.17-2.56-.25-2.9-.29-1.12.23-1.69.15A5.8,5.8,0,0,1,99.18,52c-.52-.34-.75-.33-.84-.32s-.46-.12-.71-.14A16.87,16.87,0,0,0,95.84,51,8.28,8.28,0,0,0,94,50.71c-.56.06-.38.17-.68.26a2.52,2.52,0,0,1-.91,0,3.81,3.81,0,0,0-1.17.27,7.87,7.87,0,0,0-1.22.47c-.46.23-.57.67-1,.76a5.46,5.46,0,0,0-.77.16c-.16.07-.46-.14-1-.29s-.47,0-1-.14-3.24-.28-3.9-.39-1.38-.28-2.33-.45-2-.25-2.52-.32-2.73-.46-3.36-.64a10.73,10.73,0,0,0-1.84-.48c-.43,0-.5.1-.63.07s-.76-.14-.86-.05,0,.67.2.73a1.84,1.84,0,0,1,.83.66c.13.28.27.59.59.66s.21.3.47.16.4,0,.19.11-.21.18-.53.07l-1-.34a.59.59,0,0,1-.67.06c-.43-.19-.81-.17-.9-.24a.59.59,0,0,0-.48,0c-.13.08-.21-.09-.33-.11s-.53-.08-.76-.14-.28.24-.48.12a2.16,2.16,0,0,0-.56-.31c-.13,0-.34,0-.25.22s-.42-.25-.46-.35-.2-.38-.46-.36-1.12,0-1.54,0-.87.07-1,0,.27-.46-.07-.48a7,7,0,0,0-1-.1c-.24,0-1.88.1-1.88.1s0,.21-.63.3a2.91,2.91,0,0,1-1.62-.13c-.52-.19-1-.21-1.1,0s-.64.18-.73.1-.44-.16-.65-.31a7.55,7.55,0,0,0-1-.77,9.14,9.14,0,0,0-1.7-.42,5.06,5.06,0,0,0-1.72,0c-.21.11,0,.36-.07.43a.73.73,0,0,0-.11.23,1.17,1.17,0,0,0-.7-.27c-.47,0-.63.23-1.29,0a5.48,5.48,0,0,0-2-.44c-.58,0-.61.17-.86.06s-2.34-.78-2.64-.85-2-.65-2.41-.7l-.38-.06A9.28,9.28,0,0,0,39.51,47a11.71,11.71,0,0,0-1.87,0,2.41,2.41,0,0,1-1-.25,2.79,2.79,0,0,0-.82.15c-.38.14-.4.5-1.17.47s-1.17.1-1.33-.16-.27,0-.62-.08L32.28,47a4.09,4.09,0,0,0-.7-.42,5.35,5.35,0,0,0-1.23-.3c-.21-.06-.62-.18-.66-.08s-.63,1.09-.79,1.39a1.14,1.14,0,0,1-.46.56c-.16.06-.39-.21-.42-.12s-.06.54-.27.51-.37-.25-.55-.41-.2-.2-.46-.45a1.47,1.47,0,0,0-.65-.42c-.12,0-.68-.21-1.08-.29a3.93,3.93,0,0,1-1.28-.35,9.94,9.94,0,0,1-1.48-1,2.36,2.36,0,0,1-.94-.38c-.4-.29-.88-.86-1.1-1a7.29,7.29,0,0,1-.88-.62l-.26-.39-1.51-.56h-2c-.36,0-2.47.36-3.08.33a7.05,7.05,0,0,0-1.72,0c-.63.09-.81.13-1.35.17s-1.53,0-2.11.08a8.34,8.34,0,0,1-1.16.19c-.41,0-.65.08-.81,0s-1.45.24-2.06,0-1.47-.28-2-.53a1.87,1.87,0,0,1-.95-1.06,1.55,1.55,0,0,0-.07-.67c-.1-.21-.33-.21-.31-.45s.35-.32.36-.46-.15-.47.17-.51.74.14,1,0,.83-.06,1.12-.28a10.39,10.39,0,0,1,1.27-.56,1.49,1.49,0,0,1,1-.38l3.16-.13a15.83,15.83,0,0,1,2.07-.23,2.32,2.32,0,0,0,1.1.1c.31-.09.19-.16.63-.21a2.92,2.92,0,0,0,.92-.14l.55-.55a1.48,1.48,0,0,1-.17-.39c0-.1-.15,0-.37-.21s-.63-.35-.6-.51a1.26,1.26,0,0,0,0-.33.73.73,0,0,1-.6-.32,4.13,4.13,0,0,1-.4-.74s0,.2-.42-.11-.75-.32-.78-.62a3.48,3.48,0,0,0-.08-.43s-.37-.14-.66-.23-.55-.15-.69-.46-.1-.43-.27-.45a1.57,1.57,0,0,1-.79-.42c-.22-.22-.12-.37-.27-.39s-.23-.13-.55-.42-.76-.46-.5-.45a1.06,1.06,0,0,0,.53-.17s-.06-.24-.23-.15-.21.1-.48,0a1.33,1.33,0,0,1-.7-.37A1.22,1.22,0,0,1,5,29.75s.67,0,.53-.11a.69.69,0,0,0-.61-.13c-.27.06-.55-.35-.79-.47a5,5,0,0,1-.51-.36c-.08,0-.17-.36-.47-.26s-.13.34-.21.32a2.12,2.12,0,0,1-.28-.15s0,.36-.06.33-.09-.15-.09-.15a.47.47,0,0,0-.26.37.35.35,0,0,1-.25.32l-.21.28,0-.39-.19.14a2,2,0,0,1,.21-.42c.17-.29.07-.58.14-.81s-.23-1,0-1.29.65-1.37.85-1.59.51-.32.55-.4a3.15,3.15,0,0,1,1.14-.85,1.73,1.73,0,0,1,1,.05c.23.11.45.26.52.21a4.43,4.43,0,0,1,1-.24c.17,0,.42-.63.51-.74a3.45,3.45,0,0,1,.88-.24c.15,0,2-.62,2.43-.79s.62-.12.72-.06.27-.47.65-.59,3.29-.87,3.55-1.06a2.2,2.2,0,0,1,1.23-.8c.76-.15,1.45-.05,1.83-.2A5,5,0,0,1,20.13,19c.62-.06,1,0,1.3-.08s1.25-.5,2.14-.75" style="fill:#040000;fill-rule:evenodd"/></svg>