<svg xmlns="http://www.w3.org/2000/svg" viewBox="0 0 1053.57 266"><defs><style>.cls-1{fill-rule:evenodd;}</style></defs><g id="圖層_2" data-name="圖層 2"><g id="圖層_1-2" data-name="圖層 1"><path class="cls-1" d="M166.18,37.84c13.35-1.8,61.44-6.63,70-7s16.75-3.68,22.85-6.3,16.9-3.94,16.9-3.94a34.44,34.44,0,0,1,5.95-2.35c2.47-.6,4.19-.06,5.66-.54s4.4-1.47,6.41-2.28-.67,1.95.17,1.89,4.31.7,6.06,0,7.41-.24,10-1.27,7.18-.26,10.75-.23a45.91,45.91,0,0,0,7.56-.7,2.21,2.21,0,0,0,.34-2.28c-.59-1.17-1.22-1.12-1.22-1.12A6.17,6.17,0,0,1,331.24,9c2.58-.68,7.89-.25,12.18-.47s5.28-.5,7.49-.25,4.35-2.81,7.06-3.58,6.73,1.4,10.54,1.14,16.63,4.77,20.2,4.94,15,.43,20.72-1.5S431,5.12,431,5.12,455.81.94,466.22.24s18.14.34,20.44.32S506.19,2,516.48.46s66.95,11,69.88,12,16.9,7.8,21.19,10.68,3.86,5.57,1.16,7.63-3.18-.48-3.18-.48.53,2.43,2.41-.57-3.8-4.31-6.59-5.66-6.44,0-12.63.4-11.05-.23-15.05,1-11.38,1.77-15,3.76-7.24.5-14.38-.33-16.22-.86-20.31-1.23-10.8.49-10,1.27,4.81,8.18,4.81,8.18-7.91-6.66-11.32-8.24a46.31,46.31,0,0,0-6.62-2.41c-1.72-.61-5.29,2.73-6.68,4.1s-8.4,6.74-9.72,8.77-3.08.38-4.05,2.17S473.8,52,469.34,56.13s-8.26,11.68-12.4,17.2S446.55,90.1,445.31,91.58s-4.38,2.29-6.23,4.18-.34,3.55-1.74,5.32a18.2,18.2,0,0,0-1.78,2.52L438,103a7.75,7.75,0,0,1-1.74,5.32c-2.05,2.49-3.55,3.65-3.57,5s-5.89,9.79-6.28,10.68-3.11,4.25-4.23,6.34-.78,3.42-1,6.83a19.44,19.44,0,0,1-.69,4.55s-5,3-7.07,3.58-5.54,2.63-5.17,3.4-1.1,4.07-2,7.14-3,2-3.42,4.13a18.05,18.05,0,0,1-4,7.78c-2.06,2.35-5,5.29-5,5.29s6.82-2.4,5.42-2a2.37,2.37,0,0,0-1.64,1.62l.32,1a11.47,11.47,0,0,1-2.45,3.81c-1.74,1.8-3.18,5.2-5.8,7.5s-2.41,4-3.38,6.94-.9,4.14-2.41,6.61a57.31,57.31,0,0,1-3.56,5,12.65,12.65,0,0,0,2.06,1.71c.67.32.18,2.94,1,2.48a31.74,31.74,0,0,1,4.38-1.19s0,.61-2.63,1.93-7.18,3.72-15,7-28.84,7.66-35.62,7.6-26.21,3.7-28.1,4.1-5.34-.12-6.37-1a24.78,24.78,0,0,0-3.82-2.45c-1.3-.7-3.91,1-7.31,2.15s-3.26-1.1-4.87-1.68-6.74-.85-9.17-.93-30.6-1.37-32.86-1.29-9.13-2-11.24-2.64-7.58-.74-8.26-.8-1.77,1.85-4.45,1.65-1.11-2.74-4.59-3.49a6.83,6.83,0,0,1-4.66-3,3.64,3.64,0,0,1-3.28,3.23c-3.08.41,1.43-2.43-.88-3.4s-4.64-1.07-7.67-1.63-1.17-3.36-3-4.65-4.27-.4-6.58.39-3.35-1.57-6.17-2.34-5.23-1.8-7.14-2-4.08.44-7-.13-6.29.62-7.11.78-1.87,1.61-3.6,2.24-4.63-.68-6-.44-3.85.81-3.85.81-.9-2-4.2-3-9.85-5.17-13.27-7.61-30.51-15.22-33.77-16.8-4.39-1-7.45-3-2.73-2.35-5.12-3.1-8.33-3.06-12.78-4.75-6.69-5-12.68-8.45-7.46-4.36-8.55-5-5.14,1.78-7.94.18-3.53-3.92-8.06-8.21-12.4-9.42-17.14-12.86-4.2-5.35-5.78-7.87S3,122.12,1,119.29.59,116,.59,116s.46-.07-.11-2.34c-1.3-5.19,1.14-10.39,1.42-12.36S7.33,94.45,14.49,92s13.22-7.57,21.2-10.73S65.23,66.82,72.31,64,93.1,53.67,98.47,51.26,108.82,45,112.15,44s6.54-.45,13.5-3.06S152.83,39.63,166.18,37.84Z"/><path class="cls-1" d="M492.51,20.1c4.07,1.19,4.83,5.2,9.29,6.67S589.52,44.1,603.55,47.13s101,13.49,112.84,14.43S734.7,66.49,736.58,66s12-2,21.47-3,32.3-3,33.9-3.52,4.06,1.06,4.73,1.48,12,.19,18-.45,19.31.2,21.22-.25,5.59.67,4.17.14-.78,1.91-.78,1.91l.77,4.1s6.57,2.41,10.17.14,5-1.31,5-1.31S906.92,44.47,917,40.63s44.17-18.87,47.39-20.26a102.58,102.58,0,0,1,10.31-4c1.7-.38-2.12,2.47-2.12,2.47l4-2.15a63.47,63.47,0,0,1,8.12-2.47c2.3-.33,1,1.3,1,1.3s15.71-6.2,20.7-7.12,22.81-2.51,26.12-2.47,12.64,2.57,14.16,4S1052,18,1052,18.73s.06,1.56.45,6,.06,6.66-.53,5.12-1-7.31-1-7.31a6.18,6.18,0,0,0-2.08-3.07c-1.63-1.27-9.91-.21-15.26-.22s-7,1.38-9.07,2.08-2.44,1.9-.74,2.37,2.74-.36,5.12.53.45,2.79.6,1.8-.52-1.38-2.9-1.63-6.52.07-12.28,2.33-30.08,13.6-34.86,15.14a13,13,0,0,0-6.95,5.61,3.46,3.46,0,0,0,3.24.22c1.66-.83,1.72-2,1.81-.6s.1,1.37.1,1.37a108.35,108.35,0,0,0-11.86,7.84c-6.42,4.85-47.83,34.3-52.09,37.24s-14.82,13-19.85,18.14S885,117,885,117s-3.45,4.89-4.17,5.86-8.19-.48-11.51.42a52.35,52.35,0,0,0-11.23,4.09c-4.11,2.15-8.09,3.56-10.7,5s.67,2.72.67,2.72-3.81-.65-5.54,0-2,3.39-2,3.39,6.62,2.76,8.58,3.5,6.75,1.14,18.25,3.21,17.52,7.43,23.76,8.8,9.64,3.66,15.36,7.59,12.13,5.56,15.39,8.06,15.31,7.29,19.7,10,3.48,8.05,9.71,12.18,25.81,15.92,27.71,18.19,6.82.71,8.37.74.63,2.26.63,2.26l-2.26.64,2.44,1.66s2.72,4.16,6.88,5.47,10,3.85,10,3.85l-1.23,1.95-2.4-1.21,4.06,4.77s-4.07-2.56-4.84-2.86-.74,2.37-.74,2.37,10,6.94,11.26,8.37,5.22,1.9,5.22,1.9l-1.2,2.41a107.13,107.13,0,0,1,7.56,8.19c2.2,2.92,6,3.63,7.76,4.94s5.53,2.14,7.59,2.65a16.37,16.37,0,0,0,5.09.07l-1.7,2s-.09,3.22.78,4.1,3.38-2,4.87-2.69,6.5.43,6.5.43a37.08,37.08,0,0,1-8,3.39c-3.66.87-3.93.65-14.73.67s-7.29-2.26-18.35-4.6-14.72-7.31-26.24-10.91S940.11,231.26,930.85,227s-54.57-23.65-59.7-25.89-33.92-13.15-41-16.71-14.41-9.84-24.47-12S792.81,167,792.81,167a3.31,3.31,0,0,1-2.76.21c-1.74-.51-2.45-2.77-14.83-6.71s-21.15-4.68-29.58-6.5-23.6-1.58-28.71-1a73.54,73.54,0,0,1-17.09-.08c-6.46-.79-11.63,2.09-15.92,3.07s-31.57,17.84-42.13,22.62-28.1,10.63-30.93,12.07-4.06,1.24-4.06,1.24l-.28,2.33s-.88.95-3.22.24-15.77-.53-18,0-3.94,2.81-6.11,4.62-4.9,2-9.89,3.53-13.55,4.12-15.32,4.87-20.6,4.81-21.33,4.87-.78,1.91-.78,1.91,0,0-1.76,1.05-18.5,6.13-22.53,7.27-5,2.8-8.51,3.43-16.7,5-16.7,5a5.25,5.25,0,0,0,6,.46c3.6-1.86,10.76-2.12,14.4-4.8s9.46-3.27,13.42-5.64,9.91-3.39,9.85-4,2,1.68-.14,4.16a20.4,20.4,0,0,1-5.23,4.1s-.21,1.83,1.52,1.73,5.93-.92,5.93-.92l-4.38,3.11s-.59,1.43-7.62,2.89-7.73,1.52-7.73,1.52a15.5,15.5,0,0,0-3.15,1.16,68.58,68.58,0,0,1-31.46,5.19c-13-1.18-17.42-2.77-30.71-3.19s-12.1.34-17.91,1.38-16.94,3.64-22.35,3.56-8.12-.75-12.92.07-6.26,3.24-15,3-8-.73-12.63-2.26-18.93-5.93-18.93-5.93,4,2.52,1.13,2.68-5.21-1.15-7.06-1.77a14.41,14.41,0,0,1-6.81-4.55c-2.13-2.67-3.28-4.18-3.82-1.56s2.56,6.9,1.45,6.82-1.63-2.21-3.71-6.18-1.36-4.16-1.37-5.9-1.64-3.74-2.3-5.83-3.05-5.76-2.47-8.12-2.74-2-3.56-4.34-.76-5.72.32-13.88,4.51-23.78,6-30.47,9.95-12.39,11.3-15.18,6-7.32,7.07-10.23.38-3.19,1.66-8.44-.71-5.09-.67-8.72,1.28-2.86,5.3-9.18,5.31-11.41,6.71-14.83,2.52-7.29,4.7-11,.24-1.46.11-4.62-1-2.68.56-4.66,7.55-3.54,11-6.85.85-2.92,1.84-6.14.86-2,3-3.46,8.2-4.36,15.08-8.09,4.77-2.94,7.35-6.56,4.95-4.57,7.87-5.69,3.28-4.83,4.13-6.31a10.75,10.75,0,0,1,5.62-5.05c3.11-1.1,10.67-1.38,16-2.61S436.38,22.93,439,21s8.12-4,8.9-4.38,1.43.51,4.62.11,8.6.21,9.68-.28,6.78-1,7.77-1.06S488.44,18.9,492.51,20.1Z"/></g></g></svg>