<svg xmlns="http://www.w3.org/2000/svg" viewBox="0 0 1041.26 376.65"><defs><style>.cls-1{fill-rule:evenodd;}</style></defs><g id="圖層_2" data-name="圖層 2"><g id="圖層_1-2" data-name="圖層 1"><path class="cls-1" d="M588.92.64l0,1.5a5.22,5.22,0,0,0-1.53,1l-.26.49-.5,0v.25l-.5.24,0,.5,1.75.05-.28,1-.76.23-.26.49-.5,0-.26.49L585,7v.25h-.5l-.26.49-.5,0-.26.5-.5,0-.27.49h-.49l-.27.49-1,.22-.27.49h-.5l-.26.49-.5,0-.26.5-.5,0-.27.49h-.5l-.26.49h-.5V12l-.75.23-.27.49h-.49l-.27.49h-.5l-.26.49-.5,0-.26.5-1,.22-.26.49-.5,0-.52.74-1,.22-.26.49-.5,0-.27.5-.49,0-.27.49c-2.11,1.32-5.23,1.72-5.63,4.83l2.26-.68.27-.49h.5V20.7l.5,0v-.25h.5l.51-.48h.5l.27-.49,4-1.63.26-.49h.5v-.25l.5,0v-.25h.5l.52-.48h.5l.26-.49.5,0,.51-.49.5,0v-.25h.5l.51-.48h.5l.26-.49.5,0,.78-1h.5v-.25l.5,0,.26-.49h.5v-.25l1,.28,0,.75L581,14.9l-.27.49-.5,0-3.86,3.88h-.5l-1,1.22-.5,0-.52.74-.76.23-.26.49-.5,0-.52.74-.5,0-.26.49-.76.23-.78,1-.49,0-.52.74-.5,0-.52.74-.5,0-.78,1-.5,0-.52.74-.5,0-.52.74-.5,0-.52.73h-.5l-.52.73h-.5l-.78,1-.5,0-.26.49-1,.72v.5l-.77.48v.5l-2,1.68.21,1.26-1.53,1.2,0,1.75h-.25l0,.75h-.25v.5h-.25l0,.5h-.25l-.54,1.48H553l0,1h-.25v.5l-.51.24v.49l-.51.24,0,.5-1.27,1,0,.5c-.38.61-.82.84-1,1.72a2.17,2.17,0,0,0-2,1.43H547l0,1c1.09.14,4.12,1.1,5.47.65v-.24h.5V51h.5V50.8c.35-.22.44-.17,1-.22.5.82,1.6,1.06,2.19,1.81.53-.19,1.29-.53,1.77-.7l.75,0v-.25l.75,0v-.25l.75,0c1.22-.5,2.18-1.49,3.79-1.64a5.5,5.5,0,0,0,1,1.28l2.27-.69c.67-2.73,1.89-2.22,3.84-3.38l.27-.49,1-.22.27-.49,1-.22.27-.5,1.51-.45.26-.49h.5v-.25l.5,0,.26-.49,1-.23.26-.49,1-.22.27-.49,1.51-.45.26-.5,1-.22.26-.49,1-.22.26-.49,1-.22.26-.49,1.51-.46.27-.49,1-.22.27-.49,1-.22.27-.49,1-.22.26-.49,1-.22.26-.5,1-.22.26-.49,1-.22.26-.49,1-.22.26-.49,1-.22.26-.49,1.51-.46.27-.49,1-.22.27-.49,1-.22.26-.5,1-.22.26-.49,1-.22.26-.49.76-.23v-.25l2.52-.92v.5c-.51.42-.23.48-.53,1h-.25l0,.5-.76.48-1.8,1.94h-.5l-.27.49a6.42,6.42,0,0,1-2.29,1.68l0,.5h-.5l-3.6,3.64-.5,0L595,39.27l-1,.22-.52.74-.5,0-.26.5-.76.22v.25h-.5l-.26.49h-.5l-.26.49-.5,0-.27.49h-.5l-.26.49h-.5l-.26.49-.5,0-.27.5-.49,0-.27.49h-.5v.25l-1,.72-.53,1-1.51.21v.25l-.5,0v.25h-.5l-.26.49-.5,0a6,6,0,0,0-2.58,2.92A22.21,22.21,0,0,0,584.51,49l2.26-.18v-.25l4.25.13c.48-.14,1.08-.73,2-.45v.25l1,0v.25l1,0,.23.51h.5v.25c1.43.55,2.89-1.19,4.52-.62v.25l.75,0,.72,1h.5l.23.51h.25l.45,1.52c.19.26,1.07.38,1.24.53V53a12,12,0,0,0,4.31-2.37c.5.16.22,0,.5.26.46.6-.19,1.7.17,2.51l.74.52,0,.5c.36.42,1.72.31,2.49.32.77-.83,1.84-.76,3-1.16v-.25l1.24,0,1.3-1.46.49,0,.27-.49,2.74.08,1.45,1.79,1.74.05v-.25l1.51-.21v-.25l.75,0v-.25h.5v-.25l.74,0V52l.75,0v-.25l.74,0v-.25l.75,0V51.3l.5,0v-.25l1.51-.21v-.25l.49,0v-.25l1.51-.21v-.25l.75,0v-.25l.5,0v-.25l2.25-.44v-.24h.5v-.25l1.5-.21v-.24h.5v-.25l.74,0v-.25l.75,0v-.25l.5,0v-.25l.75,0v-.25l2.52-.67V46h.5v-.25c.5-.07.31.14.49.27h.25l0,.75-1,.72v.25h-.5l-.52.73h-.5l-.26.49-.5,0-.52.74-.5,0-.26.49h-.5l-.52.73h-.5l-.27.49-.75.23v.25l-.5,0-.26.49h-.5l-.27.49h-.49l-.27.49-.5,0-.26.5-1,.22-.26.49-1,.22-.26.49-1,.22-.26.49h-.5v.25l-1.51.45v.5l2-.19.27-.49H634v-.25l1-.22v-.25c1.64-.53,4.65.74,6-.07l.26-.49,2-1.69v-.5l.77-.48v-.25l1.5.05c.08,1.48.16,3.42.1,5.24,0,.92-.3,1.64-.06,2s.3.25.48.51a9.62,9.62,0,0,1,3.75-.14v.25l1,0v-.25l1.5,0v-.25l1.49,0v-.25l2,.06v.25h.5V60l1.7,1.55.23.76.75,0c.64-.52,1.58-.18,2.51-.43a28.46,28.46,0,0,1,7.5-.53l4.24.13v-.25l4.5-.12v-.25l.75,0v-.25h.5v-.24l.75,0v-.25h.5V60l1.5-.2v-.25h.5V59.3l1.25-.21v-.25l1.5-.21v-.24h.5v-.25l1.5-.21v-.25l.75,0v-.25l.74,0v-.25l.75,0V57l.74,0v-.25l.75,0v-.25l.75,0v-.25l1,0v-.25l.75,0v-.25l1,0v-.25l1,0v-.25l1,0v-.25l2.5-.18a5,5,0,0,1,2.51-.42v.25c.44.17.65.13,1,.28a2.58,2.58,0,0,1,.23,1c-1.34.67-2.11,1.49-4,1.63v.5c.77.49.68.94,2,1.06l11.3-2.17v-.25l1.51-.21v-.25l.5,0v-.25l.75,0V56l.75,0v-.25l.75,0v-.25l2.26-.44v-.25l.5,0v-.25l3-.41c1.52-.47,3.51-.88,5-1.35l1,0v-.25l1.5-.21v-.25l.5,0V52l.75,0v-.25h.5v-.25l1.5-.2V51h.5V50.8l.75,0,.27-.5.49,0V50.1h.5l.26-.49c.35-.21,1-.15,1.27-.46v-.5h.25v-.5l.77-.48v-.25l.49,0,.53-.74.49,0,.27-.49a10.79,10.79,0,0,1,6.29-1.57c.45.81,1.07.86,1.18,2a2,2,0,0,0,1-.47V46l1.52-.45v-.25h.5l.52-.73h.5l.27-.49.5,0,.26-.49a10.93,10.93,0,0,1,4,.11c.3.14-.08.61,1,.53.36,0-.08-.16.26-.24l2,.06v-.25l1,0v-.25l1.49.29,1.5-.21v.25l1,.28.23.51,1.25,0V45h.25l0,1.25a9.37,9.37,0,0,1,.14,3.75H766l-.27,1h-.25l.72,1H766l-.78,1h-.25l0,.49-.76.48-.28,1-.5.24,0,.5-.76.47,0,.5-.76.48v.5l-.51.23-.78,1-.5,0-.26.5-.76.22v.25h-.5l-.27.49h-.49l-.78,1-.75,0c-.84.34-1.1.37-1.29,1.46h.25v.25c4-1.46,8.46-2,12.83-3.12l4.49.13.22.75h-.5c-.57.64-1.25.71-1.54,1.7-2.85.36-4.61,1.35-6.81,2.3l.23.76c2.07.09,5.47.59,7,0v-.25h.49l3.1-3.4h.25V62h.25l0,.75.5,0c.76.46,1.6-.83,2.77-.67a.36.36,0,0,0,.49.26l1.8-1.94h.5l.52-.73h.5l.51-.48,0-.5.76-.48.28-1,1-.72.27-.74.5,0,.26-.5,1-.22v-.25a2.16,2.16,0,0,1,1-.47V53.9c.69-.14.58-.31,1.27-.47l0-1,.76-.23v-.5l.77-.48V51l1.25,0a2.87,2.87,0,0,0,1.3-1.71,8.53,8.53,0,0,0,1.76-.45l.06-2a29.66,29.66,0,0,1,4.48.63c1,.27,1.28,1.08,2.2,1.56v.25h-.25a2.06,2.06,0,0,1-1.27.71v.5a3.91,3.91,0,0,0-3,1.41l-.51.24v.49l-.76.48,0,.5L793.3,55.8c-.55.52-.64,1-1.53,1.21-.4,1.31-1.94,1.83-2.83,2.66l-2.83,2.91-1.53,1.21,0,.5-1,.72-.27.74-.5.23L782,67.21h.25c.53-.54.56-.16,1.26-.46V66.5l1.51-.45V65.8h.5v-.25l1-.22.26-.49.5,0,2.58-2.68,1-.47.27-.74,1.25,0v-.25a4.29,4.29,0,0,0,.51-.48h.5l.52-.73,1.75,0v-.25h.5v-.25l2.49.33c.2.9.63.8,1.72.79.3-.33.47-.36,1-.46l.28-.75.75-.22v-.25h.5l.26-.49,2.5-.18v-.25l1.5.05.52-.74,1.74.05c.5.89,1,.68,2,1.06a5.58,5.58,0,0,0,.44,2h.25c.36,1.06-.32,1.74.43,2.51.43.49.44.23,1,.53v.25c.48.23,1.5.14,1.74.55l0,.49a3.06,3.06,0,0,1,.43,2.51h-.25l0,1.24s-.39.08-.26.5l1,.77-.28,1h.25a1.1,1.1,0,0,0,.49.51c.27.3,0,.1.49.27l.62,4.26h-.25l0,.75-.25.24,1,.78v.5h.25l-.08,2.49.5.27-.06,2,.73.52v.5l.49.27a3,3,0,0,1,.44,2h-.25L819.85,87h-.25l0,.75h-.25l-.28,1h-.25l0,.75h-.25V90h-.25l0,.75H818l0,.5h-.25l0,.75h-.25l-.28,1h-.25l0,.75h-.25l-.81,2.22h.25l.2,1.5h.25l.24.51h.5l.23.76-2.27.68a6.65,6.65,0,0,0-.32,2.24,2.51,2.51,0,0,1,1.44,2c-.44.27-.34.14-.52.73h-.5a3,3,0,0,1-.79,1.47l-.51.24-.58,3h-.25l0,.75H813l0,1h-.25l0,1h-.25l0,1h-.25l0,1h-.25l-.32,2.49h-.25l-.6,3.48h.25l0,1.24h.25c.32.49.56.59.71,1.27l-2.39,4.92c-.12.53.56,1.23.19,2l-.5.23-.28,1-.51.24v.5h-.25c-.5.56-1.05.9-1.3,1.71H807a2.09,2.09,0,0,0,2.21,1.31c.83.76,3.25-.42,4.74.14v.25h.5v.25l1.75.05v.25l1.25,0v.25l2.24.31v-.25l1.24,0v-.25l.75,0V135l.75,0v-.24l.75,0v-.25l2,.06v-.25l1,0,.52-.74c.56-.23,1,.25,1.24.29v-.25l1-.22v-.25l2.25.06v-.25l2.25.07s0-.25.5-.23l.5.26v-.25l3.25.09v-.24l5.51-.59v.25h.5l.23.51h.5v.25l.5,0,.24.5.5,0V134l3.23.34v-.25l1.25,0v.25l.75,0v.25h.5v.25l2-.19c.37.7.6.47.7,1.52l2.25-.18.27-.5c.6-.47,1.13-.44,2.26-.43.36.43,0-.05.49.26v.25l.5,0c.2.16.65,1.23,1,1.52l.74.28.23.5,1,.28v.25l1,.28V139l2,.31v.25l.75,0v.25l1,.28v.25h.25v-.25l1.75,0v-.25l5,.4,3.94,1.86.23.51h.5l.24.51h.49l.48.77h.5l.24.51c.9.44,3.53-.08,4.24-.13v.25h.25c-.27,1.1-.89,1.23-1.07,2.46.3.18.33.41.48.52h.5l.23.51h.5l.48.77h.5l.48.76.49,0V150l1,.28v.25l1.49.29V151l6.23.43v-.25l3,.09c.56.19,2,1.08,3,.83v-.24l1,0v-.25l2-.19v-.25l.5,0V151l.75,0v-.25l.5,0v-.25l2.24.06c.23,1,.68.89.68,2.27-.92.73-1.08,2-1.1,3.71.51.29.43.42,1.23.54.85-1.26,1.49-.39,2.77-.92v-.25l.5,0,.26-.5,1.76-.19V155l2.75.08v-.25l1.25-.22v-.25l.5,0v-.25l1.5,0v-.25l1-.22v-.25c.42-.08.43.25.49.27l1.25,0,.23.76h.25l0,.75h.25c.35.49.66.62,1,1,2.18.07,4,.53,6,.67l4.24.13.23.5.5,0,1,1.27,2.25.07v.25h.5v.25c.89.32,1.56-.3,2-.44l1.5,0v-.25l2.49.07v-.25l2,.06v-.25l1.25,0s0-.16.5-.24v.5l3.5-.15v-.25l1-.22v-.25l1.74.3V158l.49,0v-.25h.5v-.25l1.25-.21V157c.77-.11.69.86,1.73.55v-.25l1.51-.45v-.25l.75,0v-.25l.74.27v-.25l.75,0v-.25l1-.22v-.25l.75,0v-.25l1.24,0v-.25l1.51-.45v-.25h.5v-.25l.49,0v-.25l1.51-.21.26-.49.5,0v-.25l1.49.29v-.25l.5,0V153l1.51-.46.26-.49,1-.22v-.25l1.51-.46v-.25l3.75-.38v-.25h.5V150l1.5-.21v-.24l1-.22v-.25l.75,0v-.25h.49v-.25l1-.22v-.25l1.51-.2v-.25l1.5-.21v-.25l.5,0V147l5-.85.27-.5.49,0,.27-.49,1-.22v-.25c.76-.27,1.42.13,2-.19l.27-.5,1-.22.27-.49.5,0v-.25l1,0v-.25h.5v-.25l1,0v-.25l.75,0v-.25l.74,0v-.25l1,0v-.25l.75,0v-.25l.75,0v-.25l.75,0V141l.75,0v-.25l1.5-.21v-.25l.5,0v-.25l2.26-.44v-.25l1-.22V139l.75,0v-.25l1.51-.46V138l.5,0v-.25l1-.22.27-.5.5,0,.51-.49.5,0v-.25h.49v-.25l.5,0v-.25h.5v-.25l2.26-.43V135l.5,0v-.25l.75,0v-.25l1-.22v-.25l.74,0v-.25l1-.22v-.25l.75,0,.27-.49,1-.22.27-.49,1-.22v-.25l.5,0v-.25h.5v-.25l.5,0,.51-.49.5,0,.78-1a7.83,7.83,0,0,1,2.52-.68v.25l.74.27v.25c.35.07-.08-.14.26-.24a1.64,1.64,0,0,1,1.5.05c.07,1.14.42,2.63-.11,3.74h-.25l0,.5-.5.23,0,.5h-.25l.43,2.51.49.26-.12,4-1,.72-.07,2.5h-.25v.25h.25l.22,1.26h-.25l0,1.25-.82,2.47a6.24,6.24,0,0,0-1.52.71v.25l.75,0,.17,2.75h-.25l0,.75h-.25l-.32,2.49H1037l-.27.5-.49,0-.27.49h-.5l-.26.49c-.63.43-.43-.28-.77.73l-.5,0v.25a4.83,4.83,0,0,1,2,.31l0,1.5.49.26-.1,3.24a2.57,2.57,0,0,0-1.81,2.2h.5l.09,5.5c-.34.1.07.11-.26.24l-.74,0v.25l-.75,0c-.53.31-.55,1.08-.56,2l1.24.28a10.39,10.39,0,0,1-1.65,5.2,4.53,4.53,0,0,0-3,.66l0,.5,1.74.3v.25h.25l0,2c-1.34.78-.3,1.39-1.07,2.22v.25l-.74,0v.25l-1,.22V187l-1.25,0-.26.24,0,.75,1,0c.55,1.29,1.33,2.19,1.38,4-.43.32-.76,1.27-1,1.47l-.5,0v.25l-1.51.46v.25l-.75,0v.25l-1,0-.27.49-.49,0v.25c-.38.33-.34.12-.52.74h.25a1.18,1.18,0,0,0,1,.52c.32-.16-.09-.33.26-.24l.24.26.23.75h.25l0,.5h.25v.5l1,.77v.5h.25l-.07,2.25c-.25.1-.49.47-.51.48l-1,0v.25c-1.17.43-1.84.23-2,1.69l2,.06a2,2,0,0,1-.28,1h-.25c-.28.7.25,1.41.45,1.76h.25l-.08,2.74-.75.23v.25l-1.26.21v.5c-.86.15-1.17.52-2,.69l-.28,1a7.62,7.62,0,0,1,1.74.3l.23.76h.5l.22,1h.25c.36,1.19-.4,2.4-.6,3.23-.77.27-1,.09-1.27,1-.84.87.08,1.74.43,2.26h.25l.2,1.76c-1,.58-1.33,2.1-1.36,3.7a9.65,9.65,0,0,0-2,.69v.25l-1.51.21,0,1,.74.53c.39.6.42,1.31.94,1.77-.43,1.09-.85,2.66-2.08,2.94v.25l-1.24,0-.08,2.74.49.27a2.74,2.74,0,0,1,.45,1.76c-.52.41-.23.56-.53,1l-1,.72.18,2.5a11.57,11.57,0,0,1-1,1.47h-.5V245l-.51.23,0,1.25h.5l-.29,1.49-4.78,1.11-3.74-.11-5.49-.16v-.25l-1.5,0v-.25l-2.24-.07V248h-.25l-4.24.12c-.59-.06-1.38-.56-2.24-.31v.25l-2.75.17V248l-13.48-.4-5.23-.15v.25l-1.25,0v.25l-.49-.26v.25l-.49,0v.25l-1.51.46v.25l-3-.59v.25h-.5v.24l-1,0v.25c-.35,0,0-.05-.24-.26l-.51.23v-.25h-.25v.25a1.92,1.92,0,0,1-1.26.46v.5c.79,0,.48-.48.74.27a2.5,2.5,0,0,1-2-.31l-.75,0v-.25l-.75,0v-.25l-2.5-.07,0,.74.5,0v.5h.5l0,.5.75,0v.25l-2.74-.33c-.22.08,0,.61-.76.48v-.25l-3-.59v-.25l-4-.11V250l-1,0v-.25c-.9-.18-2.17,1.42-3,1.16v-.25l-1.24-.29V250h-.5v-.25l-2-.06V250l-1.49-.29v-.25l-3-.09v-.25l-1.24,0v-.25l-1,0v-.25l-1,0v-.25l-1.25,0V248l-.75,0v-.25l-7.48-.47V247a3.09,3.09,0,0,1-1.5.21v-.25h-.25v.25h-.25v-.25l-3.74-.36-.55,1.73-2,.44v-.25l-3-.59v.25c-.89.36-2.39,1.6-3.78,1.14V249l-1,0v-.25l-.75,0v-.25l-.75,0v-.25h-.5V248l-.75,0v-.24l-.49,0v-.25l-.75,0v-.25h-.5v-.25l-.75,0a7.47,7.47,0,0,0-2.22-.81c-.55,1.86-2.38,1.5-4.06,2.13v.25l-.74,0v.25c-.84.62-.42,1-1.78,1.19-1-1.19-3.34-.63-5-1.14l-2-.06v-.25l-1.74-.3v-.25l-1-.28v-.25l-.75,0V247c-1.07-.33-1.92.73-2.52.93l-2-.06-3.74-.11a24.2,24.2,0,0,1-3-1.34l0,.75h-.25a.67.67,0,0,0,.23.76l-.08,2.74-6.73-.44V250l-1,0v-.25l-.75,0v-.25l-.74,0v-.25l-.74,0v-.25l-2.26.43a7.8,7.8,0,0,0,.41,3.26,4.5,4.5,0,0,1,1.74.3c.26.6.72,1.14.45,1.51-.43.59-3.53,1.7-5,1.1v-.25h-.5V255l-.75,0v-.25l-2-.06v-.25l-2-.06v-.25h-.5v-.25h-.25v.25c-.88.15-1.15.6-1.77,1l-.5,0-.78,1-.5,0v.25l-1,0v.25l-.75,0v.25l-1,0v.25l-1,0v.25c-.69.19-1.35,0-2,.19.13.51,0,.22.24.51s0,.1.49.26c-.19.62-.14.41-.52.74v.25l-.5,0-.26.49c-.67.38-2,.2-3,.16l-1.75,0c-.27-.08-1.59-.6-2.24-.31l-1,1.22c-.93.45-3.44-.24-4.25.12l-.78,1-.5,0v.25l-.75-.27v.25l-1.5,0v.25l-.75,0v.24L818,262l.26-.49-1.74,0v.25c-.53.29-1.26-.25-1.49-.29l-.26.49-1,0v.25l-1.25,0-.26.49-1.51.46-.27.74c.56.08.65,0,1,.28v.25h.5v.25l2,.31v.25l1,0v.25l.75,0v.25l3.74.36v.25l1.25,0v.24l.75,0v.25l.75,0v.25l.75,0v.25l2,.31V268h.49v.25l2.75-.17c3.37.84,7.19.5,10.73.31l.22.76c.28.29.1,0,.24.51l1,.27v.25l1.51-.2,0,.5,1,.77v.25l2.74.08c.68,1.26,1.2,1.18,1.16,3.28h-.25v.25c-1-.21-2.51-.55-3.47-.85l-3.49-.36-.23-.5-.75,0v-.25l-6-.43v-.25a4.66,4.66,0,0,0-2-.55l.44,2.26-.76.22.23.76,1.74.3.23.51h.5v.25l2.73.33v.25l1,.28.23.5.5,0v.25l1,0v.25l1.25,0v.25l.5,0v.25l.75,0v.25l.74,0v.25l2.23.56V280l.5,0v.25l.75,0v.25c.51.08.31-.11.51-.24a2,2,0,0,0,.52-.73h.25l0,1c1.19.28,1.44,1,2.46,1.32l.16,3,1.74.3v.5l.49.26c.11.51-.64,1.17-.8,1.72a5.55,5.55,0,0,1,1.22,1l1-.22v-.25s1.68.29,2.24.31l1.17,2.53c1.56,0,3.5.05,4.48.63l.47.77,1.49.54.2,1.5-6.73-.19a7.09,7.09,0,0,0-5.5.09v.5l1,.77v.25l1,.28.24.51.75,0V297l.75,0v.25l2.5.07v.25l1,.28-.23-.5,1.74.05c.7,1.05,1,.07,1.75-.2l.75,0v.5l3.47.85,0,.5c-1.36.1-1.22.66-2,.94l-1.5,0,0,.75.49.27c.4.8-.35.26.47,1v.25l.74,0v.25l-1.25,0c-.17-.21-.81-.85-1.23-.78V302l-.5,0-.52.74-.75,0v.25a5.09,5.09,0,0,1-2.49-.32l-6.2-1.18v.25h.25v.25l.74.27v.25l.75,0v.25l.74,0V303l.5,0v.25l.75,0v.25l2,.3.48.77,1,0v.25c1,.35,3.35,0,4,.61h-.25v.25l-2,0v.25l-1,.22,0,1.49c-1.25.68-1.45,1.56-3.3,1.9a1.15,1.15,0,0,1-.77,1v.25L852,310.7l-2.32,2.43c-.35,0,0-.06-.24-.26h-.25v.25l-2.49-.07v.25l-1.51.45V314l-3-.08v.25l-1.5.2v.25h-.5v.25l-1,0v.25l-1.25,0v.25l-.75,0v.25l-.75,0v.24h-.49V316l-.5,0-.52.74-9.72-.53-6.95-1.71-4.23-.37v-.25l-1.75-.05v-.25l-.75,0v-.25l-1,0V313l-3.5-.1v-.25l-3.23-.34V312L802.3,312v-.25l-.74,0v-.25h-.5v-.25l-1.5.2v-.25h-.25v.25l-1.75-.06c-.07,0-.06-.32-.49-.26v.25l-1.49,0v-.25l-3.23-.35c-1.8-.59-4.13-1.06-6-1.67l-10.22-.55v-.25l-2-.06v-.24l-2-.06v.25c-1.37.35-3.53-.21-4.75.11l-5-.4v.25l-1.5,0v.25l-3.25-.1v.25l-7.49,0a2,2,0,0,1-.53,1h-.25l0,.5-.5.23,0,.5-.5.24,0,.5-.76.47-1.31,2.21h-.25v-.49l-1.22-1,0-.75a3.49,3.49,0,0,0-.94-1.77c-.67-.65-1.47-.24-2.48-.57v-.25l-1.74-.05v-.25l-1.25,0v-.25l-.75,0v-.25l-1.49-.05v.25l-5.24-.15v-.25a.68.68,0,0,0-.76.23c-.53.06-.49-.26-.49-.26l-1.25,0v-.25l-.75,0v-.25l-1-.28V307l-4.74-.39v-.25l-3.49-.1v.25h-.5l-.26.49-.75,0v.24l-1.49,0-.24-.51-3.49-.1.17,2.75a6.22,6.22,0,0,0-2,1.19,11.62,11.62,0,0,0-2.24-.31l-.57,2.48-1.51.2v-.25h-.5v-.25l-.75,0v-.25l-.5,0v-.24l-.74,0v-.25l-2.73-.33V311l-1.24-.28V311l-.75,0v.25l-1.51.45v.25h-.5l-.26.49-.5,0-.26.49h-.5v.25c-.35.22-.44.16-1,.22l-.34,3.24-4,1.13v.5a3.35,3.35,0,0,1-1.48-.8v-.25l-1-.27v-.25c-1.06-.42-4.54.36-5.26.59v.25l-2.25-.06v.24H679a6.12,6.12,0,0,1-.8,1.72l-.75,0c-.65-.64-2.7-.17-3.49-.1l-.3,1.49-.76.48v.25l-1.75.2c-.2.08,0,.31-.76.47-1.67-2.87-5.49-1.51-8.71-1.25l.69,2.27h-.25c-.75.8-1.59.34-2.77.67v.25l-1,0v.25l-2.24-.32c-.26-.52-.39-.45-.46-1.26-1.39-.12-3.38-.71-4.74-.14-1.61.67-1.18,2.11-3.81,2.14-.25-.33-.43-.27-.73-.52v-.25l-.49,0v-.25a2.63,2.63,0,0,0-1.22-.78v.25l-.75,0v.25l-1,0v.25a3.17,3.17,0,0,1-1.75.19c-.63-.18-2.15-.91-3.23-.59v.25l-.75,0-.52.73h-.5l-.52.73-1.79,1.45-2.49-.33v-.24l-1,0v-.25h-.25v.25a.44.44,0,0,1-.49-.27l-.75.23v-.25l-5.71-.91c.16.89.61,1.14.94,1.77l.22,1,.5.26,0,.5h.25l.45,1.76h-.25c-.43.61-1.21.5-2.26.43V330l-1.49-.3v-.25l-1-.28v-.25a2,2,0,0,0-1-.52l.68,2.26h.25l0,.75h.25l0,.5h.25l0,.75h.25a5.84,5.84,0,0,1,.15,3.5,3.93,3.93,0,0,1-1.51.2l-.22-.75h.5l-.19-2.25h-.25v.25c-.83.65-.11.73-1.76.7v.25l-.74-.27v-.5a5.08,5.08,0,0,1-1.95-1.56l-.23-.5-.5,0L614,331h-.5l-.48-.77-1.46-1.29-.23-.5-.5,0-1-1.28-.26.25c-.29.27-.1,0-.26.49a3.09,3.09,0,0,1-2.24-.32v-.25l-.75,0V327h-.5v-.25l-.74,0v-.25l-.75,0v-.25l-.75,0v-.25h-.5v-.25h-.5l-.24-.51-.49,0-.48-.76h-.5l-.48-.77H600l-.23-.51h-.5l-.23-.51h-.5l-.24-.51-4-.61v-.25a17.78,17.78,0,0,0-6.21-1.18l.34-3h-.25l-.2-1.5c-1.12,0-1.12,0-1.77.45v.25l-1.26.21-.26.49-2.24-.31v-.25l-.5,0V316a3.71,3.71,0,0,0-2,.19c-.46.77-1.05,1.16-1.31,2.21a3.17,3.17,0,0,0-2.52.68l-.26.49-1,0v.25l-.75.23-.52.73-1.26.21-1.55,2c.17.88.6,1.14,1,1.77l0,.5,1.22,1c.49.93-.27,2.76.14,3.74l.73.53c.05.35-.2-.11-.25.24-.33,2-1.45,2.34-1.63,4.44l-.75,0v.25h-.25l0,.75.49.27c.7.75,2.78.61,4.23.62l0,1a2.17,2.17,0,0,1-1.76.45c-.64-.58-2,0-3-.34v-.25l-3.74-.11v-.25l-.51.24v-.25l-2.25-.07a4.62,4.62,0,0,1-2.25.18v-.24l-2.74-.33a6.58,6.58,0,0,0-.32,2.23h.25l0,.75.49.26c.59.65.22.7,1.48.8.54.55,1.62.4,2.24.31l0,.5,1,.28V342l2.5-.18v.25h.25v-.25l5.23.4s0,.32.49.27v-.25a.7.7,0,0,1,.74.27h.25v-.24l1.5,0v.25l6-.08c.39-.83.52-1,1.78-.94.27.29,0,.1.49.26.07.52.24.51.24.51l-.05,1.49h.25a.4.4,0,0,1-.26.49c-.07.35.14-.08.24.26l0,.75,1.22,1,.22.76h.5l.24.51.74.27,0,1.5a4.83,4.83,0,0,1-1.75.2l-.29,1.49,1,0a4.91,4.91,0,0,0,2.68,2.08,1.4,1.4,0,0,1-1.28,1.21v-.5c-1-.92-.31-1-2.46-1.07v.25l-1-.28v.25l-.75,0v.25l-10-.29v.25L565.4,353v.25l-6.48-.44-9.48-.27v-.25l-3.5-.11v-.25l-4.23-.37v.25h.5c.82,1,2.61,1.17,3.95,1.62l1.49,0v.25l.5,0V354l1.5,0v.25l2.24.06v.25l2.23.32v.25l1,0v.25l1,0v.25l1,0V356l1,0v.25l8,.49V357l1.74.05v.25l.75,0v.25h.25v-.25l2.24.32v.25l2.23.31v.25l1,0v.25l4.73.39v-.25h.25v.25l8,.48v.5a4.72,4.72,0,0,1,3.48.6l.75,0V361h-.25a8.7,8.7,0,0,1-2.29,1.44c-.93.27-2.12-.36-2.75.16a4.78,4.78,0,0,1,1.2,1.54H587c-.32.35-.7.37-1,.72.28.29.1,0,.24.51.28.15.38.45.48.51h.5v.25l2-.19v.25l.5,0v.25c1.19.45,2.91-.18,3.73.6-5-.13-10.61-.69-14.71-.68l-1.49-.29v-.25l-4.49-.13V366l-1,0v.25l-.75,0v.25c-.36.2-.44.16-1,.22l-.56,2.23-5-.15v-.25l-1.25,0-.24-.51-2-.06a26.68,26.68,0,0,0-7.71-1.22v.25h.24v.25l1.24.28v.25l.75,0V368l.75,0v.25l.75,0v.25l.75,0,.48.76h.25l0,1,.75,0,.22,1,1,0,0,1c-.9.34-1.76.67-2.05,1.69a4.47,4.47,0,0,0-2.51.42l-.26.49H555v.25a5.79,5.79,0,0,1-2.74-.33l-3-.09a10.76,10.76,0,0,0-2-.55c-.72,1.87-1.06,1.56-3.54,1.39-.58-.52-2.17-.24-3-.59v-.25h-.5v-.25l-3.24-.34v-.25l-.75,0v-.24l-.75,0v-.25l-1.5,0v-.25l-2-.06v-.25c-.51-.18-.85-.12-1.24-.28l0,1h-.25c-.55-1.09-1.2-1.33-3-1.34l-.27.74-.76.48,0,.75,1.2,1.53.74.27,0,.75a12.83,12.83,0,0,1-4.71-1.13c-1.39-.47-2.63.1-3.73-.61l-.23-.51-2.47-1.07v.25c-.3.28-.1,0-.27.49l-6.93-2.2v-.25l-2-.3v-.25l-1,0v-.25l-1,0v-.25l-1.25,0v-.25l-.75,0V370l-4.24-.12v-.25l-.74,0v-.25l-1,0V369l-1,0v-.25l-1.25,0v-.25l-1.25,0v-.25l-2.49-.32v-.25l-1.49-.3v-.25h-.5v-.25l-.75,0v-.25l-1,0v-.25l-3.73-.61v-.25l-1.25,0v-.24l-.75,0v-.25l-1.24,0v-.25l-1.24,0v-.25l-1,0V364l-1,0v-.25l-1,0v-.25l-2.24-.32v-.25l-1,0v-.25l-1,0v-.25l-1,0V362l-1,0v-.25l-.75,0v-.25l-.75,0v-.25l-.75,0v-.25l-.75,0v-.25l-.74,0v-.25l-3.22-.84v-.25l-1,0V359l-.75,0v-.25l-1,0v-.25l-2.48-.57v-.25l-3.22-.84-.07,2.49c-1-.26-1.42-1.21-2.2-1.56l-1,0c-1.06-.41-2.67-.91-2.93-2.09h-.25l0-1.5h-.25c-.66-.8-1.47-.6-2.47-1.07v-.25h-.5v-.25l-1.24-.29V352l-2.26.44v-.25l-.5,0-.24-.5-2.48-.57v.24h-.25l0,1a3.47,3.47,0,0,1,.71,1l-1,0a8.47,8.47,0,0,0-2-1.56v-.25l-1.49,0c-.87.88-1.23.16-2-.31h-.5l-.48-.77h-.5v-.25l-1.25,0v-.25l-1.5,0V350l-1.25.21v.25c-.69.12-1.3-.85-1.71-1.05-.57-.28-1.45-.23-2-.56l-.23-.5c-.75-.31-.81.41-1.26.46l-.24-.51-.75,0-.23-.5-.5,0v-.25l-1.75-.05c-.07,0-.09-.43-.48-.51a4.83,4.83,0,0,1-2.75.17v-.25l-.5,0v-.25c-1-.43-2.3-.06-3.74-.11-.25.45-.36.39-.53,1-.94.07-1.34.52-2,.69l-1.74-.3v.5l-.5,0c-.34,1-.15.3-.77.73l-.52.73-2.52.68v.25l-1.52.45v.25l-1,0v.25h-.5v.25l-1.51.2v.25h-.49v.25l-1,0-.26.49-3.24-.34-.26.49c-1,.39-2-.4-2.48-.57l-4-.62v.25l-.5,0v.25l-2.76.17V353c-.53.24-2.7,1.51-3,.91v.5l-1,.22v.25c-.71.2-3-.81-3.22-1.09l0-.5-.49-.51-1-.28-.22-.76h-.25c-.39-.46-.28-.56-1-.78-.74,1.14-.54.28-1.52.7-.1,0-.13.41-.51.49v-.25h-.24l.23.51-.5,0-.26.49a10,10,0,0,1-5.51.59v-.25l-1.24,0v-.25a8.76,8.76,0,0,1-2.5.17v-.25l-.75,0v-.25c-.84-.27-.83.42-1,.47l-.75-.27-.2-1.5a10.72,10.72,0,0,0-4-.12l-.29,1.24h-.5c-.7-.46.21-1-1.46-1.3-.6.85-.91.21-1.05,1.72h.25l-.06,2a14.2,14.2,0,0,0-3.49-.1v.25h-.24l-.05,1.5-.5.24-.28.74H347l-.27.74-1.24,0v-.24l-1.24-.29v-.25h-.5l-.23-.51a6.19,6.19,0,0,0-3.47-.85c-.34.56-.43.64-1.27.71-.7-1.18-.61-.27-1.73-.8l-.23-.51-1.51.21v.25l-5.24-.15v-.25l-.74,0v-.25l-.75.22v-.25h-.49v-.25l-.75,0v-.25l-.75,0v-.25l-3-.59v-.25l-.75,0v-.25l-1,0v-.25c-.42-.1-.45.23-.51.24l-1.74-.3-.26.49a.67.67,0,0,1-.74-.27l-1.51.2c-.45-1.31-.69-1.73-2.44-1.82a2.67,2.67,0,0,0-.28,1,2.24,2.24,0,0,1,.48.77h-.25v.25l-.75,0v-.25l-1,0c-.29-.54-.54-.56-.71-1.27l-1.25,0-.27.74-.75.23V353h-.25v-.5h-.5l0-.5a1.4,1.4,0,0,1-1.21-1.28l-.74-.27v-.25a3.17,3.17,0,0,1,1.26-.22v-.5l1.25,0v-.25c-.28-.29-.1,0-.24-.5l-.74-.28-.23-.75c-.81.26-.63.14-1.49-.05l0,1h-.25l0-.75-.76.22-.23-.5-.5,0-.23-.75h-.25l0-.5-.49-.26.26-.49-.74-.28c-.4-.29-1.14.27-2-.05v-.25l-.5,0v-.25l-1.75-.05v.5h-.5a3.8,3.8,0,0,1,.56-2.23H300l0-.5.5-.23,0-.5.51-.23.09-3.25h.25v-.5h.25l0-.5,2-1.19.76-.23v-.5h-.25l-.21-1.26h-.25l-.48-.76.5,0,.27-.75h.25l-.23-.5h.25l.27-.74.5,0c.41-.67.7-.59.8-1.73.28-.2,0,0,.25-.24l-.5,0a1.6,1.6,0,0,1-.77.73l0-.5c.87-.47.75-.76,1.29-1.46l.76-.47.27-.5.74,0,.52-.74.5,0v-.25h.5l.51-.48h.5v-.25l1.28-1a4.55,4.55,0,0,1,.34-3.24l.51-.23v-.5h.25l0-.75.77-.48L314,318c.24-.6,1.14-1.36.82-2.47h-.25l-.22-1-2.24-.07a1,1,0,0,0-.49-.51c.32-.83.12-.75.05-1.75l.76-.23v-.24c-.27-.22,0,0-.24-.26a7,7,0,0,1-3-.09l.06-2.24,1.49.54c-.3.27,0,.1-.51.23v.5c.86.24.91.65,2,.81.25-.44.36-.38.53-1-.5-.16-.22,0-.49-.27.89.06,2.5.27,3-.16s.22-.52.53-1.23H316l0-.74h.25l0-.75a10.87,10.87,0,0,1,2.33-2.92l.76-.48,0-.75h.25a3.71,3.71,0,0,0,2.25-.19v-.25l.75,0,.26-.49h.5v-.25a2.21,2.21,0,0,1,1-.47,2.1,2.1,0,0,1,.53-1h.25l0-.49,1.29-1.71h.5v-.25l.5,0v-.25l.74,0,.27-.49,1.25,0v-.25h.25l0-.75c-.83-.76-.7-2.4-.63-4l-.73-.52v-.25l-1.74-.3a3.35,3.35,0,0,1,2.81-2.17l.36-3.73-.5-.27,0-.5a4.86,4.86,0,0,0-2.51.43v.25h-.5v.25c-.58.17-.68-.32-1-.28v.25l-2-.06.28-1-.74-.27-.24-.51c-.79-.44-.65.37-1.23-.54a3,3,0,0,0,1.26-.21c-.37-1.06,0-1.56.08-2.74l.75,0c.24-.44.35-.38.52-1a2.1,2.1,0,0,1-1-.53v-.25l-.5,0V278h-.5l-.24-.51h-.5v-.25l-1-.78,0-.5-.49-.26v-.5H320c-.38-.43-.19-.39-1-.53l-.18-2.25-1.71-1.55.05-1.74c.63-.63.23-2.53.1-3.25l-4.46-1.12-.72-1-1.51.2v.25l-1.49-.29c-.18-1-.73-1.51-.93-2.53h.25v-.25l1.25,0v-.25h.25v-.5h.25c.24-.32.2-.43.28-1-1.17-.73-1.65-1.94-2.41-3.06l-1-.78-.23-.76-1.24-.28-.23-.51-1.49-.29,0-.75h-.25a5.55,5.55,0,0,0-3.69-1.85c-.22.27,0,0-.26.24.71,1.59,1.22,1.2,1.14,3.78-.29.27-.1,0-.26.49l-1,.22-.47-.76-1.25,0,0,.75a1,1,0,0,0-.52.48c-.27-.22,0,0-.24-.25-.64-.45-.5-.72-.45-1.76h-.25l-.19-1.76-2.24-.56-.05,1.75h.25v.5h.25l-.06,2h.25l-.05,1.75-.51.23-.28,1.24h-.5v.25l-.5,0v.25l-.5.24,0,.5-.51.48-.51.24,0,1c-.72.8.19,2.66-.35,3.74l-.77.48v.5l-.51.23v.5c-.38.61-.83.84-1.05,1.72-.28-.22,0,0-.24-.26H288a5.06,5.06,0,0,0,.27-1c.3-.27.1,0,.27-.49l-1,.22v.5H287l-.27.74h-.25l-.29,1.49h-.25l-.05,1.75s-.17,0-.27.49l.75,0c.11-.92.23-1,1-1.22a6.57,6.57,0,0,1-1.05,2l0,.5-.5.23c-.29.63.37,2.06.42,2.76h-.5l0-.75-.75,0v-.25h.5a2.16,2.16,0,0,0-.47-1h-.25l0-.75h-.25v-.5h-.24l0-.75-.49-.26v-.5h-.25c-.22-.35-.16-.44-.22-1l-.5,0,.27-.74-1,0v.5l-.74-.27.22,1h-.25v.25h.5c0,1.89.82,2.24.88,4l.5,0,.19,2.25a1,1,0,0,0-.52.48h-.25c-.13-.15,0-1-.47-.77v.25a4,4,0,0,0-1.31,2l.5,0,.53-1h.25l0,1.25-.5,0a4,4,0,0,0-.29,1.49l-.76.23c-.35,0-.08,0-.24-.26-.34.17-.24.57-.52.74l-.75,0V283h.49v.25h-.25a6.27,6.27,0,0,1-1.07,2.22l-.5.23,0,.75-1.53,1,0,.74h-.25l0,.5-.75.22-.52.74-.5,0-.27.74c-.74-.24-.89-.15-1.76.2v.25l-1,0v-.5c.81-.17.55-.36,1.52-.45a2.13,2.13,0,0,1,.52-1h.25l0-1,.51-.23.28-1.24.51-.24v-.49l.77-.48,0-.75.51-.23.27-.75h.25l.55-1.73.5-.24,0-.49.5-.24,0-.75.5-.23.28-1h.25L279,278l1-.22-.23-.76h-.25v.24c-.23.47-.23-.5-.23-.5.55-.34.52-.58.54-1.48h.5l-.67-2.77a2.63,2.63,0,0,0-1-.27,5.53,5.53,0,0,0-1.06,2l.5,0c-.1,1.21-.5,1.29-1.05,2h-.25l0,.5h-.25l.44,2.26h-.25v.25l-1.25,0c-.27-.43-.14-.34-.73-.52l-.06,2c-1.3.82-.87,2.29-2.82,2.66l-.27.74h-.25l0,.5H271c.27.86.15.94-1,1v-.25l-.25.24-1-.28v.5h.5c-.22.28,0,0-.26.25a3.42,3.42,0,0,1-2,.94l0,.5-.5,0v.5h-.5a1.93,1.93,0,0,1-.53,1.23h-.25c-.34.68.31,1.65.19,2l-.51.24,0,1h-.25l0,1h-.25c-.29.78,0,1.46-.55,2a5.4,5.4,0,0,1,.06-2.24c-.09-.34-.2.09-.24-.26h.25l0-.75h.25c.1-.42-.23-.46-.23-.51l.33-2.74c-.28-.22,0,0-.25-.25l-.75,0,.82-2.22h.25l-.24-.51-.5.24-.27.74-.5,0-.05,1.5-.5.23a2.33,2.33,0,0,1,.21,1.26h-.25l-.32,2.49-.5,0a7.2,7.2,0,0,1-.54,1.24H261c.21.44,0,.09.49.27V294l-.5,0c-.29.28,0,.1-.51.24v.5c.84.24.75.48.7,1.52-.29.27-.1,0-.26.49l.75,0a6.39,6.39,0,0,0,.44,2h.25l-.23-.76h.25v-.5h.25l0-.75.51-.24,0-.74h.25v.5l2.5-.17.26-.5s-.53-.06-.24-.25h.5v.25h.25l0,1-.75,0c-.2.69-.08.56-.77.73v.25l-1.25,0-.26.25c-.12.33-.12-.09-.25.24l0,1h-.25l-.05,1.75h-.25V301l-.75,0c-.38-1.25-.27-2-1.94-2.06-.2-.29,0,0-.24-.26l.24.51h-.25a2.61,2.61,0,0,1-2,.44l-.27.75h-.25v.25h.5l0,.5-3.25.16V301l-2.49-.08.21,1.26-.74-.27,0-.75-.5,0,0,.75c-.53.26-.46.39-1.26.46-.16-.69-.06-.56-.73-.77v-.25l-.75,0c-.17-.75-.14-.66-1-.77-.52.48-2.18.54-3,.66l0,.5c-.27-.22,0,0-.24-.26h-.25l0-.75-.73-.52v-.5c-.48-.65-.89,0-1.21-1.28-.72-.19-.81-.3-1-1h-.49c0,1.27.32.88.44,2h-.25a2.08,2.08,0,0,0-2.21-1.31v.25l-2-.06c-.54.86-1.36.94-1.56,2.2h.25l0,.75.49.26a.38.38,0,0,1-.26.49l.21,1.26h-.25l-.23-.76h-.25v.5l-.51.23-.21-1.25-2.21-1.32,0,1c.65.59.37.69.21,1.5a1.55,1.55,0,0,1,1.21,1.29H233l0,.5c-.79-.22-.52-.39-1.48-.54a3,3,0,0,0-.28,1.24l-.75,0L229.25,304H229l-.44-2a.66.66,0,0,0,.28-.74h-.25a2,2,0,0,1-.22-1l-1.24-.28,0,.49-1.5.21a7.38,7.38,0,0,0-.8,1.47l-.74,0a2.6,2.6,0,0,0-.22-1l-.76.23c.2.28,0,0,.24.25s0,.1.49.27l-.27.74c-.69-.16,0-.2-.75,0,.28.29,0,.09.5.26.2.87.31.47.72,1-.89.07-.77.29-1.52.45l.29-1.24h-.25v.25l-.75,0v.25h-.25l.47.76c-1.36.3-.87.59-1.29,1.71h-.25l-.3,1.49-.74,0V307l-.75,0a2.44,2.44,0,0,1-.28,1l1.5,0a1.39,1.39,0,0,1,.51-.48v.25l2,1V309l-1.5,0v-.25l-1.25,0V309l-2.24-.31.29-1.24-.51.23v-.25l-1.24-.28v.25l-.75,0v.25l-.5,0v.25l-2.25.18,0,.5,1.71,1.3h-.25c-.39.6-.78.7-1.76.7v-.25h.25l0-.75a1.83,1.83,0,0,0-1,.22v-.25c-.86-.18-1.28-.45-1.46-1.29l-.75,0-.27.49h-.25v-.25l-1.25,0v.25a6.14,6.14,0,0,0-1-.28l0,.5c-.08.19-.54.08-.51.48h.25l0,.75h.25l.22,1h-.25c-.13,1.13-.58,1.46-1.79,1.45l-.22-1.26h-.25c-.27-.3,0-.1-.49-.27-.75-.71-2.16-.11-2.75.17v-.25a2,2,0,0,1-.48-.76c-.5.13-.21,0-.51.23h-.24l0,.75h-.25c-.36-.47-.47-.24-1-.53v-.25c-.77-.41-1.11-.12-2-.06l0-.5c-.27.13-.44.45-.52.49l-.75,0-.26.49-.5,0-.26.49c-.54.22-.73-.36-1-.27l-.27.49-.5,0-.22-.75-1.51.45v-.5l-.76.23v-.25h.25c-.14-.54-.35-.44-1-.53a2,2,0,0,1-.77.48c0-.48.06-.77-.22-1s-.19.23-.25.25c-.35.37-.23-.49-.24-.51l-1.24-.29v-.25a.67.67,0,0,0-.76.23,6.6,6.6,0,0,0-1-.28c-.22.28,0,0-.25.24.18.26.3.26.48.52l-.75,0a2,2,0,0,0-1.47-.8v-.49a11.69,11.69,0,0,0-2,.44h-.25l0-1c-.27-.29-.1,0-.23-.51l-1.74-.3v-.49a7.67,7.67,0,0,1-1.74-.31l-.27.75h.25l.24.51-.5,0c-.47-.71-.76-.31-1.22-1h.5v-.49c-1.31.66-1.31.27-2.74-.08l0,.49h.25l-.27.74a3.11,3.11,0,0,1-1.25.22l.26-.5-.49-.26.28-1h-.25l0,.5-1,.22.26-.49-1.49,0v-.25c-.62-.4-2.33.24-2.51.42a1.52,1.52,0,0,1,.73.77h-.25v.25l-2.26.43-1.24,0v.25l-1.51.46V308l-.5,0v.25l-1.25.21v.25H160V309l-.5,0v.25h-.5v.25a6.18,6.18,0,0,0-2,1.19L152.46,309v-.25l-1-.28-.23-.5-.5,0-.24-.51-.74-.27v-.25l-2.22-.81.26-.49h-.25v.25l-1.74-.3a16,16,0,0,0-4.71-1.14l0-1-.75.22v.25h-.5l-.26.49-2-.06v.25h-.5v.25c-.87.23-1.21-.47-2.23-.57l.24.26-.27.74a4.12,4.12,0,0,1-2.25-.07v-.25l-3,.17v-.25l-.5,0v-.25h-.49v-.25l-1.24-.29-.23-.5a3.23,3.23,0,0,1-1.16-3c1.23-.71.27-.72.79-1.48H127v.25l1.5,0v.25c-.44.27-.34.15-.52.74l1.74.3.23.5a4.91,4.91,0,0,0,2-.44l-1.24-.28v-.25a2.27,2.27,0,0,0,1.29-1.46c-.27-.22,0,0-.24-.26l-.75,0v.5l-.75,0v-.49c-.29.2,0,0-.25.24a1.84,1.84,0,0,0-.52.73c-.25-.2-.24-.31-.49-.51a5.08,5.08,0,0,0,.54-1.24c-1.44-.19-1.13-.73-3-.83-.78,1.19-.73.23-1.52.7v.25c.28.3.1,0,.23.51l-3.25.15v-.25l-1.5,0v-.25c-.75-.32-.73-.13-1.49,0a4.24,4.24,0,0,0-.47-1.26l-.5,0v.25l.5,0-.27.49h.5l0,1h-.25V298h-.5l-.23-.51-1,0v-.25h-.49V297l-.75,0v-.25l-1.48-.54v-.25l-.5,0v-.25l-2.23-.81v-.25h.5a6.24,6.24,0,0,0-.71-1.52l-.5.24v-.5c-.56-.5-.25.11-.75,0v-.25h-.25v.25l-1.74-.05-.48-.76-.5,0-.23-.5-.5,0v-.25l-.74-.27,0-.5c-.44-.25-.38-.36-1-.53v-.25l-1.5.21,0,.5-1.5.2-.26.5-3.5-.11.59-3c-.67-.19-3.17-1.76-2.43-2.32l-.5,0,0-.5-.75,0v.25H95c.46.23-.51.23-.51.23-.27-.29,0-.1-.49-.26l.27-.49H94c-.39-.7-1-.67-1.21-1.53l-.75,0V283c-.27-.3-.1,0-.23-.51l-.5,0c0-.35,0,0,.25-.24a1.2,1.2,0,0,0-1-.77c-.16-.7-.06-.56-.73-.78v.5a5.18,5.18,0,0,0,1.23.54V282l-1.24,0v-.5a2,2,0,0,1-1.24-.28v-.25c-.77-.46-.69.4-1-.78l1,.28.27-.49c.84-.24.74.39,1,.53l.75-.23-.22-.76-1.5,0v.25l-1,0v-.25l-1.75.2c-.23-.39-.48-.44-.73-.77.44-.27.34-.15.52-.74h-.25a1,1,0,0,1-.51.48l.27-.74H85.2v-.25l-1.49-.29v-.5c-1.21-.09-.83-.29-1.73-.55,0,.79.48.48-.27.74l0-.5h-.5v.25a6.14,6.14,0,0,0-1-.28l0,.5L78,276.6l-.28,1c-.28-.29-.1,0-.24-.5l-1.24-.29v.25l.74,0v.25h-.25c-.15.1,0,.41-.51.24v-.25h-.5l-.27.74a2.62,2.62,0,0,1-.49-.52l-.75.23v-.25L72,276.93v-.25l-.5,0v-.25c-.66-.31-1.37-.21-2-.55a10.19,10.19,0,0,1-1.47-1.05c-.47-.78.46-.6-.72-1l-.23-.75a1.94,1.94,0,0,1-1-.28v-.25l-.75,0v-.25l-4-.12v.25l-1,.22v.25l-1.51.21v.25c-.63.43-.54.59-1.52.7v-.25l-1.49-.29v-.25l-.74,0v-.25l-1,0v-.25l-1,0v-.25l-1,0c-.9-.35-1.43-1.05-2.46-1.32l0-.5a4.89,4.89,0,0,1-2.16-3.06c-1.55-.16-2.07-1-3.2-1.34v-.5a4.54,4.54,0,0,1-1.45-1.54v-.5l-.49-.26c-.18-.29-.18-1.09-.46-1.26l-1.5-.05s0-.16-.49-.26v-.5l-1.46-1v-.5h-.25c-.33-.38-.12-.33-.73-.52l-.22-1.25h-.25c-.53-.66-1.49-.81-2.2-1.31l-.24-.51h-.5l-.48-.77h-.49l-.24-.51h-.5l-2.17-2.56-1.7-1.55-.2-1.75-.49-.27-.23-.75H27.4v-.5l-.49-.26,0-.5-.49-.27v-.5l-.49-.26v-.5l-.49-.26.05-1.75-.68-2.27-.49-.26v-.5l-1.71-1.3h-.5l-.23-.51h-.5V238l-.74-.52,0-.5h-.25v-.5l-.49-.26-.22-1-.73-.52v-.5l-.73-.52v-.5l-.73-.52v-.5l-.49-.26,0-.5H16.9l-.23-.75-.49-.27v-.5l-.74-.27-1.2-1.53-.74-.27v-.5l-1-.78,0-.5-1-.77,0-.5-1.2-1.79c-1.29-1.38-2.94-2.1-3.37-4.34l-1.48-.54c0-2.22-1.42-2.67-1.61-4.79a12.12,12.12,0,0,1-2-.56L1.54,210l-.74-.27-.14-3.75H.41l0-.5H.18c.05-.42.5-.46.51-.49l-.21-1.5a2.3,2.3,0,0,1-.48-.52c1-.19,1.83-.68,1.8-1.94H1.56v-.25h.25l0-.75h.25l0-1.75h.25l0-.75h.25c.28-.66.19-1.43.55-2l.51-.24v-.5H4c.57-.64,1.13-.88,1.31-2-.32-.17-.33-.41-.49-.51l-.5,0-.23-.5-1,0v-.25l.51-.24,0-1a9.58,9.58,0,0,0,.8-1.73,9.6,9.6,0,0,0,2-.69l.52-.73h.5l.78-1h.5L9,185.7l.76-.23,0-.75,1.55-1.7,1.24,0,.27-.49a2.71,2.71,0,0,1,1.77-.7l0-1.25,1-.72v-.25l.5,0,.26-.49h.5v-.25h.5l.51-.48.5,0,.27-.5c.51-.42.79-.44,1.76-.44.39.63,1.17.57,2.23.56l.27-.74h.25l.05-1.75.26-.24c.27-.14.41-.43.51-.49l.5,0v-.25l1,0V175l.5-.24.27-.49h-.25c-.13-.61-.25-.55-.47-1l.5,0v.24l1.25,0,.28-1.24c1.12-.26.91-.91,2-1.19.29-2.41.76-2.23,2.34-3.18l.27-.49,1,0v-.25l.5,0V167c1.39-.42,1.44,1,2.51-.43.29-.27.1,0,.26-.49l2.26-.18v.25l1.49,0v.25h.5v.25l.75,0v.25l.5,0,.23.5c.8.35,2.08-.88,3.51-.39v.25l.75,0v.25c.79.27,2.49-.3,3-.41l1.49.29,3-.16a11,11,0,0,1,2.83-2.67l1,0,1-1.21.75,0v-.25l1.49.29v.25c.58.22,1.34-.23,1.5-.21v.25l.74,0v.25c.42.09.43-.23.5-.24l1.25,0,2.24.31a65.08,65.08,0,0,1,10.78-1.43l0-.75h.25v-.25l3,.34v-.25l1.51-.46v-.25c1-.33,1.79.21,2.51-.42.29-.28.1,0,.26-.5l3.76-.39v.25l.75,0v.24l.5,0v.25l1.76-.2v-.25c.42-.06.44.25.5.26l3.25-.15V160l.5,0,.27-.5.49,0,.53-.74,1-.22v-.25c.53-.11,1,.59,1.74.31l.26-.5,3.24.1V158l1.51-.46v-.25l.75,0v-.25H107v-.25c.75-.18,1.71,1.11,3,.59l.27-.49h.49v-.25l.5,0v-.25l2.49.32v.25a13.33,13.33,0,0,0,5-.11l0-1c.53-.26.46-.39,1.27-.47.85,1.49,2.63.8,4.23.38l2.24.06c3.93-1,8.42-1.29,12.31-2.38l1.25,0v-.25l1.25,0v-.25c.93-.26,1.9.12,2.51-.43.87-.71,1.05-1.75,2.07-2.43V150l7,.2c.64-.5,1.81.11,2.75-.17v-.25l.75,0v-.24h.5v-.25l.75,0v-.25l2.49.08v-.25l1,0v-.25l1,0v-.25l1,0v-.24l1,0V148l1.25,0v-.25l1,0v-.25l1,0v-.25l1.51-.45v-.25l2,0v-.24l.75,0v-.25l1,0V146l.74,0v-.25l1,0v-.25l1,0v-.25l4.26-.63.53-.73.74,0v-.25c1.32-.41,2,.5,3.49.11,2.34-.64,5-1.36,7.55-1.78a6.46,6.46,0,0,1,1-1.72l0-.5h.25v-.5l1-.72,0-.5.5-.23,0-.5h.25V137h.25l0-.74h.25a3,3,0,0,0,.79-1.22,3.93,3.93,0,0,1,2.21,1.06l.76-.23v-.25l.5,0,.26-.49,1.25,0v.25l.51-.23,2.35-3.68,1.25,0v-.25l1,0c.33.66.43.43.46,1.51a2.44,2.44,0,0,0-1.31,2.21c.48.48,0,.12.22.75.36,1-.12,1.08-.31,2.24,1.08,0,1.15,0,1.76-.45v-.25l1-.22v-.25l1.5,0v-.25l1.51-.46.27-.49,1-.72.52-.73,1-.22.27-.49,1-.22.27-.5.5,0,1-1.22c.84-.54,1.17,0,1.53-1.2,2.67.07,2.92-.65,4.06-2.13l1.28-1c.52-.68.31-1,1.28-1.21v.25l1.24.28.24.51h.5v.25l.5,0v.25l.75,0V128h.5v.25l.49,0v.25c.66.61.06,0,.47.76h.25l0,.74.74.52,0,.5h.25c.38.43.19.39,1,.53v-.25c.35-.24.74.08,1-.22v-.5l.76-.48,0-.5.51-.48h.5v-.25l1-.71.09-3.25.51-.23v-.5H237l0-.5h.25l.27-.74c2.63.05,2.87-.67,3.57-2.64l0-1,.81-2.22c.8-.13,1.56-.81,2.76-.42v.25l1.24.29.52-.74,1.75-.2V116h.25l0-1h.25c.37-.47.69-.58,1-1l1.48.55c.17.8.32.91,1.22,1a2,2,0,0,1,.53-1h.25l1.09-3.21,1.75,0v.25c.62.18.41.15.74.52h.25l0,.5,1,.77v.25c.4.3.57,0,1,.53.51-.13.22,0,.51-.23.78-.43.78-1,1.3-1.71h.25a2,2,0,0,0,.53-1c2,0,2.56.87,4.21,1.12.39-.6.74-.37,1-.72l.28-1,.5-.23c.7-1,.65-1.65,2.3-1.68v-.25c.33-.09.61.7.72.77h.5l.44,2,3.71,1.11v-.25l.5,0v-.25h.5v-.25c.57-.28,1.23-.47,1.77-.7.28,1.18,1.15,1.2,1.43,2.54A3.16,3.16,0,0,0,281,113v-.25h.5l.27-.49,1-.22.26-.49h.5l.27-.49.5,0,.77-1,.5,0,.27-.5c1.16-1,1.43-1.26,3.27-.9L290,112l-.28,1.24c.84-.15,1-.51,1.76-.69a22,22,0,0,1,.94-6.47l.05-1.5h.25c.19-.57.08-1,.29-1.49l2.22.82a2.21,2.21,0,0,0,.47,1H296v.49h.25l-.06,2,.49.26v.5h.24l.22,1h.25l0,1.25h.25a5.45,5.45,0,0,1-.32,2.49l-.07,2.25h-.25l-.29,1.24,1.5,0,.23.76h.25V117l1,0,.79-1.23,1.75-.2.27-.49.75-.23v-.25L308,113a7,7,0,0,0,.79-1.48l2.75.08v-.25l1-.22.26-.49,1-.22.52-.73,1.25,0,.31-2.24,2.55-1.67.59-3.23a17.53,17.53,0,0,0,4.26-.62l0-1a6.11,6.11,0,0,0,2.26-.43,4,4,0,0,0,2.58-2.67l1.49.29v.25l1.75,0v.25l2.25-.19c.52-.84,1.43-1.22,2.05-1.93l1.49.54,4.53-1.37v-.25c.7-.56.08,0,.52-.73h.25v-.5l.77-.48v-.5l.76-.47c1.14-1.08,1.57-1.66,3.8-1.64.28.35.44.39,1,.53V92c-.29.27-.1,0-.26.49l4.29-1.62.27-.5.75-.22v-.25a2,2,0,0,1,1-.47c.46-1.49,1.68-1.4,3.05-1.91v-.25l.75,0v-.25l1-.22v-.25l.75,0v-.25l.5,0v-.25l1-.22v-.25l.75,0v-.25l.75,0v-.25l.75,0V85l.75,0v-.25h.49V84.5l.75,0v-.25l2.24.31c.2.29,0,0,.24.26l.64,3.51a2.57,2.57,0,0,0,1.76-.44l.27-.5.5,0,.26-.49.75,0a21.76,21.76,0,0,0,3.54-1.4v-.5l.76-.47,0-.5.5-.24,0-.5.51-.23v-.5h.25l0-1h.25l.52-.74.5,0,.26-.49a4.42,4.42,0,0,1,1.78-1l.29-1.49,1-.72,0-.5.76-.48v-.24l1.49,0,.26-.24-.24-.51h.25a4.13,4.13,0,0,1,1.78-1v-.5l.75,0v-.25h.25l0-.75-.75,0v-.25c-.28-.29-.1,0-.24-.5l.75,0v.25c1.27.37,2.07,1.52,2.92,2.33l.24.51,4.74.13c.53-.54.57-.15,1.26-.46V74.7l.5,0,1-1.22h.25l.26-.5.5,0,1.29-1.46h.5l.78-1h.5l.26-.49h.5l.52-.73.5,0,.27-.5.5,0V68.7l.76-.23.26-.49h.5l.52-.73h.5l.27-.49.49,0v-.25l.76-.23.26-.49h.5l.52-.73h.5l.26-.49.5,0V64.4l.76-.23.26-.49h.5l.52-.73,1-.22.26-.49,1-.22v-.25l.76-.23.26-.49,1-.22.26-.49h.5v-.25a4.44,4.44,0,0,1,1.78-1.19l-.05,1.74,1.51-.45V60h.5l.26-.49h.5v-.25l.5,0,.51-.49.5,0,.26-.49h.5v-.25l.5,0,.51-.49.5,0,.26-.49h.5v-.25l.5,0,.51-.49.5,0,.52-.74.5,0v-.25l.75-.23.27-.49h.5l.52-.73h.5l.26-.49.5,0v-.25l.75-.23.27-.49h.5l.26-.49h.5l.26-.49.5,0,.27-.49h.49l.27-.49h.5l.26-.49.5,0,.26-.5.5,0,.27-.49.75-.23v-.25l1-.22.52-.73h.5l.26-.49h.5l.26-.49.75,0v-.25l1-.22v-.24l.75,0v-.25l.75,0v-.25h.5v-.25l.75,0v-.25h.5V45l.5,0v-.25h.5v-.25l.5,0v-.25h.5v-.25l.49,0v-.25l1.51-.46v-.25c.9-.37,1.77-.22,2.52-.67v.25h.25l0,.75a8.66,8.66,0,0,0-2.58,2.67l-.76.48-1.55,1.7c-.73.69-1.73,1.09-2.06,2.19l.76-.23V50l.5,0,.27-.49h.5l.26-.49,1-.22.27-.49h.5l.26-.49.5,0,.26-.5.5,0,.27-.49,1-.22v-.25l.76-.23.26-.49h.5l.26-.49,1.51-.46.27-.49.5,0,.51-.49.5,0v-.25h.5v-.25l1-.22.26-.49.5,0,.51-.49.5,0V42h.5v-.25l1-.22.27-.49h.5v-.24h.5v-.25h.5l.51-.48.5,0,.26-.5.5,0,.52-.49.5,0v-.25h.5v-.25l.5,0v-.25h.49l.52-.48h.5l.26-.49.5,0,.51-.49.5,0v-.25h.5v-.25l.49,0V36.3h.5l.26-.49,1.26-.21v-.25h.5v-.25l1-.22v-.25l.74,0v-.25h.5v-.25l1-.22v-.25l.75,0v-.25l1-.22V33l.75,0V32.8l1-.22v-.25l.74,0V32.1h.5v-.25l1-.22v-.25l.75,0v-.25h.5v-.25l1-.22v-.25l.74,0v-.25l1-.22v-.25l.75,0v-.25h.5V29.3l1-.22v-.25l.75,0V28.6l1-.22v-.25l.74,0v-.25h.5v-.25l1-.22V27.2l.75,0V27l1-.22V26.5l.75,0v-.25l1-.22v-.25l.74,0v-.25l1-.22v-.25l.75,0v-.25l.5,0v-.25l.74,0v-.25h.5v-.25l5.28-1.34c4-1.6,8.62-2.77,12.61-4.37l.75,0v-.25l.75,0V18l.75,0v-.25l.75,0v-.24l.74,0c6-2.44,12.9-4,18.92-6.44l.75,0v-.25l.75,0v-.25l.75,0v-.24l.74,0c5.46-2.2,11.7-3.8,17.16-6l2.26-.44V3.8l.74,0V3.58l.75,0V3.35l.74,0V3.12l.75,0V2.89l.5,0V2.66l1.76-.2V2.21l.75,0V2l.75,0V1.76l.74,0V1.53l2.76-.42V.86l2.25-.18V.43l2.5-.18V0l4.24.12C588.3.17,588.22.46,588.92.64Zm-202.35,72h.5v.25C386.57,72.74,386.85,72.92,386.57,72.64Zm0,1.24.49,0v.5l-.5,0Zm2.73.33v.5H389v-.49Zm-2.78,1.17h.25v-.25H387l0,.75.74,0v.49l-.75,0C386.83,75.78,386.71,75.84,386.49,75.38ZM315,122.73V123l-.76.22,0-.49Zm685.74,64.72c-.5-.16-.22,0-.49-.26C1000.69,187.35,1000.41,187.16,1000.69,187.45Zm-56.6,5.84h.5c-.25.44-.37.38-.53,1l-.5,0,0-.75-1.49,0V193C943,192.91,943.5,192.64,944.09,193.29Zm-163.82,1,0,.5H780l0-.5Zm31.37,3.16c-.5-.16-.22,0-.5-.26C811.64,197.31,811.36,197.12,811.64,197.41Zm-493.51,4.31c-.22.28,0,0-.25.24v.25h-.25l0-.75Zm1,.53h-.25V202c-.27-.22,0,0-.24-.25h.5Zm-69.91-.05c-.5-.16-.22,0-.5-.26C249.21,202.1,248.93,201.91,249.21,202.2ZM176,203.31v.25a1.88,1.88,0,0,0-1-.28V203l1.25-.21C176.12,203.31,176.31,203,176,203.31Zm479.54,20.5h-.25v.25h-.25l-.22-.76A2,2,0,0,1,655.56,223.81Zm326.58,17.53v-.25h.25v.25l1.74.05v.25h.25l.26-.25v.25h.25v.25c-2.49-.07-3.79-.1-6.49-.19v-.25c.79-.43,1.26.33,2-.44A3.32,3.32,0,0,0,982.14,241.34Zm-305.37-8.67c-.49-.16-.21,0-.49-.26C676.78,232.57,676.5,232.38,676.77,232.67ZM988.61,242c.22.11-.5.47-.52.48l.27-.49Zm-311.86-8.61h.5v.5l.5,0v.25H678V234l2.74.09.23.75a2.07,2.07,0,0,0-1,.47v.25h-.5l-.27.49-.49,0v.25c-.42.1-.45-.25-.49-.26a7.28,7.28,0,0,0-2.75.17C675.46,233.78,675.74,234.53,676.75,233.42Zm262.59,11.41c-.5-.16-.22,0-.49-.26C939.34,244.74,939.06,244.54,939.34,244.83ZM205.61,224.4h-.25l-.23-.75h.5ZM679.12,238h-.25v.25s-1-.07-.49-.27h.25v-.25C679.12,237.88,678.84,237.69,679.12,238Zm1.21,1c.55-.08.49-.23.51-.24l1.25,0v-.25l.74,0v.25c-.54.29-.56.56-1.27.71v.25l-1-.28s-.06.19-.51.24ZM205.85,224.91l0,.75h-.24l0,.5h-.25l0-1.25Zm723.7,21.64c-.49-.17-.22,0-.49-.27C929.55,246.45,929.27,246.25,929.55,246.55ZM286.66,227.77v.5a3.19,3.19,0,0,0-1.26.21l0-.5Zm674.57,19.7L961,248l-1,0v-.24l1,0v-.25Zm-277.67-7.61c-.5-.16-.22,0-.5-.26C683.56,239.76,683.28,239.57,683.56,239.86ZM205.78,227.15h-.25a1.75,1.75,0,0,0,.28-1h.25l.21,1.26C205.78,227.25,206.06,227.45,205.78,227.15ZM955.2,248.79v-.25l.74.28.26-.25.22.76-.74,0v-.5ZM206.49,228.67h-.25c-.22.28,0,0-.26.25v-.5C206.49,228.57,206.21,228.38,206.49,228.67Zm4.74.14v.25c-.59-.18-.47-.08-.74-.52ZM681.71,243.3h-.25v-.24l-.5,0v-.25l.75,0ZM206.22,229.16l0,.75H206l-.23-.75Zm4.21,1.12h.25c.29-.27,0-.1.51-.23.2.28,0,0,.24.25-.16.5,0,.22-.26.5v.25l-.75,0Zm-.51.49c-.49-.17-.22,0-.49-.26C209.92,230.67,209.64,230.48,209.92,230.77Zm475.49,14.14v.25h-.25v.25l-1.49,0,.26-.5ZM210.87,232.3h.25l0-.5c-.66.57-.67-.11-1,0V232h-.25c.17-.5,0-.22.27-.5v-.24c.53.38.57.11,1.24,0l0,1.25S210.41,232.52,210.87,232.3Zm-4.71-.89h.25c.2.28,0,0,.24.25v.25h-.5Zm29.42,1.36c-.22.27,0,0-.26.24v.25h-.25l0-.75Zm71.58,2.59.24.5.75,0,.23.5.5,0,.95,1.77-.49-.26,0,.5-.5,0v.5l-2.23-.81v.5l.74.27c-.29.27,0,.1-.51.23v.25c-.53.17-.6-.3-.74-.52h-.5v-.25h.5l-.24-.26,0-1.49h-.25l-.22-.76.49,0a3.91,3.91,0,0,1-.45-1.51A4.77,4.77,0,0,1,307.16,235.36ZM209,235.24v.25h.25l0-.74h-.24v-.25a1.39,1.39,0,0,0-.51.48h-.5l.27-.74h.25a.67.67,0,0,0-.23-.76l.29-1.24h-.25V232l1.24,0c-.25.44-.36.38-.52,1l.75-.22.23.75-.75,0c0,1.55.63,1.53.66,3,.26-.18.26-.29.52-.48l0,.5h.25c-.21.31-.22.26-.51.48.06.85,0,.8.72,1a2.44,2.44,0,0,1-.28,1h-.25l.23.76c-.29.2,0,0-.26.24l-1,0v.5c1.66,0,1.18-.26,2-.94.21.29,0,0,.24.26v.5l-.51.23.23.76h-.25a.92.92,0,0,0,.49.51l-.3,1.49h.25a5.65,5.65,0,0,1-.07,2.5h.5c.15.68.32.57.46,1.26-.25-.2-.24-.31-.48-.51-.11.55-.17.29-.27.49.05.5.35.26,0,.75l-.51.23.23.76c-.26.24-.81-.12-1,.22l.21,1.25-.51.24v.5a3.75,3.75,0,0,1-1.29,1.21c.49.87,1,.7,2,1.06l-.31,2c.07.35.33-.08.25.26h-.25l-.57,2.23h-.25c-.23.87.28.69.47,1l-.26.49.5,0c-.25.44-.39.36-.53,1h.25l0,.5.76-.23a2.43,2.43,0,0,1,.22,1l.5,0,0-.75h.25l0,1a10.05,10.05,0,0,0-2,.2l0,.74.75-.22.24.5h-.25v.25h.25v.25c.43.23.63-.12.76-.23h.25l0,.75-1.49-.29-.55,1.48c.81.12.73.25,1.24.53-.3.42-.17.35-.77.48.28.29,0,.11.49.26-.1.85-.21.92-.78,1.23V268l-.74-.27a3,3,0,0,1,.21,1.25l-1.49,0v.25l-1,.47-.24-.26c-.23.28,0,0-.26.24a1,1,0,0,0,.48.52c-.22.27,0,0-.25.24v.25l-.49-.26v.24h-.5a5.18,5.18,0,0,1,.54-1.23l-.5-.27c-.19-.14.1-.37-.24-.25v.25l-.51.23v-.5l-1.75.2.28-1-1.51.21V268h-.25l.27-.74c-.5.13-.21,0-.5.23a1.87,1.87,0,0,1-.48-.76c-.27-.22,0,0-.24-.26l.5,0c0-1.7-.45-3.47.63-4.48v-.5a2.44,2.44,0,0,0,1,.28l0-.5-.75,0a5.62,5.62,0,0,1,.53-1.23,1,1,0,0,1-.48-.52h-.25l0,.75-.75,0c-.09.71-.13.91-.54,1.24V262h-.25l-.18-2.25.5-.24.3-1.74.51-.23.56-2.23h.25l0-.5.5-.23.31-2h.25l.58-2.73h.25v-.5h.25l-.22-1h.25l0-1.25h.25l-.23-.76c.29-.35.48.29.77-.73l.5,0-1.49,8.44c-.66,1.63-2.08,3.33-2.16,5.43l.5,0c.22-.84.61-1.13.81-2l.49,0c-.13-.5.05-.21-.23-.51,0,0,.06-1,.26-.49v.25h.25v-.5h-.25a5.9,5.9,0,0,0,.28-1l.5,0c.27.28,0,.1.49.26a5,5,0,0,0,.8-1.72l-.76.22v-.25H205c.3-.43.05-.87.29-1.49h.25l.33-2.48h.25v-.5l.51-.23v-.5h.25c.37-.88,0-2.36.59-3v-.5a3.09,3.09,0,0,0,1.24.29l0-.5c-.75-.11-.69-.05-1-.53h-.25c-.15-.41.26-.45.27-.49l.09-3.24c0-.07.35-.06.27-.49l-.25-.26h.5l0-.5-.49-.26.36-4ZM171.7,231.4c-.29.21,0,0-.26.24,0,0-1-.06-.49-.26h.25v-.25C171.7,231.3,171.42,231.11,171.7,231.4Zm63.61,2.11,1.51-.46-.28,1H236l-.28,1-.75,0,0,1-.75-.28.22,1h-.24V237c-.13-.09-.41.06-.24-.25.05-.1.44.05.25-.25l-1,0a5.19,5.19,0,0,0,1.07-2.21l.75,0Zm11.22.33c.15.46-.15.35-.26.49v.25H246l.27-.74ZM210.6,233l0,.74h-.25l0-.75Zm-4,.13v.5h-.25v-.5Zm74.83,2.68v-.25l.49.27v-.25l2.74.08.22,1c-.5.14-.21,0-.5.24h-.5v.24c.48.3,1-.18,1.25-.21v.25a4.57,4.57,0,0,0,1.74.3l0,.5c-.57,0-.65-.24-1-.28l-.53,1-.49-.27-.27.74-.75,0v.25c-.35.06-1-.83-2-.56a10.65,10.65,0,0,1-2,.69l-.48-.76c-1.24.11-.94.49-1.54,1.2-.19.23-.51.17-.76.48h-.5l0-.5.75,0c-.16-.69-.33-.58-.47-1.26l1-.22c-.14-.51,0-.22-.24-.51a3,3,0,0,1,2.53-.92l.27-.75A2.16,2.16,0,0,0,281.43,235.85Zm-2.26.44c-.29.2,0,0-.26.24,0,0-1-.06-.49-.26h.25V236C279.17,236.19,278.9,236,279.17,236.29Zm-154.42-4.51,0,.5-.5,0,0-.5Zm87.81,2.56c.22.11-.49.48-.51.49l.26-.5Zm20.2,1.09v-.25l.76-.23,0,.5ZM119,232.61v.25c-.53.25-1.08-.35-1.23-.54Zm91.8,2.93c-.49-.17-.22,0-.49-.27C210.78,235.44,210.5,235.25,210.78,235.54Zm46.64,1.61v-.25l.76-.23,0,.5Zm30.2.63v-.25l.5,0,.23.75h-.25l0-.5Zm3,.09c.22-.27,0,0,.26-.24l.22.75-.74,0C290.51,237.87,290.32,238.15,290.61,237.87Zm13.22.64s-.08,0-.49-.52C303.41,238.05,304,238.27,303.83,238.51Zm6.49-.06v.25c-.44.2-.62-.17-.74-.28Zm-5.26.59c-.59-.18-.47-.08-.74-.52A1.91,1.91,0,0,1,305.06,239Zm-93.8-3h.25c.21.29,0,0,.25.26v.25l-.5,0ZM233,237.18c-.25.85-.55.63-.79,1.48l-1-.28c.25-.44.37-.38.53-1ZM662.79,250l0,.5h-.25l0-.5ZM271.11,238.8l0,.5-.5,0,0-.5Zm6.23.18.5,0v.24C277.34,239.09,277.62,239.27,277.34,239Zm1.22,1.28s-.08,0-.49-.51C278.14,239.81,278.75,240,278.56,240.26Zm-72.85-2.12h-.25c-.22.27,0,0-.26.24l0-.5C205.71,238,205.43,237.84,205.71,238.14ZM270.57,240h-.25c-.22.28,0,0-.25.25v-.5C270.57,239.93,270.3,239.74,270.57,240Zm-40.41-1.18a2.86,2.86,0,0,0,1.24.29v.25l-1.25,0Zm-53.89-1.32c-.18.6-.28.54-.53,1h-.5l.78-1Zm103,3.26c-.49-.17-.22,0-.49-.27C279.29,240.69,279,240.49,279.29,240.79Zm403.4,11.53v.25a1,1,0,0,0-.52.48l-.75,0,0-.75Zm-405.9-11.61c.21.29,0,0,.25.26-.17.49,0,.22-.27.49v.25a6.51,6.51,0,0,0-1.24-.53l0-.5Zm-71.35-1.83,0,.75c-.2.29-.25-.26-.25-.26h-.24l.26-.49Zm73.83,2.65,0,.5H279l0-.5Zm-49.16-.93c-.29.2,0,0-.26.24,0,0-1-.06-.49-.26h.25v-.25C230.11,240.5,229.83,240.3,230.11,240.6Zm-24.22,0,0,.75h-.24l-.23-.76ZM280,243.8v.5h-.25v-.5Zm153.68,4.49c.22.11-.5.47-.52.48l.27-.49Zm-228.29-6.17,0,.75h-.25l0-.75Zm22.21.65-.27.49h-.5V243c.5-.14.21,0,.51-.24ZM267.93,245a3.41,3.41,0,0,1,.78-1,2.48,2.48,0,0,1,.22,1Zm-17.45-.76h.25c.22-.28,0,0,.25-.25v.5C250.47,244.29,250.75,244.48,250.48,244.19Zm43.41,1v.25a1.51,1.51,0,0,1,.72,1.27h.25l-.28.74c-.49-.16-.21,0-.49-.26h-.25l0-1h-.25a2.11,2.11,0,0,1-.47-1Zm-84.58-2,1,.27v.25c-.48,0-.78,0-1,.22v-.25H209Zm85.81,2.5v.5h-.25l0-.49Zm-89.33-1.86,0,.75h-.25l0-.75Zm58.36,2.21c-.49-.17-.21,0-.49-.27C264.16,246,263.88,245.79,264.15,246.09Zm-58.88-1.47,0,.74H205l0-.75ZM167.59,244c-.29.21,0,0-.26.25,0,0-1-.07-.49-.27h.25v-.25C167.59,243.91,167.31,243.72,167.59,244Zm81.33,2.13v.5l-.5,0v-.49Zm8,1.23h-.25c-.23.28,0,0-.26.25v-.5C256.88,247.27,256.6,247.08,256.88,247.37Zm-94.31-2.75v.25h-.25c-.21.7-.47.7-.79,1.22h-.25c.24-.8.67-.87,1.05-1.47Zm48.89,1.67.5,0v.25C211.46,246.4,211.74,246.58,211.46,246.29Zm37.16,1.59h.25c.21.28,0,0,.24.25v.25h-.5Zm-5.76.58v.5h-.25v-.5Zm-.08,2.74c-.29.21,0,0-.26.25l-.75.22-.23-.75h-.25l.29-1.49h-.24v-.24l1.5,0Zm550.38,14.58v-.25l.75-.22v.5ZM287.17,253v.25h-.25v.25h-.25l-.24-.5Zm-157.7-3.36c-.49-.16-.22,0-.49-.26C129.47,249.54,129.19,249.35,129.47,249.64ZM242,253.93v-.25l-1,.22.79-1.23.75,0,0,1.25c0,.07-.33.07-.26.49h.25l0,.75h.25c.06.35,0,0-.25.24,0,.52.52,1,.2,1.75l-.51.24,0,.75-.51.23v.5h-.25l0,.5H241l0,1.25h-.25l-.28,1h-.25l0,.75c-.33.65-.82.75-1.05,1.71h-.5l-.28,1h-.25l.23.76-.5,0,.29-1.24h-.5V264h.25v-.25h-.25c-.2-.93.09-1.47-.44-2v-.25l.74.27v-.5s-1-.05-.49-.26h.25l0-.74.76-.23,0-.75.5,0v-.5h.5l0-.5c1-.1.82-.33,1.51-.7v-.25l-.75,0-.27.74c-.49-.17-.21,0-.49-.27h-.25s.06-1,.27-.5v.25h.25a1.37,1.37,0,0,0-.47-1,2.39,2.39,0,0,1,.28-1l1.25-.22A3.06,3.06,0,0,1,242,253.93Zm20.37,3.59,1-.72c.79-.78,1-1.9,2.31-2.18v-.25l1,0,0,.5c-1,.24-.8.72-1.77.94l0,.5-.5.24.22.75-.75.23-.27.74h.25l0,.5c-.73-.21-.6-.42-1.48-.54Zm-57.1-2.67H205v-.25c-.28-.22,0,0-.24-.25h.5Zm44.42,1.05h.24l0,1,1,0v.25s1,0,.5-.23h-.25v-.25l.5,0c.17.68,0,.57.73.77l0,1h-.25c-.18.58-.09.46-.52.73v.25l-1.24-.29v-.49l-1.24,0v-.5h.5l0-1a3,3,0,0,1-1.26.21c.31-.73,0-.28.76-.23l0-.75.5,0Zm-37.95-.36v.5h-.25v-.5Zm75.33,2.7c-.49-.17-.22,0-.49-.26C287,258.14,286.74,258,287,258.24Zm-154.69-4c-.29.21,0,0-.25.24,0,0-1-.06-.5-.26h.25V254C132.33,254.12,132.06,253.93,132.33,254.22Zm119,3.48h.5l0,.75h-.25v-.25C251.29,257.91,251.47,258.2,251.33,257.7Zm3.48.6v.25l-.5,0c-.42.3-1.13-.07-1.48-.54Zm-4.24-.13c.27.3.1,0,.23.51h-.25Zm527.87,15.92h.24l0,1h.24v.25h-.5ZM208.38,257.94l.74.27c-.22.28,0,0-.26.24v.25c-.48.14-.64-.25-.73-.52C208.22,257.84,208.3,258.29,208.38,257.94Zm31.18.91,1,0v.25l-1,.72v-.25c-.21-.29-.21.09-.24-.26Zm21.71.63,0,.5h-.5l0-.5Zm-50.65-1.23,0,.5h-.25l0-.5Zm13.7.9v-.24l.75-.23v.5Zm-7.73-.22c-.5-.17-.22,0-.49-.27C216.59,258.83,216.31,258.64,216.59,258.93Zm44.15,1.29v.25l-.76.23,0-.5Zm-54.65-.85.75,0v.25h-.25c-.29.27,0,.09-.51.23Zm82.5,4.91v.5h-.25c.17-.59.08-.47.52-.73,0,0,0-1-.24-.51v.25h-.25l1.29-1.71C290.25,262.82,289.23,264,288.59,264.28ZM238,260.8c.27.3.1,0,.23.51H238Zm1.24,0c.28.29.1,0,.24.51h-.25Zm3.22.84v.5h-.25l0-.49ZM739.42,276.2h.25v.49l-.76.23,0-.5C739.42,276.3,739.13,276.47,739.42,276.2ZM126.45,259c-.49-.16-.22,0-.49-.26C126.45,258.94,126.17,258.75,126.45,259Zm87.81,2.57H214c-.22.27,0,0-.25.24v-.5C214.26,261.51,214,261.32,214.26,261.61Zm28.13,3.07v.25h-.25l0-1.25h-.25c.05-1,0-1,.78-1.22C242.7,263.21,242.77,264.29,242.39,264.68Zm108.07,1.41,0,.74h-.25a3,3,0,0,1-.21-1.26C350.22,265.77,350.21,265.89,350.46,266.09Zm-184.86-5.4v.24c-.58-.17-.46-.08-.73-.52Zm-36.44-.32v.25l-1,0v-.25l2.27-.68,0,.5Zm75.35,1.7.5,0v.25C204.51,262.18,204.79,262.36,204.51,262.07Zm75.8,3.71h-.25c0-1-.06-1.28.79-1.48v.5h-.5Zm7.5-.53h.25c.22-.27,0,0,.26-.24l0,.5C287.81,265.35,288.09,265.55,287.81,265.25Zm-152.17-4.44v.25c-.6.22-.9.19-1.27.71h-.5v-.25a1.19,1.19,0,0,0,1-.72Zm78.54,3.54v.25l-1.25,0v-.24h-.25c-.15-.47.15-.35.26-.49v-.25l.74.27,0,.5ZM733.85,279h.25v.25h-.25v.25h-.25l-.22-.75C733.85,278.93,733.57,278.74,733.85,279Zm-493-14.4c.21.29,0,0,.24.26a4.87,4.87,0,0,1-.81,2.22c-.21.68-.08.57-.77.73l.28-1.24a.4.4,0,0,1-.23-.51h.25l.29-1.49Zm-38,2.14.74,0v.5l-.5,0V267l-.76.23.27-.74h-.25c-.23.28-.18.29-.51.49v-.25h-.25l.27-.74.51-.23v-.25h-.25l.29-1.24h.25V264l1,0c.21.28,0,0,.25.25a2.62,2.62,0,0,1-.52.49l.23.75-.51.24Zm-65.54-4.41c-.21.7-.47.7-.79,1.22-1.29-.06-1-.12-1.73-.55l0-.5Zm142.41,5.4v-.24l.5-.24,0-.75c.77.27.37.15,1.24,0v.5l-.5,0c-.12.05-.09.45-.51.49-.27-.23.1-.19-.25-.26v.5Zm469.54,12.72H749l0,.5-.49-.26.26-.49S749.75,280.26,749.29,280.48Zm22.2.65c-.5-.16-.22,0-.49-.26C771.49,281,771.21,280.84,771.49,281.13Zm4.4,3.12h-.25v.25h-.25a9.78,9.78,0,0,0,1.09-3C777.13,282.31,776.21,283.64,775.89,284.25Zm-566.23-19v.5h.5c-.39.84-.56,1.19-1.79,1.2l.28-.74h.25C209.35,265.42,208.48,265.51,209.66,265.22Zm564,17.47L774,282h.25v-.25h.25l-.28,1ZM212.64,265.8v.25c-.44.2-.62-.16-.74-.27Zm63.1,2.35c-.22.27,0,0-.25.24v.25l-1.23-.54.26-.49A5.18,5.18,0,0,1,275.74,268.15Zm500,14.1v.5l-.75,0v-.5ZM281.23,268.31c-.49-.17-.21,0-.49-.27C281.23,268.21,281,268,281.23,268.31Zm-68.11-1.74c-.49-.17-.22,0-.49-.27C213.12,266.47,212.84,266.28,213.12,266.57ZM282,268.33v.5h-.25v-.5ZM750.15,285l0-.75h-.25v.24h-.25v-.25l-.74,0V284l-1,0v-.25l-.5,0v-.25l.75,0v-.25l.5-.24,0-.5H749V282h.25l0,1.25c.93.27,1,.73,2.23.81l-.27.74A5.54,5.54,0,0,0,750.15,285ZM273,268.57c-.29.2,0,0-.26.24,0,0-1-.07-.49-.27h.25v-.25C273,268.47,272.71,268.27,273,268.57Zm-31.69-.93v.5H241v-.5Zm41.13,2.45-1,.47-.72-1,1.51-.45A2.65,2.65,0,0,0,282.43,270.09Zm492.23,13.63v-.25h.25v.25h.25V284l-.76.23C774.56,283.72,774.37,284,774.66,283.72Zm-566.59-15.3a5.19,5.19,0,0,0-.22-1l.26-.24a2.86,2.86,0,0,1,.72,1h-.25C208.29,268.46,208.57,268.28,208.07,268.42Zm32.47-.3,0,.5.75,0c.21.29,0,0,.25.26-.32.45-.72.51-1,1l-1.25,0,0-.75,1,0-.22-1Zm514.4,15.27v.5h-.25v-.49Zm-93.56-2.48c-.4.64-1,.69-1.53,1.2h-.25c.39-.57,1.08-.71,1.53-1.21Zm113.26,3.56c.22.11-.5.47-.52.48l.27-.49ZM205.58,268.34c.27.3.1,0,.23.51h-.25Zm81.82,2.39.5,0v.5l-.5,0Zm460.21,15.7-.5.23v.25h-.25l-1-1.27h-.25l.27-.74-.24-.26h.25v-.25h.24c.57.67.13.94,1.22,1.28ZM240,270.85v.5l-.5,0v-.5Zm486,14.69c-.5-.16-.22,0-.5-.26C725.92,285.44,725.64,285.25,725.92,285.54Zm40.16,1.17c-.16.5,0,.22-.26.5v.25h-.25l0-1ZM742.63,286v.25c.6.17.54.28,1,.53l0,.5-.5,0,0,.75h-.5l0,1h-.25v.25c-.51.13-.22,0-.51.23h-.25c.09-1.06,0-1.29.8-1.72l0-.75c-.7.28-1.28.38-1.53,1.2h-.25l0-.75a1.42,1.42,0,0,0,1.29-1.21Zm-502.7-14.18h.25c.22-.27,0,0,.26-.24l0,.5C239.93,271.94,240.21,272.14,239.93,271.85ZM634.1,283.36l0,.5h-.25l0-.5Zm138.66,5.55a6.33,6.33,0,0,0,.79-1.48h.25v.25c.5.16.22,0,.49.26-.63.39-.57.91-1,1.47-.29.36-.62.12-1,.72H772l0-1.24ZM97,267.92l0,1a1,1,0,0,0-.52.48h-.5l0-.5h.5l0-1Zm545.34,15.93c.15.47-.15.35-.26.49v.25h-.25l.27-.74Zm122.22,4.32v-.25l.75-.23v.5Zm5.5-.09h.5l-.3,1.49h-.5A3.93,3.93,0,0,1,770,288.08Zm-39.93-.92h.25l0,.75c.14.32.12-.08.24.25h-.5ZM762,288.34h-.25v.25h-.25l0-.5C762,288.25,761.76,288.05,762,288.34Zm-18.23.22v-.25h.25l0,.75-.5,0C743.71,288.56,743.51,288.84,743.81,288.56Zm-2.77.67V289h.25c-.17.49,0,.21-.27.49v.25c-.14,0-.76.14-.5-.27,0,0,.48,0,.26-.24h-.5l.27-.49C740.86,288.93,740.69,289.06,741,289.23ZM756,290.91a16.47,16.47,0,0,0,1-1.46l1,0c.35.2.45,1.37.19,2H758l.23.76c-.25-.2-.24-.32-.48-.52-.29.44-.57.37-.77.73.31.19.23,0,.23.51-.86-.44-1.43-1.1-2.2-1.57l0-.74A2.63,2.63,0,0,1,756,290.91ZM100.39,270.77v-.25h.25l0,.75h-.5C100.29,270.76,100.1,271,100.39,270.77ZM758,290.22h-.5V290h.25v-.25C758,290,757.85,289.72,758,290.22ZM239.1,274.82l.74,0,0,.75c-.29.2,0,0-.26.24l-1,0C238.74,275.2,238.85,275.26,239.1,274.82Zm529.12,15.45v.5H768l0-.49ZM235.09,275.2c-.49-.17-.22,0-.49-.26C235.09,275.1,234.81,274.91,235.09,275.2Zm505.19,14.51V290c-.5.13-.21,0-.51.23l-1.24,0v-.25c.51-.13.22.05.51-.23ZM208.89,274.43v.25h-.25v.25h-.25l-.23-.51Zm521.87,16.25h-.25v.25a2.67,2.67,0,0,1-1-.28l0-.75h.25v-.25l.74.27Zm38.45.12.5,0,0,.74a4.42,4.42,0,0,1-1.27.47C768.63,291.33,768.89,291.32,769.21,290.8Zm-3.76.39h-.25v.25H765v-.5C765.45,291.09,765.18,290.9,765.45,291.19Zm-26,1.24v.25c-.7-.21-.7-.47-1.22-.79l0-1C738.77,291.37,738.81,292,739.45,292.43Zm16.75-.76,1.25-.21v.25l-.5,0v.25l-.76.23Zm-587.26-16.9c-.5-.17-.22,0-.5-.27C168.94,274.67,168.66,274.47,168.94,274.77Zm591.68,19.28h-.25v.25h-.25c.22-.54.35-1.69.56-2.23C761.41,292.73,761,293.31,760.62,294.05Zm5.55-1.84h.25v.25h.25v.25h-.5Zm1.74.3c-.49-.16-.22,0-.49-.26C767.91,292.41,767.63,292.22,767.91,292.51ZM98.57,273.21c0,.27-.53.71-.77.73,0-.17-.48-.6,0-.5l.27-.5ZM98,274.94v-.25h-.25v-.25c.33-.16.35-.37.52-.48h.5c.19-.14.2-.49.52-.73s0-.11.5-.23l.23.75C99.12,274,98.75,274.55,98,274.94Zm639,16.67,0,.5-.5,0v.5l-.75,0v-.5C736.52,292,736.45,291.87,737,291.61ZM246.5,277.78c-.49-.16-.22,0-.49-.26C246.5,277.68,246.22,277.49,246.5,277.78ZM117,274.25l0,.5h-.25l0-.5Zm601,17.8c-.5-.16-.22,0-.5-.26C718,292,717.71,291.76,718,292.05Zm44.4,1.3,0,1h-.25v.25h-.25l.28-1.24Zm-10,.95c-.8-.12-1-.27-1.51.46h-.5a3.12,3.12,0,0,0,.28-1.25C751.75,293.5,752.17,293.4,752.38,294.3ZM207.3,277.88l0,.5h-.5l0-.5Zm513.91,15v.25l-.76.23,0-.5Zm23.44.94.24.51s1.73-.2,2.25-.19l0,.5c.47.1.5.26.5.26l1.49,0v.25l1.26-.22,0,.5,1.75.05.27-.74,1-.47a1.7,1.7,0,0,0,.73.77v.5l-1,.22,0,.75h.25v.25l-1.49-.05v-.24l-1,0v.25l-1-.28-.27.74.74.27v.25c-1.39-.39-.35-.73-1.75-.05l0-.5c.5-.14.21,0,.5-.24l-.74-.27c-.44.52-.52.12-.78,1l-.74-.27v-.25c-.35,0,.1.21-.26.24l-.74,0v.25c-.4-.08-.26-.38-.49-.52-.87-.51-1.17-.1-1.71-1l-.5,0v-.25l.74.27a.37.37,0,0,1,.5-.23v.25l.74.27v-.25h.25v-.25c-.66-.34-.81-.68-1.72-.8l.25-.24c0-.2-.38-.84-.46-1.27ZM205.78,278.34c-.49-.17-.21,0-.49-.27C205.79,278.24,205.51,278.05,205.78,278.34Zm516.66,15.09c-.49-.16-.22,0-.49-.26C722.44,293.33,722.16,293.14,722.44,293.43ZM97.51,275.18c.21.28,0,0,.25.25v.25l-.75,0v.25l-.75,0v-.25h.5v-.5Zm8,.23,0,.5h-.25l0-.5Zm168.38,5.17h-.25c-.22.27,0,0-.25.24v-.5C273.88,280.48,273.61,280.28,273.88,280.58Zm-68.16,0c-.29.21,0,0-.26.25l-.75,0v-.25H205l-.23-.5.5-.24c.24-.51-.13-1-.21-1.25h.5l0,.5h.25c0-.3.47-.4.76-.23v.25h.25c-.25.37-.5.41-.77.72h-.5Zm555.37,14.48h.25v-.25h.25v.5C761.09,295.16,761.37,295.35,761.09,295.06Zm1.5,0c-.49-.16-.22,0-.49-.26C762.59,295,762.31,294.81,762.59,295.1ZM96.23,276.39c-.49-.17-.22,0-.49-.27C96.23,276.29,96,276.09,96.23,276.39Zm74.35,1.92c.2.29,0,0,.24.26l-.78,1-1,0V279C169.92,278.81,169.72,278.5,170.58,278.31Zm550.58,16.08v.25l-1.51.21,0-.5ZM94.7,277.59v-.25h-.25v-.25a4.66,4.66,0,0,1,1.26-.46l-.28,1Zm623.71,17.22v.25h-.25v.25l-.75,0v.25l-.75,0v-.25a2,2,0,0,0,.77-.48Zm17,.5v.25c-.44.2-.62-.17-.74-.28Zm17.21.5v.5h-.25v-.25h-.25v-.25Zm-489.22-14c.15.46-.15.35-.26.49v.25h-.25l.27-.74Zm483.48,14.12.74.27c-.16.5,0,.22-.27.49v.5c-.28-.29-.1,0-.23-.5h-.25Zm-33.44-.73v.5h-.25v-.5ZM203.72,280.77c0,.45.39.23.74.28v.25l1.25-.22.27-.49a14.39,14.39,0,0,1,1.74.3l-.55,1.48c.68.21.57.08.73.77a7.86,7.86,0,0,0-1.52.71l0,.75h.25v.25l.75,0,0-.75h.25c.22-.27,0,0,.26-.24a7.23,7.23,0,0,1,.2,1.76l-1.51.2,0,.75a3.31,3.31,0,0,0-1.73-.55l0-.75c-.49-.16-.21,0-.49-.26h-.25c.06.5.22.46.24.51.1.33-.11,0-.26.24,0,.37.24.33.48.51v.25c-.75-.11-.69,0-1-.53h-.25l.27-.74-.49,0a2.3,2.3,0,0,1,.27-1h.25c0-.36-.21-.43-.22-1l-.75,0,0-.5c-.49-.16-.22,0-.49-.26s0,0-.24-.26l1-.47v-.25l.74.27,0,1h.25a4.41,4.41,0,0,0,.53-1.24c-.71-.2-.82-.29-1-1C203.81,280.61,204,280.6,203.72,280.77Zm525.63,15.36v.5a8.84,8.84,0,0,1-2,.19l0-.5C728.49,296.07,728,295.86,729.35,296.13Zm.51-.24.5,0,0,.5.77-.48v.25h.5v.25l-1.5.21ZM78.23,277.11c.69.2.56.09.73.77C78.27,277.68,78.4,277.79,78.23,277.11Zm7.73.47c-.5-.16-.22,0-.49-.26C86,277.49,85.68,277.29,86,277.58Zm-6-.17h.5v.25C80,277.52,80.25,277.7,80,277.41Zm641.39,18.73v.5h-.25v-.5ZM84.42,279l0,.5c.21-.08.8-.49,1.26-.22v.25c-.35.28-.39.45-.53,1l1,0s0-.51.26-.25l0,.5c1,.14,1.28.65,2,1.06h.5l.23.51.75,0,.24.51,1.48.54c-.24.63,0,1.88-.33,2.74H91c-.17.43-.13.65-.28,1-.28-.22,0,0-.24-.26h-.25l-.23-.76h-.5l-.48-.52v-.5l-.49-.26,0-.75h-.25l0-.74H88l0-.75-.49-.26c-.44-.67.28-.45-.73-.77-.78-.7-3.46-.16-4.22-.88.11,0,.77.18.51-.23-.1,0-.8.09-.5-.27h.25c.3-.27,0-.1.51-.23a1,1,0,0,0,.48.51l0-.75c-.28-.29-.1,0-.24-.5a2.94,2.94,0,0,0-1.25.21l.27-.74-.75,0v-.5l.76-.23v.5c.44,0,.44-.5.77-.73.11,1.05-.07.39.72.77v.25l-.74,0V279ZM84,277.78h.5V278C84,277.88,84.23,278.06,84,277.78ZM717.59,297a2.81,2.81,0,0,1,1,.28v.25l-1.25.21V298l-1.49,0v.25l-1.5,0c.22-.32.18-.3.51-.49v-.25l-.75,0v-.25l.76-.23.22.76h.5l0-.5C716.72,297.32,717.1,297.69,717.59,297ZM122.84,280.16c-.5-.16-.22,0-.5-.26C122.84,280.06,122.56,279.87,122.84,280.16Zm-30.94-.9v.25c.5.16.22,0,.5.26l-.76.23c-.28-.29,0-.11-.49-.27v-.5Zm-7.26.53,0,.75h-.25l-.22-.75ZM708.32,298v.25c.5.46.14.51,1,.78l.27-.74h.5c.12.06.06.45.49.52v-.25h.25c-.52.72-2.21.73-3.51.65.19-.67.35-.55.54-1.23ZM258.77,285.13v.25a3.07,3.07,0,0,0-1.52.95c-.82-.41.07-.55.53-1.23Zm-53.89-1.33c.27.3.09,0,.23.51h-.25Zm-16.48,0v-.25h.25c.15.47-.15.35-.26.49v.25l.75,0v.25l-1.5.21c-.17.49,0,.21-.27.49l0,1a2.37,2.37,0,0,1,1-.22v-.5l.75.27v.25a9.62,9.62,0,0,1-1.76.45c.13.5,0,.21.23.5v.25l1.5-.2v.25l.75,0v.25H190c.36,0-.09-.19.26-.25l2.49.08.78-1c1,.16.89.43,1.73.8v.25h.25v-.25l1,0,.23.75.5,0v.25l1.26-.22c.22-.27,0,0,.25-.24l0-1.25,1.76-.44c-.16.49,0,.21-.26.49v.25l1.49.29v.25h.5v.25l1.25,0V288a3.19,3.19,0,0,0,1.26-.21v.25c.14,0,1,.17.76-.23h-.25v-.25l1.75-.2,0,.75c.73-.17.05-.13.75,0v.25a7.23,7.23,0,0,1-1.76.2l.46,1.51.5,0s0,1,.23.5v-.25c.68-.15,1.21-.44,1.28-1.21l-.24-.25h.25l0-.5.5,0v.25c.4.08.45-.23.5-.24a2.44,2.44,0,0,1,1.49.3l.22,1,.75,0,.22,1,1,.28v.25c.41.11.44-.23.5-.24l1.5.05.26-.5c.32,0,1.09.55,1.74.3v-.24a1.85,1.85,0,0,1,1-.22l-.22-.76,1,0V290h.25l0,.74.74,0a3.19,3.19,0,0,0-.21-1.26l1.51-.45,0-.5,1.49.29v.25l.74.27v.25l-.75.23c.13.5,0,.21.23.5v.25c.33-.19.28-.2.52-.48h.25c-.17,2.87-1.69.91-2.33,2.68-.49-.17-.21,0-.49-.27h-.25c.08.49.24.51.24.51l-.05,1.5c.06.14.33,0,.48.76-.29.27-.11,0-.26.49a11.66,11.66,0,0,1-3.5.15c-.35-.07.11-.26-.25-.26v.25l-1.25,0v.24h-.25v-.25l-2.75-.08v-.25c-1-.21-.75.75-1.48-.54h-.25l0,.75-2.26.43,0,.5c-.49-.17-.21,0-.49-.27,0,0-.88-.1-.5.24h.25c-.21.33-.2.28-.52.48v.25h-.25c-.36-.64-.55-.34-1-.27v-.25h-.25l-.27.74c-.32.11-.38-.38-.48-.51-.29.27-.11,0-.27.49H205c-.11.29,1.08,2.53,1.16,3.28-.51.14-.22,0-.51.23h-.25l.22,1a3.39,3.39,0,0,0-1.48-.54V301h-.5c.14.5,0,.21.24.5v.25c-.6-.17-.54-.28-1-.53l0-1s-1,0-.51.23h.25v.25l-.5,0c-.13-.5.05-.21-.23-.5V300l-.75,0c-.28-1.16-1.08-1.41-1.17-2.78l-.75,0a2.39,2.39,0,0,0,.28-1l-1.48-.54c0-.77.51-.49-.23-.76v-.25l1.49.3,0-.75.75,0,0,.5,1.26-.21v-.5h.5v-.25c-.26,0-.4-.23-.24-.5h.25s0-1.18-.22-.75a.39.39,0,0,1-.51.23c-.05,0,0-.18-.49-.26l0,.5c-.73-.28-.74-.52-1.25.21h-.25v.25l.76-.22-.27.49-2,.19v-.25l-.51.23v-.24l-1.5-.05v.25l-3.74-.36v-.25h-.25v.24l-1,0v-.25h-.25v.25l-2.24-.07v.25l-3-.09v.25l-2.24-.06v.25l-4.25.12-.26.5c-.39.07-.32-.45-.49-.52l-3.24-.09a20.88,20.88,0,0,1-4.5.12l-.74-.28V294l-2.75.17v-.25l-.75,0v-.25h-.5v-.25c-.34-.24-.44-.19-1-.28l-.22-1-.74-.27v.25h-.25l-.24-.51-.75.23v-.5H162l-.26.49-.75,0,0,1-1.5-.05v-.25l-1.25,0c.22-.28,0,0,.26-.24.63-.88.47-.07,1.26-.47l.26-.49a2.91,2.91,0,0,1,2-.44v-.5l1,0v.25h.25v-.25l1.24,0v.24h.25v-.25l2-.19v-.25l1.25,0v.25c.27,0,.47-.3,1-.22v.25h.25V290l.75,0,.26-.5,4-.38.27-.74a1.74,1.74,0,0,1,1,.28v.25a1,1,0,0,0,.52-.48,4.35,4.35,0,0,1,2.23.31l.76-.23c.14.07.19.9.48.77v-.5c.35.17.18.29.49.51.27-.72.28-.5,0-1.25l1.49.3.27-.75c1.39-.16.78-.45,1.53-.95l.75-.23.27-.49.75,0v-.25l.5,0v-.25c.41-.12.46.26.49.26a4.82,4.82,0,0,1,1-.22l.27-.74-.24-.26a2.6,2.6,0,0,1,1-.22C188.3,283.82,188.1,284.1,188.4,283.82Zm15.45.95v-.5c.28.22,0,0,.25.26h.24C204.06,284.81,204.35,284.64,203.85,284.77Zm40.65,1.69c-.5-.16-.22,0-.49-.26C244.5,286.36,244.22,286.17,244.5,286.46Zm-38.92-1.14c.28.3.1,0,.24.51h-.25Zm36.89,2.08h-.25v-.25c-.27-.22,0,0-.24-.25h.5Zm23.7.69c.28.29.1,0,.24.51h-.25Zm8,1c-.49-.16-.21,0-.49-.26C274.14,289,273.86,288.78,274.13,289.07ZM208,287.14c.22.11-.49.48-.51.49l.26-.49Zm37.39,2.34-.75,0v-.25l.75,0c.1-.05.21-.34.51-.48l0,.5C245.41,289.38,245.7,289.21,245.41,289.48Zm9.73,0c-.49-.17-.21,0-.49-.27C255.15,289.42,254.87,289.23,255.14,289.52Zm-13.49.35-.75,0,0-.75C241.6,289.31,241.49,289.18,241.65,289.87Zm-1.5.21s-.08,0-.49-.52C239.73,289.63,240.34,289.84,240.15,290.08Zm28.45.33,1.25,0v.25h-.25v.25l-1.25,0Zm-24.7-.47c.22.11-.5.47-.52.48l.27-.49Zm11,.57v-.25l1.25,0v.24l1,0v.25l.5,0c.1.06.23.36.49.51l.21,1.26h.25l-.3,1.74.74.27v-.25h.25l.21,1.26h.25l0,.75h.25l.23.75c-.92-.24-1-.66-2-.8l0-.75c-.49-.16-.21,0-.49-.26h-.25l0-.75c-1.19.11-1.42.51-2-.56h-.25c.09.94.45,1.27-.3,1.73a1.34,1.34,0,0,0,1,.53v.25l-1.24-.28V296a5.12,5.12,0,0,0-2.5-.08l0-.5a2.64,2.64,0,0,0-1.5,0v-.5l.5,0,.82-2.48h.25a1.77,1.77,0,0,0,.54-1.23l1,0v-.5Zm-44.16-1.29c.28.29.1,0,.23.5h-.24Zm-2,.19c.27.29.1,0,.23.51h-.25Zm46.88,1.87-.28,1.24c-.28-.22,0,0-.25-.26h-.24l.25-.24-.23-.75Zm-2.07,2.44-.74,0c.07-.46.26-.49.26-.49.25-.86-.77-.52.29-1.24.21-.28,0,0,.25-.24ZM218.65,291h.25l0,.74h-.25Zm16.2,1v.5h-.5v-.5Zm-15.72-.21c.27.29.1,0,.23.51h-.25Zm1.74.05.5,0v.5l-.5,0Zm-90.81-2.4.2,1.5h-.5l0-1h-.5l0-.5Zm211.55,6.18,0,.75h-.25l0-.75Zm33.67,1.23-.26.49h-.5V297c.5-.14.21,0,.5-.24ZM142,290.21v.25c-.44.2-.62-.16-.74-.27Zm-2.5.17v.25a7.23,7.23,0,0,1-1.76.2v-.25l1,0v-.25Zm-25.71-.25c.5-.13.21,0,.5-.23.31.26.29.6.48.76l.5,0v.25l1,.77V292l-1,0v-.25c-.63-.45-.62-.7-1.73-.8Zm95.79,2.8v.5l-1,.22v-.25c-.28-.29-.1,0-.23-.5.28-.21,0,0,.25-.25ZM260,294.65h-.25v-.25c-.28-.23,0,0-.25-.26h.5Zm-103.54-2.77c.14.5,0,.21.24.5v.25a12.77,12.77,0,0,1-2.75.17v-.5C155.14,292.26,155.25,291.9,156.45,291.88Zm43.9,1.53c.22-.27,0,0,.26-.24.2.29,0,0,.24.25v.25l-.75.23C200.25,293.41,200.06,293.69,200.35,293.41Zm23.7.69h.25c.22-.28,0,0,.26-.24l0,.5C224.05,294.2,224.33,294.39,224.05,294.1Zm-50.64-1.48.5,0,0,.5-.5,0Zm-62.9-.84,0-.74c.35.13.4.33,1,.27v-.24h.25v.25l.74.27,0,1C111.37,292.49,111.26,292.16,110.51,291.78Zm46.92.88c-.5-.17-.22,0-.5-.27C157.43,292.56,157.15,292.36,157.43,292.66Zm-24.7-.73H133c-.38.67-.69,1.27-1.54,1.45v.25h-.5a4.8,4.8,0,0,0,.54-1.23C132.18,292.35,132.38,292.32,132.73,291.93Zm21,.87c-.5-.17-.22,0-.49-.27C153.68,292.7,153.4,292.5,153.68,292.8Zm103.53,3v.25c-.29.2,0,0-.26.24-.13,0-1,.12-.74-.27h.25v-.25Zm-139.73-3.33v-.25l.75-.23v.5Zm107,2.63a1.69,1.69,0,0,0,1.22,1c-.25.44-.37.38-.53,1,.67.19.55.36,1.23.54v.5h.5a1.19,1.19,0,0,1-.78,1v.25l-1-.28v.25l-1,0a7.38,7.38,0,0,1-.8,1.47l-.75.23v-.25h-.25c-.19.12-.16.33-.52.49-.09.8-.38.53.22,1v.25h-.5V302c-.73-.3-.28,0-.23-.76h-.49c0-.84,0-.91-.47-1.26l.05-1.5a2,2,0,0,1,.73.52c1.41.09,1.8,0,2-1.19h.25c.27-.81-1-.85-1.21-1.28l0-.75C223.63,295.79,223.54,295.35,224.52,295.12ZM105,291.87l5.18,1.9V294l-.75,0v-.25l-1.25,0v-.24l-.74,0A6.27,6.27,0,0,1,105,291.87Zm35.39,2v-.25l1.74,0V294a4.66,4.66,0,0,1-1.26.46v-.5Zm84.07,2.7H224c.22-.28,0,0,.25-.24v-.25C224.52,296.4,224.34,296.11,224.48,296.61ZM135.17,294l.75-.22c.21.28,0,0,.24.25a1.5,1.5,0,0,1-1.27.71Zm124.49,3.39v.25c-.44.2-.62-.16-.74-.27ZM239,297l0,.75-1.24,0V298l-.5,0v-.25l.5,0v-.5Zm-117-2.17h-.5v-.25a1.16,1.16,0,0,0,1-.72l.75,0v.25l-.75,0,0,.5C121.91,294.76,122.2,294.59,121.91,294.86Zm129.25,3h-.25c-.23.28,0,0-.26.25v-.5C251.16,297.79,250.88,297.6,251.16,297.89Zm7.23.21c-.49-.16-.22,0-.49-.26C258.39,298,258.11,297.81,258.39,298.1Zm-96.8-2.58c-.5-.16-.22,0-.49-.26C161.59,295.42,161.31,295.23,161.59,295.52ZM110.2,294l.5,0v.25C110.19,294.13,110.47,294.31,110.2,294Zm53.38,1.56v.5h-.5v-.5Zm90.28,3.64v.25l-1,0v-.25c-.71-.22-.72-.42-1-1A17.24,17.24,0,0,1,253.86,299.22ZM539,309.29V309l1.75-.19.26-.5,1.5,0,.52-.74,1,0v-.25l1.75-.19v.24l.5,0v.25l1,0V308c1.84.12,2.47.06,3-1.16h.5c.15,1.43.24.78,1.21,1.29v.25h.5v.25h.5l.47,1c1.13,0,1.55-.28,1.78-1.2l.74.27V309l.5,0v.24l.49,0v.25l2,.06c.55-.63.84-.54,1.29-1.46l2-.19.49.26a.38.38,0,0,1,.51-.24v.25l.5,0,.23.5,3,.59.91,3a2.31,2.31,0,0,0,1-.47v-.25l2,.06.26-.49.5,0V311l1.25-.22c.2-.71.29-.82,1-1,.16-.49,0-.21.26-.49v-.25l1,.28v-.25h.25l-.28,1h-.5c-.2.85-.44,1.28-1.29,1.46l0,.74c-1.25.23-.93.42-1.54,1.21L571,314l0,.74-.76.48-.28.74c-.47.62-1,.46-1.29,1.46-1.52.39-.45.47-1,1.47l-.5.24-1,1.21-.49-.26v.25s-1.54.2-.75.23h.25v.25c-.28-.09-.47-.44-1-.28-.2.07-.18.75-1,.47v-.24l-.5,0-.23-.51-.51.24v-.25l-.75,0c-.05,0-.24-.38-.48-.52a12.14,12.14,0,0,1,.55-1.73h-.25v-.25c-.64,0-.88,0-1.26.21v.25l-.5,0-.26.5-1.25,0-.21-1.26a1.63,1.63,0,0,0,.77-.72h.5a7.16,7.16,0,0,0,.06-2.24c-.92-.11-1.34-.7-2-.56v.25l-.5,0v.25c-.77.32-.49-.27-1,.47-1.08-.09-.84-.17-1.48-.54.07-.49,0-.76.27-1l.5,0c.2-.14.16-.32.52-.49v-.5c-2,.86-4.17,1.94-7,1.79l0-.74s-1-.06-.49-.27h.25l0-.75h-.25V312c-1.13.11-1.07.41-1.77.7l-.75,0V313l-.75,0v.25l-.5,0v.25h-.5v.25l-.49,0v.25l-1.75,0-.26.49h-.5v.25l-2,.19V315l-.5,0v.25l-2,.19v.25l-1,0v.25l-.75,0v.25l-2.5.18v.25l-.74,0v.25l-2.49-.32L528,317l-1.25,0a12.92,12.92,0,0,1-5,.6l-.27.74-2.51.43v-.25l-1-.28v.25l-1,.22v.25l-1.49-.3v.25a3.76,3.76,0,0,1-2.25.19v-.25l-.5,0-.47-.76L511,318v.25l-2.24-.31c.17-.49,0-.22.27-.49.5-.74,1.88-1.15,2.79-1.42l1.24,0v-.25l1.51-.21c.61-.25,1-.8,1.77-.94.26-.85.55-.63.79-1.48l1.51-.21v-.25l.5,0v-.25l1.25,0,.26-.5,1,0v-.25l.5,0v-.25l1.25,0v-.25l1.51-.46c.57.75,1.61,1.08,2.19,1.81a4.09,4.09,0,0,0,2.26-.43l.52-.73c.69-.18.74.67,1,.77l1,0v-.25l1,0v.25c1.33.26,1-1.54,2.25-.18,1.62,0,1.56-.63,2.53-1.18l0-1.49A2.48,2.48,0,0,0,539,309.29Zm-428.27-15h.5v.25C110.68,294.39,111,294.57,110.69,294.29Zm113.24,3.8,0-.49c.27.21,0,0,.24.25h.25C224.15,298.13,224.44,298,223.93,298.09Zm33.44.73h-.25c-.22.28,0,0-.26.25l0-.5C257.37,298.72,257.09,298.53,257.37,298.82Zm-143.45-3.94v.25c-.14,0-1,.11-.74-.27h.25v-.25Zm27.2.55v.24c-.44.2-.62-.16-.74-.27Zm79.81,2.83s-.08,0-.48-.52C220.51,297.8,221.12,298,220.93,298.26Zm-106.27-3.11,0,.5h-.25l0-.5Zm4.74.14h.25l0,1.24h-.5ZM163,297.06v-.25a2.6,2.6,0,0,1,1-.22v.5Zm-35.18-.77v.25a5,5,0,0,0-1-.28V296h.25v-.25l.74.27v-.25h.5v.5Zm103.79,2.78,0,.5h-.25l0-.5Zm-111.53-2.76v-.25l1.25,0v.5Zm109.51,3.2c-.49-.17-.21,0-.49-.26C229.64,299.41,229.36,299.22,229.63,299.51Zm-112.76-3.05v-.24l1,0v.25c-.74.23-1.1.32-1.49-.29ZM578.38,310.2l1.26-.22v-.25h.25a9.81,9.81,0,0,1-.58,2.73,4.74,4.74,0,0,0-3.06,2.41l-1.75-.05,0-.75c.51-.14.22,0,.51-.24l.5,0,.27-.74.51-.24v-.5l.76-.47,0-.5h.5C577.8,310.72,578.06,310.72,578.38,310.2ZM130.07,297.35v-.25l.76-.23,0,.5Zm102.29,3s-.08,0-.49-.52C231.94,299.89,232.55,300.1,232.36,300.34Zm-110-3.47,0,.5h-.25l0-.5Zm.75,0,0,.5-.5,0,0-.5Zm107,3.12,0,.5h-.24V300ZM190,299.1l0,.5h-.25l0-.5Zm-22.21-.4,0,.75.76-.23v.25l.74.27,0,.75h-.25v.25c-.14,0-.75.14-.5-.26h.25c-.18-.3,0,0-.24-.26s0,0-.24-.26a3.09,3.09,0,0,0-.29,1.24l-.75,0v.25c-1-.16-.8-.38-1.48-.79l0-.5a2.94,2.94,0,0,1,1.25-.21v-.25l-1-.28v-.5Zm-3,.16,0,.75h-.25l0-.75Zm65.1,2.15.26-.24V301c1,.71.39,1.54.69,2l0,1.49c-.28-.22,0,0-.25-.25l-.49,0a1,1,0,0,1,.51-.48v-.25l-.75,0v-.25h-.25l0-.75-.49-.26.25-.24-.21-1.26Zm-3.53,1.15-.5,0-.22-.75h.49v.25C226.35,301.94,226.18,301.66,226.31,302.16Zm-92.55-2.71h-.25v-.25c-.28-.22,0,0-.25-.26l.5,0Zm61.59,2.8v.25h-.5l.78-1h-.25v-.25c-.32-.12-.33.51-1-.27h-.25v-.25l1.5,0-.26.49.5,0C195.74,301.81,195.7,302,195.35,302.25ZM130,299.1c.28.29.1,0,.24.5H130Zm86.3,3.27h-.25l0,.75c0,.06-.38.23-.52.48l-.75,0,1.31-2h.5Zm-32.18-.94s-.08,0-.49-.52C183.72,301,184.33,301.19,184.14,301.43Zm34.19.5,0,.74h-.25v.25l-.75,0v.25H217a2.29,2.29,0,0,0,.28-1Zm7.72.47.5,0v.24C226.05,302.51,226.33,302.69,226.05,302.4Zm-103-2.51h.5v.25C123,300,123.28,300.18,123,299.89Zm32.18.94,0,1.25-.5,0-.22-.75h.25v-.49Zm-9.74.21c-.5-.16-.22,0-.5-.26C145.45,301,145.17,300.75,145.45,301Zm-13,.12v-.24l.75-.23v.5Zm11.23.08c-.18.62-.14.41-.52.74v.25l-.49,0-.27.49-.75.23a3,3,0,0,1-.22-1.25C142.77,301.54,142.34,301.3,143.69,301.24Zm35.68,1.05,0,.74-.75-.27,0-.5Zm2,0h.25a1.61,1.61,0,0,1-.77.73l0-.5C181.36,302.44,181.07,302.62,181.36,302.34Zm39.15,1.9-1.25,0V304c.74-.17.62-.39,1.51-.45Zm-70.61-1.82-.26.5c-.51.13-.22-.05-.51.23l-1,0v-.25a3.51,3.51,0,0,0,1.27-.71Zm29.44.86c.2.29,0,0,.24.26l-.26.49-1.25,0,0-.75Zm-5.75.33,0,.5-.24-.25h-.25v.25l-1.25,0,0-.75Zm9.21.77-1.25,0v-.25c-.27-.22,0,0-.24-.26a4.62,4.62,0,0,1,1.75-.2ZM145.14,303v.25l.5,0c-.16.49,0,.21-.26.49V304a2.63,2.63,0,0,0-1.24-.29v-.5A6.08,6.08,0,0,0,145.14,303Zm7.45,1.22.52-.73h-.25v-.25c1,.26,1.21.84,2,1.3v.25l-1.25.22c-.28-.29,0-.11-.49-.27v-.5Zm13.73.15v-.25l.5,0v.25c-.59.14-.47.05-.76.47-.5-.16-.22.05-.49-.26h-.25l.26-.49Zm4,.12h-.25v-.25l.75,0,0,.5C170.31,304.62,170.59,304.81,170.31,304.52Zm3.72.86a4.25,4.25,0,0,1,2-.69v-.25c.35,0-.11.2.24.25l1,0,0,.75Zm-21.72-.14h-.24v.25a2.07,2.07,0,0,1-.74-.52h-.25v-.24h.25l.27-.49.74,0Zm83.09,1.93h.5c.14.69.31.58.47,1.26h-.5C235.73,307.74,235.56,307.85,235.4,307.17Zm-100.31-1.93.75,0v.25l-.75,0Zm13.95.9c-.49-.16-.21,0-.49-.26C149,306,148.77,305.85,149,306.14Zm.26-.24h.25c.2.29,0,0,.24.26v.24h-.5Zm166.38,5.36c-.49-.16-.21,0-.49-.26C315.68,311.16,315.41,311,315.68,311.26Zm-89.62-.37a4.92,4.92,0,0,1,1.95,1.56l.23.5c1.06.8,2.6.85,2.93,2.33l-.75,0v.25h.25l0,1h.25v.25h-.5c-1.34,1.32-3.52-.76-4.71-1.14.21-.74.17-.65,1-.72l.46,1.27,2,.3-.23-.75-.75.23v-.5c.55-.07.27-.14.51-.24l.49.27,0-.75h-.25v-.25l.26-.49c-.87.18-.87.58-1-.53h.25c.47-.23-.49-.27-.49-.27a2.1,2.1,0,0,1-.77.48v-.25a6.71,6.71,0,0,1-2.7-1.58,1,1,0,0,0,.51-.48c-1.07,0-1.51-.17-1.71-1.05l-.75,0v-.5h-.5l0-.5.49.26v-.25h-.25c-.45-.25.5-.23.5-.23.58.88,2.18.68,3.22,1.09Zm-7.22-1h.5c-.22.28,0,0-.25.25v.25C218.8,310.14,219,310.43,218.84,309.93Zm-22.24.6v.5c-.28-.22,0,0-.24-.26s0,0-.24-.26Zm359,11v-.25l1,0v.25l1,0,2,.06v.25a3.53,3.53,0,0,0,2,.56v.25h.25c-.1,1.14-.39,1.06-.8,1.73a10.93,10.93,0,0,0-2.51.42l-1.75,0-.26.5-1.25,0v.25l-1-.28V325l-1,.22c-.26-.33-.44-.27-.74-.52v-.25H552v-.25l-.74-.52,0-.75h-.24a2.63,2.63,0,0,1,.27-1l1.51-.21v-.25l1.74.06v-.25Zm-331.34-8.43.28-.74c.27.22,0,0,.24.26H225c-.22.27,0,0-.26.24S224.75,313,224.24,313.08Zm-.52.74c-.49-.16-.21,0-.49-.27l.75,0,1,1.77-.75,0c-.2-.29,0,0-.24-.26Zm351.7,29.5v.25c-.44.2-.62-.16-.74-.27Zm7.93,2h.25v-.25h.25l0,.5C583.35,345.4,583.62,345.59,583.35,345.3Zm-1.26.46V346c-.5.13-.21,0-.51.23l-.74,0V346l.75,0v-.25Zm-274.74,2.71h.25c.36.74-.52,1-.52,1C306.67,349,307.1,348.93,307.35,348.47Zm2.46,1.57v.25l-.75,0v-.5Zm1.74,0v.25c-.13,0-1,.12-.74-.27h.25v-.25Zm-2.51.68c-.5-.17-.22,0-.5-.27C309,350.67,308.76,350.47,309,350.77Zm4.24-.13v.25l-1,.72v-.25c-.38-.3.05-.32.28-.74Zm-3.27.9h.25v.25H310v.5h-.25l-.21-1.51C310,351.08,309.88,350.94,310,351.54Z"/></g></g></svg>