<svg xmlns="http://www.w3.org/2000/svg" viewBox="0 0 1049.88 251.72"><defs><style>.cls-1{fill-rule:evenodd;}</style></defs><g id="圖層_2" data-name="圖層 2"><g id="圖層_1-2" data-name="圖層 1"><path class="cls-1" d="M112,97.53c-23,10.72-46.31,17.62-54,21.11S41.67,128,33.48,131s-18.57,7.09-23.17,9.28S4.27,142.61,4,144s7.27,2.19,10.33,3,11.62,6.4,14.4,7.94a41.25,41.25,0,0,1,6.45,5l4.4,2.79s-8.13,1.33-13.85,2.05S13.23,167.91,10.14,168s-5.75,1.19-8.84,1.31-.13,3.32,3.27,7.25,5.19,6.86,13,8.36S45.32,191,51,191.51s40.67,4.48,44.88,6.08,17.73,8.07,43.52,10.53,54.88,5.29,68.09,7.72,16.67,4.71,27.83,4.68,15.52,3.95,21.31,1.8,7.78-4.43,7.78-4.43-.55,1.64-4.6,2.19-6.18,0-7.35-.54.34-2.36.34-2.36,14.07-1.57,19.28-1.12,107.24-3.06,131.73-3.74S489,209.08,489,209.08s34.11,2.32,38.6,3,13,2.42,16.08,1.59,10.44.42,10.44.42,35.83,6.66,42.46,7.17,6-1.42,6-1.42l-3.76-.87a37.23,37.23,0,0,0,6.85.75c2.39-.14,2.41-.85,4.34-1.49s3.87-1.74,6.24-1.65,5.5-1,7.18-1.37,4.62-2.66,4.62-2.66l-1.1-2.19s-2.37-.09-4.5-.41-12.08-.73-12.08-.73l1.71-1.12s7.32,1,8.77.36,3.4-1.77-.16-1.91-8.07-.09-10.66-.67-11.89-5.46-11.89-5.46,28.94-5,41.64-7.83,16.58-4.8,16.58-4.8,5.15,1.87,7.34.54,5.86-4,7.06-4.23,15.61-4.36,18-5,3.24,2,7.09.76a13.2,13.2,0,0,0,5.85-3.8l20.86-4.87s3.2,3.22,7.08,1.24a97.53,97.53,0,0,0,8.76-5.35s10.07-2.21,12.7-2.82,6.38,1,9.27-.1,8-4.67,8-4.67l16.74-2.89s1.6,1.49,5.4,1.41,8.2-3,8.2-3S813.56,151.57,816,151s7.27,2.43,10.14,1.84,3.91-2.7,7.74-3.49a68.49,68.49,0,0,1,14.31-1.57c4.27.17,11.71-1.66,13.4-2.31s18.49.74,23.5.23,7.26-3.27,9.62-2.94,11.94-1.66,21.62-.32,30.49,15.71,34,22.5,16.67,28.46,23.62,39S986.37,225,995,235.33s14.23,12.2,19.63,13.85,11,3,11.54,2.36-6.05-9-7-10,1.08-3.28-1.43-5.75-5.15-7.81-6-10-2-8.4-3.8-11.79-5.61-8.3-6.86-12.63-9.09-22-10-28.66-4.76-17.53-5.29-22.07.81-8.28-.48-11.65-2.92-4.4-.82-9.3,3.26-10.08,3.1-12,15.42-23.37,23.84-32,14.6-20.56,20-25.09,6.88-5.66,9.89-9.58,5.56-8.56,7.78-10.61-1.1-2.18-1.1-2.18-.42-1.21-2.33-1-5.57,2.62-8,4-9.06,1.06-21.75,9.34-44.71,31.22-59.39,41.79-21.24,14.59-24.62,15.88-22.8-5.91-23.74-6.18-2.06-2-3.73-1.81-8.75-.83-8.75-.83a78.34,78.34,0,0,1-8.23-2.23c-2.8-1.06-5.77-4-8.61-4.38s-7.13.19-8.79.12-6.17,0-9-1.31S854,90,851,87.76s-4.07-4.91-6.7-4.54-3,3-6.5,2.11-11.51-3.07-11.51-3.07-6.55-2.64-9.08-4.64-1.8-2.45-3.71-2.29-3.63,1.76-5.75,1.43-5.23,0-8.27-1.28-7-3.13-9.78-4.67-7-4.31-9.32-4.65-8.36,1.33-10.73,1.24a19.63,19.63,0,0,1-8.25-1.76c-3.5-1.57-9.76-5.38-13.28-6.23s-6.8-2.18-8.25-1.76a9.59,9.59,0,0,1-5.49.73c-3.31-.37-8.52-.82-9.93-1.11s-9.34-3.94-11.45-4.73-6.72-4.07-10.29-4-4.82,1.94-9.07,1.3a141.2,141.2,0,0,1-15.54-3.48c-3.52-1.09-12.06-7.13-14.7-6.52a58.94,58.94,0,0,1-9.33,1.76c-2.86.12-17.26-2.12-20.78-3s-6.41-6.2-9.76-5.38S617.27,36.1,613,35.7s-14.4-2.24-17.25-2.12-7.11-.52-5-.44,2.94-2.25,4.36-2.2-3.76-1.1-4.72-.9a32.06,32.06,0,0,1-6,.95,14,14,0,0,1-3.3-.61L582,28s-.7-.5-3.77-.87a12.31,12.31,0,0,1-4.7-1.37l.12-2.85s-3.82.56-5.7,0-4.71-1.14-3.46-2.51,3.71-3.65,6.43-6.39,5.18-4.78,7.66-7.53S583.76,1,581.88.48,574.78,0,571,.05s-23.45,4.28-26.84,5.81-13.62,2.06-19,5.41-18.41,9-22.55,11.68-10.13,3.64-14,5.14S464,32.57,464,32.57s-18.24-1.21-25.42.16-49.78,3.71-50.49,3.44.61-3.3-4-1.82-7.21,2.09-8.86,1.78-.1-3.33-3.71-2.29-7.74,3.49-9.64,3.42-1.81-2.21-4.2-1.83S351,38,349.75,38.2a33.48,33.48,0,0,1-5.44-.46s2.93-2-2.82-.83-12.22,2.84-15.38,4.61A18.89,18.89,0,0,1,317,43.77a30.75,30.75,0,0,1-3.78-.39s-.13-2.62-2.08-1.51-4.4,3.15-7.28,4-8.87,2-10,1.26-7.86.64-14.57,2S231.07,60.27,208,67,152,83.7,147.18,85.17,112,97.53,112,97.53Z"/></g></g></svg>