<svg id="圖層_1" data-name="圖層 1" xmlns="http://www.w3.org/2000/svg" viewBox="0 0 254.07 44.87"><title>pic</title><path d="M254,15.62c.16-.14,0,0-.23-.14a1.46,1.46,0,0,0-.61-.38,2.79,2.79,0,0,1-.61-.28s.88.17.85-.23c0,0-.06.29-.52.14s-.51-.28-.51-.28.06-.17,0-.19a.87.87,0,0,1-.28-.14l-.19-.61.33.05s0-.51,0-.7.21-.26.28-.56,0-.3.14-.51a2.19,2.19,0,0,0,.28-.71c0-.12-.23-.51-.23-.51l.14-.14a.3.3,0,0,1,.13.12c0-.06-.08-.21,0-.26a1.85,1.85,0,0,0,.14-.19l-.14-.42c0-.07,0-.33,0-.33s.33.33.33.14a3,3,0,0,0-.14-.75c-.09-.32-.26-.52-.19-.79s.12-.48.24-.56.26-.32.14-.42-.32,0-.38-.14a.7.7,0,0,1-.09-.42c0-.11.31-.32.33-.56s0-.34-.05-.38-2-.14-2-.14.05-.5,0-.56.32-.17.47-.51.22-.55,0-.52-.47.17-.52,0-.09-.12,0-.38.08-.68.14-.6.07.43.14.18a3.27,3.27,0,0,0,.05-.65c0-.16.05-.14.05-.14a.32.32,0,0,1,0-.38c.17-.2.15-.06-.32,0s-2.06,0-2.39,0-.28,0-1,0a36.68,36.68,0,0,1-4.35-.09,18.25,18.25,0,0,0-3.5-.19,12,12,0,0,0-2.53.7,10.62,10.62,0,0,1-1.77.57c-.45.06-4.54.16-5.1.23a2.7,2.7,0,0,1-1.26,0,15.49,15.49,0,0,0-3-.75A6.18,6.18,0,0,1,224.74,2a2,2,0,0,1,1.45-.33,8.69,8.69,0,0,0,1.78,0c.09,0-1.14-.18-1.27-.18s.14-.1.28-.14-.47-.06-1-.05-1-.21-1.41-.19-1.63.5-1.87.52-1.17.42-1.35.37-1,.2-1.31.19-1.17,0-1.17,0a.6.6,0,0,1,.37-.19c.24,0,.23-.1-.09-.23a8.81,8.81,0,0,0-1.26-.33,5.09,5.09,0,0,1-.57-.14.34.34,0,0,1,.29-.19l.7,0A3.48,3.48,0,0,1,218,.89a.19.19,0,0,0-.19-.09l-.61-.05c-.1,0,0-.23.23-.24s.5,0,.66,0a6.24,6.24,0,0,0-.89,0c-.18,0,.52-.42.52-.42s-.84.32-1.08.38-.49.25-.7.28-.79.17-1.12.23-.77.43-1.17.56a4.67,4.67,0,0,1-.75.28c-.27,0-.42-.11-.75-.05a5.9,5.9,0,0,1-1.31.14c-.32,0-.57-.35-1.07-.37s-1.05-.1-1.36-.09-.94,0-1.17-.05-.4.15-.84.23-.7.17-.75.05,0-.34-.23-.28-.74.55-1,.66l-.6.23s-.47,0-.66,0-.65,0-.65,0-.12-.27-.24-.32-.52-.19-.65-.24a1,1,0,0,0-.42.05s0,.36-.1.38a6.74,6.74,0,0,1-.65-.24,2.85,2.85,0,0,0-.94-.28,5.73,5.73,0,0,0-1.4,0c-.11.07.2-.28.52-.33a3.23,3.23,0,0,0,1-.28c.11-.1.14-.19,0-.14s-.42.06-.56.09-.27.13-.28,0a.54.54,0,0,1,.09-.28,1.28,1.28,0,0,1-.47.28,2.69,2.69,0,0,0-.89.14c-.23.14-.71.53-.79.56a5.7,5.7,0,0,1-.7.38c-.24.08-.65.29-.75.33a10.87,10.87,0,0,1-1.5.37,3.55,3.55,0,0,1-.93,0c-.22,0-1.78-.53-2-.56a6.33,6.33,0,0,1-.75-.19,1.6,1.6,0,0,1,.61-.19,1.08,1.08,0,0,0,.42,0,.8.8,0,0,0-.38-.19c-.2,0-.6-.05-.6-.05l.32-.28a1.61,1.61,0,0,0-.46.14,2,2,0,0,1-.89.1,3.51,3.51,0,0,0-1.5.47,9,9,0,0,1-1.26.65l-1.08.23c-.16,0-.39.19-.65.1a3.51,3.51,0,0,0-.7-.05s-1.48.13-1.69.09-.37-.18-.51-.14a7.22,7.22,0,0,1-1,.14c-.19,0-3.74.17-3.89.19s-1.08,0-1.49,0l-1.26-.05c-.46,0-1.89.08-2.29.14s-1.8.4-2.25.47-2.65.39-3.13.52-1.46.16-1.87.32-2.74.48-3.42.66-1.88.41-2.24.47a18.39,18.39,0,0,1-2.43-.33s-6,.84-7.11.89-5.73,0-6.55.09-5.94.66-6.64.75-1,.21-1.21.09-.2-.22-.47-.23-4.8-.15-5.14-.14-.46.1-.66.09a2.29,2.29,0,0,1-.47-.09c-.07,0-3.56-.07-4-.14s-1.54-.12-1.92-.19-.34.16-.42.14a4.15,4.15,0,0,0-1.73-.28c-1.32,0-4.78-.39-5.33-.47s-5.28-1-5.38-1,.43-.41.47-.56a2.84,2.84,0,0,1,.19-.6,1.44,1.44,0,0,1,.51-.1c.15,0,.79.07.8,0s-.48-.19-.56-.23,0-.1-.19-.14-.9,0-1.17,0A4.06,4.06,0,0,0,108.11,3c-.63.06-5.94.09-6.92.09a11,11,0,0,1-2.43-.28,2.64,2.64,0,0,0-1-.14c-.62,0-4,0-5.42,0s-3.06-.33-3.7-.38-6.65-.46-8-.47S75.6,1.5,73.84,1.5s-11.76.23-12.72.32-4.41.17-4.63.29-.44.23-.52.13-.23-.05-.37,0-.51.06-.65.09-1.43.08-2.06.1-7.28.34-8,.37-6.67.82-8.09,1a49.87,49.87,0,0,0-5.71,1.17c-.63.24-1.46.57-1.77.66a9.65,9.65,0,0,0-2.48.7c-1.46.6-2.1.66-2.85,1a10.09,10.09,0,0,1-2,.56,51,51,0,0,0-6.36,2.06c-1.07.59-2.08,1.21-3.55,1.92s-3.11,1.74-3.6,2a6,6,0,0,1-1,.56c-.22,0-.29.08-.94.18A4.3,4.3,0,0,0,4.68,15a6.87,6.87,0,0,0-1.5,1.5c-.45.49-1,1.29-1,1.35s.72.75.94.89l1.49,1C5,20,6,20.48,6.64,21s1.66.75,1.87,1,.19.24.19.24l-.1.14-1.45.28v-.14L7,22.68l-.14-.05v-.18l-.24.28H6.41v-.19l-.24.23a2,2,0,0,1-.56.14c-.1,0-.09-.23-.19-.18a.62.62,0,0,0-.23.18c0,.07-.06-.29-.14-.18l-.23.32a5.38,5.38,0,0,0-.61.1.55.55,0,0,1-.28,0l-.24.14a1.33,1.33,0,0,1-.6.19c-.15,0-.18-.16-.28-.05s-.14.24-.29.23a.5.5,0,0,1-.28-.13s-.3,0-.42,0-.19-.16-.23-.19-.07.08-.28.19-.43.11-.51.28a9.14,9.14,0,0,0-.43,1c0,.14-.38.16-.37.37a1.16,1.16,0,0,0,.33.61c.07,0,.19-.09.19-.09a5.71,5.71,0,0,0,.51.51c.2.16.77.41.84.52a5.34,5.34,0,0,1,.47.56c.05.13.29.56.42.6s.55-.1.75.15.55.41.84.7a2.3,2.3,0,0,0,.89.51,5,5,0,0,0,.75.05c.32,0,.65,0,.79.18s.6.08.75.19a2.31,2.31,0,0,0,.47.33c.25.12.56.4.74.47s1.22,0,1.55.23a3.51,3.51,0,0,0,1.12.51,5.1,5.1,0,0,1,.79.19,27.52,27.52,0,0,0,4.73,2.06c1.61.38,2.59.49,2.9.65a8.22,8.22,0,0,0,1.49.38l.85.13v0h.14v.05h.32a2.12,2.12,0,0,1,.89-.28,11,11,0,0,0,1.22.09l.75-.09s1.56.24,2.29.32,6.19.64,7,.8,2.83.34,4,.7a11.25,11.25,0,0,0,2.33.61c.59,0,2.34.07,3,.19s1.26,0,2,.09,1.49.2,1.68.19-.05-.19.19-.14a6.32,6.32,0,0,0,.94.23c.66.1,2.74.69,3.32.7a11.75,11.75,0,0,0,1.17-.18c.43,0,.65-.16,1.07-.19a21.58,21.58,0,0,1,2.76.19c.44.07,2.87.58,3.41.6a6.31,6.31,0,0,1,1.87.24c.47.2.47.23.47.23a8.05,8.05,0,0,0,.8.42A18.44,18.44,0,0,0,67,40.36a7.17,7.17,0,0,1,1.78.28c.39.2,1.24.72,1.78,1a3.76,3.76,0,0,0,1.45.51,4.34,4.34,0,0,0,.7-.18,1,1,0,0,0,.33-.33,5.68,5.68,0,0,0,.23-.8,4,4,0,0,1,.61,0c.12,0,.4-.06.51,0s1.83.23,2.2.32,1.22.07,1.73.19,1.3.31,1.87.38,3.37.37,3.79.51a9.26,9.26,0,0,1,1.45.84,4.46,4.46,0,0,0,.56.33,1.26,1.26,0,0,0,.79.28,4.5,4.5,0,0,1,1.73.51c.1.13-.23.28-.18.33a2.85,2.85,0,0,0,1,.33c.52.08,1.05,0,1.63.05a3.94,3.94,0,0,0,1.36-.1,5.35,5.35,0,0,0,.7-.33s-1.09-.06-1.59-.14-.73-.44-1.17-.6-1.55-.51-1.82-.66-2.6-.77-3-.93a11.61,11.61,0,0,1-1.08-.52s.83-.07,1.12-.09a6.11,6.11,0,0,1,1.26-.1c.28.07.87.08,1.08.15s.85.42,1,.28a5.47,5.47,0,0,1,2.06-.28,8.91,8.91,0,0,0,1.82.14c.55,0,2.39.11,2.81.09s6.16-.45,6.78-.42,1.76,0,1.87,0,0,.67.23.47.8-.75.94-.75a9.91,9.91,0,0,0,1.68-.18c.56-.13,1.69-.38,1.87-.38s2.55-.48,3.18-.51,1.07-.14.89,0-.13.23,0,.19.74-.44.93-.56.52-.48.8-.43a46,46,0,0,0,4.77.43,13,13,0,0,1,1.73.09,15.61,15.61,0,0,1,1.77,0c.45,0,5.88.41,6.69.37s1.91.11,2.53,0a3.44,3.44,0,0,1,1.63.42l-.37-.33s0-.21.14-.23a8.14,8.14,0,0,1,.79-.33c.19,0,.61-.09.61-.09s.36.23.47.28-.19-.28-.19-.28a.8.8,0,0,1,.38-.19,6.35,6.35,0,0,1,1,0c.07,0,.51.09.7.14a1.38,1.38,0,0,0,.7,0c.14-.06.66-.44.8-.47s.8-.36.93-.37,3-.35,3.79-.37,1.66-.25,1.73-.19,0,.21.09.23.35-.26.52-.28,1.12-.2,1.26-.19a.42.42,0,0,0,.19,0,1.55,1.55,0,0,0,.51,0c.23,0,.66-.31.8-.33a29.62,29.62,0,0,1,3.5-.23,14.61,14.61,0,0,0,1.78,0c.86,0,4,0,4.3.05a6,6,0,0,0,1.5.14,1.82,1.82,0,0,0,1-.47c0-.08,0-.37.14-.37s.66-.33,1-.42a1.47,1.47,0,0,1,.33-.1,16.82,16.82,0,0,0,1.92-.61,3.43,3.43,0,0,0,.65-.46s.73-.11,1-.19.48-.41.75-.33.49-.2.28-.28,2-.36,2.48-.56,2.72-1.14,3.18-1.31a1.5,1.5,0,0,0,.65-.42s.73-.26,1.08-.33l1.45-.28a8.74,8.74,0,0,0,.75,1.17.93.93,0,0,0,.79.14,5.81,5.81,0,0,1,.89-.05c.18,0,.73.26,1.08.38a5.59,5.59,0,0,1,.84.47c.13.06.34.2.51.14s.54-.45.7-.42.34.13.47,0,0-.37.19-.42l.14,0s.22-.37.05-.28a.62.62,0,0,1-.52,0,4.88,4.88,0,0,1-.47-.51c-.1-.14-.14-.27-.28-.28s-1.06-.63-1.26-.71a1.11,1.11,0,0,1-.37-.28s2.74-.36,3.18-.46a6.33,6.33,0,0,1,1.54-.15,1.9,1.9,0,0,0,1-.32c.2-.14.67-.21.65-.28s.1-.19.1-.19a1.87,1.87,0,0,1,.75-.23,4,4,0,0,0,.65,0,4.89,4.89,0,0,0,1.82-.89c.52-.46,1.89-1.26,2.06-1.4a10.21,10.21,0,0,1,1.45-.7c.22-.07,1.31-.43,1.82-.56s1.49-.13,2.25-.28a8.79,8.79,0,0,1,1.36-.19,1,1,0,0,0,.42-.14l0-.09-.33,0a.42.42,0,0,0,.24-.18,1,1,0,0,0,.09-.28,3.41,3.41,0,0,1-.66.23,1.57,1.57,0,0,1-.56-.05,6.52,6.52,0,0,0,.75-.32c.15-.11.3-.35.47-.47s.11-.44.14-.51a2,2,0,0,1,.42-.47,5,5,0,0,1,1.64-1l1.12.05a6,6,0,0,0,1.4,0,5.43,5.43,0,0,0,1.26-.37,3,3,0,0,0,.61-.52c-.05.05-.79.33-.79.33s0-.35.14-.37.29.09.32,0a2.06,2.06,0,0,0,.15-.47s-.17-.21-.05-.33a.82.82,0,0,0,.14-.42s0,.09-.33.23a4.25,4.25,0,0,1-.89.24,4.46,4.46,0,0,1,.7-.7c.24-.14.22-.44.71-.7s1.71-.44,2.1-.61a2.49,2.49,0,0,1,1.68-.33,9.3,9.3,0,0,0,2.72-.23,6.62,6.62,0,0,0,1.35-.38c.07-.06,0-.19,0-.19l.28-.32a3.81,3.81,0,0,1-.79.32c-.26.05.07-.13.37-.27a1.57,1.57,0,0,0,.56-.47.36.36,0,0,0,.05-.28,4.64,4.64,0,0,1-.51.23l-.57.23a8,8,0,0,1,.89-.65c.38-.23.7-.47.7-.47s-.09,0-.65.19.26-.33.42-.47a2.75,2.75,0,0,1,.84-.42c.27-.06.29-.35.56-.47a8.07,8.07,0,0,1,1.73.14c.35,0,1.06-.1,1.41,0a2.24,2.24,0,0,0,.93,0,8.44,8.44,0,0,0,.89-.14c.36-.14.73-.29.89-.37a10.31,10.31,0,0,1-1,.18c-.37,0-.8-.09-.8-.09a10.54,10.54,0,0,1,1.27-.47c.35-.06.54-.3.75-.37a1.23,1.23,0,0,0,.32-.19c.09,0-.35.09-.61.09s0-.28.19-.37a3,3,0,0,1,.66-.28c.28-.08.65-.49.88-.56a20.75,20.75,0,0,1,2.58-.1c.41,0,1.26-.2,1.63-.14a2.89,2.89,0,0,0,.66.05l-.1-.14s.1-.18-.46-.14a1.36,1.36,0,0,1-.7,0l1.26-.23a2.48,2.48,0,0,0,.61-.19l-.05-.19a5.17,5.17,0,0,1,1.22-.32,5,5,0,0,0,1.4-.24l.65-.28s-.13-.16-.23-.14-1,.11-1.4.14a7.34,7.34,0,0,1-1.36.1c-.6,0-1,0-.79,0a7.62,7.62,0,0,1,2-.47c.38.05,3.11-.12,3.41,0s1,.29,1.45.47a6.15,6.15,0,0,1,1.26.47c.22.19.14.22.38.61A13.83,13.83,0,0,0,237,12.35a7.64,7.64,0,0,1,1.07,1.26c.08.21.19-.1.19-.1a4,4,0,0,1,.56.75,3,3,0,0,0,.24.42,4.37,4.37,0,0,0,.6,1.08c.46.62,1,.87,1.13,1.17s.17.68.28.75.23-.05.23-.05-.16-.28-.09-.28a3.65,3.65,0,0,0,1-.19c.15-.11.28-.23.28-.23h.37l.19-.14s.14-.68.14-.61.3.55.52,1,.41.85.6.89.32-.12.42-.14.42.57.52.66a5,5,0,0,1,.65.56c.13.17.31-.08.38-.19s.22-.42.28-.37.36.45.51.56.24.45.33.46.31-.25.37-.37a.47.47,0,0,1,.28-.19c.11,0,.2-.08.24-.18s.15-.29.28-.28.35.07.37.14,0,.27.14.28.38-.24.38-.24a1.26,1.26,0,0,1,.28,0c.06,0,.23-.08.33,0s-.07-.22-.24-.38-.6-.45-.7-.56-.19-.24-.09-.33.29-.33.37-.33.19.24.28.33.43-.11.42,0,.18.24.28.23a1.64,1.64,0,0,0,.38-.19.82.82,0,0,1,.56,0c.2.13.42.27.42.19s-.09-.38,0-.42.22-.33.51-.38.7-.1.8-.23-.1-.47-.1-.47.06-.41.29-.33a2.45,2.45,0,0,0,.7.14c.12,0-.42-.42-.42-.42s.31.19.46,0M15.06,19.41c.09,0,0,0,.09,0s0,0-.09,0m12.2-8.84h0c0,.1,0,0,0,.14h-.14Zm0,1v.09c.09,0,0,0,.09.05h.05v.14H27.4v-.14c-.3,0-.21-.14-.37-.28v-.05h.09a.43.43,0,0,1,.05.19Zm-.23-1.08h0c-.05.09-.13.1-.18.19h-.05c.05-.09.12-.11.19-.19m0,5.05v.1H27l0-.14-.33,0a.34.34,0,0,0,0-.19c.07,0,.06,0,.1.09h.09a1.21,1.21,0,0,0-.05-.14H26.7c-.07-.05.09,0,.09,0s-.07,0-.09,0V15.1c.13,0,.14.09.24.14v.19H27l-.05.14Zm-.14.24c-.09,0,0,0-.1-.05.1,0,.05,0,.1.05m-.38,2.85c.1,0,0,0,.1.05h0l0,.14h-.1l0-.14Zm0-2.48a.48.48,0,0,1,.14.09c-.11,0-.09,0-.14-.09m.14-.61h0v.1h0Zm-.42-5.33c0-.05,0,0,0,0v.09c-.09,0,0,0-.09,0Zm-.19.14.19,0c.09.11.14.08.18.27h.1v.15a.4.4,0,0,1,.18,0v0a1.24,1.24,0,0,1,.19,0c0,.06,0,0,.05,0s0,.25-.05.37H27v0l-.28,0-.05-.09h-.09L26.47,11v-.1l-.19-.14L26,10.48Zm-1.31,2.25c-.09,0,0,0-.09-.05s0,0,.09.05m-.93,3.13h0c.05,0,0,0,.1,0v0h-.1c0,.06,0,.12.05.19s0,0,.09,0h0c0,.06,0,0,0,0V16h-.09Zm-.15.09c-.09,0,0,0-.09,0s0,0,.09,0m-.13-1.21h0s-.09.09-.09.09Zm-.38.18h0v0l0,0h.14c0,.09,0,0,0,.09v0s-.18,0-.09,0m.19,4.31c0,.12,0,.1-.14.14v-.14ZM23,14.78c.09,0,0,0,.09,0h0c0,.06,0,0-.05,0ZM23,15h0c.05,0-.09.09-.09.09L23,15m-.19.19h.05c0,.09,0,.06-.05.09v.05h-.05Zm-.28,3.46h.05v-.14h.09c0,.06,0,.12-.05.19s-.18,0-.09-.05M22,9.17c0-.06,0,0,0-.05v.09c-.09,0,0,0-.09,0Zm-1.26,4.39h0v.1h0ZM17.07,33.25h-.14v0l.14,0Zm1.68.09h-.14v0h-.05V33.3a.48.48,0,0,1,.19,0Zm.38-14.4v0c-.06,0,0,0-.05,0s-.17,0-.23-.09Zm0,14.73H19v-.09h.14Zm.47-.09c-.1.07-.09,0-.19.09h0l0-.14h.19Zm0-17.31c-.09,0,0,0-.09,0H19.5c0-.08,0-.16.05-.24h0l0-.09.09-.05v0h-.09v-.14h.09a2.13,2.13,0,0,1,.37-.85l0-.23.19-.14a2.74,2.74,0,0,1,.05-.28h.09l.05-.24h.14v0c.14-.1.08,0,0-.19l.14.05c.17-.35.45-.37.61-.66h.09V13h.05l0,.14h0c0-.08,0-.19.1-.23h.09l.05-.1H22l-.05-.09a.41.41,0,0,0,.24,0c.06,0,0,0,0,0v0a.13.13,0,0,0,.14,0l.14,0c0,.07,0,.15,0,.23h0c0,.37-.07.26-.32.38v0H22l0,.09h-.09v.05h-.1l-.09.1h-.1v0l-.14.05,0,.09h-.1l-.09.14h-.09l-.14.19h-.1l-.37.42h-.09l-.1.09v.1l-.19.14V15l-.09.05v.09l-.14.09-.09.43h0v.09h-.05a1.93,1.93,0,0,0-.09.51M22,15.1c-.14.12-.17-.08-.33.14h0l.33-.42H22v0h.15a1.13,1.13,0,0,1-.19.32m0,.28a.84.84,0,0,0-.09.19h-.09a.84.84,0,0,1,.09-.19Zm-.32,2.16c.05.05,0,0,0,.09h0s0,.18-.05.09v0c-.07-.06,0-.06.05-.14m-.24-.19h0V17.3h.14v.14h0s.1.09,0,.19h0v.05c-.17-.18,0-.2-.05-.33m-.18-.28c0-.06,0-.13,0-.19h.14v.05h.05V17h-.05c0,.09,0,0,.05.09a.84.84,0,0,1-.09.19h-.05v-.15Zm0-1.12h0v0h-.05v-.28c.05,0,.05.06.09.1Zm.05.09v.23h-.05v.1h0a1.49,1.49,0,0,0,0-.33Zm.09-.33a.61.61,0,0,1,.05-.23l.09,0c0,.06,0,.05-.09.09v.09Zm.1,0,.09-.14h.05l-.1.14Zm.18,2.06c0-.06,0,0,.05-.05v.09c-.09,0,0,0-.09,0ZM22,15.24h.05v.1h.14v-.05h.1v.05h0v0h-.14v0c-.05,0-.05,0-.1-.09Zm.24-.51,0-.05h.09a.48.48,0,0,0,0,.19h0Zm.19,3.65s0,0-.1-.09.13,0,.1.09m-1.36-1.59h.05v.09h-.05Zm.05.32h-.05V17h.05Zm-.05-.37a.48.48,0,0,1,.05-.19h0c0,.09,0,.07,0,.1v.09Zm.05-.33v.1h-.05a1.64,1.64,0,0,1,.05-.52l.09,0a.5.5,0,0,1-.09.37M19.92,33.48v.05l-.14,0,0-.1Zm-.14.38v-.1s.08,0,.09-.09h0v-.05h.09c0,.08,0,.16,0,.24Zm.28-.19c.09,0,0,0,.09,0s0,0-.09,0m0-.24h0v.1h0Zm.33.52c-.09,0,0,0-.09-.05h.05l0,0Zm.14-.14h0v-.05c-.06,0,0,0-.05,0h.09Zm.14.09c.1,0,0,0,.1.05-.1,0,0,0-.1-.05m.1-.14v.05h0v-.14l.09,0c0,.05,0,0,0,0m.51.47H21v-.09h.23Zm.89-.14a.34.34,0,0,1-.28,0,.41.41,0,0,1,.05-.09l.23,0Zm.33.19c-.17,0-.22,0-.28-.1.16,0,.17.06.32,0Zm.18-12.77a1.42,1.42,0,0,1-.32-.19l-.29,0-.09-.14h-.09v-.05h-.1l0-.09h-.05v-.1l-.09.05c0-.06,0-.12,0-.19h-.14l-.05-.14h-.14s.06,0,.1-.09l-.1-.05v.05c-.09-.05,0-.06,0-.14s-.08,0-.1-.09a.69.69,0,0,1-.23.09c0-.14,0-.1,0-.23h-.09l0-.15h0v0h0v-.09h-.05a.43.43,0,0,1,0-.24h0v.14h-.05s0,0,0,0,0-.09-.1-.14v-.14h.1V19.5H20.3l.09-.14-.09-.05v-.09h-.05c0,.09,0,.05-.05.09l-.05-.14h0v-.23l-.1-.05V18.8s-.06,0-.09-.09c.23-.06.12,0,.28.14v0l.14,0,0,.09.18,0a1.13,1.13,0,0,0,.28.37h0v.09l.23.19v.09l.33.28v.1l.14.09v.05h.09l0,.09.19.14v.05h.09v0a.42.42,0,0,0,.19.09v.09c.24.07.32.27.56.33v.09h.09l.05.24h.09v0c-.08,0-.09,0-.09,0s-.15-.06-.19,0ZM23,34v0H23c0,.09,0,0-.05.09v0h-.14V34Zm.09.24a.2.2,0,0,0-.09.09c-.09,0,0,0-.09,0h-.05l.05-.09h.18Zm.28-14.59-.28-.05,0-.09-.14,0v0l-.28-.1v0h-.1l-.23-.28h-.09c-.16-.09-.24-.13-.28-.33h-.1a1.55,1.55,0,0,0-.05-.23h0v-.05h-.14v-.1h.09v0h-.14a.8.8,0,0,0-.05-.19l.05-.05h-.09c-.05-.19-.15-.26-.19-.46h.14v.09h.14v.09h.09V18h.1l0,.14h.05v.14h.05v.05c.09,0,.13-.07.18-.1a.84.84,0,0,1,.1.42h.19c0,.1,0,0,0,.1a1.08,1.08,0,0,1,.1-.24h0l-.09.33h.05a.74.74,0,0,1,.14.28h.14c0,.06,0,.05-.1.09v0h.14s0,.07.1.09v.1H23l-.05-.24h.14v.28h.14a.34.34,0,0,0,.14.19ZM24.5,34.23s-.18,0-.09,0h.05v0c.09,0,0,0,.09,0l-.05,0m.38-12.72h-.24v0h-.09l-.05.09h-.14v.05c-.06,0-.18,0-.18-.05h-.05v.14s-.07.05-.09.09a1.47,1.47,0,0,0-.19.05v-.05l-.28,0v0c-.08-.06-.1-.13-.19-.18s0-.22.05-.33h.23v.05h.05v-.05H24v-.05H24a.73.73,0,0,1,.28.05v-.05l.23,0v-.05c.1,0,.23,0,.19.14s-.08,0,0,.05.14,0,.19,0Zm-1.4-4.3,0-.14h.05c0,.09,0,.06-.05.09v.05Zm.13,2.67a1,1,0,0,1,.05-.19h.05c0,.08,0,.11-.05.14v.05Zm1.41-2v.19H25v0h-.33l0,.1-.24,0v0h-.09l-.05.09-.37,0c0-.13,0-.11-.14-.15l-.1-.28.1,0c0-.07-.08-.16-.05-.28h.05v-.05h-.05V17.4h-.05v0h.05l-.05-.14c.06-.05,0,0,.05-.1h.05l.09.15h0v0h.14a.45.45,0,0,1,0-.28,1.43,1.43,0,0,0-.52-.14l-.05.05v-.05h0v0l.09,0v0h.05c-.07-.12,0-.1-.05-.24l-.09-.05c-.05-.09.05-.05-.05-.14v0l.09,0v0h.05l-.05-.14h.1a.43.43,0,0,1,.18-.28v0c.09,0,.08.07.19.09s0,0,0,.1v0c.2,0,.38,0,.46-.09h.1l-.05.14a.61.61,0,0,0,.23-.05c.07.18,0,.28.19.38,0,.2,0,.25-.14.33v0c.09,0,0,0,.09,0s.16.06.28.14v.18h0v.05h0l0,.14c-.16,0-.12.1-.28.14v.14l.42-.05.09.28Zm.28.09h.05c0-.05,0,0,0,0l.05.09h-.05v.09H25.3Zm.14,3.14h-.05c0-.07,0-.13.05-.19h0v.19h0v0c-.09,0,0,0-.09,0m0-.28c0-.07,0-.13,0-.19s.13,0,.19-.09h.09v0a.92.92,0,0,0-.28.24Zm.28.51-.14.05v-.1h-.1c0-.09,0,0,0-.09v.05h.05v-.05h.14Zm.09-.33h-.23v0c-.06-.06,0,0-.05-.1s0,0,.05-.09l.14.05s0,.18,0,.09V20.9h.05c0,.14,0,0,0,.14M26,19.36H26v-.09H26Zm.09,2.29c.1,0,0,0,.1.05-.1,0,0,0-.1-.05m.28-2.1h0v-.1h0Zm-.14-.75h.1v.09h-.1ZM26.42,17c-.09,0,0,0-.09-.05h0c0-.05,0,0,.05-.05Zm0-.47h-.09v.23h0v.05h0s0,.09,0,.05v-.1s-.06,0-.09-.09h-.05v.19l.14,0V17s-.1,0-.09.09h0v.14h.05c0,.09-.05.09-.05.09s0,.22.05.33h-.05l-.09.28.05.05h-.14L26,18.1H26v0h.1l-.05.15s.07,0,.05.09H26c0,.06,0,.12-.05.19l-.28,0c0-.09,0-.05,0-.09s.13-.12.14-.14v-.7h-.05v-.1h0v-.79l-.09-.05v-.09h-.09c0-.1,0-.13-.1-.19v-.05a.45.45,0,0,0,.28,0l0-.14h-.09v-.09h-.19v-.05h0v0h0V16h0v0l.28-.05v0c.11,0,.1,0,.18.09V16l.38,0c0,.09,0,0,0,.09v.05h.14v.09c-.09,0,0,0-.09.05h0a.39.39,0,0,1,0,.18h.14c0,.06.09.25,0,.33h0v.05h0V16.7h0a1.47,1.47,0,0,1,0-.19m.28,17.63h-.05v0h0c0-.14,0-.07,0-.23h-.1a.66.66,0,0,1,0-.28h.1l-.05.09.09.05c.05.1,0,0,.05.14Zm.09-12.54c-.09,0,0,0-.09,0h-.14v0h.14v0h.09Zm0-1.3h-.19v-.05h.14V20.2c.09,0,0,0,.09.05s0,0,0,.05m.56-.19h0v.05h0l0-.1h.14ZM27.54,18h0v.05a.07.07,0,0,1,0,.09h0c0,.08,0,.16,0,.24h0c0,.09,0,.19-.05.28H27.4v.14l-.09.05.05.09h-.1a.34.34,0,0,1-.09.19h-.05c-.15.23-.09.44-.42.51v.09h-.09l-.05-.14h.05V19.5h-.14v-.09c.09,0,0,0,.09-.05h.09c0-.06,0-.06-.09-.09v-.05h.14c0-.09,0,0-.05-.09v-.05l-.09.05.09-.14c.1,0,0,0,.1,0h-.1l.05-.19.09.05v-.19h.1v-.19h-.05v0h.05a2,2,0,0,1,.05-.24h0v-.09H27V18h0a1.8,1.8,0,0,1,0-.19H27c0-.06,0,0,.05-.05L27,17.63s.1,0,.14-.09L27,17.49l-.05.05c0-.05,0-.1.05-.14s-.07,0-.05-.1H27c0-.12,0-.25,0-.37h0v-.19c-.06.05-.07.1-.14.14a.74.74,0,0,1-.05-.33h.1l-.05.15h.05s0,.08,0,0v-.09c.05-.06,0,0,.05-.1l-.14,0v-.14h.05v-.1c-.07,0-.06,0-.1.1h-.09c0-.05,0-.1,0-.14h.05v-.1h.05a1.89,1.89,0,0,1,.05-.23l.09-.05L27,15.71h.1v.1h.09v.09h0l0,.09.09,0v.09h0a2.33,2.33,0,0,0,.05.28h-.05v.05h.05v.09h0c.08.25-.15.12.05.29,0,.05,0,0-.05,0v.05a.26.26,0,0,1-.09-.09c-.06,0-.07.09-.14.14s0,0-.05.09.11,0,.19.09a.93.93,0,0,0,0,.1h.1c-.05.12,0,0,0,.14h-.09c0,.09,0,0,.05.09s0,0,0,.05v-.1h.1c0,.18.09.24-.05.33.05.05,0,0,.09.05Zm.05-7.2a.11.11,0,0,1-.14,0h.14Zm.09-.23a1.23,1.23,0,0,1-.23-.09l-.05-.1.14,0v.14a.24.24,0,0,0,.1-.1h0Zm.33.33v0h-.14c0-.09,0,0,.05-.09v0h.14c0,.1,0,0,0,.1m.75,2.94-.19-.09v-.19h.1c0,.14.07.1.09.14a.93.93,0,0,0-.05.1ZM29,11.18h0v0H28.9V11H29l-.05-.09c.09,0,0,0,.09,0H29c0,.05,0,.2-.05.24m2.53,2.57.09.18h-.09Zm0,1.54h0v0h.05v.19h-.09ZM31.47,13c-.09,0,0,0-.09,0s0,0,.09,0m-.14,4.45v0l.14,0c0,.09,0,0,0,.09V17.4Zm-.09-2.48c.09,0,0,0,.09.05h.05s0,0-.05,0v.05h-.14v0h-.05a1.62,1.62,0,0,0,.1-.18m0,1.17c0,.09,0,.18,0,.28h-.14v-.1h0a.59.59,0,0,0,0-.18Zm-.19-2.95h.05v.09h-.05ZM29.6,15.9h-.05v-.09h.05ZM29.69,17h.1c0,.11,0,.09.09.14s0,.11-.14.14a2.74,2.74,0,0,0,0-.28m.24,2.06s-.2,0-.14,0h0v0l.1,0Zm.65,14.59h-.14v-.05h0l0-.14h.19v.05h-.05c0,.07.06,0,.1.09s0,0-.1.05m0-15.38v-.15h0v0l-.1,0c0-.05,0,0,0,0v-.05c.15,0,.17.06.19.24Zm.94,15.24,0,.14-.51,0s0,0-.09,0l-.1,0v0h-.14l.75-.17v0h.09l-.09,0v0Zm-.05-14.82h0a1.8,1.8,0,0,0,0-.19h0c0-.05,0,0,0-.05s0,.13-.05.19-.1-.08-.14-.09l-.14,0v-.14H31v0h0l0,.15-.14,0v-.14l-.14,0a2.16,2.16,0,0,1,.05-.32c-.09,0,0,0-.09-.05h-.05V18h.05v.09c.1,0,.14-.05.18-.05v.1h.05V18H31v.1h.28l0,.09.18,0v.14h0v0h.09v0h.05v0l.14,0Zm.14-.85v-.09h-.09c0-.09,0,0,0-.09v-.05c-.13,0-.12,0-.18.09h-.05l.09-.14h0v0a.63.63,0,0,0,.23,0s0-.09.05-.14Zm0-4.77h-.05v0h.05c0-.1,0,0,.05-.1Zm3.51,20.49a.12.12,0,0,1-.14,0h.14Zm2.34.23s-.19,0-.1-.05h0v0c.09,0,0,0,.09,0s0,0,0,.05M41,35.63c-.21-.05-.15-.11-.37,0v-.1s0,0,0,0a1.39,1.39,0,0,1,.32,0Zm7.21-.28c-.1,0-.05,0-.1,0h.1Zm1.82.94c.09,0,0,0,.09.05s0,0-.09-.05m1-.1c0,.05-.18.07-.14.19h.05v0c-.21-.08-.24-.08-.28-.33-.06,0,0,0-.05,0h-.09v0h0c0,.07-.07.09,0,.19h0v0a.1.1,0,0,0,0,.09l-.28-.05v0h0l0-.24c.09,0,0,0,.09,0a.43.43,0,0,0-.19,0L50,36a.39.39,0,0,1,.18-.05V36c.11,0,.28-.18.47-.1V36c.15.1.09.14.28.09Zm.19,1.13v-.19h0a1.33,1.33,0,0,1,0,.19Zm.37-.85h0v.14h-.05c0,.06,0,0,0,0v-.09h-.14v-.14c.16,0,.13,0,.28,0ZM55.09,8a.67.67,0,0,0-.24.05c0-.05,0-.09,0-.14s0,0,0,0l.24,0Zm4.39-2.47c0-.06,0,0,.05-.05v.09c-.09,0,0,0-.09,0Zm-.33-.28c.1,0,0,0,.1,0h0s0,0-.05,0Zm-.7.09v.14h0v.05h.23l-.33.18v0h-.18c.08-.1.09,0,.14-.19h.14s0-.1,0-.14Zm.14.51h-.14V5.75c.13,0,.11,0,.14.14m-.65-.51.33-.09c0,.15-.11.18-.14.32H58c0-.13.07-.1.1-.23-.1,0,0,0-.1,0h-.09Zm-.28-.19.19-.05c0,.06,0,0,0,.05a.43.43,0,0,1-.23.19v0h0Zm-.38.1c.1,0,0,0,.1,0-.1,0,0,0-.1,0m.42,1.4-.14,0a.58.58,0,0,0,0-.14s0,0,0,0h0Zm.52.56h-.09V7.06h0c.06,0,0,0,.1,0s0,0,0,0-.06.07-.09.19m.89,0h0V7.11h0Zm0-.28h-.19c-.05,0,0,.06-.14.09v.15h0s0,.19,0,.14v0h.05a.34.34,0,0,1-.09.14c-.06.05,0,0-.1,0l0-.13h-.24c0-.07.08-.07.1-.1l0,0,0,0,0-.1h0V7l-.14,0v0h0v0h-.23V7C58,7,58,7,57.94,6.92l-.09.19h0v0l-.14,0a1.2,1.2,0,0,0,0-.38L58,6.64l0,.09h0v.1h.1v-.1h.09v.1c.14,0,.11-.08.28-.1V6.64a.48.48,0,0,1,.19.09v0s.09-.1.18,0,0,.1.05.15l.14,0v0h0ZM59.2,5.8v0h-.05a.39.39,0,0,1,.1-.28c.09,0,0,0,.09,0h0v.1c-.11-.11-.12,0-.19.09m.24,0v.14h0V6h0V5.8Zm.14,1.59-.29,0A.69.69,0,0,1,59.44,7v0h0a1.49,1.49,0,0,0,0,.33h.14Zm.14-1.5h0V6h-.05l.05-.14h0ZM61,7.67h0v.14h0c-.08.1-.09,0-.14.19h-.09a.51.51,0,0,1,.05-.24h0V7.58h0c0-.06,0,0,.05,0v.09H61ZM64.58,6h.14v0c-.11,0-.09,0-.14.09h-.09L64.58,6M63.27,7.67h-.09l0-.14,0,0L63,7.43c0-.09,0,0,0-.09s0,0,.05,0v.09c.09,0,0,0,.09,0h.14a1,1,0,0,0-.09.33m.09-.7c.1,0,0,0,.1,0-.1,0,0,0-.1,0m.28,0,0-.14h.14s0,.1,0,.14,0,0-.14,0m1.08.28v0h0V7.16l-.18.09,0-.14h0V7h0v.1c.1.06.08,0,.24,0,0,.09,0,0,0,.09M64.81,7h0V6.92h0Zm.1,0h0V6.92h0Zm.18-.51v0h0s0-.1,0-.14h0c0,.08,0,.06,0,.09m4.35,1.08v0l-.23,0s-.06,0-.1-.09h0v0h.19v0c.16,0,.08,0,.23,0,0,.1,0,0,0,.1m.14-1.5v0l-.14,0c0,.08,0,.15,0,.23h-.14V5.94a.69.69,0,0,0,.32,0l0,.14Zm.33,1.45h0v-.1h0Zm.28,0h0c0,.22-.06.2-.14.33h0c0-.12,0-.14.14-.19V7.53c-.06,0-.06,0-.1.09h0V7.53a.94.94,0,0,0,.14-.19h.09Zm.47.19s0,0,0,0v0c.06,0,0,0,0,.09Zm.33.19s0,.18,0,.09v0c-.07-.05,0-.06,0-.14s0,0,0,.1Zm.46-.1-.18,0s0,0,0,0V7.58h.23Zm.1-.75v0h0c0-.11,0-.1.09-.18h0v0h0c0,.09,0,0,0,.09m.18,33-.14.05v-.1h.14Zm.33.1c0,.05,0,0,0,0V40c.1,0,0,0,.1,0Zm.7,0h-.09v.09h0s0-.09,0-.14l.09,0Zm0,.14v-.09c.09,0,0,0,.09,0h0a.32.32,0,0,1-.14.14m0-35.31h0a1.21,1.21,0,0,1,0-.14c.09,0,0,0,.09,0s-.06,0-.09.09m4.2,2h.1V7h-.1Zm-.18.18v.05l-.14-.05c0-.09,0,0,0-.09v0l.14,0c0,.09,0,0,0,.09m.7.42h0c0,.06,0,0,0,0l0-.14-.14,0v0l-.14,0v0h0c0-.07,0,0-.09,0s0-.1-.09-.19a2.32,2.32,0,0,1,.33,0v0h0v.19h0v0c.07,0,.16-.22.19-.24h.09c0,.13-.08.14-.14.24h0Zm.19-.05h-.1V7.34h.1Zm.18,0-.14,0,0-.09H78Zm0-1.73h.1l0,.14A.32.32,0,0,1,78,5.66m5.85,1.5h.09c0,.09,0,0,0,.09v0c-.09,0,0,0-.09,0h0Zm-.38-.1c0-.13,0-.1.14-.14,0,.12,0,.1-.09.19h0v0h0c0-.1,0,0,0-.1M82,8,82,8h0S82,8,82,8m1.55-.23,0-.09h0s-.09.09-.09.09m0-.47v0l-.14,0v0h0l0-.14h.19v0a.29.29,0,0,0,.09-.19h.14c0,.13-.06.1-.09.23Zm.42.52h0v-.1h0Zm0-.19v0h0v-.1h-.1l.1-.19h0v0h0v.14h0v0h0c0,.09,0,0,0,.09m0,.14c.09,0,0,0,.09.05s0,0-.09-.05m.23-.14h0l.14-.19h0Zm.28.19v0h0s0-.09,0-.14h0c0,.09,0,.07,0,.1m.1-.33v0h0l0-.15h0c0,.09,0,.07,0,.1m2.33-1.12v0h0V6.36c.09,0,0,0,.09,0Zm4.87,1.87c-.1,0,0,0-.1,0h0c0-.06,0-.12,0-.19h0V8h.18c0,.09,0,.18,0,.28m7.76-1.17h-.09c0-.06,0-.13,0-.19s0,0,.1,0h0l-.09.14m1.73-.19h0V7h0c0-.06,0,0-.1-.09V6.78h.19Zm38.39,28.95c.1,0,0,0,.1,0-.1,0,0,0-.1,0M140,36h-.09v-.1H140Zm33.53-5.24v.05h-.05v-.1c.09,0,0,0,.09.05Zm10.94-2.9c-.09,0,0,0-.09-.05h0v0h.05Zm.23.28h-.14a.78.78,0,0,0,0-.14c.09,0,0,0,.09,0h.05a.41.41,0,0,1-.05.09m.28,0v.05h0l0-.05-.09-.33.14,0c0,.14.07.26-.05.37m.43-.28c-.07,0,0,0-.05-.05s-.06.05-.09.1h-.1l.1-.14.14,0v0h.09v0c-.09,0-.09.05-.09.05m.28.42h-.1c.09-.07-.06-.23-.14-.28.08-.1.1,0,.14-.19h.1a2.45,2.45,0,0,1,0,.47m.32-.42a.21.21,0,0,1-.09.23v0h0l0-.09h0l0-.14c.05-.06,0,0,0-.1h.1c-.06-.14,0-.05-.14,0v-.05h.09v-.09h.05v.09h0l0,.14Zm9.78-5.33h-.14v-.05c-.06,0,0,0-.05,0h.05V22.4l.14.05Zm6.82-3.41h0l0-.14-.18,0v0h0v-.14h0l.37.09a.5.5,0,0,0-.19.19M203,19h-.1l0-.14H203Zm.42,0c-.1,0,0,0-.1,0h-.18v0h0l0-.18c.19,0,.12.12.32,0ZM212.21,16h-.1v-.1h0v.05h.05Z" style="fill:#020001"/></svg>