<svg id="圖層_1" data-name="圖層 1" xmlns="http://www.w3.org/2000/svg" viewBox="0 0 250.1 39.53"><title>pic</title><path d="M250,12.31c-.21-.24-.6-.2-.77-.22s-.28-.16-.49-.22-.49-.48-.77-.55A5.39,5.39,0,0,0,246.7,11c-.49,0-2,.18-2.41.22s-4.46,1.5-5,1.7-2.51,1.26-4.06,1.86S229.18,17,228,17.4a28.74,28.74,0,0,1-4.28,1.31c-.64,0-.74-.89-1.26-.87a10.83,10.83,0,0,1-1.26-.22,8,8,0,0,0-2,.65h.11v.06c-.11,0,0,0-.11-.06-.41.19-.33.11-.33.11l-1.25-.11s-.53-.45-.72-.65a7.9,7.9,0,0,0-.82-.66c-.18-.15-.4,0-.6-.11a15.22,15.22,0,0,0-1.83.17h.08v.05c-.11,0-.06,0-.11-.05l-.55.05h-1.42a3,3,0,0,1-.82-.38,4.12,4.12,0,0,1-.37-.26c0,.05,0,.05.09.09a1.09,1.09,0,0,0-.05.17l-.33-.06v-.05h-.06v-.17h.32a6.31,6.31,0,0,1-.92-.76c-.38-.42-.56-.86-1-.83s-2.16.32-2.52.28-1.92.06-2.19.05-1.13-.79-1.26-1-.54-.48-.55-.6-.46-.33-.71-.44-.21-.2-.61-.33a2.87,2.87,0,0,0-.93-.06c-.24,0-1.12.23-1.47.22a12.55,12.55,0,0,0-1.26.17,1.08,1.08,0,0,0-.39.11,2.41,2.41,0,0,1-.87,0,5.1,5.1,0,0,1-.77-.27,6.41,6.41,0,0,0-.38-1c-.22-.39-.14-.5-.39-.71l-.44-.38s.3-.28.11-.33-.22.14-.38-.06a1.26,1.26,0,0,0-.6-.38c-.17,0-.38.24-.6.22s-2.16.14-2.41.11a6.84,6.84,0,0,0-1.1-.22c-.11,0-.26.22-.33.16a4,4,0,0,0-.6-.27,7.72,7.72,0,0,1-.82-.27,2.87,2.87,0,0,0-.82-.33,2.78,2.78,0,0,1-.66-.22s-.65-.61-.77-.71,0-.64,0-.77.07-.48.17-.55.21-.08.27-.16a1.22,1.22,0,0,0,.11-.27,1.24,1.24,0,0,1,.17-.17,1.48,1.48,0,0,1,.43-.49c.32-.21.66-.41.44-.39s-.39.13-.55.06-.2,0-.38,0a2.12,2.12,0,0,0-.49.27s0-.3-.17-.38a1.11,1.11,0,0,0-.65-.06,1,1,0,0,1-.5.06.36.36,0,0,1-.27-.22.9.9,0,0,0-.44-.38,4.63,4.63,0,0,0-.71,0c-.2,0-.49-.27-.49-.27v.16a.7.7,0,0,1-.22,0h-.38s0-.24-.17-.22a.59.59,0,0,1-.27,0s.17-.14,0-.16-.3,0-.28-.11a2.75,2.75,0,0,0,.06-.44.28.28,0,0,1,.11-.16,3.44,3.44,0,0,1-.55,0c-.29,0-.28,0-.44-.16s-.29-.36-.55-.39a2.08,2.08,0,0,0-1,.11c-.17.14-.73.56-.82.61s-.42.42-.72.65a8,8,0,0,1-.76.55,1.83,1.83,0,0,1-.93.38c-.29,0-.72.19-.93.11s-.75-.13-.93-.22-.18-.46-.11-.54a1.63,1.63,0,0,0,.32-.5c.17-.34.27-.69.39-.87A6.89,6.89,0,0,1,174.2,3c.21-.27.38-.36.49-.5s.16-.26.33-.49a1,1,0,0,0,.16-.77c-.06-.11-.29-.44-.55-.43S174.18,1,174,1s-.41.2-.55.21-.37,0-.44.06.27.08.55.11a4,4,0,0,0,.6.05.22.22,0,0,1,.22.22c0,.12-.07.21,0,.33s0,.2-.11.22-.22.22-.44.44-.93.8-1.15,1a1.08,1.08,0,0,1-.76.33c-.41.05-.41.09-1,.44a11.62,11.62,0,0,1-1.59.82c-.42.17-1.7.6-1.7.6l-1.36-.21c-.16,0-.17,0-.17,0s-.32-.32-.49-.28a3.94,3.94,0,0,1-.66.11,3.37,3.37,0,0,1-.49,0c-.18,0-2-.16-2.47-.17h-.49a3.81,3.81,0,0,1-1,0,4.29,4.29,0,0,0-.39-.22s0,.28-.16.16-.62-.23-.82-.38-.27-.43-.44-.49a2,2,0,0,0-.49-.17c-.2,0-.25,0-.33-.11s-.19-.13-.33-.27-.31-.12-.28-.27.1-.18,0-.17-.22.14-.38.17a1.61,1.61,0,0,0-.44.1c-.18.08-.87.07-1.09.17a4.35,4.35,0,0,1-1.1.22l-.38-.06s.06-.34,0-.27,0,.24-.33.27a5.05,5.05,0,0,1-.87,0c-.32,0-.74.06-.83.06a3.26,3.26,0,0,1-.43-.11,2.52,2.52,0,0,1-.5-.11,1.8,1.8,0,0,1,0-.33s-.09-.18-.22-.11a1.72,1.72,0,0,0-.27.22s.13-.21,0-.22-.11,0-.44-.16-.39-.08-.49,0a2.86,2.86,0,0,1-.28.16,2.09,2.09,0,0,1-.49-.16,1.84,1.84,0,0,0-.49-.33c-.32-.19-.42.06-.55.11s-.68-.17-.82-.17-5-.62-5.64-.71-8.51-.91-8.76-.87-.77.05-.77.05.11-.29,0-.27A2.85,2.85,0,0,1,131,1a6.57,6.57,0,0,0-.65-.11A5.86,5.86,0,0,0,129.18.7a5.13,5.13,0,0,0-.65.38,20.69,20.69,0,0,0-2.14,0,15.18,15.18,0,0,0-2.25.66l-1.25-.11c-.72-.06-2,0-2.14,0s-.94-.4-1-.39-3.19-.36-3.45-.38-1.4-.13-1.69-.11-1.2,0-1.59.06A8.87,8.87,0,0,1,111.39.7c-.9-.08-5.15-.39-5.15-.39s-.7-.34-.66-.27.12.45,0,.44-.92,0-1.09,0L102,.37s0-.28-.11-.28-.46.22-.5.11S101.09-.08,101,0a1.42,1.42,0,0,1-.39.44c-.08,0-2.74,0-3.17-.06s-7.58.25-8,.22-7.31.19-8.05.22-6.62.48-7.83.6-4.33.45-5.21.5-2.45.29-2.62.27a2.36,2.36,0,0,1-.61,0c-.13-.07-.34.1-.49.16a3,3,0,0,1-.71.16c-.28,0-.84.16-1.21.22l-.93.17c-.08,0-.14-.22-.33-.11a.83.83,0,0,0-.32.27,1.13,1.13,0,0,1-.28.22l-1.09.22c-.33.06-1.34.32-1.48.33s-.22-.27-.44-.17S57.72,4,57.5,4s-.16,0-1.09.27-1.1.45-1.32.38a3.8,3.8,0,0,0-1,.22L47.64,6.56c-.91.23-6.61,2-7.06,2a5.29,5.29,0,0,0-1.42.33,14.44,14.44,0,0,1-1.37.66c-.38.14-.51.16-1.65.6a16.88,16.88,0,0,1-2.68.71s-.78-.06-.87.06-.55.54-.55.54-1.37.56-1.81.66a2.73,2.73,0,0,1-.93.06,15.5,15.5,0,0,0-1.64.65c-.39.16-1.81.62-2.14.72s-1,.11-1.15.27a2.41,2.41,0,0,1-.7.44h.15v.05h-.05v.06h-.22v0a.49.49,0,0,1-.27.06v-.06h0c.14-.19.12,0,.27-.11v0a.35.35,0,0,1-.11,0c-.31.05-1.22.45-1.58.49a7.15,7.15,0,0,0-1.22.33h.07v.06c-.1,0-.06,0-.1-.05l-.29.1-.46.18h0v.16a.41.41,0,0,0,.21-.05v.05h.06c-.05.06,0,0-.06.06a.52.52,0,0,1-.38.16v-.16h.11c-.06-.07,0,0-.11-.06v-.1a4.42,4.42,0,0,1-.88.27c-.2,0-.64.1-1,.17V16c.07.06,0,0,.06.11l-.22.05v-.05A.29.29,0,0,0,17.8,16h-.16s-.07.1-.17,0v0h.11v0l-.38.09h.16v.06h-.05v.05h-.17V16.1l-.23.09H17v.06c-.1,0-.06,0-.1,0l-.11,0h0v.11c-.06-.05,0,0,0-.06s0,0,0,0l-.77.31h0c0,.06,0,0-.05.05v.06h-.17v0l-.25.1.2-.06v0h-.06c-.07.09-.11.1-.27.11V17h-.11c0-.06,0-.11,0-.16l-.11.05V17c-.07,0,0,0-.06.05L15,17s0,.11,0,.05V17a12,12,0,0,1-1.48.52,5.81,5.81,0,0,0-1.32.22,7.47,7.47,0,0,1-.93.49c-.22.07-1,.4-1.58.6a39.78,39.78,0,0,1-3.78,1.59,13.36,13.36,0,0,0-2.41.38,5.26,5.26,0,0,0-1.7.61c-.36.3-.34.54-.05.65s.61-.15.76-.11.37.21.49.17,1,.16,1.48.16a2.41,2.41,0,0,1,1.43.28,5.23,5.23,0,0,1,.87,1s-1.2.31-1.53.38-1.35.39-1.81.49a9.61,9.61,0,0,1-1.58.06s-.36-.48-.55-.28a2.25,2.25,0,0,1-.55.39s-.28-.13-.38-.06S0,24.52,0,24.52a4,4,0,0,0,.06.87c.07.31.53.51,1,.55s3.14.61,4,.77,5.79.91,6.29,1a14.49,14.49,0,0,1,2.36.55c.26.2.5.39.71.38H15s.06.21.22.22a2.45,2.45,0,0,0,.55-.11A5.82,5.82,0,0,1,17,28.9c.14.1.29.42.5.55a.48.48,0,0,0,.43,0l.5.32s0,.23.27.17.48-.34.66-.22a1.68,1.68,0,0,0,.87.38c.41,0,1.14-.12,1.32,0a4.21,4.21,0,0,0,1.15.28c.22,0,.1.27.33.27a.69.69,0,0,0,.43-.22l.66.22c.37.13,1.14.07,1.86.22s2.06.29,2.25.33.3.45.66.55.74.34.87.16a2.74,2.74,0,0,0,.28-.55,9.25,9.25,0,0,1,1.31.11c.22.09.34.49.55.5s.79-.21,1-.22a3.18,3.18,0,0,0,.55-.11,8.77,8.77,0,0,1,1,0c.22,0,.44.29.71.33a2.91,2.91,0,0,0,.55,0l.43-.33h.61a.63.63,0,0,0,.27.27,2.34,2.34,0,0,0,.44.11.16.16,0,0,0,.27,0c.13-.17.19-.28.28-.33s.26.19.38.17.29.16.44.21a3.21,3.21,0,0,1,.49.33.25.25,0,0,0,.33-.22,2.87,2.87,0,0,0-.11-.49l.38-.05s.15.31.33.33.21-.15.33-.06.13.15.33.11.36-.14.49-.11.33-.22.33-.22a2.36,2.36,0,0,0,.55.06,5.4,5.4,0,0,1,1.15.16c.22.06.57.31.71.27a1.81,1.81,0,0,1,.66.06,2.31,2.31,0,0,1,.27.16s-.34.43-.11.66.43.44.66.33a3.67,3.67,0,0,1,.38-.16,2.29,2.29,0,0,0,.38.05.36.36,0,0,1,.22,0s0-.13.06-.16.13-.09.11-.22a.31.31,0,0,1,0-.22.57.57,0,0,0,.39.17,4.34,4.34,0,0,0,.71-.17s0,.26.16.22a.83.83,0,0,0,.33-.16v-.17s.19-.12.27,0,.15.32.17.17.07-.11.16-.22.17-.11.17-.11a2.16,2.16,0,0,1,.16.22s.22-.17.33-.11.16.38.16.38-.16.34-.22.44-.19.26-.1.22l.32-.17,0,.28.55-.33s-.26.33-.11.33a.79.79,0,0,0,.33-.17l.27-.22s.24.07.27.17a.21.21,0,0,0,.17.11h.11l.05-.17.11-.21s.23.17.33.16.16-.15.27-.16.26.24.39.21a1.1,1.1,0,0,1,.55.06c.07.06,0,.23.1.27a2,2,0,0,0,.44.06c.11,0,.32.24.44.16s.07-.26.06-.38.49-.11.49-.11l0,.27s.18-.16.33-.11-.06.18.06.28a1.75,1.75,0,0,0,.43.21.68.68,0,0,0,.17.39c.14.11.35-.11.49-.11s.33-.22.33-.22H57a.66.66,0,0,1,.44.11c.14.11.24-.12.43-.22a3,3,0,0,0,.5-.38l.33.27s-.27.48,0,.55.48-.09.65-.06.35.25.5.28a.79.79,0,0,0,.6-.22c.2-.18.39-.33.6-.17s.51.44.82.39.42.19.55.16a2.9,2.9,0,0,0,.38-.11s.26.11.28.17-.24.29-.06.33a1.78,1.78,0,0,0,.55.1c.18,0,.22.19.33.17s.42-.07.55-.11a2.24,2.24,0,0,1,.38-.06s0-.25.11-.27a1.44,1.44,0,0,1,.44.17s.1.26.22.1.07-.18.16-.21.33.14.44.11.27-.28.27-.28.17.24.33.17l.38-.17s-.1.29,0,.33.29,0,.44,0,.07.19.22.21a1.35,1.35,0,0,0,.55.06,1.87,1.87,0,0,0,.49-.27.87.87,0,0,1,.44-.17c.11,0,.29.24.49.27a.48.48,0,0,1,.33.28c0,.06.33,0,.44-.11s0-.26.16-.22a.64.64,0,0,1,.28.22s-.16.14,0,.22.21,0,.33-.06.19.08.27-.05.37-.14.39-.06,0,.42.16.33a1.45,1.45,0,0,0,.33-.22c.17-.13.16-.11.16-.11a.75.75,0,0,0,.17.28c.08.05.06.24.27.16s.33-.17.5-.22a1.94,1.94,0,0,1,.54,0c.11,0,.19.19.22.28s.21.11.28-.06a.47.47,0,0,1,.27-.22l.6.06c.07,0,0,.25.17.22a1,1,0,0,1,.43,0h.39s-.13-.2,0-.22a3,3,0,0,1,.55-.06c.14,0,.25.26.33.22s.1-.31.27-.33.21.19.39.22.36-.16.49-.16.72.52.87.66.21.36.39.27a.38.38,0,0,0,.22-.38,1.55,1.55,0,0,1,.11-.44,1,1,0,0,0,.27.22,2.33,2.33,0,0,0,.55-.06A2.75,2.75,0,0,1,81.6,36c.27,0,.15.53.27.55a1.78,1.78,0,0,0,.55-.16,2.2,2.2,0,0,0,.33-.22s0,.36.22.33a2,2,0,0,1,.49,0c.13,0,.16-.14.38-.17a1,1,0,0,1,.55.17c.12.06.38.23.6.16a1,1,0,0,1,.44,0c.08,0,.21-.35.27-.39a1.33,1.33,0,0,1,.55-.11c.17,0,.17.26.33.28a.74.74,0,0,0,.38-.17l.28.17a2.74,2.74,0,0,0,.6,0c.13,0,.13.21.22.17s.32-.3.49-.28.4.16.6.11.37-.18.44,0,0,.51.17.49.38,0,.6,0,.54-.3.65-.38-.16.31.11.27.28-.06.28-.06l.49.11a.78.78,0,0,0,.44-.11.61.61,0,0,1,.44-.05s-.15.28.16.27a2.18,2.18,0,0,0,.77-.16c.14-.06.35,0,.49-.11a1.11,1.11,0,0,1,.66-.22c.19,0,.29.11.49.06s.35-.21.49-.17.14.3.22.33.25.21.44.16,1-.22,1.26-.27,4.68,0,5.2,0,2,.07,2.08.06,2.53.16,2.91.1a8.15,8.15,0,0,0,1-.1c.21-.1.92.08,1.09,0s3.24-.42,3.78-.44,1.59,0,2.3-.06,4.08-.29,4.38-.33a1.24,1.24,0,0,1,.71.22c.12.08.43.18.49,0a.73.73,0,0,1,.33-.38c.15-.07.31-.12.39-.17s.29,0,.33,0,.31.2.49.22a2.09,2.09,0,0,1,.55.33c.06,0-.15.28,0,.28s.54,0,.54,0,.26-.32.55-.22a1.63,1.63,0,0,0,1,0c.17-.1.85.15,1.15.22s2.59,1.18,3.06,1.32,1,.46,1.32.49a5,5,0,0,1,1.37.66,1.88,1.88,0,0,1,.38.49s.07-.16.16-.06.3.25.33.33a3.44,3.44,0,0,1-.11-.44c0-.14,0-.14.06-.16s.07-.12,0-.16-.25-.08-.22-.17-.11-.37,0-.38.13-.1,0-.11h-.27a1.51,1.51,0,0,0-.44-.38c-.2-.09-.29,0-.44-.22s-.54-.72-.54-.72a1.47,1.47,0,0,0,.54.06c.14-.05.17-.2.11-.22a2.39,2.39,0,0,1-.44,0,2.19,2.19,0,0,1-.54-.5c-.07-.08-.27-.45-.11-.44a5.34,5.34,0,0,1,.82.06c.66.09,1.31-.12,1.81-.06s4.37-.2,5.53-.32,4.22-.57,4.54-.61a1.39,1.39,0,0,1,.71.22s-.19.14.11.17.52.19.72,0a1.26,1.26,0,0,1,.49-.22,2.65,2.65,0,0,1,.71.06c.15,0,1.94-.48,2.25-.55a21,21,0,0,0,2.19-.49,1.15,1.15,0,0,1,.11-.17s.26.15.27.22.16.11.22,0,.09-.47.22-.55.51-.48.76-.65a1.61,1.61,0,0,1,.61-.33c.14,0,2.84.27,3.39.22a16.69,16.69,0,0,1,2.63.38s.11.61.44.71a2.64,2.64,0,0,0,.6.11s.28.36.44.39.52.38.71.43a5.15,5.15,0,0,1,.82.5,9.05,9.05,0,0,1,1.32.87.49.49,0,0,1,.16.44,4.13,4.13,0,0,1,.55.16,5.79,5.79,0,0,0,.66.33c.19.08,1.2.2,1.42.33a1.88,1.88,0,0,0,.66.28c.11,0,.25-.39.38-.33a1.13,1.13,0,0,0,.33,0s-.23-.22-.06-.38.36-.52.61-.55a.58.58,0,0,1,.38.06s-.14-.29.11-.28a.45.45,0,0,1,.33.11s0-.29.22-.27.65.11.65.11-.4-.17-.43-.28.27-.19.49-.16.66.05.66.05.13-.27.32-.27.13-.49.39-.49.44.14.65.11a1.34,1.34,0,0,0,.55-.22c.11-.09.25-.33.44-.33a2.24,2.24,0,0,0,.77-.06,4.27,4.27,0,0,0,.82-.43c.17-.09.39,0,.49,0a2,2,0,0,0,.6-.17c.11-.1.28.1.22.22s-.11.27-.11.27.14.2.22.17.08-.31.17-.39-.1-.2-.11-.32,0-.17,0-.28-.24-.39-.17-.54.13-.35.06-.44a2.34,2.34,0,0,0-.17-.17,1.53,1.53,0,0,1,.11-.82c.18-.27.32-.54.55-.6s.73-.3.55-.27-.37.05-.44-.06a10.1,10.1,0,0,0,1.31-.16,5.06,5.06,0,0,1,1.81-.11c.45.1,1.48.37,1.92.44s.69.15.87-.11.43-.52.66-.5,1.1.42,1.31.33a2.29,2.29,0,0,0,.66-.6c.19-.21.48-.54.49-.71s.5-.21.94-.22a8,8,0,0,1,1.47.22,16.27,16.27,0,0,1,2.14.6c.17.09.46-.06.66-.22s.61-.35.71-.55a3,3,0,0,1,.6-.82c.22-.16.25-.37.44-.44a13.6,13.6,0,0,1,1.7-.11,6.93,6.93,0,0,1,1.69.66,11.66,11.66,0,0,0,1.37.49c.37.06.54.11.77-.11a.82.82,0,0,1,.6-.27c.15,0,.21,0,.22-.38a1.17,1.17,0,0,1,.28-.88,2,2,0,0,1,.6-.44c.17,0,.22-.44.22-.44s1,.22,1.26.22.58.53,1,.55a3.74,3.74,0,0,1,1.1.22c.14.09.2.4.33.27s.31-.43.43-.54.46-.11.66-.44a5.07,5.07,0,0,1,1-1.1,4.68,4.68,0,0,1,1.26.22,14.28,14.28,0,0,1,1.75.5c.19.08.65.15.61.21s.54-.06.6-.21.07-.57.33-.66l.2-.06c-.72.09.78-.76.78-.76s.28-.36.44-.39a7.78,7.78,0,0,1,1.64.28c.53.16,1.15.71,1.76.44a5.71,5.71,0,0,0,1.36-1,1.66,1.66,0,0,1,1-.49c.12,0,1.63.47,2.14.54s1.14-.41,1.26-.43a26.43,26.43,0,0,1,3,.76c.46.19,4.7,1.94,5.26,2.3s6,4,6.79,4.66,6,4.5,6.74,5a15.78,15.78,0,0,0,3.28,1.37c.69.19,1.4.3,1.59.38s.26.25.44.28l.6.11-.11-.17a2.24,2.24,0,0,1-1-.44l.44,0c.18,0,.42-.13.39-.38s-.17,0-.17,0,0,.3-.22.17a.82.82,0,0,0-.49-.11l-.06-.33a2.76,2.76,0,0,0-.82-.61c-.41-.16-1.53-.71-1.53-.71l1,.22a.64.64,0,0,0,.38-.22,1.24,1.24,0,0,0,.22-.76c0,.19,0,.34-.11.43v-.11l-.17.11v-.06a.33.33,0,0,1-.16.17c-.12.06-.11-.11-.11-.11a3.51,3.51,0,0,1-1-.27,6.35,6.35,0,0,1-1.42-.88c-.32-.29-3.12-2.34-3.29-2.46s-.41-.71-.1-.71.52-.06.71.11a16.8,16.8,0,0,0,2,1.26c.36.14,1,.64,1.48.65a4.78,4.78,0,0,1,1,.17l0-.22-.17-.11-.32-.06-.06-.32.22-.11s-.17-.41-.38-.39a2.69,2.69,0,0,1-1-.11,9.1,9.1,0,0,1-1.54-.82,1.11,1.11,0,0,1-.38-.65s.79.25,1.31.38a3.78,3.78,0,0,0,1.1.22c.28,0,.27,0,.38.11s.09.24,0,.33.18,0,.27-.17-.11-.27-.11-.27a2.94,2.94,0,0,0-.38-.17c-.18-.06.27-.22.27-.22l.17.17-.11-.27a3.46,3.46,0,0,1-.5.1h0c0,.12-.05.21-.05.17s0-.1,0-.17h-.3v0l-.11,0,0,0,0,0,.21,0,.11-.05v0h.06s0,.11,0,.21h.08c0-.14,0-.32,0-.32s-.42-.05-.65-.06a.7.7,0,0,1-.44-.22s.46-.07.6-.11a1.29,1.29,0,0,1,.44.06s-.32-.46-.44-.5-.37.09-.55,0a7.21,7.21,0,0,1-.76-.6.88.88,0,0,1,.38-.05.54.54,0,0,1,.27.38c0,.13.13-.21-.11-.38a1.66,1.66,0,0,0-.82-.22,3.86,3.86,0,0,1-.93-.33L240.07,28c-.33-.16-1-.6-1-.6a12.52,12.52,0,0,1,2.19.44,4,4,0,0,0,1.48.44c.2-.07.33.06.55,0l.14-.06c-.06,0,0,0-.08,0a.37.37,0,0,1-.23,0,1.82,1.82,0,0,1-.54-.33c-.11-.05-1-.14-1.15-.22s.6-.19.49-.38a.76.76,0,0,1-.11-.33s-.25-.69-.27-.44a2.84,2.84,0,0,1-.11.49s-.15.07-.22-.05-.17-.13-.33-.17-.73-.06-.77-.22-.11-.49-.11-.49-2.51-.65-2.68-.66-1.1-.39-1.48-.49-.66-.66-.66-.66l1.59.06a10.86,10.86,0,0,0,1.32-.17l.65-.05a4.93,4.93,0,0,0,.33-.49c.07-.14-.15-.17-.33-.22a6.17,6.17,0,0,1-.93-.55c-.09-.08.55-.33.55-.33a3.58,3.58,0,0,0-.11-.66c-.06-.1.11-.29.17-.27a1.25,1.25,0,0,0-.5-.11,1.1,1.1,0,0,1-.44-.05s.09-.28.72-.44.72.15,1-.28.31-.44.44-.49.13-.33.27-.33.33.19.5.11.12,0,.33-.22.08-.18.38-.33.36-.12.49-.27a.63.63,0,0,1,.38-.27c.16,0,.17,0,.11.11s.11.14.17,0,.07-.22-.17-.22a8.47,8.47,0,0,1-1.09-.22,5,5,0,0,1,.82-.06.57.57,0,0,0,.6-.22,1.17,1.17,0,0,1,.66-.49,1.42,1.42,0,0,0,.82-.44,1.32,1.32,0,0,0,.44-.65s.08-.51,0-.61-.07.06-.06.33A.59.59,0,0,1,244,17a.61.61,0,0,1-.54.21,5.82,5.82,0,0,0-1.1-.1c-.25,0-.93.15-1.2.21s-.1-.44.44-.6a8.14,8.14,0,0,1,1.69-.33c.35,0,.64,0,.71-.16a.91.91,0,0,1,.54-.49h-.1v0c-.16.13-.2.21-.44.19a4.94,4.94,0,0,0-1.14.11c-.55.08-1.87.38-1.87.38a5.29,5.29,0,0,1,1.43-.65,19.55,19.55,0,0,1,2.24-.55,1.47,1.47,0,0,0,1.1-.55,2.21,2.21,0,0,1,.38-.44,3.09,3.09,0,0,0,.77.06A1.13,1.13,0,0,0,247,14a7.07,7.07,0,0,0-1.86-.06c-.82.13-2.8.61-2.8.61a22.06,22.06,0,0,1,2.08-.82,12.11,12.11,0,0,1,2-.33,5.83,5.83,0,0,0,1.31-.28c.23-.05.72-.27.88-.11a.7.7,0,0,1,.16.44s.17-.45.06-.55.33-.11.33-.11l.33.17-.06-.39.06-.16s.29-.09.32,0a.65.65,0,0,1,.06.38c0,.08.32-.2.11-.43M3.56,22.05c-.05.07,0,0-.05.06V22c.11,0,0,0,.11.05ZM.77,25.61v.06H.71V25.5H.82c0,.11,0,.05,0,.11m.11-.38-.33-.11V24.9c.19.06.18.18.33.27Zm.16.22c0,.06,0,0-.05.05v-.11c.11,0,.05,0,.11.06Zm.33-.82v.05c-.06.05,0,0-.05.06a.6.6,0,0,1-.22.05c0-.17.06-.16.27-.16m.06.38H1.37V25c-.06-.05,0,0-.05-.06h.11Zm.6.22H2v-.06c-.06,0,0,0-.05-.05H2Zm0-.33c.11,0,.05,0,.11.06-.11,0-.05,0-.11-.06m.38.11V24.9a.35.35,0,0,1,.17.17L2.41,25m.44-.11c0-.11,0,0-.05-.11v-.05H3a1,1,0,0,1,0,.16Zm7.56-5.37h.11l-.06.17c-.11,0-.05,0-.11-.06s0,0,.06-.11m-.82.11c-.11,0-.05,0-.11-.05.11,0,0,0,.11.05m-.94.77c0-.06,0,0,.06-.05v.21l-.22.06a.26.26,0,0,1,.16-.22m-.38,1.75c-.11,0,0,0-.11-.05.11,0,.05,0,.11.05m0,.61c-.11,0,0,0-.11-.06.11,0,.05,0,.11.06m-1-1.21h.22v.06c.14,0,.12,0,.16.16-.25,0-.23-.08-.38-.16ZM7.07,21h0V20.9c.11,0,0,0,.11.06s0,0-.05.05S7,21,7.07,21m-.5,1.2H6.35v-.05a.85.85,0,0,1,.22-.06Zm0-.76-.05.11a.66.66,0,0,1-.49.16v-.16l-.17-.06v.06l-.44.11.06-.17.16-.05s0,.08.11.05l.06-.11h.05v.06H6v-.17h.11A.39.39,0,0,1,6,21.4c.06.06,0,0,.11.05v.11a1.48,1.48,0,0,0,.44-.11c0-.11,0-.05.05-.11v-.05c-.12,0-.14,0-.22.05v.06H6.19v.05H6.14v-.11a.75.75,0,0,1,.38-.11c0-.13,0-.1.11-.16V21l.16.06V21H6.9c0,.19,0,.2-.11.28.06.06,0,0,.11.05v.06ZM5.15,25.56v.05l-.27-.05V25.5H4.82c.13-.13.19-.06.39-.05,0,.11,0,.05-.06.11m1.1-1.1A1.82,1.82,0,0,0,6,24.35L6,24h.11v.11s-.11,0-.06.05h.11c0,.16-.12.11.06.22Zm.54,1H6.57v-.06h.22Zm0-.66c-.09.08-.08,0-.17.11H6.35c0-.13,0-.25,0-.38s.07,0,0-.11h0a2.33,2.33,0,0,1,0-.28h.21v.06h.06v-.06h.16c-.06.07,0,0-.11.06a.31.31,0,0,0,.22.11l.06.33c-.07.05-.06.12-.11.16m.16-2.41c0-.07.35-.08.22-.16v-.17l.11.06v-.06h.11a1,1,0,0,0,0-.16l.17.05v.17c.11,0,.05,0,.11.05l-.16-.05a.41.41,0,0,0-.06.22h.27c0-.16.06-.18.22-.22v.22a1.73,1.73,0,0,1-.71.27v.11c-.13-.08-.15-.17-.33-.22Zm.66.39.16.05v.05H7.56Zm-.38,3.34c.11,0,0,0,.11.05-.11,0,0,0-.11-.05m.16-3.24c.11,0,0,0,.11.06-.11,0,0,0-.11-.06m.22,2c0-.07,0,0,0-.06s0-.15.1-.22v-.05a1.28,1.28,0,0,0,.33.11c0,.05,0,.11-.05.16a.72.72,0,0,0-.33.06m.49,1.2H7.94C7.9,26,8,26,8,26v-.06H7.94c-.1-.05.11-.05.11-.05Zm.44-1.75H8.44v-.11h.05Zm0-.88-.38-.05v-.11H7.89V23.2h.16c0-.09,0-.18-.05-.27l-.17-.06v-.1H7.72c0-.11,0-.05,0-.11V22.6c.28.07.18.25.33.33s.18-.08.22-.06V23h.11c0,.18,0,.18-.17.22v0l.39,0-.06.16m.06-1.48s0,0-.11-.11.15.06.11.11M9,25.89H8.87v-.06c-.06-.06,0,0,0-.11s0,0,0,0,.05,0,.11,0H9Zm0-1.32c-.11,0,0,0-.11.06a.65.65,0,0,1-.28-.06v-.22a.51.51,0,0,1,.39.11Zm.11-4.21H9V20.3h.17Zm.55-.22H9.42L9.48,20h.16c0,.06,0,0,.06,0ZM9.86,20H9.75v0c-.08,0,0,0-.05,0H9.42v0h.06v-.17h0V19.7h.06l-.06.22c.19-.06.1-.07.22-.17.05.07,0,.07.11.11Zm-.11-.27c0-.11,0-.05.05-.11s0-.05.06-.11,0,0,.05.05,0,.13-.16.17M10,27v-.27h.06a.65.65,0,0,1,.05.27Zm.22-6.41c-.11,0-.17,0-.22-.05h.06v-.05l.16.05Zm.22-.6V20h-.05V20h-.22v-.11c.08,0,.28.05.27-.05h.06v.11c.06,0,0,0,.05,0Zm.28,6.9,0-.11h.06s-.11.11-.11.11M11,20.08a1.38,1.38,0,0,0-.27-.11c.05-.06,0,0,.06,0v-.06H11a.41.41,0,0,1-.06.22m.94-.93v.17H12v.1a.51.51,0,0,1-.44-.21l.33-.06m-.5.22c-.11,0,0,0-.11-.05h.11Zm.22.27c-.11,0,0,0-.11-.05h.11Zm0-.22h-.16v-.05h.16Zm.49.33H12V19.7c-.07-.06,0,0-.06-.11s-.1,0-.16-.11l.32-.06c0,.06,0,.29,0,.33m.17-.38v.05c-.06-.06,0,0-.06-.1h.11c0,.06,0,0-.05.05m.11-1.2c-.11,0-.05,0-.11-.06h.11Zm.11.16,0-.16.17-.11v.16h.11v.16h-.06v.06h-.22v-.11Zm.22.22h.22v.05h-.06v.06c-.12,0-.13-.06-.16-.11m.38,1.31c-.11,0-.05,0-.11-.05h.11Zm.11-.16h-.06c-.06.06,0,0-.1.05a.6.6,0,0,1,.05-.22c.06.07,0,0,.05.11h.06Zm.16-.38h0v.05l-.44-.05v-.11h.06L12.87,19l.22.06v.11l.27.05Zm0-.66-.32.05v-.05H13v-.17H13a3.06,3.06,0,0,1,.05-.32h.05v.1c.06.06,0,0,.06.11h-.06v.06h.22Zm.22,1.59v-.06c-.09-.06,0,0,0-.11l.06.17Zm3.34-3.89H17v.05l.16-.11v.11h-.05v.06h-.17Zm-.76,1.15a.73.73,0,0,1-.28-.17h.33l-.05.17m.16-.88a.41.41,0,0,1,.38-.33v.11h-.16l.06.22Zm.44,0,.22.06a1.17,1.17,0,0,1,.05-.11h.06v.05h.05c-.06.06,0,0-.11.06s-.14.1-.33.11l.06-.17m.33,11.17c-.11,0-.05,0-.11-.05h-.06v-.11l.17.05Zm.05-10.46c0-.11,0-.21-.05-.32l.16.05.06.27Zm.28-.32h-.17V17h.17Zm0-.22h-.17v-.06h.17Zm.71.05c-.05.06,0,0-.06.06v-.17a.9.9,0,0,1,.22-.11.24.24,0,0,1-.16.22M18.51,28c-.11,0-.05,0-.11-.05s0,0,0-.11l.16-.06a1.09,1.09,0,0,0-.05.17Zm.55-12V16c-.1,0-.14,0-.17-.05ZM19,28l.06-.11h.05c.05,0-.1.11-.11.11m.72-.05h-.06v-.11h.06Zm.11.27h-.06v-.11h.06Zm.32-11.77H20l.06-.17h.1Zm.06-1c-.11,0-.05,0-.11-.06h.11Zm.44-.17a.27.27,0,0,0-.17.22c-.11,0-.05,0-.11-.05h.06v-.06c-.12-.06-.06.06-.17,0a2,2,0,0,0,.39-.11Zm.22,1-.17-.05v-.06a.9.9,0,0,1,.22-.11c0,.08,0,.15-.05.22m.6.17-.17-.06c0-.11,0,0-.05-.11v-.05a.55.55,0,0,0,.22.05Zm1.64-1.81h.17v.06h-.17Zm-.93,1.7c.11,0,.05,0,.11.05-.11,0-.05,0-.11-.05m.71,12.76h-.11V29h-.11V29h.17V28.9h.05c-.05.17-.05.05,0,.22M23,15.81h-.06V16l-.11,0,.06.22-.33.06V16.3h-.16c-.06,0-.32-.19-.39-.16v.05H21.8v-.05a.81.81,0,0,0,.27-.16h.06l-.06.16h.28c0-.06.07-.11.1-.16s.22,0,.33-.22,0,0,.06-.11-.06-.11-.11-.17-.11,0-.17-.11c.22-.08.16.06.28-.16h.05a1.17,1.17,0,0,0-.05.11h.38v0a1,1,0,0,0-.33.17l.06.27m.44,13.25h-.06V28.9h.06Zm-.17-12.87h0l0-.11h0a.55.55,0,0,1-.11-.27,1.35,1.35,0,0,1,.38-.05Zm.6,12.93a.31.31,0,0,1,.11.16c-.09-.06-.07,0-.11-.16m.06-14.51a.6.6,0,0,1-.22.05c-.06-.17-.05-.05,0-.22a.6.6,0,0,1,.27.06,1.17,1.17,0,0,0-.05.11m.38-.11c.11,0,0,0,.11.05-.11,0-.05,0-.11-.05M34.5,29.28v.06c-.11,0,0,0-.11-.06Zm-.16,1,.16.11v.06h-.11c0-.11,0,0,0-.11ZM32.86,11.65v.11H32.8V11.7c-.06,0,0,0,0,0Zm-1.43.66c-.1,0,0,0-.1-.06.1,0,0,0,.1.06m-.32.33h.11v.1h-.06v-.05c-.06,0,0,0-.05,0m-.39-.22h.17v-.11l.16-.06c.05.07,0,.07.11.11v.16l-.22,0v-.05l-.16.05c0,.09,0,.18,0,.27h-.22v-.05h-.05c0-.16.1-.16.16-.27m-.43.22v0c-.1.05-.14,0-.17,0Zm-.5.1.17.06v-.11c.11,0,0,0,.11.05s-.07,0-.11.11h-.17ZM29,13c.06,0,.14,0,.21-.05l.06-.11h.05v0a.51.51,0,0,1,.33.11,1.17,1.17,0,0,1-.05.11,2,2,0,0,1-.39-.11c0,.11,0,0,0,.11v.06H29Zm-.11.06v.11h-.06v-.06c-.06,0,0,0-.05-.05Zm-.33.27v0h.16s0,.11-.05.16h-.17c0-.11,0-.05.06-.11m-4.16.93.21-.05c0,.11,0,.05-.05.11v.05c-.1,0-.08,0-.11-.05s0,0-.05-.06m.16,15.39s0,0-.11-.11.15.06.11.11m.66.22c0-.11,0,0-.06-.11v-.11h.06c0,.05,0,.11.05.16l.06.06Zm.38-14.9c.11,0,.05,0,.11.06-.11,0,0,0-.11-.06m.6.11.11,0,.06.11h-.5c.15,0,.13-.07.28-.11v-.06c.12,0,0,.08.05.11m.28,14.24c-.11,0-.05,0-.11-.05.11,0,0,0,.11.05m-.28,0h-.11v-.16h.06v.11c.06,0,0,0,.05.05m-.27.49.05-.11h.06c.05,0-.11.11-.11.11m.16.39v.05h-.05c0-.05,0-.11.05-.16h.06c0,.1,0,.08-.06.11m.17-.5h-.06V29.5c.06.05,0,0,.06.06s.07,0,.11.16c-.11,0,0,0-.11-.06m.49-.05c0,.15,0,.12-.16.16,0-.1,0,0,.05-.11v-.05c-.12-.09-.11.06-.22-.11H26.4v-.05c.19,0,.1-.06.27,0v-.11h.11l.06.27Zm-.16-.44h.16v.06h-.05v.05h-.06a.54.54,0,0,1-.05-.11m.43.88h-.16V30l.16,0Zm.39-.33c-.11,0-.05,0-.11.05s-.15-.06-.33-.11c.05-.06,0,0,.05-.05s0-.05.06-.11l.05.16.17.06v-.06h.11ZM27.22,15s0,0-.11-.11.15.06.11.11m.16,14.35h-.22v-.11h.22Zm.17,1h-.06v-.11h.06Zm.16-.55v.06h-.05v-.17l.11.06c-.05.06,0,0-.06.05m.49-.05h-.1v-.11h.1ZM28,29.45h.06v.1H28ZM28.2,15.1V15h.14l.08-.17V15h-.08l0,0v.06Zm.5,14.73c-.11,0-.05,0-.11.05h-.06l.06-.16h-.17v.05h-.11v-.05h.11a1.85,1.85,0,0,0-.05-.38c.11,0,.05,0,.11.05h.05v.22l.11.05v.06c0,.07,0,0,.06.05Zm-.52-15.18a.5.5,0,0,1,0,.12l-.16.05v0l0,0s0,0,0,.11l-.14,0-.19.19V15h.06v-.11c-.36,0-.35-.1-.55-.21,0-.15.05-.16.16-.22v-.06h-.44v.17a4,4,0,0,1-1.31.05.55.55,0,0,0-.05.22h-.11c0,.07,0,.06.11.11v0h-.33a3,3,0,0,1,.11-.32l-.39,0v.05h-.22v-.05H24.7v-.16h-.11a2.25,2.25,0,0,1-.05-.22h.16a1.09,1.09,0,0,0,.05-.17l.11-.05c.07,0,0,.07.06.05v-.05H25v.11l.11.05c0,.15-.09.12-.11.17v.11h.38c.08,0,0-.06.06-.06s.16.12.27.06v-.06c.11,0,.05,0,.11-.05-.11,0-.05,0-.11-.06h-.11v0h.22v.11H26v-.17h-.11v-.05c.1,0,.06,0,.11-.06s-.07,0-.11-.11h-.17V14s.22,0,.12-.05h-.06v-.06h.11V14a1.13,1.13,0,0,1,.22-.06V14s.21,0,.11-.05h-.06v-.17l.11.06v.05c.09,0,.1-.05.11-.05h.39v-.06l.11.06a.75.75,0,0,1,.05-.16l-.05-.06h.05v0h.05v.21h.11a.68.68,0,0,1,.11-.21l.11-.06.06.17c.16-.07.06,0,.05-.17h.06v.11h.16v-.16l.06-.06c.23,0,.2.11.49.11v.11h.16c-.06.09,0,.08-.16.11a.63.63,0,0,0,.38.22v-.11h-.11l.06-.16.44-.11a1.09,1.09,0,0,1,0-.17.57.57,0,0,1,.38.11Zm1.45,14.74H29.3c.06-.07.11-.08.16-.16l-.16-.06v.06h-.06v.16h0c-.05.06,0,0-.05.06,0-.13-.08-.26-.11-.39h.11c0-.18.13-.24.32-.27.06.21.15.16.33.22l.06.22c-.14,0-.16.05-.22.16m.33-.16H30v.11H30Zm.22.43c-.07,0,0,0-.06-.05L30,29.56v-.17c.07.06.08.11.17.17Zm.05-.49c-.16,0-.15,0-.22-.11h.17c0,.06,0,0,.05.06ZM30,13.51l.06-.11h.11v-.05h.16l.82.05v.06h.11l.06.11ZM31.87,13h-.16c.06.06,0,0,.11.05v.11a.6.6,0,0,0-.22,0,1.09,1.09,0,0,0,0-.17l.22-.05Zm.33,16.43c-.06,0,0,0-.05.05s-.23,0-.17-.05H32v-.06h.16Zm0-17.09a1.85,1.85,0,0,1-.38,0v0h-.06l.06.16c.11,0,.05,0,.11,0H32a.49.49,0,0,1-.33.22v.05l-.32-.1v-.12l.32,0c.05-.06,0,0,.06-.05a1.09,1.09,0,0,0,0-.44,1.09,1.09,0,0,0,.49-.17,1.58,1.58,0,0,0,.22.33v.06l-.16-.06a.44.44,0,0,0-.06.22m.6,17.58v0h0c-.11-.11.06-.1-.16-.16,0-.11,0-.22,0-.33h.22c0,.2.11.3-.06.44m.11-16.65v.06l-.38.05c0-.15,0-.12-.16-.16L32.31,13h.6c0,.21-.06.16-.11.33ZM33,11.87c-.11,0,0,0-.11-.06h0c.05-.06,0,0,.06-.05Zm.05-.06v-.05l.11.05Zm.33,17.42a2,2,0,0,1,.44.11l-.06.16c-.28,0-.34,0-.38-.27m.71,1.15c0,.06,0,0,.06.05s0,.22-.06.11v-.05H34v.16H34l.06.11H34c0,.11,0,0-.05.11a1.27,1.27,0,0,1-.17-.55l.33.06m.5,1H34.5v0a.5.5,0,0,0-.27,0V31.2c.15.12,0,.15.33.16Zm.38-.5c-.25.06-.46.19-.66-.05h-.05c0,.16-.08.33-.11.49H34c0-.11,0,0,.05-.11V31.2H33.9A.6.6,0,0,0,34,31c.11,0,0,0,.11-.06h.06l-.06-.16c.31,0,.35-.1.66-.11,0,0,0,.21.06.11v-.05h.16Zm1.37-20H36.2v-.11h.11Zm1.26.22c.11,0,0,0,.11.06-.11,0,0,0-.11-.06m.77,19.5c.06.06,0,0,0,.11h0Zm0,.65c.1,0,0,0,.1.06-.1,0,0,0-.1-.06m.93-20.7c.11,0,0,0,.11.06-.11,0-.05,0-.11-.06m.82-1s-.23,0-.17-.06H40v0l.11,0Zm1,.87h-.06v-.11h.06Zm-.06-.27a.39.39,0,0,1,.17.11c-.13,0-.1,0-.17-.11m.33.71c-.06,0,0,0,0-.05s-.05,0-.11-.06l.16,0Zm1.21-2.41c-.07,0,0,0-.06-.05h.11Zm.65-.16H43V8.25h0V8.2h.22V8.14h0Zm2.63-1.15.17-.06v.17c-.07,0,0,0-.06-.06s0,0-.11,0m.22.38H46V7.43h.11Zm.33.93h0l-.11-.05h.16Zm.05-1.31a1,1,0,0,1,.11.44c-.13,0-.1,0-.16.11h0a.37.37,0,0,1,0-.11h-.16s-.05-.08-.11-.11V7.38h.16l.06-.28h-.17v0h.06V7l.21.06v0l.22,0c0,.06,0,0,.06,0v.06Zm1,1.31h-.16V8.42l-.06.05-.11-.05L47,8.47V8.42h-.22V8.31a1,1,0,0,0,.66-.17h0a.62.62,0,0,0,0,.33m.11-.82c-.12,0-.35,0-.49.06v0l-.17.06c0-.08,0-.07-.11-.11V7.65l.17.06V7.65h.11V7.6h.33V7.54c.1,0,0,0,.1.06h.06Zm.38.66h0v0l-.22,0V8.2h.22V8.14H47.7V8.09h-.06V8A.47.47,0,0,0,48,8Zm.55,19.55c-.11,0-.05,0-.11-.06h.11ZM48.74,7h-.11a.75.75,0,0,1-.05-.16l.16.11ZM49,7.6s-.21,0-.11-.06H49V7.43h0Zm.71.54h-.27V8.09L49.72,8Zm-.27-.76c.11,0,0,0,.11,0-.11,0-.05,0-.11,0m.27-.17h0V7.05h.16v0a.29.29,0,0,0-.11.11m.06.17c.11,0,0,0,.11,0-.11,0,0,0-.11,0m.16-.33h0l-.06-.16h-.16V7h-.05c-.12-.15.09-.14-.17-.21v.11H49.4V6.78a.29.29,0,0,0,.11-.11l.16,0v.06l.11-.06v.06l.16.11Zm0-.71h.17v0l-.17.06Zm.17.82,0-.11h.06c.05,0-.11.11-.11.11m.33.93a.36.36,0,0,1,.16.11c-.13,0-.1,0-.16-.11m.33.27c-.11,0-.05,0-.11,0h.05c0-.06,0,0,.06-.06Zm-.06-1.09v.05h-.05V7.16h.11c0,.11,0,0-.06.11m.66,1.2H51.2l-.27-.05V8.25c.25,0,.16.1.44.11Zm.38-.16h0V8.14h0Zm.06-.93-.22,0c0,.15,0,.13-.17.17l.06-.28a.65.65,0,0,0,.27-.05c0,.06,0,0,.06.05Zm.33.27H52V7.54h.11ZM52.52,6V5.9l.22-.06c0,.07,0,0,0,.06l0,.11Zm.33,1.31h-.06V7.27c-.06,0,0,0,0-.06h.11ZM53,7.21v0l.11,0ZM55.86,4.8h-.22v0h.22Zm2.19,27.44c-.1,0-.14,0-.17-.06h.17ZM60,33.83h-.28l.06-.11h.16c.05.06,0,0,.06.05Zm1,.32c.11,0,0,0,.11.06-.11,0-.05,0-.11-.06M61,4.42a.54.54,0,0,1,.05-.11h.06s-.11.11-.11.11m1.53-.22c.11,0,.05,0,.11.06-.11,0,0,0-.11-.06m2,28.15h-.05v0H64.4a.37.37,0,0,1-.05-.11h.16Zm3.34,2.41-.16.05V34.7h.16Zm.33-31.71h-.11V2.94h.05c0,.06,0,0,.06.06Zm.44,31.6c.11,0,0,0,.11.05-.11,0,0,0-.11-.05m.76-2.25v.06h-.11V32.4h-.38v0h-.11v-.06h0v.06a.31.31,0,0,1-.28-.11l0-.06h.11l.66-.16h.16c-.11.06,0,.27.11.33s0,0-.06,0m.11-30.17V2.12c.11,0,.05,0,.11.06h0c0,.06,0,0-.06,0m.11,30.34c.11,0,.05,0,.11,0-.11,0,0,0-.11,0m.33,0a.12.12,0,0,1-.16,0h.16Zm.49-.11h-.27v.06H70.1c0-.06,0,0,.05-.06V32.4h.06v.06l.21-.06Zm.5-.22.11.06-.11.16c-.11,0,0,0-.11,0h-.06s.12-.1.17-.17m-.06,2.19c0,.07,0,0,0,.06v-.11c.11,0,0,0,.11,0Zm.06-.33s0,.12-.11.17v0c-.06-.05,0,0-.06-.06h.11V34.1h.22v0Zm1,.22H71.9v-.1H72Zm-.11-.16v.06c-.14.07-.07,0-.17.1h-.05l.05.11c-.33-.08-.31-.24-.65,0L71,34.27l.22-.06.06-.11h.27s0-.09.11-.05v.05a1.36,1.36,0,0,1,.44,0v.06Zm.27.38c.11,0,0,0,.11.06-.11,0,0,0-.11-.06m.06-.05h-.11v-.06c.11,0,0,0,.11,0h0l0,.11m.87.16h0v-.16l-.22-.06a.37.37,0,0,0,0-.11h-.38v0l-.33,0c.26-.23.37.14.6,0l.06-.11.16-.06v.12h.11v.1h.11c-.07.15-.1.1-.11.33m.66-.33h-.38v0c.06,0,0,0,0,0l0-.06h.11a.91.91,0,0,1,.11-.16h.11l-.06.22h.11ZM75.57,1.79V1.74a.34.34,0,0,0,.22.05V2l-.27-.06c0-.11,0,0,0-.11m-.22.28c.11,0,.05,0,.11.05-.11,0,0,0-.11-.05m.17.27V2.18l.16-.06a1.74,1.74,0,0,0-.05.22Zm.54,32.31a1,1,0,0,1-.38-.06c0,.06,0,0-.05.06v-.17h.27v.06l.16.05Zm.28-33.08V1.52h-.06v.05h-.11v.06H75.9a1.74,1.74,0,0,1-.05-.22c.16,0,.46.07.6-.06.06.07,0,0,0,.11s0,0,.06.06a.34.34,0,0,1-.22.05m.55.93-.22,0-.06-.22c.18,0,.16,0,.28.11Zm.43-.16h.06c.05,0-.11.11-.11.11a.54.54,0,0,0,0-.11m-.16,33c.11,0,0,0,.11,0-.11,0,0,0-.11,0m.11-.33V35h0l-.06-.16.22-.06c0,.11,0,.22.05.33-.07-.06-.05-.14-.16-.16m.38-33.19c-.11,0,0,0-.11-.05h.06c0-.06,0,0,.05-.06Zm.44-.33h0V1.41c-.07,0,0,0-.06-.06h.11ZM80,1.63V1.57l.17.06c0,.14,0,.16.16.22v0h-.16V1.74h-.28c0,.13,0,.1.11.16V2c-.13,0-.1,0-.16-.11s0,0-.06-.06Zm-.65.05V1.63l.16.05c-.06.06,0,0-.11.06v.05c-.1,0-.08,0-.11-.05h0c-.08-.09.1-.05.11-.06M79,2.07,79.41,2v.11c-.25,0-.22.08-.44.11Zm-.33-.88.16-.05a.21.21,0,0,0,.11.1,1.17,1.17,0,0,1,0,.11c-.06,0,0,0-.06.06h0V1.24h-.11Zm-.38.55.43-.11c.07.06,0,0,.11.05l.06.22h-.39a1.63,1.63,0,0,1,.11.17.73.73,0,0,1-.27-.28h0Zm.38.82c0,.06,0,0-.06,0v.11a.45.45,0,0,1-.22-.16Zm-.33,0v.11h0ZM80.39,35.2v0h0c-.07-.12-.25,0-.39,0v-.06h-.11v0l-.16,0v0h-.22c.09.13.24.14.33.27l.27,0v.1l-.33.06v-.06h-.22v0h-.16v0h-.16v0l-.17,0,.06.21h-.33v-.05h-.11v-.06h-.28v0h0c0-.07.07-.15.11-.22l-.11,0V35l.11.05c.08,0,0,0,0-.05h.06v.16h0v.06h.17a.58.58,0,0,1-.06-.22.9.9,0,0,1-.22-.11v-.11h.06V34.7h.16v-.05h.06l-.06.11.22.05c0-.11,0,0,0-.11v-.05l.87.05v.06h.17v.05c.08,0,.09,0,.22.06A.29.29,0,0,1,80,35V35a2.64,2.64,0,0,1,.6-.05c0,.16-.06.18-.22.22M82.85,2.28h0V2.12h0ZM83.79,2h-.11V1.85h.11Zm.82-.11-.55-.06V1.57l-.38.06V1.41h.38c.2.06.19.14.44.05a.41.41,0,0,0,.16.22l0,.17m.11-.33h-.06L84.5,1.3h.16v.05h.06Zm3.12-.06H88V1.35h-.06V1.3H88c0-.13,0-.14-.06-.22.16-.06.24,0,.33-.16a.67.67,0,0,1,.49.16,2.44,2.44,0,0,1,0,.44l-.82.05Zm-2.3-.16h.16c0,.11,0,.05,0,.11v.05h-.06c0-.11,0,0,0-.11Zm-.39,34.11h.22v.11h-.16v-.05h-.06Zm1.81.66H86.8v0L87,36Zm1-.16c.11,0,0,0,.11.05-.11,0,0,0-.11-.05m2.74-.66h0v.06l-.11,0v0H90.3v-.06h0v.06l-.11,0v.22a1.73,1.73,0,0,1,.44-.06v.22c-.18,0-.45-.05-.55-.16s-.23,0-.27.16,0,0,.1.06l-.1.05v.06a.66.66,0,0,0-.39-.06v.06h-.44V36l-.71-.05a1.24,1.24,0,0,1,.44-.11,1.09,1.09,0,0,0,0-.17l0-.05h0v-.06c-.36,0-1-.18-1.15,0l-.1.06c0,.11,0,.22.05.33h-.33v-.06h-.05v-.33h-.06v-.05c-.27,0-.31.12-.49.22V36l-.66-.05V36h-.27V36h-.06V36h-.11v-.05L85,35.8v-.06l1-.05v-.06h.11l.11-.16.43-.11.06-.11h.11l0-.11H87L87,35l.22-.05v-.06l.6.06v-.06h0V35h.5v-.06a.12.12,0,0,1,.11.06l.21-.06c0,.11,0,0,.06.11v.06h-.38v.11h.27a1.6,1.6,0,0,1,0,.21.79.79,0,0,1,.39,0v0h.33v0l.22,0c0-.08.11-.15.16-.22h.44v0s.15-.11.27,0l.06.16.16,0Zm.55.11a2.16,2.16,0,0,1-.49.22v-.11a.26.26,0,0,0,.21-.16h.28Zm2,.22c-.2,0-.25,0-.33-.11s-.05,0-.11-.06c.13,0,.1,0,.17-.1h.43c0,.15-.09.15-.16.27m.49-.17s0,0-.11-.1.15,0,.11.1m.88.72-.17,0v0h0c0-.14.06-.12.11-.22h0c.05.06,0,.05,0,.05s0,.07.11.11Zm.22-.17s-.21,0-.11-.05h.05v-.17h.11a.6.6,0,0,0-.05.22m1,.17v0s-.21,0-.11,0h0v-.06c.11,0,0,0,.11.06ZM100,.7c.1,0,0,0,.1-.06h.22V.7l-.16.05L100.1.7V.75H100Zm-.72.05h.33V.86l-.33,0ZM98.41.7h-.5L98,.59a2.44,2.44,0,0,0,.44.05Zm.71.16L99,.92V.86h-.27V.92h-.05V.86h.05v0h.17V.75a.57.57,0,0,0,.27.06ZM99.61,36V36L99.5,36l.06.22H99.5v0h0V36h-.06v-.05l-.22.05v-.11a2,2,0,0,0,.39-.05V36h0a.73.73,0,0,0,.11-.27l-.27.05v-.16c-.19.05-.1.07-.22.16v.06h-.06l.06-.39h0v0a2.35,2.35,0,0,1,.61.16c0,.11,0,0,0,.11a.42.42,0,0,1-.33.33M99.94.75l-.27.06V.7h.27Zm.55,34.94c-.11.06-.16-.06-.22-.06v.06l-.27.05v-.16c.11,0,.18.06.21.05v-.05a.88.88,0,0,1,.28.05Zm.71-.11c-.11,0,0,0-.11.05h0l0-.11c-.11,0,0,0-.11.06h0v.05h0v.06a1,1,0,0,0-.38-.06v-.05c.12-.09.1.06.22-.11a2,2,0,0,1,.38.05ZM101.47.42h-.16V.48l-.17.05V.48h0V.42h0c0-.11,0,0,.06-.11V.42c.15,0,.12-.07.27-.11Zm1.26,34.89a1.85,1.85,0,0,1-.38,0s0-.21,0-.11v.06h-.06v-.06h.06v0l.16,0v-.11h.22c0,.11,0,0,0,.11ZM104.27.92V1h-.06l.06-.16h0c0,.1,0,.07,0,.11m.38.16a.12.12,0,0,1-.16-.05h.16Zm1.2-.77s0,0-.1-.11.14.06.1.11m.66.33a.65.65,0,0,0-.27-.05V.48h.22V.53h.05Zm3.78,34.12c-.11,0-.05,0-.11-.06h.06v-.05h.05ZM114.73,1c-.11,0,0,0-.11,0,.11,0,0,0,.11,0m-.11.71h.11v.11h-.11Zm.11.77h-.06V2.28h.06Zm.21,30.69v0h-.1l-.17,0v0h0l0,0v0h.17l.1,0v0h.11Zm.33,0h.44c-.16.07-.28,0-.44,0m4-30.17h.22v0h-.22Zm-.66-1.43h.22V1.52h.06l-.06.16h-.22Zm-.22-.16c.11,0,0,0,.11.05h0v.06h-.06Zm0,.11v.05c-.18,0-.2,0-.27-.16.15,0,.12.07.27.11m-.11.82.06-.11h0s-.11.11-.11.11m-1,.27a.31.31,0,0,0,.16-.11l.11.06c0,.2-.16.2-.27.33h0a.67.67,0,0,0,0-.28m.71,32.2h-.05V34.7h.05Zm1.48-1.64h-.11v.06l-.33-.06v.06h-.11l0,.1-.28.06v0c-.2.07-.36,0-.43.06a.65.65,0,0,1-.28-.06v-.11h-.09l-.4,0v0h-.11v0h-.49l.6-.07v0a.78.78,0,0,1,.4,0l1.68-.21Zm.05,1.48c.11,0,0,0,.12.05-.11,0,0,0-.12-.05m1.26,0-.16.05v-.11h.16Zm.11-33h.06s-.11.11-.11.11a.37.37,0,0,0,0-.11m.06,33c.11,0,0,0,.11.05-.11,0,0,0-.11-.05m.77-31.43h-.06V3.05h.06Zm1.75-.5c-.17-.1-.25-.24-.44-.32V2.07c.2,0,.23,0,.27.21h.22v.06h.06c0,.24-.09.14-.11.38m.49-.38s0,0-.11-.11.15.06.11.11m.27.49s-.22,0-.16-.05H124V2.72l.1.06Zm.17-.6c-.18,0-.16,0-.27-.11V2c.16.1,0,.15.27.22Zm0,.33c.11,0,0,0,.11,0-.11,0,0,0-.11,0m.17,0,0-.11h.06s-.11.11-.11.11m1.42.55s-.21,0-.11-.06h.06V2.89h0Zm1.75-1.59V1.46c-.06-.06,0,0,0-.11h0c.07-.06,0,0,.11-.05a.41.41,0,0,1,.06.22Zm1.48-.71c.11,0,0,0,.11,0-.11,0,0,0-.11,0m1.43.33c-.11,0-.05,0-.11-.06h-.06V1h.17Zm.11,36.52c.12,0,.15,0,.21.11a.33.33,0,0,1-.21-.11m2.19-36.31c-.11,0,0,0-.11-.05.11,0,0,0,.11.05m-.83-.16v.05c-.11,0,0,0-.11-.05Zm-.16.55s0,0-.11-.11.15.05.11.11M134.33,35c-.11,0-.05,0-.11.05h-.11V35c.11,0,0,0,.11-.06h.11Zm.16-.22c-.24.05-.22.07-.43.11v.22a.76.76,0,0,0-.28.16v.06h-.33a16.56,16.56,0,0,1-2,.16c-.06-.06,0,0-.11-.06s0-.1.05-.16l-.05,0h.05c.06-.17,0-.11,0-.28h.06v-.05c.18,0,.2,0,.27.11h.06V35h-.06v.11H132v0c.19-.09.18-.15.44-.17,0-.11,0,0,.05-.11a1.43,1.43,0,0,1,.66.06v-.11l.27-.06v-.05l.44.05v-.05H134v-.06a.93.93,0,0,1,.49.06Zm.28.55c.11,0,0,0,.11,0-.11,0,0,0-.11,0m1.26-.39c-.11,0-.05,0-.11.06a.78.78,0,0,0-.22.05V35h-.11v-.06h.22v-.05H136Zm.27-.05h-.05c0,.11,0,0-.06.11l-.05-.17h.16Zm.38.27h-.05v.06h0l-.06-.17c.11,0,0,0,.11.06h.05Zm.33-.6c-.11,0,0,0-.11-.06H137Zm.66.71v0h.05v-.06c.07.06,0,0,.06.11Zm.71-.11h0v.06a.71.71,0,0,1-.17-.11h.22Zm2.3-.6h-.05v-.06h-.06v0l.06-.11h.05Zm-.05-.39v.06h-.06v-.27h.06s0,.17.05.21Zm.6-26.83h-.06V7.21h.06Zm6.63-2.52h0v.06h0V5h-.06l.06-.17m-1.32,2.63h.22v.06l-.22,0Zm-.27-.16c-.11,0-.05,0-.11-.06.11,0,.05,0,.11.06m-1,.16h.05V7.6h-.05ZM144,7.76H144v.06h.06v0H144Zm-.5.17h.17V8h.05c-.06.06,0,0-.11,0v.06c-.09,0-.07,0-.11-.06h-.05a.47.47,0,0,0,.05-.1m-.27-.66v.11H143v.11H143l0-.17a.65.65,0,0,0,.27-.05M143,8V8l.17-.05c0,.1,0,0-.06.1v.06H143V8Zm-.44,25.74c-.11,0,0,0-.11-.05.11,0,0,0,.11.05m-.6-25.52.06-.11h.05a.82.82,0,0,1-.05-.32h.05V7.6l.17-.06c0,.17,0,.33.05.49h-.11c0,.14-.06.12-.11.22Zm.38,26.29v.22l-.16-.06c0-.17.11-.11,0-.16v-.06h.16v0h0a.54.54,0,0,1,0,.11ZM147.14,33h0v.28H147c-.07.24,0,.44-.1.6s-.1.17-.33.16l-.06.16-.27.06a1.87,1.87,0,0,0-.06-.22h.06v-.11h-.11a.58.58,0,0,1-.17.33v.06l-.22-.06v.06h-.43v-.06h-.28a1.62,1.62,0,0,1-.82.11v0a.53.53,0,0,0-.27,0l-.06-.17a.73.73,0,0,1-.65.17v0h-.06v0H143v0l-.06,0,0,0-.17,0v-.11a.44.44,0,0,1-.22-.06s0,.1,0,.06v-.16l-.17.05V34l.66-.05c.17-.2.46-.27.49-.61h.06a2.25,2.25,0,0,1,.05.22,1.26,1.26,0,0,1,.28.11c0-.07.12,0,.16-.11v-.11a1.22,1.22,0,0,1,.55-.11l.77-.32h0a.72.72,0,0,0,0,.32h0c0-.11.06-.1.06-.1V33h.05a.49.49,0,0,0,.06-.27c.05,0,.05.06.11.11v-.11h.27v0l-.17.06V33h-.05a.82.82,0,0,0,.11.66s0,.21-.06.11v-.06h-.05v.17l.17-.06a.37.37,0,0,0,.05.11h.22c0-.05,0-.11.05-.16h-.05v-.33l.11,0v-.11h.11c0-.13.05-.12.11-.22h0s0-.1,0-.16c.15,0,.12-.07.27-.11v-.16a2.18,2.18,0,0,1,.49-.06c0-.11,0,0,.06-.11v.11h.05a1.27,1.27,0,0,1-.22.33m.88-.05H148v.21l-.11.06v.11h-.06c-.05.07,0,.1-.05.22h.11v0a.91.91,0,0,1-.33,0c0-.11,0,0-.06-.11,0-.29.22-.33.28-.6h.11v-.11l.21-.06a.56.56,0,0,1,0,.28m1.64.21c-.11.06-.15-.06-.22,0v0h-.16v0h-.06a1.54,1.54,0,0,1-.05.17h0v-.17h-.06V33H149v.16a.71.71,0,0,1-.28.11c.05-.2.15-.35.22-.55h-.11c0,.25-.14.29-.16.55l-.22,0c0-.31.16-.35.27-.54h.06l-.06-.17.6.06v0h.11v.06l.17.05v.22h0Zm2-.6h-.17v0h.06V32.4h.22v0h0c0,.08-.1.09-.16.16m2.13-25,.17,0V7.6h-.17Zm-.1,24.26c.1,0,0,0,.1.06-.1,0,0,0-.1-.06M154,32l-.11-.11s.15.05.11.11m1.32-.66-.39.05-.05-.11a.6.6,0,0,0-.49.06V31.2c-.18,0-.12-.08-.22.05h-.39V31.2h.06v-.05h0l1.48.05Zm11.83-.11c.11,0,0,0,.11.05-.11,0-.05,0-.11-.05m2-20.81v0h-.06a.76.76,0,0,1,.06-.21h.05c0,.09,0,.13-.05.16m.38-3.94h0v0l-.33,0V6.34a1.85,1.85,0,0,0,.38,0Zm0-.55c-.1.06-.46-.08-.49-.11l.49,0Zm.33.16V6h-.16V6h-.06v0h.22a1,1,0,0,1,0,.16Zm-.06-.93c.11,0,.05,0,.11.06-.11,0,0,0-.11-.06m2-.82.11,0V4.15h0a1.42,1.42,0,0,0,0,.22h-.11Zm.27,1.37v.05a.12.12,0,0,1-.16-.05Zm-1.59.55h-.05v0a.34.34,0,0,0-.22,0V6.17h.16v0l.11,0Zm.55.11v.11c-.12-.07-.12-.13-.27-.17l-.06-.22A4.23,4.23,0,0,1,170,6V5.9h.28V5.84h.05V5.9c.27.07.43,0,.55-.17H171c-.1.21-.24.45,0,.61m.66.16h-.06V6.39h.06Zm.11.77c.11,0,0,0,.11.05-.11,0-.05,0-.11-.05m.32-1.15h-.05a.46.46,0,0,1-.44,0v0h-.11V6.06h-.44V5.9h.06V5.84l.27.06V6h.11l.06.11.05,0h.22V6a.52.52,0,0,1,.27.11Zm2.47.49a.55.55,0,0,0-.22-.05v.16a.55.55,0,0,1-.22,0V6.61h-.22V6.56c-.24-.08-.35.11-.6,0l-.06-.11c-.14-.06-.46,0-.6-.06v0h0V6.28l.38,0,.06.11h.49v0l1,.06Zm1.15.49v.06h-.06V7h.11c0,.11,0,0-.05.11m.82-.11a1.53,1.53,0,0,1-.71-.1l-.06-.11h-.27V6.72l0,.06-.06-.06-.05.06a2,2,0,0,1-.44-.11V6.61h-.06V6.56c.34.11.34-.13.61-.06v.06h.16v.05h.11v.06h.38v0l.28.06v0l.16.06Zm1.86.55c-.14.08-.28-.06-.38,0v0H178v0h-.16V7.43l-.38,0V7.32h-.11l-.06-.11a1.6,1.6,0,0,0-.66-.16V6.94l.61.11,0,.11h.11v0h.11v.06l.93.22Zm.17-.16c.2,0,.28.18.43.27v.06a1.56,1.56,0,0,0-.54-.11c0-.14.05-.12.11-.22m1,20.7h-.05c0,.05,0,.11.05.16h-.16l-.06.17-.38-.06c.07-.12.13-.12.16-.27h.11s0-.12.11-.11V28s.3,0,.22.06m.17-20.32-.22.06-.06-.06v.06h-.11V7.76c.13,0,.11,0,.17-.11h.22Zm.32,0c.11,0,0,0,.11,0-.11,0,0,0-.11,0m2.25.6a.9.9,0,0,1-.22-.11c0,.05,0,.11-.05.16l-.72,0a.37.37,0,0,0-.05-.11H181V8.14h.11V8h-.17v.06h-.16V8l-.17.06V8l-.22,0v-.1h.11V7.82l.44-.06v.06h.17v0c.12,0,.14-.06.21,0v0c.16.07.12,0,.28,0-.1.14-.15.12-.38.11a.54.54,0,0,0,0,.11l.66.05a1,1,0,0,0,.22-.05v.05h.16Zm.88.66h-.11V8.86h.11Zm.93-.17H184a.55.55,0,0,0,.05.22h-.11V8.91c-.4,0-.29,0-.49-.22l-.06-.11h-.16a.37.37,0,0,1,0-.11c-.29-.12-.37.12-.61-.16h0V8.2l.16.05v.06H183a1.55,1.55,0,0,0,.5.16,1.09,1.09,0,0,0,.05.17l.27,0s0-.08.11,0v0l.17.06Zm.33-.05c-.11,0-.05,0-.11-.06.11,0,0,0,.11.06m.05.65h-.16V9.35l.16-.06Zm0-.22h-.05v.06h-.06a.54.54,0,0,1,0-.11h.16Zm6.41,3.46h-.22v-.12h.16v.06h.06Zm1.42.21-.27.06v-.06c-.15,0-.13,0-.17-.16h.33a.29.29,0,0,0,.11.11Zm.93-1.91c-.09,0-.13,0-.16-.06h.16Zm.22-.11c.11,0,.05,0,.11.05-.11,0-.05,0-.11-.05m1.21,1.42v-.11c.06.06,0,0,0,.11Zm2.84.93h.33v.06h-.33Zm.61.44-.33.06v-.11h.33Zm.6-.55a.44.44,0,0,1-.22.06V13h.22Zm.76.55h-.16v0h-.05v-.06h.21Zm-.1-.22v-.05c-.07,0,0,0-.06-.06h.11c0-.11,0,0,.05-.11l.06.22Zm2.9,11.28c-.16,0-.2,0-.28.11h-.27v-.05h.06c.09-.16.23-.17.49-.17Zm0-9.86v-.05h-.06v.05c-.12,0-.11-.05-.11-.05h-.27v0l-.49-.11c-.09-.2-.12,0-.39-.06V14.5h-.22v-.06h-.27v0a.84.84,0,0,0-.44-.11v-.11a1,1,0,0,0,.44.05.14.14,0,0,1,.16-.05v.05h.17v.06h.49v.05h.22v.06h.11v0h.27v.06l.22.05v.06h.22v.05l.22.06.06.1.22.06c-.12.09-.4,0-.55-.06m.87,10a1.38,1.38,0,0,1-.27.11v-.11c.11,0,.05,0,.11-.06h.16Zm6.57-8.33c-.13.13-.46,0-.54-.11l.54.11m-1.09-1.37.16-.05a2.46,2.46,0,0,0,.06.44c-.11,0-.05,0-.11-.06h-.06v-.27h-.05Zm-.55,1,.33.06v.05l.17-.05v.05c.14,0,.21,0,.32.06v.05a1.72,1.72,0,0,1-.54-.11h-.06c-.05.1,0,.18.06.22h-.11l-.06-.11-.16.06c0-.09,0-.18.05-.28m-.3.91,0,0h.05l-.08,0s0,0-.08,0Zm.25,1.5v.06c-.13,0-.1,0-.17-.11l.17.05m-1.1-3.28H207v.22h-.06Zm-.22.11h.06v.22h-.06a1.09,1.09,0,0,0-.05-.17Zm-.33-.33v.16a.73.73,0,0,1-.49-.11,1.72,1.72,0,0,0,.49-.05m1.37,9.25c-.46.18-1.24,0-1.75.17h-.33v-.06c-.06,0,0,0-.05-.05l.33-.11v-.06l.54,0c.08,0,0,.06.06,0v0c.24-.05.61.08.77-.06h.49a.58.58,0,0,0-.06.22m1.48-.33v.06A.83.83,0,0,0,209,24v.22h-.49v-.16a2,2,0,0,0-.39.05v.11h.11v.06c-.18,0-.17,0-.22-.17s0,0-.11-.05a5.31,5.31,0,0,1,1.37-.22c0,.05,0,.11-.05.16Zm.44.11h-.11a.37.37,0,0,1,0-.11V24h0v-.06h-.27v-.05h.27l.06.11h.05v-.06l.17-.05v.05h.05c-.07.11-.15.12-.22.22m.66-5.69h-.22v-.06h.22Zm1.15,4.82a2,2,0,0,1-.39.11c.05-.15,0-.13.17-.17s0,0,.11-.05,0,0,.11.05Zm0-5.37-.06-.16a2.34,2.34,0,0,0,.5.05,1.09,1.09,0,0,0,0,.17l-.49-.06m.27,5.64c0-.09,0-.19.05-.28l-.1-.1.11.05a.09.09,0,0,0,0,.05l.23.23-.28.05m1.37-6c-.06,0,0,0,0,0H213v-.06h.16Zm.82.61H214v-.06l.11.06v0s-.23,0-.17,0m-.11,1.31h-.05v.05l-.44-.05v-.06h.49Zm.11-.16.06-.11h.05c.05,0-.1.1-.11.11m.22-.39h-.11c0-.13,0-.1.11-.16v-.06H214v.11h-.11c0-.18.14-.24.32-.27v.11c-.08.08,0,0,.06.11l-.11.16m1.53-.05c-.36.06-.31,0-.6-.11h-.16v-.06l-.17-.11v-.11l.44,0v0h.11l.06.11c.13.08.16,0,.27.11h0Zm-.22-.93v-.11l.72.05V18l.33.05c-.17.15-.78,0-1.05-.05m4.49.16c.05,0,.22,0,.17.06s-.07,0-.17-.06m4.82,5.2c-.09.05-.13,0-.16,0h.16Zm4,.28h-.11v-.11h.05v.05h.06Zm.49-6.25a.12.12,0,0,1-.16-.05h.16Zm17.41,18.29c.07.07,0,0,.06.11h-.06Zm-5.75-2.13.17,0a.49.49,0,0,0,.16.28v.05c-.31,0-.16-.12-.33-.27Zm-.16-.06h.11c0,.11,0,.05-.06.11v.06h-.05Zm-.27-.65c.1,0,0,0,.1-.06l.12.06v.05h-.22Zm0,.76h.05c.05,0-.1.11-.1.11l0-.11m-5.91-6.07h-.17v-.06h-.05c0-.1,0-.08.05-.11v0h.06v0c.09.06.07,0,.11.17m-.06.38c.15.14.41,0,.6.11a.55.55,0,0,0,.11.11c0,.05,0,.11-.05.16l-.17.06a1.09,1.09,0,0,0-.05-.17h-.22v.06l-.16,0-.06-.11-.33-.05V27.8h-.05a.65.65,0,0,1,.05-.27l.17-.05a.42.42,0,0,0,.11.16v.05c.07,0,.06,0,.11-.11h.05v.11l-.16.06c0,.11,0,.05,0,.11m.17-1v-.16h.11c0,.11,0,.05-.06.11v.05Zm.27-1c.11,0,.05,0,.11.06-.11,0-.05,0-.11-.06m.16.22c0-.11,0-.05.06-.11v-.05h.16v.16Zm-.82-10.79v0h.06v.11c-.11,0,0,0-.11-.06Zm.06,10.35v-.05h.05c0,.05,0,.11-.05.16l.05.06-.22,0c0-.07,0-.14-.05-.22Zm-.55,1v-.06H234v.17l-.1-.06v0Zm.06-.44h-.17c-.07,0,0,.08-.05.06l-.06-.11h.28Zm-.28-10.35c-.11,0-.05,0-.11-.05.11,0,.05,0,.11.05m-1.26,9.36h.06c.05,0-.11.11-.11.11l0-.11m-.22-9.09h.06c0,.11,0,.08-.06.11v.06H232a1.63,1.63,0,0,0,.11-.17m-.66.22h.06s0,.22.05.11v-.05h.17v.05l-.17.06-.16-.06v.06h0l.1-.17m.22,9.92v.27h-.16c0-.12,0-.16.11-.22v-.05Zm-.27-9.64c-.11,0,0,0-.11-.06.11,0,.05,0,.11.06m-.38.16c-.11,0,0,0-.11,0,.11,0,0,0,.11,0m-.33,0v-.06h0v.11c-.11,0,0,0-.11,0Zm-.11.16h.05s-.1.11-.11.11l.06-.11m-.38.06a1.39,1.39,0,0,0,.16-.17c.11,0,.05,0,.11.06h-.06v.05h.06c0,.12,0,0-.06.11V17c-.06-.06-.15,0-.21-.06Zm-.55,8.1h.05V25c.11,0,.05,0,.11.05s0,0-.05.06-.22,0-.11-.06m.22,1.92V27h-.06v-.11c.11,0,0,0,.11.06Zm.16-.44H230v.05s-.13-.1-.22-.05v.05h-.17v-.05a.39.39,0,0,0,.17-.11H230v.05h.05Zm.33-.49-.16.05-.06-.16a.41.41,0,0,1,.22-.06Zm.6,1.15c-.11,0,0,0-.11-.06h.06V27h0Zm.33-.66h-.16v-.06h-.06v-.16c-.21,0-.35.09-.49-.05s-.1,0-.17-.11.1-.19.17-.28.21.08.38.11,0,.06.17.06v-.17h.11v-.16l.21,0v-.11h.06c-.06.39-.11.1-.27.28h-.06l.06.11h-.11v.16h-.06v.06h.28a1.42,1.42,0,0,0,0,.16.2.2,0,0,0-.11.11m.16.16h-.1v0h.1l.06,0v0h.22c0-.19.12-.21.16-.38h.17v.1h.16l.06.17c-.17.06-.39.1-.55.16v.28h-.11v-.17c-.13,0-.1,0-.17-.11Zm.39.5h-.17c0-.11,0,0,.06-.11V27h.16c.07,0,0,0,.06-.05A1.17,1.17,0,0,1,232,27l-.11-.06,0,.17M233,28.79H233v.05h0c0-.17,0-.08,0-.27h-.17v-.11l.22-.05c0,.06.11.29.06.38m.11-.93-.22-.06v-.05l-.17.05v-.16l-.27-.06a.6.6,0,0,0-.05.22h-.11v-.22c-.1.06-.09.08-.22.11,0-.18.11-.25.33-.27v-.05l-.17-.06V27.2c-.11,0-.05,0-.11-.05H232v-.06l.33.06v.05c.09,0,.1-.05.11-.05l.33.05-.06.28a.35.35,0,0,1,.22.1v.11l.17-.05Zm.49.6v.06h-.05v-.11c.11,0,0,0,.11.05Zm.16.16c.11,0,0,0,.12.06-.11,0,0,0-.12-.06m.33-.27h0a.37.37,0,0,0,0-.11h-.33a1,1,0,0,0-.05-.16l-.33-.06v-.16c.11,0,.05,0,.11-.06h.06v-.16h-.22v.05h-.06v-.11h.06c.09-.11.11,0,.16-.21l-.27-.11v0h-.17A.62.62,0,0,0,233,27c-.27-.05-.18-.06-.38.05V27c.1,0,0,0,.1-.05h.06a.52.52,0,0,0-.22-.22v-.06l.27,0v.16h.06v.06c.06,0,.23-.09.27-.11l.28.38h.22v.06h.05l.11-.17h.11c.23-.11.11-.07.38-.05V27h-.16l-.06.33-.49.05c0,.13-.05.15-.05.22l.11.05c0,.11,0,.22.05.33a2.44,2.44,0,0,0,.44-.05v.33h-.06Zm.17.22c-.05-.07,0-.07-.11-.11v-.05c.23,0,.31.09.44-.06.21,0,.15.07.33.11v.06h-.11v.05h-.33v-.05c-.13,0-.15,0-.22.05m.38.49V28.9h.17l-.06-.17.38-.05v-.16h.06c0-.15,0-.13.16-.17v.27h.06v.06c-.1.05-.12-.1-.28,0v.05a.57.57,0,0,1-.27.17V29h.06c.08.06.25-.05.38-.11v.06h.05c-.07.09-.19.13-.27.22a1.73,1.73,0,0,1-.44-.06m.93,1.7v.06l-.16-.06v-.11c.11,0,.05,0,.11.06s0,0,.11.05Zm.06-1.59c-.06,0,0,0-.06.06h-.33v-.06h.17v-.05h.22Zm.22-.49v-.06h-.06v.17h-.05v.05h-.22v-.32a.56.56,0,0,0,.44,0v.05H236c-.07.09,0,.07-.16.11m.43-.38v.05h0v-.11c.11,0,0,0,.11.06Zm.39-.66h-.06v-.16h.06ZM239,32h-.11v-.11H239Zm.22.16h-.06v-.06c-.06,0,0,0,0,0h.11Zm.05-1.37c.11,0,.05,0,.11.06-.11,0-.05,0-.11-.06m1.59,0h0v.11h0Zm-.16-1.15h0v.16h0Zm0,.22h0v.22h0Zm-.28-.33h.06v.16h0v.06h-.11Zm-.27.82a.65.65,0,0,1,.27-.05v.11h-.27Zm.05,2.52v.06h-.05V33h-.06l0-.11Zm-.27-1.53v.05c-.1.05-.14,0-.17-.05Zm-.39-1.7h.17v.11c-.11,0-.05,0-.11-.06h-.06Zm0,3.07h-.16v-.11l.16,0Zm-.1-.39c-.11,0,0,0-.11,0,.11,0,0,0,.11,0m-.06-2.9c-.11,0-.05,0-.11-.05.11,0,.05,0,.11.05m-.11-1c-.11,0-.05,0-.11-.06.11,0,.05,0,.11.06m-.11,1.2h.06l-.06-.16h.11v.21h.06v.06l-.17-.06v.06h0a.54.54,0,0,1,0-.11M239,26.49c-.11,0,0,0-.11-.06.11,0,0,0,.11.06m-.28,4.05h.44v.06c.11,0,.05,0,.11,0h-.05v.06H239v.05c-.21,0-.15-.07-.33-.11Zm-.49.49h.22c0,.13,0,.11-.11.17v.05h0V31.2h-.11Zm-.11.72v-.06h.06v.11c-.11,0,0,0-.11-.05Zm-.27-.72h0v.11h0Zm.16.77v.06c-.18,0-.21.12-.38.16v-.16c.2.06.16,0,.38-.06m-.33-.71c-.11,0,0,0-.11-.06h.06V31h0Zm-.16-3.94h.05v.05h.06v.06h-.11Zm-.06,3.72h.11v.05c-.11,0,0,0-.11.06h-.11v-.06c.11,0,0,0,.11-.05m-.16-1.1h.05v.17h-.16v-.06h-.11v-.05h.22ZM237,28h.16V28l-.16.06ZM237,31.14H237s-.11.11-.11.11Zm-.49-5.69.22.05c0,.14-.06.12-.11.22s0,0-.11.06h-.06l.06-.33M236.18,27h.17v.11h-.17Zm0,.93H236V28h-.06V28h-.16v-.06c-.15,0-.13,0-.17-.16l-.16.05a.89.89,0,0,0-.22-.16v-.16c.15,0,.16.09.27.16v.05c.08,0,.11-.05.11-.05l.17.05a1.09,1.09,0,0,0,.05.17,1.78,1.78,0,0,0,.38-.06Zm-.76-.87v-.17a.63.63,0,0,1,.27.06V27a.85.85,0,0,1-.22-.06V27Zm.6-.39-.16.06V26.6H236ZM235.2,25v.06h.22V25l.44.06v.05h0v.16l-.6.06v-.11c-.11,0-.05,0-.11.05a.34.34,0,0,0-.06.39h-.27c-.05-.23-.14-.21-.05-.44h-.11c0-.23-.12-.19-.17-.38l.17-.06v.06h.11l.05.11.33.05m.66-4.33,0,.06v.05c-.09-.06-.08,0-.11-.16H236c-.1.11-.06,0-.16.05m.43.11c-.11,0,0,0-.11-.05h.06v-.06h0Zm.06-.22c-.1.05-.14,0-.17-.05h.17Zm0-6.13c.11,0,.05,0,.11.06-.11,0-.05,0-.11-.06m2.35-.93h.17v.11c-.11,0-.05,0-.11,0h-.06Zm-1,6.57a.36.36,0,0,1,.22.11l-.17.06c0-.11,0-.05-.05-.11Zm-.66.77H237l-.06-.22a.57.57,0,0,0,.33-.16h.11l-.06.16.06.05h-.06c-.08.21-.1-.06-.27.17m1.86-.28h-.11a.37.37,0,0,1-.05.11,1.23,1.23,0,0,0-.22-.05v.11l-.6-.17v.06c-.14,0-.32-.05-.39.05v.11l-.16.06v-.11h.11s-.1-.13-.06-.22l.11-.05v-.11h.06V20.3l.16.06v.11l.39-.06c0-.21-.09-.2.05-.33v0h.06v0h0a1.74,1.74,0,0,0,0,.22h.11v.11h.1c0,.11,0,.05.06.11s.22,0,.38-.05Zm1-.82c.11,0,.05,0,.11.06-.11,0-.05,0-.11-.06" style="fill:#020001"/></svg>