<svg xmlns="http://www.w3.org/2000/svg" viewBox="0 0 183.48 191.14"><g id="圖層_2" data-name="圖層 2"><g id="圖層_1-2" data-name="圖層 1"><path d="M33.75,27.21c3.44-3.2,8.84-6.85,10.38-8.62s3.54-3.53,5.31-3.75S53.86,14.62,55,14a36.39,36.39,0,0,0,6-4.42C62.7,7.77,64,6.66,65.13,6.88s6-1.54,8.62-2.87S89.88-2.18,99.38,1.14s20.11,9.72,27,12.81,13.48,13.26,18.13,18.79l4.64,5.52,1.76,2.21s0-1.77,2.43,1.11,3.54,4.2,4.2,5.74,0,3.1,1.11,4.42,9.5,20.78,13.92,27.85,4.86,15.69,7.07,19.89a38.58,38.58,0,0,1,3.76,19.67c-.66,7.73,0,13.7-1.77,20.11s-2.43,9.72-4,11.71-19.44,22.54-21.87,25.63-1.33,4-3.1,4.42-4.2-1.54-5.52-.66-2.65,1.33-7.3,2.21-39.33,4.86-42.21,5.53-5.3,4.19-15.91,2.65-17-4.2-26.29-12.6-15-17.9-17.91-19.45a61.88,61.88,0,0,1-8.61-5.52c-2.88-2.21-7.74-9.06-9.51-10.61a12,12,0,0,0-4.2-2.21,7.11,7.11,0,0,0,.23-4.86c-.89-2.43-2.66-7.07-4.42-8.18s-2.44-2-2.44-4A10.71,10.71,0,0,0,7,118.26a21,21,0,0,1-2.65-4.86c-1.11-2.87-3.1-5.75-3.54-8.84S-.51,102.79.38,94,10.32,60.8,11.65,56.16s.44-6.63,3.09-9.28S24,36.27,33.75,27.21Z"/></g></g></svg>