<svg id="圖層_1" data-name="圖層 1" xmlns="http://www.w3.org/2000/svg" viewBox="0 0 252.46 60.85"><title>pic</title><path d="M252.46,41.15a12.1,12.1,0,0,0-2-.32l-.61-.07-2.63-.5c-.5-.1-1.41-.37-1.41-.37s.2-.22.35-.19a14.16,14.16,0,0,0,1.84.08c.57,0,1.9-.12,2.25-.1l1.11.07-.14-.24.28,0,0-.23a4,4,0,0,1-1.12,0c-.56-.1-1.47-.22-1.7-.29s.23-.16.29-.14.87.1,1.22.13a2,2,0,0,0,.68-.1l.23-.59a3.27,3.27,0,0,1-.5.51,1,1,0,0,0-.18.09s-.59-.12-.82-.14l-.61-.07a2.5,2.5,0,0,1,.54-.33,2.88,2.88,0,0,1,.56,0s0-.07.18-.15-.15-.13-.15-.13a.62.62,0,0,1,.19-.2c.1-.06-.25-.1-.38-.16s-.7-.18-.7-.18a1.66,1.66,0,0,1,.42-.29c.16-.06.18-.1.18-.1l.41-.23s.1-.44-.06-.51a3.53,3.53,0,0,1-.56-.45,4,4,0,0,0-.45-.5c-.14-.07-.47-.28-.58-.34s-.13-.18-.16-.07.09.08.19.24a.46.46,0,0,0,.07.07l.3.14-.06.05v0l.15.13a4.45,4.45,0,0,1,.59.74.49.49,0,0,0,.15.18,1.35,1.35,0,0,0-.45,0,2,2,0,0,0-.34.13s-2.24-.37-2.69-.51a14.26,14.26,0,0,0-2.25-.46c-.71-.06-2.69-.45-2.69-.45s-.08-.33-.24-.36-.47-.39-.47-.39l.3-.13a1.25,1.25,0,0,0,.49.1.16.16,0,0,0,.13-.15,1.72,1.72,0,0,0,.34.48c.13.08.47-.17.47-.17a1.28,1.28,0,0,1-.28,0c-.11,0-.15-.18-.15-.18a1.43,1.43,0,0,1,.34,0c.09,0,.07-.11-.1-.13a1.39,1.39,0,0,1-.43-.15l-.25-.25s.17,0-.21-.14a9.85,9.85,0,0,1-1.13-.45c-.34-.14-2.12-.83-2.42-.93s-.61-.07-.7-.24l-.1-.18.14-.21a9,9,0,0,1,1.39,0l.93.21.19-.21a1.41,1.41,0,0,0,.34-.07c.12-.06.08-.22.08-.22s-.78-.09-1.1-.11-1.52-.06-1.67-.12-.23-.3-.47-.33a3.38,3.38,0,0,1-.64-.24l1.31-.31a.31.31,0,0,0-.2-.13c-.13,0-.06-.1-.22-.08a2.08,2.08,0,0,1-.9.07c-.31-.1-.25-.2-.14-.29a5.48,5.48,0,0,1,1-.57,11.37,11.37,0,0,0,1.18-.54,9,9,0,0,1-2.17.38,17.94,17.94,0,0,1-2.84-.07c-.46-.15-.17-.4.1-.5a5,5,0,0,0,1.11-.44,8.92,8.92,0,0,0,1.12-.55c.26-.23.3-.62.16-.43s0,.28-.32.36a3.94,3.94,0,0,1-.86.24c-.17,0-.26,0-.44-.05a2.84,2.84,0,0,0-.75.15,2.8,2.8,0,0,1-1,0l-.66-.13a3.5,3.5,0,0,1,.8-.2,2.36,2.36,0,0,0,.86-.13c.24-.11.22-.21-.16-.07s-.49.12-.62,0a.78.78,0,0,0-.49-.16c-.12,0-1.44-.09-1.72-.07a3.14,3.14,0,0,1-.45,0c-.12,0-.52-.33-.52-.33a3.83,3.83,0,0,0,.71-.43,2.23,2.23,0,0,0,.4-.63c.09-.1.41,0-.09-.18-.23-.07-.1-.06-.56,0s-1,.33-1.26.26a.72.72,0,0,0-.31,0h0a10.73,10.73,0,0,0,1.32-.47,7.17,7.17,0,0,0,1.8-1.15,2.67,2.67,0,0,1,1.38-.86,6.69,6.69,0,0,1,1.74-.6,2.68,2.68,0,0,0,.92-.24c.09,0-.83.06-1.07,0s-1,.1-1.3.09a8.19,8.19,0,0,1-1.56,0c-.35-.11.68-.44.89-.47a16.44,16.44,0,0,0,1.62-.5,2.24,2.24,0,0,1,.74-.09,4.92,4.92,0,0,0,.53-.28,4.81,4.81,0,0,1,1.1-.33,4.68,4.68,0,0,1,.84-.08.72.72,0,0,1,.44.16c.16.14.2-.05-.1-.18a5.14,5.14,0,0,0-1.44-.15c-.45,0-1.75.23-2.1.28s-.73.22-1,.12a5.38,5.38,0,0,0-1.43.3c-.3.06-2.86.73-3.23.89a31.38,31.38,0,0,1-3.44.81,7,7,0,0,1-1.53.23c-.07,0,.73-.6,1-.73s1.36-.64,2.46-1.09a34.33,34.33,0,0,0,3.27-1.22c.71-.42,3.07-1.59,3.48-1.76a5.69,5.69,0,0,0,1.41-.63,11.2,11.2,0,0,1,1.27-.87c.38-.21.92-.6.66-.49a11.91,11.91,0,0,0-1.57.56,21.49,21.49,0,0,1-3,1.08,9.49,9.49,0,0,1-1.37.3c-.19,0,.18-.56.53-.78s1-.73,1.45-1,.92-.65,1.33-.92a13,13,0,0,0,1.42-1.3,11.8,11.8,0,0,1,1.3-1.15,1.77,1.77,0,0,0,.55-.5,2.45,2.45,0,0,1,.5-.45,4.24,4.24,0,0,1-.52.16c-.12,0-.13-.12-.39,0s-1,.58-1.37.75-1.72,1-1.72,1,1.29-1.27,1.85-1.71,1.21-.85,1.46-1.08.35-.33.39-.46.14-.32,0-.23a3.89,3.89,0,0,1-.71.38c-.1,0-.22-.06-.15-.19a2.9,2.9,0,0,1,.64-.71c.35-.27.84-.81,1-1s.28-.32.14-.27-.17,0-.17,0,.48-.6.27-.48l-.41.24a1,1,0,0,1,.1-.44,2.73,2.73,0,0,1,.25-.25.38.38,0,0,1-.08-.35c.07-.18.08-.66,0-.33a2.22,2.22,0,0,1-.28.58,5.34,5.34,0,0,1-1,.79l-1.51,1s1.72-1.42,1.91-1.64a5,5,0,0,0,.51-.62c-.13.12-.22,0-.22,0l0-.28s-.11-.24,0-.33.28-.44.09-.39-.33.25-.54.39-1.79,1.47-2,1.69a1.71,1.71,0,0,1-.59.33s.53-.65,1-1.18a6.83,6.83,0,0,1,1-.89.92.92,0,0,1,.41-.13l0-.33s.06.09.22,0,.15-.32.15-.32.12-.24.25-.25.21,0,.27.08.18.14-.08-.29c-.07-.11-.28,0-.47.23s-.19.21-.19.21l-.42.23a6.45,6.45,0,0,0,.53-.72c0-.12-.24-.63-.24-.42s-.25.26-.26.36-.69.71-.69.71.13-.41.16-.48.15-.29.09-.27-.1-.18-.1-.18L237,5l-.15-.24s.21-.16.2-.26-.12-.28-.21-.13-.54.66-.77.92-1.82,1.88-1.82,1.88.07-.37.22-.48a4,4,0,0,0,.58-.78c.07-.15.22-.42.22-.42s.66-.87.84-1.15.34-.52.34-.52a.92.92,0,0,0-.08-.29c-.08-.15.06-.55.06-.55s-.09-.45-.25-.31a2.69,2.69,0,0,1-.31.25.49.49,0,0,1-.33,0c-.17-.09-.3-.25-.45,0s-5.71,7-6,7.48-1.49,1.83-1.6,1.9-.15-.34-.26-.2a1.7,1.7,0,0,1-.37.3s-.27,0-.21-.13a5.38,5.38,0,0,1,.44-1,3.43,3.43,0,0,0,.58-1.22,4.87,4.87,0,0,1,0-.73,15.65,15.65,0,0,0,.84-3.72c.31-2.35.51-5.09.5-5.31S228.74,0,228.6,0s-.18.66-.16.93-1.1,6.92-1.37,7.74a13.13,13.13,0,0,1-.61,1.51.93.93,0,0,0-.54.33c-.14.25.19.36.19.36s-.44.94-.63,1.22-.87.87-.94,1-.06-.21-.23,0-2.09,2.46-2.42,2.77-5,3.9-5.88,4.35-2.42,1.52-2.81,1.67-.62,0-1,.17-1,.55-1.12.61l-.13.08c-.07.09-.27.35-.43.37a11.75,11.75,0,0,0-1.2.32c-.19.06-.73.35-1,.45s-2.27.83-2.27.83,0-.48-.35-.43-2.14.6-2.58.62a22.54,22.54,0,0,1-2.54.18,8.21,8.21,0,0,0-1.21-.18,16.13,16.13,0,0,0-1.66.33.47.47,0,0,0-.36-.27c-.24,0-.67.09-.79.09s-3.14-.59-3.89-.8-2.67-.44-2.91-.48-.88-.62-1.17-.62-.28,0-.28,0h-.61s-1.95-.57-2.65-.84-3.57-1-3.85-1.19-.77-.48-1-.33-.44-.14-.75-.31-.12-.36-.63-.34a35.42,35.42,0,0,1-4.11-.83,10.63,10.63,0,0,0-1.2-.29c-.35-.07-1.63-.4-2.19-.51a5.37,5.37,0,0,1-1.45-.55c-.29-.16-.63-.93-1-.72a1.61,1.61,0,0,1-1.09.28L166,16.92a4.82,4.82,0,0,0-1.57-.5,2.16,2.16,0,0,1-.95-.49,2.34,2.34,0,0,0-.79-.53A11,11,0,0,0,160.5,15a13.47,13.47,0,0,0-2,0,13.76,13.76,0,0,1-2.33-.7c-.37-.06-1.64-.33-2.25-.46s-3.06-.72-3.32-.85-.26-.55-.71-.75-1-.43-1.28-.52a.88.88,0,0,0-.44-.05l-.54.28a1.63,1.63,0,0,1-1,.28c-.29-.09-.42,0-.55-.11s-.26-.45-.4-.44-.45.21-.52.12,0-.28-.25-.31a6.17,6.17,0,0,0-.62.05c-.12,0-.43-.16-.43-.16l-.64.27s0-.25-.2-.25-1.23-.06-1.5,0a1.56,1.56,0,0,1-.66-.18s.23-.26,0-.29-.73.1-.89,0-.52-.47-.13-.41.62,0,.34-.07-.91-.33-1.18-.41a10.25,10.25,0,0,0-1.09-.28A10.25,10.25,0,0,1,135.68,9a.68.68,0,0,1-.14-.24,5,5,0,0,1-1.23,0c-.3-.11-.63-.48-.84-.48s-.58.15-.86.13a3.78,3.78,0,0,1-.61-.07c-.23,0-.9-.06-1.28-.07s-3.65,0-3.86,0a1.54,1.54,0,0,1-.55-.12s.17-.18,0-.17-.32.29-.48.29-1,.05-1.24,0A12.47,12.47,0,0,1,123,8.25c-.14-.07-.14-.21-.37-.21s-.47.13-.62.1-1-.21-1.31-.3a1.87,1.87,0,0,0-.94-.16,6,6,0,0,1-.81.25,5.06,5.06,0,0,1-.65-.18c-.15,0,.12-.2,0-.22s-.61.08-.84,0a1.58,1.58,0,0,0-.59-.23c-.31,0-.76.24-1,.24s-.23,0-.23,0a3.08,3.08,0,0,0-.57,0c-.18,0-.52.25-.63.16s-.08-.27-.3-.37a1.65,1.65,0,0,0-.54-.11s-.68,0-.84,0-.56-.1-.66-.13a5,5,0,0,0-1.26-.24c-.4,0-1.36.09-1.46.06s-.14-.14-.42-.21-.32-.17-.6-.17-.61.06-1,.06-.77.13-1.13.11a4.77,4.77,0,0,1-1,0,15.36,15.36,0,0,0-1.83-.08,2.35,2.35,0,0,0-.86-.37c-.26,0-.9.58-.9.58l-.69.21a3.76,3.76,0,0,0-.79-.53,2.65,2.65,0,0,0-1.25-.31c-.27.06-.81.35-1,.35a6.83,6.83,0,0,1-1.29,0,1.35,1.35,0,0,0-.77-.08l-1.12.55S94,7,93.82,7a2.35,2.35,0,0,0-.81.25c-.06.11-.19,0-.28,0a6.14,6.14,0,0,1-1,.12c-.1,0-.65-.12-.93-.21a4.9,4.9,0,0,0-.77-.14l-.32.36a4.39,4.39,0,0,0-.73.09c-.17.07-.55.25-.65.27a2.84,2.84,0,0,1-.82-.2c-.18-.09-.4,0-.51.06a3.84,3.84,0,0,1-.88-.09c-.34-.09-.55-.21-.52-.34s.14-.36,0-.28-.72.63-1,.68-.64.21-.75.2-.31-.22-.43-.1l-.31.3-.53.23s.13-.51-.18-.41l-.29.08a2.52,2.52,0,0,0-.43.34c-.12.16-.32.38-.37.36s0-.24-.42-.27a5.26,5.26,0,0,0-1.19.15,1.31,1.31,0,0,1-.6-.12c-.2-.12-.37-.2-.37-.2s0,.35-.16.43a5.93,5.93,0,0,0-.61.44,12.45,12.45,0,0,0-1.77-.19,11,11,0,0,1-1.77.32c-.21,0-.3-.19-.38-.1a4.34,4.34,0,0,1-1.22.43c-.23,0-1.71.16-1.86.2s-2.27.32-2.56.4a3.81,3.81,0,0,1-.74.09s.55-.26.31-.25a8.12,8.12,0,0,1-.83-.09h-.62v.45l-.39,0c-.13,0-.84,0-.84,0s-.5-.37-.68-.46-.4.07-.4.07a3.27,3.27,0,0,1-.48.34c-.13.06-.5.13-.69.21l-.82.3-1.77.32a6.25,6.25,0,0,1-1.06,0c-.3,0-.49-.13-.72,0s-.72.52-.84.53a.8.8,0,0,0-.29.08s-.22-.23-.33-.09a1.71,1.71,0,0,0-.21.42.47.47,0,0,1-.34.08,10,10,0,0,0-1,.23l-1.82.31s-.2-.41-.25-.3l-.21.42a2,2,0,0,0-.62,0c-.27.07-1.32.19-1.88.3s-3.4.58-3.7.62-2.67.61-2.81.6-1,.1-1.13.11a7.75,7.75,0,0,0-.79.08,4.67,4.67,0,0,1-.9.07c-.21,0-.7,0-1.06-.05s-1.34.07-1.63.05a6.13,6.13,0,0,0-1.13.16c-.34,0-2.23.52-2.47.63s-.61.52-.73.54-1.49.4-1.68.5a2.06,2.06,0,0,1-.81.25,1.32,1.32,0,0,0-.56.05c-.32.06-2.58,1-3.44,1.26a16.42,16.42,0,0,0-2.39.92,8.08,8.08,0,0,1-1.12.55,4.18,4.18,0,0,0-1.92.7,18.61,18.61,0,0,1-2,.46c-.19-.07-.37-.37-.65-.24s-1.06.46-1.41.64a9.93,9.93,0,0,1-1.51.51c-.38.09-2.93.79-3,.85a5.84,5.84,0,0,1-1.18,0c-.16,0-.45-.16-.6-.12a3.82,3.82,0,0,1-.56.05.24.24,0,0,0-.32-.14,10.9,10.9,0,0,0-1.58.67,6.49,6.49,0,0,0-.72.43,1.91,1.91,0,0,1-.65.26A.44.44,0,0,0,8,23.14a2.32,2.32,0,0,0-1.13.61.21.21,0,0,0,0,.34,5.19,5.19,0,0,1,.64.85c.1.25,1.55,2.91,1.85,3.66a22.08,22.08,0,0,0,1,2.52c.22.27.18.41.18.41a2.57,2.57,0,0,1-1.08.72,7.25,7.25,0,0,1-2.12.45c-1,.11-2.28-.06-3.6.18A10.75,10.75,0,0,0,.56,34.16c-.26.21-.64.16-.55.39a1.74,1.74,0,0,1,.14.8,1.51,1.51,0,0,0-.09.89c.1.5,0,1.11.31,1.32s1.17.61,1.53.89,3.65,2.63,5,3,3.44.8,4.25,1.57a44.28,44.28,0,0,0,4.65,3.63,36,36,0,0,0,6.05,1.53c.87.16,5.88,2.35,6.94,2.63a66,66,0,0,0,7,.8c.47,0,2.11.16,2.11.16s3.17,1.45,5.31,2.13S49,56,49.93,56.15s1.74.18,2.38.26,10.16,1.54,12,1.82,8.19,1,8.6,1.18a3.58,3.58,0,0,1,.88.71s-.18.3.07.34.46,0,.55.06a2.45,2.45,0,0,1,.42.33l.52-.23s0-.58-.09-.74a.2.2,0,0,1,.2-.26c.13,0,8,.47,10,.61s8.37.21,8.37.21l.42-.23s3.18.18,4.07.15,4.57-.54,6.22-.63,8.4-1.17,8.9-1.13.64.24.94.1a8.21,8.21,0,0,1,1.26-.26,7,7,0,0,1,1.54-.29c.84-.08,1.53-.17,1.53-.17s.06.08.61.06,4.67-.57,6.35-.78,2,.23,4.19-.51a18.14,18.14,0,0,1,4.07-.92,10.75,10.75,0,0,0,1.51-.51c.41-.14,7.39-1.19,8.41-1.24a14.39,14.39,0,0,0,3-.3c.2-.16,16.77-3.74,17.8-4.27s3.53-2,4.2-2.19A32,32,0,0,0,172.62,46c.84-.43,5.34-1.87,6-2.28s6.95-3.4,7.5-3.68,1.84-.84,2.41-1.09,2.92-1,3.73-1.51,3.73-1.62,4.69-2,2.32-1.06,2.77-1.27,1.32-.19,2.11-.45,2.24-.38,2.59-.63l.66-.48s2.26-.41,2.5-.36l2.14.4c.56.09,7.37,1.31,9,1.51s7.55,1.5,8.48,1.79,2.5.65,2.5.65,7.3,2.28,8,2.42,3.19.67,3.72.83,5.12,1.26,5.84,1.35,1.9.18,2.61.22a7.19,7.19,0,0,0,1,0c-.13,0-3.44-.42-4.9-.8s-1.68-.46-1.68-.46,4.16.55,5.68.72a17.24,17.24,0,0,0,2.44.25m-5.82-2.68.17,0c-.1,0-.08,0-.17,0m.22,0c.1,0,.06,0,.11.07s-.05,0-.11-.07m2-.74.44.1a.83.83,0,0,1-.45,0v-.11m.1.18V38l-.34,0,0-.11a.73.73,0,0,0,.33,0m-.14-.24v.05c-.1,0-.06,0-.12,0s-.13,0-.21-.14l.34,0m-2.42-.42a6.85,6.85,0,0,1,1.54.27H248a2.46,2.46,0,0,0,0,.28c.28.09.45.24.75.31a.45.45,0,0,1,0,.11c-.44-.09-.5-.32-1-.38,0-.2-.07-.16-.14-.3-.29,0-.57,0-.77-.13s-.33-.07-.35.13l-.28,0c0-.12,0-.23.09-.27m-.51,0,.17,0v.05l-.06,0h-.11v-.11M235.58,13.92h.11c-.08.17-.13.15-.25.25h-.05c.06-.21.08-.15.19-.26M7.9,24.48H7.85v-.11h0Zm.83.09c.09,0,0,0,.11.06-.1,0-.06,0-.11-.06M9,24.32l.16,0c0,.1,0,.05.05.11s0,.11,0,.17H9.17A2.55,2.55,0,0,0,9,24.32M9.3,25,9.24,25l0-.17c.09.05,0,0,.1.07h.06Zm11.76-2.23L21,23s.05,0,.17,0v0c-.14,0-.1,0-.18.1V23L21,23h-.06l.07-.11c-.07-.07,0,0,.07-.16m0,.9s0,.07,0,.11H21l0-.12h0m-.66,17.44c-.08-.08-.1-.06-.17,0h-.06a.71.71,0,0,1,.08-.21l.5,0,.05.06c-.07.13,0,.09-.13.15s-.07,0-.24.09h-.11a.5.5,0,0,1,.13-.15ZM20.26,24c.16,0,.17,0,.28,0Zm.54-.39c-.06,0-.05,0-.17,0v.17c-.16-.07,0-.08-.21-.19v-.06c-.06.1,0,0,0,.17-.21.06-.17.05-.45,0,0-.06,0-.12,0-.17l.06-.05c0,.1,0,0,0,.11.25,0,.3-.18.46-.12a1,1,0,0,1,.32.09m-.73-1v.11H20v-.11h.11M20,22.45h.11c-.07.1,0,.06-.11,0m.43.66c.09.05.05,0,.1.07s-.05,0-.1-.07m.07-1.17.11,0c-.07.11-.06.07-.13.15H20.4c0-.05.05-.1.08-.16m0,.45h.06l-.13.15h-.05c.06-.12.05-.08.12-.16m-.34-.93.06-.05c.09.05.05,0,.1.07l-.06.05s-.22,0-.1-.07m.14.24v.11h-.11v-.11h.11m-.29.58a.27.27,0,0,1,.17,0h0c0-.1,0-.1.07-.15V22h.11a.33.33,0,0,1-.18.2h0a.71.71,0,0,0-.17.09h-.06Zm0,1.52L20,24h-.05c0-.06,0-.12,0-.18l.11,0m-.28-1.54c-.1-.05-.06,0-.11-.07s.05,0,.11.07m-.57,18.62H19c0-.06,0-.11,0-.17s.06,0,.09.18m-.33-17h.06V24h-.06s0-.07,0-.11M18.52,41h.11v.11h-.11V41m-.33-.6a.37.37,0,0,1-.23,0Zm-.37.36c.05-.06,0,0,.06-.11s.06,0,.12,0l.22.08-.12,0c-.1.1-.09.08-.29.08Zm-.58-.4c.1.09.15.05.21.19s-.05,0,0,.12l-.12,0-.18-.36h0M16.08,23.83h.11l-.07.16-.12.05V24a.23.23,0,0,1-.11-.07c.14,0,.1,0,.18-.09M14.13,39.18c-.09,0-.06,0-.11-.07s.06,0,.11.07M12.82,33.5l0-.39c0,.21,0,.23,0,.39m0-1.35h0v.11h-.05a.49.49,0,0,1,0-.12m-.14-.23.1.06V32h-.11s0-.08,0-.11m.07,2V34h-.06v-.11h.06m-.12,3.79.11.32.13,0c-.06.15,0,.12-.07.14l0,.11s.06,0,0,.15l0-.15a.36.36,0,0,1-.09-.09l.06,0L12.72,38l-.14,0a1,1,0,0,1,0-.28h.06m0,.39c-.05.09,0,0-.07.11s0,.07,0,.11a.27.27,0,0,1-.05-.12c-.12-.06-.08,0-.15-.13.1,0,.05,0,.12,0l.16.07m-.29-13.18a1.13,1.13,0,0,0,.1.13l-.12,0,0-.17m-.37,6.68c.09,0,.05,0,.1.06h.06v.11l-.22,0c0-.06.05-.11.07-.16m-.24,6.52c-.13-.06-.09,0-.15-.13.17.06.08,0,.15.13m-.25-.25c-.13-.06-.09,0-.16-.13.18.06.09,0,.16.13m-.26-11.89.1.07v0h-.11Zm-.73,11.67h.06s.18-.06.23-.09l.22,0v.11l-.06.05a3.72,3.72,0,0,0-.44,0v-.06m-.23.09c.11,0,.1,0,.16.07H10.3l-.11,0V37.7m-.26-.2.16.08v.11l-.22,0s.05-.1.07-.16m-.5,0c.15-.07.28,0,.38,0s0,.11,0,.16a2.09,2.09,0,0,1-.55-.17l0-.06Zm-.58-.4c0,.06,0,0,.05.12H8.85Zm-.07.16v.06c-.09,0,0,0-.1-.07h.11m-.69.21v.05c-.09,0-.05,0-.1-.06H8.1m-.33-.09c0,.06,0,0,0,.11h0Zm-1.6-.23c.14.08.11,0,.16.13l-.17,0v-.11m-.91-1.44.06,0a.18.18,0,0,1,0,.07c0,.26-.06.29-.31.3,0,0,0,.07,0,.11h0l.48-.26a1.06,1.06,0,0,0,0-.19c.13,0,.17.06.23,0l-.27.15a.45.45,0,0,1-.48.26l-.27.14a1.43,1.43,0,0,1,.45-.57m-1.11.45a1.59,1.59,0,0,1,.46-.07c0,.11,0,.11-.08.16v.06c0,.1,0-.12,0-.12s-.07.12,0,.22-.13.06-.18.1c-.06-.11.07-.13-.14-.24Zm-2.55.29-.16,0,.07-.16c.09,0,.05,0,.1.07h.06l-.07.11m.13-.1h.11c-.07.09,0,.06-.11,0m.91.37c-.22,0-.36,0-.44-.1-.24-.05-.23-.09-.31-.25.18.06.5.23.65.18h.17c0,.06,0,.11-.07.16m.8.37c.09,0,.05,0,.1.06s0,0-.1-.06m.51,1H3.84V38H4v.11m.36-.74H4.2c-.13.06-.06,0-.23,0s-.1,0,0-.17l.22,0c.06.1,0,.07.15.13Zm0,.84c.28-.15.82.11,1.13-.11l.1.07c-.32.37-.77.15-1.23,0m2,.09a1.09,1.09,0,0,1-.79.09.15.15,0,0,0-.07,0l.06,0h0c.15-.11.4-.07.57-.17l.22,0Zm1,.89-.22,0s0-.07,0-.11l.17,0,0,.06v0m1.25.36c-.16-.07-.21,0-.32-.15l.33,0v.11M9,39C8.89,39,9,39,9,38.91c.09.05.06,0,.11.07Zm.67,1H9.62l0,.12c-.14,0-.21,0-.28,0H9.32c.08-.09.12-.08.19-.2h.17v.06m-.13-.85v-.12l.1.07v.06H9.54m.14-.32c-.14.11,0,.12-.17.09l0,.22-.22,0c0-.18.11-.07,0-.18a.87.87,0,0,1,.47-.17l0-.17.16,0c0,.18,0,.14.09.23V39c-.19,0-.18.09-.27-.08m.34,1.6-.17,0a.85.85,0,0,1,0-.17l.22,0Zm.48.22v0c-.19,0-.26-.09-.38,0h-.06s0-.07,0-.11c.23,0,.2.07.24-.08l.22,0c0,.12-.06.06,0,.17m-.43-1.22s0-.08,0-.12h.05a.41.41,0,0,1,0,.11h0m.49-.4c-.13-.1-.07,0-.1-.18l.1.12Zm0,1.74c0-.06,0-.11,0-.17l.39,0c0,.1,0,.06.05.12-.17.11-.21,0-.45,0M10.9,39c.09,0,0,0,.11.07l-.07,0c-.1-.06,0,0,0-.12m.33.6v0h-.11l0-.23a.68.68,0,0,0,.22.08c-.05.09,0,.06-.07.11m.74-.09V39.4l.21.08a.43.43,0,0,1-.22,0m.33.54c.09,0,0,0,.11.06-.1,0-.06,0-.11-.06m.33.09a.27.27,0,0,1-.17,0V40h.06v.06l.12,0,0,.06-.06,0m-.12-1c.09,0,.05,0,.1.07s0,0-.1-.07m-.06-.28s0,.08,0,.1,0-.07-.22,0h-.06a.61.61,0,0,1,.07-.1c-.24,0-.14-.09-.29,0h-.05l.07-.11,0-.06c-.12,0-.12,0-.12,0v.06c-.11-.09-.16-.14-.18-.2l-.21-.06-.09,0-.07-.08-.52-.13,0,.2-.15-.18H10.4a.13.13,0,0,1,0-.06l.13,0-.47-.12s.08,0,0,.12c-.05-.07,0-.06,0-.13l-.29-.07H9.7v0l-1.85-.46v.06h0c0,.17.08.14.13.29.53,0,.48.19,1,.33,0,.06,0,.11,0,.17l.35-.13,0,.06c0,.19,0,.18-.14.26s-.47-.29-.85.08c-.22-.13-.27-.25-.48-.27,0-.15.07,0,0-.18s-.34.16-.57.06-.82-.58-1.13-.4c-.27,0-.29,0-.31-.26H5.66a1,1,0,0,0,0,.17,1.51,1.51,0,0,0-.44-.1l.19-.2c.19,0,.23,0,.32.14A.6.6,0,0,0,6,37.7c-.07-.15,0-.09-.21-.14v-.05c.17,0,.16,0,.24-.14.16.1.42.08.54.16.28,0,.27,0,.27.14.18,0,.26.06.4-.06.22.22.1.14.37.2a.44.44,0,0,1-.18.09l0,.07a.09.09,0,0,1,0,.05.83.83,0,0,0,.3-.14.87.87,0,0,0,0-.19l-1.32-.33s0,0,0,0a3.27,3.27,0,0,0-1-.22H5.28c0,.12,0,.11,0,.17s.14-.07.28,0H5.7l0,.17c-.17-.05-.13,0-.21-.14-.06.11,0,0,0,.17-.21,0-.27,0-.4.07-.15-.19-.29-.15-.48-.22l0-.06a1.33,1.33,0,0,1,.35-.13.69.69,0,0,1,.08.23l.22,0c0-.23-.1-.14,0-.28L5.08,37,4.91,37c0,.07,0,0,0,.1a.37.37,0,0,1,0,.11c-.56-.26-1.56,0-2-.43H2.8a.44.44,0,0,1,.25-.2c.43.21,1,0,1.33.14h.11l0,.17.44.11v-.06H5l.06.1,1.31.33c0-.1,0-.08.11-.16.44.13.66,0,1.15.23-.07.08-.06,0-.12.15.13,0,.17.06.18.11l.14,0v0c.18,0,.11,0,.34,0,0,0,0-.11,0-.16.31,0,.43-.06.89,0v.11a3.2,3.2,0,0,0-.84.08l0,.11a.89.89,0,0,1,.33.09v0a.18.18,0,0,1-.05-.07l.11,0a3.15,3.15,0,0,1,.65.18c0-.14,0,0,0-.22h.06a2.18,2.18,0,0,0,.36.26.34.34,0,0,1,.07-.16c.14.09.34,0,.49.17,0-.12,0-.11.07-.16a1.48,1.48,0,0,0,.21.13l-.06.11h.05c.1-.09.06-.07.23-.09a2.22,2.22,0,0,0,.42.59l.16,0a1,1,0,0,1,.21-.1.42.42,0,0,0,0,.16l.51.13.1,0,.27.07,0-.11.21.17.19,0a.12.12,0,0,1,0-.07c-.1,0-.06,0-.11-.07l.11,0v0L13,39a.85.85,0,0,0,0-.17H13c.14.14.19,0,.26.19s0,.06,0,.08l.08,0c.14-.05.22.07.55.14s.91.24.93.21a.3.3,0,0,1,0,.17c-.12,0-.11,0-.16-.07s0,0-.07.1c-.13-.08-.08-.1-.2-.19a.44.44,0,0,0-.39-.09c-.19,0-.14,0-.15-.13l-.55-.14-.05,0,0,0L12.89,39a.64.64,0,0,0,.06.16L12.7,39ZM9,38.35c-.1,0-.06,0-.11-.07s.05,0,.11.07m-3.2-1c.09,0,0,0,.11.07-.1,0-.06,0-.11-.07m2.7.45H8.4v-.11c0,.06,0,0,.05.11m6.4,2.41h-.11s.05-.1.07-.16,0,0,0,.17m-.7-.24c-.17.15-.28.09-.38-.09a1,1,0,0,0,.38.09M13,39.22h.11v0a1.1,1.1,0,0,0,.33.09s0,.07,0,.11c-.25-.09-.22-.12-.39,0v-.06L13,39.22m.52,1.45-.5-.1a.18.18,0,0,0-.05-.07,1.06,1.06,0,0,1,.09-.27,1.94,1.94,0,0,1,.46.39v.05m.45-1.12a.59.59,0,0,1-.26-.2.54.54,0,0,1,.26.2m0,1.23c-.07,0-.34-.11-.26-.19,0,.17.27-.11.29-.14s.06.11.21.13c-.08.13-.14.12-.24.2m.19-1.27c.09.05,0,0,.1.07s-.05,0-.1-.07m.16,1.08h.06a.41.41,0,0,0,0,.11H14.3v-.11m.33.65h-.06a.45.45,0,0,0,0-.11h.06v.11m0-.33-.33,0c.1-.15.2-.1.31-.25.11,0,.09,0,.16.07h.11c-.08.12-.15.11-.25.2m.24-.7H15c-.06.09,0,.06-.11,0m.18.41c.15.12.06.12.21.13l-.06.11c-.18-.1-.16-.11-.15-.24m0-.17v-.11h.06v.11h-.06m.12-.09c0-.06,0-.11.08-.16l.1.06v.11h-.17m0,.55.11.07V41h-.11v-.12m.43,1.28-.34,0v0c.1,0,.05,0,.12,0l.21.08v0M15.39,41h.11c-.06.09,0,.06-.11,0m.28,0a.54.54,0,0,1-.26-.2h-.06a.7.7,0,0,1,.14-.21h.11c-.1.13,0,.06-.18.09a.75.75,0,0,0,.25.25V41m-.06-1c.09,0,.05,0,.1.07s-.05,0-.1-.07m-.16-.07c0-.24-.14-.14-.31-.31h-.05v0c.2.06.5-.07.73,0ZM16,42.17c0,.06,0,0,0,.12-.11-.07,0,0,0-.12m0-.39-.06,0v-.11c.1.05.06,0,.11.07H16m.28.54c-.11-.06-.06.07-.16-.08.06,0,.21,0,.16.08m.08-.72a1.47,1.47,0,0,1-.1-.13s0-.11,0-.16-.21,0-.28,0l-.23,0a.71.71,0,0,0,.08-.21c.16,0,.09,0,.17,0,.33.06.34.18.52.34-.07.22,0,.09-.18.15m.19-.71h-.11c.05-.17,0-.14.13-.21a.47.47,0,0,0-.36-.32l.3.13a.07.07,0,0,1,0-.09l.1.12a.12.12,0,0,1-.11,0l.8.35v0c.15.06.11,0,.14.1l.44.19c-.31-.12-.44.09-.57.11L17,41.1c-.13-.16-.26-.15-.29-.42-.15.07-.09,0-.13.21m1.28.58v.06H17.8a1.11,1.11,0,0,1,.07-.16c0,.09.07,0,0,.11m-.94-.15v0h-.06c-.06.05-.14,0-.21-.08Zm0,.39c-.08,0-.18,0-.33-.09,0,0,0-.07,0-.11a.51.51,0,0,1,.27.08l.11,0c0,.09,0,0-.06.1m.36.77-.27,0a.37.37,0,0,1,0-.11.86.86,0,0,0,.28,0l0,.11m.15-.83c-.11,0-.11,0-.16-.07l-.05-.06h.11v-.06l.11.07a.41.41,0,0,0,0,.11m.81.2a1.56,1.56,0,0,0-.6-.06l-.05-.06c.07-.12.09-.08.18-.15s.22.05.28,0,0,.08.2.18Zm.06,0,0-.28.26.14c-.13.17-.1,0-.23.14Zm.59.73a1.34,1.34,0,0,0-.44-.05h0c.06-.12,0-.08.12-.16a.86.86,0,0,0,.45,0l-.08.16m0-1.68a.37.37,0,0,0,0-.11c0,.06,0,0,.05.12h-.06m-.09-.17v-.06c.05,0,0,0,.06-.11s.06,0,.12,0,0,0,0,.11,0,.07-.18.1m.36,1.88-.17,0,.08-.16.1.12v.06m0-.5-.12.1H19l.07-.16.17,0v0m.2.25c.09,0,0,0,.11.06-.1,0-.06,0-.11-.06m.16.12c.06-.12,0-.09.12-.15s0-.11-.26-.14c.06-.14.08-.12.14-.26.12.13,0,0,0,.22a.42.42,0,0,0,.24-.14c.17.07.09,0,.15.13s0,.17,0,.39c.42,0,.38,0,.47.27-.24-.09-.56-.18-.91-.32m.53-.28.11,0c-.06.09,0,.06-.11,0m.55.12-.07.05H20.5s0-.08,0-.11h.16v.06m.15-.43a3.16,3.16,0,0,0-.7-.19v-.05a.38.38,0,0,1,0-.34l.91.32s0-.07.13-.1l.05.07a.76.76,0,0,1-.43.29m.43.21h.11c-.06.09,0,.06-.11,0m.25-.81c-.06.1,0,0,0,.16l-.65-.18.06-.05c.07-.12.11-.11.19-.2.23,0,.37.07.42.27a.86.86,0,0,0,.2-.26.64.64,0,0,1-.1-.18l.42,0,.09,0,0,0L23,41h0c.14,0,.18-.12.22,0h.06l0,.06.31,0v.11c-.17-.06-.14-.11-.27-.08h-.06l0,0L23,41a1.12,1.12,0,0,0,.08.27.7.7,0,0,1-.14.21h-.05c0-.13.06-.26.1-.38-.65.15-.22.32-1.15.21.06,0,0,0,.11.07-.1.1-.06.1-.13.15s-.2,0-.26-.19m1.82.25c-.08.14-.2.19-.31.3a.75.75,0,0,1-.38-.15c.12-.14.05-.08.18,0a.34.34,0,0,0,.07-.16c.15,0,.15.08.28,0l.16,0m-.07-.4c.09,0,.06,0,.11.06s-.06,0-.11-.06m-.14.82c.19-.23.47,0,.69-.21.13,0,.08,0,.28,0-.08.08-.17.19-.25.26v.05c-.13-.09-.06,0-.09-.18a3.24,3.24,0,0,0-.41.13l-.27,0,.06-.05m-1,1h-.06v-.11h.06a.45.45,0,0,0,0,.11m-.31-.31v-.05c-.08-.06.07-.08.13-.16l.16,0,.05.06c-.07.14-.19.09-.35.13m.54-.84-.29.08c-.15,0-.09,0-.1-.12l-.05-.06c.2,0,.09.08.23,0a.68.68,0,0,0,.22.08Zm.2-.26c-.1,0-.06,0-.11-.06s0,0,.11.06m1.1,1.24-.17,0c.09-.12.24-.1.36-.18h.05l-.24.2m-1,.12-.17,0c.11-.18.22-.25.32-.42a1,1,0,0,0-.32-.09v0c.3-.06.41.14.73,0,.07,0,.14-.16.3-.19s.16.11.34,0a.63.63,0,0,0,.26.14c-.27.49-1.06.23-1.46.63M24,41.23c-.07-.11,0-.1,0-.17V41H24c0,.15,0,.21,0,.29v0a1.8,1.8,0,0,1-.2-.19,1.07,1.07,0,0,1,.13-.21c.17,0,.15.06.22,0a.72.72,0,0,1,.27.08c-.09.16-.21,0-.35.19m.39,1.55c.09,0,.06,0,.11.07s-.06,0-.11-.07m1,.33c.1,0,.06,0,.11.06s-.05,0-.11-.06m1.51-22.73c-.1,0-.06,0-.11-.06s.05,0,.11.06M27,41v.06c-.19,0-.18,0-.26-.14A.67.67,0,0,0,27,41m-.35-20.62.17,0-.77.42c.12-.32.41-.21.6-.44m-.47,23.06h-.06l0-.11h.05Zm.72.63c-.11-.06,0,0-.05-.12a.57.57,0,0,0-.22,0c.09-.13.08-.1.28-.09l0-.11c.12.08.09.07.14.19Zm.46,5.64.17,0c-.1,0-.08,0-.17,0m.23,0h.11c-.07.09,0,.06-.11,0m.09-29h-.06l.17,0c-.1,0-.05,0-.11.05m3.19-2.18c-.09-.05-.05,0-.1-.07s.05,0,.1.07m-.17.54c-.18.07-.34-.09-.44-.05l0-.17h.06v-.11a.61.61,0,0,0-.18.09l-.17,0c.19-.24.53-.06.75-.14s.23,0,.34-.08l.33,0,.05.06c-.17.12-.37.06-.57.16l-.14.21m.75.36c-.05-.05,0,0-.11-.07l.16.07h0m2.79-2.11c.09,0,.06,0,.11.06s-.06,0-.11-.06m.49-.34c-.15-.06-.1,0-.1-.13l.1.07v.06m.06-.05.06-.05c0,.06,0,0,0,.11s-.21,0-.1-.06m1-.63v.06c-.12-.07-.09,0-.15-.13l.16.07m.68,1a.84.84,0,0,0-.4.12v-.05c-.07-.07,0,0,.07-.16l.34,0Zm0-.17a1.84,1.84,0,0,0-.94-.1h-.11c.09-.16.43-.1.73-.09,0-.25.1-.2.26-.36l.19.41c-.15.06-.07,0-.13.15m-.69-.35.16,0c-.1,0-.07,0-.16,0m.31-.36-.22,0V16.4c.35-.09.85-.21,1-.51l-.19.26-.07.16c-.24.09-.36,0-.53.17m.76,1.37h-.11a.37.37,0,0,1,0-.11h.11a.37.37,0,0,0,0,.11m-.22-.58.44,0c-.21.15-.48.16-.44,0m.85-1.76a1,1,0,0,0,.51-.06.68.68,0,0,1,.22.08Zm.79,0,.28,0a.46.46,0,0,1-.28,0m.36-.19c.09.05.05,0,.1.07s0,0-.1-.07m.37.16c.09,0,0,0,.11.06-.1,0-.06,0-.11-.06m.33,0-.16,0v-.11l.16.08v.05m1.12,0h0v-.11h0v.11m.55,0-.39,0c.06-.14.14-.08.3-.19l.16.07c0,.09,0,.05-.07.1m.76-.25.06,0c0,.06,0,0,0,.12s-.21,0-.1-.07M51,13.7c.11,0,.5,0,.63-.22l.22,0v.05l-.12.1-.17,0c0,.06,0,.11,0,.17s-.11-.07-.22,0l-.33,0V13.7m-.57.1c-.11-.05-.07.07-.17-.07.06,0,.21,0,.17.07m-.33-.09h0v.11h0Zm-.92.8.16,0c.06.14,0,0,.1.12a.23.23,0,0,1-.28,0c-.09,0,0,0-.1-.07s0,0,.12,0m.22,0v-.11a1.09,1.09,0,0,0,.38.1s0,.07,0,.11a1.09,1.09,0,0,0-.38-.1m.29.37h0V15h-.06a1.11,1.11,0,0,0,.07-.16l0,.06m-.43-.1v0c-.17,0-.13,0-.21-.13Zm-.19.2.16,0c-.06.11,0,.07-.12.15H49c0-.05,0-.1.08-.16m-.45-.49a.73.73,0,0,0,.33,0v.06a.4.4,0,0,0-.23.08l-.22,0c.06-.11,0-.07.13-.15m.3.31-.07.1-.22,0v-.06a.35.35,0,0,0,.17-.09l.11.07m-.83-.09,0,.06,0,.06h-.06V15H48c0-.08.05-.15.08-.22m-.78.53c.17.09.06.06.21.08a.68.68,0,0,1-.08.22h0c0-.13,0-.09-.1-.18Zm-1,.07h.11a.68.68,0,0,0-.08.22h-.06l0-.22m-1.06,35,1.46-.06c-.49.1-.86,0-1.08.16l-.39,0Zm.85.43c-.09,0,0,0-.11-.07.1.05.06,0,.11.07m-.34.08c.11,0,0,.05.11,0H46c-.06.13-.07.08-.13.21s-.15,0-.22,0l-.33,0v0a.65.65,0,0,0,.41-.18h.06a.86.86,0,0,0-.07.1h.06m-1,.06c.1,0,.06,0,.12,0H45a.13.13,0,0,1,0,.06l-.11,0h-.11v0M43,51.34s.18-.06.23-.09a1.72,1.72,0,0,0,.39,0s0,0,0,.06,0,0-.11,0Zm.65.68-.06,0V52c.1,0,.06,0,.11.07h-.06m.22.08h-.06V52h.06Zm.16,0H44V52h.06l0,.11m1.7-.16c-.12.15-.74.07-.84,0h-.11c.25-.15.31,0,.57-.11a.52.52,0,0,0,.38,0h.06Zm.64.85c-.22,0-.24,0-.32-.14l.27,0,0,.06Zm.38.1c-.21,0-.24,0-.32-.15a2.45,2.45,0,0,1,.32.09Zm0-.78.07-.1s0,0-.07.1m.3-.14h.11c-.06.1,0,.06-.11,0m.48.22h-.06l0-.12h.05s0,.07,0,.11m.21-.37c-.1,0-.06,0-.11-.07l.11,0Zm.24-.2-1.39.42a.4.4,0,0,0-.38,0h-.06l.07-.11c-.18,0-.12,0-.23.09l-.07,0v0h-.11c.06,0,0,0,.17,0-.08-.16,0-.08-.16-.08l.06,0c.62-.24,1.62,0,2.1-.29h.06l-.07.1m-1.26-.74h.11l-.06.05v0c0-.06,0,0,0-.11m.35-.14.11,0-.06,0v.06c0-.06,0,0,0-.12m.38-.18a.54.54,0,0,1,0,.11.85.85,0,0,1-.23,0l-.42.15a.18.18,0,0,0,0,.05H46.8v0l-.49.17.08.05a.07.07,0,0,0,0,0,2.54,2.54,0,0,0-.39,0l-1,.35c-.34,0-.79-.13-1.06,0h-.11c.13-.17.37-.09.62-.1.43,0,1-.19,1.54-.24l.32-.11c-.07,0-.05,0-.19,0,.08-.18.08-.09.08-.27.2.06.19.1.32.2a.75.75,0,0,1,.42-.29s.16,0,.32.07l.08,0h-.13l0-.11.16,0v.09l.09,0s0,0,0-.06c.26-.14.43,0,.54-.33a.68.68,0,0,1,.09.17Zm.32-35.1c.06-.11.05-.07.12-.15l.34,0s0,.08,0,.12c-.21-.07-.23,0-.5,0m0-.27-.12,0a.18.18,0,0,0,.07,0V15c.13,0,.15,0,.22,0,.17.12.24.18.44.16a.61.61,0,0,0-.07.1l-.55,0m.72,16.46c-.12,0-.11.06-.1-.06h.11Zm.16-16.32h-.12c.1-.13,0-.06.18-.09-.07-.15,0-.09-.21-.14a.43.43,0,0,0,0,0c.1,0,0,0,.11,0l.11.06V15c.22.08.06.07.14.18v.06l.11,0,.05.06-.12.16c-.14,0-.21,0-.27-.09m.66.07a.6.6,0,0,0-.3.14H49c.08-.13.11-.08.19-.21l.16,0Zm.23,0c-.08-.1-.1-.07-.33-.09.05-.14,0-.1,0-.27h.05c.23-.08.34.26.66.13Zm.35-.74.07-.11s0,0-.07.11m.2.3a.52.52,0,0,1,.16-.26Zm.4.38-.11,0c.08-.11.09-.07.19-.14Zm.38-1.42-.68.54c-.09,0-.05,0-.11.05-.21,0-.24,0-.32-.15s.06-.08.13-.15h-.06a1.28,1.28,0,0,0-.51.06l-.17,0c.25-.33.8-.07,1.15-.21.07,0,.07-.17.13-.21l.15.13c.06-.14,0,0,0-.17.17,0,.15.06.22,0l.17,0-.12.1m1-.23-.23.08a.13.13,0,0,1,0,.06c.19.06.17,0,.21.13h-.11a1.21,1.21,0,0,1-.38-.07l-.18.07,0-.11.16,0,.29-.11a.85.85,0,0,0,.3-.19h.11c-.08.08,0,.07-.18.1m2.27-.77-.36.19c.17-.07.15-.15.36-.19m0,.44-.06.05c-.06,0,0,0-.12,0,0-.14,0-.1-.09-.24l.23,0,0,.11h.06m-.39,0v.06c-.1,0-.06,0-.11-.07h.11m-.91.13.17,0c0,.12-.06,0,0,.11s0,.11,0,.17H53c-.06-.12,0-.11-.15-.18v-.11m-.22.53h-.17v-.11a.52.52,0,0,0,.18-.1c0,.08,0,.1,0,.22m.68-.17c0,.12,0,.06-.12.12v-.05l0-.06,0,0h-.08a.61.61,0,0,1-.13.16c0-.11,0-.14-.08-.18h-.13v-.06l.12.06.21,0a.35.35,0,0,1,.06-.09v-.06h.11c-.06.16,0,.11-.1.14h.13s0,0,0,0a2.69,2.69,0,0,0,.95,0c.07.09,0,.06.16.12Zm1.38-.28v-.11c0,.06,0,0,.05.12Zm.45.5c0-.11,0-.06,0-.12l.06-.05c.08.08.06,0,.09.18H55.1m.07-.61c.09,0,0,0,.1.06s-.05,0-.1-.06m125.1,8.88c.09.05,0,0,.1.07s-.05,0-.1-.07m8.14,2.32v.05c0-.06,0-.05,0-.17h.11c0,.09,0,.06-.07.11m3.7,1.06c-.2,0-.28,0-.33-.09h0a.28.28,0,0,1,0-.11.28.28,0,0,1,0,.11h0a1,1,0,0,0,.28,0l.05.06Zm2.76.35a.27.27,0,0,1-.05-.12h.11l-.06.05V26m.16.07c-.1-.05-.06,0-.11-.07l.17,0Zm.13-.21-.56-.06a.41.41,0,0,1-.06.11,1.05,1.05,0,0,0,0-.12h-.09v.06c-.1-.05-.06,0-.11-.07l-.22,0,.12-.1c.15,0,.21.09.27.08a.33.33,0,0,1,0,.06h.07s0,0,0-.05a3.19,3.19,0,0,0,.56.05Zm.12-.1-.06,0v-.11c.1,0,.06,0,.11.07h-.06m.93.26A1.15,1.15,0,0,0,196,26a.6.6,0,0,1,.25-.2,1,1,0,0,0,.13.29Zm.67,0-.23,0-.15-.18.18-.09c0,.06,0,.09,0,.22a.65.65,0,0,0,.14-.26H197v.05c0,.08.05.18-.07.22m1.22-.43h.11c-.06.09,0,.06-.11,0m1.7.25.18-.05c-.08.1-.1.05-.18.05M200,26v-.11c0,.06,0,0,0,.11Zm.68-.1c.12.07.09,0,.15.13a.47.47,0,0,1-.15-.13m1.34,0-.22,0c0-.11,0-.1,0-.17v-.05c.12.07.09.06.15.18h.11c0-.09,0-.05.06-.1s0,0-.16-.08v-.05H202l.06,0v.05l.16.07-.19.21m8.15,1.25c0-.11,0-.11.07-.16s.16.13.4,0h.05c-.1.17-.27.19-.52.17m.54-.34c.09.05.05,0,.1.07s-.05,0-.1-.07m1.71-.32c-.09,0-.05,0-.1-.07s0,0,.1.07m-.19.26c-.25-.05-.12-.05-.21-.13a.37.37,0,0,1,0-.11,1.16,1.16,0,0,1,.2.18c.12-.16.29-.15.42-.29,0,.05.06.13.1.18-.17.2-.31,0-.52.17m.58-.27c.1,0,.06,0,.11.06s-.05,0-.11-.06m.18,0c.09,0,.05,0,.1.07s-.05,0-.1-.07m2-4.93c-.09,0-.06,0-.11-.07a.23.23,0,0,1,.11.07m-1.34,4.72c-.1,0-.08,0-.17,0l.17,0m-.49.4c.09,0,0,0,.1.06s-.05,0-.1-.06m1-.12v.06c-.22,0-.05-.05-.22,0,0-.14,0,0,0-.17a.31.31,0,0,0-.24.15.65.65,0,0,1-.41-.27h-.06v-.11a3.15,3.15,0,0,1,.32.2.66.66,0,0,0,.36-.3c.11,0,.11,0,.16.08s0,0,.1.12h.06c-.07.11-.06.07-.13.15h-.06c-.11,0,.11.07.11.07m1.15-.32c-.08.12-.11.07-.19.2-.13-.09-.15-.08-.2-.25a1.45,1.45,0,0,0-.66.44h-.05c.07-.14.07-.14.19-.2s0-.14-.09-.23V26a.65.65,0,0,1,.21.19l.11,0c0-.13,0-.09-.1-.18.17-.05.16-.07.25-.2.19.1.22.29.42.21l.17,0c0,.09,0,.05-.07.11m1-.4c-.1-.05-.06,0-.11-.07a.23.23,0,0,1,.11.07m.38.09a.6.6,0,0,0-.3.14h-.11l.2-.32.22,0c-.09.13-.06,0,0,.16m.08.29.06-.1s0,0-.06.1m.14-.26c.09,0,.05,0,.1.06s-.05,0-.1-.06m.35-.19c-.1,0-.05,0-.11,0h-.06c.1-.15.1-.1.09-.27h.16a1.43,1.43,0,0,1-.08.22m.21.19h-.06a.77.77,0,0,0,.07-.16c.1.05.06,0,.11.07l-.12.1m.79-.09c.09.05,0,0,.1.07s-.05,0-.1-.07m11.72,7.73H230a1.36,1.36,0,0,0,0-.17h.11v.17m.13-.77c-.09,0-.05,0-.1-.07s0,0,.1.07m1.31.87c-.39,0-1.18-.16-1.27-.14h-.11c.13-.13.09-.18.13-.21.13-.23.24-.18.52-.17v-.05c-.27-.11-.35,0-.54-.23a.37.37,0,0,0,0-.11c.23.17.37.1.64.35V33c0-.08,0,0-.09-.18a.86.86,0,0,1,.44,0c0,.06,0,.11,0,.17l.11,0c-.11.15-.43.11-.52.17l-.06.05a1.16,1.16,0,0,1,.14.24c.26,0,.37-.09.51,0h.11l0,.17m.91.37.16.07c-.09.16-.08,0-.16-.07m1,1.29c.17.05.13,0,.21.13a1.07,1.07,0,0,1-.21-.13m.28-.53-.17,0,.09-.33a.6.6,0,0,0,.18-.09,2.56,2.56,0,0,0,.26.2v0l-.18,0c.08.14.16.17.31.25v.06a.72.72,0,0,1-.43-.16v-.11c0-.11-.07.11-.07.11m.46.94.07-.16a.52.52,0,0,1,.1.18c-.14,0,0,0-.17,0m.44.1c-.13,0-.16,0-.22-.08s0-.07.08-.21c0,.11,0,0,0,.16l.16.08Zm.32-.92c0-.05,0-.11,0-.16l.55.17a1.18,1.18,0,0,1-.56,0m9,2.24a1.59,1.59,0,0,1-.26-.14l.22,0,0,.12m-.37-.15V37l-.1-.06v0l-.17,0a2.77,2.77,0,0,0,.21-.31l.16,0c0,.15-.07,0,0,.17l-.12.1m-.39-.55.32.09V36.4l.16.13h-.06v0l-.11-.07v.06l-.34,0,0-.11m-.43-.15c-.1-.05-.06,0-.11-.07s.05,0,.11.07m-.21-.14.05.06v.06c-.29,0-.32,0-.32-.15Zm.07.4s0,.11-.08.16l-.22,0c.07-.12.11-.11.19-.21l.11.07m-.91.07c-.09,0-.05,0-.1-.06s0,0,.1.06m-2.76-2.41h0v.11h-.05a.37.37,0,0,1,0-.11m-2.8.54c.09.05.05,0,.1.07s0,0-.1-.07m.86.87c.09,0,0,0,.1.07s-.05,0-.1-.07m.53.23c.09,0,.06,0,.11.07s-.06,0-.11-.07m.08-.22-.34,0c-.35-.13-.55-.1-.8-.36h-.11V35.2c.17.06.39.19.53.23s.27-.09.51,0a5.64,5.64,0,0,0,.74.36,14.54,14.54,0,0,1,1.87.31,5.39,5.39,0,0,0,1.2.3l0,.06c0,.07,0,.14,0,.22l.22,0v.06l-.06,0c-.54-.15-1.65-.45-2.22-.69s-1,0-1.37-.25l-.2-.25m2.83,2.93c-.11.05-.14.05-.23,0l.23,0M239.31,38h-.05l-.07.05s0-.07,0-.11,0,0,.1.07m-.37.85c.09.05.05,0,.11.07-.1,0-.06,0-.11-.07m.59.23a.63.63,0,0,1-.37-.2c.13,0,.25.1.38.15v.05m.92.27c-.11,0-.1,0-.16-.08l-.16-.07a.63.63,0,0,1,.14-.26c.06.09,0,.1-.07.16l.1.12c.07,0,0,0,.12-.05l.11,0-.08.16m0-.34c.1,0,.06,0,.11.07s0,0-.11-.07m1-.57a.79.79,0,0,0,.27.08.35.35,0,0,1-.28,0l-.12,0,.13-.15m.49,1.22a.88.88,0,0,1-.6-.17l.61.06v.11m.21.08H242V39.6h.11s0,.08,0,.11m0-2.85c-.38,0-.28-.06-.36-.32.13.06.42.12.55.17-.1.08-.11,0-.19.15m.59,1.85c-.2,0-.1.06-.22-.07l.23,0v0m0-.22c.05,0,.18-.06.23-.09s0,0,0,.12l-.27,0m-.14-1.36c-.15-.07-.1-.1-.32-.15.06-.13.09-.06.2-.25a.86.86,0,0,1,.31.25h.05c-.06-.14,0,0-.1-.12v-.06l.38,0c-.09.2-.34.12-.53.28m.56,0c-.09,0-.05,0-.1-.06s0,0,.1.06M243,38.87l.17,0c-.1,0-.08,0-.17,0m.13-.21H243l0-.11c.13.05,0,0,.16,0a.61.61,0,0,1-.07.1m.13-.1h.11c-.06.1,0,.06-.11,0m.36.82h-.11a.41.41,0,0,1,0-.11h.11v.11m-.06-.51c.09.05,0,0,.1.07s-.05,0-.1-.07M243.21,37c.28.13.64.12.81.31-.27-.06-.84-.12-.81-.31m1-.39c-.1,0-.06,0-.11-.07a.23.23,0,0,1,.11.07m-.16,3.56c.1,0,.06,0,.11.07s0,0-.11-.07m.3-2.77c-.13-.06-.09,0-.16-.12.14,0,0,0,.17,0v.11m.46-1.23.5,0a.38.38,0,0,1-.5,0m.56,2.12a.79.79,0,0,1-.26-.13l.22,0,0,.06v0m.24-.7c.09,0,.06,0,.11.07s-.06,0-.11-.07"/></svg>