<svg id="圖層_1" data-name="圖層 1" xmlns="http://www.w3.org/2000/svg" viewBox="0 0 277.41 106.08"><title>pic</title><path d="M276.81,75.8c-.18,0,.08-.55.08-.55s-.17-.54-.23-.75a3.56,3.56,0,0,0-.18-.5.49.49,0,0,1-.41.16c-.22,0-.95-.4-1.14-.41s0-.45,0-.45l-.05-.78.41-.17-.32-.29-.2-.59.2-.39-.16-.41-.5-.27-.23-1.28a.84.84,0,0,1-.35-.47c-.08-.31-.2-.48.05-.72a2.24,2.24,0,0,1,.55-.37l-.18-.49-.41.16s.57-.59.35-.51a7.46,7.46,0,0,0-1,.81.88.88,0,0,1-.46-.1,7.62,7.62,0,0,1-.64-.59c-.26-.21-.06-.54-.48-.71a3,3,0,0,0-.75-.22s.31-.13.09-.46-.46-1.18-.85-1.26a6,6,0,0,0-1.38-.28,10.22,10.22,0,0,1-2-.17c-.32-.11-.7-.25-.95-.36s-.52-.17-.42-.37.05-.39.28-.41.74.15,1,0a3.68,3.68,0,0,1,1.08-.37,5.39,5.39,0,0,1,1.46-.26,3.19,3.19,0,0,0,1.39-.17,6.09,6.09,0,0,1,1.25-.4c.19,0,.85-.69.85-.69a.78.78,0,0,1-.42-.37c-.14-.28-.31-.74-.31-.74a.73.73,0,0,1-.51.1.4.4,0,0,1-.24-.32l.16-.11a3,3,0,0,1-.95.17c-.42,0-1.66.12-1.66.12s1.9-.37,2.05-.46.07-.54.07-.54l-.61,0s-.06-.15.22-.22a1.88,1.88,0,0,0,.5-.18,7.86,7.86,0,0,0-.89,0c-.22,0,.2-.39.2-.39l.31-.24a.63.63,0,0,1-.36,0,2,2,0,0,0-.46-.09L269.5,57h-.45s-.1-.33,0-.45a1.56,1.56,0,0,1,.59-.19s-.59,0-.67-.24.46-.43.46-.43l-.84-.21a4,4,0,0,1-.87-.37s-.23-.42-.1-.6.69,0,.78-.06a2.88,2.88,0,0,0,.27-.49l-.18-.5.41-.16s-.4-.27-.5-.35.44-.15.58-.2.1-.46.1-.46a2.86,2.86,0,0,1,.6-.11.94.94,0,0,0,.49-.17s-.55,0-1.06,0-.53,0-.53,0l.2-.39.7,0,.36,0,0-.17-.63-.06a1.9,1.9,0,0,1,.88-.52,6.16,6.16,0,0,1,1.37-.25c.28,0,.55-.21.81-.32a2.37,2.37,0,0,1-.68,0,.31.31,0,0,1-.24-.32,4.61,4.61,0,0,0,1.2-.21c.25-.15-.08-.34.25-.58s.28-.41.28-.41-.65.08-1,.09a.61.61,0,0,1-.49-.27s1.08-.09,1.3-.14,0-.53,0-.53.47-.34.35-.51-.43-.24-.55-.08a1,1,0,0,1-.76.23,17.5,17.5,0,0,1-2.35-.28c-.53-.17-.58-.25-.58-.25s1.94-.2,2.45-.18,1.19-.34,1.65-.21a.67.67,0,0,0,.68-.13l-.42-.36.62,0,.11-.37a1.7,1.7,0,0,0,.64-.38.52.52,0,0,0,.16-.57s.17-.33.27-.49-.2.16-.69.13-1.31-.12-1.71-.14-.36,0-.36,0a6.42,6.42,0,0,1-1.21.13,4.5,4.5,0,0,0-1,0c-.57.05-2.55.11-2.55.11s1.55-.8,2-1a20.79,20.79,0,0,1,2.59-.38,4.74,4.74,0,0,0,1.91-1.14c.27-.26.29-.32.66-.3a4.46,4.46,0,0,0,.7,0l.1-.46s1.18,0,.78-.05a5.3,5.3,0,0,0-1.71-.14c-.35.09-.44,0-.44,0l-.09-.51.5-.62s-.3.06-.37-.11.59-.64.59-.64a1.54,1.54,0,0,1-.61,0c-.21-.07-.19-.05-.19-.05l-.08-.43-.38-.64a.61.61,0,0,1,.11-.38c.13-.18.12-.57.22-.74s.46-.36.46-.36l-.24-.84a2.63,2.63,0,0,0,.38-.86c0-.38-.07-.35-.07-.35l-.24-.39s.4-.74.21-.75a2.21,2.21,0,0,1-.46-.1v-.53s.74-.14.48-.26-.36-.22-.34-.38a1.73,1.73,0,0,1,.35-.51l-.21-.67-.35,0a1.49,1.49,0,0,0-.2-.58c-.14-.16-.12-.47-.35-.47s-.26.05-.26.05l-1,.09s.23-.44-.06-.35-.26.05-.26.05-1.87.63-2.49.9-1.67.68-2.22.93a25,25,0,0,0-2.8,1.66,1.8,1.8,0,0,1-1,.45,5.09,5.09,0,0,0-1.53.81,14,14,0,0,1-1.61.91,12.09,12.09,0,0,0-1.3,1.12c-.42.3-.51,0-1,.45a11.59,11.59,0,0,1-2.05,1.43c-.57.28-1.61.73-2.13.92s-1.75.47-2.27.68-1.15.13-1.46.26-1.06.55-1.47.71-1.79.61-1.92.62a6.17,6.17,0,0,1-.95-.36s0-.73-.3-.65a13.2,13.2,0,0,0-1.42,0,2.94,2.94,0,0,1-1,.19c-.16-.07-.29-.16-.6.11a6.44,6.44,0,0,1-1.43.88,1.38,1.38,0,0,0-.56.36s-.75-.48-1.28-.74-1.59-1-1.67-.85.37.56.37.56l.48.71a1.2,1.2,0,0,1-.84.24c-.43-.08-1.21.39-1.34.42s.09.51.09.51a3.3,3.3,0,0,1-.92.26,8.49,8.49,0,0,0-1.45-.18c-.52,0-3.25-.33-4.34-.45a10,10,0,0,1-2.33-.64s.15-.6.33-.59-.06-.29-.71-.5-2.29-.53-3-.78-5.26-1.69-5.7-2.07-1.44-.22-1.91-.27a5.62,5.62,0,0,1-1.44-.63,5.63,5.63,0,0,0-1.54-.69c-.59-.09-1-.25-1.48-.35s-1.14-.33-1-.62a2,2,0,0,1,1.34-1.39c1-.22,2.71-.52,4.46-.81s5.36-.71,6.49-.83a8.88,8.88,0,0,0,2.51-.81s-2.26,0-2.47,0,.74-.56,1.24-.5a8.65,8.65,0,0,0,1.24,0,3,3,0,0,1-.68-.32c-.1-.11.2-.39.2-.39a.88.88,0,0,0-.49-.26c-.25,0-.52-.44-.52-.44s.6-.56.79-.5a3.64,3.64,0,0,0,.46.1l-.19-.59-.65-.15s.1-.54-.09-.51a1.75,1.75,0,0,1-.67-.23s-.2-.56.17-.57l-.93.26a4.18,4.18,0,0,1-1.54-.16,9.45,9.45,0,0,0-1.82-.29c-.46,0-.48-.18-.48-.18s.36-.36-.22-.23-.94,0-1.21.13a1.61,1.61,0,0,1-1,.09c-.26-.05-.83-.45-1.16-.5a.49.49,0,0,1-.4-.28.8.8,0,0,1,.47-.35,4.61,4.61,0,0,1,.6-.11s-.38-.07-.65-.15-.3-.34-.58-.25-.62.44-.92.26-.75-.19-1.06-.43-.45-.57-.36-.55a6,6,0,0,1,.64.15c.2.06.1-.41-.61-.42s-.67-.41-1.05-.43-1.35-.2-2-.26a6.33,6.33,0,0,0-.72-.05l-1.23-.4s1.24-.27.66-.29a10.91,10.91,0,0,1-1.69-.05,16.37,16.37,0,0,0-2.41-.54c-.87,0-5.42-.8-6.07-.75a9.07,9.07,0,0,1-2.14-.06c-.66-.13-1.7-.78-2-.79s-1.07-.61-1.66-.85-1.46-.14-1.89-.63-.87-.94-1.14-.94-1.89-.82-2.3-.91a3.3,3.3,0,0,0-.46-.1,5.83,5.83,0,0,0-1.42-.54A9.45,9.45,0,0,1,182.9,16a4.28,4.28,0,0,0-1.05-.43A18,18,0,0,0,179.9,15a17.54,17.54,0,0,1-2.32-.55c-.58-.22-2.85-.68-3-.79s-.9-.54-.9-.54.09-.3-1.27-.66-.66-.59-2.12-.94-5.74-1.34-6.57-1.56-2.34-1.06-3.06-1.21a1.59,1.59,0,0,1-1-.62s.51-.87,0-1a27.68,27.68,0,0,1-3.44-.44c-.86-.3-3.6-.6-4-.77s-1-.79-1.65-.77S144.32,4,142.89,4a23.28,23.28,0,0,0-3.06.2c-.16,0-1.43-.54-1.43-.54a.78.78,0,0,0-.3-1.18c-.82-.45-1.54.08-2,.18a2.49,2.49,0,0,1-.51.1,2.59,2.59,0,0,0-1.29-.3c-1-.07-4.5-.59-5.53-.68a12.71,12.71,0,0,0-4.38-.18,6.39,6.39,0,0,1-3.16.13c-.42-.15-1.44-.5-1.56-.78s-.63-.38-1-.44a4.41,4.41,0,0,0-1.32.06,1.07,1.07,0,0,1-.65-.15A1.57,1.57,0,0,0,115.59,0a3.81,3.81,0,0,1-1.31.15,2.42,2.42,0,0,0-1.24,0,22,22,0,0,1-3.72.5c-.57-.08-3-.62-3.88-.36A25.67,25.67,0,0,1,102,.52c-.8.11-5.66.29-6.59.32S93.8.36,93.14.37a11.34,11.34,0,0,0-2.51.81c-.54.18-7.06.8-8.67,1a38.88,38.88,0,0,0-4.87,1c-.8.29-3.43,1.07-4.35,1.41s-1.79.76-2.57,1a23.58,23.58,0,0,0-2.7.75C67,6.61,63.75,8.9,62.58,9.2s-2.14.83-3.25,1.12-4.78,1.38-4.47,1.26-8.35,3-9,3.31-4,1.78-6,2.77-6.9,3.45-7.71,3.88-4.55,2.8-5.83,3.54S22,28.16,21.75,28.32s-2.29,1.8-2.55,2.06-1.73,1.3-2,1.6S14.64,34,14.64,34l-.3-1.18-.13-.69a7.11,7.11,0,0,1-.71,1.46,14,14,0,0,0-1.07,1.43c-.08.26.25.4.25.4s-1.11.88-1.7,1.37A19.56,19.56,0,0,0,8.62,39a21.27,21.27,0,0,0-2.54,3.56c-.19.53-.7,1.54-.7,1.54l-.56.81s-.57-.31-.87.08a6.41,6.41,0,0,0-.63,1.44s-1.43,1.76-1.59,2a8.5,8.5,0,0,1-1.09.82,8.07,8.07,0,0,0-.57,1.7,4.41,4.41,0,0,0,0,1.76c.23.52.3-.32.3-.32a3.79,3.79,0,0,0,.71,1c.27.14.38-.86.38-.86s.08.63.11,1.13a6.19,6.19,0,0,0,.22,2.18c.31.47,2.83,5.22,3.51,5.65a11.39,11.39,0,0,1,1.57,1.31,1.49,1.49,0,0,0,.56,1.14c.59.47,1,.87,1,.87s5.85,4.81,7.35,5.84a45.71,45.71,0,0,1,5.31,5.33c.71.82.64,1.31,1.41,1.42a11,11,0,0,1,2.36.82c.66.27,3.11.86,3.78,1.26s2,1.58,2.87,2.14A21.9,21.9,0,0,0,37.55,84c1.78.26,4.14-.19,4.94-.1s1.85,1,2.35.72,1.68-1.47,2.2-1.55,7.69-1.57,7.69-1.57A4.61,4.61,0,0,0,57,81.11c.71-.48,1.26-.35,1.65-.65s1.33-.55,1.4-1,.22-1.29.32-1.66A6.72,6.72,0,0,1,60.81,76a1.07,1.07,0,0,0,.22-.75s.32.39.66.24a2.33,2.33,0,0,1,1.06,0,1.85,1.85,0,0,0-.22,1.2.9.9,0,0,1,.32-.15c.18,0,.21-.42.45-.44s.61.83.84,1.18a11.21,11.21,0,0,0,1.22,1.81,1.53,1.53,0,0,1,.45.54L65,81.87a1.25,1.25,0,0,0-.49.71,10,10,0,0,1-.56,1.78,9.79,9.79,0,0,0-.81,2.37c0,.64-.24,3.45-.29,3.77s-.31.28-.2.39l.42.37a1.67,1.67,0,0,0-.11.82c.08.34.28.59.08,1s-.68,1-.53,1.42.45.67.7.49,1.34-.51,1.73-.75,1.69-.79,1.79-.86,1.09-.73,1.35-.86.47-.11.55-.37a7.59,7.59,0,0,0,.21,1.11A6.7,6.7,0,0,1,69,94.44a6.22,6.22,0,0,0-.88,1.49c-.11.49.39.54.55.61s-.37.24-.11.37a1.33,1.33,0,0,1,.49.71,5.94,5.94,0,0,0,.46,1.6c.24.31.43,1,.75,1.19s-.12.29,0,.36.74.72,1,.89a3.28,3.28,0,0,1,.45.54s.09-.68.61-.55a6,6,0,0,1,1.43.53,6.29,6.29,0,0,0,1.31.39,1.84,1.84,0,0,0,.85-.16,8.69,8.69,0,0,1,2,.07,9.18,9.18,0,0,0,2.11-.12,14.06,14.06,0,0,1,2.22,0c.41,0,1.08-.27,1.41-.08s.65-.23,1-.27a3.48,3.48,0,0,1,1.19.23c.4.11,4,1.12,4.65,1.19s1.44.52,1.84.38a4.23,4.23,0,0,0,.66-.3s.43.65.92.72.91-.37,1.45-.35.9.42,1.42.53,2-.15,2.67,0a11.85,11.85,0,0,0,3.67.22,10.08,10.08,0,0,1,3.12-.39c1,.18,4.51,1.46,5,1.4s1-.2,1.15,0,.19,0,.53,0,.71.25,1.12.32a7.49,7.49,0,0,0,1.15,0c.46,0,1.27,0,1.52.08s1.5-.14,2.09-.2a7.81,7.81,0,0,1,1.52.08,1,1,0,0,1,.93-.26,6.45,6.45,0,0,0,1.36.19c.21,0,1-.12,1.32-.06a10.19,10.19,0,0,0,2.68-.4A13.93,13.93,0,0,1,128,105l-.55-.08s0-.32.21-.3.53,0,.53,0l.24-.13a.63.63,0,0,0,.39.19c.25,0,1.26-.41,1.86-.51s4.17-.81,4.27-.87-.08-.15-.28-.12.68-.41.88-.52a20,20,0,0,1,2.54-.64,9.36,9.36,0,0,0,1.5,0c.42-.09,2-.33,2.51-.37s2.13-.13,2.63-.12,1.78.56,5.78-.88a47.53,47.53,0,0,1,7.78-2,12.5,12.5,0,0,0,1.53.61c.4.08,1.13-.46,1.34-.42a2.8,2.8,0,0,1,.74.13,1.79,1.79,0,0,0,1.14,0c.16-.13.15-.65.15-.65s.43-.53.8-.5a12.61,12.61,0,0,1,1.57-.11,18,18,0,0,0,3.74-.41,15.36,15.36,0,0,1,3-.8c.67,0,2,.31,2.62-.21a2,2,0,0,1-.46-.1c-.34-.1.2-.23.76-.23a38.81,38.81,0,0,0,6.78-.7,21.1,21.1,0,0,0,3.29-1.39c.81-.33,1.44-.66,1.14-.56s-.74,0-.87.07a3.47,3.47,0,0,1,1.39-.61,6.25,6.25,0,0,0,1.9-.79c.46-.27.52-.54.52-.54a5.24,5.24,0,0,0-.7,0c-.17.05,3.51-1.48,4.2-1.74a20,20,0,0,0,2.3-1,31.26,31.26,0,0,0,3.37-1.41c.76-.56,3.6-1.3,4.21-1.74s.85-.34,1.1-.74a1.93,1.93,0,0,1,1-.8c.57-.27,2.61-1.68,3.42-2.13a23.25,23.25,0,0,0,2.32-1.39c.53-.41.53-.8.8-1s1-.61,1.44-.88,1.05-.33,1.19-.75,1.28-.72,1.85-1,1.86-.59,2.41-.88,1-.8,1.45-.8a5,5,0,0,1,.71.05.67.67,0,0,1,.29-.41,10,10,0,0,1,1.17-.39c.33-.08,1.68-.81,2.29-1a6.13,6.13,0,0,1,1.37-.25,5.39,5.39,0,0,1,1.32-.07.85.85,0,0,1,.56.17c.13.11.07-.39-.34-.38s-1.55.13-2.09.2-.54-.08-.54-.08a7.46,7.46,0,0,0,.71-.48,2.86,2.86,0,0,1,1-.36c.35-.07.83-.34,1.34-.42s1.07-.37.82-.33a9.08,9.08,0,0,1-1.14,0c-.16,0,.64-.33,0-.27s-1.7,0-1.95,0,.88-.62,1.29-.68,2.14-.77,1.66-.65-1.66.46-2.12.56a4,4,0,0,1-.87.07s-.13-.2-.65-.15-1.38.43-2,.46-.34-.28-.73-.13A2.33,2.33,0,0,0,221,71a12.52,12.52,0,0,1-3.28,1,19.51,19.51,0,0,1-2.67.4c-.53-.07-.35-.57.36-.95a6.07,6.07,0,0,1,2.48-.46c.65,0,1.14,0,1.16-.47a2,2,0,0,1,1.05-.55,5,5,0,0,1,1.89-.34c.6,0,1,0,1.27-.32s1.48-.46,1.67-.57.32-.68.32-.68a11.19,11.19,0,0,1,1.56-.19,1.14,1.14,0,0,0,1-.55l.94-.17a1.47,1.47,0,0,1,.08-.54c.11-.3.76-.34.9-.43a13,13,0,0,1,2.07-.29,10,10,0,0,1,3.35-.08c1.35.28,5.46,1.33,6.73,1.43s2.75,1.27,4.54,1.57,4,.76,5.06,1.48A44.85,44.85,0,0,1,258.07,75c4.38,3.73,6.43,4.51,7,4.76a13.06,13.06,0,0,0,4.76,1.79,43.48,43.48,0,0,0,4.59.41.89.89,0,0,0,.67-.74,8.74,8.74,0,0,0,.11-1.35l-.8-.48a.69.69,0,0,1-.13-.68,1.36,1.36,0,0,1,.54-.46c.22-.06.52,0,.59-.19a1.59,1.59,0,0,1,.19-.39l-.25-.4.11-.37-.23-.31.63.06.3-.32a2.87,2.87,0,0,0,.68-.13,2.15,2.15,0,0,0,.61-.55,1.93,1.93,0,0,1-.6.11m-2-30.73s0,0,0,.08l-.09,0c-.11.08-.1,0-.27,0ZM214.16,31.89l.1.07,0,.09c-.34.05-.37.07-.55-.08l.43-.08m-3.1,2c0,.16,0,.09-.05.19l-.07.1s0,0,0-.08c-.19,0,0,0-.12-.16ZM13.05,38l-.07.11S13,38,13,38l-.17,0-.06-.34.34-.06c0,.2,0,.24,0,.35m.11-.37c.11-.14.09-.07.12-.29.24,0,.21,0,.52-.09L13.75,37l.17,0a1.21,1.21,0,0,0,.22.23l0,.17-.43.08c0,.18,0,.16,0,.27a.87.87,0,0,1-.35,0c-.16,0-.09,0-.19-.06m.36,1a2,2,0,0,1,.06-.63l.17,0a.6.6,0,0,1-.09.46c.15.18,0,.06.2.14,0,0,0,0,0,.08Zm.61,0,0-.28c.08.08.07.07.13.24l-.17,0M19.05,33a1.16,1.16,0,0,0,0,.18l-.26,0,0-.17Zm-3.27,6.36c-.08-.08-.07-.07-.13-.24l.18,0a.36.36,0,0,1-.07.1l0,.09m-.16-2.81c-.3,0-.65.16-.87.07,0,0-.34,0-.19-.05l.07-.1-.1-.07a1.21,1.21,0,0,0,.88-.52h.09c-.11-.17-.1-.12-.22-.23l.62,0c.08.13,0,.08.11.15a6.31,6.31,0,0,1-.39.78m.66-.29-.17,0,0-.17a1.1,1.1,0,0,1,.48-.27,2.69,2.69,0,0,0-.11-.6l.28-.41h.09a2.43,2.43,0,0,0-.14.2s0,.06,0,.09c.39-.11.37-.14.45-.44l.18,0c-.1.29-.17.39.1.6a1,1,0,0,0,0,.17c-.27,0-.25,0-.39-.19a.36.36,0,0,0-.07.1c-.42.26-.19.49-.39.78-.14.1-.2,0-.33.15M17.39,36c-.13.15-.14,0-.24.14a.58.58,0,0,1-.27,0h-.09a1,1,0,0,1,.49-.26c-.16-.27-.11-.1-.15-.33.19.09.2.08.32.3s.06,0-.06.18m.24-2.08.19.06s0,0,0,.08l-.17,0a1.36,1.36,0,0,0,0-.17m.07,3.8,0-.17.26,0,.1.07s0,.06,0,.09l-.35.06m1-4.53c-.16,0-.09,0-.18-.06.15,0,.08,0,.18.06m-.08,3.47c.16,0,.09,0,.19,0-.16,0-.09,0-.19,0m0-1.25.26,0,.1.07,0,.18a.49.49,0,0,1-.39-.2m.49.27.35-.07s0,.06,0,.09a1.06,1.06,0,0,1-.32.15,1.36,1.36,0,0,1,0-.17m1.37,3.12c-.31-.07-.18,0-.22-.23l.26-.05-.07.1,0,.18M20.06,37c-.4.06-.51,0-.73-.13l-.09,0a.71.71,0,0,1,.13-.29c.18,0,.16,0,.27,0l.34-.06-.14.2,0,.17a1.61,1.61,0,0,0,.56-.37l.17,0s0,.06,0,.09a4.72,4.72,0,0,0-.55.36m1-.52c.12,0,.06,0,.1.06s0,.31-.06.19c-.18-.05,0-.16,0-.25m0,4s0-.06,0-.09h.44L21,40.5m3.34,27.13-.26.05v-.09Zm-.49,8.06H24l.05.25c-.09-.08-.07-.07-.14-.24m-.14-1.75a2.51,2.51,0,0,0,0-.27A1.5,1.5,0,0,1,24,74l-.28,0m.36-.5.27,0s0,0,0,.08c-.31,0-.21.09-.28-.12m1.88.63c.16,0,.09,0,.19.05-.16,0-.09,0-.19-.05m.57,1.67.2.14c.31.1.65-.12,1.27.12v.09c-.58.16-1.39.14-1.48-.35m.18-1.45.17,0,0,.17c-.24,0-.13.08-.2-.14M27.55,29,27.37,29l-.49-.26c.08-.08.27,0,.27,0a1,1,0,0,0,.59-.64c.28,0,.19,0,.38.11a.78.78,0,0,1-.57.81m.59-1.17c.16,0,.09,0,.19.05-.16,0-.09,0-.19-.05m.45,47.32s0,0,0-.08a2.09,2.09,0,0,1,.81,0l0,.26c.17-.07.16-.06.24-.14h.09a.77.77,0,0,0,.06.34c-.29.08-.35.1-.48.27h-.09c0-.31,0-.29.1-.46,0,0,0-.06,0-.08a.88.88,0,0,0-.51.09,1.21,1.21,0,0,0-.22-.23m.62,1.48a1.44,1.44,0,0,1-.37-.1l.34-.07,0,.17m-.43.53a.85.85,0,0,0,0-.17l.6-.11a.69.69,0,0,0,.5.26c-.33.34-.6.07-1.06,0m1.63-1.27h.53c-.11.26,0,.26-.1.46s-.35-.07-.63-.06c.05-.22.11-.22.2-.39m.28,1.1c-.07-.33-.06-.15,0-.45.21,0,.21.11.39.2l0,.17-.43.08m.89,0s0-.06,0-.09l.14-.2c.17-.06.16,0,.24-.13.24.09.1,0,.22.23.2-.19.09,0,0-.28l.29.13a6.31,6.31,0,0,1-.61.55c-.15-.22,0-.16-.31-.21m.8,1.45h.08a2.21,2.21,0,0,1,0,.25c-.08-.08-.07-.07-.13-.24m.15-1.09-.11-.16h.08c0-.11.65.17.92.19,0,.08,0,.17,0,.25-.43,0-.58-.17-.94-.27m3.61,1.82a10.91,10.91,0,0,1,1.19-.3l.06.34c-.24.14-.24.13-.28.41l-.24.13a.83.83,0,0,0-.69-.4c0-.06,0-.12,0-.18M36,79.07c.16,0,.08,0,.18.05-.15,0-.08,0-.18-.05m.29.65.26,0c0,.16,0,.08,0,.18s0,.06,0,.09c-.23-.09-.09,0-.22-.23m.15.33.36,0c-.09.09-.13.1-.33.15l0-.17m.52.44c-.23-.09-.09,0-.21-.23a1.06,1.06,0,0,0,.32-.15l.12.16c-.24,0-.15-.09-.23.22m.09,0,.43-.08,0,.18c-.31,0-.29,0-.46-.1M37.33,78c-.48.14-.75.35-.83.77-.39,0-.41-.12-.65-.15a.61.61,0,0,0-.07.1s0,.06,0,.09a1.42,1.42,0,0,1-.8,0c-.3-.09-.21-.23-.58-.25.13-.22.28-.21.1-.46,0-.16,0-.09.05-.19.15.09.18,0,.39.19l.17,0c-.15-.19,0-.07-.2-.14a.19.19,0,0,0,0-.08,6.63,6.63,0,0,0,2.61-.3c.13-.42.45-.61.62-1,.27,0,.21,0,.37.11l.34-.06c-.09.34-.49.47-.76.67.13.36.26.47.54.52s.11,0,.24-.13l.26,0c-.19.6-1.41.65-1.79.42m1.65.76c.15,0,.08,0,.18.06-.16,0-.08,0-.18-.06m.76-1.64,0,.35c-.58.07-.44-.15-.35-.46.18,0,.16,0,.27,0l.17,0-.07.11M62.48,13c-.16,0-.09,0-.19,0,.16,0,.09,0,.19,0m-1.2,56.75c0,.18.09.06-.06.19.12.18.14.11.39.19,0,.33,0,.28-.28.41-.07.09,0,0-.15.12l-.11-.07a1.27,1.27,0,0,1,.21-.84m-.84,2.72,0,.18a2.26,2.26,0,0,1-.37-.11Zm-.73-.13c0,.09,0,.17,0,.26s-.09,0-.14-.24l.09,0m-.47.35.28,0a1.72,1.72,0,0,1-.11.38l-.52.09s0-.06,0-.09a.92.92,0,0,0,.36-.42m-4.58.13,0,.17c-.14.08-.08,0-.16.12h-.08c0-.2,0-.14.12-.29h.09m-2.49-1.5c-.13.1-.1.09-.26.05l.26-.05m-1.71.84c.32,0,.15-.08.22.23a1.21,1.21,0,0,0,.23-.22c.3,0,.32.09.56.16a1,1,0,0,0,.15.33.61.61,0,0,0-.07.1c-.32-.09-.12-.14-.38-.11l-.05-.25c-.34.08-.59.33-.65.29a1.29,1.29,0,0,1-.36,0l-.1-.07c.28-.34.46-.18.45-.44m.59,3.26-.08,0,0-.17.08,0,0,.17m-.9-.1.26,0c-.14.11-.1.1-.26,0m.24.84c-.16,0-.09,0-.19,0,.16,0,.09,0,.19,0m-.36-1-.08,0c0-.26-.07-.44,0-.7.32.12.27.26.69.4-.22.17-.39,0-.57.28m.24-.66.34-.06a.19.19,0,0,0,0,.08l-.33.15,0-.17M50.7,76s0,.06,0,.08c-.22,0-.15,0-.29-.12l.27,0m-1.07-3,.43-.07s0,0,0,.08l-.48.27,0,.17c.17-.07.16,0,.24-.13l.17,0a1.26,1.26,0,0,1,0,.36,3.87,3.87,0,0,0-.69.13l-.11-.16-.1-.07c.17-.14.44-.31.52-.54m-.21,1.81s-.08,0-.13-.24h.09c0,.08,0,.17,0,.25m-2.16-.67a2.38,2.38,0,0,1,.05.26c-.31-.07-.18,0-.22-.23l.17,0m-2,2.84a3,3,0,0,0,.7,0L46,77c-.22.12-.21.12-.3.32l-.69.12a1.55,1.55,0,0,1,.27-.49M44,76.11c-.19,0-.06.14-.28,0,.09,0,.3-.12.28,0m-.67-.23.26,0c0,.12,0,.24,0,.36l-.26,0a2.38,2.38,0,0,0-.05-.26.61.61,0,0,0,.07-.1m-1,1.08s0-.06,0-.09l.19,0c0-.2,0-.41,0-.61a2.9,2.9,0,0,1,.52.44l.09,0c-.07.3-.09.27-.47.35a2.65,2.65,0,0,0,.07.87c-.14.09-.08,0-.16.12l-.43.08c.14-.35.09-.18-.09-.52l.55-.36c-.1-.26-.05-.21-.23-.31m.65,1.12-.35.06s0-.06,0-.08.08,0,.15-.12l.19,0,0,.09m-1.53-3.53c.08.08.07.07.13.24a1.28,1.28,0,0,0-.33.15s0-.06,0-.09l-.1-.07c.21-.12.2,0,.31-.23m-.54,3.37c-.26-.1-.08,0-.13-.24a1,1,0,0,1-.33.15c0-.26,0-.3.09-.46l0-.17.43-.08a6.87,6.87,0,0,0,0,.8m6,1.84-.17,0a.51.51,0,0,0,.28,0s0,0,0,.08a1.34,1.34,0,0,0-.78.59c-.18.16-.08.07,0,.44-.43-.06-.63.17-1.13.12-.31,0-.79-.22-1.1-.24l-.93.25c-.09,0-.17-.29-.24-.31-.38-.14-.81.35-1.3.15s0-.21-.4-.28c0,0,0-.06,0-.09a18.28,18.28,0,0,0,2.82-.07l.21-.3c.24.16.61.13.85.29l.09,0,0,.19.08,0c.17.07.17,0,.36,0a5.42,5.42,0,0,1,.89-1l0-.17a.78.78,0,0,0-.38.33l-.09,0c0-.16,0-.09.05-.19s.11-.15.21-.3c.33,0,.27.08.45,0h.09l-.06.18c.14-.08.08,0,.16-.11l.34-.06a.31.31,0,0,0,0,.08,3.46,3.46,0,0,0-.22.31m-1.57.1a.25.25,0,0,1-.34.07l.34-.07m-.15-.32.26-.05c-.14.1-.1.1-.26.05m.28.57.17,0,0,.18c-.24,0-.12.07-.2-.14m2-2.86.17.42c-.28.12-.27.19-.47.35l.2.14a.86.86,0,0,0-.07.1c-.17.1-.36,0-.56-.17a.63.63,0,0,0-.11.38c-.33.1-.72.32-1,.19s0,0-.06-.35c-.2,0-.25,0-.36,0-.19.16-.1,0-.12.29A21.83,21.83,0,0,0,42.39,80c-.1,0,0,0-.19,0,.1-.26.32-.61.19-.92-.18-.15-.23-.06-.15-.33s.57-.11.78-.59l.26,0,0,.17c-.28.19-.5.42-.78.58,0,.21,0,.25,0,.36l0,.17a2.81,2.81,0,0,0,.73-.84c.31,0,.29,0,.46.09.05-.1,0-.08,0-.27.54-.14.59,0,1-.53a1.08,1.08,0,0,0,1.23,0l.17,0a.71.71,0,0,0-.44,0c.32-.34.93-.45,1.17-.84l.18,0a.61.61,0,0,0-.07.1c-.08.23.05,0-.14.2l0,.18.07-.11c.43-.12.62-.84.74-1.28l-.19-.06s0,.06,0,.09c-.24-.09-.15,0-.24-.31l-.41.16a1.38,1.38,0,0,1-.14-.77,3.34,3.34,0,0,0,.78.39l0-.27a1,1,0,0,0-.36,0l0-.17a3.5,3.5,0,0,1,1.21-.13c.19-.17.11,0,.13-.29a.66.66,0,0,1,.34-.06l.07-.1c.12.58.25,1.37.25,1.37a2.71,2.71,0,0,1-.23.66c-.34.15-.85.3-.91.34-.36.17-.25.34-.53.54M48.6,79l-.09,0,.14-.21c-.18,0-.07,0-.25,0a1.32,1.32,0,0,1,.1-.38l.18,0c0,.25,0,.14,0,.26l0,.17c-.13.08-.08,0-.15.12m.65-.3c-.21,0-.15-.09-.32-.29.19,0,.17,0,.28,0l.1.08h-.09l0,.17m.9-.43-.52.1s0-.06,0-.09c.26-.12.81-.1,1.08-.37l.21.14s0,.06,0,.08c-.42.1-.61.22-.77.14m1.5-.53c-.08.08,0,0-.16.11-.17-.14-.11-.15-.22-.22s-.17.08-.31.23l-.07.1c-.07-.33,0-.21,0-.61a1.2,1.2,0,0,1-.62,0l-.08,0c.15.18,0,.06.2.14-.07.2-.1.15-.21.3a3.82,3.82,0,0,1-.35-.47,1,1,0,0,0-.76.23l-.26,0v-.08c.45-.24.28-.56.75-.76l-.14-.24a.55.55,0,0,0-.43.08c.16-.46.47-.59.4-1.23.16,0,.09,0,.19.06.31,0,.21-.09.37.11l.09,0a1.3,1.3,0,0,1-.44.52c.14.38.3.43.63.51,0,0,0,.06,0,.09a1.43,1.43,0,0,1-.5.18c.17.21.26.11.42.36.26,0,.25,0,.35-.06l.17,0a1.21,1.21,0,0,0-.22-.23c.06-.07.17-.14.23-.21.3.19.32.5.58.77.09-.13.31,0,.46.1h-.08l.11.16-.08,0m0-.71a.45.45,0,0,1,0-.44.61.61,0,0,1,.07-.1l.19.58c-.18,0-.17,0-.27,0m-.17-.94c.11.19.05.14.21.23a.24.24,0,0,1,0,.08,1.08,1.08,0,0,1-.46-.09,9.34,9.34,0,0,1,.41-1.14,4.27,4.27,0,0,0,.57.16c-.18.49-.26.53-.75.76M52,77.85,52,77.59l.18,0c.08.13,0,.08.11.15-.08.08-.07.07-.24.14m.25-4.48-.07.1v-.09c-.29-.09-.24-.18-.25-.39l.25,0,.14.24h.08c0,.06-.09.13-.14.2m1.88.1-.69.13.21-.31,0-.17c-.25.11-.17.09-.31.23,0,0,0,0,0-.08s0-.11-.14-.24c.07-.21.1-.16.21-.31l.55.08c.19,0,.27,0,.4-.25l.17,0s0,.06,0,.09l-.46.35c0,.31-.09.15.14.32a1.05,1.05,0,0,1-.05.19m1,1.51-.07.1a1.68,1.68,0,0,1-.12-.69l.27,0c-.05.26,0,.16-.21.3.11.17.1.12.22.23l-.09,0m.17,0s0,0,0-.08.08,0,.15-.12l.18,0,0,.17-.35.06m-.18-1-.43.07c.08.14,0,.08.12.16l0,.26c-.42-.32-.4-.54-.46-1.07.56,0,.71.3,1.21.31l0,.26a1,1,0,0,1-.53,0m.83.2V74c.7-.1.77.12,1.5,0,.07.16.05.16.13.24s0,0,0,.08a2.82,2.82,0,0,1-1.54-.16Zm1.23,1.37a.74.74,0,0,1-.45,0l-.08,0c.1-.13.21-.18.29-.32h.53l0,.09a1.47,1.47,0,0,0-.31.23m2.62-1.18c.13,0,.11,0,.24-.14h.08a2,2,0,0,1-.22.75c-.37.1-.61.44-1.08.37a6.33,6.33,0,0,1-.73-.13C58,75.07,58,75,58,74.91l-.23.21L57.61,75c-.16,0-.08,0-.18-.06a6,6,0,0,0,1.27-.76c.39,0,.21.06.24.31l.68-.12a.53.53,0,0,0-.35,0,2.21,2.21,0,0,1-.05-.25l.34-.07c-.12-.23-.07-.23-.32-.29,0,0,0-.06,0-.09.24,0,.26,0,.36,0,.35-.11.25,0,.21-.3a1.19,1.19,0,0,1,.35,0c-.08.18-.14.18-.19.39l-.34.07c0,.35,0,.3.18.5m.51-.1.07-.1c.09.08,0,0,.12.16s-.34,0-.19-.06m.06-1.16.17,0c-.06.17,0,.1-.17,0m.33-1.57,0-.17.17,0,0,.17-.17,0m.14,1.75,0-.17c.16,0,.09,0,.19,0l-.09,0-.07.1m.11.6.12-.29.26-.05s0,.06,0,.09l-.4.25m.43-3a1.33,1.33,0,0,0,0-.19s.08,0,0,.19M61.51,72l.26,0c-.14.1-.1.09-.26,0M62,70.27a2.68,2.68,0,0,1,.18-.47l.25,0c0,.16,0,.09-.05.19s-.07.07-.24.13c.06.17,0,.16.13.24s0,.09,0,.19,0,.11-.18,0,.07-.13,0-.26m.09.52.36,0,0,.17-.26,0c0-.08-.08-.16-.13-.24m.28.57c0-.09,0-.18,0-.27.08.08.07.06.13.24l-.17,0m.21-1.28c.16,0,.09,0,.19,0-.16,0-.09,0-.19,0m.47-.35c.16,0,.09,0,.19,0-.16,0-.09,0-.19,0m.8-.5c-.47.46-1.3.21-1.7,0l-.1-.07a.61.61,0,0,0,.07-.1c.35,0,.87,0,1.12-.2.13.15.07.14.06.34a1.51,1.51,0,0,0,.69-.57l.28,0a.72.72,0,0,1-.42.61m.58-3.12,0-.17.17,0,0,.17-.17,0m-.18,19c-.16,0-.09,0-.19-.06.16,0,.09,0,.19.06m.4,8.52a.83.83,0,0,0-.42.16l-.08,0c.09-.27.26-.23.35-.51l.17,0,0,.17c0,.1,0,0,0,.19M66.47,13l.25,0a1,1,0,0,0,0,.17c-.22,0-.15,0-.29-.13m6.65,83.42-.08,0,0-.28.11.07-.09,0,0,.17m22-89.68.63.06,0,.17c-.52.11-.61.06-.66-.23m9.49,0c.16,0,.09,0,.19.06-.16,0-.09,0-.19-.06m14.58-1.23a.85.85,0,0,1,0-.17l.18,0,0,.17-.17,0m29.9,2.19-.17,0a2.51,2.51,0,0,1,0-.27l.18,0a.61.61,0,0,1-.07.1.29.29,0,0,1,0,.09m15.41,2.87.08,0c0,.06,0,.12,0,.17l-.18,0a2,2,0,0,0-.13-.25c.16,0,.09,0,.19.06m-.29.85c-.16,0-.09,0-.19-.06.16,0,.09,0,.19.06M164,12.75l0,.17a3.63,3.63,0,0,0-.66-.24l0-.17c.33.05.35.18.66.24m-2.82-3.3.05.26-.1-.07-.17,0c.09-.24,0-.1.22-.22m-1.26-.13a1,1,0,0,1,.55.08s0,.06,0,.09A3,3,0,0,1,159,9.31a1.76,1.76,0,0,1,.89,0m.06.79c-.07.27-.11.1-.28,0,.16,0,.09,0,.19.06l.09,0M158.61,9l.1.07,0,.17-.43.08c0-.09,0-.17-.05-.26l.35-.06m-1.84-1.8c-.13.11-.09.1-.25,0l.25,0M152,6.77c.72,0,2.42,1.28,3.22,1.1.3-.06,2-.54,2-.54l.17,0c-.32.93-1.85.1-2.07.81A31.91,31.91,0,0,1,152,7a2.38,2.38,0,0,0,0-.26m4.59,1.83c-.16,0-.09,0-.19-.06.16,0,.09,0,.19.06m-.38-.11a1.25,1.25,0,0,0-.1.37,6.52,6.52,0,0,0-1.23-.39l0-.18a2.54,2.54,0,0,1,1.28.21h.08m-2.46,2c-.16,0-.09,0-.19,0,.16,0,.09,0,.19,0m-.07,2.05-.13-.24.27,0,0,.17-.17,0m.73-.84,0-.17.09,0,0,.17-.09,0m.85,1.26-.2-.14.26,0v.08a.36.36,0,0,1-.07.1m-.6-.86-.06-.35.52-.09c.14.12.07.09.28.13,0,.11.05.22.07.34l-.81,0m1,.53a.36.36,0,0,1,.07-.1c.08.07,0,0,.11.15s-.34,0-.18-.05m.14-.2-.14-.25.18,0c0,.09,0,.17,0,.26l-.08,0m.47-2.75,0,.17c-.21,0-.14,0-.29-.12l.26,0m0,4.26s0-.06,0-.09a.64.64,0,0,1,.36,0Zm-.13-1.22-.09,0c0-.24.07-.23.09-.46.4,0,.54.17.85.29,0,.11,0,.22.07.34a.94.94,0,0,1-.92-.19m.61-1,.28,0a.28.28,0,0,0,0,.09c-.22,0-.15,0-.29-.13m.66.68c0-.08,0-.17-.05-.25l.26,0c0,.08,0,.17,0,.26l-.25,0m1.4-.08,0-.17c.18,0,.17,0,.27,0l.27,0a.29.29,0,0,1,0,.09h-.53m-2-3.35c-.08-.07,0,0-.11-.15a1.26,1.26,0,0,0,.12-.29c.43,0,.53.19,1,.17,0,.31-.08.25.16.41l-.14.2-.09,0a5.66,5.66,0,0,0,1.81.65s0,.05,0,.08A4.62,4.62,0,0,1,156.74,9m2.87,4.09.17,0c0,.17.07.34.1.51-.16,0-.09,0-.19-.05s0-.17-.08-.43m.69.85h-.09l-.4-.28.38.12a1.32,1.32,0,0,1-.24-.32c.05-.1,0,0,.05-.19.39.17.55.55.93.72l-.74-.21a.48.48,0,0,1,.11.15m-.13-3.61a3.18,3.18,0,0,1,1.23.4,2.13,2.13,0,0,1-1.23-.4m1.1,3.08c0-.09,0-.17-.05-.26a2,2,0,0,1,.39.2s0,.05,0,.08l-.35,0m.4-2.65a.58.58,0,0,1,.27,0l.28,0s0,.06,0,.09a1,1,0,0,1-.56-.17m.2-.83h-.08l0-.17.43-.07c0,.08,0,.17,0,.25a.58.58,0,0,1-.36,0m.89,0,0,.18c-.27,0-.21,0-.37-.11l.34-.07m-.19,3.32,0-.17.08,0,0,.17-.08,0m.15-2.07,0-.17a4,4,0,0,1,1,.34,8.18,8.18,0,0,0-1-.17m.44,3.38,0-.17.27,0,0,.17-.27,0m.69-.57c.35.1.39.39.64.59a.77.77,0,0,1-.22.22l.3.21a.36.36,0,0,1-.07.1c-.18,0-.17,0-.27,0l-.17,0a1.78,1.78,0,0,0-.21-1.11M164,95.86l.62,0,.1.07s0,.06,0,.09c-.42.08-.51.08-.73-.13m.72-78.47v0l-.28-.08.25-.05,0,.13.09,0h-.08m1-6.2,0-.17.35-.07s0,.06,0,.09a1,1,0,0,1-.33.15m1.42,4.35a2.55,2.55,0,0,0-.55-.08.57.57,0,0,1,.09-.46.62.62,0,0,1,.42.37l.09,0c.07.16,0,.12,0,.19m.79.47c.09,0,.3-.12.27,0-.18,0-.06.14-.27,0m2.61-3.66,0-.17.17,0,0,.17-.17,0m1.22,3.77c-.08.08,0,0-.16.11s0-.05,0-.08,0,0-.12-.16a1,1,0,0,1,.33-.15c0,.19,0,.17,0,.28m1.19.22c-.37,0-.46-.11-.5-.35.18,0,.16,0,.27,0l.27,0c0,.16,0,.09-.05.19s0,0,0,.08m6.1,3.32s0,.06,0,.09l-.18,0,0-.17.19.05m-.32-.29,0,.26c-.29-.08-.5-.29-.78-.39l0-.26c.39.05.47.25.78.39m-1,68.5.38.11a1.31,1.31,0,0,1-.38-.11m1.78-66.78a.89.89,0,0,0-.4.25.91.91,0,0,0-.32-.3,1.11,1.11,0,0,1,.17-1s0-.06,0-.09c.38.29.8.59.81,1.09.22-.12.13-.14.4-.25.09.32.2.47.13.69a5.48,5.48,0,0,0-.62,0,1.52,1.52,0,0,0-.16-.41m.66,67.05a.87.87,0,0,1-.46-.1c0-.39.11-.46.22-.74l.27,0c.12.2.18.37.36.47,0,0,0,.06,0,.09a2.06,2.06,0,0,0-.4.25m1.21-.66-.51.09.38-.34c.14,0,.06.1.17,0l.17,0c-.06.21-.1.15-.21.31m2.81-70.34.18,0,0,.17c-.25,0-.13.08-.21-.14m.41.28.27,0s0,.06,0,.08c-.22,0-.15,0-.29-.12m.48.18.18,0s0,.06,0,.09c-.25,0-.13.08-.2-.14m1.22,74-.25.05c0-.06,0-.12,0-.17a1.91,1.91,0,0,0,.32-.24l.25,0s0,0,0,.08a1.81,1.81,0,0,0-.3.32m.73-.4-.35.07.07-.1c.29-.52.94-.43,1.35-.87l.09,0c-.22.47-.84.53-1.16.92m1.19-70.93c0-.08,0-.17,0-.25a1.54,1.54,0,0,0,.47.18l0,.17a.87.87,0,0,1-.46-.1m1.62,5.47-.08-.43c.08.14,0,.08.12.16l.06.34-.1-.07m.54-.45c-.23.17-.51-.17-.63-.51.28.07.44.07.6.34l.08,0c.07.16,0,.12,0,.19M210,31.94a1.77,1.77,0,0,0,.49.26l-.05.19c-.2,0-.25,0-.36,0a.75.75,0,0,1-.85-.29l.77-.14m-5.61-3.59,0,.17-.09,0,0-.17.09,0m-1.74.67a1.81,1.81,0,0,0,.32.3v.08c-.29,0-.37-.11-.64-.14l0-.17.34-.07m-.16.56a.28.28,0,0,0,0,.09c-.31,0-.29,0-.46-.09h.45m-.68-1.73c-.15,0-.08,0-.18-.06.15,0,.08,0,.18.06M201.4,27c-.16,0-.09,0-.19-.05.16,0,.09,0,.19.05m-.49-.26a1.47,1.47,0,0,1-.31.23l0-.17.34-.06m-8.17-.11a.47.47,0,0,1-.39-.2c-.11-.14,0-.05,0-.25.21.05.21.11.39.19Zm-.53-3.89.18.05.05.26-.29-.12.06-.19m-.14,3.13c-.06.16,0,.1-.17,0l.17,0m-.31-.21s0,0,0,.08a.48.48,0,0,1-.39-.19,1,1,0,0,1,.37.11m-.79.49a1,1,0,0,0-.42-.36l0-.17.34-.07c.08.3.06.29.25.4l0,.17-.17,0m.44,0c.22.22.62.26.8.48s.13.61.58.78a2.51,2.51,0,0,1,0,.27c-.35,0-.4-.11-.73-.13a.9.9,0,0,1,.08-.55c-.38-.22-.73-.33-.95-.8l.26,0m1.28,2.16a6399251921104.28,6399251921104.28,0,0,0-.14.2l-.13-.24c.16,0,.08,0,.18.06l.09,0m-.7,1,.08,0c.06.14.11.28.17.41l-.26,0-.13-.24.15-.12s0-.06,0-.08m-.5,59.19-.25,0,0-.17.42-.08a.24.24,0,0,1,0,.08c-.14.09-.08,0-.16.12m1.08.07c-.22,0-.32.05-.44,0l-.11-.07h.09c-.15-.18-.21-.1-.39-.2l1-.08a1.24,1.24,0,0,1-.11.37M192.82,29l-.18,0-.06-.34.31.21a.36.36,0,0,0-.07.1M193,88.38l0-.17.18.05s0,.06,0,.09l-.17,0M193.23,24l-.09,0,0-.17.24-.14a1,1,0,0,1,.15.33c-.18,0-.17,0-.27,0m.16-.56a2.08,2.08,0,0,0,.46.09l0,.17-.17,0a2.93,2.93,0,0,1-.32-.3m.39,4.09c0-.08,0-.17,0-.25a.48.48,0,0,1,.32.29h.08l0,.17-.39-.2m.52.44,0-.17.17,0a.85.85,0,0,1,0,.17l-.18,0m.07-1.08,0-.17.19.06s0,0,0,.08l-.18,0m-.74-2.61c.56,0,.44.1.77.31a3.61,3.61,0,0,0,2.27.29c-.09.09-.13.1-.33.15l.1.07c.08,0,1.76.35,1.93.36-.39.32-.76-.08-1.09-.16-.34.56-3.6-.78-3.65-1m4.52,1.93s-.34,0-.19-.06a.36.36,0,0,0,.07-.1c.09.08,0,0,.12.16m-.77,2.62c-.18.38-.4.33-.44,0l.34-.06.1.07m-.64.82.25,0c.09.14,0,.08.12.15l0,.18a.58.58,0,0,1-.27,0c-.08-.08-.07-.07-.13-.25m.17,54.56.17,0c.1,0,0,0,.18,0l.05.26Zm.34-51.72c0-.1,0-.19,0-.28.08.08.07.07.13.24l-.17,0m.7,0c-.07.08,0,0-.15.11a1.06,1.06,0,0,1-.15-.32l.26-.05.1.07c0,.16,0,.09-.06.19m.21,53.3.11-.37a1.16,1.16,0,0,1-.11.37m.24-.66c0-.06,0-.11,0-.17l.19,0s0,.06,0,.09l-.17,0m.09-1.44c-.25,0-.13.08-.2-.13l.51-.1c-.06.07-.25.17-.31.23m0-56.89c-.28,0-.22,0-.38-.11l-.08,0,.14-.2a4.08,4.08,0,0,1,.63.06c-.07.07-.25.16-.31.23m-.2-.58,0-.17.51-.1.12.16c-.26,0-.29,0-.6.11m1.05-.1c-.16,0-.09,0-.19-.06.16,0,.09,0,.19.06m1.12,2.27a.86.86,0,0,1-.07.1s0-.05,0-.08c-.16-.09-.11,0-.22-.23l.38.11a.61.61,0,0,0-.07.1m-1.09-1.13-.12-.15c.26-.1.42,0,.55-.37.44.08.62.45,1,.62,0,0,0,.05,0,.08a5.13,5.13,0,0,1-1.45-.18M201,31.36c-.15-.24-.19-.24-.18-.5a1.23,1.23,0,0,1,.38.1l.05.26-.25.14m.14-4.11.35-.06a.25.25,0,0,1-.35.06m.36,10.22.17,0,0,.25Zm.2-8.63.27,0,0,.18c-.37,0-.26,0-.3-.21m.33,5.7c-.08-.26-.16-.51-.23-.76.33,0,.41.1.7,0,.13.35.1.63.33.83a.36.36,0,0,0-.07.1l-.07.1s0-.06,0-.09a.94.94,0,0,1-.64-.14m.95.89c-.08.18-.31-.11-.4-.29s0,0,0-.18c.16,0,.09,0,.19,0s.15.17.22.23,0,.08-.06.19m0-3.37c-.28-.08-.36-.29-.61-.42,0-.09,0-.18,0-.26l.25-.05a3,3,0,0,1,.56.61l.08,0a1.16,1.16,0,0,0,0,.18.63.63,0,0,1-.28,0m.41,4.18,0-.18.17,0,0,.17-.17,0m1.18-.84-.16.12c0-.08-.09-.16-.13-.24a1.14,1.14,0,0,0,.22-.22l.09,0a1.26,1.26,0,0,1,0,.36m0-1.14,0-.18.26,0,0,.17Zm-.81-1.1-.09,0c-.18,0,.16-.12.16-.12-.13-.28-.09-.21-.32-.29a1.26,1.26,0,0,1,0-.36c.54.2.84.73,1.33,1l0,.17a1.33,1.33,0,0,1-1.13-.42m1.61,3.52.34-.06,0,.17c-.27,0-.21,0-.37-.11m.16-2.51.26-.05.1.07,0,.17c-.43,0-.34.06-.39-.19m-.32-.83c-.23-.19-.16-.25-.2-.58l.34-.06a2.34,2.34,0,0,0,.66.67s0,.06,0,.09a1.1,1.1,0,0,1-.81-.12m.14-2.15c-.73-.35-1.58-.61-2.3-.91-.05-.64.19-.37.41-.7l.1.07a1.62,1.62,0,0,1,.11.61,23.72,23.72,0,0,1,2.94,1.06l-.35.5c-.44-.08-.56-.46-.91-.63m1,1.95a6.69,6.69,0,0,1,.76.3c0,.21,0,.25,0,.36s0,.06,0,.09a1.1,1.1,0,0,1-.76-.75m1,2,.1.07s0,0,0,.08c-.28,0-.21,0-.38-.11Zm-.47-.18h-.09c0-.09,0-.18,0-.27.08.12.11,0,0,.17a.29.29,0,0,0,0,.09m.21,2.17h.09l0,.17h-.09l0-.17m.3.66c-.16-.09-.11,0-.22-.23l.29.13,0,.17-.1-.07m.15.32,0-.17.18.06s0,.06,0,.08l-.17,0m.27-3.86c-.18-.16-.14-.23-.16-.41.16.09.11,0,.22.23l.08,0s0,.06,0,.09c-.14.08-.08,0-.16.11m-.69-1.82,0-.17a.61.61,0,0,0,.07-.1,3.8,3.8,0,0,1,1.8.11c.15,0,.45.36.79.48-.22.23-.35.17-.67.21l1.13.86c0,.14.06.28.08.43-.17.06-.16.05-.24.13l-.52.09c.06-.3.28-.44,0-.71s-.72-.31-1.07-.52l-.1-.07A1.51,1.51,0,0,1,209,33l0-.18c-.62-.08-1.2-.34-1.85-.37m1.81,3.13,0-.17.28,0s0,.06,0,.09l-.26.05m.29,2.07s-.08,0-.13-.24l.09,0ZM209.06,75a1.54,1.54,0,0,1,.44,0l0,.17-.5.18,0-.26a.61.61,0,0,1,.07-.1m.35-36.57h-.09c0-.15,0-.29,0-.44l.56.16c-.25.21-.36,0-.48.27m.5.79.17,0a.74.74,0,0,1,0,.45.86.86,0,0,0-.07.1,1,1,0,0,0-.22-.23.71.71,0,0,1,.13-.29m-1.09-4-.18,0,0-.17.17,0a.85.85,0,0,1,0,.17M208.35,76l-.08,0a2.51,2.51,0,0,1,0-.27l.17,0c0,.19,0,.13-.13.28m.36,1-.1-.07c.29-.19.57-.16.81-.41a1,1,0,0,1,.46.09H210a1,1,0,0,0-.11.37,5,5,0,0,1-1.15,0m1,.89c-.19.17-.1,0-.12.29l-.17,0c-.09-.14,0-.08-.12-.16.09-.24.32-.29.43-.52l.28,0c0,.27,0,.14.06.34a.58.58,0,0,1-.36,0m.41-.16s0-.06,0-.09a1,1,0,0,0,.23-.22l.18.06,0,.17-.43.08m10.86-4.63.77-.14s0,0,0,.08l-.07.1c-.18,0-.17,0-.28,0-.38.08-.59.14-.8,0a.64.64,0,0,1,.36,0m-.92-.19c-.13.11-.18.13-.34.06l.34-.06m-1.32,1c-.16,0-.09,0-.19-.06.16,0,.09,0,.19.06m-.45-.54a.24.24,0,0,0,0,.08c-.14.09-.09,0-.16.12-.25,0-.13.08-.2-.14l.34-.06m-1,.19a.35.35,0,0,1-.43.07l.43-.07m-1.81-1.18c.08.08.07.07.13.24l-.25,0,0-.18c.13-.08.08,0,.15-.11m1.53-33.51.05.26c-.53,0-.51-.2-.87-.38,0,0,0,0,0-.08.5-.07.51.06.83.2m.37,3.48.17,0a.89.89,0,0,1-.15.64,1.29,1.29,0,0,1-.36,0c0-.41.15-.34.34-.59m-1.8-4c-.09.24-.14.21-.48.27-.07-.17-.05-.16-.13-.25l-.05-.25c.34.07.27.22.66.23m-.88-1,0,.17c-.09-.08-.07-.07-.14-.24.13,0,.07,0,.11.07m-.11.38.08,0a.61.61,0,0,1-.07.1.61.61,0,0,1-.07.1l-.13-.24c.16,0,.09,0,.19.06m-.48-.18s0,0,0,.08l-.18,0,0-.17.19.06m-.47-.18a1.22,1.22,0,0,0,0,.17l-.35.06c0-.27,0-.36-.07-.43a1,1,0,0,1,0-.17c.23.08.25.23.43.37m-.12,1.79c0,.16,0,.09-.06.19l-.07.1c0-.08-.08-.16-.13-.24ZM213,36.8l.17,0c-.09.23-.07.18-.4.25.06-.08.18-.15.23-.22m-.29.32.35,0c0,.2,0,.14-.12.29a1,1,0,0,1-.55-.08l-.08,0s0-.06,0-.09a.83.83,0,0,0,.42-.16m-.3,3.24.19.06,0,.17-.24.13-.11-.07c.05-.2.06-.14.13-.29m-.23-3.68,0,.17c-.23-.08-.09,0-.21-.22l.18,0M212,37c.1.13.1.09.05.25s0,.06,0,.09l-.17,0c0-.28,0-.19.11-.37m-.11,2.32c0,.16,0,.09-.05.19l0,.17a.89.89,0,0,1-.25-.4l.27,0m-.18.47-.17,0,0-.18.17,0,0,.17m-.27-1,.26-.05c-.14.11-.1.1-.26.05m.23-1.64c-.12.3-.19.18-.5.18a1.22,1.22,0,0,0,0-.17h.53m-.81,2.37c.23,0,0,0,.26,0,0,.31,0,.47.28.57l0,.17a3.3,3.3,0,0,1-.56-.16,1.92,1.92,0,0,1,0-.53m-.05,1.16c.18,0,.17,0,.27,0l.17,0,.05.25c-.14.09-.08,0-.16.12l-.34.06c0-.15,0-.29,0-.44m.05,36.85,0-.17.51-.09.11.07,0,.17-.62,0m.69-4c-.22-.13-.14-.18-.48-.18,0,0,0-.06,0-.09a2,2,0,0,0,.55-.36l.26,0,0,.17.1.07a2.68,2.68,0,0,0-.45.44m.33,3.75a1.36,1.36,0,0,1,0-.17l.18,0,0,.18-.17,0m.3-.77c-.08-.08-.07-.07-.13-.24.41-.17.42-.39,1-.53,0,0,0,.06,0,.09a1.83,1.83,0,0,0-.85.68m1.09.16,0-.17.19.05s0,.06,0,.09l-.17,0m2.41-35a2.51,2.51,0,0,0,0-.27c.2,0,.14,0,.29.13l0,.17-.36,0m1,1.51-.28-1c.13.25.27.49.4.73a.84.84,0,0,0-.12.29m.12-2.24c-.08.08-.07.07-.24.13.06.17.05.16.13.25s0,0,0,.08c-.45,0-.61-.27-1.11-.24l0-.26-.27,0a1,1,0,0,0,0,.36c-.27,0-.3,0-.46-.09a.92.92,0,0,0-.1.46.94.94,0,0,0-.36,0l-.1-.07-.06-.34h.53s0-.05,0-.08,0,0,.06-.19l-.1-.07c-.35.1-.43.37-.83.33s-.37-.23-.75-.22a3.44,3.44,0,0,0,0-.8,2.36,2.36,0,0,1,.92-.35,2.44,2.44,0,0,1-.11-.6.65.65,0,0,1,.36,0c.15,0,.08,0,.18.05s.07.07.14.24c-.19,0-.17,0-.28,0l-.17,0c.41.89,1.49.18,1.95,1l.21-.3c.24,0,.22.06.46.09l.06.34c-.18,0-.17,0-.27,0l-.17,0a.64.64,0,0,0,.42.37m.65,26,.06-.19c0,.16,0,.09-.06.19m.11-23.32H217l-.11-.07c0-.09,0-.18,0-.26l.24-.13c.17.18.08.18.39.19a.58.58,0,0,1,0-.36c0-.07,0,0,.09,0l.27,0c-.06.29-.22.34-.33.59m.39-2.2c-.06.11-.21.05-.35,0a.65.65,0,0,1-.54-.53c.35,0,.65,0,.85-.15l.18,0c-.09.3,0,.5-.14.73m-.44-2c.05-.36.24-.5.29-.85l.17,0c0,.48-.13.57.14.77a.29.29,0,0,0,0,.09l-.62,0m3.31,2.15.26-.05a1.26,1.26,0,0,0,0,.36.83.83,0,0,0-.42.16l-.17,0c.1-.42.25-.06.35-.5m-2.55-.87.38.11,0,.17a.74.74,0,0,1-.45,0c-.13-.07,0,0,0-.27m.17,1.39h-.09a1.19,1.19,0,0,1,0-.35l.18,0a1.57,1.57,0,0,1-.11.38m.56.16.17,0c0,.17,0,.1-.17,0m-.06-.34-.09,0a1.39,1.39,0,0,0-.23-.32.92.92,0,0,0,.36-.42c.08.08.07.07.14.24l.17,0a1.26,1.26,0,0,0,0-.36.57.57,0,0,1,.23.32c.23-.11.15,0,.14-.21.34.14.18.38.61.42,0,0,0,.06,0,.09l-.07.1a1.29,1.29,0,0,1-1-.26c-.33.13-.28.06-.28.41m.48.71.26,0,.1.07c0,.16,0,.09-.06.19s0,0-.15.12a1.28,1.28,0,0,1-.15-.33m.65,1.65h-.44a1,1,0,0,1,.09-.46l.28,0c.08.14,0,.08.11.16s0,.17,0,.27m0-1.33a2.51,2.51,0,0,1,0-.27c.23.08.09,0,.21.22l-.25.05m.29,1.1h-.09l0-.27.19.06s0,0,0,.08-.08,0-.15.12m.34-.06,0-.18.17,0,0,.17-.17,0m.29-.85a.87.87,0,0,1-.46-.1l0-.17c.19-.05.24-.06.32-.15l.28,0c0,.09,0,.17,0,.26s-.08,0-.15.12m.2-.84c-.07.09,0,0-.16.12s0,0-.18-.06c0-.19.05-.13.12-.28.23.07.06-.06.21.14l.1.07h-.09m.65,4,.34-.06,0,.17c-.27,0-.21,0-.37-.11m.33-.59-.34.06c0,.18,0,.17,0,.27s0,.07-.19-.05l-.1-.07a1,1,0,0,0,.41-.7l.34-.06L222.2,45l.15-.2.34-.06a3.67,3.67,0,0,1-.52,1.07m.61-1.53-.13-.24.19,0,0,.17-.09,0m.67,1.74-.17,0a1.29,1.29,0,0,1,0-.36l.19.05c0,.16,0,.09-.05.19s0,.06,0,.09M227.8,44a.46.46,0,0,0,.39.19s0,.06,0,.09a2,2,0,0,0-.4.25l-.2-.14-.06-.35.26,0m-1.19-1.65c0,.16,0,.09-.05.19v.08c-.27,0-.07,0-.22-.22l.26,0m-.37-.11c0,.16,0,.09-.06.19s0,.06,0,.08-.07-.07-.13-.24l.17,0m-.14,2.15c0,.43-.14.52.22.76l0,.17c-.41-.13-.32-.44-.76-.3a.74.74,0,0,1,0-.45c.05-.07.17-.15.22-.22l.28,0m-.45-2s0,.05,0,.08l-.07.1-.17,0a.85.85,0,0,1,0-.17l.26,0m-1.65.65-.1-.07c0-.11,0-.23-.07-.34l.26,0c0,.14,0,.29.08.43l-.17,0m.44,1a1.77,1.77,0,0,1,.14-1.17l.28,0c-.08.28-.2.28-.25.58l-.09,0c.15.26.15.27.49.26l0,.09c-.16.09-.32.18-.49.26l-.1-.07m.42,2.76,1.28-.23.1.07Zm1.86,0c-.28,0-.21,0-.37-.11l.42-.08s0,.06,0,.09l-.07.1m0-4.26.26,0c.11.18.06.13.22.22,0,0,0,.06,0,.09a1,1,0,0,1-.49-.27m1.64,4.14,0-.26c-.17.06-.16.05-.24.13a3.68,3.68,0,0,0,0,.62l-.71-.07v0h-.09v0l-.45,0c.08-.08,0,0,.16-.12s0,0,.15-.11a.92.92,0,0,1,.14.28h.1a8.46,8.46,0,0,0-.19-1c.32,0,.57,0,.77-.14.31,0,.29,0,.46.09a2,2,0,0,1,.2.59l-.26.05m.39.19,0-.17.19.05s0,.06,0,.09l-.17,0m8.77-1,.09,0-.07.1a.86.86,0,0,1-.07.1c-.05-.08-.09-.16-.13-.24.15,0,.08,0,.18.06m-1.1-.69c0,.16,0,.09-.05.19v.08c-.23-.08-.09,0-.21-.22Zm-1.58-1.4,0,.17-.17,0,0-.18.17,0m-.43.08a1,1,0,0,1,.15.33,1.32,1.32,0,0,1,1.23-.05l.17,0c0,.32.06.24-.19.39s-.22.06-.52.09l0-.25-.21-.14a1.23,1.23,0,0,0-.56.28,2.93,2.93,0,0,0-.32-.3l-.11-.07a2.12,2.12,0,0,0,.4-.25m-.82,1.83c0,.09,0,.18,0,.26-.18,0-.17,0-.27,0l-.09,0,0-.17.34-.07m-.52.54c-.16,0-.09,0-.19-.05.16,0,.09,0,.19.05m-.76-1.28c-.19,0-.06,0-.12-.15.08.07,0,0,.12.15m-2.59-1a2.21,2.21,0,0,1,0,.25c-.23-.08-.1,0-.22-.22l.17,0m.15,2.72h-.09a.86.86,0,0,1-.07.1l0-.17c.16,0,.09,0,.19.06m-.27.36c-.12.12-.1,0-.46,0l.46,0,0-.06.26-.05,0,.09Zm.81-.28c.16,0,.09,0,.19,0-.16,0-.09,0-.19,0m-.05-3.19.35-.06a.25.25,0,0,1-.35.06m.68.77c.15,0,.08,0,.18,0-.16,0-.09,0-.18,0m.68,2.8c.09-.24.08-.18.4-.25a1.36,1.36,0,0,1-.13-.69l.25-.13a.65.65,0,0,0,.4.28c0,.22,0,.15-.12.29s0,.06,0,.08a4.2,4.2,0,0,0,.71-.48c.05.08.09.16.13.24s0,.4,0,.7Zm1.92-.17a1.6,1.6,0,0,1,0-.45,1,1,0,0,0,.4-.25c.4,0,.44.15.9.1,0,.16,0,.09-.06.19Zm1.46,0a.93.93,0,0,1-.47.1l.47-.1a2.09,2.09,0,0,0,.67-.46c.53-.07.5.08.9.1Zm3.25.1-.25.08-.18-.08H237l-.15-.86c.41.12.57.48,1,.26,0,.32,0,.32-.18.48l.1.07.11,0h.43l.16-.08c-.11-.26-.09-.17-.23-.32.2-.09,0,0,.26,0-.07-.17-.05-.16-.14-.24l0-.18a5.16,5.16,0,0,1,.77.31c-.09.23,0,.14-.31.23l.76.31Zm1.3-3.57c-.23-.09-.1,0-.22-.23a1.11,1.11,0,0,1,.29.13.61.61,0,0,1-.07.1m.33-.15,0-.17h.08a1.36,1.36,0,0,0,0,.17H240m.12.16a1.18,1.18,0,0,1,.28.12c-.21,0-.14,0-.28-.12m1.28.21c-.14.12-.18.08-.42.16-.21-.19-.2-.2-.39-.19.15-.23,0-.09.24-.14,0-.08,0-.17,0-.25a1.54,1.54,0,0,1,.75.22,1.43,1.43,0,0,0-.14.2m.35,2.95.18,0,0,.17c-.25,0-.13.07-.21-.14m.23-.22c.16,0,.09,0,.19.05-.16,0-.09,0-.19-.05m.8-.5a.57.57,0,0,1-.54,0c-.15,0-.08,0-.18-.06.14-.08.08,0,.15-.11l.62,0c0,.16,0,.09-.05.19m-.18-1.48c0-.14-.06-.28-.08-.42l.1.07.19,0c0,.09,0,.17,0,.26l-.25,0m1.63.24s0,.06,0,.09c-.22,0-.15,0-.29-.13l.27,0m-.52.54-.1-.07c0-.21,0-.25,0-.36s0,0,.09,0l.17,0,.08.43-.26.05m.8,1.45-.16.11-.1-.07c0-.27,0-.19.11-.37l.19.06a2.51,2.51,0,0,0,0,.27" style="fill:#020001"/></svg>