<svg xmlns="http://www.w3.org/2000/svg" viewBox="0 0 325.11 585.25"><g id="圖層_2" data-name="圖層 2"><g id="圖層_1-2" data-name="圖層 1"><path d="M182.68,123.1s-4.23-11.17-5.34-15.2-5.74-37-6.29-39.93-1.14-23.26-1.14-23.26-8.1-23.44-9-27.1-1.66-7.88-6.8-11.72S145.66-.87,140.71.24,131,1.9,128.08,6.12s-10.73,12.11-11.7,15.65-4.5,9.9-5,13.2,0,11.6-.34,13.31,1.35,3.91,1.35,3.91h3.66s.74,3.91,2.08,2.32,3.9-3.18,3.66-4.28a44.06,44.06,0,0,1-.14-8.18c.24-2,2.07-8.68,2.79-12.1s4.51-8.07,5.73-11.12,4.26-8,6.09-8.56,6.59-.87,8.43,1.57,6,11.35,6.86,14.28,3.7,22.59,3,26-2.76,29.2-2.51,32.13-1,14.53-2.17,18.2-3.53,9.41-3.89,11.73l-1.45,9.29a37.15,37.15,0,0,0-12.95-3.89c-8.19-1.09-27-3.26-36.77-.8a74.52,74.52,0,0,0-17.33,6.87,131.05,131.05,0,0,0-16.84,7.84C53.54,137.66,41.1,150,37.81,153.8s-11.2,19.69-13.52,24.82-4.74,13.69-7,17S11.63,200.26,9,205.88s-6.32,21.51-7.41,26.64S-1,253,1,257.56s2.71,17,3.82,20.39,1.48,10.26,3,13.8c1.61,3.87,3.67,7.58,4.83,11.64,1.38,4.88-.28,9.37.57,14.25,1.87,10.68,5.38,21.46,7.62,32.19a209.47,209.47,0,0,1,3.08,23.58c2.41,26.18,6.1,52.73,6.14,78.91,0,6.11,3.22,22.22,3.22,24.67s5.63,10,7.23,13.79c6.52,15.47,14.73,32.94,26.73,44.87,7.43,7.38,17.52,12.74,28,12.12,7.87-.47,15.53-3.34,23.42-3,5.62.23,12.58-1.12,20.27.21s23.24,19.5,26.55,25.48,6.37,9.64,11.5,11.34,5.74,4.15,11.12,3.28c10.52-1.69,15.24-11,25.44-12.39,4.72-.67,9.52-.28,14.28-.5,17.54-.82,34.26-10.77,43.84-25.41,4.43-6.76,7.72-14.7,11-22.09,2.45-5.61,6.59-12.87,6.72-19.16.12-5.25,8.6-45.57,9-52.16s6.55-29.57,6.66-36.05.23-6.84.22-14.77a136.37,136.37,0,0,1,1.8-20.77c.84-5.62-.38-5.62-.27-11.48s1.33-12,1.32-15.64-1.35-5.73.35-10.26,2.19-5.37,1.82-9.77-.86-3.54-.26-9,3.77-10.14,3.76-15.64,2-29.44,4.94-42.51,7-39.58,6.53-44.83,0-24.43-.91-29.8-3-16.85-5.65-21.61-8.82-15.74-11.63-19.53-6.13-10.37-10.77-12.92-21.27-11.33-21.27-11.33-22.85-7.17-37.15-7.63-32.47,6.52-32.47,6.52-8.92-3.16-12.34-3.28a79.41,79.41,0,0,0-10.75,1.12Z"/></g></g></svg>