<svg xmlns="http://www.w3.org/2000/svg" viewBox="0 0 311.81 616.56"><g id="圖層_2" data-name="圖層 2"><g id="圖層_1-2" data-name="圖層 1"><path d="M210.48,591.84c-6.6-.05-19.25,7.79-23.35,11.06-4.54,3.64-10.3,6.25-15.67,8.39-6.49,2.59-11.73.94-17.89,3.83A15.43,15.43,0,0,1,143,616c-7.6-2.08-13.85-3.15-20.64-7.79-15.56-10.65-19.25-13.52-29.08-19.26S67.51,564.8,63,551.29s-8.6-44.66-10.24-57.77-2-29.49-4.91-39.32S44.57,430,38,425.52,29,414.05,27,405.45s-5.73-12.29-9.83-19.67C8.59,370.43-.2,354.06,0,336.05c.21-18.38,6.06-38.9,17.53-53.5,4.51-5.73,12.29-11.88,12.29-11.88s.82-4.92,7.79-14.34,12.69-14.34,20.48-16,20.07-2.05,24.58,0a27.26,27.26,0,0,0,9.83,2s6.14-4.91,13.11-5.73S120,239.54,120,239.54s3.27-13.8,3.27-18.17-1.91-10.92-3.55-15.56-2.45-6-2.18-12,1.64-10.38-.27-15-4.65-8.19-4.92-12.56.82-5.46.82-5.46l3.55,1.09-1.09-8.47s-4.37,4.37-4.1,1.09,2.19-5.19.82-8.74-2.19-5.46-1.91-10.37-6.28-26.22-7.92-32S89.36,78.81,87.72,74.72s-5.19-11.2-6.55-15-6.83-9-10.38-13.39-19.12-21-21-24.3-6.28-6.56-10.38-10.38S28.73,8.35,26.27,8.08s-5.73.27-6.83,3.28-3,3.55-3,5.73-.55,6.28-.55,6.28-1.64,3.28-3,3.28S9.07,25.29,7.15,23.1,6.88,19.82,8,16A24.5,24.5,0,0,1,15.35,4.8C18.9,1.8,23.54-.66,28.46.16s16.38,7.65,19.11,10.1S75.16,39.49,78.43,42.49,94.82,67.89,97.28,72s6,7.37,6.83,11.19a73,73,0,0,0,3,9.29s6.56,16.11,8.74,21.3,1.91,7.65,3.28,11.2a79.4,79.4,0,0,0,3.27,7.65c1.92,4.09,2.74,8.73,4.1,11.19a12.75,12.75,0,0,1,1.37,5.46s1.91-.27,2.45,2.46,0,10.38.55,13.93,3.82,7.38,4.92,10.93,1.36,12,1.36,12l3.28,12.56s4.64,16.94,6,20.49,2.18,5.19,2.18,5.19,7.1-4.1,13.38-4.92a58.73,58.73,0,0,1,17.76.82c3.27.82,11.19.27,11.19.27s3-3.55,12.29-1.91,13.11,6,13.11,6S239,231.48,242,232s16.12,7.1,20.21,10.37,12,12,17.48,15.84,9.29,9.84,13.93,24.31c2.41,7.51,2.86,14.18,4,21.75,1.47,10.16,4.59,19.89,5.45,30.2,1.47,17.79-1.21,35.87,1.88,53.45,1.46,8.27,4.17,16.28,5.56,24.56,1.79,10.61,1.38,21.45,1,32.19-.39,10-3.22,19.06-4.25,29-1.39,13.36-3.52,26.59-2.38,39.89,1,11.9-4.25,24.57-6,36.31-1.91,12.84-1.64,17.48-6.28,25.13s-9.29,11.19-16.93,16.93-14.2,9.83-24.58,7.1S227.82,592,210.48,591.84Z"/></g></g></svg>