<svg xmlns="http://www.w3.org/2000/svg" viewBox="0 0 298.36 599.22"><g id="圖層_2" data-name="圖層 2"><g id="圖層_1-2" data-name="圖層 1"><path d="M161.7,219a8.69,8.69,0,0,0,6.51-2.45c3.31-2.92,9.82-4.46,15.32-5.82s9.89-.05,14.1,1.61,9.69,5.8,9.69,5.8,4.49.2,12,.78,17.85,3.26,22.24,5.47,17.65,8.22,24.77,15.48,14.5,19.46,16.41,24.33,12.28,25.69,13.44,32.47,2.69,19.7,2,26.48-4,27.1-5.14,30.67S293,360,292.39,362s-3.32,8-4,11.53-4.81,14.09-5.65,16.65S280.41,410.28,281,414s.68,16.4.48,22.72,1.79,11.46.21,18.69a66.63,66.63,0,0,0-1.16,19.14c.44,3.67-.5,11-1.26,18.87A117.25,117.25,0,0,1,276,510.57s-8.13,18.39-15,27.53-12,16.45-18.21,21.55-16.71,11.77-24,13.57-11.28,2.35-17.78,1.13-16.37-5.73-16.83-5.27-2.68,5.76-6.54,10.69-19.3,16.88-29.65,17.86-8.71,2.72-21.16.57-14.82-5.18-22.23-9.6S88,577.73,88,577.73s-15.19-4.45-21.32-8.68-21.1-18.67-23.27-24.81-3.1-5.23-7.74-16.06a377.75,377.75,0,0,1-19.08-58.12L12,451.82c-2.44-9.75-4.49-19.38-3.15-29.45.95-7.1,3.91-14.17,1.94-21.42-1.42-5.2-1.37-10.83-2.08-16.15-.77-5.73-3.13-11-4-16.85-2-13.58-2.3-27.33-2.61-41l-.57-25.48C1.39,295.39,0,289.3,0,283.39c.06-8,5-16,8.22-23,7.65-16.56,17.12-25.78,24.19-31.16s31.11-15.74,40-15.62,21.79,2.73,21.79,2.73a9.55,9.55,0,0,0,6.15-1.26c2.75-1.83,6-2.91,3.67-3.65,0,0,2.41-.28,1.45,3.94-.37,1.65,1.46,2.57,1.46,2.57s.83-.73,2.76-2.74,2.94-2.19,4.41-3.74,1.56-2.65.92-2.75,3.12.2.91,3.21l4.2,3,10.82-1.89s2.66-3,4.23-4.75,5-25.44,5.79-32.4,2.64-23.9,3.48-27.84,2.51-10.43,2.34-16.48-.23-11.82.06-18.32S147,82,146.6,76.49L146.16,71s-4.28-7.44-4.81-13.67-1.13-17.77-3.77-21.17-4.29-6.06-4.29-6.06a40.18,40.18,0,0,0-4.95.71c-3.3.64-6,1.82-6,.44s2.38-.63.38-6.22.31-10.63.51-15.58,1.77-7.59,2.6-8.78,4.21-.63,5.31.38c0,0,2.91,6.52,5.18,11.1s14.06,43.11,14.95,49.06,3.15,18.33,4.76,29.7,1.4,18.6,2.85,23,2.28,5,1.54,7.42l-.74,2.38s-2.84-1.2-2.39,1.55,1,3.49,2.63,6.15,2.65,2.48,4.4,1.75a13.14,13.14,0,0,1,.34,7.06c-.93,3.66-5.08,12.35-5.08,12.35s.79,10.26.67,17.77-1.6,12.73-2.07,16.39-1.48,5.68-.94,9.16,1.9,5.32,2.25,9.17a21,21,0,0,1-.48,6.86A16.36,16.36,0,0,0,161.7,219Z"/></g></g></svg>