<svg xmlns="http://www.w3.org/2000/svg" viewBox="0 0 610.6 345.21"><defs><style>.cls-1{fill-rule:evenodd;}</style></defs><g id="圖層_2" data-name="圖層 2"><g id="圖層_1-2" data-name="圖層 1"><path class="cls-1" d="M130.47,89.24l5.44-2.56c5.23,5.23,7.84,6,13.25,8.41l1.38-1.31c2.9,1.66,1,3.7,1.24,4.06l1.32,1.38c1.77,1.94,4,.43,6.62,4.2,0,0-.82,4.24,2.56,5.45l1.37-1.31c3.07.07.53.54,4.07-1.25l7.8,11-1.37,1.32c-.08,3.06.51.55-1.45,4l9.25,6.95-1.38,1.32,2.62,2.75-1.38,1.31,7.94,5.58c-.77,3.09-1.4,4.92-.2,8.07l2.62,2.76L189.22,162l2.55,5.45L178,180.58l-2.62-2.75-2.76,2.62,1.24,4.07c-1.66,2.87-3.72,1-4.06,1.24l-9.65,9.18-1.31-1.38-35.7,28.72c1.22,7.13-2.92,8.18-4.41,14.69L120,241l-2.83,5.31,1,12.14-2.76,2.62,1.25,4.07-2.76,2.63,1.18,6.75-2.76,2.63,1.25,4.06-2.76,2.63,1.31,1.37-1.44,4,6.55,6.89-7,11.93,1.18,6.76-2.76,2.62,1.24,4.07c-.44,6.29-2.1,13.86-7.22,20l-1.31-1.38-4.14,3.93-6.69-1.51-2.76,2.63c-1.25.15-11.87-2.54-13.38-3l-2.62-2.76-1.38,1.32L67.77,338l-4.07,1.24c-7.24-1.88-15.47-8.13-22.49-15.36,1.82-4.57,1.47-7.42,4.33-12-3.95-6.9-.19-9-1-14.83l-2.62-2.75,1.45-4c0-6.31-1.4-9.58,3.09-16.07L49.1,277l2.82-5.31c-2.14-1.63-.52,1.53-2.69-.07l-3.73-12.2,1.44-4-2.62-2.76,1.45-4L39.28,239l1.37-1.31-6.49-9.59,1.38-1.31-2.62-2.75,1.38-1.32-3.94-4.13,1.38-1.31c-1.77-4-9.93-13.24-14.42-15.16l-4.07,1.24-6.56-6.89-2.76,2.62L0,195c.73-2.12-.06-4.76.13-5.38l4.14-3.93-1.18-6.76,4.2-6.63-1.11-9.44,6.89-6.56-1.31-1.38c.29-7.61-6.79-4.8-1-14.83L6.85,136l8.27-7.87,1.31,1.38,5.51-5.25,1.32,1.38,1.37-1.31-1.31-1.38,6.89-6.56L29,112.29,34.48,107l1.31,1.38,1.45-4,9.58-6.49-1.31-1.38,1.38-1.31,1.31,1.38L60.54,87.5l1.31,1.38,2.75-2.62,1.31,1.38,5.52-5.25,8,2.89,8.2-5.18,10.69,3,2.76-2.62,4,1.44,12.14-1L121.15,85l1.38-1.31Z"/><path class="cls-1" d="M447.83,34.67c2.56-4.23,1.94-2.64,5.35-4.29l.57-1.82,3.63,1.15L458,27.9l1.82.58c4.88-3.05-.9-4.05,7.16-3.72,6.59-9.83,4.34-2.29,13.18-3.81l3-3.05,6-.09,1.15-3.63L502.36,20a5,5,0,0,1,6-.09l-.58,1.81L518.11,27l3.54-4.87c3.72.43,4.2-.66,4.2-.66l9.07,2.87.57-1.81,3.63,1.15.57-1.82,13.94,6.41.57-1.81,3.63,1.15.57-1.81,19.38,8.13.66,4.2,8.5,4.69-.58,1.81L590,45.79l-.57,1.82L593,48.76l-.57,1.81c6.28,4.66,10.78.2,18.13,5.75L607.82,71.4c-.85,1.12-6.16-.38-5.93,6.11l3.06,3L603.8,84.1l1.81.57c.15,4.5-2.38,4-3.54,4.87l.67,4.2,4.86,3.54-2.3,7.25c-6.57,1.85-3.33,4.58-11.36,4.38l.09,6,1.81.57-.58,1.82-1.81-.58-2.87,9.07c-6.31.59-9.34.73-12.52,8l-1.81-.58-.58,1.82,1.82.57-1.15,3.63,1.81.57-7.56,17.56-1.81-.57-3.45,10.88-1.82-.57-1.72,5.44L560,172l-1.73,5.44-1.81-.57-4.6,14.51-1.81-.58c-7.34,11.19-8.75,42.32-8.27,51.27l1.82.57-2.3,7.26c.14,3.7,1.07,10.25,1.42,14.42l4.2-.67-.58,1.82,1.82.57c-5.37,6.87-8.87,21.38-12.16,32.07l-4.2.67-.58,1.81L519.75,299l-.58,1.81-9.07-2.87-.57,1.81-12.7-4c-8.11-.17-17.53-.11-27.11-2.61,4.58-14.27,0-29.95-3-40.87l-3.05-3,2.79-15.09-1.82-.57,2.21-13.27-1.81-.58,1.15-3.62-1.82-.58,1.73-5.44-3.05-3c-2-7.87,1.92-10.7-6.86-16.14l.57-1.82-10.31-5.26.58-1.81L443.38,181l.58-1.82-9.07-2.87-.67-4.2-9.06-2.88-.58,1.82L421,169.85l-3,3.05-4.86-3.54-.58,1.82c-3.31.64-4.85.11-9.64-1.06l1.06-9.65c-6.13-4.05-4.15-9.09-7.44-14.33l2.3-7.25-6,.09-.67-4.2-3.62-1.15,1.72-5.44-4.87-3.54c2-4,4-10.77,7-15.75l1.81.58.49-7.83a3,3,0,0,0,3-3.06l-3.05-3,4.6-14.51-1.82-.57.58-1.82L420.89,44.1l3.05,3,.58-1.81c-.43-1.29-2.88-1.21-.67-4.21l1.82.58.57-1.82,5.44,1.73C438.87,39.61,435.54,33.58,447.83,34.67ZM436.52,164.8c.91,2.54-.33.21,1.24,2.39,0,0-2.49,7-3,3.05l.57-1.81-1.81-.57C435.8,164.58,433.8,166.21,436.52,164.8Z"/><path class="cls-1" d="M321.8,2.92,324,8.19c7.44-2.31,11.07.46,17,1.16l3.52-1.47,3.22,2.78,7-2.93.73,1.76,1.76-.73,2.2,5.26,4.24.29,2.2,5.27,1.75-.73c2.71,2,3.31,3.66,5.42,8-2.43,3.61-2.17,3-.58,8.49,2.61.65.16-.33,2.49,1,2.91-2.47,2.62-4.06,7-2.93l.73,1.75,3.52-1.46-1,2.48c5.75,6.32,4.18,8.56,4.84,16.54l-1.76.73,6.45,5.56-2.78,3.22,1.46,3.51-1.75.74c0,6.47,2.42,6.55,5.12,12.29l-4.53,4L391.5,81l-1.76.74.73,1.75c-2.42,3.65-2.13,4.19-7.31,7.18l1.47,3.51-3.52,1.46-.29,4.25-7.75,1.17-.74-1.75-1.75.73.73,1.75-6,.45L366,104l-3.51,1.47.74,1.75-6.3,4.69.74,1.75-5.27,2.2.73,1.76-22.53,5.28-1.47-3.51c-1.37,2.31-.35-.12-1,2.48l-10.67,18.89,1.17,7.75-4.83,8.2.45,6-3.52,1.47c.84,5.27-.66,6.61-1.6,11l-1.76.74,3.67,8.78-1.76.73.89,12-1.76.73,1.17,7.76-2.78,3.22,1.47,3.51-1.76.73.45,6-2.78,3.22,1.46,3.51-3.8,5.71,1.47,3.51-2.78,3.23,1.46,3.51-3.8,5.71c-1.52,6.87,2.54,8.7-4.38,14.19-.92,2-18.48,9.64-22.83,9.53l-3.22-2.78-3.51,1.46c-4.06-6.1-16.9-13.53-22.84-15.21.08-6.55,1.41-13.41,2.19-19.46L242.15,232l3.8-5.71-1.17-7.76,2.78-3.22-2.2-5.27,2.78-3.22-2.2-5.26,1.76-.74-2.2-5.26,1.76-.74-5.87-14,2.78-3.22L242.71,174l2.78-3.22L244,167.3l1.76-.73-5.57-18.29-1.76.73-.73-1.75,1.76-.74-2.93-7c2.52-.94-.14,1.62,2.48,1,2.9,2.69.29-4.24.29-4.24-4.54-2.09-8.07-13.93-10.54-20.34-9.77,3.9-10.38.38-18,1.33l-1.47-3.51c-5.38.75-4.13,1.15-7.46-3.07l-1.76.73-2.93-7-1.75.73c-5-3-6.76-2.59-10.4-10.09,3.82-5.67-.42-5.65,5.85-10.69l-5.57-18.29a12.79,12.79,0,0,0,3.07-7.47l6-.44c-1.68-11.86,9.15-17,16.23-25.32l-.73-1.76,3.51-1.46-.73-1.76,4.24.29,1.32-6.73,5.26-2.2-.73-1.76c4.86-4.15,9.35-1.06,13-3.37L235,12.33,247.31,7.2,248,9l3.52-1.46.73,1.75,9.8-6.15.73,1.76,3.51-1.47.74,1.76,8.78-3.66,3.22,2.78,4.53-4,5.71,3.8L298.09.44l3.22,2.78L304.09,0l.73,1.76L308.33.29l3.23,2.78,3.51-1.47.73,1.76Z"/></g></g></svg>