<svg xmlns="http://www.w3.org/2000/svg" viewBox="0 0 1059.67 334.82"><g id="圖層_2" data-name="圖層 2"><g id="圖層_1-2" data-name="圖層 1"><path d="M561.51,162.61l0,.11Z"/><path d="M544.48.32c-9.75,2.51-67.08,15.29-85.69,19.43L458,18.32s-105.5,23.84-113.51,26.6-30.12,1.13-30.12,1.13-6,3.84-12.59,4.08S283,47.64,283,47.64l-5.3,5.41s-18.09,2.63-19.85,2.46-13.77-2-14.71-1.48-4.33,4.61-4.33,4.61S218.54,62.54,213,65s-14.41,4.49-18.68,5.54-12.71,5.26-16.86,8.11a25.69,25.69,0,0,0-6.24,5.91s-3.38,1.14-5.32-.24a32,32,0,0,0-11.68-5c-5.53-1.15-11.94,3.55-16.18,7.28a13.49,13.49,0,0,0-4.45,8.77c-3,.29-6.24,5.9-6.24,5.9l-13.62,5.47c-6.51,2.61-22.19,4.89-32.1,6s-15.71,2.58-19.09,3.73,2.62.56,8,.5,17.21.25,22-.16a41.1,41.1,0,0,1,9.18.33l.91,2.77s3.44-1.74,5.62-2.7,10.35-2.53,10.35-2.53l1.53,2.53a41.29,41.29,0,0,1-5.74,3.88c-2.82,1.5-8.91,8.91-11.09,9.88s-10.94-.51-14.5-.57-12,3.55-14.83,5.64-9.24,6.2-9.24,6.2-1.8-2.86-3.29-5.68a8,8,0,0,1-1-5.15L58,131.05a28.07,28.07,0,0,1-.51,5c-.41,1.15,0,0-1.82.41-3,.67,1.5,2.83,1.5,2.83s-1.48,2.82-3.51,2.32S38.59,138.3,35,135.86,21.43,114,17.9,110.67s-12.84-17-15-19-1.44-3.42-1.44-3.42L0,87.77a13.16,13.16,0,0,0,2.52,7.39c2.62,3.53,5.76,10.68,9.47,15.21A123.84,123.84,0,0,1,22.77,127.2c1.73,3.45,8.29,12.13,13.11,14.4s22,5.48,22,5.48L57,153.23a62.37,62.37,0,0,0-7.56,1.32c-2.15.67-1.8,3.09-1.8,3.09s-3.29.26-7.53,1-11.85,2.67-11.85,2.67a121.84,121.84,0,0,1,14.56,0,28.13,28.13,0,0,0,9.26-.55s-2.71,3.29-5.06,3.05-6.53,2.91-9.68,4.67-4.74,2.79-3.59,3.21S40,172,39.15,174,35,179.54,35,179.54a23.19,23.19,0,0,0,6.68-4.38,10.27,10.27,0,0,1,5.94-3,8.6,8.6,0,0,0-1.91,4.26c-.24,2.35-1.83,9.32-1.83,9.32s9.82-.2,12.53-.52,4.3-4.32,7.18-6.41a6.45,6.45,0,0,1,5.47-1.23,68.43,68.43,0,0,1-2.68,8.94,11.59,11.59,0,0,0-.18,7.71s7.68-2.49,12.77-2.87,7,1,7,1,.17-1.76,2.47-3.91c1.17-1.09,5.5-2.1,9.46-2.83a75.67,75.67,0,0,0-9.91,26.78c-2.11,13.43,1.33,28.18,5,37.26a216.93,216.93,0,0,0,13.19,27.1A111.37,111.37,0,0,0,140,313.56c18.41,12.84,31.58,17.58,40.1,19.57s20.29,1.67,20.29,1.67-14.07.48-38.71-10.72-44.37-29.86-56.13-52.27-16.26-34.23-15.72-54.64c.23-8.57,3.89-20.08,11.12-32,2.45-.39,4.27-.62,4.27-.62s11.06-.67,13.12-.46,5.82-1.79,8.53-2.11,17.39-1.52,20.65-1.49S158,180,158,180l1.12-2.26s6-.59,6.92-.79-.8,7.94-.8,7.94-6.95,1.08-10.89,1.87-16.74,4-20.21,6-8.89,5.64-8.89,5.64-5.53-1.15-7.5.73-2.09,6-2.09,6a25.77,25.77,0,0,1,3.74-4.68c1.62-1.32,3-.58,5.09-.37s2.61,3.53,2.61,3.53,0-3.27,2.47-3.91,2.91,3.56,2.91,3.56.07-3.56,1.36-4.62,3.7,4.53,3.7,4.53a21.65,21.65,0,0,1,.45-4.41c.41-1.15,2.59-2.11,3.79-2.29s1.65,4.33,2.33,3.5a8,8,0,0,1,2.23-1.56l1.12-2.26a17.12,17.12,0,0,1,4.44.15c1.15.41,2.06,3.18,2.06,3.18s1.68-4.88,3.06-6.82,3.12,1.5,3.12,1.5l3.24.32c-.15,4.45-4.78,12-6.31,15.41s-5.45,9.85-6.63,12.71a58.79,58.79,0,0,0-2.18,6.91l2.44,2.32s3.33-6.5,4.07-7.91,7.89-13.46,9.3-15.7,8.75-13.08,8.75-13.08l2.15-.68,1.17,3.09s.59-2.91.68-3.79,4.62-1.62,4.62-1.62l6.23,0s.86,3.35.09,5.06-1.15,2.56-1.15,2.56.85.38,2.21-1.27c1.77-2.15,1-7,1-7s3.39-1.14,6.12-1.76,12.39.95,14.86,0,6.53.07,6.53.07-10.6,4.87-12,7.11-8.24,8.08-11.33,12.23-10.54,10.22-12.19,11.84-3.74,7.65-3.74,7.65,4.06-2,5.86-2.09a32.89,32.89,0,0,1,6.14.92s5.65-6,8-9,11.19-16.7,11.19-16.7l3.94-.79s.29,3,.47,4.21a12.2,12.2,0,0,0,1.73,3.44s1.3-7,3.42-7.38a32.85,32.85,0,0,0,5.85-2.08,7.91,7.91,0,0,1,4.45.15l-4.48,3.11s-.62,3.21.38,5.09a2.1,2.1,0,0,0,1.65.93,87.24,87.24,0,0,1-8.93,10.54c-7.09,6.49-21.7,23.59-22.9,24.22s-9,10.09-9.69,13.43a3,3,0,0,0-.08.64c-2.35,1.27-4.3,2.36-5.21,3a11.61,11.61,0,0,0-4,5.29c1.24-1,3.61-1.91,7.25-4.2S200.7,253,200.7,253L183,270.89s6.23-1.65,10.1-6.18,13.33-11.93,16.59-14.25,18.28-12.18,18.28-12.18S216.56,257.22,212,268.51A62.4,62.4,0,0,0,207.57,290a221.31,221.31,0,0,1,8.23-21.53c5.42-12.34,18.15-29.63,24.23-37.35s14.42-22.8,21.82-28.5c6.84-5.27,10.91-5.64,12.91-7.91a4,4,0,0,0,2.05.23c1.24-.47,5.12-6.62,5.12-6.62l6.74.12c-.38,3.59-.75,8.33-1.49,11C286,204,292,200.39,298.7,198s19.18-6,19.18-6-6.43,11.11-12,21.16-15.62,23.44-15.18,30.3-2.81,50.5-1.58,57.07,2.11-5.85,2.79-8.82,1.67-39.24,3.4-45.13,10.53-21.68,10.53-21.68-3.84,19.32-5,27.16-1.3,31.71-.26,40.15,5,29.3,5,29.3-3.36-26.86-2.83-32.11S305,255.89,308,244.83s10.71-27.35,10.71-27.35,23.57-12,31.79-14.61S378,193.13,378,193.13s-3.42,11.41-2.45,16.81,1.76,5.11,3.26,1.47,6.23-5.44,6.23-5.44-1.57-7,.31-10.58a53.53,53.53,0,0,1,4.51-6.26l7.18.73c3.53.35,9.86-3.47,10.74-3.38s-6.74,7.94-6.95,10a3.54,3.54,0,0,0,3.8,3.65c2.08-.09,5.26-2.15,8.94-6.23s8.89-5.64,11.77-7.73a61.37,61.37,0,0,1,6.68-3.54,63.57,63.57,0,0,0,5,15.31c4.76,9.2,9.82,19.18,14.58,20.8s14.11-.86,14.11-.86l8.75-4,1.69-9.3a131.71,131.71,0,0,0-10.66,8c-2.93,2.73-5.7,4-8.48,1.42s-5.54-12.69-8.54-16.78c-2-2.73-3.08-14.64-3.57-22.27a52.14,52.14,0,0,1,5.79-3.05A8,8,0,0,1,452,173.3c2,2.85,14.55,17.38,19.35,22.41s25.76,18.9,25.76,18.9-9.56-18-13.27-22.56-9.37-4.74-10.23-7.48-1.05-8.44,1.39-10.09,5.41-12.34,5.41-12.34l2.73,10.51s6.65-2,11.79-4.12,13.89-10,13.89-10l3.11,3s-2.79,16.4-2.64,18.69,15.15,15.17,16.91,16.48,13.06,2.07,16.32-.25,4.85-6.71,4.85-6.71l-1.69-2.07s5.63.58,6.19-5.06a4,4,0,0,0-1.57-3.19s1.76,5.11-2.11,5.85-10.09-1.39-10.09-1.39-5.24-8.11-4.79-12.61-.24-27.69-.24-27.69l7.69,2.67-2,8.89,5.56-2.47L539.56,162l11.34-7.19-2.45,9.22s10.7-8.39,13-8.92c2.17-.48.3,6.5,0,7.47.25-.89,2.13-7.06,6.2-9.11C572.1,151.29,583,149,583,149l12.67,9.61,6.08-3.93s.37,15.19.21,20.48,19,18.21,23.63,21.33,23.66,9.59,27.6,8.09,22.75-11.36,22.75-11.36,8,11,12.15,14.87,11.36,7.59,16.28,3.91,17.9-12.21,19.14-13.23,1.62-12.34,1.62-12.34-1.84,3.23-6.87,4.24a22.17,22.17,0,0,0,3.09-8s-6.87,4.23-8.07,4.87-1.84-4.35-1.84-4.35l-4,2.62-5.22,6.68-12-1.21s-1.49-11.52-2.54-12.39,5.82-8.89,5.82-8.89,10.47,1.44,13.84,1.78,7.21-3.82,7.21-3.82l1.72,9.26s3.12-8.4,3.76-11,6-14.55,6-14.55,14,12,19.43,10.29a43.06,43.06,0,0,1,20.15-.62c6.68,1.43,14.33,4.48,21.87,1.07s9.09-3.64,11.71-3.37,49.59,11.81,71.25,3.76c0,0,6.63,17,33.15,20.77,0,0,61.88,40.34,80.82,47.94s42.46,22.46,47.94,20.74-.1-14,2.23-18.34,4.28-12.46,0-14.79-14.44-3.35-14.33-4.47a20.17,20.17,0,0,0-.71-4.24s9.27-1.72,10.93-10.65,3.8-18.94,4.21-23.07,3.8-11.37,3.8-11.37l5-4.05s10.91,8.3,13.77,2.53l2.59-6.94s-32.52-12-49.25-19S928.7,91.32,920.89,89.77s-32.89-12-37.58-14.39-80.08-36.49-87.92-37.66-37.7-9.48-42.84-11.14a225.45,225.45,0,0,0-34-8.35C703.59,16,556.15-2.67,544.48.32Zm-345,249.12c-2.41,1.56-7.89,4.42-12.55,6.9,1.33-1.5,3.23-4,5.31-6.49a34.2,34.2,0,0,1,13.44-9.26C207.68,240,203.59,246.82,199.53,249.44Zm327.63-67.06c1.92,1,6.5,3.19,6.5,3.19l1.92,3.47-1.05.4c-.75-.07-7.9.72-7.9.72s-3.85-4.43-5.2-6.08a4,4,0,0,1-.38-3.83A50.11,50.11,0,0,1,527.16,182.38Zm145.69-54.3c2.6,1.78,6.27,5.44,8.27,5.64s6.83,5,6.83,5-11.09,9.75-13.89,12.5-5.59,10.3-5.59,10.3l-1.05,2.92c-1,2.93.64,18.76.64,18.76l-2.56.25.81-5.48s-4.36,3.1-4.55.05a12.63,12.63,0,0,0-2.2-5.78l-4.11,10.7s-12,.82-16.64-.41-10.15-7.08-10.52-8.38l-5.17-6.34s2.87,1.56,3.6,1.88.7-7,1.88-8.65,8.16-8.27,8.16-8.27,5.43-1.23,8.66-.65,6.6,2.18,9.45-1.07,4.11-8.17,7.16-8.37,6.43-6.18,6.43-6.18S670.25,126.31,672.85,128.08Z"/></g></g></svg>