<svg xmlns="http://www.w3.org/2000/svg" viewBox="0 0 920 174.57"><g id="圖層_2" data-name="圖層 2"><g id="圖層_1-2" data-name="圖層 1"><path d="M588.43.17a143.66,143.66,0,0,0-23.92,3.06c-.92.09-3.33-1.21-14.64-1.21s-17,0-24.75.65a139.77,139.77,0,0,0-13.91,1.86s-.55-.56-8.52-1.21S481.74,1.84,480,2l-1.77.19L475.43,4.8a13,13,0,0,0-5.56-2.13A24.65,24.65,0,0,0,461,4.15c-3.24,1-6.49,2.41-6.49,2.41s-4.54,7.7-5.28,9.27a16.67,16.67,0,0,0-1,2.69,6.56,6.56,0,0,0-4.91-3.61c-3.71-.65-21.6-4.27-29.2-4.36s-37.63-2.22-42.45-2-11.59-.18-12.43.28-2.5,1.3-2.5,1.3-13.25-.09-18.26-.19-9.08-1.48-10.85-.92-2.78,1.67-3.7,1.67-16.78-.56-16.78-.56-3-1.3-4.26-1.21-.56,2.88-.56,2.88-5-.37-6.95-.56-4.27-.55-5.38-.65-5.28-.74-6.4.1-2.68,2.31-2.68,2.31-7.42-1.94-9.64-1.2-4.08,3-5,3.52-2.32.09-4.54.74a39.81,39.81,0,0,0-6.3,2.41c0,.19.74-4.45-.93-7.6a12.59,12.59,0,0,0-4.17-4.82c-1.21-1-2.51-2.32-3-2.78s1.95,6.12,2.32,6.77c0,0-14,1.85-16.69,2.13a27.33,27.33,0,0,0-8.62,3.15c-1.94,1.11-4.26,1.76-2.32,1.58s5-.19,6.22-.56,7.13-2,9-2.32,12.6-.28,12.6-.28-.37,10.2-.27,12.06a4.89,4.89,0,0,1-.19,2.31s-2.69-1.94-2.41-.37.46,2.6.93,4.73a30,30,0,0,1,.46,4.45c.09.55-2.69-.93-3.34.18s-3.8,1.58-5.19,1.67-1.57,1.3-3.71,2-3.33.93-3.89.56-1.39,2.22-1.39,2.22l-1.85.09-.74,2c-3-.19-7.05-1.67-8.72-1.67a23,23,0,0,0-4.45.74l-8.9,3.15-24.1-5.37-26.14-5.56c-2.59-.56-15.94-3.53-17.24-3.53a9.52,9.52,0,0,1-2-.18,16.84,16.84,0,0,0-3.89-1.67c-1.3-.19-2.6.19-3.15,0a34.78,34.78,0,0,1-3.34-2.23s2,3.34,3.34,3.9,5.19,2.41,5.19,2.41-.19,2,.93,2,10.19-.19,13.16.74,12.6,2,15.76,2.78,18.54,4.63,18.54,4.63L201.33,50l-8,4.45s-2.22-.19-2,.93-3.15,2-4.45,2.41-7.41,2.41-9.64,2.22a17.38,17.38,0,0,1-4.45-1.11l.19,1.67s-4.45.18-5.56,1.48c0,0-6.12,1.3-8.16,2.41a60.44,60.44,0,0,1-6.12,2.59s-8.34,2.79-10.75,3.53A155,155,0,0,1,122.91,74c-7.23.75-16.5-.37-25.77.19S76,75.44,65.63,79.7c0,0-15.39-2.59-23.55-2.78a73.11,73.11,0,0,1-18-13.35A67.82,67.82,0,0,1,11.12,46a13.27,13.27,0,0,1,.1,2.13,7.71,7.71,0,0,1-.37,1.11S16.5,59.31,21.41,64.31s15,12.33,15,12.33l-7.23.65a54.7,54.7,0,0,0-7.6,2.87C19.84,81,4.82,87.77,3.43,88.6S0,91,0,91s6.86-2.87,8.34-3.52,17.8-7.42,19.1-8,14.83-.28,14.83-.28L54.6,85.63s-10.66,7.42-14.37,9.92A145.64,145.64,0,0,0,26.79,107c-.56.75-4.73,5.66-5,6.31a1,1,0,0,0,.37,1.11,5.71,5.71,0,0,1,1.12-.56c.55-.18.92-.18,1.2-.83s4.36-5.38,4.36-5.38,9.27-8.9,12.51-10.84,15.3-10,15.3-10,10.1,4.45,11,4.91a12.88,12.88,0,0,1,2.22,1.67s-4.08.74-5.37,1-11.87,2.69-14,3.33a33.54,33.54,0,0,1-6.68.93c-2,.19-2.22.37-2.68.37s-.84,1.3,0,1.67a17.39,17.39,0,0,0,5.65.28A38.56,38.56,0,0,0,53,99.82c1-.37,11.68-2.69,14.74-3.25s8.16,0,10.1-.09c0,0,8.62,4.17,22.25,9s20.76,6.77,29.48,7.6,30.31,0,30.31,0a4,4,0,0,1-1,2.13c-.83.74-2.78,2-2.78,2l6.21-1.57s5.65.27,7.14-.19,12.6-3.15,12.6-3.15l13.35-2.41-1.2-2.6-1.67-1.66,8-2.23,1.76,1.21,8.71,7.5s-14.73,5.57-16.31,6.49a32.81,32.81,0,0,0-3.8,2.41c-.19.28,1.48.74,1.48.74s-17.89,4.18-21.78,4.73-13.35,2.41-13.35,2.41-1.39-.41-6.4,3.34a18.14,18.14,0,0,0-4.54,4.73l-.74,1.11s-8.06,9.55-9.73,11.59-6.58,6.67-7.51,8.62a26.23,26.23,0,0,0-1.48,5.74,21.77,21.77,0,0,1,2.22-3,15.09,15.09,0,0,0,3.06-3c.74-1.2,4.45-5.65,5.38-6.21a4.72,4.72,0,0,1,1.76-.65s-6,7.23-6.77,8.25-2.59,2.88-3.06,3.8-.83,1.21-1,1.67,1.49,0,2.13-.65,7.42-7,8.81-8.71,7.79-8.34,9.64-10.57,5.19-6.3,5.75-7,3.61-1.39,4.17-1.76,4.82-1.49,7-2.88,9.64-3.24,13.45-4.54A119.93,119.93,0,0,1,193,125.59a16.66,16.66,0,0,1,3.62-.1c.18.1-.1,1.49-.1,1.49a33.47,33.47,0,0,1-4.26,1.66c-1,.19-3.52,2.14-5,2.79a17.78,17.78,0,0,0-4,2.22,14.1,14.1,0,0,1-3.25,2c-1.39.65-2.87,1.2-3.43,2.41a8,8,0,0,1-1.94,2.32s-10.29,7.41-11.4,9.82-1.86,6-1.58,6.77.83.18,1-.09,2.5-1.49,3.71-2.6,4.45-3.61,5.37-4.63a10.69,10.69,0,0,1,2.6-1.86,11,11,0,0,0,.19,2.88c.27.46,1.29.64,1.29.92V153a14.12,14.12,0,0,1,1.12-1.76c.46-.55,2.31-.55,2.31-.55a20.3,20.3,0,0,0-1.85,2.68c-.37.84-3.06,2.69-3.06,3.9s1.2.37,1.2.37,1.67-1.95,2.23-2.69a19.33,19.33,0,0,1,1.76-1.85,8.47,8.47,0,0,1-.74,2.68c-.46.56,1.3-1.11,1.85-2.13s3.15-2.5,3.15-2.5-1.11,2.13-2.31,4.17c0,0,3.89-3,4.72-4.17s1.67-1.21,1.67-1.21l.47,1.3a3.28,3.28,0,0,0,1.48-1.57c.37-1,5.28-3.43,6.21-4.18s5.38-3.33,5.65-3.89-.18,1.86-.74,2.5-5.74,5.66-6.67,6.4,4.36-2.41,5.38-3.34a49.46,49.46,0,0,1,8.8-4.82c2.78-1.11,14-5.1,14-5.1s8.25-3,9.64-3.42c0,0-13.63,8.62-15.39,9.26s-2.5,1.77-4,2.6-3.34,1.3-4.45,2.32-1.67,2.31-2.69,4-5.29,4.73-5.29,6,.28,3.71.28,3.71,1.67-1.39,2.78-2.41a10.73,10.73,0,0,1,3.25-2c.46-.1.09,1.57-.56,2.5l-.65.93a23,23,0,0,1-1,3s1.39.74,3.8-.83l2.41-1.58s3.9-3.15,4.64-4.45a15,15,0,0,1,2.13-3.43,3.74,3.74,0,0,0,2.32-1c1.11-1,11.21-8.15,12.6-9.27,0,0-2.5,5.2-2.78,6.86s-.55,3.43-.27,3.43a12,12,0,0,0,4.63-.74,31,31,0,0,0,5.38-2.69c.92-.74,5.93-4,5.93-4l15.57,14.27s1.76,2.32,2.32,2.41,1.2-.74,1.85-1.11a5,5,0,0,0,1.3-1.48l-16.78-15.95,6.49-6.21,8.9-3.24,5.38-.65,10.19,4.64a21.73,21.73,0,0,0,5,1.66c3.06.65,30.68,11.22,30.68,11.22a7,7,0,0,0,5.84,1.85c3.71-.46,29.66-4.35,29.66-4.35s.37,1.39,2.6,1a41.28,41.28,0,0,0,5-1.49c.28,0,29.39-3.52,33.65-4.72a45.18,45.18,0,0,1,9.74-1.3l3.15,1.48-1.49-2.22,5,.28,4.54,1.57,1.39-1.39-2.87-1.3,2.78-1.76a7.59,7.59,0,0,0,3.8-2.13c1.67-1.76,19.47-9.36,19.47-9.36l13.53-6.58s-10.48,10.1-10.57,13.9.84,8.9,9.92,12a7.25,7.25,0,0,0,5.38,6.12c5,1.39,9.82,0,10.75-1.21a13.2,13.2,0,0,0,2.32-4.36c.27-1.29.46-5.74.46-5.74s2.69-2.32,3.24-4.82c0,0,4.27,8.25,7.7,10.19s5.37,3.06,8.43,2.88,10.66-4.73,11.78-7.79a9.46,9.46,0,0,1,2.41-4.08s-1.3-6.12-1.49-7-3.71-2.32-3.71-2.32-4.17-1-4.72-.37a9.3,9.3,0,0,1-1.3,1.2,3.11,3.11,0,0,0-2-.37,2.82,2.82,0,0,1-2.5-.46c-.84-.56.65-1.67.92-2.6a65.16,65.16,0,0,1,4.18-7.23,17,17,0,0,1,4.26-3.7c1.58-.93,4.73-3.43,4.73-3.43s19.74.37,22.24-.19,17.62-7.88,17.62-7.88,5.74-.28,7.13-1.2a64.93,64.93,0,0,1,6.12-3l-6.58,5.47s-6.77,3.43-8.34,6.12-15.57,12.6-20.49,23-6.58,15.85-4.63,21.13,8.53,4.64,12,1.21a20.73,20.73,0,0,0,5.74-11.68,41,41,0,0,0-.09-6.21c0-1.77.74-3.25-.56-4.18a4.62,4.62,0,0,1-1.57-1.57s4.54-4.64,6.39-6.12c0,0-.74,7.6-1.39,9.64s-2.41,2.32-1.29,6.58,1.39,4.27,3.42,5.19,7,.65,8.44-1.29.19-2.23,4.36-10.94,8.62-13.17,9.92-14.28a57.9,57.9,0,0,1,5.46-3.52s6.49-2.23,9.09-3.06,7.14-2,9.73-3.24,3.8-1.21,5.19-2.14,4.08-2.87,5.47-3.61,5.84-.93,5.84-.93-3.52,5.38-4.36,6-4.07,1.48-12,9.08-12.15,11.87-11.31,19.47,9.45,11.58,14.83,4.91c0,0,1.2,1.76,2,1.85a8.07,8.07,0,0,1,1.29.28s.84,4,1.12,5.56a18.27,18.27,0,0,0,3.7,6.4c1.12,1,8.44,10.66,8.44,10.66a48.39,48.39,0,0,0,6.77,4.36c2.22.92,2.59.92,3.61.55a3.73,3.73,0,0,0,1.58-1.11l.37-.37-1.86-.19s-1.11-1.48-1.85-2.5a7,7,0,0,1-1-2.32s2-.74,2.22-1.48-1.66-2.5-2.31-2.87c0,0,.46,1.48.55,1.85s-1.76-.18-1.76-.18a27.38,27.38,0,0,0-1.11-3.25c-.37-.65-1.67-.55-2.32-1.11s-2-4-2.87-5.38a17.52,17.52,0,0,0-2.23-2.78,23.66,23.66,0,0,1,3.16-2c1.2-.55,2.31-.09,2.59-1.57s-2.13-12-2.5-13.81-.65-6.59-1-9a33.22,33.22,0,0,1,.09-6.58l1.48-.46a15.66,15.66,0,0,0,5.2.46c1.94-.37,4-1.2,4.35-1a3.83,3.83,0,0,0,4.27.1c1.94-1.39,9.54-3.8,9.54-3.8s4.08.92,5.57-.28,4-1.12,5.46-2.23,6.49-4.35,6.49-4.35a17.55,17.55,0,0,0,5.19-1.3c2-1,4.55-2.23,4.55-2.23s2.31.93,2.87,2.41.93,2.23.93,2.23a9.58,9.58,0,0,1,.65-4.17,6.1,6.1,0,0,1,2.31-2.88c.28,0,2.13,2,2.13,2.69s-5,6.49-8.71,11.59-3.61,16.78-1.85,22.06,8.43,11.22,14.83,12.88,9.92,1.12,12.14-.83,6.12-7.69,5.19-10.85-1.11-5.65-3.24-6.95-4.27-1.85-5.93-1.2-3.8,1.76-3.8,1.76a16.49,16.49,0,0,1-1.3-2.78c-.28-1-.19-2.23-1-3.06a14.87,14.87,0,0,1-1.58-2,18.41,18.41,0,0,0,5.84-3.52,8.62,8.62,0,0,0,1.86.93c.37,0,.09,2.31.83,2.22s2.6.47,2.69-.09,2.32-1.85,2.32-1.85a12.42,12.42,0,0,0,3.61,1.94c1.58.37,4.17.84,4.73.09s-.56-3.52-.56-3.52,2.51.37,3,0,1.67-3.71,2.32-4.17-.75-1.48-.28-2.41a28.88,28.88,0,0,1,2.13-3.06l1.67-1.11s2,1,2.13,2.32,1.11-3.62-.28-6.31a20.88,20.88,0,0,0,4.27-2.22,2.92,2.92,0,0,0,1.29-2.32,7.52,7.52,0,0,0,2.23-.55s12.51,3,13.62,3.33c0,0-1.2,2.51.93,2.13s3.71.28,5.19.47a17.23,17.23,0,0,0,3.53-.09s-2.23-.84-2.6-1.86a16.51,16.51,0,0,1-.28-3.89s2.32-.93,3.15.74c0,0-.92-3.15-1.48-3.52s-.37-3.25-.37-3.25l.56-5.19,14.46,1.11a15.89,15.89,0,0,0,10,4.92,238.4,238.4,0,0,0,24.84.37,126.8,126.8,0,0,1,17.61.55s7.32,5,9.55,5.38a10.38,10.38,0,0,0,4.54-.46,14.46,14.46,0,0,0,7,3.43c4.64,1,17.8,3,22.9,3.7s32.26,3.9,37.91,4,14.74.65,18.26.09,7.7-.65,10-1.48a17.43,17.43,0,0,0,5.29-2.6,5.57,5.57,0,0,0,1.48-1.66l-2-.47-1.2-1.3s1.94-.55,3.33-1.11,3.34-1.76,3.34-2-.83,1.12-1.76-3.33-4.91-20.58-16.78-26c0,0,3.43-7.23-.18-9.92S889.41,59.49,886,59.4s-9,.19-9,.19-4.17-3.53-7.42-4.08,9.09-1.21,11-1.49,4.82.38,4.55-.64a7.49,7.49,0,0,0-1.49-2.32s2.69.09,2.51-.74-2.51-1.58-3.25-2,2.13-1.39,2.13-1.39-2-1.12-7.69-.74-13.9,2.13-23.08,2.41-19.19.46-30.87,1.29-17.89,1.49-19.09.84a3.28,3.28,0,0,0-3.16-.28c-.92.46-1.85,2-2.78,1.11s-.74-1.76-2.22-1.57a7.5,7.5,0,0,0-2.78,1s-8.71-13-21.88-12.89-34.76-2.87-37.35-3.43-8.53-7.41-19.66-10.75-24.74-3.8-27.43-4.27-8.35-4.72-18.36-7.78S648.12,6.47,640.06,6s-11.86-.84-13.81-1.3S622.63,3,620.59,2.39A137.63,137.63,0,0,0,588.43.17ZM282.3,132c.84.69,3.62,1.11,4.87,1.11a14.59,14.59,0,0,1,4,.42c1.67.41,3.06-.42,3.89-.56a37.28,37.28,0,0,1,4.32-.28h3.33v1.53l2.09-1.25a3.07,3.07,0,0,1,2.36-.28A18.09,18.09,0,0,1,311,134s-3.62.7-4.59.7-1.81,2.09-1.81,2.09a27.05,27.05,0,0,1,4.17.41c2.36.42,6-.14,7.93,0s9.59-.28,9.59-.28c-.28,1.81-3.34,2.92-3.34,2.92a6.91,6.91,0,0,0,2.92-.14c1.67-.41,5.29-1.39,5.29-1.39a4.77,4.77,0,0,0,2.78.56c1.25-.28,8.2-.14,8.2-.14s3.34-1.81,4.31-2.5a9.34,9.34,0,0,0,2-2.36,13.58,13.58,0,0,0,2.5.27c1.25,0,5.29.42,5.29.42l-3.2,2.78,4.86-1.81a6.31,6.31,0,0,1,1.39-.14c.84,0,7.93-1.66,7.93-1.66L358.78,138l5.84-1.67-1.95,2.08,3.34-2.36a22.17,22.17,0,0,1,3.89-1c1,0,3.89,2.22,3.89,2.22s9.32.7,9.74.7-16.83,3.19-16.83,3.19-30,2-34.06,2.65-6.68.83-8.21,1.25a14.36,14.36,0,0,1-5.14.55c-2.23-.14-33.09-10.15-33.09-10.15s-3.48-1-4.31-1.8-2.65-.7-3.2-.7C278.69,133,281.47,131.33,282.3,132Zm181.87,16.82c-1.11,1.11-2.5,2.09-3.89,1.67s-3.48-2.64-3.48-2.64c1.25.28,9-3.48,9-3.48S465.28,147.74,464.17,148.85ZM236.56,122c-1.95.14-5.29.69-5.29.69l4.73-3.34a21.79,21.79,0,0,0,5.7.14c2-.41,2.92-1,4.87-.55s7.51,1.81,7.09,1.81-7.79-.14-9.73.27A66.75,66.75,0,0,1,236.56,122Zm210.93,16a6.92,6.92,0,0,1,1-4.87C449.29,132,454,127,454,127l-2.5,6.26c-.84,2.08-1.25,7.51-1.25,7.51S447.9,139.12,447.49,138Zm49.91-7.65c1.39,1,2.37.56,2.51,2.08s.41,2.79,0,3.76a9.16,9.16,0,0,1-2.37,2.36c-.28-.41.28-4.31-.83-6a6.33,6.33,0,0,0-2.37-2.22A3.07,3.07,0,0,1,497.4,130.36Zm-21.27-16.27a22.2,22.2,0,0,0,5.14.14s-1.11,1.53-2.36,3.62A53.65,53.65,0,0,0,474,128a28.86,28.86,0,0,0-1.25,5.28s-2.08-1.67-3.06-2.36a8.71,8.71,0,0,0-3.06-1l2.51,2.64s-1.12,2.09-1.39,2.78-2,1.12-2.92,1.95-3.9,3.2-4.59,3.76-3.34.13-3.34.13-1.11-2.22.28-5.7,4.31-11.82,4.31-11.82A30.73,30.73,0,0,1,465.7,119c2.23-1.95,4.73-5,5.28-5A22.18,22.18,0,0,1,476.13,114.09ZM528.83,138c-.14,2.22-.42,8.62-1.26,10.84s-1.25,3.48-1.25,3.48a8.63,8.63,0,0,1-3.61-2.92c-1-1.53-1.25-1.95-.7-3.62s1.12-4,2.51-5.84,2.64-3.75,2.64-3.75S529,135.78,528.83,138Zm61-8.76a40.32,40.32,0,0,0,.27,6.53,4.47,4.47,0,0,0-4.45-1.67c2.09,1.53,0,2.92-.27,4.87s-4.18,1.92-4.31,1.53c-1-2.78.76-5.57,2.5-7.79a23.11,23.11,0,0,1,6.95-5.84A9.45,9.45,0,0,0,589.87,129.25Zm90.37,9.59s-2.92-.28-3.19-1.67a2.92,2.92,0,0,1,1.11-2.5S680.24,135.23,680.24,138.84ZM48,80.16c5,.28,13.81,1.77,13.81,1.77l-5.19,2.59Zm127.36,27.16a127.45,127.45,0,0,1-32.81,3.53c-15.3-.19-19.93-1.58-34.12-5.56A188.59,188.59,0,0,1,83.24,96.2s3-.56,5.75-.83,13.81.74,19.56.74,6.3,1.11,6.3,1.11l1.67,1.85s.92-1.66,1-1.94,1.11-.09,1.11-.09l.56,2,1.48-2.5s2.32.28,2.78.28.19,1.2.19,1.2l2.87-1.57a7.68,7.68,0,0,1-.56,2.69c-.55,1.29.93,2.5.93,2.5-.74-1.39.28-2,.28-2l.92-.27a5.34,5.34,0,0,0,1.4,2.31,4.39,4.39,0,0,1-.19-4.35l3-.47c-2.23,1.3-1.58,2.78-.75,4.08s1.67.37.84-.56c-1.45-1.6,1-2.68,1-2.68l1.48-.28a4,4,0,0,1,.09,2l-1.39,2.78,3-2.41,2.13.09-.09,2.5s2.87-2.41,3.61-2.5,6-.46,6-.46l-7.69,5.84s4.07-2.14,7.69-3.53a14.73,14.73,0,0,1,5.75-1.3c.37,0-.47,1.3-1.3,2s-6,5.94-4.27,4.64,8.16-3.62,8.16-3.62l-5,5.19s4.54-3.24,6-4.07a11.34,11.34,0,0,1,4.17-.93s-1.67,2-2.22,2.69-2.32,2.69-2.32,2.69c1.58-.1,1.95-1.3,2.32-1.77s.83-.46,2.78-2.27a47.3,47.3,0,0,1,6.81-4.45s7.37.42,6.95.84a31.36,31.36,0,0,1-5.14,3.89,3.08,3.08,0,0,0-1.81,2.23,7.48,7.48,0,0,1,2.92-2c1.53-.42,3.62-1.11,7-2.09s5.84-1.94,7.65-2.36,1.67.7,2.5,1A99.17,99.17,0,0,1,175.38,107.32Zm84-.37c-.74.19-8,2.6-8,2.6a62.12,62.12,0,0,1-6.49-.93,5.66,5.66,0,0,0-4.63.56c-.93.55-3.53.18-3.53.18,6.68-3,9.83-2.41,11.31-3a9.46,9.46,0,0,1,5.56-.19c1.67.56,8.53-.74,8.53-.74A17,17,0,0,1,259.36,107Zm-17.05-5.19s-5.94,1.67-10.76,3.15-14.46,4.64-14.46,4.64c-.74-.19-7.78-6.86-7.78-6.86L216.72,99l9.83-1.85,2.78-.93a1.63,1.63,0,0,0,2,.19,13.28,13.28,0,0,1,4.08-1.12s-2.79,6.49-3.34,7.42,5.19-4.82,5.19-4.82L238.78,99s2-1.3,3.71-2.22.56,1.85.56,1.85l3.33-.37Zm234.1-3.66c-.07,0,.16-.15.32-.28A32.36,32.36,0,0,1,482,94.21,23,23,0,0,1,485.31,93s.41,1.39,2.22.41a11.68,11.68,0,0,1,4.17-1.11A111.82,111.82,0,0,0,476.41,98.1ZM74.53,92.49s-13.72-5.93-15.21-6.67A60.5,60.5,0,0,1,65,83s10.47,1.39,17.61,1.57,23,2.69,30.41,1.76,24.28-4.08,24.28-4.08-14.83,6.31-23.82,7.6-14.09,1-20.95,1.3A174.13,174.13,0,0,0,74.53,92.49ZM523.82,90s2.78-2.65,3.75-2.78,2.37,2.64,2.37,2.64A14.11,14.11,0,0,0,523.82,90ZM579.72,82a29.44,29.44,0,0,1-2.23,3.9s2.64,1.94,2.36,2.92-5.56,2.08-6.11,2.08c0,0,1.53-4.45,2.5-8.06s3.48-4,3.48-4A25.6,25.6,0,0,1,579.72,82ZM120,80c-10.2,1.11-15,1.39-18.63,1.57s-20.4-.27-29-1.2c0,0,4-1.58,13.07-2.6s20.49.1,26.05.1a127.4,127.4,0,0,0,14.65-1c4.07-.47,12.79-1.21,12.79-1.21A88.16,88.16,0,0,1,120,80Z"/></g></g></svg>