<svg xmlns="http://www.w3.org/2000/svg" viewBox="0 0 358 1035.47"><defs><style>.cls-1{fill-rule:evenodd;}</style></defs><g id="圖層_2" data-name="圖層 2"><g id="圖層_1-2" data-name="圖層 1"><path class="cls-1" d="M358,974.8h-.18v-.35h-.18c-.27-.64.25-.19-.35-.71v-.18h-.36v-.18l-1.42.18a3.52,3.52,0,0,1,0,2.13h-.17l-.18.53c-.56.15-.84.57-1.24.71h-1.78v.18h-1.24c-.31,0-.35.18-.35.18l-2-.18h-2.13v-.18h-.71v-.17h-.54v-.18H344v-.18h-1.59v-.18h-.54v-.17h-1.95v-.18h-.71v-.18h-.53v-.18h-.53v-.17h-.71v-.18h-.36V975h-1.24v-.18h-.53v-.17H334v-.18h-1.42v-.18h-.18v.18H331.2a5.31,5.31,0,0,0-2.48-.36,5.36,5.36,0,0,1-2.84.36c-1.86-.53-4.21-.71-6-1.24l-3.37-.18v-.18h-.36v-.18h-.53v-.17H314v-.18h-.71v-.18H312V972h-.35l-.18-.36h-.36v-.18l-.71-.17v-.18h-.53v-.18h-.35v-.18h-1.07v-.17H308v-.18h-.35v-.18l-1.07-.18-.18-.35-1.24-.18v-.18h-1.24v-.17h-1.24V969h-1.95a41,41,0,0,0-5-1.24c-.29-.05-.32.17-.35.17l-2.13-.17a.48.48,0,0,1-.53.17v-.17l-2.31-.18v-.18l-1.07-.35v-.18H289v-.18c-.25,0-.26.16-.71.18-.35-1.18-.71-2.36-1.06-3.55l-.54-.17c-.15-.13-.12-.35-.35-.54a4.58,4.58,0,0,1,.18-1.59h1.06v.17c1,0,.82-.48,1.42-.88,0-1.83-.78-2.09-2-2.66,0-1,.18-.81.89-1.07,0-.95-.12-1.74-.18-2.48-.23-.1-.43-.07-.71-.18v-.18h-.53v-.17h-.36l-.18-.36-.53-.18-.18-1.06.36-.18.18-.89H286v-.17h-.17c-.19-1.08-.06-1-.89-1.42v-.18h-.71c-.15-.07,0-.23-.53-.35v-.36h-.36l-.17-.89H283l.18-.53h.17a3,3,0,0,0-.53-1.59c-.2-.3-.11-.25-.53-.36v-.18a1.42,1.42,0,0,0-.53.36H281c-.39-.19-.89-2-1.07-2.49l-1.95-.35v-.18l-.89-.71c-.16-.23-.12-.7-.35-.88h-.36c-.05-.12-.11-.24-.17-.36h-.36l-.18-.35h-.35v-.18h-.53c-.18-.24-.36-.47-.53-.71h-.36l-.18-.36-1.59-.53-.54-.71-2.3-.17V937l-.71-.18v-.18h-1.77v-.17l-.71-.18v-.18a.46.46,0,0,0-.54.18l-1.95-.18v.18H262v-.18h-.89l-.18-.35h-.35v-.18l-.89.18-.18.71h.18a3.15,3.15,0,0,0,1.24,2.12l.36.18v.36l.88.71.18.35h.36c.17.24.35.47.53.71l.71.18c.06.12.12.23.17.35l.71.18v.18l.71.18v.17l2.66.71.18.36.71.17.18.36.71.18.18.35h.35v.18h.36c.11.18.23.35.35.53h.35l1.6,1.77h.36l.17.36.71.53V948l.36.17v.36l.35.18v.35l.36.18c.12.35.23.71.35,1.06H276v.36h.18a.44.44,0,0,1-.18.53v4.26h-.18v1.06h-.18v.53h-.17v.54h-.18v1.24h-.18V959c-.68-.19-.53-.4-.88-.89l-.54-.36c-.43-.6-.1-.51-.88-.88v-.36h-.36v-.35a1.45,1.45,0,0,1-.71-.36v-.18l-.53-.17-.18-.36h-.35v-.17l-.53-.18-.36-.53-.71-.18-.18-.36-1.06-.88-.89-2.49c-.4,0-.47,0-.71-.17V950h-.35l-.18-.36h-.35l-.18-.35-.71-.18v-.18l-.36-.17v-.36l-.88-.71v-.35l-1.07-.89v-.35l-.35-.18v-.36l-.36-.17V945h-.17l-.18-.53-.36-.18v-.35a8.5,8.5,0,0,0-1.06-.71h-.36c-.23-.3-.47-.59-.71-.89l-.35-.18v-.35l-.53-.36v-.35l-.71-.53v-.36l-.36-.18v-.53h-.17v-.35h-.18v-.36l-.36-.18-.17-.7h-.18v-.54h-.18V937h-.18c-.11-.53-.23-1.07-.35-1.6h-.18v-.35h-.18v-.54h-.17l-.18-.71H254v-.53h-.17l-.18-.71h-.18v-.53h-.18c-.06-.35-.12-.71-.17-1.06H253v-.36h-.18v-.53h-.18c-.06-.36-.11-.71-.17-1.06h-.18v-.36h-.18l-.18-1.06h-.17v-.89h-.18V926h-.18v-.53h-.18V925H251v-.71h-.18v-.89h-.18c-.18-.83-.35-1.66-.53-2.48H250v-.54h-.17l-.18-1.24h-.18c-.12-.77-.24-1.54-.35-2.31h-.18l-.36-1.06h-.17v-.35h-.18V915H248v-.35h-.18v-.36h-.17V914h-.18v-.36h-.18a.45.45,0,0,1,.18-.53v-2.13c0-.35-.18-.35-.18-.35v-4.44h-.18v-.71h-.17v-.53h-.18v-.53h-.18l-.18-.71h-.17v-.36h-.18v-.53h-.18l-.18-.71h-.17v-.53h-.18c-.12-.36-.24-.71-.35-1.07h-.18v-.35h-.18v-.36h-.18v-.53h-.17l-.36-1.06h-.18v-.36h-.17l-.18-.71-.53-.35-.18-.71-.53-.36v-.35l-.54-.36v-.35l-.35-.18v-.35l-1.6-1.42v-.36l-.35-.17v-.36l-.71-.53-.18-.71h-.18c-.11-.35-.23-.71-.35-1.06h-.18l-.18-1.07h-.17v-.35h-.18L237,887h-.17v-.53h-.18v-.53h-.18c-.12-.65-.24-1.3-.35-1.95h-.18v-.71h-.18v-1.6h-.18v-1.06h-.17v-.54h-.18v-.53h-.18v-.35h-.18v-.54h-.17l-.36-1.06h-.18v-.35H234l-.18-.71-.36-.18c0-.24-.11-.47-.17-.71h-.18v-.36h-.18v-.35h-.18v-.53l-.53-.36v-.35l-.35-.18v-.35h-.18l-.18-.54-.35-.17v-.36l-.71-.53-.18-.71-.35-.18v-.35l-.36-.18v-.36h-.18v-.35h-.17v-.53H229v-.36h-.18c-.12-.35-.23-.71-.35-1.06h-.18V867h-.18v-.36H228v-.53h-.18l-.89-3.73h-.18c-.06-.23-.11-.47-.17-.71h-.18v-.53h-.18v-.35H226v-.53l-.88-.71v-.36l-.54-.35v-.36l-.88-.71v-.35l-1.95-1.78v-.35l-.54-.36v-.35l-.35-.18-.36-1.06h-.17v-.36h-.18l-.36-1.06h-.17l-.18-1.07h-.18v-.53h-.17l-.18-1.24h-.18v-.71h-.18v-.71h-.17v-1.24h-.18v-.53H218v-1.07h-.18v-.89h-.17l-.18-5.49h-.18l-.18-.71-.35-.18-.36-1.07-.35-.17v-.36h-.18v-.35h-.18v-.36l-.35-.35v-.36l-.35-.17v-.18l-.36-.18v-.35l-.71-.54v-.35l-.53-.36c-.68-.68-1.26-1.65-2.31-2v-.35c-.77-.21-.6-.56-1.06-.89h-.36c-.17-.24-.35-.47-.53-.71l-1.42-1.24c-.46-.46-.68-1-1.42-1.24a1.85,1.85,0,0,0-.53-.89h-.18v-.35h-.17l-.36-.54-.35-.17v-.36l-.71-.53v-.36l-2.49-2.3v-.36l-.71-.53v-.35l-.35-.18v-.36l-.53-.35V818l-.54-.35v-.35l-.53-.36v-.35l-.88-.71v-.36l-2.31-2.13v-.17l-.36-.18v-.36l-1.95-1.77c-.23-.3-.47-.59-.71-.89h-.35v-.35h-.36c-.1-.36,0-.16-.17-.36a4.23,4.23,0,0,0-2-.53c-.05-.18-.11-.35-.17-.53l-.36-.18c-.06-.3-.12-.59-.17-.89h-.18v-.53h-.18v-.53h-.18v-.36l-.35-.17v-.36l-.71-.53v-.35l-.71-.54-1.42-1.59H185c-.3-.36-.6-.71-.89-1.07l-.53-.18-.18-.35h-.36c-.17-.24-.35-.47-.53-.71h-.35l-.36-.53h-.35l-.18-.36-.71-.17-.18-.36h-.35c-.44-.25-.62-.57-1.24-.71v-.35c-1.12-.29-.89-1.32-1.42-2.13h-.18a1.45,1.45,0,0,1-.36-.71,3.58,3.58,0,0,1-1.41-1.07l-.18-.35h-.36c-.11-.08-.13-.24-.35-.36v-.35h-.36l-.88-1.07L171,789.25c-.12-.18-.24-.36-.35-.54h-.36c-.41-.47-.83-.94-1.24-1.42h-.36v-.17h-.35v-.18h-.53v-.18h-.53v-.17h-.54v-.18h-.35l-.36-.53h-.35v-.18h-.36v-.18l-.53-.18c-.18-.89-.55-1.94-.71-2.83l-1.06-.18v-.18H162a15.7,15.7,0,0,1-1.24-1.77v-.54l-.53-.35v-.36H160l-.18-.7-1.77-1.25v-.35h-.18v-.36h-.17v-.53l-.36-.18v-.35l-.53-.36-1.42-1.59H155a3.12,3.12,0,0,0-.88-1.24H154v-.36l-1.42-1.24-.53-.71h-.36c-.23-.3-.47-.59-.71-.89l-.35-.17v-.36l-.53-.35v-.36l-.36-.18c-.06-.23-.12-.47-.17-.71l-.89-.71v-.35l-.36-.35v-.36h-.17v-.35H148v-.36l-.36-.18v-.35l-2.12-2h-.36v-.18c-.35-.19-1.4-.45-1.6-.71,0-.35-.11-.71-.17-1.06l-.36-.18v-.36l-.35-.17v-.36l-.71-.53V758h-.18l-.18-.71h-.17l-.18-1.95H141V755h-.18v-.53h-.17v-.54h-.18v-.53h-.18v-.71h-.18c-.11-.94-.23-1.89-.35-2.84h-.18l-.18-.88h-.35l-.18-1.42h.18l-.18-1.78-.35-.17v-.36l-.71-.53-.36-1.06-.35-.36V743l-.36-.18v-.53a4.57,4.57,0,0,1-.53-2.13A2.6,2.6,0,0,1,135,739h-.53a4.24,4.24,0,0,0-.36-1.42h-.18c-.05-.35-.11-.71-.17-1.06h-.18v-3.19h.18c.06-.24.12-.48.17-.71h.18v-1.6l.36-.18v-.35h.17v-1.42h.18v-.36H135a6.79,6.79,0,0,0,.53-1.24h-.18c-.06-.17-.11-.35-.17-.53h-.89a6.72,6.72,0,0,1-.36-1.24h.36l.53-1.6H135l.18-1.06h.17l.36-1.07h.18v-.35h.17l.18-.71.36-.18v-.35h.17v-.71l.36-.18v-.36h.18c.11-.59.23-1.18.35-1.77h.18v-.35H138l.18-1.25h.18v-1.06h.18v-.36h.17v-.7h.18l.36-3.38h.17V710h.18v-.53h.18v-.36H140v-.35h.17l.36-1.07h.18c.11-.53.23-1.06.35-1.59h.18l.35-1.07h.18v-.35h.18v-.53h.18c.05-.24.11-.48.17-.71h.18V703h.18v-.53l.53-.36v-.35h.18c.06-.24.12-.47.17-.71h.18l.36-2.66c.33-.75,1.36-1.35,1.59-1.95v-1.78c0-.65,0-1.38,0-2.06,9.56-3.1,17.75-9.18,21.38-19.49,1.75-5,2.21-10.33,2.91-15.58,2.5-18.72,11-34.91,15.14-52.34h.19v-2.15h.19v-1h.19v-.71h.19l-.19-.24.19-1.19h.2c.48-.88.41-.12,1.15-.48v-.24l.57-.23.19-.24v-1.67h.19c.07-.32.13-.63.2-1h.19v-.71h.19c-.07-.8-.13-1.59-.19-2.39l.38-.23V590H189v-.72h.19v-1l.39-.24v-.47c.19-.31.7-.26,1-.48l1.15-1.67c0-1.4-.09-2.1-.77-2.61.06-1,.13-2.07.19-3.1h.19v-.48h.19v-.71h.2v-.95h.19c.06-.32.13-.64.19-1h.19v-.47l.38-.24v-.71h.2v-.48h.19v-.48l.57-.47c.24-.58,0-1.19.19-1.67l.58-.48c.06-.31.13-.63.19-.95h.19c.38-1.16-.14-3-.38-4.05V564.5h-.19v-1.19h.19v-1.19h.19v-.48h.19v-.95H195V560h.2v-1.19h.19v-.72h.19v-2.62a31.06,31.06,0,0,0,.77-3.33h.57c.13-1.83.26-3.65.38-5.48h.2v-.71l.57-.48v-1.19h.19v-.47h.19l.39-7.15h.38c.07-1.36.46-1.22.58-2.38L199,534c.13-1.74.25-3.49.38-5.24h.19v-.47h.2v-1.67l.38-.24v-1.9h.19c-.13-1-.26-1.91-.38-2.86h.19v-.95h.19v-.48h.19c.24-1-.43-1.18-.57-1.66.12-1.27.25-2.54.38-3.81h.38v-2.38h.2v-.72h.19l-.19-.71h-.2l.39-3.81h.19c-.07-1.27-.13-2.54-.19-3.81h.19v-1h.19c-.06-.31-.13-.63-.19-1h.19c.06-.79.13-1.59.19-2.38h-.19c.06-.79.13-1.59.19-2.38h.19v-.48h.2V494.5h.19v-.95h-.19v-.72h-.2v-.48h-.19l.19-2.85h-.19c-.06-.4-.13-.8-.19-1.19l-.57-.48v-.48h-.2V480h-.19v-3.09a6.18,6.18,0,0,0,.19-2.38h-.19v-3.1a19.92,19.92,0,0,1-.19-5.24h.19v-.71h.19v-.95h.2v-1.43h.19c-.07-.32-.13-.64-.19-1h-.2c0-.32.41-1.66.39-1.9h-.19v-.48h-.2l.2-2.62.38-.23v-.48h.19V454h-.19c-.07-.32-.13-.64-.19-.95h-.19c-.1-.51.45-1.35.19-2.15l-.39-.23v-1.2h.2l-.2-3.57h-.19v-1.43h.19v-1.42c-.07-.22-.46,0-.38-.72h.19c.07-1.11.13-2.22.19-3.33h-.19v-.72h-.19v-.71h-.19l.19-1.91c-.38-.14-.16,0-.38-.23h-.19l.19-.24V434l.38-.24a3.91,3.91,0,0,0,.19-1.67h-.19v-.47h-.19v-.72H200c-.19-1.11-.39-2.22-.58-3.33h-.19v-.95H199v-.24h.19v-1.67H199v-1.19a5.46,5.46,0,0,0,.19-2.14H199v-.72h-.19c-.07-.31-.13-.63-.19-.95h-.2V418.3h.2l-.2-1.43a9.85,9.85,0,0,0,.2-2.62h-.2l.39-2.85h-.19v-.48h-.2c-.06-.4-.12-.79-.19-1.19h-.19c-.29-1.14.73-1.39.38-2.62h-.19v-.47h-.19l-.19-.72h-.19c.06-.8.68-1.86.38-3.09l-.57-2.15h-.2v-.47h-.19l.39-2.86-.39-.24c-.06-1.51-.13-3-.19-4.52h.19v-.48h.19v-1.9h-.19c0-.29.37-.45.19-1h-.19a2.39,2.39,0,0,1-.38-.95h-.38c.06-1.59.12-3.17.19-4.76l.38-.24c-.06-1.11-.13-2.22-.19-3.33h-.19c.06-.56.13-1.11.19-1.67h-.19l.38-3.57-.38-.24c-.07-1-.13-2.06-.19-3.09h-.2v-1h-.19v-1.66h-.19v-3.34h-.19V365h-.19v-2.15c0-.07-.25-.07-.19-.47h.19v-1.19h-.19v-.72H195v-2.38h-.19v-.71h-.19v-1.19h-.19c-.06-1.11-.13-2.23-.19-3.34H194v-.47h-.2v-1.91h-.19v-.71h-.19v-1h-.19v-1.66h-.19v-.48h-.19v-.71h-.2c.07-.72.13-1.43.2-2.15l-.39-.23c-.06-.56-.13-1.12-.19-1.67h-.38l-.19-1.43h.19v-.95h-.19v-1.43h-.2v-1.19l-.38-.24V335H191V334h-.19v-.95h-.19c-.07-1-.13-2.06-.2-3.1h-.19v-.71H190v-1.43h-.19v-1.67h-.19v-.95h-.19c.06-.71.12-1.43.19-2.14h-.19v-.72l-.58-.47v-1.43l-.15-.1q6.06-17.56,12.14-35.14c2.88-8.34,5.76-16.69,8-25.22,3-11.2,4.84-22.67,6.7-34.11,1-6.25,2-12.57,1.64-18.89-1.31-20.32-16.64-36.52-30.43-51.5q-22.08-24-41.77-50c-.69-.91-1.37-1.84-2-2.78-1.41-3.85-2.85-7.69-4.36-11.54C125.18,57,110.71,21.34,85.42,0c-9.1,16.77-8.13,38.21-7,58.76q-.39,2.94-.68,5.9c-.94,9.83-4.41,19-6,28.75C69.29,108,66,130.09,59,143.61c-6.86,13.24-16.81,27.57-25.21,40.57-10.46,16.21-22.6,32.13-26.48,51-6,29.44,9.18,58.63,23.89,84.84q2.27,4.05,4.54,8.1V329h-.19v.48h-.19l-.2,1.19h-.19v.47h-.19v.72h-.19c-.31,1.35,1.13,1.63.57,3.09l-.76.72v1.19h-.19v.71H34v.48h-.19c-.33,1.27,1,2.44.58,4.05h-.19v.47H34l.2,3.34H34v1.43h-.19v1.42H33.6v.72h-.19V350h-.19c-.07.47-.13.95-.19,1.42h-.2v1.91H33c0,.5-.2.47-.2.47V355h-.19c-.12.55.22,1,.19,1.19h-.19v1.19h-.19c-.06.31-.13.63-.19.95h-.19v2.14h-.19v.48h-.2v.71h-.19v1.43l-.57.48c-.07.79-.13,1.58-.19,2.38l-.39.24v.47h-.19v.48H30v1.67h-.19v.47l-.39.24v.71h-.19c.07.4.13.8.19,1.2l-.76.71v.48h-.19c-.26.87-.52,1.74-.77,2.61h-.38c-.07.32-.13.64-.2,1h-.19v1.19h.19c-.06.32-.12.63-.19.95-.48.15-.31.12-.57.48h-.19v.47h-.2c-.06.24-.12.48-.19.72h-.19c.06.79.13,1.58.19,2.38h-.19v.47h-.19a8.57,8.57,0,0,0,.19,2.86c-.13,1.59-.25,3.18-.38,4.76H25v1.67h-.2l-.19,1.19-.38.24V394H24c-.07.31-.13.63-.19,1h-.2v.95h-.19v.71h-.19v3.58a.68.68,0,0,0-.19.71c.05.33.16-.1.19.24l-.38,2.14c.08.46.73,2.3.57,2.86h-.19v.48l-.38.23v.48l-.39.24c-.06.31-.12.63-.19,1H22.1c-.13,1-.25,2.06-.38,3.1l-.77.71V414h.19v3.09h.19v1.67h.2c.06.55.12,1.11.19,1.67v6.42h.19v1.2h.19v.23h-.19c.06.64.13,1.27.19,1.91h-.19v1h-.19v1.91h-.19q.09,3.45.19,6.9h-.39a2.2,2.2,0,0,0,.39.95h.19v.48h.19v4.76c.13.56.94,3.1.77,3.81h-.19v.48h-.2v1.66h-.19v2.62c-.06,1.43-.13,2.86-.19,4.29h-.19v4.05a.68.68,0,0,1,.19.71h-.19c-.06.79-.13,1.59-.19,2.38h-.19v.95h-.2v2.15h-.19v4.05H21a.7.7,0,0,0,.19.71v3.81h.19v1.9h.2c.06.49-.2.48-.2.48v4.29h.2v.95l.38.24v.95h-.19v1.43h-.19v.47h-.2c-.06.8-.12,1.59-.19,2.39a19.69,19.69,0,0,1-1,5.47c-.58,2.41,1.14,5.28.58,7.15h-.19V504l-.39.24c-.06.4-.12.79-.19,1.19H19.8v.48h-.19a18.29,18.29,0,0,0,.19,5H20c.07.39.13.79.19,1.19h.2c.1.7-.32.5-.39.71v1.91H19.8v1.19h-.19c.06.87.13,1.74.19,2.62H20c-.06,1-.13,2.06-.19,3.09a5.66,5.66,0,0,0,1.92,2.62c-.07.4-.13.79-.19,1.19l-.39.24a4.68,4.68,0,0,0,.19,1.9h.2v3.58h.19v1.66h.19v1.67h.19c-.06.79-.13,1.59-.19,2.38v.24h.19c1.06,0-.7,94.77-.83,103.39S21.1,657.89,25,665.42c1.91,3.67,4.74,7,5.41,11.07a30.68,30.68,0,0,0,.68,4.61c1.29,3.91,5.82,5.59,9.85,6.43.71.15,1.44.26,2.16.38a3.61,3.61,0,0,0-.19,2.17h.18c.06.3.12.59.17.89h-.17v1.42h-.18l-.18,2.3h.18l.18,1.42h.17v.36h.18v.88h.18c-.3,1.48-.59,3-.89,4.44v4.79h-.17v1.06l-.36.18v2.66H42l.36,4.44A14.65,14.65,0,0,1,42,719v2h-.17v1.95h-.18l-.18,4.61c-.41,1.41-.65,3.22-1.06,4.61v1.25h-.18v1.42h-.18v.88h-.18v1.42h-.17V738h-.18v.71h-.18v.53H39.2v.53H39v.71h-.18v.89h-.18v.53H38.5v.53h-.18V743h-.18v.88l-.71.54v.35l-.35.18-.18.88h-.18v.36h-.18v.71h-.17v.53h-.18l-.18.71h-.18v2.13a7.26,7.26,0,0,1-.35,1.6v2.12H35.3v.54h-.18v.71H35v.53h-.18v.71h-.18v.88h-.17v.54h-.18v.53h-.18v1.06h-.18v.36h-.17v.89h-.18v.53h-.18v.71h-.18v1.24H33v.89h-.18v.53h-.18l-.18,1.59h-.17l-.36,2.67h-.18v.71h-.17v.35H31.4v.53h-.18c-.18,1.19-.35,2.37-.53,3.55h-.18v.53h-.18l-.17,1.6H30v.35H29.8v.89h-.17v.53h-.18l-.18,1.42h-.18v.36h-.17v.88h-.18v.71h-.18V782h-.18c-.06.71-.11,1.42-.17,2.13-1.12,3.67-1,8.41-2.13,12.07l-.18,3c-.89,3.11-.53,6.84-.53,10.47v2.13h-.18l.18,15.43a17.93,17.93,0,0,0,.71,4.79v4.79H25.9v.71h-.18c-.21.7.23,1.66-.17,2.13v.71l-1.07.88v.36l-1.42,1.24c-.12.18-.23.36-.35.53h-.36v.18h-.71v.18h-.35l-.53.53v.35h-.18l-.18.71h-.18v.89l-.35.18v.35l-.53.36v.35l-.36.18V848l-.35.18v.36h-.18l-.18.53-.35.18v.35l-.71.53v.36l-.36.18V851h-.17v.36l-.36.17-.18.71-.35.18v.35l-.36.18v.36l-.35.17v.36l-.36.18-.17.71-.36.35v.36l-.35.17V856l-.36.35v.36H13.3V857l-.35.18-.18.71-.35.18v.35l-.36.36v.35h-.17v.36h-.18v.35h-.18v.36h-.18v.35h-.17v.35H11L10.64,862h-.17v.53h-.18v.36h-.18v.35l-.35.18-.54,2.3H9.05v.36H8.87v.53H8.69V867H8.52v.53H8.34v.35H8.16L8,868.9H7.81v.71H7.63l-.36,1.95H7.1v.53H6.92l-.18,1.42H6.56c-.06.47-.11,1-.17,1.42H6.21v.89H6v.71H5.85v.88H5.68v.71H5.5v.36H5.32l-.18,1.06H5l-.18,2H4.61v.71H4.43v.53H4.26v.54H4.08v.53H3.9c-.12.65-.23,1.3-.35,2H3.37v.36H3.19v1.06H3v.71H2.84v.35H2.66v.54H2.48l-.17,1.42H2.13L2,892H1.77v.89H1.6v.53H1.42v.89H1.24l-.18,2H.89v.35H.71v.53A12.7,12.7,0,0,0,0,901.89v2H.18v.53H.35l.18,1.42H.71v.35H.89v.71h.17v.53h.18v.54h.18l.18,1.24h.17v.35H2c.34.42.72.65.89,1.24h.35v.36l.36.18v.88h.18v1.42H3.9V915h.18l-.18,5H3.73v.89H3.55v.17l.35.18v.35H5.5c.31-.35.41-.15.71-.35l.71-.89.35-.17v-.36l.36-.18.18-.71.35-.17v-.36l.36-.18.17-.71h.18l.18-.53h.17a5.25,5.25,0,0,1-.17-1.59h.17v-.71H9.4v-.18H9.22a2.24,2.24,0,0,1-.17-1.24h.17v-.89H9.4V912H9.05c.12-.54.23-1.07.35-1.6h.18v-.36h.18L9.58,909h.18v-.89H9.58l.18-1.24H9.58v-.35l-.53-.36v-.53H8.87c0-.32.49-.47.35-.89l-.53-.35-.17-1.6.7-.53a3.79,3.79,0,0,0,.36-1.78,2.26,2.26,0,0,0,1.6-1.06v-.36h.17v-.7h.18V898c.19-.37.52-.79.71-1.24h.36c.05-.24.11-.47.17-.71H13c.21-.58-.19-1.46-.18-1.77H13l.18-.89h.35V893h1.24a10.66,10.66,0,0,1-.88,3.2v.88h-.18v.71h-.18v.71H13.3v2.13h-.17c.12.71.23,1.42.35,2.13h.18v1.07h.18v.88H14V907h.18l.18,1.06h.18v.36l1.06.88.18.54h.35l.18.35h.36v.18l.53.35v.36l.35.18.18.53h.18c.53.8.76,1.81,1.59,2.3v.36h.36v.35h.35v.36c.49.13.41,0,.54.53.62.17,1.47,1.15,1.95,1.6.06.12.12.23.17.35l1.25.36c.71.77,1.42,1.53,2.12,2.3h.36l.71.89h.35c.48.53.95,1.06,1.42,1.6l.71.17.36.54h.35L32.29,926h.35v.18l.71.17v.18h.71v.18h1.06l.18.18c.1.24.06.39.18.71h.18v1.59h.17l.18,1.6h.18l.18,1.77h.17v.54h.18l.18.88h.18v.36h.17v.53h.18v.35h.18v.54h.18v.53H38l.36,1.06h.18c.11.59.23,1.19.35,1.78H39c.06.23.12.47.17.71h.18v.53h.18v.53h.18v.53h.17l.18,2.49h.18V945c.25.83.47,2,.71,2.84l.18,4.26H41v2.48h.18v.53l.35.18v.35h.18V956h.18v.53H42v.36h.18V958h.18a4.93,4.93,0,0,1-.18,1.6h-.71v-.18L41,959v-.36l-.36-.18v-.35l-.53-.36v-.35l-.35-.18v-.35l-.71-.54V956l-2.31-2.13v-.35h-.18c-.11-.18-.23-.36-.35-.54l-1.07-.71v-.35l-.7-.53v-.54h-.18v-.35h-.18l-.18-1.06h-.17v-.18c-.55.56-.53,2.75-.18,3.55h.18l.17.71h.18l.18.88h.18v.36h.17v.35h.18v.36H35v.35h.17v.36h.18v.53l.36.18v.35h.17v.53H36v.54h.18v.88h.18v.53h.17v.36h.18v.35l.89.71v.36l.35.35v.36h.18v.35l.36.18c0,.18.11.36.17.53h.18c.12.36.24.71.35,1.07l.36.17v.36l.53.35.18.71L41.51,967v.53l.36.18v.35H42c.25.27.1.23.54.36v.35h.17L44,970.19h.36l.35.53h.36l.18.36h.35l.36.35v.36l.35.18.18.7h.18l.17.71H47l.18.89.35.18v.35h.18v.36h.18v.53h.17v.36l.36.17v.36h.18v.35h.17v.36l.36.35V978l.35.17v.36l.54.35v.36l.35.18v.35l.36.18c.32.48.41.92.88,1.24v.35H52a5.58,5.58,0,0,0,1.59,2.13V984h.36v.35a2,2,0,0,1,.89.54v.17h.35c.11.08.14.24.36.36v.35c1.55.42,2.56,2.63,4.08,3a1,1,0,0,0,.88.88l.18.54h.18v.35H61v2.13h.18v.53h.18v.54l.35.17.18.53.53.36v.35h.18a7.8,7.8,0,0,1-.35,3.37h-.18l-.18.71h-.18l-.17,1.42h-.18V1003c-.26.8-1.83,2.53-.71,3.55l.18.53c1,0,1.43-.26,1.77-.89h1.07v.18a1.85,1.85,0,0,1,.35,1.42h-.18v.53h-.17l-.18.71h-.18l-.18,1.24H63v3H62.8v.35c-.75.18-2.38,1.25-1.95,2.49H61v.35l.54.36c.16.28-.05.51.17.71l.54.17v.36a2.35,2.35,0,0,0,1.42,1.06,1.44,1.44,0,0,0,.53.89v1.6H64l-.18.35h-.35v.18a11.8,11.8,0,0,1-4.08-1.42l-.18-.36H58.9l-.18-.35-.53-.18v-.17l-.54-.18a1.4,1.4,0,0,0-.35-.71h-.18v-.36l-.35-.17v-.36l-.36-.35v-.36h-.18v-.35l-.35-.18c-.12-.36-.24-.71-.35-1.06l-.36-.18v-.36l-.35-.35v-.36l-.54-.17V1014l-.53-.36v-.35l-.35-.18v-.35l-.36-.36v-.35h-.18v-.36h-.17v-.35l-.36-.18-.18-.71H52l-.36-1.06h-.17a10.83,10.83,0,0,1-.18-3.73h.18v-1.06a3.26,3.26,0,0,0,.17-1.6h-.17v-.36h-.18l-.18-.53c-.35-.1-.15,0-.35-.17a2,2,0,0,0-1.42.53l-.18.35h-.36c-.29.42-.59.83-.88,1.24v.36h-.18v.53h-.18l-.18.71h-.17v.53H47c-.34,1.07.16,4.1.35,4.79v2.66h.18l.18,1.6h.18v.71h.17v.71h.18v.71h.18l.18,1.42h.17v.35H49v.54h.18c.12.35.24.7.35,1.06h.18v.35h.18v.36H50v.35h.17v.54l.36.17v.36l.35.18v.35l.54.36.17.7.36.18v.36h.17v.35l.71.53.18.71.53.36v.35h.18l.18.54.35.17v.36l.71.53v.35l.71.54v.35l.71.53v.36l1.07.89v.35l1.24,1.06.18.36.71.18.35.53h.35l.18.35c.42.25.89,0,1.42.18v.18H63v.18h.88c2.25.67,6.48-.67,6.92-2.31l1.42-.18v.18h.71l.18-.53h.17v-.53l1.07-1.6H76.1c.08-.55.15-1-.35-1.42a2.13,2.13,0,0,1,.53-1.77h3V1027l.53-.36v-.35l.35-.18.18-.71.36-.18c.29-.88.59-1.77.88-2.66v-1.42h-.17a4.89,4.89,0,0,1,.53-2.66l.53-.35v-.36l.71-.53.18-.35h.35v-.18l.71-.53v-.36l.36-.17c.17-.24.35-.48.53-.71.56-.4,1.22-.49,1.59-1.07h.36v-.35h.35l1.25-1.42.53-.36c.3-.43.27-.77.71-1.06-.05-1.21-.32-1.14-.71-1.95h-.18V1006l-.35-.18v-1.24c.11-.39.77-1.26.53-2h-.18v-.35l-.35-.18v-.53c-.23-.47-.56-.56-.71-1.24h-.89v-.18l-1.42.18a6.58,6.58,0,0,1,.35-1.78c.61-.16.46-.37,1.07-.53l.18-.53h.17V997h.18v-2.31H88v-.88h.18a4.36,4.36,0,0,0-.54-2.67v-.53h-.17v-.35l-.36-.18-.18-.71h-.17c-.34-.41-.73-.65-.89-1.24h-.35a1.41,1.41,0,0,0-.36-.71H85V987l-.35-.17v-.71h-.18c-.23-.72.1-1.28-.35-1.78-.45-.66-.67-.21-1.25-.53v-.18a1.4,1.4,0,0,0-.71-.35c-.15-.67-1.11-2.21-.7-3.19l.35-.18v-.36c.48-.12.4-.24.89-.35.06-.18.12-.36.17-.53H83v-.36h.18L83,975.87c.22-.62,1.36-1.61,1.07-2.66h-.18L83.73,972l-.53-.36a9.68,9.68,0,0,1-.18-3.19h.18c.14-.32.11-.69.35-.89l.54-.18V967l.35-.18v-1.24h.18l.35-1.07,1.78-.17v.17h.35l.18.36h.53l.18.35h.35l.18.36h.36l1.06,1.24h.36c0,.12.11.24.17.36h.36a3.78,3.78,0,0,1,.17.35h.36c.12.18.24.35.35.53h.36l.35.36h.36v.17h.35v.18h.54c0,.12.11.24.17.36l.89.17c.12.18.24.36.35.54h.54V970l.53.18.18.36h.35l.36.35h.35v.18h.36c0,.12.11.23.17.35h.54v.18l.53.18c.06.12.12.23.17.35l.71.18.18.35.71.18V973h.36v.18h.35l.36.35.71.18.53.71,1.24.18,1.42,1.59,1.06.18.18.36h.36v.17h.35v.18h.53l.36.53h.35v.18h.36V978h.35l.36.35h.35c.18.24.36.47.53.71h.36l.18.36h.53v.17l.71.18V980H113l.18.35h.35l.18.36.71.18.71.88,1.07.18.17.35,1.6.54.18.35h.35v.18h.36c.06.12.11.24.17.35l1.07.36.18.35.7.18.18.36,1.07.35v.18h.35v.17l1.07.36v.18h.53v.17h.35v.18l.71.18v.18h.53V987h.36v.18h.71l.18.36h.35v.17h.53v.18h.36v.18l1.06.18v.17l.89.18v.18h.35V989l1.6.35v.18h.36v.17h.53v.18h.35v.18h.71v.18h.36v.17h.71v.18h.35v.18l2.48.53v.18h.36v.18l.89.17V992l1.59.36v.17l1.07.36v.18h.71v.17l.88.18v.18l.71.18V994h.54v.18l1.06.35v.18h.36v.18h.53l.17.35h.54v.18h.71v.18l.88.18v.17h.36v.18h.35l.18.36.53.17v.18c.44.27,1,0,1.6.18v.18l1.6.88v.36a4.41,4.41,0,0,1,1.24.71h.35l.36.53h.35l.89,1.06h.35l.54.71h.35l.18.36h.35l.36.53,1.42,1.24v.36l1.06.88.89,3,.35.18a5.13,5.13,0,0,1,.36,3h-.18v.36h-.18v2.13h-.17l-.18.71h-.18v.53H162v.53h-.17l-.18.71h-.18v.53l-.35.18v.35l-.36.18v.36h-.18a3.22,3.22,0,0,0-.88,1.24,7.85,7.85,0,0,0-2.13,1.59l-.36.54-.71.17c-.05.12-.11.24-.17.36h-.36v.18h-.53l-.18.35h-.35l-.18.36h-.35l-.18.35-1.6.53v.18h-.35v.18l-1.07.18v.17h-.88v.18h-.36v.18l-2.31.35a3.26,3.26,0,0,0,.71,1.24h.36l.18.36.88.18v.17h.36v.18h1.24v.18h.18v-.18h1.06v.18c.25,0-.07-.14.18-.18h1.77c.36-.11.89-.57,1.6-.35v.17h.53v.18l.89-.18v-.17h.89v-.18h.35v-.18h.53v-.18h1.07v-.17h.35l.18-.36,1.42-.18c.18-.23.35-.47.53-.71l1.06-.17.18-.36a3,3,0,0,1,1.24-.71c.25-.86.75-.84,1.42-1.24v-.18l.54-.17c.05-.24.11-.48.17-.71h.18v-.54l.89-.7c.06-.42.12-.83.17-1.25l1.25-.71a5.1,5.1,0,0,0,.53-1.24V1016h.18c.11-.18.23-.35.35-.53h.36c0-.18.11-.36.17-.53h.18c.23-.37-.25-1.68-.35-1.78,0-1.13-.14-.83.53-1.24v-.18l.71-.17c.06-.42.12-.83.17-1.25l-1.06-.88a5.47,5.47,0,0,1-.53-1.78h1.06v.18c.68,0,.74,0,.89-.53.23-.32-.07-.9-.18-1.42-1.1-.2-1.13-.22-1.59-1.07l-.18-.53c-.42-.29-.83-.59-1.24-.89l-.18-.88h-.18a1.87,1.87,0,0,1,.18-.71,2.44,2.44,0,0,1,1.24-.36v.18h.89v-.18l.71-.53v-1.06a1.45,1.45,0,0,1-.89-.54c-.5.05-.65.08-.89.36-1,0-.74,0-1.24-.53l-.35-.18-.18-.53c-.37-.19-.51.2-.71.17v-.17l-.53-.18c.06-1.38.19-.52,1.06-.89v-.17h.36c.09-.06.13-.25.35-.36v-.71h.18c-.08-.67-.18-.56-.53-.89l-.18-.35h-1.6c-.12-.18-.23-.36-.35-.53l-1.78-.36v-.17l-.53-.36v-.35h-.18c.08-.65.16-.59.54-.89V992h.53c.15-.09.33-.56.53-.71a2.57,2.57,0,0,0-.53-1.95l-1.6.18v.17h-.35v.18c-.3.07-.32-.17-.36-.18h-1.59v-.17a7,7,0,0,0-1.42-.53c-.1-.5-.63-1-.36-1.78h.18v-.35l.89-.71v-.71h.17v-.89h-.17c-.12-.44-.09-.29-.36-.53v-.18h-.35v-.18l-.71-.17v-.18l-1.95.18a4.74,4.74,0,0,1-.18-1.25h-.18v-.35l-.53-.36v-.17h-.53v-.18a1.93,1.93,0,0,0-1.25.53c0,.12-.11.24-.17.36l-1.07.17v.18c-1.28-.37-.3-1.71-1.77-2.13l-.36-2.3h-.17l-.18-.36h-.53v-.18c-1.46-.05-1.64-.09-2.13.89a2.81,2.81,0,0,1-1.6-.53c.06-1,.72-2.15,0-2.84-.38-.63-1.2-.65-1.59-1.24-1.53,0-2.74,1.58-3.2,2.66a1.59,1.59,0,0,1-.88-.35,4.65,4.65,0,0,1,.71-1.78h.17V972.5c-.29-.42-.59-.83-.88-1.24l-1.07-.18v.18H138.9v.17c-.59.45-.39,1-1.24,1.24v.18l-.53-.18v-.35l-.53-.18V972h-.36v-.18c-.52-.19-1.07.11-1.42.18V970.9H135c.27-.9.18-.25.89-.53v-.18h.53V970l.71-.53.18-.89h.17a2.84,2.84,0,0,0-1.06-2.3l-.36-.18v-.35h-.17v-.36c-.07-.09-.25-.14-.36-.35a3.1,3.1,0,0,0-1.95.53h-.35v.18c-.45.4-.13.39-.36.88h-.18c-.27.55-.24.92-.71,1.24-.08.1.06.28-.17.18v-.18h-.54v-.17h-1.42v-.18l-1.95.35v-.17h-.17a2.81,2.81,0,0,1,.71-1.24v-.18h1.06v-.18H130l1.07-.89v-.53h.17c.46-1.37-.53-2.17-.88-2.84h-.18v-.53H130c-.3-.61.09-.66-.71-.89v-.17l-1.06.35v.18l-.71.18-2,2.3a5,5,0,0,1-1.6-.35l-2,.18c0-.78,0-.52.35-.89l.18-.36h1.6l.18-.35h.35c.11-.07.12-.24.35-.36a5.26,5.26,0,0,0-.17-3.9v-.71h-.18v-.35h-.18l-.35-.54a3.9,3.9,0,0,0-1.78.54h-.35v.17h-.36l-1.41,1.6c-.33.3-.79.37-1.07.71h-.71c-.12-.18-.24-.35-.35-.53h-.36V958c-.15-.08-1.48-.52-1.77-.35v.17a2.27,2.27,0,0,1-1.42-.35v-.71l2.66-.89c.12-.18.24-.35.35-.53l.71-.18.54-.71.71-.17c.11-.18.23-.36.35-.54l.71-.17.18-.36h.35c.24-.29.48-.59.71-.89h.36c.06-.11.11-.23.17-.35h.36l.53-.71.53-.18.18-.35h.36c.17-.24.35-.48.53-.71h.35l.18-.36,1.06-.88v-.36h.18a3.14,3.14,0,0,0,.89-1.24c.48-.14.4,0,.53-.53.84-.22.82-.79,1.24-1.42l.36-.18c.06-.18.12-.35.17-.53H130v-.53l.36-.18.17-.71.36-.18v-.35l.35-.18.18-.71.36-.18.17-.71.36-.17v-.36l.53-.35v-.36l.53-.35v-.36l.53-.35v-.36l.54-.35v-.36l.35-.17.18-.71.35-.18.18-1.24h.18v-.54h.18c.17-.43.13-1,.35-1.41l.36-.18v-.36l.71-.53v-.35l.35-.18.18-.71.35-.18v-.35l.36-.18c.06-.24.12-.47.17-.71l.36-.18v-.35h.18c.33-.4.74-.66.88-1.24h.36l.18-.54,1.06-1.59h.36c.05-.12.11-.24.17-.36h.53V925h.54v-.18h.35l.36-.53h.17v-.36h.18l.36-1.06h.17v-.54h.18v-.35h.18v-.36l.35-.17.36-1.07.88-.71v-.35h.18l.18-.71h.18V918h.17V917l.71-.53v-.35h.18c.18-1,.36-1.9.53-2.84h.18v-.36h.18v-.35l.35-.18.36-1.6h.18v-.35h.17l.18-.89h.18v-.89H151v-.35h.18l.18-1.24h.18c.06-.36.12-.71.17-1.07h.18v-.35H152c.16-.41-.06-.93.18-1.24h.17v-.18h.54a13.55,13.55,0,0,0,1.06,5c.18.46.11,1,.36,1.42l1.06.88.18.36.71.18a3.78,3.78,0,0,1,.17.35h.36l.18.35.71.18.17.36a7.7,7.7,0,0,1,.89.71,1.44,1.44,0,0,0,.89-.36v-.18l3.19-.53.18.71h-.18v.89h-.18c-.26.72-.19,1.5-.71,2-.31.95-.18.21-.88.53v.18h-.36c-.24.18-.21.59-.35.89h-.18v.71l-.53.35V920h-.18a2.79,2.79,0,0,0,.35,1.77v.71H160v.36h.18l.53,1.59h.18l.18.71h.17l.18.89.71.53v.18h.36a3.78,3.78,0,0,0,.17.35H163l.35.54h.53v.17h.36V928h.53v.18h.36v.18c.66.34,1.3.33,1.77.88h.18l.18.89h.17v.71h.18v.53h.18v.36H168v.53l1.07.89,1.42,1.59h.35l.18.36.71.17.18.36,1.77.18V936H174v.18l1.95.18v-.18h.88V936h.36v-.17a2.52,2.52,0,0,1,1.42-.36,5.54,5.54,0,0,1-.36,2.13c-.35,1.16-.5.12-1.24.53v.18c-.89.58-1.25,3.2-.71,4.61h.18v.36h.18l.17.88H177V945h.18c.26,1,1.15,1.11,1.95,1.6l.18.35,1.24.18v.18h.53v.17h.53l.18.36h.36V948h.53v.17H184v.18h.89v-.18h.71V948h.35l.18-.36c.47-.29.87-.24,1.24-.71.39,0,.71,0,.89.18v.35h.18V948l.35.17v.36l.36.18c0,.23.11.47.17.71h.18v.35l.53.36v.35a2.7,2.7,0,0,0,1.42.71,4.09,4.09,0,0,0,.18.71l-.36.18a2.7,2.7,0,0,0-.17,1.59c.29.89.59,1.78.88,2.66l.54.36v.35l.35.18v.36l.53.35v.36l1.07.88c.06.12.12.24.17.36H195v.17l.71.18v.18h.53v.18c1.38.45,3.7-.82,4.08-1.42.77.11.95.49,1.42.88v.18a10.15,10.15,0,0,0,2.13.89c-.07,1-.49,1.3-.18,2.13v.53h.18c.12.18.24.35.35.53h.36l.18.36.53.17c.18.24.35.48.53.71h.36c.05.12.11.24.17.36.53.36,1.24.55,1.6,1.06h1.77v-.17H210v-.18l1.24-.18a3.31,3.31,0,0,0,.53,1.24l.53.36v.35l.36.18v.35h.18l.53.71c.47.34.93.41,1.24.89l1.77.18a3.8,3.8,0,0,0,2-1.42,5.74,5.74,0,0,1,1.24.18c.06.17.12.35.17.53H220V970l.36.18v.36l.35.17v.36l.36.35h.35l.36.54h.35v.17l.53.36c.36.54-.08,1.41.18,2.13H223V975h.18v.53l1.41,1.07.54.18c.35,1.06.71,2.12,1.06,3.19v.71h.18c.16.35.27,1,.53,1.24h.36a3.78,3.78,0,0,0,.17.35c.48.33.94.41,1.24.89.59,0,.8,0,1.07-.35.91.05.86.37,1.42.71v.35a2.08,2.08,0,0,1,.89.53v.18h.35l.18.36c.45.19.93-.12,1.24-.18.41-1.55,2.13-1,2.84-2.13h.53v.18c.36.39.13,1.23.35,1.77h.18v.36l.53.35v.35l.36.18v1.07h-.18l.18,2h.18v.53H239v.35h.18v.36l.36.18c.11.35.23.71.35,1.06H240l.18,1.6h.17l.18.53,1.06.36.71-.89h.18v-.53h.18V992h.18v-.35l.35-.18.18-1.24h.18V989l.35-.18v-.36h.18v-.35h.18V987a1.38,1.38,0,0,0,.35-.35,3.32,3.32,0,0,1,1.6.18V987a1.45,1.45,0,0,0,.71.36,4.06,4.06,0,0,0,1.95,2v.35c.7.22.22,0,.53.54h.18v.35l.53.36v.35l.71.53.18.36h.35l.89,1.06c.42.3.91.33,1.24.71l1.77-.17c.44-.26.85-2.93.54-3.91h-.18v-.53h-.18a2.61,2.61,0,0,1-.35-1.42,6.52,6.52,0,0,1,2.84.71l.7.89,1.07.35v.18h.35v.18l1.07.35v.18l1.95.18.18.35h.35v.18h.53v.18h.36v.17l1.06-.17v-.18c.61-.18.59-.59,1.07-.89a6.28,6.28,0,0,0-.36-2.48h.18v-.18a8.14,8.14,0,0,1,3.37.71l.36.53h.35v.18l1.6-.35c.06-.12.12-.24.17-.36.65-.27,1.22.27,1.42.36h.71v.17c1,0,1-.41,1.42-1.06H276v-.36l.35-.17.18-.71h.18l-.36-2.13a3.71,3.71,0,0,0,1.25-1.24,5.8,5.8,0,0,1,1.24.17V984l1.06.35c.16-.19,0,0,.18-.17h.18l.35-.54h.18c.12-.35.24-.71.35-1.06l.36-.18v-.89h.18c.11-.35.23-.7.35-1.06a10.11,10.11,0,0,1,2.48.53l.54,1.6.35.18v.35l.89.71.35.53H287v.18c.22.17.34.13.53.36a9.06,9.06,0,0,0,1.6-.54c.06-.17.12-.35.17-.53h.18v-.35h.18l.18-1.07h1.42v.18c1.16.31.8,1.5,1.24,2.48h.18l.17.71.36.18v.35h.17l.36.54H295l.18-.36,1.42-.35v-.36l.53-.18v-.17h.35v-.18c.78-.28,1.35.4,1.78.53h1.24V986c1.23,0,.94-.19,1.42-.89.08-.12.23-.11.35-.35h1.6v.18h.53v.17l1.95.18v-.18c1.06-.28.75-1,1.07-2v-.71h.18l.17-.35h.36v-.18l.89.18c.29.94.59,1.89.88,2.84h.18c.12.17.24.35.35.53.38.06,1,.38,1.6.17v-.17h.36l.17-.36h.36v-.17c.73-.27,2.41.59,2.66.88.77-.09.84-.49,1.06-1.06l1.78.18v.17l1.06.18v-.18h.36c.12-.17.23-.35.35-.53h3.73v-.18h.35V984l1.07-.36v-.17c.77-.27,1.07.52,1.59.35l.36-.53h.35l.18-.36h.35v-.17c1-.35,1.34.64,2.31.35V983H331v-.17h.36v-.18h.35v-.18l1.78.18v-.18a1.53,1.53,0,0,1,.71-.35v-.36l.88-.18v.18h.36l.18.36H336v.17c.69.23.77-.31.89-.35.59-.23,1.54.39,1.95.35v-.17l1.59-.36v.18l.71.18v.17c.53.12.82-.53,1.42-.35v.18l1.07.35v.18l1.42-.18,1.77.18c.26,0,.28-.23.71-.18v.18h.18v-.18h1.06v-.18h1.95l.18-.35h1.6l.18-.36,1.06-.17v-.18a6.53,6.53,0,0,1,1.77-.89c.13-.48.24-.4.36-.88.49-.13.45-.21.71-.54h.18v-.53l.35-.18v-.53h.18v-.35h.18c.05-.36.11-.71.17-1.07h.18v-1.06S358.06,975.11,358,974.8ZM77.7,854.35h-.53v.18h-.89v.18h-.35v.17h-.36v.18l-.71.53a14.8,14.8,0,0,0-.71,4.08c.35.31.15.41.36.71l.88.71v.18h.54v.18h.35c.09,0,.15.24.36.35v.53h-.18c-.37.35-.85.18-1.42.36v.18a3.29,3.29,0,0,1-2.66-.71H72c-.06-.12-.12-.24-.17-.36h-.36v-.18c-.83-.33-1.79.34-2.13.18v-.18c-.65-.17-.59-.57-1.06-.88V860l.53-.18.18-.35h.35a7.09,7.09,0,0,0,.71-1.07,7.46,7.46,0,0,0,0-3.19h-.18a1.42,1.42,0,0,1-.35-1.07h.18v-.53h.17v-.35h.18v-.36l.71-.53v-.35H71v-.36h.18V851h.17a1.56,1.56,0,0,0-.35-2v-.71l.53-.18c.47-.36.53-.9,1.24-1.06a3,3,0,0,1,1.78-.18v.18c.81.21,1.3-.36,1.77-.53H77v-.18c.27-.17.3-.35.53-.53,0-.8.16-2-.35-2.31H76.1v-.18l-.53-.35c-.31-.43-.26-.79-.71-1.07v-.53c-1.06-.29-.91-1.48-2-1.77a3.46,3.46,0,0,0-1.42-1.6v-.35h.18v-.18h.71v-.18a4,4,0,0,0,2-1.6c.25-.61,0-1.49.35-2,.4-.68,1.37-.93,2.13-1.24h.54a3.78,3.78,0,0,1,.17-.35h.53l.18-.36h.71v-.18h.36v-.17H80v-.18h.53v-.18h.71v-.18h.35v-.17h.53v-.18h.36l.18-.35H83a3,3,0,0,1,2.31-.71v.35a5.5,5.5,0,0,1,2.3,1.6L88,832h.35l.18.35h.36l.17.36h.54a3.78,3.78,0,0,0,.17.35h.36l.35.54h.36A3.78,3.78,0,0,1,91,834h.36c.11.07.13.24.35.36V835c-.35.06-.35.17-.35.17h-.89v.18c-1.08.31-2.28-.18-3,.53-.75.53,0,.74-.36,1.42h-.18c-.5.67-1.34.61-1.59,1.6h-.18v.71a3.72,3.72,0,0,0,1.24,4.08v.71h-.18v.17a2.75,2.75,0,0,1-1.77,0v-.17c-.42-.18-.2.19-.53-.18-1.73,0-.58.48-1.42,1.24v.18l-.71.18-.18.35h-.35v.18h-.18l-.18.53h-.17v.53l-.54.36v.35H80a5.09,5.09,0,0,0-.36,2.49c.36.31.15.38.36.71A4,4,0,0,0,82,852.93c.1.36,0,.15.17.36-.11.87-1.7,1.87-3,1.42v-.18a3.87,3.87,0,0,0-1.42-.36Zm4.79,51.09h-.18l-.18.53a10.82,10.82,0,0,1-2.12.18l-.18-1.6-.36-.17V904H79.3c-.39-.7-.39-1.37-1.07-1.77v-.18l.53.18v.18h.36l.18.35h.53l.18.36h.35l1.07,1.24c.31.31.64.47.88.88h.18Zm7.63-3.55-.89-.17a1.48,1.48,0,0,0-.35-.71H88.7v-.36l-.36-.18v-.35l-.35-.18v-.35l-1.07-.89v-.35l-.35-.36v-.35h-.18v-.36h-.18v-.53l-.35-.18v-.35l-.35-.18v-.36l-.36-.17v-.36L84.8,895a6.79,6.79,0,0,1-.89-2h-.36a3.19,3.19,0,0,0-.88-1.24h-.18v-.35h-.18c-.18-.24-.35-.48-.53-.71l-.53-.36V890l-.36-.18-.17-.53h-.18v-.36l-.36-.17v-.36l-.35-.18v-.35a6.48,6.48,0,0,0-.89-1.07,1.77,1.77,0,0,1,.53-1.24l.54-.17V885a1.58,1.58,0,0,0,.71-.35v-.18h.35l.18-.36.53-.17c.18-.24.35-.48.53-.71h.36l.35-.54h.36v-.17l.53-.36.18-.35.71-.18c.23-.3.47-.59.71-.89h.35c.89-.94,1.77-1.89,2.66-2.84h.36v-.35c.76-.2.61-.56,1.06-.89h.36l.35-.53H91l.18-.35,1.07-.89v-.36l.88-.71v-.35l.36-.18c.18-.23.35-.47.53-.71h.36l1.77-2,.53-.35V870c1.09-.28,1.54-1.65,2.13-2.48l.35-.18.18-.53,1.07-.89v-.35l.53-.36v-.35l.53-.36v-.35l.71-.53.18-.54.35-.17v-.36l.36-.18V862l.35-.18a5.52,5.52,0,0,0,1.42-1.95h.36c.21-.77.87-1,1.24-1.6h.35v-.35c.93-.24,2.17-1.94,2.49-2.84.11-.71.23-1.42.35-2.13l.36-.18v-.35l.35-.18v-.35l.36-.18v-.35l.35-.18v-.36l.53-.35v-.36l.36-.17v-.36l.35-.35v-.36h.18v-.35h.18v-.36h.17l.18-.71.36-.17v-.54l.35-.17.18-.71c.35-.6.71-1.19,1.06-1.78a2.78,2.78,0,0,1,2.13,1.07l.18.35h.35v.18l.54.35v.36h.17v.35l.36.18v.36l.35.17v.36l.54.35v.36l1.41,1.24c.38.52.28.7.89,1.06v.36h.36l.17.53h.18v.36h.18v.35l.35.18v.35l.36.18v.35l.35.18V854l.54.35v.36l.7.53v.35h.18l.18.71h.18v1.07h.17v.71H126v.71h.18v.53h.18v.53h.17v.53h.18v.53h.18v.54H127c.06.41.11.83.17,1.24h.18l.18.71h.18c.06.65.11,1.3.17,2h.18v.71h.18v.53h.18c.05.42.11.83.17,1.24h.18V871H129l-.18,2.3h-.18l.18,1.78h-.18v.35h-.17l-.18,1.07h-.18v.35h-.18c-.06.36-.11.71-.17,1.06h-.18v.36h-.18v.53h-.18v.89l-.88.71v.35l-.54.36c0,.18-.11.35-.17.53l-.36.18-.18.71-.88.71-.18.35-.71.18V884l-.53.17-.18.36h-.53v.18l-.71.17V885h-.53v.18l-.71.18v.17h-.53v.18h-.36v.18l-1.06.35v.18l-2-.18v.18l-2.13.18v.17l-2.84.36V887l-2.31.18V887l-1.06-.18v2.31l-2,1.42H105v.18l-1.07.35v.18l-.7.18-.18.35h-.36c-.06.12-.12.24-.17.36l-1.07.35-.18.36h-.35V893H99.87v.18c-.68.33-.58.53-1.59.53v.36A12.52,12.52,0,0,0,94.73,896v.35h-.35v.36H94a1.53,1.53,0,0,1-.35.71h-.18l-.18.71-.35.18v.35l-.54.35v.36l-1.06.89v.35C91,901.21,90.37,900.94,90.12,901.89Zm27.49,23.6h-.17V926h-.18v.35h-.18v.36l-.35.18c-.3.88-.59,1.77-.89,2.66l-.35.17v.54h-.18v.35h-.18V931H115v.35h-.17l-.36,1.07h-.18v.53h-.17l-.36,1.06h-.18v.36h-.17v.35h-.18l-.36,1.07-.35.17-.18.71-.71.54c-.06.23-.12.47-.17.71l-.36.17-.71,1.95-.35.18-.18.71-.36.18-.53.71h-.35a1.68,1.68,0,0,0-.36.88c-1.07-.05-3.86-1.17-4.26-1.77,0-.29-.11-.59-.17-.89h-.18v-.53l-1.06-1.24-.71-.18v-.17h-.71l-.18-.36h-.53v-.18h-.36v-.17h-.71V937a2.29,2.29,0,0,0-1.59.53l-.18.36c-.3.2-.41,0-.71.35-1.23-.1-.59-.2-1.07-.89h-.17l-.36-.53h-.35v-.18h-.53v-.17H94v-.18c-.8-.27-2.71.74-3.37.89-.15-.2,0,0-.18-.18a6.88,6.88,0,0,1,.18-2.13l.71-.18a.3.3,0,0,0,.35.18v-.18H93a12.36,12.36,0,0,1,1.42-.53c.27-1,1.35-1.66,1.59-2.66l2.31-.36v-.35c.67-.2,1.07-1,1.77-.18,1.24,0,1.18-.07,1.6-.89h.18c.28-.68-.29-.57.35-1.06v-.18h.18v.18a3.44,3.44,0,0,1,1.59,1.06c.76,0,1.46.07,1.78-.35V929l.35-.18v-.36c.08-.11.24-.12.36-.35.57.14.68.4.89.89l1.77-.18v-.18h.35l.18-.35H110v-.18h.53V928l.71-.18v-.17h.71v-.18l.71-.18v-.18l.71-.17.17-.36,1.07-.35.18-.36.71-.18v-.17h.35l.36-.53c.53-.38.85-.34,1.06-1.07h.53c.15.2,0,0,.18.18A3.16,3.16,0,0,1,117.61,925.49ZM130,896.39h-.18v1.42h-.17l-.36,1.07h-.17v.35H129v1.07l-.36.17v.71h-.17v.54h-.18v.53h-.18v.53h-.18c-.06.36-.11.71-.17,1.07h-.18v.35l-.36.18c-.06.41-.11.82-.17,1.24h-.18l-.18.89h-.18v.35h-.17l-.18,1.24H126l-.18.71h-.17v.71h-.18l-.18.71h-.18v.36l-.35.17v.36l-.35.18v.53L124,912v.35h-.18l-.35.53-1.6-.53a13.86,13.86,0,0,0-1.24-5.68c-.66-.13-1.14-.37-1.6.18-.91-.07-.61-.07-1.06-.53l-.36-.18v-.35l-.35-.18v-.18h-.53l-.18-.35h-.35v-.18l-1.6.18-.36-.54h-1.06v-.17h-.36c0-.12-.11-.24-.17-.36h-.54v-.17l-.53.17v.18l-3.55.18v.17h-.35l-.18.36h-1.42l-.17-.36h-.54v-.17l-1.24-.36-.18.18c0-1.05.9-2.61,2.31-2.13v.18h.36v.18l1.06.35v-.18H108v-.17h.36c.24-.19,0-.42.18-.71l.35-.18V901l.71-.18v-.18a4.39,4.39,0,0,1,2.31.36c1.1,0,1.61,0,2-.71v-.71c0-.07.4-.29.53-.54l1.78-.17c.56.18,1.86,1,2.83.71v-.18h.36v-.18h.35v-.18h.36v-.17h.35v-.18h.36v-.18h.35v-.17h.36v-.18h.35V898c.34-.1,1.21.3,1.42.36.59.14.9-.21,1.24-.36a3.35,3.35,0,0,0,.36-1.24h.35l.18-.36h.89c1.2,0,2.4.07,3-.53h.89Zm108.21,44.53h-.71a2.29,2.29,0,0,1-.17,1.24l-.36.18c-.06.3-.12.59-.17.89h-.18a1.45,1.45,0,0,0-.36.71c-.09,0-1.54.15-1.59.17l-.54.71-1.59.36-.18.35H232v.18c-.56.45-.6.65-1.42.36a8.88,8.88,0,0,1-1.6,2.3c-.2.2,0,.08-.36.18-.19-.24-.48-.33-.7-.53l-.18-.36h-.36l-.35-.53h-.36c-.44-.32-.34-.71-1.06-.89-.12-.48-.24-.4-.36-.88-.68-.19-.53-.4-.88-.89l-.71-.53v-.36h-.18c-.24-.39.07-.24-.35-.53v-.36h-.36v-.35h-.35V942h-.36c-.2-.77-.66-.86-1.24-1.25l-.18-.35h-.53v-.18h-.36V940h-.35c-.12-.17-.24-.35-.35-.53h-.18v-.35l-.89-.71v-.36l-1.42-1.24v-.35h-.35v-.36h-.36l-.88-1.24h-.36l-.35-.53-1.25-1.07c-.06-.17-.11-.35-.17-.53l-1.07-.89-.18-.71L210,929.74l-.18-.7-1.06-.89v-.36l-.89-.71v-.35l-.36-.18v-.35l-.88-.71v-.36l-1.24-1.06-.18-.71-.53-.36v-.35l-.89-.71v-.36h-.18v-.35h-.18a3.78,3.78,0,0,0-.17-.35h-.36l-.18-.36h-.35l-.53-.71h-.36L199.93,918h-.36l-.35-.36v-.35l-.36-.18c-.23-.38,0-.74-.18-1.24h-.17v-.71h-.18v-.36l-.35-.17V914h-.18l-.18-.71h-.18c-.06-.24-.12-.48-.17-.71l-2.13-2.31h-.36l-.18-.35h-.53v-.18l-.71-.18v-.18h-.53v-.17l-.53-.36.18-1.42a13.25,13.25,0,0,0-3.2-6.21l-1.59-1.24-.36-.71H187l-.18-.53h-.18a10.84,10.84,0,0,1,0-3,.45.45,0,0,0,.18-.53h-.18v-.71h-.18v-.71c-.29-.41-.59-.82-.88-1.24H185l-.18-.53h-.18v-.18l-.89.18c-.05-.4,0-.47-.17-.71h-.18v-.36l-.36-.17v-.36h-.17v-.53h-.18v-.35h-.18v-3.2c-.23-.65-.47-1.3-.71-1.95h-.18a1.44,1.44,0,0,1-.35-.71h-.53v-.35c-.7-.21-.23,0-.53-.54h-.18v-.35l-.53-.36v-.35h-.18l.18-4.61c-.51-1.78-.76-4.64-2.13-5.5a2.42,2.42,0,0,1,.35-1.6l.36-.18v-.35l.35-.18v-.35h.18v-2.13s.12,0,.18-.36l.88-.17v-.18h1.07v-.18h.35v-.18h.53v-.17a3.18,3.18,0,0,1,1.6-.36l-.18,1.07h-.17v1.24h-.18v.35l-.53.36v.35l-.36.18v.53h-.18v.53h-.17c-.29.94.63,2.37.88,2.84V873h.18v.35h.18v.53h.18c.11.36.23.71.35,1.07h.18v.35l.35.18v.36l.89.71.36.53h.35l.18.35,1.24.36v1.59h-.18l-.18,1.25.54,1.59.35.18v.35l.71.54v.35l.53.36v.35l.54.36V885l.35.18.18.53,1.59.53v.18l.71.18v.17H193V887h2.13v-.18l1.06.18c-.07.78-.48,2.76-.18,3.73h.18l.18,1.24h.18v.35h.17l.18,1.07h.18l.18.71h.17v.35l1.07,1.42h.35l.18.36.71.53v.18h.35v.17a1.41,1.41,0,0,0,.71.36c.09.57.26.65,0,1.24h-.17v.71h-.18v.53h-.18c-.06.3.17.32.18.36.27,1.36-.2,2.5,1.06,2.84l.54,1.77h.17a1.93,1.93,0,0,1,.53.89c.59.16.83.55,1.25.88v.18l.71.18v.18l1.06.35v.18l2.13.35v.18h.18a2.27,2.27,0,0,0,0,1.77v.89c.51,1.35,1.72,2.25,2.66,3.19a7.33,7.33,0,0,0,2.66,2.13h.89c.24,0-.07.12.17.18l1.95-.18.18.71-.53.36v.35h-.18c-.61,1.34-1,5.41.18,6.39.21.73.29.43.89.71V925h.88a3,3,0,0,0,.54.53v.35c1.36.4,1.27,1.46,3.37,1.42h.88v-.18h1.6l.18-.35c.72-.46,1.54-.66,1.77-1.6l.71-.17v-.18a2.67,2.67,0,0,1,2,.35c1,.6.38.73.71,1.78.13.39.67,1.37.36,2.13l-.36.17v.53h-.18c-.05.36-.11.71-.17,1.07H229a2.64,2.64,0,0,0-.71,1.06l-.71.18a2.18,2.18,0,0,1-.53.89h-.18v.88h-.18c-.3.67-.26.89-.88,1.25-.06,2.29.41,3.92,2.66,3.9.24,1.11,1.16,1.4,1.77,2.13l2-.18v-.18l.71-.17.36-.54,1.24-1.06c.27-.3.14-.45.53-.71,0-1.43-.36-1.94-.35-3.37l1.06-1.24h1.07c0,.12.11.23.17.35l.36.18a4.1,4.1,0,0,1,.53,3h-.18v.88c.22.7.89,1,1.07,1.78.2.2.07,0,.17.35A1.8,1.8,0,0,0,238.24,940.92Zm5,21.82c-.68.09-.49.22-1.06.36-.11-.36,0-.16-.18-.36a2.24,2.24,0,0,1,.18-.89l1.06-.17A1.82,1.82,0,0,1,243.21,962.74Zm14,10.29-3.2.53v-.18h-.35v-.17l-1.42.17-.18-.35a3.72,3.72,0,0,0-1.24-.53l-.18-1.07h-.18c-.2-.77-.67-.68-1.24-1.06-.06-.12-.12-.24-.17-.36h-.36l-.18-.35h-.35v-.18l-.71-.53v-.89a3.82,3.82,0,0,0,1.95-1.59l.36-1.6c1.95.22,1.57,2,3.72,2.13a5.32,5.32,0,0,0,1.77,2.48v.36l.54.17c.06.24.11.48.17.71h.18v1.42h.18c.25.85.21.17.71.53v.18h.18Z"/></g></g></svg>