<svg xmlns="http://www.w3.org/2000/svg" viewBox="0 0 171.72 163.57"><g id="圖層_2" data-name="圖層 2"><g id="圖層_1-2" data-name="圖層 1"><path d="M28.51,22.43c3-2.12,4.93-2.46,5.86-3.54s4.31-5.24,5.85-6.32,9.1-4.32,11.87-5.71S61.34,1.93,67.5,1.47,83.69.7,84.92.55s4-1.39,7.4.46a77.92,77.92,0,0,0,11.87,5.24c3.08.92,5.85,3.7,8.17,4.16s5.7,2.16,8.63,2,3.39,1.08,5.24,1.7,5.24.92,6.47,1.69a31.15,31.15,0,0,1,7.71,7.56c2.16,3.39,7.7,15.41,11.1,21.73s9.24,13.25,11.56,22.19,2.92,16.5,4.31,21.43,1.85,10.79,1.23,14.33-.92,6.17-.46,7.55a61.7,61.7,0,0,1,3.08,8.94c1.39,5.4-.46,7.56-2.15,10.64s-7.25,11.4-10.18,12a10.76,10.76,0,0,0-5.85,3.7c-1.08,1.23-3.24,3.08-5.71,3.24s-6.16,2-7.24,2.31-15.57.62-20.5,2.77-6.78,4.47-12.18,5.24-12.17.62-16.49,1.24-22,6.16-33.91,0S44.69,148.2,43,145a27.6,27.6,0,0,0-6.17-7.56c-1.54-1.23-5.08.16-5.7-1.85s-1.08-3.23-1.08-3.23-3.85-5.55-8.94-11.56-8.17-9.4-8.48-15.11S11.25,98.11,11.09,95s.46-5.4-.61-7.86-3.24-3.24-4.17-7.71-.92-7.24-1.23-9.25-1.85-8-3.39-9.09S-.62,59.27.61,58.5s1.85-.77,2.16-3.39S3.69,48,4.93,45.55s8.32-6.63,11.4-10.33S23.27,26.13,28.51,22.43Z"/></g></g></svg>