<svg xmlns="http://www.w3.org/2000/svg" viewBox="0 0 427.14 297.97"><g id="圖層_2" data-name="圖層 2"><g id="圖層_1-2" data-name="圖層 1"><path d="M278.25,19.15c5.43,1.58,7.47,3.39,8.26,5.32s2.15,8,2.15,8,5.21,5.43,6.91,6.9a14.61,14.61,0,0,1,2.94,4.08s-1.36,1.13-.45,1.81,5,2.94,6,4a42.46,42.46,0,0,1,3.28,4.65l1,3.05,2.49,1s-.17-1.07.8-.11.51.62,1,1,.85.4,1,.57,1.53,2.09,2.21,2.88,1.24,2.72,1.75,3.34,3.17,3.85,3.17,3.85,4.81,4.36,5.44,5.44a29.39,29.39,0,0,1,1.36,2.94,22.38,22.38,0,0,1,2.37,2.38,8.3,8.3,0,0,1,.91,2.49A33.76,33.76,0,0,0,334,86.23c.85.62,2.89,4.13,3.28,5.1s.91,2.15.51,2.66a4,4,0,0,1-.79.79L337,97.1s2.32,1.42,2.38,2.49a35.22,35.22,0,0,1-.45,4.31s1.7,0,1.3,1.3a5.3,5.3,0,0,1-2.09,2.32s-1.19,1.75-2,1.13a7.55,7.55,0,0,0-1.59-.9s-3.79,1-5.77-.34a50.66,50.66,0,0,1-4.81-3.91,7,7,0,0,1-3.91-1.42A25,25,0,0,1,317,99s-5.5-1.31-8.21-3.23a29.11,29.11,0,0,0-7.31-3.23,10.26,10.26,0,0,0-1.81,1.93c-.68,1-3.17,1.58-3.17,1.58a20.84,20.84,0,0,1,2.38,4c.62,1.64,2.38,6.68,3.4,8.83s4.41,8.15,5.83,9.57a8.14,8.14,0,0,1,2.32,3.9c.45,1.47,2.44,1.9,2.15,3.06-.23.9-.79.68-.79.68s4.07,6,4.75,7.24,3.51,6.68,4.25,8.21a36.59,36.59,0,0,0,5.77,7.25c1.25.91,4.48,1.42,5.44,2.94s.39,3.12-.62,3.34c0,0,5.83,6.74,6.28,7.53s2.66,1.31,3.11,2.78,2.95,3.17,2.95,3.17,1.13-.68,1.64.17a1.09,1.09,0,0,1,0,1.36s1.58,1.24,1.81,2.15a6.09,6.09,0,0,1,0,2.15s2.49,1.24,3,2.77,1.08,3,2,3.46a8.37,8.37,0,0,1,4,3c1.69,2.27,2.54,6.4,3.51,7.7s1.52,1.3,1.35,1.81,1,1.08,1.65,2.44.45,3.4.79,4.41,1.7,1.82,1.87,3.34.39,3.68.39,3.68,2.61,1.36,2.66,2.55-.11,1.25.17,1.42a5.3,5.3,0,0,1,1.42,2c.51,1.07.57,2.49,1,2.94a5.93,5.93,0,0,1,1.75,2.32c.46,1.25,1.19,4.82,1.59,5.67s1,2,1,2,1.47.11,1.93.68a12.42,12.42,0,0,1,1.07,2.54,18.67,18.67,0,0,0,1.42,3c.68,1,1,1,1.75,2s.45,1.58,1.64,2.54c0,0,2.27,2.15,2.32,2.78s-1,.79-.79.9,1.47,1.59,1.76,1.53a1.66,1.66,0,0,1,1.7.23,32.64,32.64,0,0,1,3.79,3.34,17.19,17.19,0,0,1,1.36,2.6,10.8,10.8,0,0,1,2.77,3.68c1.08,2.32,1.53,3.68,2.89,4.93s3.06,3.85,4.07,4.87.68,2.49.91,2.94,5.15,5.15,7.13,7.93,3.68,4.92,5,6.73,3.63,4.19,4.19,4.31.57-.68,1.08-.29a2.15,2.15,0,0,1,.68.91.69.69,0,0,0-.29.85c.17.62.46,1.24.34,1.58a3.17,3.17,0,0,1-.34.68l1.19.85a.81.81,0,0,1,1.19-.51c.91.45,1,1.08,1.59,1a6.19,6.19,0,0,1,1.47.11s-.11.8-.51,1-.34.56-.68,1a3.15,3.15,0,0,1-.11,2.15c-.51.73-1.7,2.6-3.06,2.49,0,0-.51,1.19-1.3,1.07l-.8-.11s-.62,1.08-1.58,0a.83.83,0,0,0-.11,1.25s.49.15.15.41-.91-.07-1.1-.41a2.19,2.19,0,0,1,0-1.1s-.75-.07-.86-.41-.08-1.14-.19-1.32-.68-1.51-.68-1.51-1.55-.27-1.85-.27a.49.49,0,0,0-.42.19s-3.17-3.17-3.54-3.4-.34-.34-1.44-1.43-2.87-2.87-3.28-2.83-.57.56-1.32-.11-3.06-3.44-3.06-3.44-3.92.76-4.94.94a30.55,30.55,0,0,1-3.14.27,16.07,16.07,0,0,1-2.53,2.38,17.43,17.43,0,0,1-2.07.56,3.5,3.5,0,0,1-2.3-.41,1.43,1.43,0,0,1-1.32.34c-.91-.15-.83-.31-.83-.31s-1.06,1.36-1.78,1.25-2-1.58-2.49-1.81-1.58-1.06-1.62-1.85a4.06,4.06,0,0,1,.9-2,11.27,11.27,0,0,0-.75-1.74c-.15-.07-.64.79-1.32.26a26.75,26.75,0,0,0-2.64-2.26c-.31,0-.46,1-1.25.57s-1.13-.46-1.77-.87-2.76-2.83-3.51-3.44-3.66-2.52-3.66-2.52a2.79,2.79,0,0,1-2.34-.08c-1.1-.64-3-2.64-3.74-3.13s-1.74-.83-2.79-1.51L353.16,265s-.34,1.69-.64,2.6-.64,2.3-.3,2.87,1.25,1.32,1.09,1.47-1,1.47-1.54,1.25a11.81,11.81,0,0,0-2-1c-.53-.08-1.29.07-1.48-.72s.16-2.79-.07-3.1a7,7,0,0,1-.91-2.34,21.48,21.48,0,0,0-.56-3.43,7.39,7.39,0,0,0-2.3-1.77c-.8-.34-.38.15-1.59-.83s-5-5-5.51-5.44-2-1.7-2.72-2.26-1.92-1.4-1.92-1.4a15.89,15.89,0,0,1-2.76-.19,4.93,4.93,0,0,1-3-1.21,39,39,0,0,1-3.66-4.64,22.05,22.05,0,0,0-2.53-2.83c-.64-.49-5.54-4.19-8.49-6.91s-4.53-5.13-5.81-6.41-4.34-4.49-6.27-6.72a24.13,24.13,0,0,1-3.28-4.49c-.64-1.17-1.66-3.78-1.92-3.89a9.67,9.67,0,0,1-2.42-1.74c-.23-.45.34-1.32.19-1.54a13.29,13.29,0,0,0-1.13-1.21c-.53-.53-.38-1.43-.46-1.66s-.56-1.1-1.36-1.06-.64.79-1.09.34-2.87-3.32-3.47-4.07-.68-1.67-1.78-2.68a15.12,15.12,0,0,1-2.71-2.72,5.27,5.27,0,0,0-1.63-2.08,2.09,2.09,0,0,1-2-.26c-1-.72-2.9-2.23-3.05-3.51a20.28,20.28,0,0,1,.11-2.53c-.08-.76.23-1.43-.19-1.77s-.72-.57-.72-.57,0,.57-.86-.42a5.74,5.74,0,0,1-1.14-2.71l-2.71-2.72a1.85,1.85,0,0,1-1.21-.3c-.45-.38-3.93-4.15-4.38-4.46s-1.51-.68-1.47-1.17.38-.9.22-1-2.41-4.08-2.83-4.42-1.13-.53-1.32-1.55-.15-2.56-.41-3.43a13.4,13.4,0,0,0-1.32-3.28c-.53-.68-2.27-1.66-2.61-2.68a2.15,2.15,0,0,1,.49-1.93s-4.37-5.21-5.13-5.58a18.08,18.08,0,0,0-4-1.21c-1.59-.3-2.87-.83-4.53-3.1s-3.92-4.22-3.74-10.38.53-8.53,1.7-10.53,1.47-3.88,2.12-5.05-.91-3.1-.68-3.85a2.59,2.59,0,0,0-.12-1.55s-2.3-.72-3.39-.38-2.15-.56-3.4,1,.13,1.57-1.34,2.14L228.43,119a1.56,1.56,0,0,1-1.31,1.64,13,13,0,0,1-4.7-.05l-2-.46a9.87,9.87,0,0,0-2.49,1.93,49.22,49.22,0,0,0-3.23,4.81,6,6,0,0,1-4.13,2.89,12.22,12.22,0,0,1-4.76,0,67.51,67.51,0,0,0-5.94,3.68c-1.31,1.07-2.78,3-3.74,3.28a5.6,5.6,0,0,0-1.81,1s.34.91-.4,1.19a15.92,15.92,0,0,0-2.15,1.24l-3.45,1.42-2,2.26s1.07,1.08-1.36,2.72l-2.21,1.87s.4.4-1,1.59c0,0-.51,2.2-1.64,3s-4,3.11-4,3.11.4,1-.39,1.3-3,1.36-3,1.36-1.43,2-2.32,2.32c-.68.23-.85-.06-.85-.06a24.56,24.56,0,0,1-2.43,2.55c-.29.06-2.66,3.12-3.91,3.46a2.77,2.77,0,0,1-.85,2.54C161.11,170.7,157,176,157,176a1.44,1.44,0,0,1-.11,2.27,36.37,36.37,0,0,1-3.23,2.89,19.14,19.14,0,0,0-2.09,2.2c-.17.29.33,1.36-.46,2.27s-2,2.66-2,2.66,2.72,1.36,1.13,3.28-3.79,4.81-5.15,5.61-6.4.73-6.4.73l-6.51,5.38a16.75,16.75,0,0,1-1.47,2.95,29.05,29.05,0,0,1-2,2.26s.68,1.25,0,1.36a9,9,0,0,1-2.77-.85,12.31,12.31,0,0,1-2.38,1.58,11.43,11.43,0,0,1-3.56,1.08,9.38,9.38,0,0,1-2.27-.68,9.15,9.15,0,0,1-1,2.72c-.56.68.45,1.92-.56,2.72s-1.76,1.41-1.76,1.41,0,1.7-.51,2.1a5,5,0,0,1-2.15.34s-4.64,3.39-6.06,3.9-3.73.79-4.81,1.19-3.28,3.17-3.57,3.34,1.14.34-.17,2.1a15.87,15.87,0,0,1-6,4.3c-1.47.45-3.73,0-4,.28s-1,2.15-2,2.72-2,2.26-4.18,3.06-9.29-.57-9.29-.57-2,3.23-4.42,2.26-8.32-5.15-8.32-5.15A13.71,13.71,0,0,1,56,239.52a7.91,7.91,0,0,1-2.41,0,17.63,17.63,0,0,0-2.57-.15,15.9,15.9,0,0,0-2,.68c-.6.3-3.17-.45-3-1.66s-.9-.45-.53-1.28.31,0,1.21.15.76-.76.76-.76.07-1,.15-1.66-1-2.49-1.13-2.79-2-2.11-2-2.11a9.49,9.49,0,0,1-3.32-1.21,27.36,27.36,0,0,1-3.92-3,49.46,49.46,0,0,0-4.83-2.42,15.06,15.06,0,0,0-3.33-.9,25.26,25.26,0,0,0-4.83,1.05c-1.05.31-2.11,1.21-2.79.53s-2.72-.75-2.72-.75-3.39,2.49-4.38,2.26a3.66,3.66,0,0,1-2.86-2.72c-.38-1.73-4.16-14.87-4.16-14.87L6.77,203a10.24,10.24,0,0,1-2-2.49c-.45-1.06,1.58-3.25,1.06-4.08s-1-1.89-.31-2.11a8.85,8.85,0,0,0,1.59-.83,21.48,21.48,0,0,1-2.72-3A11.58,11.58,0,0,1,2.92,186c-.08-.83-1.66-2-1.66-3.32s-2-3.62-1-5.51,0-4.83,0-4.83-.45-3.32,1.14-4.75a12.28,12.28,0,0,1,3.85-2.19A20.66,20.66,0,0,1,7,162.15a4.85,4.85,0,0,1,1.66-1.51s-1.43-.23-1.66-3-1.81-4.83,2.49-8.23,7.4-5.28,9.51-7.24,4.46-4.46,2.87-8.46-4.15-7.92.61-11.17,9.13-4.91,10.56-6,2.87-1.81,5.59,0c0,0,3.85-1.28,7.4-2.41a18.44,18.44,0,0,0,6.87-4,46.76,46.76,0,0,0,3.49-5.72s1.47-13.36,3.73-18a48.87,48.87,0,0,1,4.53-7.48c.29-.51,1.25-1.47,3.4-4.3s3.79-8.21,7-9.17,9.12-1.87,9.4-2,2.09-2.55,3.06-2.94a5.39,5.39,0,0,1,1.86-.4,6.52,6.52,0,0,1,1.1-3.4,11.56,11.56,0,0,1,1.73-1.88s-2.41-.61-.83-3.1a8.26,8.26,0,0,1,3.55-3.24,2.79,2.79,0,0,1-.3-2.12,17.86,17.86,0,0,0,1-3.24c0-.46-.45-2.72-.53-3.55s1.36-2.87,1.36-2.87-.68-1.59-.15-2.11a31.49,31.49,0,0,0,2-2.49,12.87,12.87,0,0,0,1.58-2c.46-.91,2.42-2.12,2.19-3.1a5.81,5.81,0,0,1,.53-3.85c.68-1,2.87-1.66,2.87-1.66l2.19-.53a1.24,1.24,0,0,0,1.51,1.21,2.76,2.76,0,0,0,2.11-1.21s.68-1,.3-1.2,1.06-.31,1.89-.23a1.52,1.52,0,0,1,1.13.53l.91-.15s.53-.83,1.13-.83a3.28,3.28,0,0,1,1.36.45l1.3.24s.57-.79,1.25-.79a13.34,13.34,0,0,0,2.26-.56c.57-.12,1.3.39,1.64.28s1.31-1.3,1.87-1.3,1.08.51,1.3.28.63-.17,1-.62a3.76,3.76,0,0,1,1.19-.85l.79.79-.28.28a4.73,4.73,0,0,0,1.52-.05,13.52,13.52,0,0,1,1.31-1c.39-.16,1.41.51,1.69.34s1.87-1.64,1.87-1.64.8.57,1.19.51a6.26,6.26,0,0,0,1.3-.51L141,14.5s.79-1.47,1.24-1.36.74,1.19,1.25,1.14,2.88.17,2.88.17-1.19-.85-1.07-1.08.28-.74.68-.57a7.72,7.72,0,0,1,1.19.85s1.13-.34,1-.56-1.42-1.19-.63-1.08a3.67,3.67,0,0,1,1.53.74s1.13-1.81,1.93-1.93a17.58,17.58,0,0,1,2.66.06l2.83-1.7s.34-1.81,1.7-1.58,1.81.34,2.32-.17.9-1.36,1.3-1a14.61,14.61,0,0,0,1.24,1s.85-.85,1.42-.85,1.19-1.07,1.7-1,.62.51,1.19.63,1-.46.28-.63.17-.84,1.19-1.18,3.28-.57,4.36-.85,5.89-.34,7.19-1.08,1.92-1.36,3.28-1.36a18.57,18.57,0,0,0,4.76-1C189.93-.33,193,.58,195,1a87.37,87.37,0,0,0,9.35,1.87c2.15.11,6.11.56,8,.9s4.53.68,6.74,1.08a24.62,24.62,0,0,1,6.06,2.43A16.75,16.75,0,0,1,228,9.18s-.28-.73,1.36.23a7.68,7.68,0,0,0,3.51,1.13,14.7,14.7,0,0,0,4.76.57,69.86,69.86,0,0,1,11.55-.34c2.49.34,7.24,2,9,2.09a8.74,8.74,0,0,1,4.36,1.53c1.19.74,4.41,2.15,4.41,2.15l8,3.06s.45,1.24.62.73.57-1.24,1.14-1.24a7.11,7.11,0,0,1,1.3.17Z"/></g></g></svg>