<svg xmlns="http://www.w3.org/2000/svg" viewBox="0 0 273.7 721.49"><g id="圖層_2" data-name="圖層 2"><g id="圖層_1-2" data-name="圖層 1"><path d="M182.11,426.18c4.55-8.53,8-15.35,8-15.35s5.69-12.52,8.53-17.64,21.05-19.9,25.6-29.57,21.61-36.4,23.32-46.64,2.84-25.59,2.84-25.59,5.12-18.77,9.1-26.17,14.79-35.26,14.22-41.51-3.41-17.07-5.12-18.77-33-34.13-32.42-38.68,1.14-11.37-1.14-10.81-2.84-14.21-2.84-14.21l-9.67-20.48s6.83-5.69,7.39-9.1.57-13.08,0-15.93-4-12.51-4-12.51l-6.82-4s1.7-5.12-1.14-8.53a22.81,22.81,0,0,1-4-8s-4-8.53-9.1-10.81-11.38-4.55-11.38-4.55-4.55-4.55-8-5.12-17.06,1.14-17.06,1.14-11.38-9.67-15.36-13.08S133.76,14.4,129.78,13.26s-18.2.57-18.2.57S105.89,3.6,104.19,3,95.66,2.46,90,3,81.44-.95,76.89.18s-16.5,9.1-16.5,9.1l-6.25,6.26S20,64.45,17.74,73.55s-7.4,48.92-6.83,74.51S16,201,15.46,210.62s1.14,17.64,1.71,31.85-2.28,40.39,0,59.72c0,0-5.69,2.28-4,14.79s11.94,22.75,11.94,29.58-.57,18.77.57,23.88,5.69,15.36,8.53,19.34,5.12,13.65,4.55,17.63-5.69,13.09-.57,18.2S50.73,431.3,53.57,437s-1.14,16.49-2.84,16.49-6.83-4-6.83-4-3.41,3.41-.57,6.26,4.31,10.68,12.27,6.7c0,0-.56,13.28,0,20.11s2.15,26.11-.21,26.58-3.76-3.29-3.76-3.29,2.35,7.06,3.76,10.36,2.66,31.89,1.25,38-5,5.77-5,5.77l-3.77,7.06a9.12,9.12,0,0,1-6.59,0c-3.3-1.41-3.3-5.18-4.71-4.23s-6.13,5.18-3.3,5.65,3.3-1,6.12,1.41,1.41,9.42,1.41,9.42S30,589.68,28.55,592s-10.36,20.25-13.18,29.2,0,25.9-1.89,28.72S1.24,660.78,1.24,660.78s-4.71,5.18,4.24,14.6A208.87,208.87,0,0,0,23.84,692.8c2.36,1.89,10.83,10.36,16.48,11.31s14.6-.47,14.6-.47,15.54,12.24,20.72,15.54,17.42,3.29,22.6-1.42,14.6-6.59,18.37-12.24S135,683.39,135,683.39s8-.47,10.84-3.77,9.88-15.07,12.24-21.19,12.24-24,16.95-24,2.36-4.71,2.83-7.06,8-13.66,8.47-18.84-6.12-11.77-10.36-14.6-7.53-13.18-6.59-16.48,4.24-4.23,4.24-11.3-.94-9-.47-18.37,1.41-13.19,0-12.72-7.54,7.07-7.54,7.07,0,7.53,2.36,4.7,1.88-4.7,1.88-4.7,1.41,8.47-2.35,9.88-5.18-12.71-3.77-20.72-2.35-7.06-2.35-7.06V527s0,4.71-.48,9.89.95,12.71-1.41,13.18-6.92-20.24-6.92-22.12-.48-11.3-.48-11.3l-.2-5.76a253.85,253.85,0,0,0,.52-25.78c-.57-10.81,3.09-31.3,3.09-33s14.69-14,18.11-19.71S182.11,426.18,182.11,426.18Z"/></g></g></svg>