<svg xmlns="http://www.w3.org/2000/svg" viewBox="0 0 134.11 538.87"><g id="圖層_2" data-name="圖層 2"><g id="圖層_1-2" data-name="圖層 1"><path d="M46.58,2.7,48.08,0a26.15,26.15,0,0,1,5.69,3,9.32,9.32,0,0,1,3,7.78c-.3,3.3-.3,12.59-.3,12.59s3.3,4.19,3.3,7.79-1.5,13.18-.6,14.38a31.39,31.39,0,0,1,2.09,3.59l-2.39,3a6.3,6.3,0,0,1,3,4.49c.3,3-.9,3-2.39,2.7L61,67.71a10.83,10.83,0,0,1,2.4,4.79l8.39,415.29s1,36.4,1,37.75.75,7.64.75,7.64l-6.74,5.69s-7.34-3.74-8.24-4.49l-3.75-3.15L53,499.48s.15-6.74-1.34-9.29-4.5-7.49-4.5-7.94-.75-407-.75-407a12.25,12.25,0,0,1-2.84-5.09c-.75-3-.15-6.44-.3-6.89s1.35-3.3,1.2-3.9a19,19,0,0,1-.15-5.24c.3-1.5,2.84-5.24,2.84-5.24s1.5-12.44,1.35-16.48,2.1-25,2.1-25.91a5.92,5.92,0,0,0-.6-2.1l-2-2.1Z"/><path d="M69.05,73,67,75.12h-4.8a17.21,17.21,0,0,0-5.09,1.5c-2.4,1.2-8.39,3.59-8.39,3.59s-6.59,3.6-10.48,5.7A18,18,0,0,0,30.41,94c-1.2,2.7-8.69,5.1-12.59,8.69S7.34,111.67,4,119.46-.45,133.54.15,140.13s4.79,11.08,7.49,15S16.33,168,18.42,170.69a11.3,11.3,0,0,1,2.4,4.79l-2.4-.6v3.3c0,3.29,1.2,3.59,2.4,5.69s.6,5.09.6,9,0,6.89.9,9.28,5.39,6.59,8.09,6.59a18.22,18.22,0,0,0,5.69-1.19,5.14,5.14,0,0,0,3,2.69c2.1.6,1.2-4.19,1.2-4.19a22,22,0,0,1,6,1.8c2.1,1.19,3.6-2.1,5.4-2.7s6.89-.3,8.09,0,8.38,2.1,10.48,2.1,10.79.3,13.78,0,3.6-1.8,5.69-3,10.49-4.19,10.49-4.19,4.79-6.89,6.29-10.19,4.19-11.68,4.19-13.78,3.3-1.8,4.5-4.49,3-8.09,2.69-9.89a58.08,58.08,0,0,1-.59-7.19c0-1.8,3.29-1.8,3-4.19s-.9-8.09-.9-8.09,2.1-1.5,1.5-2.7-1.2-6-3.3-7.79-1.19,1.8-1.19,1.8l-1.8-.9L113.09,121s-.9-24.27-.9-25.77-5.39-11.38-5.39-11.38c-.6-4.2-5.39-3.9-5.39-3.9A54.76,54.76,0,0,1,96,74.22c-2.09-2.69-9.58-8.69-11.68-9S69.05,73,69.05,73"/><path d="M64.26,214.73c4.19-2.7,29.36-11.09,32.65-12.89a7.21,7.21,0,0,1,6.29-.3s.3-2.39,1.8-1.49,3-1.2,5.39.3,3,3,3.6,5.39,2.1,2.39,2.4,3.59a35.26,35.26,0,0,1,0,5.7s1.49,4.79,2.69,5.09,1.5-2.1,2.1-.3l-.3,4.19-3.3,9.29a4.58,4.58,0,0,1,2.4,3.89c0,2.7-4.19,4.5-4.19,4.5l.9,8.09s3.59-2.4,5.69-2.1c0,0,4.19-.9,5.09,1.2s-3,3.89-3,3.89a42.87,42.87,0,0,0-2.7,5.4c-.6,1.79-1.5,6.29-.9,9.28s1.2,6.29.9,7.79-1.5,5.69-1.5,5.69l2.1,4.8-2.4,6.89,1.5,5.39-2.4,1.8-1.5-.6-.29,4.19,2.09,3.9-1.8,4.19-3.89,4.79-1.2,4.8,3,1.79a21,21,0,0,0-4.8,4.2c-1.49,2.1-.89,3.59-2.09,4.79s-7.19,6.29-7.19,6.29l-3.3-2.69-2.69,3.29-3.6-.9s-2.4-2.69-2.7-1.79-9.28,6.29-10.78,6.89-6.89.3-8.09.6-6.89-.3-6.89-.3-8.39-.6-9.59-.9-6.29-4.5-6.29-4.5-6-5.39-7.79-8.38S35.2,323.77,34.6,319a16.25,16.25,0,0,1,.9-8.09l-4.2-7.19a8.6,8.6,0,0,1-4.19-2.4c-1.5-1.79-5.09-9.58-8.09-13.18s-4.79-12-4.79-12,3,3.89,3.89,3.3.3-6.89.9-10.79,4.8-13.18,6.29-18.87S34.9,236.3,40.89,230.9,64.26,214.73,64.26,214.73Z"/><path d="M51.83,344.22c1.16-.6,11.26-4.45,13.35-5.23s23-6.55,25.15-9.17,10.47-5,17-3.14,21,9.69,23.05,14.66a17.45,17.45,0,0,1,1.31,9.17s3.4.79,2.1,3.4a35.72,35.72,0,0,1-3.67,5.5l-6.29,27.51s-2.09,10.73-1.31,12.83-.52,3.14-1.31,3.93-1.57,4.19-1.57,4.19-3.4,3.14-3.14,3.93,2.62,1.57,1.57,4.19-3.93,8.64-3.93,8.64l2.1.52L115,427l1.31,1.05-2.36,1.31-1.05-1.84-1.57,2.62,1,2.62s3.93-1.31,1.83.79-4.71,4.45-4.71,4.45,5.24-1.83,3.4-.53-8.38,4.46-12.31,7.08-13.36,5.76-16.24,6.54S73,453.7,71.47,453.44s-12.31-2.62-12.31-2.62A12.76,12.76,0,0,1,56,451.87c-1.57.26-3.93-1.83-3.93-1.83l-2.88-2.1a3,3,0,0,1-3.67.79c-2.36-1.05-4.45-3.15-5.24-3.15s-2.62-5.5-4.45-6.54-.79-2.1-.79-2.1-3.4-4.45-5.76-7.59a11.08,11.08,0,0,1-2.09-7.86c.26-.79,1.83-4.45.26-7.07s-5-6.29-5.76-7.86a24.66,24.66,0,0,1-2.1-7.86v-5.5L22,390.32s-4.72-5.24-5.5-7.07,1.83-5.5,3.93-9.69,7.07-10.74,10-15.19S40.3,350.25,51.83,344.22Z"/></g></g></svg>