<svg xmlns="http://www.w3.org/2000/svg" viewBox="0 0 515.1 227.06"><g id="圖層_2" data-name="圖層 2"><g id="圖層_1-2" data-name="圖層 1"><path d="M149,224.35c-3-.68-5.72-4.5-5.72-4.5l-2.22-5.61s-3.78-4.12-3.7-6.09-1.11-3.49-.95-6.07-2.3-8.82-3.62-10.51-6.41-8.86-7.15-9.1-2.4-.29-1.66-1.42a1.87,1.87,0,0,1,1.65-1,19.36,19.36,0,0,1,1.34-3.5l-.93-1.18s-2.15,1.42-2.78.27,2.88-3.62,2.88-3.62a36.76,36.76,0,0,1-1.16-5.63c-.08-1.84-.1-2.91-.5-3.42s-1.47-.48-1.08-2.42c0,0-1.64-.35-.93-1.18s1.79-2.22,1.79-2.22.21-4.25.09-5.79l-.6-7.71s-1.13-.74-1.45-3.22-.32-8.74-1.16-11.89-1.77-8.15-1.77-8.15-3.8-1.37-4.43-2.52-1.71-3.56-1.71-3.56l-4.08-4.15,2.47-2.76s-.19-.94,1.4-2.73a32.23,32.23,0,0,0,3.39-5.39s-.2-3.39-1.5-4S106.72,90,104.57,87.6l-2.16-2.39-1.48.89s-1.21-2.59-2.46-4.88-2.06-1.92-.7-4.35,3.1-3,4.3-5.29A22.05,22.05,0,0,0,104.32,63c0-2.44.67-8.16.7-10.9s3.74-7,3.74-7-.41-3,1.21-3.67c0,0,1.15-2,2.09-2.19,0,0-.18-2.31.76-2.5,0,0-1-2.87.49-4.07a27.86,27.86,0,0,1,2.63-1.85,4,4,0,0,1,0-2.06c.34-.88,1.75-1.17,1.75-1.17a22.59,22.59,0,0,0,1.92-1.71,17.47,17.47,0,0,0,1.63-2.1s-.77-1.23.38-1.32a15.16,15.16,0,0,1,2.51.07,2,2,0,0,1,1.94-.91s1.51-.16,1.91.34a2.79,2.79,0,0,1,.26,1.64,3.91,3.91,0,0,1,1.5.86,7.49,7.49,0,0,1,1.33,2.22l3.59.66s1.72-2,2-2.39-.26-1.63,2-1.59c0,0-.4-.79,1.22-1.57a4.51,4.51,0,0,1,3.09,0s1.05-2.05,1.78-2.42,2.63-1.86,3.68-2.07a33.26,33.26,0,0,1,3.6-.37c.57-.05,1.63,2.6,1.63,2.6a23.79,23.79,0,0,1,4,2c1,.82,3.63,5.94,3.93,6.32a40.26,40.26,0,0,0,3.83,4.35c1,.68,2.12,1.4,1.11,2.19l-1,.79-.65,2.56s1.29,1.64.73,2.49-1,1.6-1,1.6a1.06,1.06,0,0,1,.19,1.28,7.08,7.08,0,0,0-.27,2.26,7,7,0,0,1-.19,1.58c-.18.55,1.42,4.4,1.42,4.4s2.75,6.63,3.07,7.81a26.48,26.48,0,0,1,1.1,3.22c.19,1.29-1.91,2.52-1.91,2.52s.77,1.24,1.14,2-.06,1.48-.37,2.13-1.13,2.73-1.13,2.73,1.67,1.34,2.72,2.15a4.09,4.09,0,0,1,1.18,2.55,1.74,1.74,0,0,1,1.3.61c.49.64,1.27.84,1.29,1.65A10.49,10.49,0,0,1,173,81.6s.39,1.53.71,2.72a2.55,2.55,0,0,1-.73,2.2s1.16,2.77,1.33,3.25a4.78,4.78,0,0,1-.09,1.7,1.33,1.33,0,0,1,.74,1.47,5.22,5.22,0,0,1-.95,2.17s1.58.19,1.82,1-.13,1.13-.34,1.91a16.2,16.2,0,0,0-.87,2.52c-.11.91-.33,2.71.17,3.34a22.55,22.55,0,0,0,3,2.32s-.59,1.07-.89.69-.57,0-1.48-.06a5.73,5.73,0,0,1-.3,2.48,9.59,9.59,0,0,1-2.61,2.66,6.6,6.6,0,0,0-2.4,1.89c-.43.75,0,2.63,0,3.89s-.41,4.41-.6,6-1.47,7.49-1.29,9.8,1.7,5.82,1.61,7.52-.1,5.6-.1,5.6.12.93.18,2.31a11.5,11.5,0,0,0,1.07,3.45s1-1,1.89-.46a16.36,16.36,0,0,1,1.47,1.09s1.33.39,1.7,1.12a17.8,17.8,0,0,1,.77,3.07s-.55,5.54-.4,6.25-1.9,1.49-1.9,1.49-1.33,2.47-1.66,3.35-1.55,4.27-1.93,5.6-.22,4.67-1,5.49a16.9,16.9,0,0,0-1.88,3.32s-.18,2.38-.16,3.19-.46,1-1.2-.49l-1.06,1.25s-.18,2.38-.17,4.21-1.7,5.63-1.71,6.66-1.17,4-1.15,4.79,1.63,2.6,1.54,4.3-2.32,4.07-3.12,4.09a2.79,2.79,0,0,1-1.63-.77,4,4,0,0,0-1.25,2.83l-.12,1.93s-1.78-.44-1.07,2.27,0,3.67-1.58,5.54S152.52,225.15,149,224.35Z"/><path d="M429,226.94a4.55,4.55,0,0,1-.11-2.29,17.2,17.2,0,0,0,.48-1.79s-1.16.39-1.37-.15a10.48,10.48,0,0,1-.28-3.83,14,14,0,0,1,1.41-3.56,2.86,2.86,0,0,1-.33-2c.31-.94.71-2.84.71-2.84a13.54,13.54,0,0,1-.66-3.53c-.11-2,2.06-4.6,2.28-5.13s-.47-.86-.11-2,.83-1.88.58-2.21-1.55-.9-.81-1.83a30.74,30.74,0,0,0,2.31-2.69c.22-.52,1.09-1.56,1-2.2s-.85-.55-.71-1.72,1-3.05,1.06-4-.76-2.57,0-4,2-3,2.45-4.39-.43-1.07-.32-3.09,5.62-19.36,6.19-21,2-3.86,1.94-5,1.41-4.1,1.76-5.26,5.33-14.38,5.73-15.75a25.92,25.92,0,0,0,.57-6.77c-.16-1.81-.56-5,.31-7.11a18.5,18.5,0,0,1,2.45-4.38,5.46,5.46,0,0,0,1.27-2.4c.18-.85.37-2.75.37-2.75s-2-1.44-2.22-2.83,2-4.08,1.93-5,1-7.29,1.11-8.77.18-7.53.2-9.66.22-6.15.37-8.9.65-12.3.55-15.38-.45-8.61-1.17-10.33-1.57-3.34-3-7.1-5.29-8.33-6.18-10.27-2.49-6.65-3.3-7.42a3.44,3.44,0,0,0-2.37-.6s1.26-1.35,2-2.07l4.12-3.06s6.47-.86,8.2-.81a11.72,11.72,0,0,1,4.39.77,16.63,16.63,0,0,0,2,.91L465,11.22l-.45-1.93a12,12,0,0,1,2.93,0,3.34,3.34,0,0,0,1.51.05s-2.36-2.19-2.39-3.58a6.11,6.11,0,0,1,3.57-4.56c1.73-.48,5.45-1.64,6-1a22.46,22.46,0,0,1,1.36,2.27s5,1.54,6.8,2.23,7.76,5.33,8.49,6S496,12.15,497,12.61s14.69,23.8,14.08,25.16a34.11,34.11,0,0,1-1.62,3A29.41,29.41,0,0,0,512,44.27a10.4,10.4,0,0,1,1.9,4.3c0,.85-1,3.58-.71,3.91s1.67.79,1.92,2.18-1.49,2.93-1.49,2.93-1.78,1.75-1.4,3-1,3.05.1,3.61-.88,1.57-1.31,2.09-1.48,1.86-.41,2.43.86,1.08.34,1.49a3.41,3.41,0,0,0-.83,1.36s.81.77-.62,1.89-2.39,2.05-2.39,2.05,1,.24.33,1.5a5.21,5.21,0,0,0-.75,3A20.9,20.9,0,0,0,510.06,85a1.06,1.06,0,0,1-.83,1.89c-1-.25-.23,1.58-1.75,2.6a4,4,0,0,1-1.19,3s.33,2-.79,2.74l-2.58,4.48.95-.92s-3.08,8.93-3.44,10.61-6.88,20.18-8.72,23.73-6.37,10.1-8,13.87L482,150.79s-4.76,8.66-6.21,11.38l-1.44,2.71s-2.36,3.44-4.06,6.36-4,5.93-4.28,7.4-.24,3.18-1.2,4.11-1.79,2.81-2.74,3.74-2.62,3.1-3.49,4.14-3.35,5.1-4.92,7.38-3.53,4.36-5.58,6.84a86.47,86.47,0,0,1-7.47,7.63c-.91.72-1.1,2.09-1.84,3a22.62,22.62,0,0,1-1.56,1.76,2.7,2.7,0,0,1-.8,2.74,27.73,27.73,0,0,1-3.38,2.12s.81,1.3-.18,1.91S429,226.94,429,226.94Z"/><path d="M19.8,51.4c2.53-3.54,4.8-10.12,4.8-10.12l5.82-4.8S42.57,35.72,44.08,35s5.57-.51,5.57-1.27-.25-2,.51-2.53,3,.76,3,.76l1.27,2L59,35.47l-3.29,3,.76,6.33S58,46.6,58,47.86s-.06,10.44-.06,10.44,3.79.57,5.12,1.9a8,8,0,0,1,1.77,3.6c2.78.38,2.53-.5,2.53-.5l-.25,4.8v3.29a29.1,29.1,0,0,1,3.29,3.8,13.69,13.69,0,0,0,2,2.53l-.25,3.79s.5,25,1,26.06,1.52,13.92,1.52,13.92L76,144s2,33.65,1.77,37.45S79,202.7,79,202.7l1.77.25.51,1.52,3-.5a20.88,20.88,0,0,1-1.26,2.78c-.51.76-2,.76-2,.76l-.5,5.31-2.28,5.06s.25,6.07-.51,6.58-10.37,1.26-12.14,1S59,224.21,59,224.21H54.46L52.69,226a35.17,35.17,0,0,1,0-5.32,25,25,0,0,0,1-5.31c0-2,.25-7.08.25-6.32a42.72,42.72,0,0,0,1.52,5.06,41.66,41.66,0,0,0,.76-5.57c0-1.77-.25-5.82-1.27-7.84s-9.36-25.05-10.12-26.82-4.3-6.33-6.57-9.62-5.06-12.14-6.84-16.44-7.33-20.49-7.33-20.49a17.82,17.82,0,0,0-1.77,2.78,19.37,19.37,0,0,0-.51,2.28s-1.27-.26-1.27-1v-3.79a11.71,11.71,0,0,1-2-2c-1.26-1.51-.76-3.54-1-6.57s-.51-6.33-.51-7.09-1.26-2.53-1.52-4.05a31.9,31.9,0,0,0-1-3.79s-1.26.76-1.77-1.52-1.26-4.05-1.26-5.06-2.28-3.79-3-4.81a20,20,0,0,1-3.79-5.56C3.35,84,2.84,81,2.34,79.74a4.59,4.59,0,0,1,0-2.78S-.44,78.48.06,76.45s1.77-6.58,2.28-8.6A18.28,18.28,0,0,1,7.4,60.51c1.77-1.26,7.08-2.78,7.08-2.78s0-.76,2-2.28A13.19,13.19,0,0,0,19.8,51.4Z"/><path d="M228.78,48.37s-1-12.4-2-16.19-5.06-8.61-1.26-12.15,9.36-3,12.9-2.78,10.37,4.05,13.16,6.32,5.82,4.31,5.06,5.57-3.29,6.07-3.29,6.07S261.16,39,263.94,42s6.58,7.59,6.58,7.59,2.53,1,4.3.51,5.32,4.3,6.33,6.07,4.05,1.52,5.56,3.54-.25.26,1.52,2a6.29,6.29,0,0,1,1.52,4.55A14.76,14.76,0,0,1,293,67.6c1.27.76,3.8,0,3.54,2.27a10.8,10.8,0,0,1-2,4.56S292,74.68,292,77s-2.78,6.07-3.29,8.85S286,94.67,285.2,97s-.51,5.06-1.77,9.1-.76,3.8-2,6.08a4.31,4.31,0,0,1-3.54,2.27s-2,7.09-2.53,8.6a47.91,47.91,0,0,0-1.77,4.81c-.51,2-3.29,5.82-3.54,7.59s-.76,4.56-.76,4.56-2.53,17.2-3.29,20.49-1.77,8.35-2.53,10.63a44.36,44.36,0,0,0-1.77,9.1,40.34,40.34,0,0,1-3,11.39c-1.52,3.29-3,6.83-3,9.36s-1,6.83-1,8.6.51,4.56.51,5.57,1.26,1.26-1,3.79-2.79,4.56-4.56,6.33-2.78,1.26-3.54,1.77-1.26-1.77-1.26-1.77-2.79.25-4.3.25-6.58-1-7.85-.76-4.3-.5-5.06-.76-3.29-3-4.55-5.06-1.27-6.07-1-8.35,2.53-5.56,2.53-7.33-.51-11.14-.51-11.14a17.51,17.51,0,0,1-.51-3.28c0-1.27-.5-8.61-.25-10.12s.25-7.85.25-10.38-.5-5.82-.76-10.37-.5-9.11-1-14.68-2.78-45.54-4.3-50.85-2-7.08-2.53-8.6-.25-5.57-.5-6.83,1.77-2.28,1.77-2.28V68.36c0-1.78,2-5.82,2.78-6.84s3-2.27,3-4.55a15.57,15.57,0,0,1,.75-5.82C223.46,48.87,228.78,48.37,228.78,48.37Z"/><path d="M324.92,43.81a24.27,24.27,0,0,1,0-4.3c.25-.76-1.77-.76-1.27-1.77s.26-1.77,0-4.8-1.26-3-2.53-7.34-.25-5.57.26-8.6,7.59-4.81,9.36-5.32,5.06,0,7.59,3.54,3,10.38,3,10.38,4.05,6.58,6.08,7.08,4.55.51,4.55,1.77,2.78-3,2.78-1.26a10.15,10.15,0,0,1-1,3.79l3.8,5.32,10.12,5.06c2.53,1.26,5.31,6.07,7.33,6.32s5.06,2,4.3,3a22.56,22.56,0,0,0-1.77,3.54S376.28,78.73,376,80s-1,10.63-1.78,13.16-.25,7.59.76,7.34,0,1.77-1,2.53-1.52,3-1.52,4-1.77,12.65-1.26,14.42,2,13.15,2,14.92a46.83,46.83,0,0,1-.76,9.62c-.76,3-1.51,6.83-2.53,8.09s-.5,8.35-.5,8.35,1.77-1.51,1.26.26-1.52,7.33-3.29,8.85-5.56,6.07-6.83,7.34-8.09,19-9.11,22.77-2.78,14.17-5.56,16.95-9.36,5.06-9.36,5.06l-3,.25s1.52,1.27-.76,2a29.33,29.33,0,0,1-6.83.76,13,13,0,0,0,.25-5.06c-.5-2-1.77-6.58-3.29-8.61s-2.53-1.26-2.78-3,1.52-2.53,1.77-3.54.26-9.11.26-9.11.5-14.17-.26-15.94a27.35,27.35,0,0,1-2.53-7.59c-1-4.81-3.54-16.45-3.54-19.74S314.55,147,313,139.45s-7.09-33.9-7.09-38.71-.76-32.89-.76-34.16,2.79-5.06,4.05-6.83,7.59-9.1,8.35-10.12-.76-2.53.51-3,2-1.52,3.54-1.27S324.92,43.81,324.92,43.81Z"/></g></g></svg>