<svg xmlns="http://www.w3.org/2000/svg" viewBox="0 0 389.23 377.66"><g id="圖層_2" data-name="圖層 2"><g id="圖層_1-2" data-name="圖層 1"><path d="M284.66,310c.34,1.78.55,4.46,2.69,5.9s7.29,5.1,9.44,5.9,9.4,1.07,11.43,1.48,8.15,7.16,8.15,7.16,3.43,7.57,4.53,9.75a16.75,16.75,0,0,1,1.3,5.5l1.87,2.58s-1.71,2.65-1.08,3.29-1,4.32-1,4.32l-.46,3.93a4.11,4.11,0,0,1,1.62,2.45c.6,1.92-1,4.31-1,4.31s-1.44,2.14-3.23,2.49a27.16,27.16,0,0,1-7.77.12c-1.39-.41-3.16-1.34-3.81-.71s.34,2.42-1.69,2a24.5,24.5,0,0,0-3.94-.46s-2.09,2.77-3.48,2.36-2.56.59-3.3-.44-1.49-2.07-2.39-1.58-.07,1.15-1.42.87a5.23,5.23,0,0,1-2.43-1.49s.45,2.81-1,2.28a3,3,0,0,1-1.75-2,8.35,8.35,0,0,1-1.63,1.08c-.85.41-1.3,1.67-2,.89a9.83,9.83,0,0,1-1.23-2.14s-1.73,1.67-2.39.89a11.87,11.87,0,0,0-1.76-1.56,4,4,0,0,0-2.56.8c-1.12.92-1.7,0-1.7,0s-1.21,1.51-2.06,1.49a3.57,3.57,0,0,1-1.85-1s.15,1.37-.86.84a14.26,14.26,0,0,1-2.43-1.91s.05,2-1.47,1.58a9.19,9.19,0,0,1-2.78-1.24l-1.81,1.41s-1.32-2-2.17-2-3.91.52-4.59.6-2.45-1.07-3.22-.83-1.72,1.25-2.47.64a19.84,19.84,0,0,0-2.43-1.49s-.87,1.26-1.29.83a7.06,7.06,0,0,0-1.43-1,6.8,6.8,0,0,0-2.13.38c-.6.33-2.18-1.14-2.18-1.14s-1,1.17-1.79.56a10.18,10.18,0,0,0-2.62-1.15s-1.63,1.07-2.47.63-3-.47-3.8-.91-2.36-1.23-3.55-1-4.83-.17-7.13.12-4.18,1-5.11.76-2.28-.55-2.28-.55-.61,1.18-1.3,1.25-3.56-.15-4.49,0a2.81,2.81,0,0,1-1.94-.8s-.55,1.86-1.22,1.51l-1.68-.88s-.1,1-.7,1.34a2.09,2.09,0,0,1-1.2.24.89.89,0,0,1-.69.92l-.77.24-1.21,1.08-1.49-2.06s-.37,1.94-.88,1.68a3.89,3.89,0,0,1-1-1s-1.47,1.59-2.32,1.58-1.34-1.13-1.34-1.13-.63,2-1.48,2S184,370.2,184,370.2s-1,1-1.8,1l-.85,0s-.62,1.61-1.38,1.42-1.35-.28-1.35-.28-.2,1.61-.88,1.26a13.42,13.42,0,0,1-1.84-1.39s-1.4,2.26-2.25,2.25-1.59-1.05-1.59-1.05-1.21,1.08-1.79.56a17,17,0,0,0-2.27-1.4,11,11,0,0,0-3.74.61l-3.85,1.21-1.6-.62-4.18,1.45a7.25,7.25,0,0,1-2.25,2.25c-1.11.49-3.65,0-3.65,0l-3.59-3.38s-4,.69-4.85.68-2.09-1.74-2.09-1.74a22.09,22.09,0,0,1-3.2-1.67c-.75-.61-1.38-3.08-.94-3.92l1-2s-4.36-3.14-5.75-5.79-.37-7.48-.37-7.48l.71-1.77a16.85,16.85,0,0,0-1.7-4.53,85.07,85.07,0,0,0-5.54-8.25c-1.24-1.72.2-6.53.2-6.53a6.14,6.14,0,0,1-1.64-3,8,8,0,0,0-1.79-4.36,4.82,4.82,0,0,1-1.14-2.74s-1.12.91-1.79.56-1.7-4.53-3.84-8.22-6.83-7-8.09-7.87a53.73,53.73,0,0,0-5-2.38c-1.35-.7-7.4-4.29-7.4-4.29a2.58,2.58,0,0,1-2,.05l-1.51-.8a2.05,2.05,0,0,1-1.7,0c-.84-.44-2.1-1.31-2.1-1.31a25.36,25.36,0,0,1-6-1.21c-2.11-.89-17-9.31-18.49-10.1s-8.37-6.52-10-7.82-4.75-4.42-6.93-6-6.09-6-7-6.24a6.65,6.65,0,0,1-2.77-1.67c-1.51-1.21-5.5-5.87-6-7.41s-4.51-3.64-5.34-4.93a68.61,68.61,0,0,1-2.85-6.84s-4.71-7-6.88-9-3.84-3.29-4.15-5.17-.51-4.76-.83-5.36S4.61,222.21,4.8,221a11.45,11.45,0,0,0,0-2.55s-.22-2-.53-3.49.35-5.59.35-5.59a1.79,1.79,0,0,1-2,.22C1.45,209,1.68,205.69.71,203a18,18,0,0,1-.54-7.56c.19-1.18,1.45-.31,1.45-.31s1.28-4.9,1.56-6.26a26,26,0,0,0-.25-5.26s-1.35-.28-1.3-2.83-1.2-13.26-.5-14.61a25.15,25.15,0,0,0,2.21-5.05c.2-1.18.8-1.94,2-4.12a7,7,0,0,0,.76-4.74,4.49,4.49,0,0,0-1.32-2,3.57,3.57,0,0,0,1.57-2.18c.36-1.52.19-6.11,1.21-10.5s2.72-9.71,4.81-12.48,2.43-3,3.58-5.62,2.29-4.37,2.9-5.55,1.18-3.88.61-5.25-1.55-1.33-.93-5.19c.48-3,1.42-3.12,1.89-5.66s-1-1,1.8-5.48,4.07-4.94,5.27-5.59a7.12,7.12,0,0,1,2.73-.72,2,2,0,0,1,1.4-1.84,2.09,2.09,0,0,0,1.12-.91s-.68-.36.56-3.13A8.9,8.9,0,0,1,37,76l1-.74a27.71,27.71,0,0,1,1.67-2.77,6.58,6.58,0,0,1,2.83-1.73,13.2,13.2,0,0,1-.67-5.28c.3-2.62,4-7.56,5-9.16s.4-2.79,1.92-2.85a10.1,10.1,0,0,1,3.47.74s3.24-.87,4.6-.59S58.68,54.11,60,52s2.94-2.75,4.23-3.57.58-4,2.83-6.23.5.26,2.25-2.25,1.49-2.86,4.49-4.5,3.7-2.57,5.66-3,3.13.56,4.15.24.46-1.69,1.23-1.93a43.51,43.51,0,0,0,4.26-1.19c1.12-.49.88-1.68,1.89-1.16a4.66,4.66,0,0,0,1.86.55A16,16,0,0,1,95.34,27c.85-.41,5.53-1.17,6.14-1.92s.82-2.79,1-4.4-1.06-2.48.48-3.39,2.24-1.82,5.07-3.13,6-3.71,8.71-3.15,4.12,2.36,5.3,3,1.12-.91,2.81-.88,1.67,1.73,2.61,1.57,1.21-1.5,2.83-1.73,3.79,1.77,3.79,1.77,3.52-2.23,4.4-3.91-.65-1.63,1.4-2.69S144.47,4.32,148,4s4.65,1.36,4.65,1.36a4,4,0,0,1,3.4-.36c1.77.71,2.33,2.5,3.59,3s1.8-1,3.66-.44,2.52,1.74,3.29,1.07,0-1.52,2.16-1.65,5.42.69,7.54.3a28.8,28.8,0,0,0,4.87-1.52s1.86-4,2.63-4.62,4.36-1.79,7.82-.62,7.15,3.52,7.9,4.55.31,1.45.31,1.45a2.35,2.35,0,0,1,2.55-.38c1.61.63,2.86,1.5,4.82,1s6.11.19,5.7-.24-3.6-2.95-1.3-3.25,3.62,1.26,4.74.34,2.16-2.08,6.49-1.75,6.6.89,7.43,1.75S235,8.85,236.06,9s7.63.57,9.14,1.36,1.9,3.34,3.34,3.45A9.16,9.16,0,0,0,252.8,13c1.36-.57.8-2.36,2.24-1.82s3,2.85,4.86,3,5.19-.5,5.34.86.35,3.83,1.53,4.44,6.36,5,8.21,6,3.11,1.42,4.14,1.09-.13-2.21,1.3-1.67,3,.9,3.81.49,1.42,1.39,2.16,2.84a4.36,4.36,0,0,0,3.94,2.28c1.53-.05,2.13-.38,3.29,1.51s1.12,3.58,1.71,4.1,2.86,1.07,3.86,2,1,3.76,2.72,4.64a4.73,4.73,0,0,0,4.41.16c.95-.57-.54-2.64,1.31-2.1a24.87,24.87,0,0,1,4.71,2.47,6.42,6.42,0,0,1,2.08,2.16s1.37-.57,3.38,1.33,3.14,4.64,4.71,7A23.22,23.22,0,0,1,325,59.55a22.18,22.18,0,0,0,5,1.53c2.2.3,5.62,4,6.9,3.61s2.64-.55,2.7.56,1.49,2.49,2.66,3.53A17.13,17.13,0,0,1,346.74,75a20,20,0,0,1,1.48,7s2.17,2,4.6,3.9,4.41,4.66,5.93,5.46l1.51.79,3,2a24.42,24.42,0,0,1,2.78,5.74c.64,2.48-.16,4,.08,5.18s1.38,3.51,1.1,4.86a20.37,20.37,0,0,0,.17,4.59s2.58-1.65,3.4-.37.93,4.77,1.93,6.15.79,3,.67,4.85a7.19,7.19,0,0,0,.93,4.77c1.07,2.06,1.53,4.87,2.6,6.5s2.94,1.75,2.49,3.44-.16,4,.5,4.76,2.15,7.77,4.19,12.47,1.24,11.15,1.79,13.36,2.72,9.13,2.5,12a36.28,36.28,0,0,1-.77,5.16s1.61.2,1.58,1.47-1.49,12.28-1.28,14.75.53,3.49.07,5.6-2.27,8-2.27,8,.77-.24.12,2.64-1.47,6.08-1.47,6.08-4.37,11.64-4.73,12.73-3.07.54-3.43,2.06-1.06,2-.75,3.89a26.87,26.87,0,0,0,.78,3.41,19.28,19.28,0,0,1-2.09,3.19c-1,1.17-3.43,2.06-3.11,3.09a7.72,7.72,0,0,1,0,3.65c-.27.5-2.15,5.73-3.79,7.23s-4.17.6-4.17.6-1.56,1.75-1.66,2.77,2.31-.72.83,1.29-7.18,7.17-9,9S346,283.6,346,283.6s-2.55-.05-3.5.95a17.32,17.32,0,0,1-3.1,2.24s-11.88,4.71-13.59,5.1a99.57,99.57,0,0,0-10.6,4.31c-1.2.65-9,3.65-14.2,5.85S284.66,310,284.66,310Z"/></g></g></svg>