<svg xmlns="http://www.w3.org/2000/svg" viewBox="0 0 269.21 469.11"><g id="圖層_2" data-name="圖層 2"><g id="圖層_1-2" data-name="圖層 1"><path d="M227.41,457c-2.79.78-9.48,3.51-9.48,3.51l-5.27,2.11s0,2.63-1.75,3-4.39,2.45-4.39,2.45-10-.52-11.41-.7-6.32-1.75-6.32-1.75-4.39,3.51-6.15,3.51-8.6-2.64-8.6-2.64-4.39,0-5.62-.52a40.32,40.32,0,0,1-4.39-2.81s-6.67,3-11.06,3S147.7,464,147.7,464s-6.32,1.23-8.08-.35-3.68-3-3.68-3-.7.88-2.11-.53a22.9,22.9,0,0,1-2.63-3.33,25.33,25.33,0,0,1-10.36-5.8,65.55,65.55,0,0,0-8.61-7,4.48,4.48,0,0,1-4.38-.53,15.48,15.48,0,0,0-6-2.81c-2.29-.52-3-1.4-4.74-2.81s-2.11-3.68-4.22-3.68-3,2.1-4.74-.53-.17-3.51-.17-3.51S79.58,424,76.24,419.07s-7.72-10.71-8.78-12.29,1.06-1.58-.52-3.34S62,398,61,395.54a15.81,15.81,0,0,1-1.23-3.86s-2.11-.53-3.87-4-10.18-14.75-11.23-16.51.52-1.58-1.23-4.21-4.74-8.6-5.44-9.83,0-1.93-1.06-4.57-4.74-13.69-6.32-20.36-2.46-12.82-4.74-18.09-3.34-7.55-4.21-11.23-2.81-4.39-4.22-7.2-1.93-5.27-1.4-6.85c0,0-1.93-11.41-2.28-12.82s-1.58-3.51-1.58-5.44.35-4-.18-5.79A83.21,83.21,0,0,1,9.7,248.93a99.24,99.24,0,0,0-1.23-13.69c-.35-1.41-1.93-24.76-2.28-29.32A85.44,85.44,0,0,0,3.9,191.7c-.87-2.81-.7-8.08-.7-8.08A9.77,9.77,0,0,1,0,177c-.17-4.22.18-4.57,1.76-5.27a24.65,24.65,0,0,1-.53-8.43c.53-4.56.35-4.39,1.58-6.49A22,22,0,0,0,5,150.44c.17-1.06,2.46-3,2.46-3s1.22-6-1.06-8.78S2,135,3.2,133.05s3.34-4.74,3.16-6.14a6.4,6.4,0,0,1,1.58-5.62c1.93-2.11,3.51-2.11,4-5.27s4.39-8.25,4.39-8.78-.7-.35.53-3.16,10-21.59,12.64-23.88,8.07-3.16,9-6,.35-4,1.06-4.91a72.33,72.33,0,0,0,6.84-9.13c2.64-4.39,3.34-6.5,4.39-7.2s1.23,1.23,3-2.11,2.28-5.26,3.51-6.67,6.85-7.9,10.88-12.82A49.72,49.72,0,0,1,86.42,17.52C94.5,14,97.49,14.89,99.24,12.78S105,7.34,106.44,7s4,.7,6.15,1.23,9.65,3.16,10.71,2.81,1.22-2.81,2.81-2.64,3.51,1.58,5.26,0,.88-4.74,3.16-5.26a82.29,82.29,0,0,1,9.84-1.94,40.41,40.41,0,0,0,6.49-1c1.41-.35,1.41,0,3.51.53s9.31.7,11.42,3.33,5.79,5.1,7.37,5.1,4.21-1.76,5.79-2.29,1.41,3.34,3,3,3,.35,4.56.7,6.15,3.69,8.08,3.34a17.65,17.65,0,0,1,2.63-.35,1.28,1.28,0,0,1,.88-1.41c1.06-.35,1.76.7,3,1.05s1.4-1.4,5.09-.87,4.39,2.45,6.67,3.68,1.76,1.58,3.34,1.93S219,22.09,220,24.2a17.83,17.83,0,0,1,1.4,4.91,56.46,56.46,0,0,0,5.27,10.36c3.51,5.44,5.62,11.41,7,13s3.34,2.11,5.27,5.8,4.21,12.11,4.57,15.1a29.87,29.87,0,0,1,.17,5.26,16.19,16.19,0,0,1,2.46,4.57c.88,2.63,2.11,4.21,3.16,6.67s2.28,4.39,2.28,6.67.88,9,.7,11.42-1.05,3.33-.87,5.26.52,8.43,1.05,8.25,1.58-3,1.93-.7.53,3.16-.17,4.92-.36,6,.17,8.25,1.76,4.21,1.58,7.55a31,31,0,0,1-1.4,7s5.26,2.64,7.72,3.69,3.16,1.76,3.34,3.51a14.63,14.63,0,0,1,3.16.88c1,.53-.53.35-.53,1.76s.35,4.21-.7,6-3.16,5.26-4,7a4.13,4.13,0,0,0-.17,3.33,3.14,3.14,0,0,1,3.68,2.11c1.23,2.81,1.58,4,1.06,4.74s-2.46.88-2.46,1.93-1.05,4.39-1.23,5.62,1.4,3.51.7,5.09-2.46,4.74-2.46,4.74a25.61,25.61,0,0,0-.87,4.74,13.79,13.79,0,0,1-.88,3.87l-.18,4.56s2.46,1.92,2.46,6.5a14,14,0,0,1-1.05,6c-.35,1.4-.35,7.2-.53,8.78s-2.28,2.1-2.28,2.1-.53,1.94-.7,2.81-2.11,1.93-2.11,1.93,1.58,1.76.7,2.64-1.4.7-1.75,1.58a18.61,18.61,0,0,1-1.94,3.51c-.87,1.23-2.1,2.28-1.58,2.11s1.06-.35,1.76,1,3.34,4.92,2.46,6.5-2.29,2.28-3.16,3.16a47.32,47.32,0,0,1-6.32,5.26,17.08,17.08,0,0,1-5.8,2.29c-.88.17-1.05,1.23-1.05,1.23s1.23,4.21.17,6.49-4,4.92-4.38,6.32-1.59,3.16-1.59,3.69.71,4-.17,5.79-1.76,2.46-2.28,5.1a41.61,41.61,0,0,0-.18,7.9s2.46,3.86,1.41,6.67-1.41,3.16-2.29,5.44a120.49,120.49,0,0,0-3,12.12,48.19,48.19,0,0,0,.35,8.25,30.53,30.53,0,0,0,2.28,8.25c1.23,3,3,3.16,2.46,5.09s-1.58,3-1.4,5.09.87,1.76.35,5.1-1.41,6.32-.88,7.19,2.63.71,3,1.41,1.76,5.44,2.11,6.32,2.63,2.11,3.86,3.34,1.06,2.45.18,5.26,1.58,3.51,1.58,6.15-.35,4.91.53,7.2,2.63,2.1,2.28,4.39-1.76,2.81-2.64,5.44-1,4.56-1.93,5.09a4.14,4.14,0,0,0-1.75,1.76,41.16,41.16,0,0,1-2.81,3.68,13.31,13.31,0,0,0-3-.52c-1.23,0-3.16-.35-4.91,1.75a11,11,0,0,1-4.39,3.51,15.18,15.18,0,0,1-2.64.53s-1.22,4.57-.7,6.85,1.93,1.75,1.76,4a37,37,0,0,1-1.06,5.44c-.17.88,1.76,1.23,1.76,1.23l1.93,3s1.93-.35,2.64.18a14.68,14.68,0,0,1,3.16,2.81c.87,1.23.87,3.69.87,5.62S230.57,456.11,227.41,457Z"/></g></g></svg>