<svg xmlns="http://www.w3.org/2000/svg" viewBox="0 0 585.89 654.76"><g id="圖層_2" data-name="圖層 2"><g id="圖層_1-2" data-name="圖層 1"><path d="M257.21,547.74c-1.49-2.9-3.1-5.3-2.43-7.73a31.93,31.93,0,0,1,2.43-5.63s-.34-2-.89-4.2-1.32-6.51-1-8.83a14.22,14.22,0,0,0-.11-6.07c-.55-3-2.21-13.25-2.43-17.23s2.1-12.25,6.07-17.33,17.12-10.93,17.45-11.26a15.45,15.45,0,0,1,2.43-.88c.44-.23,1.1.22,1.1.22s5.85-2.43,16.45-1.77a70.25,70.25,0,0,1,26.39,7c7.18,3.42,22.85,16.67,23.74,17.66s2.1.44,2.32,1.22a4.68,4.68,0,0,0,1.1,2c.33.22,10.6,12.7,10.71,13s9.16,16.12,9.94,18,1.32,1.65,1.43,2.65,0,1.76.11,2.1,1.88,7.5,2.32,11.15a67.62,67.62,0,0,1-.88,15.68c-.77,3.42-.66,5.63-1.55,6.62s-4.3,7.95-10.27,11.7-17.44,10.38-29.92,10.16c-11.44-.2-20.53-3.31-31.91-7.73a41,41,0,0,0-2.42,4.53,29.44,29.44,0,0,1-2.32,5.19s8.76,10.76,11.26,24.07a40.38,40.38,0,0,1-.44,15.9,2.79,2.79,0,0,1,.77,2.54,8.11,8.11,0,0,1-1,2.54l-.67-.67a36.82,36.82,0,0,1-2.65,6.74c-1.65,3.09-7.61,12.37-22.3,14.68s-26.39.45-38-2.87-28.15-12.25-45.6-26.61-20.09-32.79-20.09-32.79-.3.37-.52-1.18-.37-1.91.15-2.35a25.83,25.83,0,0,0-.15-3.17c-.15-.44-.66-.44-.59-1.69s1.11-3.83,1-4.64-.59-1.39-.29-2.06.73-1.69.73-1.69a34.3,34.3,0,0,1,4.2-9.2c3.09-4.79,8.82-12.2,20.31-13.62a90.31,90.31,0,0,1,14.36-.29c1.4.14,10,.07,15.23,0s10.38-.3,11-.3a9.29,9.29,0,0,1,1.4,0l1.77.3s-.52-.59,1-.81a13,13,0,0,1,4,.29c1,.15,6,2.58,7.14,3s2.06,1,2.65.59a1.77,1.77,0,0,0,.3-2.21A29.82,29.82,0,0,1,257.21,547.74Z"/><path d="M116.32,414.81c-.44,1.17-.59,1.84,0,2.72s2.73,3.75,3.9,4.27a12.44,12.44,0,0,0,4.79.51,5.67,5.67,0,0,0,3.68-1.76c1.4-1.48,7.29-6,16.19-10.82s15.75-8.17,24.14-10.53a70.23,70.23,0,0,1,16.2-2.43,1.85,1.85,0,0,1,1.25-.51c.88-.08,1.4.22,1.77.07a6.84,6.84,0,0,1,2.57-.07,21,21,0,0,1,2.8.66,1.87,1.87,0,0,1,.74.51s3.23.59,3.9.67.81-.45,2,.36,1.26.67,1.84,1.26a6.42,6.42,0,0,0,1.62,1.32,9.32,9.32,0,0,1,2.36,2.21c1.25,1.4,5.23,7.07,5.08,13.4s-.22,9.64-3.54,17.59-10.3,17.88-15,24.44c0,0-.15,1.54-.74,1.76s-1.4.44-1.4.44-2.57,4.57-5.07,6.63S171,485,150.77,497s-25.84,11.78-31.65,12.59-16.93.59-22.89-4.12-8.25-9.5-8-15.16.73-10.46.51-12.22-.81-3-.81-4.79-.07-6-.07-6a6.08,6.08,0,0,1-1-4.56c.52-2.65,1.25-3.17,1.25-3.17s-1.62.89-2.42.59-1.55,1.47-4.57,1.62-14.06-1.18-17.66-2.72c0,0-5.67-.08-11.56.07s-10.38,1.1-15.24.44-11.26-2.5-19.5-8.68S2.6,431.51.91,422.24s-1-22.16,2.13-32.39a10.93,10.93,0,0,1,.59-2.79,12.31,12.31,0,0,0,1.1-2.43,63.9,63.9,0,0,1,6-11.63c3.75-5.82,6.51-11.52,17.61-22.07S48.31,334,64.76,329.24s28.76.55,34.34,2.65,12.7,8.66,16.39,13.69,3.15,5.68,3.92,6.79.67,1.71,1.66,3,.88,2.27,1.38,3.76a87.29,87.29,0,0,1,2.87,11.7,73.82,73.82,0,0,1,0,17.39,108.47,108.47,0,0,1-5.3,18.83C118.14,411.44,116.32,414.81,116.32,414.81Z"/><path d="M242.56,221.59c-1.33-4.94-5.15-10.53-5.15-10.53a3.59,3.59,0,0,0-.22-1.55c-.3-.51-1.18-.29-1.18-.29-6.26-8.17-16.2-8.32-20.91-7.29s-7.87,1.7-17.29,8.17-14.06,11.41-20.25,20.69-8.83,18.91-9.27,19.58-1.18.59-2,1.1a7.77,7.77,0,0,1-3.09,1.33c-1,.07-2.28-1.18-3.17-2s-2.72-1.92-3.09-3.53a73.42,73.42,0,0,0-1.6-9c-.88-3-1.71-5.52-2-6.18a4.61,4.61,0,0,1-.16-1.77c-.06-.77-.66-.88-1.1-1.76a63.33,63.33,0,0,0-10.55-18.88c-7.84-9.83-16.56-16-22-17.45s-11-2.1-18.66,1.27-11.65,9.06-13.47,10.55a34.48,34.48,0,0,0-3.09,3.25,9.81,9.81,0,0,0-2,3.92,3.79,3.79,0,0,0-.28,2.16,56.22,56.22,0,0,0-3.15,6.51c-.33,1.38-2.1,4.8-2.54,6.51a13.79,13.79,0,0,1-.77,2.93,6.41,6.41,0,0,0-.94,2.26c-.16,1.05-1.6,6.85-2,11.49s-.83,10.71-.83,10.71a5.48,5.48,0,0,0-.5,2.15,16.6,16.6,0,0,1,0,3.31,4.08,4.08,0,0,0,.23,1.82,48.08,48.08,0,0,1,.88,5.74c2.33,17.75,10.71,33.57,18.6,41.57s20.37,11.65,27.05,10.66a28.48,28.48,0,0,0,13-5.36c1.77-1.38,2.71-2.43,3.59-3.2a23.2,23.2,0,0,1,2-1.87c.49-.28.72-.78,1.16-1.22s4-3.31,4-3.31a5.61,5.61,0,0,1,1.33-.55c.66-.17.44-.61.71-1a8.91,8.91,0,0,1,1.52-1.14c1,.05,2,.09,2.29.09a9.63,9.63,0,0,0,1.55-.33c.66-.11,1.32-.44,1.88-.49a2.2,2.2,0,0,1,1.27.38c.33.17.55-.11.77-.11a5.41,5.41,0,0,0,1.32-.22,38.18,38.18,0,0,1,4.7.17,6.58,6.58,0,0,1,1.76.22c.44.05.55-.11.94-.17a14.7,14.7,0,0,1,2.1,0l.94.12a5.05,5.05,0,0,0,.94,1.32,22.49,22.49,0,0,1,2.2,2.72,4.37,4.37,0,0,1,1.4,1.18,26.31,26.31,0,0,1,2.36,3.9c.51.81,1,2.06,1.54,2.43s1.55,2.43,2.43,3.75,2.95,5,5,6.11a26.63,26.63,0,0,0,19,2.87,39.42,39.42,0,0,0,18.18-8.61c4.86-4.2,9.64-10.75,12.95-15.16a49.39,49.39,0,0,0,5-8.1,4.16,4.16,0,0,0,1.25-1.69,6,6,0,0,0,.37-2.28c6.18-14.43,7.65-25,8.54-36.88S243.88,226.52,242.56,221.59Zm-83.45,78.94c-1.72-.11-3.7-.28-4.37-.22a23.48,23.48,0,0,1-2.42-.11s-.83-.17-1.72-.28c-.52-.06-1.8-.13-2.78-.21a21.15,21.15,0,0,1,6.32-2.55c2.1-.38,4.19-.77,6-.16s2.81,2,3.75,2.87a3.92,3.92,0,0,1,.61.69C162.85,300.58,160.23,300.6,159.11,300.53Z"/><path d="M276,121.71c1.25,1.18,3.38,4.49,5.08,6.18a22.15,22.15,0,0,0,5.89,3.76c1.91.95,6.55,1.47,6.55,1.47l-.44.81-1.48.22s-.95-1.18-1.54-1.11-.81.89-.89,1.25a2.77,2.77,0,0,0,0,.81s-2.28.3-3,.52-1.4.22-1.18.74a1.9,1.9,0,0,0,.51.73,9.53,9.53,0,0,0-3,1.11c-1.55.88-2.58,1.62-2.73,1.39s-.59.08-.66.37-1,.74-1.47,1-6.77,4.49-9.2,6-6,3.38-7.58,4.34a25.6,25.6,0,0,0-7.51,5.6c-3.68,3.82-3,10.45-2.21,12.36s5.59,8.17,16.27,12.52,30.18,11.7,52.92,10.45,43.8-7.14,61.17-13.91,24-10.6,30.77-15.09,11-8.1,12.21-11.27a15.49,15.49,0,0,0,1.33-6.33,11.6,11.6,0,0,0-2.58-4.91,37.9,37.9,0,0,0-10-6.4c-5-2-24.18-6.24-25-6.41s-1.44-.38-2.49-.6-2.43-.06-3-.17-5.3-.22-5.79-.44a4.56,4.56,0,0,0-1.66-.33,23.74,23.74,0,0,0-2.71-.28c-.66.06-14,.17-14.57.11a16.45,16.45,0,0,0-2.32-.16c-.55,0-.5-.56-1.43-.22s-2.32.27-2.71.6a9.05,9.05,0,0,1-1.16.78,32,32,0,0,1-4.64.88,2.61,2.61,0,0,1-1.16-.28,5.58,5.58,0,0,1-.44-1.65,6.9,6.9,0,0,1-.05-1.44c.05-.44-.33-1-.39-2a10,10,0,0,0-.22-1.93c-.11-.38-.44-.38-.66-.94s-.33-.71.16-1.1a5.12,5.12,0,0,1,1.77-.94c.94-.33,1.44-.72,1.93-.88a4.06,4.06,0,0,0,1.49-.89,11.79,11.79,0,0,1,3.48-1.6,14,14,0,0,0,4.53-2.43c1.87-1.38,9.6-5.9,15.57-11.09a90.47,90.47,0,0,0,18-21.26c4.92-8.39,5.58-11.76,7-17.77s2.87-12.7.11-23.58S386,20.66,377.71,14.2s-19.63-9.38-28-11.64c-3.7-1-6.23-1.16-6.73-1.44a2.65,2.65,0,0,0-1.6-.11c-.66.06-3-.44-6.07-.72S304.56-1.36,285,5.65s-28.7,11.7-42.06,26.61a56.6,56.6,0,0,0-14.74,38.42c0,1.71-.5,1.38,0,2.87s.49,3.92,1.05,5.74,1.43,4.47,1.6,5.25a6.23,6.23,0,0,0,.55,1.82c.33.66,0,1,.55,1.76a17.84,17.84,0,0,1,1.27,1.55c.06.22,2.32,3.53,2.32,3.53s.88.61,1,1a1.71,1.71,0,0,0,.5,1c.33.28.94.66,1,1.11s.27.88.27.88a42,42,0,0,0,7.68,6.79c3.75,2.32,9.77,5.46,12.53,7s6.73,4.36,11,6.9S276,121.71,276,121.71Z"/><path d="M280.25,284.52c4.14-2,4.34-2.13,4.34-2.13s-.08-.81.51-1A8.85,8.85,0,0,1,287,281c.88-.08.66.14.66.14l9.2-3.31c1-.37.15-1.25,1-1.4s2.43-.29,2.87-.44,1-.66,1.69-.66a11.71,11.71,0,0,1,2,.29,1.21,1.21,0,0,1,1.32-.22,3.64,3.64,0,0,1,1.33.74,49.68,49.68,0,0,1,17.3,1.47c9.71,2.5,16,5.39,23.92,16.12a28.54,28.54,0,0,1,5.59,14.94c.44,6.92-.29,11.49-1.76,15.53s-3.1,10.16-3.54,11.93-.14,2.65-.88,5.81-1.4,7.59-1.84,8.84a9.56,9.56,0,0,0-.66,3.38c0,1.18.73,2,.44,3a15.35,15.35,0,0,1-1.4,3.83,28.62,28.62,0,0,0-2.21,4.05c-.22.73.88,1.23,1.82.57a1.71,1.71,0,0,1,.39-.89c.33-.33,1.32-.33,1.32-.33a17.88,17.88,0,0,1,3.43-1.49,3.24,3.24,0,0,1,1.21.11s.11-.38,1.66-.66,5.35-.72,5.35-.72,0-1.54,1.33-1.82,2.87.44,5.24-.22,16-5.36,16.84-5.69,1.05-.93,1.55-1.1a.75.75,0,0,1,.77.11,45.9,45.9,0,0,1,8.48-2,29,29,0,0,1,10.57.12c1.44.3,9.37,2.46,12.37,8.88a21.92,21.92,0,0,1,2.1,11.65,4.36,4.36,0,0,1-.36,2.28,59.75,59.75,0,0,1-1.92,6.49,76.84,76.84,0,0,1-5.46,10.2,3.57,3.57,0,0,0-.78,1.5,4.84,4.84,0,0,1-.36,2.41c-.55,1-2.95,5.16-4,6.6a7.18,7.18,0,0,1-2.46,2.46,1.57,1.57,0,0,0-1.56.54c-.54.72-6.3,4.69-7.87,6.13s-7,6.48-7.26,6.72-.24,1-.78,1.2a8.18,8.18,0,0,0-2.46,1c-.36.42-1.44,2-1.8,2.46s-.3.91-.84.91-1.08-.06-1.51-.06-1,.6-1.5.78-.78,1.14-1.44,1.5a11.53,11.53,0,0,0-2.1,1.08c-.54.48-6.24,4.5-16.57,9.6s-19.21,8.47-31,10.21-18.9-.7-22-3.72c-3.42-3.3-7.74-10.54-4.38-22.58a58.9,58.9,0,0,1,8.23-17c.3-.66.06-1.14.66-2.28a5.33,5.33,0,0,1,1.62-1.8s-.84-.78-.42-1.32a7.07,7.07,0,0,0,1.14-1.5,4.29,4.29,0,0,0,.48-2.28,10.93,10.93,0,0,0-1.14-4c-.48-.54-.48-.72-.9-1.26a1.09,1.09,0,0,0-1.14-.54,96,96,0,0,1-17.71,5.46c-9.85,1.93-29.91.79-43.89-10.74s-15.28-25.26-12.21-40.64c.52-2.58,1-4.56,1-4.56s-.45-1,.14-1.48.59-1.69,2.95-6.47,6-11.86,15.75-23A97.35,97.35,0,0,1,280.25,284.52Z"/><path d="M470.12,187.93c10-5,16.25-5.43,22.41-5.87,1.46-.1.31-1.15,9.31-.31s14.87,1.47,26.49,5.76,24.6,10.05,29.73,13.08a73.38,73.38,0,0,1,10.47,8,21.72,21.72,0,0,0,3.45,2,8.2,8.2,0,0,1,3.35,2.72,13.19,13.19,0,0,1,2.73,8.69c0,4.71-.32,7.12-.95,8.16s-2.3,1.68-2.72,2.1a15.66,15.66,0,0,0-1.36,2.41l-.21.62a8.43,8.43,0,0,1,2.1,4.92c.1,2.83.1,4.4.1,6.18s.11,3.56-.94,5.13c0,0-.11,2.3-.73,3s-.53,1.67-1.05,2.2-1,.73-1.47,1.46a10.57,10.57,0,0,1-1.15,2.2c-.52.52-.94.52-1,.84s0,.52-1.46,2.4-4.5,5.34-5.44,6.29-6.81,5.65-10.58,8.27a87.34,87.34,0,0,1-12.56,7.22c-2.83,1.15-3.66,1.47-5.23,2.83s-3.35,1.57-10,3.87a142.42,142.42,0,0,1-34,6.36,94.66,94.66,0,0,1-24.34-1.89,6.81,6.81,0,0,0-1.41.24s-5.18-.71-6.05-1l-.86-.31s-3-1.34-5.26-2.44-7-3.45-7.77-3.85-2.52-.86-3.14-1.25a60.51,60.51,0,0,1-5.5-5.18,20.06,20.06,0,0,0-3.06-2.67,5.28,5.28,0,0,0-.71-2.52,10.13,10.13,0,0,1-1.49-2.9l-.24-.71a20.67,20.67,0,0,0-.62-3.53,24.44,24.44,0,0,1-.55-9.42,10.93,10.93,0,0,1-.79-3.22,7.2,7.2,0,0,0-.39-2.28,1.2,1.2,0,0,0,.86-.55,2.33,2.33,0,0,1,.32-1.33,12.19,12.19,0,0,0,.55-1.1l-.16-2a3.52,3.52,0,0,1-.31-1.5c.07-.62,1-3.29,1.57-5.41s4.55-9,4.55-9a50.15,50.15,0,0,1,4.55-8.56c3.46-5.5,4.95-6.52,7.93-11.62s2.52-3.54,4.71-7.54,4.32-8.09,6.76-10.29S463.79,191.09,470.12,187.93Z"/><path d="M502.06,349.22s3.55-3.55,4.84-4a6.58,6.58,0,0,1,2.69-.22s.65-.64,1.4.54a6.65,6.65,0,0,1,1.18,4.19,14.19,14.19,0,0,1,8.71,3.91c4,3.8,5.88,6.24,6.6,7.6s2.51,5.45,3.3,7.38,2.79,7.75,3,8.61-.5,3.87-.29,5.45a22.48,22.48,0,0,0,1.36,4c.43,1.36.94,3.37.94,3.37a36.08,36.08,0,0,1,1.5,7.24c.65,4.95.15,4.81.15,6v1.22s-.22.15-.36.93-1,.86-.72,1.94l.29,1.08s.64-.08.43.71-.65,1.22-.72,1.72l-.07.51a11.91,11.91,0,0,0,.14,2.5,6.91,6.91,0,0,1,0,3c-.21,1.21-.93,5.3-1,6.16s-.58,1.58-.43,2.37a12.61,12.61,0,0,1-.43,3.08s2.58-3.87,4-5.81,3-3.44,4.59-3.87,3.51-2.87,4.73-4a34.25,34.25,0,0,0,3.52-4.81c.43-.64,9.82-16.7,10.68-18.21s3.15-4.51,3.65-5.73.43-2.37,1.51-3.95,3.66-5.52,4.52-6.81l.86-1.29a18.39,18.39,0,0,1,1.5-2.86c.79-1.15,2.51-4,3.3-5.24s1.29-1.43,1.51-1.5.78,1.29.78,1.29a18.53,18.53,0,0,1,.51,3.29,23,23,0,0,0,1.07,4.88,4.6,4.6,0,0,1,.58,2.51l-.15,1.07a12.56,12.56,0,0,1,.65,2.73,11.52,11.52,0,0,0,.57,3.08,8.41,8.41,0,0,1,.22,3s.43,1.65.71,3.23a5,5,0,0,1,.07,2.22,13.22,13.22,0,0,1,.94,2.94,21.89,21.89,0,0,1,.28,3.3,24.4,24.4,0,0,1,.65,8c-.29,4.94-.29,12-1.65,18.85s-4.73,22.73-10.25,33-10.18,20.58-19.86,28.68a139.18,139.18,0,0,1-15.77,11.69,21.07,21.07,0,0,1-5,2s-1.94,1.37-3.95,2.51-5.8,1-6.23,1a52.74,52.74,0,0,1-6.67.64,32.62,32.62,0,0,0-5.52.5,11.39,11.39,0,0,0-2.15.07c-.93.22-1.51.79-2.37.65s-1.65-.65-1.43-1.22,0-2.94.14-3.58a16.72,16.72,0,0,1,.86-2.15l.5-1,.43-.64a1,1,0,0,1-.07-.79c.15-.5,1-2.22,1.22-2.94a13.23,13.23,0,0,1,.79-1.65c.07-.22.72-.86.79-1.15s-.07-.43.14-.71a4.62,4.62,0,0,0,.72-1.37c.14-.5,0-.78.29-1.07a3.52,3.52,0,0,0,.5-.72,2.93,2.93,0,0,1,.5-.93c.29-.29,1-.65,1.15-.86a3.46,3.46,0,0,0,.93-1.65c.07-.79,1.15-2.58,1.36-4.44s.79-2.73-.79-5.17c0,0-3.87,4.38-5.09,5.52s-7.53,6.31-9.75,8.25a21.12,21.12,0,0,1-5.3,3.3,5.13,5.13,0,0,0-2,.93c-.79.64-1.08,1-1.72,1.15s-1-.15-1.51.43-1.07.21-1.93.64-1.8.72-2.73,1.08-3.94.07-4.59.35-.28,1-1.21.86a5.34,5.34,0,0,0-2.08-.07,8.31,8.31,0,0,1-2.73.15c-.86-.15-2.44-.72-3.08-.72s-2.22.07-2.44,0a15.23,15.23,0,0,0-3-.07c-1.65.07-4.09-.79-5.45-.79s-3.65-1.36-4.08-1.36-.72.36-1.22.21-2.23-.86-2.94-1.07a4,4,0,0,1-2.3-1.37c-.86-1-2.43-4.37-3.8-6.38s-1.36-2.36-2.15-3.44a20.81,20.81,0,0,1-1.57-3.15c-.44-.79-1.08-2.08-1.58-3.08a6.1,6.1,0,0,1-.43-2.51s-.65-2.08-.72-2.44.57-1.36.57-1.36-.14-.94-.21-1.94a11.18,11.18,0,0,0-.57-3.66c-.58-1.57-.29-3.51-.43-4.15s-.58-.72-.43-1.72-.43-2.3-.36-3.45a14.13,14.13,0,0,1,.71-2.94l-.5-1.93a1.46,1.46,0,0,1-.93-1.58,8,8,0,0,1,.93-2.58,44,44,0,0,0,.43-5.38c-.14-.86-.71-1.21-.28-2.08a5.11,5.11,0,0,0,.71-2.07c.07-.79-.28-1.51-.07-2.3l.79-2.87a1.32,1.32,0,0,1-.36-1.5,10.72,10.72,0,0,1,1.43-2.22s.43-2.59.72-4.45-.43.07,1.15-4.66,4.44-11.54,4.73-12.9a8.11,8.11,0,0,1,1.15-3.37,31.34,31.34,0,0,0,1.93-4s-.5-.64-.21-.93,2.36-3.16,2.36-3.16a.67.67,0,0,1,0-1,5.8,5.8,0,0,0,1-1.72,6.69,6.69,0,0,1,1.36-1.58,16.06,16.06,0,0,0,1.22-2.36c.29-.86,1.58-1.72,1.72-2.51s.57-1.58,1.15-1.36c0,0,2.43-3.09,3.58-4.81a115.52,115.52,0,0,1,8-9.17c1.65-1.65,5.74-4.88,6.6-5.6s3-2.36,3.65-2.86,2.23-1.87,2.51-2.15,2.08-1.08,2.44-1.37l1.43-1.14,1.65-1,.5-.28,1-.72,1.22-.22s-.29-.07.5-.57a29.21,29.21,0,0,1,5-1.79C498.23,350.22,500,349.72,502.06,349.22Z"/></g></g></svg>