<svg xmlns="http://www.w3.org/2000/svg" viewBox="0 0 209.72 45.3"><defs><style>.cls-1{fill-rule:evenodd;}</style></defs><g id="圖層_2" data-name="圖層 2"><g id="圖層_1-2" data-name="圖層 1"><path class="cls-1" d="M182.6,34.23c3.87-.83,11.6-1.82,15,2.22a11.27,11.27,0,0,1,5.48.52c2.61,1,5.74,3.26,6.65,5.09l-1.3,1.17a25.25,25.25,0,0,1-2.74-2.09c-3-2.34-8.35-2-8.35-2A17.57,17.57,0,0,0,192.64,37c-3.13-1-11.48-.91-12.26-.13a3.47,3.47,0,0,0-.91,1.83s1-.4,1.69.91S180,43,180,43s-3.52.78-4.83.26-2.22-.39-1.95-4a70.53,70.53,0,0,0-.14-8.35c0-.78-1.56-3.78-3-6.91s-6.65-12.13-8.86-14.48a56.48,56.48,0,0,0-8.87-7.3,15.25,15.25,0,0,0-9.92-2,31.78,31.78,0,0,0-14.21,6.52C123.9,10.23,115.56,19,113.34,21.45l-2.22,2.48A9.79,9.79,0,0,1,106,26.54l-3.13.52s-4.18.91-5.87.39a94.32,94.32,0,0,1-14.22-5.87c-5-2.74-14.09-7.83-17.09-9.65S58.3,9.19,55.82,8.67s-8-1.18-11.34,1.3-8,8.09-8,8.09-.26,4.39-.39,6-1.83,1.17-1.83,1.17S32.74,29,32.35,29.8a41.35,41.35,0,0,1-6.4,6c-1.17.65-6.26.91-6.65,1.17s.26,1.57.39,2.35S14.22,44.14,12,44.53,6.78,46.1,5,44.4a60.73,60.73,0,0,1-5-5.86l4-.14a8.09,8.09,0,0,0,2,3.53c1.3,1,2.09,2.21,2.74,1.3s3.78-3.52,5.61-5.61,2.61-2.08,3.13-2.08a41.51,41.51,0,0,0,4.82-.92,7.2,7.2,0,0,0,3-1.3,39.66,39.66,0,0,0,4.31-6.13c.52-1.18.91-3.78,1.3-4.44s1.44-.39,1.44-.39a22.16,22.16,0,0,1,.39-4.17c.39-1.57,6.52-7.17,10.56-9.26s9.22-3.15,21.26-.39c4.57,1,15,7.17,21.52,10.56s12,7.57,13.7,7.7,3.39.26,4.69-.52,7.7-8.74,13.17-14.48,9.52-7,11.22-8.48,9.91-1.3,13.83-1.43,9.26-1.44,11.6-.66,7.36,4.25,10.05,8.48A76.45,76.45,0,0,0,170.6,19c2.74,3.26,5.57,8.6,6,11.61.26,1.83.52,5.87.52,5.87l1.43.52S178.94,35,182.6,34.23Z"/></g></g></svg>