<svg xmlns="http://www.w3.org/2000/svg" viewBox="0 0 86.14 178.91"><defs><style>.cls-1{fill-rule:evenodd;}</style></defs><g id="圖層_2" data-name="圖層 2"><g id="圖層_1-2" data-name="圖層 1"><path class="cls-1" d="M0,31.25c0-6.1.93-8.37,4.59-13.64S16.92,3.11,34.75.08C38.65-.58,51,2.85,60.68,11.79S83,38.69,84.53,57.84s1.92,113.25,1.38,114.81a6.66,6.66,0,0,1-4,4.57c-2.65,1.06-16.64,2.3-18.69,1.36s-3.78-3.45-4.31-6.68-1-102.68-.8-104.72A8.1,8.1,0,0,0,57,62.24c-.64-.85-2.39-2.39-3.7-1.59a61.31,61.31,0,0,1-9.11,6.91c-5,3-10.83,4.4-18.75,1.79s-14.14-8-18.16-12.06l-4-4a29.55,29.55,0,0,1-2.38-4.9C.15,46.07,0,31.25,0,31.25Z"/></g></g></svg>