<svg xmlns="http://www.w3.org/2000/svg" viewBox="0 0 855.76 734.32"><defs><style>.cls-1{fill-rule:evenodd;}</style></defs><g id="圖層_2" data-name="圖層 2"><g id="圖層_1-2" data-name="圖層 1"><path class="cls-1" d="M4.82,147,0,144.4s1-16.89.43-26.82-1.85-22.14,7.8-26.39,37.6-10.36,37.6-10.36,18.11-7.9,58.22-19.06,66.21-15.89,93.65-18.35S228,40.58,240.64,40s55.24-.37,66,.19,18.73,2.27,20.06,2.84,4.35,3,10.4,1.33,18.54-7.57,31.6-9.27,29.85-2.18,39.35.37c4.92,1.33,6.05,1,8.89-2.08s4.92-4.35,28.38-9.84,52.4-15.13,103.48-20,66.4-4,109-1.32S741,5.39,746.51,7.29s9.46,6.43,13.25,22.32,7.94,31,7.94,31l-.94,1.52s22.7,92.7,38.59,176.13,34.81,224.56,34.81,224.56,1.51-.76,3,1.7,11.73,57.89,12.48,83.05-3.21,56.57-17.21,85.7-46.73,83.43-53.73,92.7-12.11,8.7-16.08,7.94-4.35-.56-5.11-4.54-3.78-21.94-1.7-27.43,26.48-24.78,39-39.91,29.7-40.49,33.86-74.73-4.16-79.27-5.67-93.84-1.14-26.1-.57-27.43A5,5,0,0,1,830.7,464S821.81,372.22,804,283.49,749.73,79.93,748.22,77.85s-4.92-3-5.49-8.32S745,62.15,747.46,57s-2.08-22.51-2.08-22.51a32.48,32.48,0,0,1-9.46.94c-5.68-.19-13.81-.56-19.86,1.71s-12.3,6.43-13.44,6.24-1.13-5.3-1.13-5.3-4.73,8.14-6.81,8.33-9.84,0-9.84,0-7.57,18.73-36.51,30.45S583.82,90.34,538.41,92.61s-61.86.75-79.08-6.25-18.91-10-18.91-10-.95,4.54-3.79,3.21c0,0,7.95,4.73,11.16,8.33s3,6.43,3,6.43,4,1.7,5.49,8.7-4.35,17.78-11.16,20.24-12.68,4.36-18.54-2.46S416,100.93,415.44,97s.38-6.43,6.63-7S437.2,89,437.2,89s-4-1.13-7-9.08.19-9.65.76-10.21c0,0-3.79-2.27-5.11-5.87a18.92,18.92,0,0,1-1.32-4.35s-7.19-1.51-22.52-4-18.16-3.6-33.1-1.14S336.56,68,331.07,69.72a23.52,23.52,0,0,1-2.27,11s4.92,1.32,3.4,6.81-4.54,7.94-9.08,10.78-8.89,2.27-7.37,7c0,0,2.45-1.7,5.48.57a14.81,14.81,0,0,0,3.41-2.84c.94-1.32,2.08,1.14,1.89,2.84a116,116,0,0,1,12.67-3c4.36-.57,7.76,1.71,7.19,9.27S342,127,335.8,133.28,322,139,317.07,135.17s-8.7-8.51-8.32-12.48a12.94,12.94,0,0,1,1.89-6.06,8.58,8.58,0,0,1-.38-4.73c.57-2.46,1.32-2.27,0-4.35s-1.89-4.35-.95-6.43a60.67,60.67,0,0,1-24,12.49c-14.38,3.59-77,13.62-99.32,17s-38,4.35-61.3-.57-37.46-12.67-41.43-14.94-7-.76-11.16-.38-8.14-2.46-8.14-2.46.38,1.89-2.08,1.89-10.78-3-18.54-2.46a120.64,120.64,0,0,0-18.92,2.84c-7.18,1.52-8.51,1.89-9.45,1s-1.52-1-1.52-1-2.08,7.38,3.79,17.41,14.56,19.86,51.64,39.72,74,41.25,134.32,66.6,169.7,65.26,169.7,65.26.76-2.83,1.89-3.4,48.81,14,81.73,26.3,71.76,21.94,115.38,20.09,46.92-6.59,56-7,26.13,1.23,29.63,9.26.2,10.49-19.14,11.11-90.73,2.47-127.77-3.7-87.24-22-112.13-31.07-27.37-10.7-28.4-11.73.41-3.5.41-3.5S318.4,291.38,270.25,272s-153.69-68.1-188.47-82.92S9,158.26,7.92,157s-.21-3.5-.21-3.5l-3.29-4.32Z"/></g></g></svg>